<?xml version="1.0" standalone="no"?>
<!DOCTYPE svg PUBLIC "-//W3C//DTD SVG 1.1//EN" "http://www.w3.org/Graphics/SVG/1.1/DTD/svg11.dtd" >
<svg xmlns="http://www.w3.org/2000/svg">
<metadata></metadata>
<defs>
<font id="novel_prosemibold" horiz-adv-x="1146" >
<font-face units-per-em="2048" ascent="1638" descent="-410" />
<missing-glyph horiz-adv-x="342" />
<glyph horiz-adv-x="0" />
<glyph horiz-adv-x="682" />
<glyph unicode=" "  horiz-adv-x="342" />
<glyph unicode="&#x09;" horiz-adv-x="342" />
<glyph unicode="&#xa0;" horiz-adv-x="342" />
<glyph unicode="!" horiz-adv-x="604" d="M158 1303q0 81 38.5 123t106.5 42t107 -42t39 -123q0 -83 -99 -854h-94q-98 764 -98 854zM170 127q0 55 37.5 93t95.5 38q59 0 94 -41t35 -98q0 -56 -38.5 -92.5t-96.5 -36.5q-59 0 -93 39.5t-34 97.5z" />
<glyph unicode="&#x22;" horiz-adv-x="731" d="M70 1358q0 55 33 87t87 32q53 0 86 -32t33 -87q0 -16 -2.5 -36t-9 -57t-13 -71t-20.5 -106t-26 -134h-97q-12 62 -26 134t-20.5 106t-13 71t-9 57t-2.5 36zM422 1358q0 55 33 87t88 32q53 0 86 -32t33 -87q0 -15 -2.5 -35.5t-9 -56.5t-13.5 -72t-21 -106t-26 -134h-96 q-12 64 -26 134t-21 106t-13.5 72t-9 56.5t-2.5 35.5z" />
<glyph unicode="#" d="M23 299l14 135h192q8 65 27.5 210t30.5 241h-195l14 133h197l35 278h143l-35 -278h338l35 278h144l-35 -278h194l-14 -133h-195l-59 -451h195l-15 -135h-194q-6 -53 -19.5 -159.5t-17.5 -139.5h-144l37 299h-338q-30 -236 -36 -299h-144l37 299h-192zM373 434h338 q8 69 28 213t31 238h-340q-10 -88 -29 -233t-28 -218z" />
<glyph unicode="$" d="M66 217q0 77 53 133q199 -196 354 -219l25 492l-113 65q-121 70 -182.5 159.5t-61.5 211.5q0 148 116 261.5t300 137.5l10 197l97 -6l-11 -185q222 -3 334 -90q64 -51 64 -123q0 -79 -68 -141q-185 194 -336 219l-20 -450l141 -82q145 -84 201.5 -172.5t56.5 -184.5 q0 -156 -127.5 -284.5t-333.5 -155.5l-10 -207l-98 6l10 195q-121 0 -213 26.5t-137 71.5q-51 51 -51 125zM383 1151q0 -122 147 -217l21 395q-71 -13 -119.5 -60.5t-48.5 -117.5zM571 133q85 13 136 65.5t51 141.5q0 132 -166 227z" />
<glyph unicode="%" horiz-adv-x="1564" d="M51 1079q0 164 94.5 270.5t231.5 106.5q142 0 226.5 -98.5t84.5 -259.5t-95.5 -268t-234.5 -107t-223 98.5t-84 257.5zM223 1098q0 -114 42.5 -199.5t111.5 -85.5q67 0 102 62.5t35 203.5q0 115 -43 201t-113 86q-66 0 -100.5 -63t-34.5 -205zM369 -33l731 1575l108 -49 l-731 -1575zM874 336q0 163 95 270t233 107q142 0 226.5 -99t84.5 -260t-94.5 -266.5t-232.5 -105.5q-142 0 -227 97.5t-85 256.5zM1049 354q0 -114 42 -200t111 -86q67 0 102 63.5t35 204.5q0 115 -42 201t-111 86q-68 0 -102.5 -63t-34.5 -206z" />
<glyph unicode="&#x26;" horiz-adv-x="1730" d="M141 385q0 106 73 202.5t222 157.5q-106 122 -146 202t-40 167q0 110 64.5 194.5t162 126.5t207.5 42q161 0 268 -87.5t107 -218.5q0 -260 -334 -372q76 -76 229 -219q135 -129 230 -211q102 139 131 303q7 37 -2.5 49.5t-46.5 23.5l-105 29v64h479v-64l-98 -26 q-33 -9 -45.5 -23.5t-26.5 -56.5q-74 -207 -204 -369q147 -122 239 -162t224 -53l-25 -82q-111 -20 -203 -20q-122 0 -214.5 29.5t-205.5 113.5q-205 -145 -440 -145q-218 0 -359 116.5t-141 288.5zM373 455q0 -134 112 -235t265 -101q122 0 243 76q-85 70 -256 241 q-208 208 -252 256q-112 -104 -112 -237zM483 1186q0 -77 41 -149.5t148 -184.5q174 109 174 283q0 100 -56 170.5t-137 70.5q-75 0 -122.5 -50t-47.5 -140z" />
<glyph unicode="'" horiz-adv-x="376" d="M70 1358q0 55 33 87t87 32q53 0 86 -32t33 -87q0 -16 -2.5 -36t-9 -57t-13 -71t-20.5 -106t-26 -134h-97q-12 62 -26 134t-20.5 106t-13 71t-9 57t-2.5 36z" />
<glyph unicode="(" horiz-adv-x="772" d="M182 535q0 216 33 388.5t90 288.5t139 196t174 119.5t201 51.5l27 -84q-88 -11 -158 -47t-129 -107t-98.5 -176t-61.5 -259t-22 -353q0 -207 22 -366.5t61 -268t99 -183t129 -113.5t158 -58l-27 -84q-637 67 -637 1055z" />
<glyph unicode=")" horiz-adv-x="772" d="M-74 -436q88 11 158 47t129 107t98.5 176t61.5 259t22 353q0 207 -22 366.5t-60.5 268t-98.5 183t-129.5 114t-158.5 57.5l27 84q639 -67 639 -1055q0 -216 -33.5 -388.5t-90.5 -288.5t-139.5 -196t-174.5 -119.5t-201 -51.5z" />
<glyph unicode="*" horiz-adv-x="946" d="M86.5 896.5q10.5 31.5 48.5 53.5q17 10 50 21t103 33t136 45q-64 22 -135.5 44t-104 33t-49.5 21q-38 22 -48.5 53.5t9.5 65.5q42 72 123 26q17 -10 43 -33t80.5 -72.5t106.5 -94.5q-13 66 -30 139t-23.5 106.5t-6.5 53.5q0 43 22.5 68.5t61.5 25.5t61.5 -25.5 t22.5 -68.5q0 -20 -6.5 -53t-23 -107.5t-29.5 -138.5q52 45 105.5 94.5t79.5 72.5t44 33q81 46 123 -26q20 -34 9.5 -65.5t-48.5 -53.5q-18 -10 -50.5 -21t-103.5 -33t-135 -44q67 -23 136 -45t102 -33t51 -21q38 -22 48.5 -53.5t-9.5 -65.5t-52.5 -41t-70.5 15 q-18 10 -44 33.5t-79.5 73t-105.5 94.5q13 -64 29.5 -138.5t23 -107.5t6.5 -53q0 -43 -22.5 -68t-61.5 -25t-61.5 25t-22.5 68q0 20 6.5 53.5t23.5 106.5t30 139q-54 -46 -107 -95t-79.5 -72.5t-43.5 -33.5q-38 -22 -70 -15t-51 41q-22 34 -11.5 65.5z" />
<glyph unicode="+" horiz-adv-x="1095" d="M61 516v129h420v381h131v-381h422v-129h-422v-381h-131v381h-420z" />
<glyph unicode="," horiz-adv-x="475" d="M25 -270q70 67 111 121.5t53 96.5t8.5 71.5t-19.5 60.5q-13 23 -30 42.5t-28 27.5l-11 8q19 47 55 75.5t82 28.5q49 0 93 -42.5t44 -119.5q0 -47 -19.5 -98.5t-79.5 -123t-155 -140.5z" />
<glyph unicode="-" horiz-adv-x="651" d="M41 608l549 62l20 -158l-549 -63z" />
<glyph unicode="&#xad;" horiz-adv-x="651" d="M41 608l549 62l20 -158l-549 -63z" />
<glyph unicode="." horiz-adv-x="477" d="M106 127q0 57 39 96t97 39q57 0 93 -41t36 -98q0 -58 -38 -95.5t-97 -37.5q-57 0 -93.5 39.5t-36.5 97.5z" />
<glyph unicode="/" horiz-adv-x="839" d="M0 -33l731 1575l109 -49l-731 -1575z" />
<glyph unicode="0" d="M45 709q0 226 75 411.5t212 278.5q119 80 268 80q192 0 313 -121q189 -183 189 -596q0 -244 -77 -434.5t-226 -284.5q-109 -72 -250 -72q-201 0 -324 129q-87 91 -133.5 254t-46.5 355zM309 758q0 -182 38.5 -350.5t113.5 -249.5q53 -58 119 -58h8q94 0 155 95 q91 147 91 520q0 178 -28 317t-92.5 227.5t-158.5 88.5q-99 0 -158 -95q-45 -73 -66.5 -186t-21.5 -309z" />
<glyph unicode="1" d="M217 1333q301 123 502 123h26v-1098q0 -130 3 -192q1 -30 30.5 -44t122.5 -32l78 -14v-76h-733v76l73 14q102 21 135.5 34.5t34.5 41.5q3 62 3 192v572q0 184 -3 260q-2 42 -14.5 60t-44.5 18l-205 2z" />
<glyph unicode="2" d="M100 1194q0 75 50 137q58 70 157 109t221 39q192 0 312.5 -109.5t120.5 -290.5q0 -103 -35.5 -198t-119 -200.5t-196 -213t-291.5 -256.5h744l-43 -211h-903v139q146 143 253.5 269t167.5 215.5t95 171t45 133t10 104.5q0 125 -66 191.5t-173 66.5q-178 0 -334 -174 q-15 33 -15 78z" />
<glyph unicode="3" d="M92 213q0 27 8 54.5t16 40.5l9 14q112 -107 203 -162.5t178 -55.5q104 0 158.5 60t54.5 158q0 120 -87 217t-276 149v31q179 112 250.5 208t71.5 189q0 79 -55 131.5t-154 52.5q-190 0 -330 -170q-14 35 -14 76q0 77 57 142q57 64 147.5 98.5t198.5 34.5q186 0 300 -91.5 t114 -226.5q0 -58 -20 -107.5t-63.5 -94t-92.5 -80t-125 -82.5q175 -66 262.5 -176.5t87.5 -237.5q0 -77 -37.5 -151t-102.5 -131.5t-161.5 -92.5t-206.5 -35q-114 0 -197.5 31.5t-129.5 71.5q-64 61 -64 135z" />
<glyph unicode="4" d="M25 377q0 13 6 38.5t31 81.5t65 119l461 719q50 75 112 104.5t191 43.5q-6 -94 -6 -215v-695h188l-41 -196h-147v-359l-250 -34v393h-610zM223 573h412l2 662z" />
<glyph unicode="5" d="M121 211q0 23 5.5 46t11.5 35l5 11q114 -107 202.5 -155t170.5 -48q92 0 144.5 62t52.5 162q0 154 -137.5 266.5t-432.5 165.5l168 694l676 33l-47 -223l-571 -25l-66 -270q173 -34 304.5 -92t210.5 -131t118 -156t39 -174q0 -77 -32.5 -152.5t-93.5 -138.5t-159.5 -102 t-218.5 -39q-82 0 -156.5 26.5t-121.5 65.5q-72 59 -72 139z" />
<glyph unicode="6" d="M82 621q0 158 39.5 290t112.5 228t165.5 164t208.5 114q64 25 140.5 39t132.5 14q139 0 139 -102l-2 -29q-206 0 -338 -63q-278 -134 -320 -524q50 58 125.5 91.5t157.5 33.5q172 0 295 -122.5t123 -312.5q0 -123 -58.5 -229t-169.5 -172t-251 -66q-100 0 -188 38.5 t-159 115t-112 203t-41 289.5zM352 584q0 -246 70.5 -368t185.5 -122q84 0 139.5 80t55.5 188q0 162 -87 264.5t-227 102.5q-67 0 -133 -29q-4 -39 -4 -116z" />
<glyph unicode="7" d="M113 1229l32 225h648q153 0 245 4q-4 -58 -30.5 -128.5t-89.5 -205.5l-553 -1144l-121 43q195 368 428 854l170 356q-39 -4 -170 -4h-559z" />
<glyph unicode="8" d="M74 338q0 130 88.5 220t232.5 122q-151 82 -224 190.5t-73 221.5q0 109 68.5 198.5t180.5 138t243 48.5q189 0 312.5 -94t123.5 -240q0 -99 -74 -187.5t-227 -136.5q193 -101 269.5 -201.5t76.5 -214.5q0 -79 -39.5 -155t-107.5 -135.5t-168 -96t-213 -36.5 q-131 0 -237.5 44t-169 126.5t-62.5 187.5zM270 379q0 -123 86 -203t203 -80q123 0 189.5 61t66.5 154q0 84 -62 151t-218 148l-82 41q-183 -91 -183 -272zM342 1174q0 -79 59 -149t205 -144l60 -31q165 100 165 258q0 114 -74 185t-186 71q-99 0 -164 -56t-65 -134z" />
<glyph unicode="9" d="M76 1012q0 123 58.5 229.5t169.5 173t251 66.5q100 0 188 -38.5t159 -115t112 -203.5t41 -290q0 -158 -40 -290t-112.5 -228t-165 -164t-207.5 -113q-132 -53 -274 -53q-139 0 -139 102l4 27q209 3 336 65q277 133 319 520q-52 -57 -126 -89.5t-156 -32.5q-112 0 -207 54 t-153 154.5t-58 225.5zM336 1094q0 -162 85.5 -264.5t225.5 -102.5q67 0 133 29q4 74 4 116q0 246 -70 367t-186 121q-84 0 -138 -79t-54 -187z" />
<glyph unicode=":" horiz-adv-x="477" d="M106 127q0 57 39 96t97 39q57 0 93 -41t36 -98q0 -58 -38 -95.5t-97 -37.5q-57 0 -93.5 39.5t-36.5 97.5zM106 858q0 57 39 96t97 39q57 0 93 -41t36 -98q0 -58 -38 -95.5t-97 -37.5q-57 0 -93.5 39.5t-36.5 97.5z" />
<glyph unicode=";" horiz-adv-x="491" d="M25 -270q70 67 111 121.5t53 96.5t8.5 71.5t-19.5 60.5q-13 23 -30 42.5t-28 27.5l-11 8q19 47 55 75.5t82 28.5q49 0 93 -42.5t44 -119.5q0 -47 -19.5 -98.5t-79.5 -123t-155 -140.5zM113 858q0 57 38.5 96t96.5 39q57 0 93 -41t36 -98q0 -58 -38 -95.5t-97 -37.5 q-57 0 -93 39.5t-36 97.5z" />
<glyph unicode="&#x3c;" horiz-adv-x="1095" d="M61 520v117l955 506l18 -133l-809 -428l809 -428l-18 -140z" />
<glyph unicode="=" horiz-adv-x="1095" d="M59 285v131h977v-131h-977zM59 719v129h977v-129h-977z" />
<glyph unicode="&#x3e;" horiz-adv-x="1095" d="M61 150l809 428l-809 428l19 137l954 -506v-117l-954 -506z" />
<glyph unicode="?" horiz-adv-x="903" d="M106 1294q0 74 88.5 123t213.5 49q105 0 186.5 -29t128.5 -76.5t70.5 -102t23.5 -111.5q0 -180 -211 -320l-78 -53q-73 -48 -100 -90.5t-27 -89.5q0 -81 48 -164l-87 14q-77 51 -118 114t-41 130q0 70 42 130.5t148 135.5l78 54q125 88 125 188q0 58 -34.5 91.5 t-100.5 33.5q-122 0 -309 -135q-46 58 -46 108zM254 125q0 56 37.5 94.5t95.5 38.5t93.5 -41t35.5 -98t-38 -94t-97 -37t-93 40t-34 97z" />
<glyph unicode="@" horiz-adv-x="2258" d="M152 487q0 225 81 412.5t222.5 312.5t334.5 194t416 69q208 0 377.5 -56t291 -162t187.5 -268t66 -366q0 -155 -47.5 -289.5t-126.5 -224.5t-181.5 -141.5t-211.5 -51.5q-117 0 -185 62t-84 167q-48 -72 -128 -120t-175 -48q-121 0 -196.5 65t-75.5 167q0 134 140 233.5 t419 139.5v57q0 138 -38 198t-126 60q-159 0 -330 -184q-45 54 -45 114q0 71 68 125q61 50 154 75.5t198 25.5q83 0 145 -17t102.5 -47.5t66 -77t35.5 -100.5t10 -123v-326q0 -161 32 -235t105 -74q29 0 61.5 18t68 60.5t63.5 102.5t46.5 153.5t18.5 204.5q0 164 -48 299.5 t-141 234.5t-238.5 154t-330.5 55q-249 0 -426 -98t-265.5 -276.5t-88.5 -421.5q0 -414 212 -649.5t570 -235.5q126 0 226.5 29.5t205.5 101.5q35 -24 35 -74q0 -76 -109 -129q-158 -74 -403 -74q-202 0 -374.5 62.5t-303.5 182.5t-205.5 308.5t-74.5 425.5zM944 270 q0 -56 48.5 -93.5t121.5 -37.5q86 0 162 62v272q-163 -22 -247.5 -78t-84.5 -125z" />
<glyph unicode="A" horiz-adv-x="1509" d="M10 0v74l125 30q30 8 43.5 18.5t22.5 35.5l395 1157q28 86 70.5 120t144.5 64q15 -56 51 -151l457 -1190q9 -23 17.5 -31.5t33.5 -15.5l119 -37v-74h-635v74l135 30q35 7 35 33q0 9 -4 19l-100 274h-490l-80 -276q-5 -21 5 -33.5t48 -20.5l127 -26v-74h-520zM469 563h403 l-225 623q-22 -90 -55 -203z" />
<glyph unicode="B" horiz-adv-x="1550" d="M154 0v76l59 12q85 19 103.5 29.5t19.5 44.5q2 47 2 229v672q0 182 -2 229q-1 34 -19.5 44.5t-103.5 29.5l-59 12v76q262 -4 366 -4q34 0 122 2t140 2q198 0 314 -55q83 -41 127.5 -115.5t44.5 -167.5q0 -125 -74 -214.5t-186 -123.5q93 -13 165.5 -49.5t115 -86.5 t64 -107.5t21.5 -118.5q0 -85 -33.5 -160t-96 -132t-159.5 -90.5t-215 -33.5q-62 0 -151 2t-154 2zM612 141q106 -28 219 -28q170 0 230 106q35 53 35 135q0 103 -56 183q-90 145 -356 145h-72v-541zM612 797h119q153 0 205 61q61 67 61 186q0 102 -39 175q-62 124 -258 124 l-88 -4v-542z" />
<glyph unicode="C" horiz-adv-x="1654" d="M123 743q0 396 295 598q199 136 518 136q108 0 286.5 -23t192.5 -24q1 -30 1 -61q0 -157 -13 -361h-86q-15 100 -35 174q-24 93 -116.5 134.5t-250.5 41.5q-126 0 -210.5 -30t-145.5 -91q-141 -141 -141 -459q0 -198 63 -348.5t192 -238t310 -87.5q131 0 234 33 q46 13 75 43t51 84q40 103 72 205h86q-9 -181 -41 -387q-258 -105 -534 -105q-146 0 -284 37.5t-239 110.5q-280 203 -280 618z" />
<glyph unicode="D" horiz-adv-x="1828" d="M131 1378v76q254 -4 420 -4q49 0 134 2t124 2q264 0 414 -43q226 -63 350.5 -234t124.5 -415q0 -250 -103 -416q-109 -170 -283.5 -258t-441.5 -88q-42 0 -146 2t-163 2l-403 -4v76l49 10q58 12 82 20.5t32 20t9 35.5q2 47 2 229v672q0 182 -2 229q-1 33 -22 44t-118 30z M606 160q129 -33 289 -33q309 0 432 229q78 130 78 338q0 85 -21 173t-57 155q-88 162 -217 234.5t-330 72.5q-38 0 -81.5 -3t-68.5 -6l-24 -3v-1157z" />
<glyph unicode="E" horiz-adv-x="1492" d="M131 1378v76h1081q2 -52 2 -107q0 -119 -10 -255h-82q-23 142 -28 163q-5 25 -14.5 37.5t-34 24.5t-78 16.5t-135 7t-216.5 2.5v-542q265 4 318 10q30 3 40.5 8.5t16.5 24.5q24 87 33 125h76v-459h-76q-8 38 -33 131q-8 29 -17.5 37.5t-39.5 11.5q-57 8 -318 8v-563 q78 -20 246 -20q125 0 181.5 5.5t82 20t41.5 47.5q38 77 78 197h84q-4 -84 -16.5 -180t-23.5 -151l-11 -54h-1120v76l59 12q85 19 103.5 29.5t19.5 44.5q2 47 2 229v672q0 182 -2 229q-1 33 -24 44t-126 30z" />
<glyph unicode="F" horiz-adv-x="1366" d="M131 1378v76h1083q2 -40 2 -84q0 -120 -12 -278h-82q-23 142 -28 163q-5 25 -14.5 37.5t-34 24.5t-78 16.5t-135 7t-216.5 2.5v-593q277 4 326 10q31 3 42 8.5t17 24.5l31 135h76v-467h-76q-10 51 -31 127q-8 28 -18.5 37t-40.5 12q-55 8 -326 8v-254q0 -184 2 -231 q1 -34 19.5 -44.5t103.5 -27.5l60 -12v-76h-643v76l59 12q85 19 103.5 29.5t19.5 44.5q2 47 2 229v672q0 182 -2 229q-1 33 -24 44t-126 30z" />
<glyph unicode="G" horiz-adv-x="1773" d="M123 741q0 397 299 598q198 138 541 138q120 0 302.5 -20.5t209.5 -22.5v-31q0 -140 -15 -395h-86q-14 95 -35 172q-24 95 -121.5 136.5t-275.5 41.5q-138 0 -228.5 -30t-150.5 -91q-143 -143 -143 -459q0 -198 64 -348t195 -237t314 -87q115 0 236 31v133q0 185 -2 232 q-1 25 -8.5 36t-32 20.5t-82.5 21.5l-51 12v78h616v-78l-49 -12q-59 -12 -83.5 -21.5t-31.5 -20.5t-8 -36q-2 -47 -2 -230v-34q0 -121 8 -154q-115 -47 -271.5 -77t-297.5 -30q-150 0 -287 37.5t-239 110.5q-285 207 -285 616z" />
<glyph unicode="H" horiz-adv-x="1943" d="M154 0v76l59 12q85 19 103.5 29.5t19.5 44.5q2 47 2 229v672q0 182 -2 229q-1 34 -19.5 44.5t-103.5 29.5l-59 12v76h643v-76l-60 -12q-85 -19 -103.5 -29.5t-19.5 -44.5q-2 -47 -2 -229v-254h719v254q0 182 -2 229q-1 34 -19.5 44.5t-103.5 29.5l-59 12v76h643v-76 l-59 -12q-85 -19 -103.5 -30t-19.5 -44q-2 -47 -2 -229v-672q0 -182 2 -229q1 -33 19.5 -44t103.5 -30l59 -12v-76h-643v76l59 12q85 19 103.5 29.5t19.5 44.5q2 47 2 229v279h-719v-279q0 -182 2 -229q1 -34 19.5 -44.5t103.5 -29.5l60 -12v-76h-643z" />
<glyph unicode="I" horiz-adv-x="950" d="M154 0v76l59 12q85 19 103.5 29.5t19.5 44.5q2 47 2 229v672q0 182 -2 229q-1 34 -19.5 44.5t-103.5 29.5l-59 12v76h643v-76l-60 -12q-85 -19 -103.5 -29.5t-19.5 -44.5q-2 -47 -2 -229v-672q0 -182 2 -229q1 -34 19.5 -44.5t103.5 -29.5l60 -12v-76h-643z" />
<glyph unicode="J" horiz-adv-x="931" d="M121 -475q121 107 168 216.5t47 283.5v1038q0 182 -2 229q-1 33 -19.5 44t-103.5 30l-59 12v76h643v-76l-60 -12q-85 -19 -103.5 -29.5t-19.5 -44.5q-2 -47 -2 -229v-907q0 -274 -115.5 -442.5t-340.5 -252.5z" />
<glyph unicode="K" horiz-adv-x="1755" d="M154 0v76l59 12q85 19 103.5 29.5t19.5 44.5q2 47 2 229v672q0 182 -2 229q-1 34 -19.5 44.5t-103.5 29.5l-59 12v76h643v-76l-60 -12q-85 -19 -103.5 -29.5t-19.5 -44.5q-2 -47 -2 -229v-672q0 -182 2 -229q1 -34 19.5 -44.5t103.5 -29.5l60 -12v-76h-643zM647 717 l549 534q21 20 30.5 30.5t16.5 22t2.5 18t-17 13t-36.5 11.5l-135 32v76h565v-76l-47 -8q-39 -8 -72.5 -28t-105.5 -80l-492 -428q37 -27 92 -95l355 -405q137 -158 199 -207.5t149 -69.5l-27 -75q-43 -1 -80 -1q-55 1 -95 3q-68 4 -133.5 19t-117.5 49t-106 86t-121 136 l-291 355q-39 48 -82 88z" />
<glyph unicode="L" horiz-adv-x="1386" d="M154 0v76l59 12q85 19 103.5 29.5t19.5 44.5q2 47 2 229v672q0 182 -2 229q-1 34 -19.5 44.5t-103.5 29.5l-59 12v76h643v-76l-60 -12q-85 -19 -103.5 -29.5t-19.5 -44.5q-2 -47 -2 -229v-928q78 -20 248 -20q120 0 174.5 5.5t80.5 20t42 47.5q29 58 78 197h86 q-4 -84 -17.5 -180t-24.5 -151l-11 -54h-1114z" />
<glyph unicode="M" horiz-adv-x="2310" d="M145 0v76l60 12q59 13 83.5 22.5t31.5 20t8 35.5q3 31 6 225l6 672q0 178 -2 225q-1 25 -8 35.5t-31.5 20t-83.5 22.5l-59 12v76h510l487 -1108l498 1108h506v-76l-60 -12q-59 -13 -83 -22t-31.5 -20.5t-8.5 -35.5q-2 -47 -2 -225l6 -672q0 -131 4 -225q1 -24 8.5 -35.5 t31.5 -20.5t83 -22l60 -12v-76h-641v76l57 12q60 14 83 23t31 20.5t9 36.5q2 51 2 223l-8 877l-576 -1268h-116l-545 1212l-8 -821v-225q2 -35 20.5 -47.5t101.5 -30.5l60 -12v-76h-490z" />
<glyph unicode="N" horiz-adv-x="1871" d="M154 0v76l59 12q85 19 103.5 29.5t19.5 44.5q2 47 2 229v672q0 178 -2 225q-1 25 -8 35.5t-31.5 20t-83.5 22.5l-59 12v76h442l834 -1051v660q0 159 -3 229q-1 34 -19 44.5t-103 29.5l-60 12v76h488v-76l-60 -12q-85 -19 -103.5 -29.5t-19.5 -44.5q-2 -47 -2 -229v-1063 h-159l-930 1190v-799q0 -182 2 -229q1 -33 19.5 -44t103.5 -30l59 -12v-76h-489z" />
<glyph unicode="O" horiz-adv-x="1814" d="M117 715q0 220 94 388.5t260 264.5q190 111 465 111q241 0 416 -93q166 -89 253 -247.5t87 -372.5q0 -181 -69 -341t-198 -271q-211 -183 -538 -183q-398 0 -598 240q-84 101 -128 232.5t-44 271.5zM416 768q0 -274 112 -455q137 -221 371 -221h19q135 0 241 71.5 t164 203.5q63 144 63 358q0 104 -18 197.5t-57 174t-95 138.5t-135.5 91.5t-175.5 33.5q-148 0 -250 -57q-239 -133 -239 -535z" />
<glyph unicode="P" horiz-adv-x="1431" d="M154 0v76l59 12q85 19 103.5 29.5t19.5 44.5q2 47 2 229v672q0 182 -2 229q-1 34 -19.5 44.5t-103.5 29.5l-59 12v76h481q155 0 240.5 -9t158.5 -34q132 -40 204.5 -141.5t72.5 -231.5q0 -114 -45 -209.5t-127.5 -157.5t-197.5 -87q-55 -12 -116 -12q-66 0 -139 14v82 q25 -2 49 -2q105 0 178 47q61 40 90 112t29 158q0 85 -24 150q-38 96 -118.5 150t-197.5 54q-52 0 -80 -4v-942q0 -182 2 -229q1 -34 19.5 -44.5t103.5 -29.5l60 -12v-76h-643z" />
<glyph unicode="Q" horiz-adv-x="1814" d="M117 715q0 220 94 388.5t260 264.5q190 111 465 111q241 0 416 -93q166 -89 253 -247.5t87 -372.5q0 -181 -69 -341t-198 -271q-117 -99 -258 -144q194 -142 336 -231q301 -185 541 -185q2 0 80 5l-33 -97q-157 -30 -250 -30q-150 0 -278.5 38.5t-264.5 118.5 q-73 44 -153.5 100t-183 132.5t-152.5 111.5q-340 21 -520 238q-84 101 -128 232.5t-44 271.5zM416 768q0 -274 112 -455q137 -221 371 -221h19q135 0 241 71.5t164 203.5q63 144 63 358q0 104 -18 197.5t-57 174t-95 138.5t-135.5 91.5t-175.5 33.5q-148 0 -250 -57 q-239 -133 -239 -535z" />
<glyph unicode="R" horiz-adv-x="1705" d="M154 0v76l59 12q85 19 103.5 29.5t19.5 44.5q2 47 2 229v672q0 182 -2 229q-1 34 -19.5 44.5t-103.5 29.5l-59 12v76q266 -4 360 -4q37 0 105.5 2t130.5 2q193 0 317 -39q129 -40 201.5 -141.5t72.5 -229.5q0 -141 -83.5 -248t-206.5 -139q57 -37 129 -116l202 -224 q54 -59 74.5 -81.5t55.5 -57.5t50.5 -46.5t41.5 -28.5t48 -24t52 -13l-29 -78q-79 -2 -139 -4q-7 0 -13 -1q-51 1 -99 11q-54 12 -96 28t-86.5 50.5t-86 77.5t-94.5 108l-193 236q-58 69 -90 96h-166v-199q0 -182 2 -229q1 -34 19.5 -44.5t103.5 -29.5l60 -12v-76h-643z M612 709h226q80 0 127.5 42.5t74.5 120.5q17 50 17 119q0 75 -29 152q-35 94 -116.5 144t-200.5 50q-67 0 -99 -8v-620z" />
<glyph unicode="S" horiz-adv-x="1243" d="M113 410l90 4q4 -13 11 -39.5t10 -36t8.5 -28t10 -29.5t10.5 -26t13 -30q30 -63 98 -94t211 -31q119 0 184.5 60t65.5 166q0 147 -184 243l-209 111q-258 129 -258 389q0 172 135 289t365 117q68 0 179.5 -10t156.5 -11q6 -76 8 -168q1 -39 1 -72q0 -43 -1 -74l-2 -53 h-76q-33 109 -51 154q-18 49 -39 70q-42 49 -191 49q-113 0 -179 -52.5t-66 -144.5q0 -74 44.5 -134t147.5 -114l209 -108q281 -148 281 -395q0 -87 -36.5 -165.5t-103 -138.5t-169.5 -95.5t-228 -35.5q-190 0 -397 56q-43 180 -49 377z" />
<glyph unicode="T" horiz-adv-x="1333" d="M41 1466q99 -12 199 -12h854q99 0 198 12q4 -92 4 -183q0 -111 -6 -220h-82q-8 33 -17 70t-13 54.5t-9 36.5t-8.5 30t-7.5 20q-20 42 -67 59t-158 17h-125v-959q0 -182 2 -229q1 -33 19.5 -44t103.5 -30l59 -12v-76h-641v76l60 12q84 19 102.5 30t19.5 44q2 47 2 229v959 h-124q-111 0 -158.5 -17t-67.5 -59q-9 -20 -55 -211h-82q-6 109 -6 220q0 91 4 183z" />
<glyph unicode="U" horiz-adv-x="1822" d="M127 1378v76h645v-76l-59 -12q-85 -19 -103.5 -29.5t-19.5 -44.5q-2 -47 -2 -229v-377q0 -102 6 -182q35 -375 387 -375q224 0 313.5 119t89.5 399v416q0 176 -2 223q-2 35 -21.5 48.5t-100.5 31.5l-60 12v76h494v-76l-60 -12q-81 -18 -101 -31.5t-22 -48.5 q-2 -47 -2 -223v-414q0 -356 -149 -517t-453 -161q-536 0 -588 471q-8 71 -8 183v438q0 182 -2 229q-1 34 -19.5 44.5t-103.5 29.5z" />
<glyph unicode="V" horiz-adv-x="1529" d="M25 1380v74h616v-72l-59 -12q-81 -17 -100.5 -34t-8.5 -54q13 -47 74 -207l305 -786q213 595 336 993q11 37 -8 53.5t-101 34.5l-59 12v72h471v-76l-31 -6q-64 -14 -83.5 -31.5t-33.5 -58.5q-64 -174 -116.5 -312.5t-100.5 -262t-76.5 -194.5t-82.5 -205t-80 -199 q-26 -64 -69 -99.5t-138 -54.5q-15 78 -70 219l-346 889q-57 149 -90 219q-2 3 -7 13.5t-6.5 13t-6.5 11t-8 11t-9.5 8.5t-13.5 9t-17 7.5t-22 8.5t-27 8z" />
<glyph unicode="W" horiz-adv-x="2377" d="M25 1378v76h616v-72l-59 -12q-82 -16 -101 -33.5t-8 -54.5q20 -71 74 -207l305 -786q164 441 264 772l-45 129q-23 65 -37 98q-13 31 -37.5 49.5t-83.5 34.5l-39 10v72h613v-72l-60 -12q-82 -20 -100.5 -36t-7.5 -52q5 -17 74 -199l301 -788q189 518 336 987 q11 37 -8 54.5t-101 33.5l-59 12v72h475v-76l-31 -6q-35 -7 -55.5 -15t-32.5 -21t-16.5 -22.5t-12.5 -31.5q-78 -211 -150.5 -400.5t-113 -289.5t-100.5 -248.5t-82 -202.5q-37 -96 -78 -132.5t-131 -53.5q-10 67 -57 190l-289 742q-81 -215 -182.5 -471t-110.5 -279 q-35 -90 -77 -125t-140 -57q-17 81 -60 192l-356 916q-57 149 -90 219l-7 14l-6.5 13t-6.5 11t-8.5 11t-9.5 8.5t-13 9t-16.5 8t-22 8t-27.5 7.5z" />
<glyph unicode="X" horiz-adv-x="1562" d="M74 1382v72h657v-72l-59 -12q-82 -17 -103 -35t-6 -53q17 -38 129 -207l152 -215q181 271 272 422q21 32 -2 51.5t-106 36.5l-60 12v72h510v-72l-43 -10q-39 -10 -64.5 -26t-54.5 -54q-42 -54 -113.5 -145.5t-136.5 -175.5t-145 -191l410 -575q44 -63 71.5 -89t69.5 -36 l41 -8v-72h-659v72l59 12q83 17 103.5 35t2.5 53q-37 72 -114 184l-178 254q-177 -259 -283 -438q-19 -32 3.5 -51.5t104.5 -36.5l60 -12v-72h-506v72l43 10q67 16 119 82q226 291 399 524l-416 592q-21 29 -33 43.5t-34 29t-51 21.5z" />
<glyph unicode="Y" horiz-adv-x="1484" d="M47 1382v72h643v-72l-59 -12q-82 -17 -103 -35t-6 -53q16 -37 121 -207l197 -309q163 287 276 516q16 34 -5 52.5t-103 35.5l-60 12v72h496v-72l-47 -10q-34 -7 -55 -24t-48 -58q-221 -332 -409 -637v-262q0 -176 2 -223q2 -35 22 -48.5t101 -31.5l59 -12v-76h-633v76 l60 12q81 18 100.5 31.5t21.5 48.5q3 70 3 223v234l-279 438q-120 187 -154 231q-39 48 -55 59q-19 12 -47 19z" />
<glyph unicode="Z" horiz-adv-x="1413" d="M119 0q6 37 32 92t87 162l657 1092q-312 -3 -422 -9t-139 -20q-47 -21 -68 -119l-35 -172h-71q-22 186 -22 365q0 34 1 69q117 -6 133 -6h959q-8 -41 -28.5 -85.5t-80.5 -147.5l-661 -1104q460 4 535 11q59 5 87 17q39 15 72 74q40 70 86 211h82q-19 -219 -78 -430h-1126 z" />
<glyph unicode="[" horiz-adv-x="618" d="M193 -530v2109h395v-92h-213v-1925h213v-92h-395z" />
<glyph unicode="\" horiz-adv-x="839" d="M0 1493l109 49l731 -1575l-109 -49z" />
<glyph unicode="]" horiz-adv-x="618" d="M29 -438h215v1925h-215v92h397v-2109h-397v92z" />
<glyph unicode="^" horiz-adv-x="978" d="M61 506l369 794h123l367 -794h-160l-273 610l-270 -610h-156z" />
<glyph unicode="_" horiz-adv-x="1024" d="M0 -59h1024v-154h-1024v154z" />
<glyph unicode="`" horiz-adv-x="677" d="M109 1577q4 19 11.5 38.5t13.5 29.5l5 10l436 -379l-8 -76q-184 78 -317 148q-171 85 -141 229z" />
<glyph unicode="a" horiz-adv-x="1067" d="M66 213q0 134 140 232.5t419 136.5v69q0 137 -38 195.5t-126 58.5q-67 0 -144.5 -42.5t-183.5 -153.5q-45 57 -45 118q0 74 68 125q125 101 350 101q104 0 175.5 -25t111 -75t56.5 -114t17 -151v-276v-17v-57t1.5 -48.5t4.5 -45t9 -37t15 -34t22 -27t30.5 -24.5t41 -18 t52.5 -16l-16 -41q-92 -65 -184 -65q-73 0 -127 42.5t-74 120.5q-44 -72 -125.5 -120t-179.5 -48q-119 0 -194.5 66t-75.5 170zM295 270q0 -56 47.5 -93.5t120.5 -37.5q88 0 162 64v272q-165 -20 -247.5 -77.5t-82.5 -127.5z" />
<glyph unicode="b" horiz-adv-x="1259" d="M43 1475v55q186 63 369 63h24v-702q45 76 129.5 119t182.5 43q185 0 300 -135t115 -336q0 -164 -56.5 -291t-160.5 -203q-155 -113 -387 -113q-194 0 -391 54q20 66 20 209v892q0 205 -2 252q-2 34 -14 49.5t-45 22.5zM424 152q100 -39 205 -39q102 0 162 53 q54 44 83 129.5t29 198.5q0 185 -76 289t-209 104q-52 0 -102.5 -18.5t-79.5 -47.5v-520q0 -102 -12 -149z" />
<glyph unicode="c" horiz-adv-x="993" d="M94 483q0 165 67.5 291t184.5 199q126 80 285 80q121 0 196 -37q70 -34 70 -105q0 -58 -47 -120q-202 102 -318 102q-73 0 -118 -45q-70 -73 -70 -256q0 -194 91 -312t233 -118q123 0 241 65l-10 -67q-49 -68 -146.5 -123t-222.5 -55q-91 0 -170.5 35t-138.5 98.5 t-93 158.5t-34 209z" />
<glyph unicode="d" horiz-adv-x="1273" d="M96 471q0 156 53.5 278.5t157.5 196.5q80 57 170 83t219 26q48 0 127 -11v86q0 205 -2 252q-2 34 -14.5 49.5t-46.5 22.5l-82 21v55q186 63 366 63h27v-1142q0 -205 2 -252q2 -34 14 -49.5t46 -24.5l81 -21v-51q-177 -65 -366 -65h-19v162q-46 -80 -134 -126.5 t-187 -46.5q-182 0 -297 140t-115 354zM356 547q0 -189 78 -296.5t205 -107.5q52 0 102 18.5t82 47.5v678q-98 31 -200 31q-97 0 -160 -52q-107 -85 -107 -319z" />
<glyph unicode="e" horiz-adv-x="1081" d="M86 524q0 124 42.5 230t123.5 180q130 121 328 121q192 0 300 -125q97 -112 96 -307q0 -23 -1 -48h-645q3 -264 184 -372q74 -47 197 -47q143 0 290 80l-12 -72q-66 -82 -172.5 -133t-230.5 -51q-158 0 -273 73.5t-171 195t-56 275.5zM330 672l399 24q-3 118 -56.5 183 t-142.5 65q-73 0 -118 -45q-73 -70 -82 -227z" />
<glyph unicode="f" horiz-adv-x="792" d="M70 870v66q68 40 151 68v14q0 142 49 259t142 191q157 125 342 125q106 0 161 -43q48 -39 48 -100q0 -65 -45 -129q-202 94 -312 94q-76 0 -106.5 -57t-30.5 -213v-150h311l-10 -125h-301v-448q0 -207 2 -262q2 -37 9 -48t38 -20l94 -22v-70h-518v68l78 24 q30 9 37.5 20.5t9.5 47.5q2 55 2 262v448h-151z" />
<glyph unicode="g" horiz-adv-x="1134" d="M4 -285q0 82 70.5 149.5t197.5 92.5q-88 55 -88 154q0 58 41.5 110.5t112.5 81.5q-108 41 -171 131.5t-63 216.5q0 180 121.5 292t304.5 112q142 0 248 -64h320l-8 -123l-211 4q63 -95 63 -206q0 -174 -121 -282t-323 -108q-52 0 -109 13q-24 -24 -24 -62q0 -99 204 -104 l197 -6q159 -6 228 -70.5t69 -159.5q0 -70 -47.5 -147t-129 -143t-206.5 -109t-266 -43q-75 0 -145 15.5t-131 46t-97.5 84.5t-36.5 124zM188 -240q0 -88 91.5 -137t232.5 -49q85 0 155.5 20.5t112.5 53t65 68t23 69.5q0 104 -182 109l-182 6q-94 3 -166 26 q-78 -27 -114 -71.5t-36 -94.5zM342 678q0 -299 174 -299q86 0 137.5 75t51.5 193q0 153 -50 229t-133 76q-84 0 -132 -72t-48 -202z" />
<glyph unicode="h" horiz-adv-x="1302" d="M53 1475v55q186 63 367 63h24v-585q0 -94 -6 -142q47 91 135.5 141t198.5 50q170 0 253 -100t83 -322v-207q0 -213 2 -268q2 -37 9 -48.5t38 -21.5l78 -22v-68h-498v70l76 22q29 9 36.5 20.5t8.5 51.5q2 55 2 260v100q0 77 -4 127t-16 97t-34 73t-59 41t-90 15 q-65 0 -121 -20.5t-92 -53.5v-379q0 -207 2 -262q1 -38 9 -49.5t37 -20.5l75 -22v-70h-495v68l75 22q32 10 40 21.5t10 48.5q2 55 2 262v708q0 205 -2 252q-1 34 -14.5 49t-47.5 23z" />
<glyph unicode="i" horiz-adv-x="669" d="M82 924v53q184 65 367 65h24v-614q0 -213 2 -268q2 -37 9 -48.5t38 -21.5l78 -22v-68h-500v68l76 22q32 10 39.5 21.5t9.5 48.5q2 55 2 268v150q0 204 -2 253q-1 33 -14 48t-47 24zM190 1415q0 69 41.5 108.5t102.5 39.5q68 0 106.5 -41.5t38.5 -106.5q0 -69 -41.5 -107 t-103.5 -38q-69 0 -106.5 40.5t-37.5 104.5z" />
<glyph unicode="j" horiz-adv-x="630" d="M-29 -463q97 96 148.5 192.5t69 198.5t18.5 262l2 388q0 204 -2 253q-1 33 -14 48t-46 24l-84 21v53q184 65 367 65h25v-856q0 -274 -103 -434.5t-334 -271.5zM166 1415q0 69 41 108.5t102 39.5q69 0 107.5 -41.5t38.5 -106.5q0 -69 -42 -107t-104 -38q-69 0 -106 40.5 t-37 104.5z" />
<glyph unicode="k" horiz-adv-x="1228" d="M53 1475v55q186 63 367 63h24v-1169q0 -207 2 -262q1 -38 9 -49.5t37 -20.5l75 -22v-70h-495v68l75 22q32 10 40 21.5t10 48.5q2 55 2 262v708q0 205 -2 252q-1 34 -14.5 49t-47.5 23zM449 528q128 86 360 338q18 19 21.5 33t-14 27.5t-60.5 23.5l-51 11v73h485v-73 l-68 -17q-40 -8 -65.5 -21.5t-81.5 -60.5q-42 -34 -122.5 -101t-117.5 -97l-61 -50q46 -35 127 -145l248 -313q34 -44 69.5 -67t100.5 -40l-21 -69h-32q-102 0 -162 6q-70 6 -128.5 32.5t-95 66.5t-88.5 118l-178 248q-41 59 -65 77z" />
<glyph unicode="l" horiz-adv-x="638" d="M53 1475v55q186 63 367 63h24v-1165q0 -213 2 -268q2 -37 10 -48t40 -22l75 -22v-68h-499v68l78 22q31 10 38 21.5t9 48.5q2 55 2 268v702q0 205 -2 252q-1 34 -14.5 49t-45.5 23z" />
<glyph unicode="m" horiz-adv-x="1992" d="M86 924v53q187 65 369 65h18v-174q45 90 134 139.5t200 49.5q119 0 193.5 -48.5t109.5 -152.5q56 104 148.5 152.5t205.5 48.5q168 0 251 -100.5t83 -321.5v-207q0 -213 2 -268q2 -37 9.5 -48.5t39.5 -21.5l74 -22v-68h-496v70l76 22q29 9 36.5 20.5t8.5 51.5q2 55 2 260 v100q0 64 -2.5 107.5t-9.5 87t-20.5 70t-35.5 48t-54.5 31t-77.5 9.5q-65 0 -125 -23t-99 -66q15 -68 15 -153v-213q0 -205 2 -260q1 -40 8.5 -51.5t36.5 -20.5l67 -20v-70h-483v70l74 22q30 9 38 20.5t9 51.5q2 55 2 260v100q0 76 -4 127t-16 97.5t-34.5 72.5t-59 41 t-89.5 15q-65 0 -121 -20.5t-92 -53.5v-379q0 -207 2 -262q1 -39 8.5 -50t36.5 -20l74 -22v-70h-494v68l76 22q31 10 38 21.5t9 48.5q2 55 2 262v156q0 204 -2 253q-1 33 -13.5 48t-45.5 24z" />
<glyph unicode="n" horiz-adv-x="1335" d="M86 924v53q187 65 369 65h18v-174q45 90 134.5 139.5t199.5 49.5q169 0 252.5 -100.5t83.5 -321.5v-207q0 -213 2 -268q2 -38 9 -49t38 -21l76 -22v-68h-496v70l76 22q29 9 36.5 20.5t8.5 51.5q2 55 2 260v100q0 77 -4 127t-16 97t-34 73t-59 41t-90 15q-65 0 -121 -20.5 t-92 -53.5v-379q0 -207 2 -262q1 -39 8.5 -50t36.5 -20l76 -22v-70h-496v68l76 22q31 10 38 21t9 49q2 55 2 262v156q0 204 -2 253q-1 33 -13.5 48t-45.5 24z" />
<glyph unicode="o" horiz-adv-x="1216" d="M84 498q0 313 227 463q137 92 326 92q291 0 424 -219q69 -115 69 -289q0 -132 -41.5 -239.5t-114 -178.5t-169 -109t-207.5 -38q-245 0 -379.5 139.5t-134.5 378.5zM346 543q0 -191 73 -314t206 -123q114 0 176.5 103.5t62.5 273.5q0 209 -63 320q-72 125 -213 125 q-70 0 -119.5 -33t-75 -91t-36.5 -121.5t-11 -139.5z" />
<glyph unicode="p" horiz-adv-x="1294" d="M76 924v53q187 65 368 65h19v-161q50 83 134.5 127.5t184.5 44.5q184 0 299 -135t115 -336q0 -165 -56 -292t-161 -202q-155 -113 -383 -113q-52 0 -127 11v-80q0 -207 2 -262q2 -37 9 -48t38 -20l86 -25v-69h-508v69l76 23q31 10 38 21.5t9 48.5q2 55 2 262v672 q0 204 -2 253q-1 33 -13.5 48t-45.5 24zM469 145q101 -34 195 -34q92 0 159 55q55 42 84 128t29 200q0 185 -76 289t-209 104q-52 0 -102.5 -18.5t-79.5 -47.5v-676z" />
<glyph unicode="q" horiz-adv-x="1259" d="M96 475q0 151 54 274t157 197q83 59 171.5 85t213.5 26q197 0 385 -58q-4 -188 -4 -350v-747q0 -207 2 -262q2 -37 9 -48t38 -20l76 -25v-65h-508v67l84 23q31 9 38 20t9 48q4 55 4 262v245q-47 -79 -133 -124.5t-184 -45.5q-182 0 -297 140.5t-115 357.5zM356 547 q0 -189 78 -296.5t205 -107.5q52 0 103 18.5t83 47.5v676q-103 35 -198 35q-102 0 -162 -52q-54 -43 -81.5 -128t-27.5 -193z" />
<glyph unicode="r" horiz-adv-x="862" d="M86 924v53q187 65 369 65h18v-200q74 213 232 213q61 0 97 -33t36 -92q0 -73 -50 -152q-106 53 -188 53q-78 0 -121 -43v-366q0 -207 2 -264q2 -35 10 -47t39 -19l88 -24v-68h-512v66l76 24q31 10 38 21t9 47q2 57 2 264v156q0 204 -2 253q-1 33 -13.5 48t-45.5 24z" />
<glyph unicode="s" horiz-adv-x="956" d="M113 12q-11 82 -11 159t11 148h75l17 -77q9 -54 23.5 -80t47.5 -43q71 -31 177 -31q86 0 132 38.5t46 94.5q0 51 -44.5 93t-162.5 89l-64 27q-235 94 -235 299q0 134 105 228t292 94q52 0 136.5 -9.5t134.5 -11.5q10 -79 10 -165q0 -65 -6 -134h-72l-14 57 q-20 67 -35.5 96.5t-44.5 43.5q-49 24 -125 24q-83 0 -127.5 -35.5t-44.5 -89.5t42 -96.5t154 -85.5l64 -27q262 -103 262 -299q0 -48 -14.5 -94.5t-47.5 -90.5t-80 -77.5t-118 -54t-156 -20.5q-36 0 -83 3.5t-77.5 6.5t-89 10.5t-77.5 9.5z" />
<glyph unicode="t" horiz-adv-x="813" d="M47 870v66q70 41 150 68l147 184h96v-193h330l-10 -125h-320v-536q0 -104 39.5 -149.5t132.5 -45.5q99 0 179 41l-11 -67q-131 -138 -307 -138q-132 0 -206 71.5t-74 225.5v598h-146z" />
<glyph unicode="u" horiz-adv-x="1337" d="M61 924v53q184 65 367 65h27v-540q0 -78 3.5 -127t15 -96.5t33.5 -73t58.5 -40.5t89.5 -15q63 0 119 21t90 54v353q0 204 -2 253q-2 34 -13.5 48.5t-45.5 23.5l-84 21v53q187 65 368 65h25v-589q0 -205 2 -252q1 -33 14 -49t46 -25l83 -21v-53q-179 -63 -366 -63h-21v174 q-47 -93 -133.5 -144t-195.5 -51q-168 0 -251 101.5t-83 322.5v185q0 204 -2 253q-1 33 -14.5 48t-47.5 24z" />
<glyph unicode="v" horiz-adv-x="1157" d="M0 963v71h524v-71l-86 -19q-41 -9 -49 -24.5t6 -45.5l238 -622l217 600q12 40 2.5 57.5t-47.5 26.5l-94 27v71h436v-71l-64 -17q-25 -6 -39 -21.5t-38 -66.5q-15 -34 -96 -218t-142.5 -317.5t-101.5 -207.5q-37 -70 -68 -95.5t-109 -54.5q-9 41 -43 123l-335 799 q-9 22 -13 30t-14.5 17t-28.5 14z" />
<glyph unicode="w" horiz-adv-x="1765" d="M0 963v71h518v-71l-82 -19q-39 -9 -47.5 -23.5t4.5 -46.5l234 -616l241 774h101l313 -778l168 594q11 35 0.5 54.5t-51.5 31.5l-109 33v67h465v-71l-61 -17q-27 -7 -42.5 -22.5t-35.5 -65.5q-26 -67 -134 -351t-147 -380q-32 -78 -72.5 -110.5t-127.5 -51.5 q-9 50 -50 156l-211 528l-196 -522q-30 -76 -68.5 -106.5t-130.5 -55.5q-21 83 -53 162l-315 760q-9 22 -13 30t-14.5 17t-28.5 14z" />
<glyph unicode="x" horiz-adv-x="1153" d="M25 965v69h520v-67l-72 -17q-33 -7 -38 -23t14 -42l182 -250q66 96 153 248q7 13 10.5 20t5.5 16t-1 14t-11.5 10t-23.5 9l-64 15v67h398v-67l-54 -13q-33 -8 -54 -22t-50 -49q-111 -133 -256 -320l320 -422q26 -35 38 -45t35 -14l49 -12v-70h-526v68l72 16q40 9 40 33 q0 14 -14 33l-192 260q-109 -165 -162 -258q-17 -25 -15.5 -43.5t36.5 -26.5l65 -14v-68h-399v68l53 12q32 8 53.5 22.5t50.5 49.5q176 210 263 327l-301 412q-26 36 -39 46t-37 15z" />
<glyph unicode="y" horiz-adv-x="1126" d="M-31 963v71h520v-69l-81 -19q-41 -10 -48.5 -29t9.5 -51l282 -600q80 221 170 574q7 23 7 41q0 13 -4 23q-11 23 -56 36l-84 25v69h438v-69l-53 -15q-38 -9 -51.5 -26t-36.5 -80q-140 -393 -243 -632.5t-208 -426.5q-79 -140 -161 -227.5t-152 -87.5q-53 0 -94 44.5 t-62 129.5q194 59 286.5 121t141.5 155l31 62l-440 897q-16 37 -26.5 49.5t-35.5 19.5z" />
<glyph unicode="z" horiz-adv-x="1054" d="M90 0v6q0 41 16.5 80.5t73.5 134.5l449 713l-307 -8q-60 -2 -88 -29.5t-41 -99.5l-17 -99h-67q-17 125 -17 237q0 54 4 105q106 -6 215 -6h609v-2q0 -69 -80 -201l-451 -729l340 11q61 1 90 35t43 116l15 84h73q17 -123 17 -251q0 -48 -2 -97h-875z" />
<glyph unicode="{" horiz-adv-x="745" d="M70 502l12 57q113 7 162 72t49 184v365q0 223 96.5 319t308.5 84l19 -65q-77 -7 -125 -26.5t-73 -56.5t-33.5 -81t-8.5 -115v-362q0 -59 -7 -99t-27 -82t-62.5 -75t-108.5 -60q54 -18 92.5 -44.5t60 -55t33.5 -70.5t15.5 -80t3.5 -94v-313q0 -185 59 -273t212 -94 l-27 -63q-226 -31 -327 59.5t-101 316.5v328q0 65 -7 107.5t-29 86.5t-68 75.5t-119 54.5z" />
<glyph unicode="|" horiz-adv-x="358" d="M115 -512v2089h129v-2089h-129z" />
<glyph unicode="}" horiz-adv-x="745" d="M-2 1511l27 64q225 30 326.5 -61t101.5 -316v-315q0 -65 7 -107.5t29 -86.5t68 -75.5t119 -54.5l-12 -57q-113 -7 -162 -72t-49 -184v-377q0 -223 -96.5 -319.5t-309.5 -84.5l-18 66q77 7 124.5 26.5t72.5 56.5t33.5 81t8.5 115v376q0 58 7 98t27 81.5t62.5 74.5 t108.5 60q-54 18 -92.5 44.5t-60 55t-33.5 70.5t-15.5 80t-3.5 94v301q0 185 -58 272.5t-212 93.5z" />
<glyph unicode="~" horiz-adv-x="952" d="M51 500q-1 144 66 228.5t182 84.5q75 0 176 -59l70 -41q33 -20 48.5 -28.5t41 -17t47.5 -8.5q104 0 160 117l59 21q1 -144 -66.5 -229t-181.5 -85q-73 0 -176 60l-69 41q-31 18 -48.5 27.5t-42.5 17.5t-47 8q-104 0 -159 -117z" />
<glyph unicode="&#xa1;" horiz-adv-x="604" d="M158 -262q0 90 98 854h94q99 -771 99 -854q0 -81 -39 -123.5t-107 -42.5t-106.5 42.5t-38.5 123.5zM174 922q0 56 38.5 92.5t96.5 36.5q59 0 93 -40t34 -98q0 -55 -37.5 -93t-95.5 -38q-59 0 -94 41.5t-35 98.5z" />
<glyph unicode="&#xa2;" d="M150 526q0 169 71.5 295t196.5 199q99 59 209 72l8 168l96 -5l-8 -159q107 -6 188 -45q80 -39 80 -113q0 -70 -55 -125q-134 85 -223 111l-39 -713q30 -6 61 -6q143 0 264 65l-6 -55q-43 -64 -130 -119t-199 -67l-9 -168l-94 4l8 160q-183 12 -301 147.5t-118 353.5z M397 635q0 -137 50 -237.5t135 -149.5l36 694h-20q-80 0 -129 -49q-72 -69 -72 -258z" />
<glyph unicode="&#xa3;" d="M53 -12l8 143q74 32 116 67.5t63 84t23.5 114.5t-1.5 160l-6 96h-184v99h180q-5 110 10 206t45 168.5t73.5 132t94 99.5t107 67.5t111 39.5t108.5 12q75 0 134 -22t91 -58q31 -38 31 -92q0 -74 -45 -125q-104 79 -174.5 113t-132.5 34q-52 0 -88 -22t-63 -77t-37.5 -157 t-4.5 -254l2 -65h354v-99h-350l2 -41q8 -178 -33 -272t-168 -147q51 0 146 -5.5t153 -5.5q172 0 220 9q82 14 113 74q21 42 28 120h57q47 -89 47 -190q0 -106 -54.5 -156.5t-172.5 -50.5q-84 0 -273 7t-270 7q-139 0 -260 -14z" />
<glyph unicode="&#xa4;" horiz-adv-x="1040" d="M4 344l164 162q-76 110 -76 235q0 129 76 236l-164 164l90 88l164 -164q105 78 236 78q130 0 235 -78l164 164l90 -88l-164 -164q76 -102 76 -236q0 -130 -76 -235l164 -162l-90 -88l-164 162q-105 -78 -235 -78q-131 0 -236 78l-164 -162zM219 741q0 -114 80 -194 t195 -80t194.5 80t79.5 194q0 116 -79.5 196.5t-194.5 80.5t-195 -80.5t-80 -196.5z" />
<glyph unicode="&#xa5;" d="M12 1389v65h535v-61l-62 -19q-60 -18 -74.5 -35.5t1.5 -60.5q23 -69 96 -203l151 -295q20 48 99 229t116 273q28 62 -75 90l-62 21v61h398v-63l-17 -5q-23 -4 -34.5 -19t-43.5 -77q-194 -355 -305 -573h338v-96h-358v-187h358v-98h-358q0 -127 2 -164q1 -25 8.5 -36.5 t32.5 -22.5t82 -25l59 -14v-74h-629v74l60 14q57 14 82 25t32.5 22.5t8.5 36.5q2 37 2 164h-320v98h320v187h-320v96h281l-189 358l-118 228q-23 42 -38 58.5t-36 22.5z" />
<glyph unicode="&#xa6;" horiz-adv-x="358" d="M115 387h129v-899h-129v899zM115 678v899h129v-899h-129z" />
<glyph unicode="&#xa7;" horiz-adv-x="1261" d="M117 895q0 117 60.5 225.5t154.5 183.5t210 119.5t226 44.5q161 0 244.5 -48.5t83.5 -119.5q0 -62 -47 -112q-102 61 -167 83.5t-126 22.5q-76 0 -116 -48.5t-40 -121.5q0 -62 28.5 -122.5t102.5 -149.5l150 -174q155 -182 209.5 -300.5t54.5 -221.5q0 -93 -39.5 -182.5 t-106 -158.5t-150 -122t-176.5 -81t-181 -28q-161 0 -244.5 48.5t-83.5 119.5q0 62 49 111q104 -60 168.5 -83.5t122.5 -23.5q77 0 116 48.5t39 123.5q0 62 -28 122.5t-101 148.5l-149 174q-155 183 -209.5 301t-54.5 221zM297 983q0 -104 48 -212t181 -267l172 -205 q74 -91 103.5 -158t29.5 -135q0 -67 -41 -138t-131 -112q98 3 168.5 48.5t103 114t32.5 151.5q0 102 -48 210.5t-180 268.5l-172 203q-74 91 -103.5 158t-29.5 137q0 67 41 137.5t131 111.5q-147 -4 -226 -94t-79 -219z" />
<glyph unicode="&#xa8;" horiz-adv-x="866" d="M102 1411q0 55 34 92t87 37q57 0 89 -35.5t32 -91.5q0 -55 -34 -92t-89 -37q-56 0 -87.5 35.5t-31.5 91.5zM522 1411q0 55 34 92t89 37q56 0 87.5 -35.5t31.5 -91.5q0 -55 -33.5 -92t-87.5 -37q-56 0 -88.5 36t-32.5 91z" />
<glyph unicode="&#xa9;" horiz-adv-x="1765" d="M96 709q0 147 42 272t117 216t176.5 155.5t222 96.5t253.5 32q160 0 298 -48.5t242 -140t163 -234t59 -319.5q0 -179 -61.5 -325t-170 -243t-256.5 -149.5t-321 -52.5q-158 0 -296.5 50.5t-243 143t-164.5 233.5t-60 313zM236 731q0 -310 175 -489t490 -179 q179 0 322.5 82t226 231.5t82.5 338.5q0 316 -173.5 493.5t-477.5 177.5q-190 0 -335 -77.5t-227.5 -227t-82.5 -350.5zM430 733q0 125 56.5 221.5t150.5 151.5q117 63 272 63q32 0 63.5 -1.5t66 -5.5t56 -7t60 -8.5t51.5 -7.5q8 -108 -6 -273h-78q-17 108 -20 119 q-20 90 -209 90q-138 0 -197 -65q-65 -68 -65 -262q0 -169 80.5 -276t226.5 -107q167 0 201 88q15 38 43 131h73q0 -118 -22 -250q-156 -68 -320 -68q-186 0 -309 92q-79 58 -126.5 155.5t-47.5 219.5z" />
<glyph unicode="&#xaa;" horiz-adv-x="727" d="M61 739q0 80 89 140t266 84v12q0 76 -24.5 107.5t-86.5 31.5q-88 0 -199 -84q-30 30 -30 68q0 43 41 73q38 29 100 46.5t129 17.5q131 0 184.5 -55.5t53.5 -159.5v-197q0 -69 20 -100t94 -47l-16 -43q-61 -41 -121 -41q-97 0 -131 88q-32 -39 -82 -64.5t-108 -25.5 q-79 0 -129 41.5t-50 107.5zM221 770q0 -26 28.5 -43.5t72.5 -17.5q47 0 94 30v135q-99 -11 -147 -39.5t-48 -64.5z" />
<glyph unicode="&#xab;" horiz-adv-x="913" d="M53 440v121l353 467l30 -143l-256 -326l74 -74q108 -107 149 -175.5t41 -155.5q0 -71 -38 -142q-101 134 -166.5 213t-186.5 215zM485 446v111l320 420l26 -129l-229 -293l66 -66q97 -97 133.5 -159.5t36.5 -139.5q0 -58 -33 -129q-99 129 -157 199.5t-163 185.5z" />
<glyph unicode="&#xac;" horiz-adv-x="1095" d="M59 555v135h977v-442h-135v307h-842z" />
<glyph unicode="&#xae;" horiz-adv-x="1566" d="M96 819q0 300 192.5 484t508.5 184q307 0 490 -178t183 -480q0 -198 -87 -350t-246 -235.5t-367 -83.5q-308 0 -491 177.5t-183 481.5zM221 831q0 -263 151.5 -425t415.5 -162q261 0 408 157t147 416q0 263 -150.5 424.5t-414.5 161.5q-261 0 -409 -157.5t-148 -414.5z M442 1151v45q138 -2 185 -2q13 0 55 1t72 1q94 0 149 -18q62 -20 96.5 -69.5t34.5 -115.5q0 -63 -38.5 -114.5t-96.5 -75.5q29 -22 51 -49l103 -113q62 -70 89.5 -91.5t71.5 -33.5l-22 -41q-118 -7 -172 16.5t-129 116.5l-90 107q-32 40 -49 51h-74v-195q1 -15 9.5 -20 t47.5 -16l33 -11v-43h-324v43l33 11q40 10 48 15.5t10 20.5v533q-1 11 -4 16t-15.5 11t-38.5 12zM678 842h102q36 0 61 21.5t36 56.5q8 27 8 57q0 33 -15 67q-39 80 -147 80l-45 -2v-280z" />
<glyph unicode="&#xaf;" horiz-adv-x="692" d="M102 1300v156h488v-156h-488z" />
<glyph unicode="&#xb0;" horiz-adv-x="839" d="M47 1108q0 162 109.5 264.5t265.5 102.5q153 0 253.5 -101.5t100.5 -265.5q0 -163 -109 -265t-266 -102q-153 0 -253.5 101t-100.5 266zM203 1110q0 -103 61.5 -166t147.5 -63q87 0 148 61t61 164t-61 165t-148 62q-86 0 -147.5 -60t-61.5 -163z" />
<glyph unicode="&#xb1;" horiz-adv-x="1095" d="M61 37h973v-131h-973v131zM61 657v129h420v381h131v-381h422v-129h-422v-381h-131v381h-420z" />
<glyph unicode="&#xb4;" horiz-adv-x="677" d="M102 1276l437 379q22 -35 32 -78q27 -145 -141 -229q-124 -65 -319 -148z" />
<glyph unicode="&#xb5;" horiz-adv-x="1288" d="M66 924v53q184 65 368 65h25v-540q0 -77 3.5 -127t15.5 -96.5t34 -72.5t58 -41t89 -15q64 0 119.5 21t91.5 54v353q0 204 -2 253q-1 33 -13.5 48t-45.5 24l-84 21v53q184 65 367 65h26v-589q0 -205 2 -252q1 -33 14 -49t46 -25l84 -21v-53q-181 -63 -369 -63h-18v174 q-47 -93 -134 -144t-198 -51q-147 0 -221 74v-68q0 -115 30 -213t105 -229q-60 -49 -127 -49q-74 0 -109 46.5t-35 147.5q0 39 11.5 255t11.5 460v185q0 204 -2 253q-2 34 -13.5 48.5t-45.5 23.5z" />
<glyph unicode="&#xb6;" horiz-adv-x="1476" d="M156 965q0 164 79.5 282.5t229.5 167.5q124 39 330 39q35 0 137 -2t133 -2l367 4v-70l-60 -14q-57 -14 -82 -25t-32.5 -22.5t-8.5 -36.5q-2 -47 -2 -219v-604q0 -258 -40 -404t-146 -262q-56 -63 -128.5 -108.5t-145 -68.5t-136 -33.5t-121.5 -10.5q-178 0 -262 80 q-49 49 -49 115q0 53 37 100q167 -129 270 -129q86 0 140 80q38 59 54.5 164.5t16.5 294.5v235q-179 -4 -317 47q-122 46 -193 153t-71 249zM629 -283q96 -17 179.5 12.5t145.5 100.5q68 80 88.5 215t20.5 399v899h-141v-993q0 -227 -26.5 -345.5t-88.5 -186.5 q-80 -86 -178 -101z" />
<glyph unicode="&#xb7;" horiz-adv-x="477" d="M106 639q0 57 39 96t97 39q57 0 93 -41t36 -98q0 -58 -38 -95.5t-97 -37.5q-57 0 -93.5 39.5t-36.5 97.5z" />
<glyph unicode="&#xb8;" horiz-adv-x="620" d="M104 -186q0 42 32.5 74t62.5 42l18 2q-12 -35 5.5 -58.5t39.5 -31.5t71 -21q7 -2 11 -3q30 -8 49 -13.5t45.5 -17.5t41.5 -25.5t26.5 -35.5t11.5 -48q0 -72 -77.5 -134t-172.5 -62q-60 0 -109.5 22t-49.5 64q0 15 6.5 30t12.5 23l7 8q83 -67 170 -67q39 0 63.5 15.5 t24.5 41.5q0 15 -17 27t-40 19.5t-68 19.5q-78 23 -121 51.5t-43 77.5z" />
<glyph unicode="&#xba;" horiz-adv-x="811" d="M70 903q0 189 145 279q93 55 211 55q184 0 272 -133q45 -70 45 -172q0 -158 -98 -249t-246 -91q-157 0 -243 84t-86 227zM250 930q0 -103 43.5 -170.5t122.5 -67.5q69 0 107 56t38 149q0 117 -41 176q-41 66 -127 66q-143 0 -143 -209z" />
<glyph unicode="&#xbb;" horiz-adv-x="913" d="M74 848q0 53 35 129q156 -203 317 -385v-111l-317 -420l-27 132l229 290l-65 66q-98 98 -135 160t-37 139zM469 885q0 70 39 143q103 -137 167.5 -216t184.5 -214v-119l-352 -467l-31 144l254 323l-72 74q-108 108 -149 177.5t-41 154.5z" />
<glyph unicode="&#xbc;" horiz-adv-x="1720" d="M111 1427q202 76 325 76h23v-665q0 -88 2 -113q2 -12 19.5 -19t72.5 -16l55 -10v-66h-477v66l57 10q55 9 74.5 16t20.5 19q2 25 2 113v342q0 122 -2 153q0 19 -6.5 27t-24.5 8l-135 2zM430 -29l731 1575l92 -43l-733 -1575zM889 223q0 59 67 162l297 438q32 49 75.5 68 t131.5 27q-6 -68 -6 -142v-411h123l-29 -142h-94v-217l-170 -22v239h-395zM1040 365h244v372z" />
<glyph unicode="&#xbd;" horiz-adv-x="1720" d="M111 1427q202 76 325 76h23v-665q0 -88 2 -113q2 -12 19.5 -19t72.5 -16l55 -10v-66h-477v66l57 10q55 9 74.5 16t20.5 19q2 25 2 113v342q0 122 -2 153q0 19 -6.5 27t-24.5 8l-135 2zM410 -29l731 1575l92 -43l-733 -1575zM977 727q0 52 37 94q81 90 233 90 q134 0 209.5 -70t75.5 -177q0 -122 -87 -234t-302 -283h452l-24 -147h-590v98q116 107 193 196t111.5 153.5t46 106t11.5 83.5q0 64 -40.5 104.5t-102.5 40.5q-105 0 -211 -106q-12 20 -12 51z" />
<glyph unicode="&#xbe;" horiz-adv-x="1720" d="M133 743q0 19 6.5 38t13.5 29l7 9q75 -65 132.5 -98t113.5 -33q65 0 99 35t34 90q0 70 -56.5 125.5t-179.5 87.5v33q117 69 162 127t45 117q0 44 -35.5 74t-85.5 30q-105 0 -215 -115q-16 29 -16 62q0 50 32 84q39 45 100.5 68.5t131.5 23.5q120 0 195 -56.5t75 -148.5 q0 -127 -188 -219q108 -36 164.5 -106.5t56.5 -149.5q0 -102 -95 -180t-239 -78q-75 0 -131 19t-84 44q-43 40 -43 88zM471 -29l731 1575l92 -43l-733 -1575zM930 223q0 59 67 162l297 438q32 49 75.5 68t131.5 27q-6 -68 -6 -142v-411h123l-29 -142h-94v-217l-170 -22v239 h-395zM1081 365h244v372z" />
<glyph unicode="&#xbf;" horiz-adv-x="903" d="M86 -109q0 180 211 320l78 53q73 48 100 90.5t27 89.5q0 83 -47 164l86 -14q77 -51 118 -114t41 -130q0 -70 -42 -130.5t-148 -135.5l-78 -53q-125 -88 -125 -189q0 -58 34.5 -91.5t100.5 -33.5q122 0 310 136q45 -56 45 -109q0 -74 -88 -123t-213 -49q-105 0 -187 29 t-129 76.5t-70.5 102t-23.5 111.5zM387 920q0 57 38 94t97 37t93 -40.5t34 -97.5q0 -56 -37.5 -94.5t-95.5 -38.5t-93.5 41.5t-35.5 98.5z" />
<glyph unicode="&#xc0;" horiz-adv-x="1509" d="M10 0v74l125 30q30 8 43.5 18.5t22.5 35.5l395 1157q28 86 70.5 120t144.5 64q15 -56 51 -151l457 -1190q9 -23 17.5 -31.5t33.5 -15.5l119 -37v-74h-635v74l135 30q47 10 31 52l-100 274h-490l-80 -276q-5 -21 5 -33.5t48 -20.5l127 -26v-74h-520zM451 1878q2 17 7 35.5 t9 28.5l4 10l475 -324v-72q-204 62 -325 111q-101 36 -138 89t-32 122zM469 563h403l-225 623q-22 -90 -55 -203z" />
<glyph unicode="&#xc1;" horiz-adv-x="1509" d="M10 0v74l125 30q30 8 43.5 18.5t22.5 35.5l395 1157q28 86 70.5 120t144.5 64q15 -56 51 -151l457 -1190q9 -23 17.5 -31.5t33.5 -15.5l119 -37v-74h-635v74l135 30q47 10 31 52l-100 274h-490l-80 -276q-5 -21 5 -33.5t48 -20.5l127 -26v-74h-520zM469 563h403l-225 623 q-22 -90 -55 -203zM537 1565v71l475 324q18 -35 20 -74q5 -69 -32 -122t-138 -89q-111 -45 -325 -110z" />
<glyph unicode="&#xc2;" horiz-adv-x="1509" d="M10 0v74l125 30q30 8 43.5 18.5t22.5 35.5l395 1157q28 86 70.5 120t144.5 64q15 -56 51 -151l457 -1190q9 -23 17.5 -31.5t33.5 -15.5l119 -37v-74h-635v74l135 30q47 10 31 52l-100 274h-490l-80 -276q-5 -21 5 -33.5t48 -20.5l127 -26v-74h-520zM367 1651l342 276h112 q36 -38 65 -68t61.5 -61.5t50.5 -48t61 -56.5t63 -59q-55 -20 -108 -20q-80 0 -138 35t-128 123l-35 43l-238 -203zM469 563h403l-225 623q-22 -90 -55 -203z" />
<glyph unicode="&#xc3;" horiz-adv-x="1509" d="M10 0v74l125 30q30 8 43.5 18.5t22.5 35.5l395 1157q28 86 70.5 120t144.5 64q15 -56 51 -151l457 -1190q9 -23 17.5 -31.5t33.5 -15.5l119 -37v-74h-635v74l135 30q47 10 31 52l-100 274h-490l-80 -276q-5 -21 5 -33.5t48 -20.5l127 -26v-74h-520zM393 1565 q9 127 70.5 203.5t150.5 76.5q51 0 142 -37l47 -20q73 -31 112 -31q42 0 80 32t64 101l45 -8q-9 -129 -70.5 -204.5t-152.5 -75.5q-54 0 -142 36l-47 21q-73 31 -112 31q-91 0 -142 -134zM469 563h403l-225 623q-22 -90 -55 -203z" />
<glyph unicode="&#xc4;" horiz-adv-x="1509" d="M10 0v74l125 30q30 8 43.5 18.5t22.5 35.5l395 1157q28 86 70.5 120t144.5 64q15 -56 51 -151l457 -1190q9 -23 17.5 -31.5t33.5 -15.5l119 -37v-74h-635v74l135 30q47 10 31 52l-100 274h-490l-80 -276q-5 -21 5 -33.5t48 -20.5l127 -26v-74h-520zM410 1731 q0 52 33.5 87t86.5 35q55 0 87 -37t32 -90t-34 -86.5t-89 -33.5q-54 0 -85 35.5t-31 89.5zM469 563h403l-225 623q-22 -90 -55 -203zM829 1731q0 52 34 87t87 35q55 0 87 -37t32 -90t-33.5 -86.5t-87.5 -33.5q-55 0 -87 35.5t-32 89.5z" />
<glyph unicode="&#xc5;" horiz-adv-x="1509" d="M10 0v74l125 30q30 8 43.5 18.5t22.5 35.5l395 1157q28 86 70.5 120t144.5 64q15 -56 51 -151l457 -1190q9 -23 17.5 -31.5t33.5 -15.5l119 -37v-74h-635v74l135 30q47 10 31 52l-100 274h-490l-80 -276q-5 -21 5 -33.5t48 -20.5l127 -26v-74h-520zM469 563h403l-225 623 q-22 -90 -55 -203zM492 1745q0 105 76 165t184 60q101 0 167 -57t66 -154q0 -105 -76.5 -165t-183.5 -60q-101 0 -167 57t-66 154zM625 1759q0 -71 31.5 -110t80.5 -39q113 0 113 135q0 72 -31 110.5t-82 38.5q-52 0 -82 -33t-30 -102z" />
<glyph unicode="&#xc6;" horiz-adv-x="2095" d="M-4 0v74l125 30q30 8 46 20t34 44l602 973q69 110 69 155q0 21 -12.5 35t-54.5 25l-129 33v65h1171q11 -133 -6 -362h-82q-23 142 -28 163q-5 25 -14.5 37.5t-34 24.5t-78 16.5t-135 7t-216.5 2.5v-542q265 4 318 10q30 3 40.5 8.5t16.5 24.5q24 87 33 125h76v-459h-76 q-8 38 -33 131q-8 29 -17.5 37.5t-39.5 11.5q-57 8 -318 8v-563q78 -20 246 -20q125 0 181.5 5.5t82 20t41.5 47.5q34 73 78 197h84q-4 -84 -17 -180t-23 -151l-11 -54h-1122v70l98 26q55 12 69.5 26t16.5 54q2 45 2 238v16l-451 2l-159 -278q-11 -18 -1.5 -32t48.5 -22 l127 -26v-74h-547zM604 563h375v682q-80 -170 -123 -244z" />
<glyph unicode="&#xc7;" horiz-adv-x="1654" d="M123 743q0 396 295 598q199 136 518 136q108 0 286.5 -23t192.5 -24q3 -177 -12 -422h-86q-15 100 -35 174q-24 93 -116.5 134.5t-250.5 41.5q-126 0 -210.5 -30t-145.5 -91q-141 -141 -141 -459q0 -198 63 -348.5t192 -238t310 -87.5q131 0 234 33q46 13 75 43t51 84 q40 103 72 205h86q-9 -181 -41 -387q-258 -105 -534 -105q-146 0 -284 37.5t-239 110.5q-280 203 -280 618zM676 -186q0 42 31 74t61 42l20 2q-13 -35 5 -58.5t39 -31.5t73 -21q7 -2 10 -3q29 -8 47.5 -13.5t45 -17.5t41.5 -25.5t26.5 -35.5t11.5 -48q0 -72 -76.5 -134 t-172.5 -62q-60 0 -110 22t-50 64q0 16 7 31.5t13 23.5l7 8q83 -67 172 -67q39 0 63.5 14.5t24.5 40.5q0 15 -17 27t-40 19.5t-68 19.5q-78 22 -121 51t-43 78z" />
<glyph unicode="&#xc8;" horiz-adv-x="1492" d="M131 1378v76h1081q7 -163 -8 -362h-82q-23 142 -28 163q-5 25 -14.5 37.5t-34 24.5t-78 16.5t-135 7t-216.5 2.5v-542q265 4 318 10q30 3 40.5 8.5t16.5 24.5q24 87 33 125h76v-459h-76q-8 38 -33 131q-8 29 -17.5 37.5t-39.5 11.5q-57 8 -318 8v-563q78 -20 246 -20 q125 0 181.5 5.5t82 20t41.5 47.5q38 77 78 197h84q-4 -84 -16.5 -180t-23.5 -151l-11 -54h-1120v76l59 12q85 19 103.5 29.5t19.5 44.5q2 47 2 229v672q0 182 -2 229q-1 33 -24 44t-126 30zM410 1878q2 17 7 35.5t9 28.5l4 10l475 -324v-72q-204 62 -325 111 q-101 36 -138 89t-32 122z" />
<glyph unicode="&#xc9;" horiz-adv-x="1492" d="M131 1378v76h1081q7 -163 -8 -362h-82q-23 142 -28 163q-5 25 -14.5 37.5t-34 24.5t-78 16.5t-135 7t-216.5 2.5v-542q265 4 318 10q30 3 40.5 8.5t16.5 24.5q24 87 33 125h76v-459h-76q-8 38 -33 131q-8 29 -17.5 37.5t-39.5 11.5q-57 8 -318 8v-563q78 -20 246 -20 q125 0 181.5 5.5t82 20t41.5 47.5q38 77 78 197h84q-4 -84 -16.5 -180t-23.5 -151l-11 -54h-1120v76l59 12q85 19 103.5 29.5t19.5 44.5q2 47 2 229v672q0 182 -2 229q-1 33 -24 44t-126 30zM557 1565v71l475 324q19 -35 21 -74q5 -69 -32 -122t-138 -89q-108 -44 -326 -110 z" />
<glyph unicode="&#xca;" horiz-adv-x="1492" d="M131 1378v76h1081q7 -163 -8 -362h-82q-23 142 -28 163q-5 25 -14.5 37.5t-34 24.5t-78 16.5t-135 7t-216.5 2.5v-542q265 4 318 10q30 3 40.5 8.5t16.5 24.5q24 87 33 125h76v-459h-76q-8 38 -33 131q-8 29 -17.5 37.5t-39.5 11.5q-57 8 -318 8v-563q78 -20 246 -20 q125 0 181.5 5.5t82 20t41.5 47.5q38 77 78 197h84q-4 -84 -16.5 -180t-23.5 -151l-11 -54h-1120v76l59 12q85 19 103.5 29.5t19.5 44.5q2 47 2 229v672q0 182 -2 229q-1 33 -24 44t-126 30zM367 1651l342 276h112q36 -38 65 -68t61.5 -61.5t50.5 -48t61 -56.5t63 -59 q-55 -20 -108 -20q-80 0 -138 35t-128 123l-35 43l-238 -203z" />
<glyph unicode="&#xcb;" horiz-adv-x="1492" d="M131 1378v76h1081q7 -163 -8 -362h-82q-23 142 -28 163q-5 25 -14.5 37.5t-34 24.5t-78 16.5t-135 7t-216.5 2.5v-542q265 4 318 10q30 3 40.5 8.5t16.5 24.5q24 87 33 125h76v-459h-76q-8 38 -33 131q-8 29 -17.5 37.5t-39.5 11.5q-57 8 -318 8v-563q78 -20 246 -20 q125 0 181.5 5.5t82 20t41.5 47.5q38 77 78 197h84q-4 -84 -16.5 -180t-23.5 -151l-11 -54h-1120v76l59 12q85 19 103.5 29.5t19.5 44.5q2 47 2 229v672q0 182 -2 229q-1 33 -24 44t-126 30zM410 1733q0 52 33.5 87t86.5 35q55 0 87 -36.5t32 -89.5t-34 -87t-89 -34 q-54 0 -85 35.5t-31 89.5zM829 1733q0 52 34 87t87 35q55 0 87 -36.5t32 -89.5t-33.5 -87t-87.5 -34q-55 0 -87 35.5t-32 89.5z" />
<glyph unicode="&#xcc;" horiz-adv-x="950" d="M154 0v76l59 12q85 19 103.5 29.5t19.5 44.5q2 47 2 229v672q0 182 -2 229q-1 34 -19.5 44.5t-103.5 29.5l-59 12v76h643v-76l-60 -12q-85 -19 -103.5 -29.5t-19.5 -44.5q-2 -47 -2 -229v-672q0 -182 2 -229q1 -34 19.5 -44.5t103.5 -29.5l60 -12v-76h-643zM166 1878 q2 17 7 35.5t9 28.5l4 10l476 -324v-72q-208 63 -326 111q-101 36 -138 89t-32 122z" />
<glyph unicode="&#xcd;" horiz-adv-x="950" d="M154 0v76l59 12q85 19 103.5 29.5t19.5 44.5q2 47 2 229v672q0 182 -2 229q-1 34 -19.5 44.5t-103.5 29.5l-59 12v76h643v-76l-60 -12q-85 -19 -103.5 -29.5t-19.5 -44.5q-2 -47 -2 -229v-672q0 -182 2 -229q1 -34 19.5 -44.5t103.5 -29.5l60 -12v-76h-643zM293 1565v71 l475 324q18 -35 20 -74q5 -69 -32 -122t-138 -89q-111 -45 -325 -110z" />
<glyph unicode="&#xce;" horiz-adv-x="950" d="M102 1651l342 276h113q36 -38 65 -68t61.5 -61.5t50.5 -48t61 -56.5t63 -59q-55 -20 -108 -20q-80 0 -138.5 35t-128.5 123l-34 43l-238 -203zM154 0v76l59 12q85 19 103.5 29.5t19.5 44.5q2 47 2 229v672q0 182 -2 229q-1 34 -19.5 44.5t-103.5 29.5l-59 12v76h643v-76 l-60 -12q-85 -19 -103.5 -29.5t-19.5 -44.5q-2 -47 -2 -229v-672q0 -182 2 -229q1 -34 19.5 -44.5t103.5 -29.5l60 -12v-76h-643z" />
<glyph unicode="&#xcf;" horiz-adv-x="950" d="M145 1731q0 52 34 87t87 35q55 0 87 -37t32 -90t-34 -86.5t-89 -33.5q-54 0 -85.5 35.5t-31.5 89.5zM154 0v76l59 12q85 19 103.5 29.5t19.5 44.5q2 47 2 229v672q0 182 -2 229q-1 34 -19.5 44.5t-103.5 29.5l-59 12v76h643v-76l-60 -12q-85 -19 -103.5 -29.5 t-19.5 -44.5q-2 -47 -2 -229v-672q0 -182 2 -229q1 -34 19.5 -44.5t103.5 -29.5l60 -12v-76h-643zM565 1731q0 52 34 87t87 35q55 0 87 -37t32 -90t-33.5 -86.5t-87.5 -33.5q-55 0 -87 35.5t-32 89.5z" />
<glyph unicode="&#xd0;" horiz-adv-x="1828" d="M131 1378v76q254 -4 420 -4q49 0 134 2t124 2q264 0 414 -43q226 -63 350.5 -234t124.5 -415q0 -250 -103 -416q-109 -170 -283.5 -258t-441.5 -88q-42 0 -146 2t-163 2l-403 -4v76l49 10q58 12 82 20.5t32 20t9 35.5q2 47 2 229v311h-166v121h166v240q0 182 -2 229 q-1 33 -22 44t-118 30zM606 160q129 -33 289 -33q309 0 432 229q78 130 78 338q0 85 -21 173t-57 155q-88 162 -217 234.5t-330 72.5q-38 0 -81.5 -3t-68.5 -6l-24 -3v-494h309v-121h-309v-542z" />
<glyph unicode="&#xd1;" horiz-adv-x="1871" d="M154 0v76l59 12q85 19 103.5 29.5t19.5 44.5q2 47 2 229v672q0 178 -2 225q-1 25 -8 35.5t-31.5 20t-83.5 22.5l-59 12v76h442l834 -1051v660q0 159 -3 229q-1 34 -19 44.5t-103 29.5l-60 12v76h488v-76l-60 -12q-85 -19 -103.5 -29.5t-19.5 -44.5q-2 -47 -2 -229v-1063 h-159l-930 1190v-799q0 -182 2 -229q1 -33 19.5 -44t103.5 -30l59 -12v-76h-489zM596 1565q9 127 70.5 203.5t150.5 76.5q50 0 141 -37l48 -20q73 -31 112 -31q42 0 80 32t64 101l45 -8q-9 -129 -71 -204.5t-153 -75.5q-53 0 -141 36l-47 21q-73 31 -113 31q-90 0 -141 -134 z" />
<glyph unicode="&#xd2;" horiz-adv-x="1814" d="M117 715q0 220 94 388.5t260 264.5q190 111 465 111q241 0 416 -93q166 -89 253 -247.5t87 -372.5q0 -181 -69 -341t-198 -271q-211 -183 -538 -183q-398 0 -598 240q-84 101 -128 232.5t-44 271.5zM416 768q0 -274 112 -455q137 -221 371 -221h19q135 0 241 71.5 t164 203.5q63 144 63 358q0 104 -18 197.5t-57 174t-95 138.5t-135.5 91.5t-175.5 33.5q-148 0 -250 -57q-239 -133 -239 -535zM594 1878q2 17 7 35.5t9 28.5l4 10l476 -324v-72q-208 63 -326 111q-101 36 -138 89t-32 122z" />
<glyph unicode="&#xd3;" horiz-adv-x="1814" d="M117 715q0 220 94 388.5t260 264.5q190 111 465 111q241 0 416 -93q166 -89 253 -247.5t87 -372.5q0 -181 -69 -341t-198 -271q-211 -183 -538 -183q-398 0 -598 240q-84 101 -128 232.5t-44 271.5zM416 768q0 -274 112 -455q137 -221 371 -221h19q135 0 241 71.5 t164 203.5q63 144 63 358q0 104 -18 197.5t-57 174t-95 138.5t-135.5 91.5t-175.5 33.5q-148 0 -250 -57q-239 -133 -239 -535zM743 1565v71l476 324q18 -35 20 -74q5 -69 -32 -122t-138 -89q-108 -44 -326 -110z" />
<glyph unicode="&#xd4;" horiz-adv-x="1814" d="M117 715q0 220 94 388.5t260 264.5q190 111 465 111q241 0 416 -93q166 -89 253 -247.5t87 -372.5q0 -181 -69 -341t-198 -271q-211 -183 -538 -183q-398 0 -598 240q-84 101 -128 232.5t-44 271.5zM416 768q0 -274 112 -455q137 -221 371 -221h19q135 0 241 71.5 t164 203.5q63 144 63 358q0 104 -18 197.5t-57 174t-95 138.5t-135.5 91.5t-175.5 33.5q-148 0 -250 -57q-239 -133 -239 -535zM532 1651l342 276h113q36 -38 65 -68t61.5 -61.5t50.5 -48t61 -56.5t63 -59q-55 -20 -108 -20q-80 0 -138.5 35t-128.5 123l-34 43l-238 -203z " />
<glyph unicode="&#xd5;" horiz-adv-x="1814" d="M117 715q0 220 94 388.5t260 264.5q190 111 465 111q241 0 416 -93q166 -89 253 -247.5t87 -372.5q0 -181 -69 -341t-198 -271q-211 -183 -538 -183q-398 0 -598 240q-84 101 -128 232.5t-44 271.5zM416 768q0 -274 112 -455q137 -221 371 -221h19q135 0 241 71.5 t164 203.5q63 144 63 358q0 104 -18 197.5t-57 174t-95 138.5t-135.5 91.5t-175.5 33.5q-148 0 -250 -57q-239 -133 -239 -535zM557 1569q9 127 70.5 203.5t150.5 76.5q51 0 142 -37l47 -20q73 -31 112 -31q42 0 80 32t64 101l45 -8q-9 -129 -71 -204.5t-153 -75.5 q-53 0 -141 36l-47 21q-73 31 -113 31q-91 0 -141 -133z" />
<glyph unicode="&#xd6;" horiz-adv-x="1814" d="M117 715q0 220 94 388.5t260 264.5q190 111 465 111q241 0 416 -93q166 -89 253 -247.5t87 -372.5q0 -181 -69 -341t-198 -271q-211 -183 -538 -183q-398 0 -598 240q-84 101 -128 232.5t-44 271.5zM416 768q0 -274 112 -455q137 -221 371 -221h19q135 0 241 71.5 t164 203.5q63 144 63 358q0 104 -18 197.5t-57 174t-95 138.5t-135.5 91.5t-175.5 33.5q-148 0 -250 -57q-239 -133 -239 -535zM575 1731q0 52 34 87t87 35q55 0 87 -37t32 -90t-34 -86.5t-89 -33.5q-54 0 -85.5 35.5t-31.5 89.5zM995 1731q0 52 34 87t87 35q55 0 87 -37 t32 -90t-33.5 -86.5t-87.5 -33.5q-55 0 -87 35.5t-32 89.5z" />
<glyph unicode="&#xd7;" horiz-adv-x="1095" d="M96 213l359 358l-359 361l92 92l359 -360l360 360l92 -92l-360 -361l360 -358l-92 -92l-360 358l-359 -358z" />
<glyph unicode="&#xd8;" horiz-adv-x="1794" d="M123 715q0 220 94 388.5t258 264.5q190 111 455 111q193 0 346 -68l100 158l90 -56l-96 -149q154 -97 230.5 -249.5t76.5 -348.5q0 -180 -69.5 -340.5t-198.5 -271.5q-211 -183 -528 -183q-214 0 -379 80l-101 -155l-90 55l101 155q-73 50 -117 105q-84 101 -128 232.5 t-44 271.5zM410 768q0 -125 29.5 -257.5t90.5 -217.5l654 973q-114 94 -283 94q-152 0 -254 -57q-237 -132 -237 -535zM602 209q123 -117 291 -117h18q137 0 244 72t164 203q65 148 65 358q0 290 -127 463z" />
<glyph unicode="&#xd9;" horiz-adv-x="1822" d="M127 1378v76h645v-76l-59 -12q-85 -19 -103.5 -29.5t-19.5 -44.5q-2 -47 -2 -229v-377q0 -102 6 -182q38 -375 387 -375q224 0 313.5 119t89.5 399v416q0 176 -2 223q-2 35 -21.5 48.5t-100.5 31.5l-60 12v76h494v-76l-60 -12q-81 -18 -101 -31.5t-22 -48.5 q-2 -47 -2 -223v-414q0 -356 -149 -517t-453 -161q-539 0 -588 471q-8 71 -8 183v438q0 182 -2 229q-1 34 -19.5 44.5t-103.5 29.5zM596 1878q2 17 7 35.5t9 28.5l4 10l476 -324v-72q-208 63 -326 111q-101 36 -138 89t-32 122z" />
<glyph unicode="&#xda;" horiz-adv-x="1822" d="M127 1378v76h645v-76l-59 -12q-85 -19 -103.5 -29.5t-19.5 -44.5q-2 -47 -2 -229v-377q0 -102 6 -182q38 -375 387 -375q224 0 313.5 119t89.5 399v416q0 176 -2 223q-2 35 -21.5 48.5t-100.5 31.5l-60 12v76h494v-76l-60 -12q-81 -18 -101 -31.5t-22 -48.5 q-2 -47 -2 -223v-414q0 -356 -149 -517t-453 -161q-539 0 -588 471q-8 71 -8 183v438q0 182 -2 229q-1 34 -19.5 44.5t-103.5 29.5zM805 1565v71l475 324q18 -35 20 -74q5 -69 -32 -122t-138 -89q-111 -45 -325 -110z" />
<glyph unicode="&#xdb;" horiz-adv-x="1822" d="M127 1378v76h645v-76l-59 -12q-85 -19 -103.5 -29.5t-19.5 -44.5q-2 -47 -2 -229v-377q0 -102 6 -182q38 -375 387 -375q224 0 313.5 119t89.5 399v416q0 176 -2 223q-2 35 -21.5 48.5t-100.5 31.5l-60 12v76h494v-76l-60 -12q-81 -18 -101 -31.5t-22 -48.5 q-2 -47 -2 -223v-414q0 -356 -149 -517t-453 -161q-539 0 -588 471q-8 71 -8 183v438q0 182 -2 229q-1 34 -19.5 44.5t-103.5 29.5zM555 1651l342 276h113q36 -38 65 -68t61.5 -61.5t50.5 -48t61 -56.5t63 -59q-55 -20 -109 -20q-80 0 -138 35t-128 123l-35 43l-237 -203z " />
<glyph unicode="&#xdc;" horiz-adv-x="1822" d="M127 1378v76h645v-76l-59 -12q-85 -19 -103.5 -29.5t-19.5 -44.5q-2 -47 -2 -229v-377q0 -102 6 -182q38 -375 387 -375q224 0 313.5 119t89.5 399v416q0 176 -2 223q-2 35 -21.5 48.5t-100.5 31.5l-60 12v76h494v-76l-60 -12q-81 -18 -101 -31.5t-22 -48.5 q-2 -47 -2 -223v-414q0 -356 -149 -517t-453 -161q-539 0 -588 471q-8 71 -8 183v438q0 182 -2 229q-1 34 -19.5 44.5t-103.5 29.5zM596 1731q0 52 34 87t87 35q55 0 87 -37t32 -90t-34 -86.5t-89 -33.5q-54 0 -85.5 35.5t-31.5 89.5zM1016 1731q0 52 34 87t87 35 q55 0 86.5 -36.5t31.5 -90.5q0 -53 -33 -86.5t-87 -33.5q-55 0 -87 35.5t-32 89.5z" />
<glyph unicode="&#xdd;" horiz-adv-x="1484" d="M47 1382v72h643v-72l-59 -12q-82 -17 -103 -35t-6 -53q16 -37 121 -207l197 -309q163 287 276 516q16 34 -5 52.5t-103 35.5l-60 12v72h496v-72l-47 -10q-34 -7 -55 -24t-48 -58q-221 -332 -409 -637v-262q0 -176 2 -223q2 -35 22 -48.5t101 -31.5l59 -12v-76h-633v76 l60 12q81 18 100.5 31.5t21.5 48.5q3 70 3 223v234l-279 438q-120 187 -154 231q-39 48 -55 59q-19 12 -47 19zM623 1565v71l475 324q18 -35 20 -74q5 -69 -32 -122t-138 -89q-111 -45 -325 -110z" />
<glyph unicode="&#xde;" horiz-adv-x="1431" d="M162 0v74l59 14q59 13 83 22t31.5 20.5t8.5 35.5q2 47 2 225v672q0 178 -2 225q-1 24 -8.5 35.5t-31.5 20.5t-83 22l-59 14v74h643v-74l-60 -14q-87 -19 -105 -32.5t-19 -63.5v-56h22q153 0 238.5 -9t158.5 -34q131 -40 204 -141.5t73 -230.5q0 -115 -45 -210.5 t-126.5 -157.5t-196.5 -87t-255 2v80q141 -10 226 47q62 39 91 111t29 159q0 79 -26 150q-36 96 -116.5 150.5t-197.5 54.5l-79 -4v-703q0 -178 2 -225q1 -25 8 -35.5t31 -20t83 -22.5l60 -14v-74h-643z" />
<glyph unicode="&#xdf;" horiz-adv-x="1458" d="M37 870v66q76 43 153 68v10q3 284 179 434q165 145 424 145q180 0 296.5 -85t116.5 -212q0 -84 -47 -161.5t-147 -161.5q-80 -66 -109 -104t-29 -74q0 -42 37 -76.5t129 -71.5l72 -26q248 -96 248 -302q0 -56 -25.5 -113t-74.5 -108t-133.5 -83.5t-190.5 -32.5 q-133 0 -217 43q-88 43 -88 127q0 56 45 98q68 -71 144 -113.5t147 -42.5q74 0 117.5 37t43.5 96q0 104 -176 172l-69 29q-114 44 -170 114.5t-56 155.5q0 92 66 170q41 50 137 131q141 117 141 238q0 88 -71 155.5t-203 67.5q-143 0 -217 -86t-74 -278v-1096h-373v68l76 24 q32 9 39.5 20.5t9.5 47.5q2 55 2 262v448h-153z" />
<glyph unicode="&#xe0;" horiz-adv-x="1067" d="M66 213q0 134 140 232.5t419 136.5v69q0 137 -38 195.5t-126 58.5q-67 0 -144.5 -42.5t-183.5 -153.5q-45 57 -45 118q0 74 68 125q125 101 350 101q104 0 175.5 -25t111 -75t56.5 -114t17 -151v-276v-17v-57t1.5 -48.5t4.5 -45t9 -37t15 -34t22 -27t30.5 -24.5t41 -18 t52.5 -16l-16 -41q-92 -65 -184 -65q-73 0 -127 42.5t-74 120.5q-44 -72 -125.5 -120t-179.5 -48q-119 0 -194.5 66t-75.5 170zM223 1544q4 19 11.5 38.5t13.5 29.5l6 10l436 -379l-8 -76q-184 78 -317 148q-172 85 -142 229zM295 270q0 -56 47.5 -93.5t120.5 -37.5 q88 0 162 64v272q-165 -20 -247.5 -77.5t-82.5 -127.5z" />
<glyph unicode="&#xe1;" horiz-adv-x="1067" d="M66 213q0 134 140 232.5t419 136.5v69q0 137 -38 195.5t-126 58.5q-67 0 -144.5 -42.5t-183.5 -153.5q-45 57 -45 118q0 74 68 125q125 101 350 101q104 0 175.5 -25t111 -75t56.5 -114t17 -151v-276v-17v-57t1.5 -48.5t4.5 -45t9 -37t15 -34t22 -27t30.5 -24.5t41 -18 t52.5 -16l-16 -41q-92 -65 -184 -65q-73 0 -127 42.5t-74 120.5q-44 -72 -125.5 -120t-179.5 -48q-119 0 -194.5 66t-75.5 170zM289 1243l436 379q23 -35 33 -78q27 -144 -142 -229q-124 -65 -319 -148zM295 270q0 -56 47.5 -93.5t120.5 -37.5q88 0 162 64v272 q-165 -20 -247.5 -77.5t-82.5 -127.5z" />
<glyph unicode="&#xe2;" horiz-adv-x="1067" d="M66 213q0 134 140 232.5t419 136.5v69q0 137 -38 195.5t-126 58.5q-67 0 -144.5 -42.5t-183.5 -153.5q-45 57 -45 118q0 74 68 125q125 101 350 101q104 0 175.5 -25t111 -75t56.5 -114t17 -151v-276v-17v-57t1.5 -48.5t4.5 -45t9 -37t15 -34t22 -27t30.5 -24.5t41 -18 t52.5 -16l-16 -41q-92 -65 -184 -65q-73 0 -127 42.5t-74 120.5q-44 -72 -125.5 -120t-179.5 -48q-119 0 -194.5 66t-75.5 170zM98 1204l361 383h102q98 -129 161 -202.5t171 -184.5q-55 -22 -111 -22q-85 0 -147 46t-141 167l-39 61l-240 -276zM295 270q0 -56 47.5 -93.5 t120.5 -37.5q88 0 162 64v272q-165 -20 -247.5 -77.5t-82.5 -127.5z" />
<glyph unicode="&#xe3;" horiz-adv-x="1067" d="M66 213q0 134 140 232.5t419 136.5v69q0 137 -38 195.5t-126 58.5q-67 0 -144.5 -42.5t-183.5 -153.5q-45 57 -45 118q0 74 68 125q125 101 350 101q104 0 175.5 -25t111 -75t56.5 -114t17 -151v-276v-17v-57t1.5 -48.5t4.5 -45t9 -37t15 -34t22 -27t30.5 -24.5t41 -18 t52.5 -16l-16 -41q-92 -65 -184 -65q-73 0 -127 42.5t-74 120.5q-44 -72 -125.5 -120t-179.5 -48q-119 0 -194.5 66t-75.5 170zM133 1245q9 128 70.5 206.5t150.5 78.5q51 0 142 -37l47 -20q73 -31 112 -31q42 0 80 32t64 101l45 -8q-9 -129 -71 -207t-152 -78 q-51 0 -142 37l-47 20q-73 31 -113 31q-91 0 -141 -133zM295 270q0 -56 47.5 -93.5t120.5 -37.5q88 0 162 64v272q-165 -20 -247.5 -77.5t-82.5 -127.5z" />
<glyph unicode="&#xe4;" horiz-adv-x="1067" d="M66 213q0 134 140 232.5t419 136.5v69q0 137 -38 195.5t-126 58.5q-67 0 -144.5 -42.5t-183.5 -153.5q-45 57 -45 118q0 74 68 125q125 101 350 101q104 0 175.5 -25t111 -75t56.5 -114t17 -151v-276v-17v-57t1.5 -48.5t4.5 -45t9 -37t15 -34t22 -27t30.5 -24.5t41 -18 t52.5 -16l-16 -41q-92 -65 -184 -65q-73 0 -127 42.5t-74 120.5q-44 -72 -125.5 -120t-179.5 -48q-119 0 -194.5 66t-75.5 170zM147 1401q0 55 34 92t87 37q57 0 89 -35.5t32 -91.5q0 -55 -34 -92t-89 -37q-56 0 -87.5 35.5t-31.5 91.5zM295 270q0 -56 47.5 -93.5 t120.5 -37.5q88 0 162 64v272q-165 -20 -247.5 -77.5t-82.5 -127.5zM567 1401q0 55 34 92t89 37q56 0 87.5 -35.5t31.5 -91.5q0 -55 -33.5 -92t-87.5 -37q-56 0 -88.5 36t-32.5 91z" />
<glyph unicode="&#xe5;" horiz-adv-x="1067" d="M66 213q0 134 140 232.5t419 136.5v69q0 137 -38 195.5t-126 58.5q-67 0 -144.5 -42.5t-183.5 -153.5q-45 57 -45 118q0 74 68 125q125 101 350 101q104 0 175.5 -25t111 -75t56.5 -114t17 -151v-276v-17v-57t1.5 -48.5t4.5 -45t9 -37t15 -34t22 -27t30.5 -24.5t41 -18 t52.5 -16l-16 -41q-92 -65 -184 -65q-73 0 -127 42.5t-74 120.5q-44 -72 -125.5 -120t-179.5 -48q-119 0 -194.5 66t-75.5 170zM236 1380q0 116 78 181t182 65q103 0 171 -61.5t68 -165.5q0 -116 -78 -181t-182 -65q-103 0 -171 60.5t-68 166.5zM295 270q0 -56 47.5 -93.5 t120.5 -37.5q88 0 162 64v272q-165 -20 -247.5 -77.5t-82.5 -127.5zM379 1393q0 -72 31.5 -118t78.5 -46q44 0 73.5 41t29.5 114q0 71 -31.5 117.5t-79.5 46.5q-44 0 -73 -41t-29 -114z" />
<glyph unicode="&#xe6;" horiz-adv-x="1617" d="M66 209q0 133 139.5 231.5t419.5 139.5v59q0 138 -38 198t-126 60q-157 0 -330 -184q-43 55 -43 114q0 74 68 125q125 101 350 101q212 0 291 -113q124 115 319 115q192 0 301 -126t94 -356h-645q5 -267 178 -370q77 -47 201 -47q142 0 293 84l-12 -72 q-65 -85 -171 -136.5t-231 -51.5q-135 0 -234.5 49.5t-160.5 132.5q-68 -89 -165.5 -137t-201.5 -48q-141 0 -218.5 65.5t-77.5 166.5zM295 276q0 -59 49 -97t125 -38q106 0 223 80q-52 99 -63 252q-170 -22 -252 -76.5t-82 -120.5zM866 672l400 24q-3 119 -56.5 183.5 t-142.5 64.5q-69 0 -119 -47q-76 -70 -82 -225z" />
<glyph unicode="&#xe7;" horiz-adv-x="993" d="M94 483q0 165 67.5 291t184.5 199q126 80 285 80q121 0 196 -37q70 -34 70 -105q0 -58 -47 -120q-202 102 -318 102q-73 0 -118 -45q-70 -73 -70 -256q0 -194 91 -312t233 -118q123 0 241 65l-10 -67q-49 -68 -146.5 -123t-222.5 -55q-91 0 -170.5 35t-138.5 98.5 t-93 158.5t-34 209zM342 -186q0 42 32 74t62 42l19 2q-12 -35 5.5 -58.5t39.5 -31.5t71 -21q7 -2 11 -3q30 -8 49 -13.5t45.5 -17.5t41.5 -25.5t26.5 -35.5t11.5 -48q0 -72 -77.5 -134t-172.5 -62q-60 0 -110 22t-50 64q0 15 7 30t13 23l7 8q83 -67 170 -67q39 0 63.5 15.5 t24.5 41.5q0 15 -17 27t-40 19.5t-68 19.5q-78 23 -121 51.5t-43 77.5z" />
<glyph unicode="&#xe8;" horiz-adv-x="1081" d="M86 524q0 125 42 231.5t124 178.5q130 121 328 121q191 0 299.5 -125t95.5 -355h-645q3 -264 184 -372q74 -47 197 -47q143 0 290 80l-12 -72q-66 -82 -172.5 -133t-230.5 -51q-158 0 -273 73.5t-171 195t-56 275.5zM299 1544q4 19 11.5 38.5t13.5 29.5l6 10l436 -379 l-8 -76q-189 81 -318 148q-171 85 -141 229zM330 672l399 24q-3 118 -56.5 183t-142.5 65q-73 0 -118 -45q-73 -70 -82 -227z" />
<glyph unicode="&#xe9;" horiz-adv-x="1081" d="M86 524q0 125 42 231.5t124 178.5q130 121 328 121q191 0 299.5 -125t95.5 -355h-645q3 -264 184 -372q74 -47 197 -47q143 0 290 80l-12 -72q-66 -82 -172.5 -133t-230.5 -51q-158 0 -273 73.5t-171 195t-56 275.5zM330 672l399 24q-3 118 -56.5 183t-142.5 65 q-73 0 -118 -45q-73 -70 -82 -227zM344 1243l436 379q23 -35 33 -78q27 -145 -141 -229q-120 -63 -320 -148z" />
<glyph unicode="&#xea;" horiz-adv-x="1081" d="M86 524q0 125 42 231.5t124 178.5q130 121 328 121q191 0 299.5 -125t95.5 -355h-645q3 -264 184 -372q74 -47 197 -47q143 0 290 80l-12 -72q-66 -82 -172.5 -133t-230.5 -51q-158 0 -273 73.5t-171 195t-56 275.5zM162 1204l360 383h103q99 -131 161.5 -204t169.5 -183 q-55 -22 -110 -22q-85 0 -147.5 46t-141.5 167l-39 61l-239 -276zM330 672l399 24q-3 118 -56.5 183t-142.5 65q-73 0 -118 -45q-73 -70 -82 -227z" />
<glyph unicode="&#xeb;" horiz-adv-x="1081" d="M86 524q0 125 42 231.5t124 178.5q130 121 328 121q191 0 299.5 -125t95.5 -355h-645q3 -264 184 -372q74 -47 197 -47q143 0 290 80l-12 -72q-66 -82 -172.5 -133t-230.5 -51q-158 0 -273 73.5t-171 195t-56 275.5zM217 1401q0 55 34 92t87 37q57 0 89 -35.5t32 -91.5 q0 -55 -34 -92t-89 -37q-56 0 -87.5 35.5t-31.5 91.5zM330 672l399 24q-3 118 -56.5 183t-142.5 65q-73 0 -118 -45q-73 -70 -82 -227zM637 1401q0 55 34 92t89 37q56 0 87.5 -35.5t31.5 -91.5q0 -55 -33.5 -92t-87.5 -37q-56 0 -88.5 36t-32.5 91z" />
<glyph unicode="&#xec;" horiz-adv-x="669" d="M82 924v53q184 65 367 65h24v-614q0 -213 2 -268q2 -37 9 -48.5t38 -21.5l78 -22v-68h-500v68l76 22q32 10 39.5 21.5t9.5 48.5q2 55 2 268v150q0 204 -2 253q-1 33 -14 48t-47 24zM82 1518q0 75 53 131l377 -439l-18 -75q-215 135 -293 194q-119 78 -119 189z" />
<glyph unicode="&#xed;" horiz-adv-x="669" d="M82 924v53q184 65 367 65h24v-614q0 -213 2 -268q2 -37 9 -48.5t38 -21.5l78 -22v-68h-500v68l76 22q32 10 39.5 21.5t9.5 48.5q2 55 2 268v150q0 204 -2 253q-1 33 -14 48t-47 24zM139 1210l375 439q55 -59 55 -131q0 -112 -118 -189q-35 -26 -73 -52.5t-63 -42.5 t-77 -48.5t-80 -50.5z" />
<glyph unicode="&#xee;" horiz-adv-x="669" d="M-12 1200l317 381h105q155 -224 290 -387q-67 -23 -110 -23q-71 0 -122.5 43.5t-121.5 171.5l-37 68l-205 -283zM82 924v53q184 65 367 65h24v-614q0 -213 2 -268q2 -37 9 -48.5t38 -21.5l78 -22v-68h-500v68l76 22q32 10 39.5 21.5t9.5 48.5q2 55 2 268v150 q0 204 -2 253q-1 33 -14 48t-47 24z" />
<glyph unicode="&#xef;" horiz-adv-x="669" d="M14 1401q0 55 33 92t86 37q57 0 88 -35.5t31 -91.5q0 -55 -33.5 -92t-87.5 -37q-55 0 -86 35.5t-31 91.5zM82 924v53q184 65 367 65h24v-614q0 -213 2 -268q2 -37 9 -48.5t38 -21.5l78 -22v-68h-500v68l76 22q32 10 39.5 21.5t9.5 48.5q2 55 2 268v150q0 204 -2 253 q-1 33 -14 48t-47 24zM414 1401q0 55 33.5 92t87.5 37q55 0 85.5 -35.5t30.5 -91.5q0 -55 -32.5 -92t-86.5 -37q-55 0 -86.5 35.5t-31.5 91.5z" />
<glyph unicode="&#xf0;" horiz-adv-x="1236" d="M96 430q0 142 62.5 254.5t173.5 179.5q137 80 317 80q91 0 170 -24q-45 206 -149 323l-221 -147l-60 88l199 133q-53 39 -96 59q-152 73 -365 70q-4 15 -4 31q0 110 151 110q207 0 396 -94q23 -11 94 -57l199 135l59 -92l-170 -115q122 -116 190 -286.5t68 -387.5 q0 -144 -29.5 -263t-82 -202t-125 -140t-157.5 -83.5t-181 -26.5q-195 0 -317 123t-122 332zM354 473q0 -159 70 -258.5t166 -99.5q89 0 151 73q107 123 107 416q0 94 -10 199q-70 18 -144 18q-133 0 -209 -53q-131 -90 -131 -295z" />
<glyph unicode="&#xf1;" horiz-adv-x="1335" d="M86 924v53q187 65 369 65h18v-174q45 90 134.5 139.5t199.5 49.5q169 0 252.5 -100.5t83.5 -321.5v-207q0 -213 2 -268q2 -38 9 -49t38 -21l76 -22v-68h-496v70l76 22q29 9 36.5 20.5t8.5 51.5q2 55 2 260v100q0 77 -4 127t-16 97t-34 73t-59 41t-90 15q-65 0 -121 -20.5 t-92 -53.5v-379q0 -207 2 -262q1 -39 8.5 -50t36.5 -20l76 -22v-70h-496v68l76 22q31 10 38 21t9 49q2 55 2 262v156q0 204 -2 253q-1 33 -13.5 48t-45.5 24zM328 1245q9 128 70.5 206.5t150.5 78.5q50 0 141 -37l47 -20q73 -31 113 -31q93 0 143 133l45 -8 q-9 -129 -71 -207t-152 -78q-50 0 -141 37l-47 20q-73 31 -113 31q-91 0 -141 -133z" />
<glyph unicode="&#xf2;" horiz-adv-x="1216" d="M84 498q0 313 227 463q137 92 326 92q291 0 424 -219q69 -115 69 -289q0 -132 -41.5 -239.5t-114 -178.5t-169 -109t-207.5 -38q-245 0 -379.5 139.5t-134.5 378.5zM332 1544q4 19 11.5 38.5t12.5 29.5l6 10l437 -379l-8 -76q-189 81 -318 148q-171 85 -141 229zM346 543 q0 -191 73 -314t206 -123q114 0 176.5 103.5t62.5 273.5q0 209 -63 320q-72 125 -213 125q-70 0 -119.5 -33t-75 -91t-36.5 -121.5t-11 -139.5z" />
<glyph unicode="&#xf3;" horiz-adv-x="1216" d="M84 498q0 313 227 463q137 92 326 92q291 0 424 -219q69 -115 69 -289q0 -132 -41.5 -239.5t-114 -178.5t-169 -109t-207.5 -38q-245 0 -379.5 139.5t-134.5 378.5zM346 543q0 -191 73 -314t206 -123q114 0 176.5 103.5t62.5 273.5q0 209 -63 320q-72 125 -213 125 q-70 0 -119.5 -33t-75 -91t-36.5 -121.5t-11 -139.5zM408 1243l436 379q23 -35 33 -78q27 -144 -142 -229q-124 -65 -319 -148z" />
<glyph unicode="&#xf4;" horiz-adv-x="1216" d="M84 498q0 313 227 463q137 92 326 92q291 0 424 -219q69 -115 69 -289q0 -132 -41.5 -239.5t-114 -178.5t-169 -109t-207.5 -38q-245 0 -379.5 139.5t-134.5 378.5zM215 1204l360 383h103q98 -129 161 -202.5t171 -184.5q-55 -22 -111 -22q-85 0 -147.5 46t-141.5 167 l-39 61l-239 -276zM346 543q0 -191 73 -314t206 -123q114 0 176.5 103.5t62.5 273.5q0 209 -63 320q-72 125 -213 125q-70 0 -119.5 -33t-75 -91t-36.5 -121.5t-11 -139.5z" />
<glyph unicode="&#xf5;" horiz-adv-x="1216" d="M84 498q0 313 227 463q137 92 326 92q291 0 424 -219q69 -115 69 -289q0 -132 -41.5 -239.5t-114 -178.5t-169 -109t-207.5 -38q-245 0 -379.5 139.5t-134.5 378.5zM262 1245q9 128 70.5 206.5t150.5 78.5q51 0 142 -37l47 -20q73 -31 112 -31q42 0 80 32t64 101l45 -8 q-9 -129 -71 -207t-152 -78q-51 0 -142 37l-47 20q-73 31 -112 31q-92 0 -142 -133zM346 543q0 -191 73 -314t206 -123q114 0 176.5 103.5t62.5 273.5q0 209 -63 320q-72 125 -213 125q-70 0 -119.5 -33t-75 -91t-36.5 -121.5t-11 -139.5z" />
<glyph unicode="&#xf6;" horiz-adv-x="1216" d="M84 498q0 313 227 463q137 92 326 92q291 0 424 -219q69 -115 69 -289q0 -132 -41.5 -239.5t-114 -178.5t-169 -109t-207.5 -38q-245 0 -379.5 139.5t-134.5 378.5zM270 1401q0 55 34 92t87 37q57 0 89 -35.5t32 -91.5q0 -55 -34 -92t-89 -37q-56 0 -87.5 35.5 t-31.5 91.5zM346 543q0 -191 73 -314t206 -123q114 0 176.5 103.5t62.5 273.5q0 209 -63 320q-72 125 -213 125q-70 0 -119.5 -33t-75 -91t-36.5 -121.5t-11 -139.5zM690 1401q0 55 34 92t89 37q56 0 87.5 -35.5t31.5 -91.5q0 -55 -33.5 -92t-87.5 -37q-56 0 -88.5 36 t-32.5 91z" />
<glyph unicode="&#xf7;" horiz-adv-x="1095" d="M61 508v131h973v-131h-973zM457 201q0 40 29 69t71 29q43 0 68.5 -30t25.5 -72t-28 -70.5t-70 -28.5q-43 0 -69.5 30t-26.5 73zM457 965q0 41 28.5 69.5t71.5 28.5t68.5 -30t25.5 -72q0 -41 -27.5 -69t-70.5 -28t-69.5 29t-26.5 72z" />
<glyph unicode="&#xf8;" horiz-adv-x="1210" d="M84 498q0 313 227 463q137 92 326 92q67 0 143 -17l74 162l92 -39l-74 -155q117 -57 185 -170q69 -115 69 -289q0 -132 -41.5 -240t-113.5 -178.5t-168.5 -108.5t-206.5 -38q-97 0 -186 26l-74 -151l-92 36l75 154q-115 61 -175 177.5t-60 275.5zM344 543q0 -189 68 -301 l303 651q-56 35 -129 35q-70 0 -119.5 -33t-75 -91t-36.5 -121.5t-11 -139.5zM477 154q65 -48 146 -48q114 0 176.5 103.5t62.5 273.5q0 227 -78 332z" />
<glyph unicode="&#xf9;" horiz-adv-x="1337" d="M61 924v53q184 65 367 65h27v-540q0 -78 3.5 -127t15 -96.5t33.5 -73t58.5 -40.5t89.5 -15q63 0 119 21t90 54v353q0 204 -2 253q-2 34 -13.5 48.5t-45.5 23.5l-84 21v53q187 65 368 65h25v-589q0 -205 2 -252q1 -33 14 -49t46 -25l83 -21v-53q-179 -63 -366 -63h-21v174 q-47 -93 -133.5 -144t-195.5 -51q-168 0 -251 101.5t-83 322.5v185q0 204 -2 253q-1 33 -14.5 48t-47.5 24zM393 1544q4 19 11.5 38.5t13.5 29.5l6 10l436 -379l-8 -76q-184 78 -317 148q-172 85 -142 229z" />
<glyph unicode="&#xfa;" horiz-adv-x="1337" d="M61 924v53q184 65 367 65h27v-540q0 -78 3.5 -127t15 -96.5t33.5 -73t58.5 -40.5t89.5 -15q63 0 119 21t90 54v353q0 204 -2 253q-2 34 -13.5 48.5t-45.5 23.5l-84 21v53q187 65 368 65h25v-589q0 -205 2 -252q1 -33 14 -49t46 -25l83 -21v-53q-179 -63 -366 -63h-21v174 q-47 -93 -133.5 -144t-195.5 -51q-168 0 -251 101.5t-83 322.5v185q0 204 -2 253q-1 33 -14.5 48t-47.5 24zM438 1243l436 379q23 -35 33 -78q27 -145 -141 -229q-120 -63 -320 -148z" />
<glyph unicode="&#xfb;" horiz-adv-x="1337" d="M61 924v53q184 65 367 65h27v-540q0 -78 3.5 -127t15 -96.5t33.5 -73t58.5 -40.5t89.5 -15q63 0 119 21t90 54v353q0 204 -2 253q-2 34 -13.5 48.5t-45.5 23.5l-84 21v53q187 65 368 65h25v-589q0 -205 2 -252q1 -33 14 -49t46 -25l83 -21v-53q-179 -63 -366 -63h-21v174 q-47 -93 -133.5 -144t-195.5 -51q-168 0 -251 101.5t-83 322.5v185q0 204 -2 253q-1 33 -14.5 48t-47.5 24zM266 1204l361 383h102q98 -129 161 -202.5t171 -184.5q-55 -22 -111 -22q-85 0 -147 46t-141 167l-39 61l-240 -276z" />
<glyph unicode="&#xfc;" horiz-adv-x="1337" d="M61 924v53q184 65 367 65h27v-540q0 -78 3.5 -127t15 -96.5t33.5 -73t58.5 -40.5t89.5 -15q63 0 119 21t90 54v353q0 204 -2 253q-2 34 -13.5 48.5t-45.5 23.5l-84 21v53q187 65 368 65h25v-589q0 -205 2 -252q1 -33 14 -49t46 -25l83 -21v-53q-179 -63 -366 -63h-21v174 q-47 -93 -133.5 -144t-195.5 -51q-168 0 -251 101.5t-83 322.5v185q0 204 -2 253q-1 33 -14.5 48t-47.5 24zM317 1401q0 55 34 92t87 37q57 0 89 -35.5t32 -91.5q0 -55 -34 -92t-89 -37q-56 0 -87.5 35.5t-31.5 91.5zM737 1401q0 55 34 92t89 37q56 0 87.5 -35.5t31.5 -91.5 q0 -55 -33.5 -92t-87.5 -37q-56 0 -88.5 36t-32.5 91z" />
<glyph unicode="&#xfd;" horiz-adv-x="1126" d="M-31 963v71h520v-69l-81 -19q-41 -10 -48.5 -29t9.5 -51l282 -600q80 221 170 574q13 42 2.5 64.5t-55.5 35.5l-84 25v69h438v-69l-53 -15q-38 -9 -51.5 -26t-36.5 -80q-140 -393 -243 -632.5t-208 -426.5q-79 -140 -161 -227.5t-152 -87.5q-53 0 -94 44.5t-62 129.5 q194 59 286.5 121t141.5 155l31 62l-440 897q-16 37 -26.5 49.5t-35.5 19.5zM428 1243l436 379q23 -35 33 -78q27 -145 -141 -229q-120 -63 -320 -148z" />
<glyph unicode="&#xfe;" horiz-adv-x="1259" d="M43 1475v55q186 63 369 63h24v-569q0 -41 -1.5 -79.5t-2.5 -56.5l-2 -18q50 83 135 127.5t185 44.5q122 0 217 -63.5t145.5 -171t50.5 -238.5q0 -164 -56 -291t-161 -202q-156 -111 -383 -111q-59 0 -127 10v-81q0 -208 2 -263q2 -36 9.5 -47t37.5 -20l86 -23v-69h-508 v67l76 25q31 9 38 19.5t9 47.5q2 55 2 263v1236q0 205 -2 252q-2 34 -14 49.5t-45 22.5zM436 133q106 -33 195 -33q98 0 160 54q55 44 84.5 130t29.5 199q0 184 -77 289t-210 105q-51 0 -101.5 -19t-80.5 -47v-678z" />
<glyph unicode="&#xff;" horiz-adv-x="1126" d="M-31 963v71h520v-69l-81 -19q-41 -10 -48.5 -29t9.5 -51l282 -600q80 221 170 574q13 42 2.5 64.5t-55.5 35.5l-84 25v69h438v-69l-53 -15q-38 -9 -51.5 -26t-36.5 -80q-140 -393 -243 -632.5t-208 -426.5q-79 -140 -161 -227.5t-152 -87.5q-53 0 -94 44.5t-62 129.5 q194 59 286.5 121t141.5 155l31 62l-440 897q-16 37 -26.5 49.5t-35.5 19.5zM229 1401q0 55 34 92t87 37q57 0 89 -35.5t32 -91.5q0 -55 -34 -92t-89 -37q-56 0 -87.5 35.5t-31.5 91.5zM649 1401q0 55 34 92t89 37q56 0 87.5 -35.5t31.5 -91.5q0 -55 -33.5 -92t-87.5 -37 q-56 0 -88.5 36t-32.5 91z" />
<glyph unicode="&#x152;" horiz-adv-x="2443" d="M117 715q0 220 94 388.5t260 264.5q190 111 463 111q69 0 218.5 -12.5t268.5 -12.5h738q12 -147 -7 -362h-79q-30 159 -31 163q-6 25 -15 37.5t-33 24.5t-77 16.5t-134.5 7t-217.5 2.5v-542q264 4 317 10q30 3 40.5 8.5t16.5 24.5q24 87 33 125h76v-459h-76 q-8 38 -33 131q-8 29 -17.5 37.5t-39.5 11.5q-57 8 -317 8v-563q78 -20 247 -20q124 0 180 5.5t82 20t42 47.5q35 71 77 197h86q-4 -84 -17.5 -180t-24.5 -151l-11 -54h-905q-100 0 -243 -14.5t-191 -14.5q-398 0 -598 240q-84 101 -128 232.5t-44 271.5zM416 768 q0 -274 112 -455q137 -221 371 -221h14q88 0 167 22t128 60q46 31 61.5 58.5t18.5 70.5q2 33 2 131v610q0 100 -6 150q-5 36 -20.5 59.5t-51.5 44.5q-118 62 -301 62q-154 0 -256 -57q-239 -133 -239 -535z" />
<glyph unicode="&#x153;" horiz-adv-x="1867" d="M84 498q0 313 227 463q137 92 332 92q230 0 365 -156q28 38 71 72q114 86 289 86q190 0 299 -126t94 -356h-645q6 -264 184 -370q74 -47 197 -47q137 0 291 82l-12 -70q-64 -85 -170.5 -136.5t-233.5 -51.5q-252 0 -383 180q-63 -88 -165.5 -134t-223.5 -46 q-247 0 -381.5 139.5t-134.5 378.5zM346 543q0 -191 73.5 -314t207.5 -123q113 0 176 103.5t63 273.5v25q-3 190 -63 295q-74 125 -211 125q-71 0 -121.5 -33t-76.5 -91t-37 -121.5t-11 -139.5zM1116 672l402 24q-4 119 -57.5 183.5t-141.5 64.5q-71 0 -121 -47 q-73 -70 -82 -225z" />
<glyph unicode="&#x178;" horiz-adv-x="1484" d="M47 1382v72h643v-72l-59 -12q-82 -17 -103 -35t-6 -53q16 -37 121 -207l197 -309q163 287 276 516q16 34 -5 52.5t-103 35.5l-60 12v72h496v-72l-47 -10q-34 -7 -55 -24t-48 -58q-221 -332 -409 -637v-262q0 -176 2 -223q2 -35 22 -48.5t101 -31.5l59 -12v-76h-633v76 l60 12q81 18 100.5 31.5t21.5 48.5q3 70 3 223v234l-279 438q-120 187 -154 231q-39 48 -55 59q-19 12 -47 19zM434 1731q0 52 34 87t87 35q55 0 87 -37t32 -90t-34 -86.5t-89 -33.5q-54 0 -85.5 35.5t-31.5 89.5zM854 1731q0 52 34 87t87 35q55 0 87 -37t32 -90 t-33.5 -86.5t-87.5 -33.5q-55 0 -87 35.5t-32 89.5z" />
<glyph unicode="&#x2c6;" horiz-adv-x="999" d="M102 1247l361 383h102q98 -129 161 -202.5t171 -184.5q-55 -22 -111 -22q-85 0 -147 46t-141 167l-39 61l-240 -276z" />
<glyph unicode="&#x2dc;" horiz-adv-x="907" d="M98 1245q9 128 70.5 206.5t150.5 78.5q51 0 142 -37l47 -20q73 -31 113 -31q93 0 143 133l45 -8q-9 -129 -71 -207t-152 -78q-51 0 -142 37l-47 20q-73 31 -112 31q-92 0 -142 -133z" />
<glyph unicode="&#x2000;" horiz-adv-x="985" />
<glyph unicode="&#x2001;" horiz-adv-x="1970" />
<glyph unicode="&#x2002;" horiz-adv-x="985" />
<glyph unicode="&#x2003;" horiz-adv-x="1970" />
<glyph unicode="&#x2004;" horiz-adv-x="656" />
<glyph unicode="&#x2005;" horiz-adv-x="492" />
<glyph unicode="&#x2006;" horiz-adv-x="328" />
<glyph unicode="&#x2007;" horiz-adv-x="328" />
<glyph unicode="&#x2008;" horiz-adv-x="246" />
<glyph unicode="&#x2009;" horiz-adv-x="394" />
<glyph unicode="&#x200a;" horiz-adv-x="109" />
<glyph unicode="&#x2010;" horiz-adv-x="651" d="M41 608l549 62l20 -158l-549 -63z" />
<glyph unicode="&#x2011;" horiz-adv-x="651" d="M41 608l549 62l20 -158l-549 -63z" />
<glyph unicode="&#x2012;" horiz-adv-x="651" d="M41 608l549 62l20 -158l-549 -63z" />
<glyph unicode="&#x2013;" horiz-adv-x="1024" d="M61 487v150h902v-150h-902z" />
<glyph unicode="&#x2014;" horiz-adv-x="2048" d="M61 487v150h1926v-150h-1926z" />
<glyph unicode="&#x2018;" horiz-adv-x="444" d="M70 1364q0 47 19.5 98.5t79.5 123t155 140.5l104 9q-70 -67 -111 -122t-53 -96.5t-9 -71.5t19 -61q13 -23 30.5 -42t28.5 -27l11 -8q-19 -48 -55 -76.5t-82 -28.5q-49 0 -93 42.5t-44 119.5z" />
<glyph unicode="&#x2019;" horiz-adv-x="444" d="M16 1122q70 67 111 122t53 96.5t9 71.5t-19 61q-13 23 -30.5 42t-28.5 27l-11 8q19 47 55.5 76t82.5 29q49 0 93 -42.5t44 -119.5q0 -34 -11.5 -72t-38.5 -85t-79 -100t-125 -106z" />
<glyph unicode="&#x201a;" horiz-adv-x="444" d="M16 -270q70 67 111 121.5t53 96t9 71.5t-19 61q-13 23 -30.5 42.5t-28.5 27.5l-11 8q19 47 55.5 75.5t82.5 28.5q49 0 93 -42.5t44 -119.5q0 -47 -19.5 -98.5t-79.5 -123t-155 -140.5z" />
<glyph unicode="&#x201c;" horiz-adv-x="831" d="M70 1364q0 47 19.5 98.5t79.5 123t155 140.5l104 9q-70 -67 -111 -122t-53 -96.5t-9 -71.5t19 -61q13 -23 30.5 -42t28.5 -27l11 -8q-19 -48 -55 -76.5t-82 -28.5q-49 0 -93 42.5t-44 119.5zM457 1364q0 47 19.5 98.5t79.5 123t155 140.5l104 9q-70 -67 -111 -122 t-53 -96.5t-8.5 -71.5t19.5 -61q13 -23 30 -42t28 -27l11 -8q-19 -48 -55 -76.5t-82 -28.5q-49 0 -93 42.5t-44 119.5z" />
<glyph unicode="&#x201d;" horiz-adv-x="833" d="M16 1122q70 67 111 122t53 96.5t9 71.5t-19 61q-13 23 -30.5 42t-28.5 27l-11 8q19 47 55.5 76t82.5 29q49 0 93 -42.5t44 -119.5q0 -34 -11.5 -72t-38.5 -85t-79 -100t-125 -106zM403 1122q70 67 111 122t53 96.5t9 71.5t-19 61q-13 23 -30.5 42t-28.5 27l-11 8 q19 47 55.5 76t82.5 29q49 0 93 -42.5t44 -119.5q0 -34 -11.5 -72t-38.5 -85t-79 -100t-125 -106z" />
<glyph unicode="&#x201e;" horiz-adv-x="833" d="M16 -270q70 67 111 121.5t53 96t9 71.5t-19 61q-13 23 -30.5 42.5t-28.5 27.5l-11 8q19 47 55.5 75.5t82.5 28.5q49 0 93 -42.5t44 -119.5q0 -47 -19.5 -98.5t-79.5 -123t-155 -140.5zM403 -270q70 67 111 121.5t53 96t9 71.5t-19 61q-13 23 -30.5 42.5t-28.5 27.5l-11 8 q19 47 55.5 75.5t82.5 28.5q49 0 93 -42.5t44 -119.5q0 -47 -19.5 -98.5t-79.5 -123t-155 -140.5z" />
<glyph unicode="&#x2022;" horiz-adv-x="591" d="M113 711q0 79 52 131.5t134 52.5q80 0 130 -57.5t50 -137.5q0 -76 -54.5 -127t-137.5 -51q-81 0 -127.5 55.5t-46.5 133.5z" />
<glyph unicode="&#x2026;" horiz-adv-x="1210" d="M106 127q0 55 38 93t96 38t93.5 -41t35.5 -98q0 -55 -38.5 -92t-97.5 -37t-93 39.5t-34 97.5zM475 127q0 55 37.5 93t95.5 38t92.5 -41t34.5 -98q0 -56 -37.5 -92.5t-97.5 -36.5q-58 0 -91.5 39.5t-33.5 97.5zM844 127q0 55 37 93t96 38q58 0 92.5 -41t34.5 -98 q0 -56 -37.5 -92.5t-97.5 -36.5q-58 0 -91.5 39.5t-33.5 97.5z" />
<glyph unicode="&#x202f;" horiz-adv-x="394" />
<glyph unicode="&#x2039;" horiz-adv-x="518" d="M53 440v121l353 467l30 -143l-256 -326l74 -74q108 -107 149 -175.5t41 -155.5q0 -71 -38 -142q-101 134 -166.5 213t-186.5 215z" />
<glyph unicode="&#x203a;" horiz-adv-x="518" d="M74 885q0 70 39 143q103 -137 167.5 -216t184.5 -214v-119l-352 -467l-31 144l254 323l-72 74q-108 108 -149 177.5t-41 154.5z" />
<glyph unicode="&#x205f;" horiz-adv-x="492" />
<glyph unicode="&#x20ac;" d="M0 520v98h139q-2 39 -2 123q0 49 2 74h-139v98h150q51 316 278 461q170 105 358 105q84 0 159.5 -20t121.5 -54q68 -46 68 -119q0 -31 -16 -65t-38 -56q-219 156 -389 156q-125 0 -194 -74q-39 -42 -61 -120t-29 -214h534v-98h-536v-41q0 -86 6 -156h530v-98h-518 q34 -188 125 -281.5t244 -93.5q117 0 329 78l-16 -76q-200 -165 -426 -165q-123 0 -217 37t-157.5 108t-101 168t-54.5 225h-150z" />
<glyph unicode="&#x2122;" horiz-adv-x="2295" d="M49 1204q-8 147 0 258q55 -8 127 -8h545q74 0 129 8q8 -111 0 -258h-62q-8 31 -15 58.5t-9.5 39.5t-5 21t-4.5 14q-12 25 -41.5 35t-98.5 10h-71v-594q0 -110 2 -141q2 -18 14.5 -25.5t61.5 -19.5l38 -8v-55h-421v55l38 8q49 12 61.5 19.5t14.5 25.5q2 31 2 141v594h-69 q-69 0 -98.5 -10t-41.5 -35q-7 -11 -36 -133h-60zM928 539v55l41 8q48 12 59.5 19.5t13.5 25.5q2 23 2 141l7 416q0 110 -2 137q-2 21 -14.5 29.5t-61.5 20.5l-39 8v55h334l307 -674l307 674h342v-55l-37 -8q-50 -12 -63 -20.5t-15 -29.5q-2 -27 -2 -137l4 -416 q0 -106 3 -141q2 -18 14 -25.5t61 -19.5l39 -8v-55h-422v55l41 8q48 12 60 19.5t14 25.5q2 23 2 141l-4 533l-367 -782h-73l-340 727l-6 -478q0 -118 2 -141q2 -18 13.5 -25.5t59.5 -19.5l41 -8v-55h-321z" />
<glyph unicode="&#x25fc;" horiz-adv-x="1034" d="M0 0v1034h1034v-1034h-1034z" />
<glyph unicode="&#xfb01;" horiz-adv-x="1398" d="M70 870v66q68 40 151 68v6q0 143 63 259t171 197q167 127 385 127q121 0 192 -43q66 -40 66 -110q0 -73 -56 -144q-213 119 -344 119q-117 0 -173 -63.5t-56 -216.5v-140h240l-11 -125h-229v-448q0 -207 2 -262q2 -37 9 -48t38 -20l94 -22v-70h-518v68l78 24 q30 9 37.5 20.5t9.5 47.5q2 55 2 262v448h-151zM811 924v53q182 65 367 65h24v-614q0 -213 2 -268q2 -37 9 -48.5t38 -21.5l76 -22v-68h-498v68l76 22q31 10 38 21t9 49q2 55 2 268v150q0 204 -2 253q-2 34 -13.5 48.5t-45.5 23.5z" />
<glyph unicode="&#xfb02;" horiz-adv-x="1396" d="M70 870v66q68 40 151 68v6q0 145 57 262.5t156 193.5q158 127 357 127q84 0 151 -24q126 24 229 24h25v-1165q0 -213 2 -268q2 -37 9.5 -48.5t39.5 -21.5l74 -22v-68h-498v68l76 22q31 10 38 21t9 49q2 55 2 268v702q0 197 -2 220q-151 67 -274 67q-109 0 -156 -63 t-47 -219v-140h270l-10 -125h-260v-448q0 -207 2 -262q2 -37 9 -48t38 -20l94 -22v-70h-518v68l78 24q30 9 37.5 20.5t9.5 47.5q2 55 2 262v448h-151z" />
<glyph unicode="&#xfb03;" horiz-adv-x="2123" d="M70 870v66q68 40 151 68v14q0 142 49 259t142 191q157 125 319 125q109 0 164 -43q47 -38 47 -100q0 -66 -47 -129q-82 44 -161 69t-128 25q-76 0 -106.5 -57t-30.5 -213v-150h477v15q0 143 63 259t171 197q167 127 383 127q123 0 194 -43q66 -40 66 -110q0 -73 -56 -144 q-216 119 -344 119q-117 0 -173 -63.5t-56 -216.5v-140h291l-10 -125h-281v-448q0 -207 2 -262q2 -37 9 -48t38 -20l94 -22v-70h-518v68l76 24q32 9 39.5 20.5t9.5 47.5q2 55 2 262v448h-477v-448q0 -207 2 -262q2 -37 9 -48t38 -20l94 -22v-70h-518v68l78 24 q30 9 37.5 20.5t9.5 47.5q2 55 2 262v448h-151zM1540 924v53q184 65 369 65h24v-614q0 -213 2 -268q2 -38 9 -49t38 -21l76 -22v-68h-497v68l75 22q31 10 38 21t9 49q3 83 3 268v150q0 180 -3 253q-2 34 -13.5 48.5t-45.5 23.5z" />
<glyph unicode="&#xfb04;" horiz-adv-x="2121" d="M70 870v66q68 40 151 68v14q0 142 49 259t142 191q157 125 319 125q109 0 164 -43q47 -38 47 -100q0 -66 -47 -129q-82 44 -161 69t-128 25q-76 0 -106.5 -57t-30.5 -213v-150h477v15q0 144 57 262t154 194q161 127 359 127q84 0 151 -24q123 24 229 24h25v-1165 q0 -213 2 -268q2 -38 9 -49t38 -21l76 -22v-68h-498v68l76 22q31 10 38 21t9 49q2 55 2 268v702q0 197 -2 220q-154 67 -274 67q-109 0 -156 -63t-47 -219v-140h268l-10 -125h-258v-448q0 -207 2 -262q2 -37 9 -48t38 -20l94 -22v-70h-518v68l76 24q32 9 39.5 20.5t9.5 47.5 q2 55 2 262v448h-477v-448q0 -207 2 -262q2 -37 9 -48t38 -20l94 -22v-70h-518v68l78 24q30 9 37.5 20.5t9.5 47.5q2 55 2 262v448h-151z" />
</font>
</defs>
</svg>
