<?xml version="1.0" standalone="no"?>
<!DOCTYPE svg PUBLIC "-//W3C//DTD SVG 1.1//EN" "http://www.w3.org/Graphics/SVG/1.1/DTD/svg11.dtd" >
<svg xmlns="http://www.w3.org/2000/svg">
<metadata></metadata>
<defs>
<font id="novel_sans_probold" horiz-adv-x="1193" >
<font-face units-per-em="2048" ascent="1638" descent="-410" />
<missing-glyph horiz-adv-x="346" />
<glyph horiz-adv-x="0" />
<glyph horiz-adv-x="682" />
<glyph unicode=" "  horiz-adv-x="346" />
<glyph unicode="&#x09;" horiz-adv-x="346" />
<glyph unicode="&#xa0;" horiz-adv-x="346" />
<glyph unicode="!" horiz-adv-x="616" d="M141 152q0 70 46.5 116.5t121.5 46.5q73 0 118.5 -48t45.5 -122q0 -71 -46 -117t-122 -46q-72 0 -118 48t-46 122zM152 1454h311l-2 -254q-4 -383 -37 -711h-234q-32 317 -36 711z" />
<glyph unicode="&#x22;" horiz-adv-x="823" d="M100 1454h228l-4 -184q-2 -73 -7.5 -150t-10.5 -118l-5 -41h-172q-21 145 -25 309zM494 1454h227l-4 -184q-2 -73 -7.5 -150t-10.5 -118l-5 -41h-172q-20 145 -24 309z" />
<glyph unicode="#" d="M41 262l25 199h165l41 360h-163l24 197h164l33 258h213l-31 -258h256l33 258h213l-31 -258h166l-25 -197h-166l-43 -360h166l-24 -199h-166l-31 -262h-215l31 262h-256l-31 -262h-215l31 262h-164zM444 461h258l41 360h-256z" />
<glyph unicode="$" d="M123 317q206 -66 362 -77l19 387q-208 87 -290.5 187t-80.5 228q0 74 26 141t79 123.5t141 95.5t203 52l10 207l131 -4l-10 -201q150 -3 305 -43l-23 -233q-163 44 -295 47l-16 -377q116 -45 195 -96t120.5 -105t58.5 -105t17 -112q0 -54 -14.5 -107t-50 -107t-88 -97.5 t-134 -75t-182.5 -41.5l-8 -207l-131 6l8 199q-75 3 -169.5 22.5t-176.5 51.5zM430 1067q0 -101 127 -162l14 316q-71 -14 -106 -57.5t-35 -96.5zM616 242q79 11 114.5 55.5t35.5 99.5q0 49 -27.5 92.5t-107.5 83.5z" />
<glyph unicode="%" horiz-adv-x="1773" d="M70 1092q0 95 28.5 170t77.5 120.5t111 69t133 23.5q148 0 245 -99t97 -266q0 -95 -29 -170t-78.5 -121t-111.5 -70t-133 -24q-146 0 -243 100.5t-97 266.5zM274 1108q0 -95 40.5 -151t105.5 -56q61 0 99 46t38 147q0 96 -40 151t-105 55q-62 0 -100 -45.5t-38 -146.5z M457 31l704 1507l176 -70l-704 -1513zM1016 346q0 95 28.5 170t77.5 120.5t111 69t133 23.5q146 0 243 -100.5t97 -266.5q0 -125 -50 -213.5t-127.5 -128.5t-172.5 -40q-148 0 -244 99.5t-96 266.5zM1219 362q0 -96 40 -152t105 -56q62 0 99.5 45.5t37.5 146.5 q0 97 -39.5 152t-105.5 55q-61 0 -99 -45.5t-38 -145.5z" />
<glyph unicode="&#x26;" horiz-adv-x="1726" d="M125 426q0 237 258 377q-158 161 -158 309q0 159 120 261t310 102t297 -99t107 -241q0 -49 -13.5 -96t-44.5 -96t-88 -95t-137 -82q175 -162 354 -297q105 133 105 373q0 98 -16 196h254q28 -83 28 -190q0 -316 -162 -524q88 -67 295 -193l-219 -172q-141 80 -272 174 q-97 -74 -215.5 -113.5t-241.5 -39.5q-132 0 -240.5 37.5t-177.5 100.5t-106 142.5t-37 165.5zM403 461q0 -103 78.5 -177.5t214.5 -74.5t246 82q-170 133 -418 364q-121 -72 -121 -194zM487 1122q0 -49 30.5 -99.5t107.5 -121.5q190 88 190 221q0 63 -46 104.5t-118 41.5 q-73 0 -118.5 -39t-45.5 -107z" />
<glyph unicode="'" horiz-adv-x="430" d="M100 1454h228l-4 -184q-2 -73 -7.5 -150t-10.5 -118l-5 -41h-172q-21 145 -25 309z" />
<glyph unicode="(" horiz-adv-x="1024" d="M170 553q0 411 167 710.5t472 477.5l186 -105q-571 -356 -571 -1083q0 -728 573 -1083l-186 -105q-306 178 -473.5 477t-167.5 711z" />
<glyph unicode=")" horiz-adv-x="1024" d="M27 1636l184 105q307 -179 475 -478t168 -710q0 -412 -167.5 -711t-473.5 -477l-184 105q571 356 571 1083q0 726 -573 1083z" />
<glyph unicode="*" horiz-adv-x="985" d="M96 946l84 43q98 48 217 80q-125 34 -217 80l-84 41l97 166l77 -51q85 -58 179 -152q-34 130 -41 231l-5 93h191l-4 -93q-7 -100 -41 -229q95 95 178 150l78 51l96 -166l-84 -41q-101 -48 -219 -80q124 -33 219 -80l84 -43l-96 -164l-78 49q-66 43 -178 150 q30 -112 41 -227l4 -95h-191l5 95q6 89 38 227q-89 -93 -176 -150l-77 -49z" />
<glyph unicode="+" horiz-adv-x="1161" d="M90 498v202h385v355h207v-355h387v-202h-387v-355h-207v355h-385z" />
<glyph unicode="," horiz-adv-x="528" d="M14 -225q73 79 114 141t49 106t1.5 73t-26.5 57q-15 19 -31.5 34.5t-25.5 21.5l-9 5q20 67 67.5 101t100.5 34q63 0 113 -39q39 -28 61.5 -76t22.5 -106q0 -207 -285 -455z" />
<glyph unicode="-" horiz-adv-x="686" d="M55 451v225h576v-225h-576z" />
<glyph unicode="&#xad;" horiz-adv-x="686" d="M55 451v225h576v-225h-576z" />
<glyph unicode="." horiz-adv-x="534" d="M96 156q0 73 48 120.5t126 47.5q75 0 121.5 -49.5t46.5 -127.5q0 -73 -48 -120t-126 -47q-75 0 -121.5 49.5t-46.5 126.5z" />
<glyph unicode="/" horiz-adv-x="976" d="M-29 -455l834 2229l201 -78l-834 -2228z" />
<glyph unicode="0" d="M53 717q0 192 41.5 339t116.5 237.5t175.5 136t223.5 45.5q248 0 389.5 -181.5t141.5 -556.5q0 -192 -41.5 -338.5t-116.5 -237t-175.5 -136t-223.5 -45.5q-248 0 -389.5 181t-141.5 556zM344 733q0 -512 250 -512q46 0 83 14t70 49.5t55.5 91.5t35 143t12.5 202 q0 512 -248 512q-59 0 -104 -24t-81 -79t-54.5 -154.5t-18.5 -242.5z" />
<glyph unicode="1" d="M111 1401l387 53h262v-1221l282 -12v-221h-878v221l309 12v977l-344 -32z" />
<glyph unicode="2" d="M139 0v225l267 271q103 103 169.5 185t96.5 142.5t39.5 99t9.5 81.5q0 105 -72 166t-184 61q-141 0 -305 -84l-21 233q181 95 385 95q116 0 212.5 -37.5t159.5 -99.5t97.5 -142.5t34.5 -167.5q0 -65 -15 -127t-52.5 -139t-111 -169t-181.5 -194l-156 -151h584l-21 -248 h-936z" />
<glyph unicode="3" d="M139 82v248q203 -115 377 -115q122 0 184 51.5t62 132.5q0 83 -85.5 149t-275.5 83v205q183 23 259.5 86.5t76.5 144.5q0 74 -59.5 125t-167.5 51q-154 0 -320 -92l-22 229q180 95 389 95q116 0 209 -31.5t149 -85t85.5 -119.5t29.5 -139q0 -43 -12.5 -87t-40 -91 t-81 -90t-126.5 -72q79 -24 138.5 -64.5t92.5 -89.5t48.5 -98t15.5 -98q0 -63 -20.5 -124t-64 -116.5t-105.5 -97.5t-152 -67t-197 -25q-216 0 -387 102z" />
<glyph unicode="4" d="M49 309v213l621 932h303v-905h178l-21 -240h-157v-309h-287v309h-637zM336 549h350v391q0 43 1.5 81t2.5 55l2 16z" />
<glyph unicode="5" d="M150 731l126 713l793 43l-29 -262l-536 -25l-45 -260q136 -14 242.5 -50t173.5 -84.5t111 -110.5t61.5 -123.5t17.5 -127.5q0 -88 -34 -170t-97 -148t-163.5 -106t-223.5 -40q-201 0 -381 96v250q209 -103 342 -103q116 0 178 62t62 147q0 38 -13.5 74.5t-53.5 77 t-103.5 71t-174 52t-253.5 24.5z" />
<glyph unicode="6" d="M82 664q0 190 55 342t156 253t243.5 155t315.5 54q125 0 205 -14v-233q-84 8 -174 8q-93 0 -174 -22t-148 -66.5t-110.5 -118.5t-55.5 -172q111 57 240 57q130 0 238.5 -54.5t173.5 -158.5t65 -237q0 -130 -59.5 -238.5t-170 -173.5t-249.5 -65q-88 0 -167.5 24.5 t-150 78.5t-122 132.5t-81.5 193.5t-30 255zM379 621q-2 -91 13.5 -163t40.5 -116t59 -72.5t66.5 -39.5t64.5 -11q89 0 140.5 57.5t51.5 157.5q0 102 -69.5 166t-176.5 64q-105 0 -190 -43z" />
<glyph unicode="7" d="M117 1182l14 272h944v-254l-629 -1235l-253 109l565 1108h-641z" />
<glyph unicode="8" d="M70 371q0 220 256 354q-68 40 -116 87.5t-72 94.5t-34 87t-10 79q0 169 137.5 285.5t376.5 116.5q220 0 346.5 -102.5t126.5 -258.5q0 -100 -62 -188.5t-185 -151.5q288 -140 288 -373q0 -59 -19.5 -117t-62.5 -113t-104 -97.5t-152.5 -68t-199.5 -25.5q-228 0 -371 112 t-143 279zM352 399q0 -86 65.5 -145t176.5 -59q101 0 160 53t59 125q0 69 -63.5 132.5t-217.5 125.5q-180 -91 -180 -232zM395 1098q0 -64 50 -119.5t176 -110.5q93 42 137.5 101.5t44.5 124.5q0 73 -56.5 121.5t-150.5 48.5t-147.5 -47t-53.5 -119z" />
<glyph unicode="9" d="M80 997q0 130 60 238.5t171 174t250 65.5q111 0 207.5 -40.5t174 -121t122.5 -214.5t45 -308q0 -380 -208 -592.5t-560 -212.5q-125 0 -205 14v233q84 -8 174 -8q93 0 174 22t148 66.5t110.5 118.5t55.5 172q-111 -57 -240 -57q-130 0 -239 54.5t-174.5 158.5t-65.5 237z M379 1020q0 -102 69.5 -165.5t176.5 -63.5q105 0 190 43q2 91 -13.5 163t-41 115.5t-59.5 72t-66 39.5t-64 11q-89 0 -140.5 -57.5t-51.5 -157.5z" />
<glyph unicode=":" horiz-adv-x="534" d="M96 156q0 73 48 120.5t126 47.5q75 0 121.5 -49.5t46.5 -127.5q0 -73 -48 -120t-126 -47q-75 0 -121.5 49.5t-46.5 126.5zM96 797q0 73 48 120.5t126 47.5q75 0 121.5 -49.5t46.5 -127.5q0 -73 -48 -120t-126 -47q-75 0 -121.5 49.5t-46.5 126.5z" />
<glyph unicode=";" horiz-adv-x="559" d="M27 -225q59 63 96.5 117t53.5 91.5t17 70.5t-6.5 54.5t-23.5 43.5q-15 19 -31.5 34.5t-25.5 21.5l-9 5q20 67 67.5 101t100.5 34q63 0 113 -39q39 -28 61.5 -76t22.5 -106q0 -207 -285 -455zM111 797q0 73 48 120.5t126 47.5q75 0 121.5 -49.5t46.5 -127.5 q0 -73 -48 -120t-126 -47q-75 0 -121.5 49.5t-46.5 126.5z" />
<glyph unicode="&#x3c;" horiz-adv-x="1175" d="M76 481v164l1024 510v-221l-729 -367l729 -362v-234z" />
<glyph unicode="=" horiz-adv-x="1161" d="M92 242v207h977v-207h-977zM92 713v202h977v-202h-977z" />
<glyph unicode="&#x3e;" horiz-adv-x="1175" d="M76 -12v225l729 365l-729 364v229l1024 -509v-164z" />
<glyph unicode="?" horiz-adv-x="874" d="M94 1430q145 45 299 45q100 0 180.5 -30t128.5 -78.5t73.5 -106t25.5 -117.5q0 -182 -162 -309l-47 -37q-98 -75 -98 -164q0 -49 24 -111l-229 -61q-88 133 -88 231q0 60 30 119.5t123 132.5l47 37q93 73 93 135q0 53 -46.5 86t-123.5 33q-103 0 -201 -33zM217 152 q0 70 46.5 116.5t121.5 46.5q73 0 118.5 -48t45.5 -122q0 -71 -47 -117t-121 -46q-72 0 -118 48t-46 122z" />
<glyph unicode="@" horiz-adv-x="2230" d="M162 502q0 190 51.5 350t142 273.5t215 193t270 118t306.5 38.5q216 0 391 -63.5t290.5 -177t177.5 -270t62 -341.5q0 -164 -44.5 -296.5t-118.5 -214t-165.5 -124.5t-191.5 -43q-91 0 -152 35.5t-100 115.5q-141 -127 -313 -127q-132 0 -215.5 74t-83.5 199 q0 50 14 94.5t53 89t99.5 76t161.5 52t233 21.5v19q0 77 -14 113q-39 77 -158 77q-150 0 -307 -73l-18 184q69 44 169.5 69t188.5 25q132 0 213 -34t129 -103q33 -51 44 -118t11 -165v-264q0 -166 94 -166q27 0 55.5 13t60.5 46.5t57 83t41 131.5t16 183q0 308 -186.5 494 t-501.5 186q-120 0 -227 -26.5t-201 -85t-162 -143.5t-107 -209t-39 -275q0 -213 57 -375t163 -264.5t252.5 -153.5t330.5 -51q125 0 357 47l16 -197q-203 -55 -405 -55q-223 0 -407.5 65t-319.5 189.5t-210 318.5t-75 441zM926 268q0 -46 36.5 -77t104.5 -31q89 0 178 61 v189q-75 2 -133 -6t-92.5 -22t-56.5 -34t-29.5 -39t-7.5 -41z" />
<glyph unicode="A" horiz-adv-x="1552" d="M76 0l508 1450l346 8l545 -1458h-336l-117 324h-539l-106 -324h-301zM555 555h387l-141 401q-27 75 -62 179q0 -1 -2.5 -11t-7 -26.5t-10 -37.5t-14 -49t-17.5 -55z" />
<glyph unicode="B" horiz-adv-x="1361" d="M180 0v1454h334q164 0 271 -27t190 -84q160 -108 160 -284q0 -106 -58 -187.5t-162 -117.5q84 -16 147.5 -53t98.5 -85t51.5 -97t16.5 -99q0 -227 -217 -348q-135 -72 -406 -72h-426zM483 229h144q129 0 192 31q101 50 101 156q0 93 -84.5 153t-257.5 60h-95v-400z M483 834h95q106 0 159 26q107 54 107 172q0 52 -29.5 95.5t-79.5 70.5q-78 41 -207 41h-45v-405z" />
<glyph unicode="C" horiz-adv-x="1523" d="M102 723q0 207 76.5 358t204.5 244q209 150 530 150q214 0 416 -70l-24 -250q-221 66 -396 66q-219 0 -344 -105q-72 -60 -111.5 -156t-39.5 -215q0 -224 136.5 -366.5t375.5 -142.5q184 0 440 90l-14 -256q-226 -90 -445 -90q-291 0 -475 114q-155 91 -242.5 257 t-87.5 372z" />
<glyph unicode="D" horiz-adv-x="1632" d="M180 0v1454q152 2 416 2q460 0 698 -203q232 -193 232 -510q0 -166 -64.5 -308t-189.5 -247q-110 -93 -251.5 -141.5t-336.5 -48.5q-285 0 -504 2zM483 250q94 -2 199 -2q269 0 403 137q129 132 129 336q0 215 -149 346q-85 74 -198.5 106.5t-270.5 32.5q-70 0 -113 -2 v-954z" />
<glyph unicode="E" horiz-adv-x="1212" d="M180 0v1454h824v-250h-521v-348h488v-244h-488v-360h576l-19 -252h-860z" />
<glyph unicode="F" horiz-adv-x="1163" d="M180 0v1454h824v-250h-521v-403h496v-248h-496v-553h-303z" />
<glyph unicode="G" horiz-adv-x="1595" d="M102 731q0 201 75.5 350t201.5 242q208 152 545 152q237 0 444 -72l-27 -248q-226 66 -419 66q-234 0 -361 -107q-147 -128 -147 -364q0 -112 33.5 -206t97.5 -164t164 -109.5t227 -39.5q78 0 180 21v434h303v-453l2 -180q-282 -73 -503 -73q-293 0 -484 114 q-155 94 -243.5 260.5t-88.5 376.5z" />
<glyph unicode="H" horiz-adv-x="1624" d="M180 0v1454h303v-596h658v596h301v-1454h-301v596h-658v-596h-303z" />
<glyph unicode="I" horiz-adv-x="663" d="M180 0v1454h303v-1454h-303z" />
<glyph unicode="J" horiz-adv-x="673" d="M-59 -326q103 65 155 123.5t73 134t21 199.5v1323h302v-1302q0 -142 -26.5 -249t-83 -187.5t-135 -138.5t-192.5 -109z" />
<glyph unicode="K" horiz-adv-x="1556" d="M180 0v1454h303v-1454h-303zM514 729l600 725h354l-600 -690l611 -764h-394l-456 590q-77 99 -115 139z" />
<glyph unicode="L" horiz-adv-x="1159" d="M180 0v1454h303v-1202h576l-19 -252h-860z" />
<glyph unicode="M" horiz-adv-x="2121" d="M172 0l55 1454h424l402 -1085l409 1085h426l64 -1454h-305l-39 860q-6 88 -6 227q-16 -53 -74 -210l-332 -877h-309l-328 881q-51 140 -70 204q0 -147 -2 -223l-32 -862h-283z" />
<glyph unicode="N" horiz-adv-x="1693" d="M180 0v1454h334l717 -1012q-4 90 -4 174v838h286v-1454h-335l-715 1018q4 -45 4 -221v-797h-287z" />
<glyph unicode="O" horiz-adv-x="1742" d="M102 743q0 207 91 364.5t247 250.5q189 117 441 117q182 0 330 -58t247 -170q182 -198 182 -491q0 -211 -89.5 -385.5t-247.5 -274.5q-181 -116 -447 -116q-281 0 -477 153q-132 103 -204.5 259.5t-72.5 350.5zM414 762q0 -128 42.5 -237.5t118.5 -182.5 q55 -50 131.5 -80.5t153.5 -30.5h10q168 0 277 80q87 66 134.5 177t47.5 245q0 99 -32.5 190.5t-92.5 157.5q-128 140 -346 140q-148 0 -258 -72q-88 -58 -137 -158t-49 -229z" />
<glyph unicode="P" horiz-adv-x="1300" d="M180 0v1454h324q183 0 305.5 -28.5t216.5 -102.5q174 -139 174 -369q0 -146 -74 -267t-206 -177q-109 -48 -243 -48q-35 0 -73 3v237q15 -1 30 -1q88 0 142 32q54 29 84.5 81t30.5 116q0 129 -86 196q-90 72 -273 72h-49v-1198h-303z" />
<glyph unicode="Q" horiz-adv-x="1742" d="M102 743q0 209 91 366.5t247 250.5q194 117 441 117q181 0 329 -58.5t248 -169.5q182 -198 182 -493q0 -211 -89.5 -384.5t-247.5 -273.5q-71 -52 -175 -78q118 -81 205 -126q126 -64 241.5 -93.5t254.5 -29.5q86 0 113 6l-15 -213q-110 -21 -198 -21q-180 0 -322.5 38 t-280.5 120q-45 27 -93 62t-82 63t-95.5 79t-101.5 83q-213 21 -375 147q-132 101 -204.5 258t-72.5 350zM414 764q0 -129 42.5 -239t118.5 -181q54 -51 130.5 -81t154.5 -30h10q168 0 277 80q87 66 134.5 177t47.5 245q0 99 -32.5 189.5t-92.5 156.5q-129 142 -346 142 q-149 0 -258 -74q-88 -56 -137 -156t-49 -229z" />
<glyph unicode="R" horiz-adv-x="1527" d="M180 0v1454h357q181 0 302.5 -31t211.5 -102q155 -126 155 -336q0 -120 -54.5 -216.5t-168.5 -154.5l147 -182q109 -131 178.5 -174t182.5 -59l-41 -215h-66.5h-58.5q-55 1 -106 14t-94.5 34t-91.5 61.5t-98 95.5t-112 135l-143 188h-197v-512h-303zM483 733 q103 -4 166 -4q93 0 152 45q94 70 94 187q0 54 -24.5 105.5t-73.5 86.5q-50 35 -109.5 48t-146.5 13h-58v-481z" />
<glyph unicode="S" horiz-adv-x="1198" d="M115 309q247 -80 397 -80q69 0 118 15t73 40t34.5 50.5t10.5 54.5q0 53 -35.5 98.5t-141.5 94.5l-98 43q-194 87 -270 189q-74 99 -74 226v7q0 83 33 158t96 136t168 97.5t238 36.5q194 0 356 -54l-25 -239q-170 49 -307 49q-123 0 -180 -45.5t-57 -112.5 q0 -35 12.5 -61.5t58.5 -62t131 -72.5l99 -46q98 -43 164 -91t101.5 -100t49.5 -103.5t14 -114.5q0 -50 -12.5 -100t-38 -100.5t-70.5 -93t-104.5 -76.5t-145.5 -53t-188 -19q-223 0 -403 73z" />
<glyph unicode="T" horiz-adv-x="1300" d="M76 1202v252h1159l-16 -252h-424v-1202h-301v1202h-418z" />
<glyph unicode="U" horiz-adv-x="1617" d="M176 705v749h301v-764q0 -126 16.5 -206.5t65.5 -139.5q86 -106 272 -106q150 0 230 86q52 55 72 135.5t20 208.5v786h289v-741q0 -207 -37 -339t-131 -227q-79 -78 -199.5 -124t-271.5 -46q-161 0 -295 50.5t-217 158.5q-66 86 -90.5 207.5t-24.5 311.5z" />
<glyph unicode="V" horiz-adv-x="1501" d="M47 1454h332l387 -1116l389 1116h299l-524 -1450l-348 -8z" />
<glyph unicode="W" horiz-adv-x="2265" d="M53 1454h324l364 -1159l256 792l-125 367h312l379 -1139l331 1139h295l-450 -1450l-363 -8l-248 719l-237 -711l-363 -8z" />
<glyph unicode="X" horiz-adv-x="1513" d="M57 1454h373l350 -512l320 512h327l-479 -735l508 -719h-387l-340 502l-313 -502h-326l471 725z" />
<glyph unicode="Y" horiz-adv-x="1462" d="M27 1454h354l367 -590l366 590h322l-559 -862v-592h-304v590z" />
<glyph unicode="Z" horiz-adv-x="1329" d="M104 0v197l660 1005h-629v252h1020v-192l-666 -1012h728l-19 -250h-1094z" />
<glyph unicode="[" horiz-adv-x="778" d="M176 -621v2341h555l-6 -188h-315v-1964h321l-6 -189h-549z" />
<glyph unicode="\" horiz-adv-x="976" d="M-29 1696l201 78l834 -2229l-201 -77z" />
<glyph unicode="]" horiz-adv-x="778" d="M47 -621l6 189h314v1964h-320l6 188h549v-2341h-555z" />
<glyph unicode="^" horiz-adv-x="980" d="M31 487l381 813h163l375 -813h-235l-226 502l-223 -502h-235z" />
<glyph unicode="_" horiz-adv-x="1024" d="M0 -27h1024v-233h-1024v233z" />
<glyph unicode="`" horiz-adv-x="772" d="M102 1419l66 215l502 -288l-68 -181z" />
<glyph unicode="a" horiz-adv-x="1122" d="M74 266q0 53 15 99.5t56 94t105 81.5t171 56t245 24v18q0 79 -17 117q-36 82 -164 82q-155 0 -325 -78l-21 198q75 46 182 72.5t199 26.5q142 0 227 -36.5t136 -111.5q35 -53 47 -123t12 -174v-293v-7q0 -25 0.5 -36.5t3 -31t7.5 -28.5t15.5 -21.5t25.5 -18t38 -10 t53 -4.5l-10 -168q-80 -14 -151 -14q-36 0 -65 4.5t-60 16t-55.5 36t-41.5 61.5q-132 -121 -313 -121q-139 0 -227 77.5t-88 211.5zM330 295q0 -49 38 -81t111 -32q95 0 187 64v194h-32q-59 0 -108 -6q-61 -8 -97 -21.5t-59 -34t-31.5 -40.5t-8.5 -43z" />
<glyph unicode="b" horiz-adv-x="1234" d="M119 45q14 110 14 197v1329l285 24v-512q0 -103 -10 -165q111 141 307 141q186 0 307 -135.5t121 -374.5q0 -128 -38 -233t-112 -180.5t-188.5 -117t-261.5 -41.5q-84 0 -205 18t-219 50zM414 223q82 -26 170 -26q124 0 196 82t72 231q0 153 -64.5 235t-160.5 82 q-111 0 -209 -88v-415q0 -68 -4 -101z" />
<glyph unicode="c" horiz-adv-x="1005" d="M90 510q0 116 29.5 210.5t79 156.5t117 104t141 60t153.5 18q164 0 271 -47l-23 -226q-121 39 -213 39q-53 0 -97 -13.5t-82 -44.5t-59.5 -88.5t-21.5 -137.5q0 -90 23 -155.5t63.5 -101t86.5 -51.5t99 -16q109 0 242 55l-4 -229q-129 -63 -293 -63q-105 0 -196.5 33 t-162.5 97t-112 167t-41 233z" />
<glyph unicode="d" horiz-adv-x="1234" d="M90 498q0 252 151 405.5t414 153.5q87 0 162 -17v531l285 24v-1583l-258 -22l-15 127q-129 -140 -311 -140q-186 0 -307 137.5t-121 383.5zM381 535q0 -157 64.5 -241.5t160.5 -84.5q109 0 211 92v512q-83 25 -162 25q-128 0 -201 -79.5t-73 -223.5z" />
<glyph unicode="e" horiz-adv-x="1130" d="M88 526q0 238 140 385.5t372 147.5q108 0 193 -40t138 -115.5t73 -185.5q9 -51 8 -109q0 -65 -11 -138h-632q4 -131 90 -200.5t239 -69.5q148 0 322 59l-8 -207q-165 -73 -355 -73h-8q-115 0 -209 27q-96 28 -161 77t-108.5 118.5t-63 150t-19.5 173.5zM371 645l372 4v15 q-1 90 -45 142q-48 56 -135 56q-79 0 -134 -55t-58 -162z" />
<glyph unicode="f" horiz-adv-x="768" d="M27 797v198l161 19v51q0 155 33 258q45 140 162 212.5t287 72.5q114 0 202 -29l-20 -215q-88 16 -162 16q-92 0 -142 -36t-65 -117q-10 -51 -10 -150v-63h254l-10 -217h-244v-797h-285v797h-161z" />
<glyph unicode="g" horiz-adv-x="1134" d="M-2 -272q0 85 58.5 152.5t187.5 94.5q-62 56 -62 134q0 57 32 105t89 79q-223 98 -223 364q0 182 125 292t319 110q147 0 254 -60h330l-10 -186h-176q41 -64 41 -154q0 -175 -120 -289t-337 -114q-34 0 -64 6q-14 -28 -14 -49q0 -87 201 -92l108 -4q205 -3 289 -84 q66 -60 66 -168q0 -48 -21 -102.5t-71 -113t-121 -105.5t-181.5 -77t-242.5 -30q-98 0 -178 19t-131 49.5t-85.5 70t-48.5 77.5t-14 75zM244 -223q0 -59 64 -105.5t200 -46.5q145 0 234 54.5t89 109.5q0 27 -18 45q-31 31 -158 33l-92 4q-134 6 -211 37q-108 -43 -108 -131z M344 655q0 -105 47 -162t117 -57q87 0 140.5 62.5t53.5 160.5q0 105 -52 164.5t-124 59.5q-80 0 -131 -60.5t-51 -167.5z" />
<glyph unicode="h" horiz-adv-x="1210" d="M133 0v1571l285 24v-505q0 -107 -8 -170q117 139 315 139q118 0 200.5 -54.5t121.5 -154.5q15 -39 23 -93t9.5 -96t1.5 -116v-545h-284v530q0 76 -9 132q-6 71 -46.5 113t-116.5 42q-106 0 -207 -86v-731h-285z" />
<glyph unicode="i" horiz-adv-x="550" d="M100 1382q0 71 49 117.5t125 46.5q80 0 126 -46.5t46 -119.5q0 -72 -48.5 -116.5t-125.5 -44.5q-81 0 -126.5 46t-45.5 117zM133 0v999l285 27v-1026h-285z" />
<glyph unicode="j" horiz-adv-x="550" d="M-94 -348q143 135 185 234.5t42 295.5v817l285 27v-874q0 -160 -35.5 -274t-110 -204.5t-209.5 -191.5zM100 1382q0 71 49 117.5t125 46.5q80 0 126 -46.5t46 -119.5q0 -72 -48.5 -116.5t-125.5 -44.5q-81 0 -126.5 46t-45.5 117z" />
<glyph unicode="k" horiz-adv-x="1202" d="M133 0v1571l285 24v-1595h-285zM444 553l367 485h330l-375 -473l401 -565h-348z" />
<glyph unicode="l" horiz-adv-x="550" d="M133 0v1571l285 24v-1595h-285z" />
<glyph unicode="m" horiz-adv-x="1869" d="M133 0v1026l256 23l8 -142q124 152 328 152q102 0 178 -43.5t119 -124.5q133 168 354 168q125 0 209 -54t121 -155q22 -55 28.5 -125.5t6.5 -179.5v-545h-285v530q0 83 -8 132q-14 155 -164 155q-112 0 -213 -90q8 -71 8 -172v-555h-284v537q0 71 -9 133 q-8 66 -47.5 106.5t-113.5 40.5q-106 0 -207 -86v-731h-285z" />
<glyph unicode="n" horiz-adv-x="1210" d="M133 0v1026l256 23l8 -142q124 152 328 152q118 0 200.5 -54.5t121.5 -154.5q15 -39 23 -93t9.5 -96t1.5 -116v-545h-284v530q0 76 -9 132q-6 71 -46.5 113t-116.5 42q-106 0 -207 -86v-731h-285z" />
<glyph unicode="o" horiz-adv-x="1241" d="M90 514q0 134 44 240t120.5 171.5t174 99.5t208.5 34q229 0 371.5 -133.5t142.5 -382.5q0 -114 -30 -208.5t-81 -159t-120 -109.5t-146.5 -65.5t-161.5 -20.5q-74 0 -146 18.5t-140.5 60.5t-120.5 102.5t-83.5 151.5t-31.5 201zM381 530q0 -155 69 -242t171 -87h10 q99 0 164 80t65 231q0 155 -67.5 240.5t-178.5 85.5q-43 0 -81.5 -15t-74 -47.5t-56.5 -96t-21 -149.5z" />
<glyph unicode="p" horiz-adv-x="1232" d="M133 -512v1538l258 23l6 -144q120 154 318 154q186 0 307 -135.5t121 -374.5q0 -128 -38 -233t-112 -180.5t-188.5 -117t-261.5 -41.5q-59 0 -125 17v-506h-285zM418 225q74 -28 166 -28q124 0 196 82t72 231q0 153 -64.5 235t-160.5 82q-111 0 -209 -88v-514z" />
<glyph unicode="q" horiz-adv-x="1234" d="M90 498q0 257 161.5 410t453.5 153q181 0 397 -51v-1522h-285v467q0 90 8 160q-127 -138 -307 -138q-186 0 -307 137.5t-121 383.5zM381 528q0 -153 65 -236t160 -83q109 0 211 92v518q-82 21 -147 21q-135 0 -212 -78.5t-77 -233.5z" />
<glyph unicode="r" horiz-adv-x="831" d="M133 0v1026l256 23l8 -168q29 55 63 92t72 54t71 23.5t73 6.5q46 0 102 -15l-18 -249q-62 12 -109 12q-143 0 -233 -113v-692h-285z" />
<glyph unicode="s" horiz-adv-x="944" d="M102 733q0 58 25.5 114.5t74 104.5t130.5 77.5t184 29.5q167 0 285 -49l-21 -205q-132 41 -248 41q-74 0 -110.5 -26.5t-36.5 -63.5q0 -34 28 -59t109 -54l82 -29q242 -86 242 -295q0 -58 -24 -115t-72.5 -108t-135 -82.5t-198.5 -31.5q-65 0 -151 15.5t-154 45.5l-5 215 q158 -59 289 -59q80 0 119 28.5t39 69.5q0 34 -27 61.5t-106 55.5l-82 28q-127 45 -181.5 118t-54.5 173z" />
<glyph unicode="t" horiz-adv-x="817" d="M20 797v194l170 23l29 229l238 2v-231h270l-12 -217h-258v-418q0 -90 37.5 -127t107.5 -37q63 0 156 29l-4 -209q-115 -53 -234 -53q-60 0 -109 9.5t-94.5 34.5t-76.5 65.5t-49.5 105.5t-18.5 151v449h-152z" />
<glyph unicode="u" horiz-adv-x="1210" d="M129 494v530l285 25v-539q0 -78 6 -131q17 -156 166 -156q105 0 207 84v717l284 25v-1037l-256 -22l-8 143q-123 -151 -328 -151q-119 0 -201.5 54t-119.5 154q-22 54 -28.5 125t-6.5 179z" />
<glyph unicode="v" horiz-adv-x="1163" d="M25 1038h299l204 -606q16 -46 29 -90.5t18 -65.5l5 -22q16 67 55 176l215 608h280l-382 -1034l-353 -8z" />
<glyph unicode="w" horiz-adv-x="1796" d="M33 1038h299l157 -602q9 -36 18 -77.5t15 -68t6 -28.5q26 106 50 174l188 602h281l172 -600q8 -30 16 -62.5t12.5 -53t8.5 -37t4 -17.5q24 96 45 166l178 604h274l-330 -1034l-337 -8l-197 676l-215 -668l-340 -8z" />
<glyph unicode="x" horiz-adv-x="1155" d="M27 1038h338l217 -344l217 344h307l-348 -520l358 -518h-350l-209 328l-215 -328h-313l350 514z" />
<glyph unicode="y" horiz-adv-x="1179" d="M16 1038h320q149 -521 280 -864q62 127 111 295q69 243 100 569h281q-35 -341 -141 -678q-131 -403 -346 -612q-183 -181 -486 -280l-102 229q271 96 395 233q-98 223 -201 500t-157 442z" />
<glyph unicode="z" horiz-adv-x="1015" d="M92 0v193l451 632h-420v213h768v-192l-447 -629h476l-25 -217h-803z" />
<glyph unicode="{" horiz-adv-x="976" d="M88 446l6 193q163 19 219 81.5t56 221.5v322q0 138 32.5 229t104 143t173.5 70t251 10l-2 -180q-174 0 -240.5 -55.5t-66.5 -200.5v-289q0 -207 -51 -299.5t-199 -132.5q144 -32 197 -122.5t53 -297.5v-274q0 -88 12.5 -141.5t47 -91t93 -52t154.5 -14.5v-178 q-307 -19 -433 79t-126 359v276q0 92 -10.5 148t-41 99.5t-85 65.5t-144.5 31z" />
<glyph unicode="|" horiz-adv-x="417" d="M115 -512v2089h188v-2089h-188z" />
<glyph unicode="}" horiz-adv-x="976" d="M47 -436q177 0 243 55.5t66 202.5v297q0 207 50.5 298.5t197.5 133.5q-143 32 -195.5 122t-52.5 298v266q0 87 -12.5 140.5t-47.5 90.5t-94 51.5t-155 14.5v178q308 19 434.5 -79t126.5 -359v-266q0 -74 6.5 -123t23.5 -90t49 -66t81 -41t121 -24l-6 -193 q-163 -19 -219 -81.5t-56 -221.5v-332q0 -138 -33 -229t-104.5 -143t-173.5 -70t-250 -10v180z" />
<glyph unicode="~" horiz-adv-x="1110" d="M78 436q28 91 60.5 158t63.5 105t66.5 60t64 29t62.5 7q64 0 162 -39l37 -15q66 -26 113 -26q92 0 159 178l170 -64q-28 -91 -60.5 -157.5t-63 -104t-66 -60t-64.5 -29.5t-63 -7q-64 0 -162 39l-39 14q-71 29 -110 29q-17 0 -32.5 -5.5t-37 -22t-44 -55t-44.5 -95.5z" />
<glyph unicode="&#xa1;" horiz-adv-x="571" d="M33 905q0 71 46.5 117.5t121.5 46.5q72 0 118 -48t46 -122q0 -70 -46.5 -117t-121.5 -47q-73 0 -118.5 48t-45.5 122zM43 -403l2 253q4 383 37 711h233q33 -328 37 -711l2 -253h-311z" />
<glyph unicode="&#xa2;" d="M129 516q0 141 43.5 250t117 172.5t160 96t183.5 34.5l8 207l127 -4l-8 -205q122 -14 192 -45l-26 -225q-108 34 -176 37l-21 -617q116 3 238 55l-4 -229q-108 -52 -242 -59l-8 -209l-127 4l8 205q-97 8 -180 44.5t-147.5 101t-101 163.5t-36.5 223zM422 547 q0 -133 49 -211t131 -105l23 600q-91 -11 -147 -81.5t-56 -202.5z" />
<glyph unicode="&#xa3;" d="M74 633v141h155q-18 89 -18 187q0 131 46 231t127 160.5t184 90.5t225 30q132 0 268 -43l-29 -220q-145 31 -244 31q-54 0 -101 -15.5t-87.5 -48t-64 -91t-23.5 -138.5q0 -76 20 -174h400v-141h-371q21 -111 21 -148q0 -170 -127 -262q88 13 194 13h457l-25 -236h-794 q-101 0 -199 -14l-8 196q114 65 159.5 127.5t45.5 147.5q0 45 -25 176h-186z" />
<glyph unicode="&#xa4;" horiz-adv-x="1040" d="M72 305l133 133q-51 79 -51 180t51 183l-133 131l118 121l134 -133q80 53 184 53q101 0 178 -53l135 133l121 -121l-135 -131q51 -82 51 -183q0 -106 -51 -180l135 -133l-121 -119l-135 131q-76 -49 -178 -49q-105 0 -184 49l-134 -131zM324 618q0 -75 54 -128.5 t130 -53.5q74 0 127 53.5t53 128.5t-53 129t-127 54q-76 0 -130 -54t-54 -129z" />
<glyph unicode="&#xa5;" d="M-12 1454h340l286 -539l287 539h307l-428 -752h353v-122h-390v-187h390v-121h-390v-272h-303v272h-381v121h381v187h-381v122h342z" />
<glyph unicode="&#xa6;" horiz-adv-x="417" d="M115 387h188v-899h-188v899zM115 678v899h188v-899h-188z" />
<glyph unicode="&#xa7;" horiz-adv-x="1390" d="M152 891q0 151 93 278t244 205q94 49 206.5 72.5t211.5 23.5q152 0 279 -40l-29 -236q-117 31 -201 31q-61 0 -104 -19q-39 -21 -62.5 -55t-23.5 -74q0 -30 8.5 -59.5t47 -91.5t108.5 -142l65 -75q166 -194 225.5 -313t59.5 -230q0 -150 -93 -276.5t-245 -204.5 q-94 -50 -206 -73.5t-212 -23.5q-156 0 -278 41l28 236q108 -31 201 -31q62 0 105 19q39 19 62.5 53t23.5 74q0 48 -31.5 112t-132.5 180l-66 78q-167 191 -225.5 310t-58.5 231zM391 922q0 -71 47.5 -169.5t184.5 -260.5l65 -76q116 -137 159.5 -222.5t43.5 -148.5 q0 -106 -74 -174q104 28 163.5 102.5t59.5 163.5q0 71 -47.5 169.5t-183.5 258.5l-66 78q-116 136 -159 221.5t-43 149.5q0 107 73 174q-104 -28 -163.5 -102.5t-59.5 -163.5z" />
<glyph unicode="&#xa8;" horiz-adv-x="911" d="M102 1397q0 67 39 107t109 40q68 0 104.5 -40t36.5 -107q0 -72 -40.5 -112t-106.5 -40q-65 0 -103.5 43t-38.5 109zM522 1397q0 67 38.5 107t107.5 40q68 0 104.5 -40t36.5 -107q0 -72 -40 -112t-107 -40q-63 0 -101.5 43t-38.5 109z" />
<glyph unicode="&#xa9;" horiz-adv-x="1802" d="M96 723q0 177 67.5 323.5t181.5 241.5t262 147t313 52t308.5 -52t249.5 -147t167 -240t61 -321q0 -178 -66 -325t-179 -243.5t-261.5 -149t-314.5 -52.5q-131 0 -250 33t-217 98.5t-170 156.5t-112 214t-40 264zM289 737q0 -286 163 -452t459 -166q178 0 314 68 t214.5 202.5t78.5 319.5q0 285 -164 452.5t-461 167.5q-177 0 -312.5 -69t-213.5 -204t-78 -319zM463 723q0 103 38 185t103 133.5t148 78.5t178 27q135 0 244 -35l-15 -172q-115 33 -213 33q-109 0 -180.5 -59.5t-71.5 -176.5q0 -127 69.5 -196.5t199.5 -69.5q109 0 237 49 l-8 -170q-135 -55 -246 -55q-191 0 -299 70q-88 54 -136 146.5t-48 211.5z" />
<glyph unicode="&#xaa;" horiz-adv-x="768" d="M61 979q0 33 9.5 62t36 59t67.5 51t110 34t158 13v16q0 56 -24 81.5t-94 25.5q-106 0 -220 -51l-14 139q132 66 270 66q267 0 267 -242v-221q0 -44 14.5 -63t67.5 -23l-11 -113q-48 -10 -86 -10q-57 0 -90.5 17.5t-52.5 58.5q-84 -76 -205 -76q-90 0 -146.5 47t-56.5 129 zM231 1001q0 -29 24.5 -46t70.5 -17q58 0 116 39v108q-63 2 -107 -5t-65 -20.5t-30 -27.5t-9 -31z" />
<glyph unicode="&#xab;" horiz-adv-x="1204" d="M35 537l416 503l182 -149l-291 -344l305 -379l-198 -150zM598 537l375 450l162 -133l-261 -309l275 -342l-178 -133z" />
<glyph unicode="&#xac;" horiz-adv-x="1161" d="M90 573v203h979v-457h-209v254h-770z" />
<glyph unicode="&#xae;" horiz-adv-x="1538" d="M96 842q0 151 53.5 275t147 204.5t217 124t264.5 43.5q194 0 344 -78t235 -225t85 -340q0 -151 -54 -274.5t-147.5 -204t-217.5 -124.5t-265 -44q-193 0 -343 78t-234.5 225t-84.5 340zM258 858q0 -240 129 -381t381 -141q235 0 373.5 127t138.5 366q0 240 -129.5 380.5 t-380.5 140.5q-236 0 -374 -127t-138 -365zM494 514v694h198q62 0 115.5 -11.5t99.5 -36t72.5 -69.5t26.5 -106q0 -57 -29 -103.5t-84 -72.5l84 -96q49 -57 75 -76t68 -23l-20 -108q-102 -5 -156.5 23.5t-136.5 132.5l-76 96h-74v-244h-163zM657 866h68q49 0 80 27.5 t31 79.5q0 117 -158 117h-21v-224z" />
<glyph unicode="&#xaf;" horiz-adv-x="755" d="M102 1272v201h551v-201h-551z" />
<glyph unicode="&#xb0;" horiz-adv-x="868" d="M59 1098q0 166 112 271.5t271 105.5q158 0 261.5 -104.5t103.5 -272.5q0 -166 -111.5 -270.5t-271.5 -104.5q-158 0 -261.5 103.5t-103.5 271.5zM268 1100q0 -81 49 -131.5t115 -50.5q68 0 117 48.5t49 129.5q0 82 -49.5 133t-116.5 51q-66 0 -115 -49.5t-49 -130.5z" />
<glyph unicode="&#xb1;" horiz-adv-x="1161" d="M90 18v203h979v-203h-979zM90 772v203h385v354h207v-354h387v-203h-387v-354h-207v354h-385z" />
<glyph unicode="&#xb4;" horiz-adv-x="772" d="M102 1346l502 288l66 -215l-500 -254z" />
<glyph unicode="&#xb6;" horiz-adv-x="1390" d="M111 969q0 162 75 280.5t211 165.5q108 39 301 39h181v-1270q0 -131 -26 -207.5t-85 -132.5q264 56 264 426v1184h242v-1126q0 -752 -789 -752q-197 0 -321 47l-21 254q138 -49 250 -49q244 0 244 358v338q-166 -4 -287 47q-111 44 -175 150.5t-64 247.5z" />
<glyph unicode="&#xb7;" horiz-adv-x="534" d="M96 645q0 73 48 120.5t126 47.5q75 0 121.5 -49t46.5 -127q0 -73 -48 -120.5t-126 -47.5q-75 0 -121.5 49.5t-46.5 126.5z" />
<glyph unicode="&#xb8;" horiz-adv-x="622" d="M102 -356q80 -25 134 -25q43 0 65.5 19t22.5 49q0 91 -201 106l31 125q102 -1 177.5 -24.5t114.5 -60.5t56.5 -75.5t17.5 -79.5q0 -87 -69.5 -150t-182.5 -63q-100 0 -166 35v144z" />
<glyph unicode="&#xba;" horiz-adv-x="821" d="M66 1137q0 83 29 149t78.5 106.5t112.5 61.5t134 21q151 0 243.5 -83t92.5 -239q0 -87 -29.5 -155.5t-79.5 -109t-111 -61t-130 -20.5q-61 0 -119 19t-109 57t-81.5 103.5t-30.5 150.5zM258 1145q0 -91 44.5 -142t109.5 -51h6q63 0 103 46t40 137q0 93 -41 142.5 t-112 49.5q-63 0 -106.5 -41.5t-43.5 -140.5z" />
<glyph unicode="&#xbb;" horiz-adv-x="1204" d="M55 854l178 133l373 -467l-375 -450l-161 133l260 309zM557 889l199 149l413 -518l-415 -504l-183 150l291 344z" />
<glyph unicode="&#xbc;" horiz-adv-x="1720" d="M57 1483l234 26h172v-895h-195v723l-198 -16zM381 -23l731 1582l115 -54l-729 -1581zM909 186v144l394 559h204v-539h113l-12 -164h-101v-186h-194v186h-404zM1108 350h205v213l2 86z" />
<glyph unicode="&#xbd;" horiz-adv-x="1720" d="M57 1483l234 26h172v-895h-195v723l-198 -16zM371 -23l731 1582l115 -54l-730 -1581zM1083 844q121 59 254 59q148 0 237 -82.5t89 -193.5q0 -85 -50 -176t-183 -213l-74 -68h354l-16 -170h-604v145l163 164q121 121 162 186.5t41 116.5q0 56 -44 90.5t-112 34.5 q-92 0 -202 -51z" />
<glyph unicode="&#xbe;" horiz-adv-x="1720" d="M66 668v168q138 -76 245 -76q78 0 115 28.5t37 71.5q0 46 -53.5 82t-180.5 47v144q122 14 171 50t49 81q0 40 -35.5 68t-104.5 28q-95 0 -207 -60l-16 156q124 62 256 62q147 0 225 -68t78 -166q0 -61 -36.5 -116t-119.5 -89q95 -33 138 -91.5t43 -123.5q0 -48 -21.5 -94 t-62.5 -84.5t-110.5 -62t-156.5 -23.5q-137 0 -253 68zM438 -23l731 1582l115 -54l-729 -1581zM920 186v144l393 559h205v-539h112l-12 -164h-100v-186h-195v186h-403zM1118 350h205v213l2 86z" />
<glyph unicode="&#xbf;" horiz-adv-x="880" d="M74 -102q0 182 162 309l47 37q98 75 98 164q0 46 -25 110l230 62q88 -133 88 -232q0 -28 -5 -51.5t-19.5 -56t-47 -69t-82.5 -75.5l-47 -37q-92 -72 -92 -135q0 -53 46.5 -86t123.5 -33q103 0 201 33l28 -227q-145 -45 -299 -45q-100 0 -180.5 30t-128.5 78.5t-73 106 t-25 117.5zM326 895q0 71 47 117.5t121 46.5q72 0 117.5 -48t45.5 -122q0 -70 -46.5 -117t-121.5 -47q-73 0 -118 48t-45 122z" />
<glyph unicode="&#xc0;" horiz-adv-x="1552" d="M76 0l508 1450l346 8l545 -1458h-336l-117 324h-539l-106 -324h-301zM459 1753l37 221l530 -211l-43 -190zM555 555h387l-141 401q-27 75 -62 179q0 -1 -2.5 -11t-7 -26.5t-10 -37.5t-14 -49t-17.5 -55z" />
<glyph unicode="&#xc1;" horiz-adv-x="1552" d="M76 0l508 1450l346 8l545 -1458h-336l-117 324h-539l-106 -324h-301zM514 1763l533 211l34 -221l-524 -180zM555 555h387l-141 401q-27 75 -62 179q0 -1 -2.5 -11t-7 -26.5t-10 -37.5t-14 -49t-17.5 -55z" />
<glyph unicode="&#xc2;" horiz-adv-x="1552" d="M76 0l508 1450l346 8l545 -1458h-336l-117 324h-539l-106 -324h-301zM379 1704l389 303l389 -287l-143 -157l-258 196l-248 -196zM555 555h387l-141 401q-27 75 -62 179q0 -1 -2.5 -11t-7 -26.5t-10 -37.5t-14 -49t-17.5 -55z" />
<glyph unicode="&#xc3;" horiz-adv-x="1552" d="M76 0l508 1450l346 8l545 -1458h-336l-117 324h-539l-106 -324h-301zM356 1608q26 92 59.5 152.5t71.5 88t70 36.5t72 9q57 0 143 -32l23 -9q54 -20 86 -20q15 0 26.5 3t28 14t33 38t32.5 68l158 -43q-21 -74 -47.5 -128.5t-52.5 -84.5t-58 -47t-57 -22t-57 -5 q-55 0 -144 33l-20 8q-56 21 -88 21q-15 0 -26.5 -3t-28 -14t-33.5 -37t-33 -67zM555 555h387l-141 401q-27 75 -62 179q0 -1 -2.5 -11t-7 -26.5t-10 -37.5t-14 -49t-17.5 -55z" />
<glyph unicode="&#xc4;" horiz-adv-x="1552" d="M76 0l508 1450l346 8l545 -1458h-336l-117 324h-539l-106 -324h-301zM408 1767q0 66 39 107t108 41q68 0 104.5 -41t36.5 -107q0 -72 -40.5 -111.5t-106.5 -39.5q-65 0 -103 42.5t-38 108.5zM555 555h387l-141 401q-27 75 -62 179q0 -1 -2.5 -11t-7 -26.5t-10 -37.5 t-14 -49t-17.5 -55zM831 1767q0 66 39.5 107t108.5 41q68 0 104.5 -41t36.5 -107q0 -72 -40.5 -111.5t-106.5 -39.5q-65 0 -103.5 42.5t-38.5 108.5z" />
<glyph unicode="&#xc5;" horiz-adv-x="1552" d="M76 0l508 1450l346 8l545 -1458h-336l-117 324h-539l-106 -324h-301zM459 1751q0 121 89 194.5t222 73.5q135 0 216 -68.5t81 -187.5q0 -122 -88.5 -195t-222.5 -73q-135 0 -216 68.5t-81 187.5zM555 555h387l-141 401q-27 75 -62 179q0 -1 -2.5 -11t-7 -26.5t-10 -37.5 t-14 -49t-17.5 -55zM653 1761q0 -60 30 -94.5t83 -34.5q47 0 76.5 32.5t29.5 88.5q0 60 -29 94.5t-81 34.5q-48 0 -78.5 -32.5t-30.5 -88.5z" />
<glyph unicode="&#xc6;" horiz-adv-x="2017" d="M14 0l824 1454h970v-250h-520v-348h488v-244h-488v-360h576l-19 -252h-860v324h-461l-176 -324h-334zM645 555h340v649q-30 -74 -90 -186z" />
<glyph unicode="&#xc7;" horiz-adv-x="1523" d="M102 723q0 207 76.5 358t204.5 244q209 150 530 150q214 0 416 -70l-24 -250q-221 66 -396 66q-219 0 -344 -105q-72 -60 -111.5 -156t-39.5 -215q0 -224 136.5 -366.5t375.5 -142.5q184 0 440 90l-14 -256q-226 -90 -445 -90q-291 0 -475 114q-155 91 -242.5 257 t-87.5 372zM625 -213l39 137q103 -1 179.5 -24.5t115.5 -61t57 -76t18 -77.5q0 -99 -70.5 -166.5t-189.5 -67.5q-30 0 -73.5 8t-69.5 21l-4 168q71 -25 125 -25q40 0 61 17.5t21 44.5q0 34 -49 64t-160 38z" />
<glyph unicode="&#xc8;" horiz-adv-x="1212" d="M180 0v1454h824v-250h-521v-348h488v-244h-488v-360h576l-19 -252h-860zM248 1753l37 221l530 -211l-43 -190z" />
<glyph unicode="&#xc9;" horiz-adv-x="1212" d="M180 0v1454h824v-250h-521v-348h488v-244h-488v-360h576l-19 -252h-860zM373 1763l532 211l35 -221l-524 -180z" />
<glyph unicode="&#xca;" horiz-adv-x="1212" d="M180 0v1454h824v-250h-521v-348h488v-244h-488v-360h576l-19 -252h-860zM221 1704l389 303l389 -287l-143 -157l-258 196l-248 -196z" />
<glyph unicode="&#xcb;" horiz-adv-x="1212" d="M180 0v1454h824v-250h-521v-348h488v-244h-488v-360h576l-19 -252h-860zM250 1767q0 66 39 107t108 41q68 0 105 -41t37 -107q0 -72 -41 -111.5t-107 -39.5q-65 0 -103 42.5t-38 108.5zM674 1767q0 66 39 107t108 41q68 0 105 -41t37 -107q0 -72 -41 -111.5t-107 -39.5 q-65 0 -103 42.5t-38 108.5z" />
<glyph unicode="&#xcc;" horiz-adv-x="663" d="M33 1753l37 221l530 -211l-43 -190zM180 0v1454h303v-1454h-303z" />
<glyph unicode="&#xcd;" horiz-adv-x="663" d="M78 1763l532 211l35 -221l-524 -180zM180 0v1454h303v-1454h-303z" />
<glyph unicode="&#xce;" horiz-adv-x="663" d="M-53 1704l389 303l389 -287l-143 -157l-258 196l-248 -196zM180 0v1454h303v-1454h-303z" />
<glyph unicode="&#xcf;" horiz-adv-x="663" d="M-25 1767q0 66 39.5 107t108.5 41q68 0 104.5 -41t36.5 -107q0 -72 -40.5 -111.5t-106.5 -39.5q-65 0 -103.5 42.5t-38.5 108.5zM180 0v1454h303v-1454h-303zM399 1767q0 66 39.5 107t108.5 41q68 0 104.5 -41t36.5 -107q0 -72 -40.5 -111.5t-106.5 -39.5 q-65 0 -103.5 42.5t-38.5 108.5z" />
<glyph unicode="&#xd0;" horiz-adv-x="1638" d="M6 633v190h180v631q152 2 416 2q460 0 698 -203q232 -193 232 -510q0 -166 -64.5 -308t-189.5 -247q-110 -93 -251.5 -141.5t-336.5 -48.5q-287 0 -504 2v633h-180zM489 250q92 -2 199 -2q265 0 402 137q131 131 131 336q0 211 -150 346q-85 74 -198.5 106.5t-270.5 32.5 q-70 0 -113 -2v-381h351v-190h-351v-383z" />
<glyph unicode="&#xd1;" horiz-adv-x="1693" d="M180 0v1454h334l717 -1012q-4 90 -4 174v838h286v-1454h-335l-715 1018q4 -45 4 -221v-797h-287zM442 1608q26 92 59.5 152.5t71.5 88t70 36.5t72 9q57 0 143 -32l23 -9q54 -20 86 -20q15 0 26.5 3t28 14t33 38t32.5 68l158 -43q-21 -74 -47.5 -128.5t-52.5 -84.5 t-58 -47t-57 -22t-57 -5q-55 0 -144 33l-20 8q-56 21 -88 21q-15 0 -26.5 -3t-28 -14t-33.5 -37t-33 -67z" />
<glyph unicode="&#xd2;" horiz-adv-x="1742" d="M102 743q0 207 91 364.5t247 250.5q189 117 441 117q182 0 330 -58t247 -170q182 -198 182 -491q0 -211 -89.5 -385.5t-247.5 -274.5q-181 -116 -447 -116q-281 0 -477 153q-132 103 -204.5 259.5t-72.5 350.5zM414 762q0 -128 42.5 -237.5t118.5 -182.5 q55 -50 131.5 -80.5t153.5 -30.5h10q168 0 277 80q87 66 134.5 177t47.5 245q0 99 -32.5 190.5t-92.5 157.5q-128 140 -346 140q-148 0 -258 -72q-88 -58 -137 -158t-49 -229zM559 1753l37 221l530 -211l-43 -190z" />
<glyph unicode="&#xd3;" horiz-adv-x="1742" d="M102 743q0 207 91 364.5t247 250.5q189 117 441 117q182 0 330 -58t247 -170q182 -198 182 -491q0 -211 -89.5 -385.5t-247.5 -274.5q-181 -116 -447 -116q-281 0 -477 153q-132 103 -204.5 259.5t-72.5 350.5zM414 762q0 -128 42.5 -237.5t118.5 -182.5 q55 -50 131.5 -80.5t153.5 -30.5h10q168 0 277 80q87 66 134.5 177t47.5 245q0 99 -32.5 190.5t-92.5 157.5q-128 140 -346 140q-148 0 -258 -72q-88 -58 -137 -158t-49 -229zM627 1763l532 211l35 -221l-524 -180z" />
<glyph unicode="&#xd4;" horiz-adv-x="1742" d="M102 743q0 207 91 364.5t247 250.5q189 117 441 117q182 0 330 -58t247 -170q182 -198 182 -491q0 -211 -89.5 -385.5t-247.5 -274.5q-181 -116 -447 -116q-281 0 -477 153q-132 103 -204.5 259.5t-72.5 350.5zM414 762q0 -128 42.5 -237.5t118.5 -182.5 q55 -50 131.5 -80.5t153.5 -30.5h10q168 0 277 80q87 66 134.5 177t47.5 245q0 99 -32.5 190.5t-92.5 157.5q-128 140 -346 140q-148 0 -258 -72q-88 -58 -137 -158t-49 -229zM485 1704l389 303l390 -287l-144 -157l-258 196l-248 -196z" />
<glyph unicode="&#xd5;" horiz-adv-x="1742" d="M102 743q0 207 91 364.5t247 250.5q189 117 441 117q182 0 330 -58t247 -170q182 -198 182 -491q0 -211 -89.5 -385.5t-247.5 -274.5q-181 -116 -447 -116q-281 0 -477 153q-132 103 -204.5 259.5t-72.5 350.5zM414 762q0 -128 42.5 -237.5t118.5 -182.5 q55 -50 131.5 -80.5t153.5 -30.5h10q168 0 277 80q87 66 134.5 177t47.5 245q0 99 -32.5 190.5t-92.5 157.5q-128 140 -346 140q-148 0 -258 -72q-88 -58 -137 -158t-49 -229zM463 1608q26 92 59 152.5t71.5 88t70 36.5t71.5 9q58 0 144 -32l22 -9q54 -20 86 -20 q15 0 26.5 3t28 14t33.5 38t33 68l158 -43q-21 -74 -47.5 -128.5t-52.5 -84.5t-58 -47t-57.5 -22t-57.5 -5q-54 0 -143 33l-21 8q-56 21 -88 21q-20 0 -35.5 -5t-39.5 -34t-45 -82z" />
<glyph unicode="&#xd6;" horiz-adv-x="1742" d="M102 743q0 207 91 364.5t247 250.5q189 117 441 117q182 0 330 -58t247 -170q182 -198 182 -491q0 -211 -89.5 -385.5t-247.5 -274.5q-181 -116 -447 -116q-281 0 -477 153q-132 103 -204.5 259.5t-72.5 350.5zM414 762q0 -128 42.5 -237.5t118.5 -182.5 q55 -50 131.5 -80.5t153.5 -30.5h10q168 0 277 80q87 66 134.5 177t47.5 245q0 99 -32.5 190.5t-92.5 157.5q-128 140 -346 140q-148 0 -258 -72q-88 -58 -137 -158t-49 -229zM514 1767q0 66 39.5 107t108.5 41q68 0 104.5 -41t36.5 -107q0 -72 -41 -111.5t-107 -39.5 q-65 0 -103 42.5t-38 108.5zM938 1767q0 66 39 107t108 41q68 0 105 -41t37 -107q0 -72 -41 -111.5t-107 -39.5q-65 0 -103 42.5t-38 108.5z" />
<glyph unicode="&#xd7;" horiz-adv-x="1161" d="M102 250l336 334l-336 336l144 145l336 -338l336 338l143 -145l-338 -336l338 -334l-143 -144l-336 334l-336 -334z" />
<glyph unicode="&#xd8;" horiz-adv-x="1742" d="M102 743q0 207 91 364.5t247 250.5q189 117 441 117q178 0 309 -54l145 234l174 -107l-139 -219q264 -197 270 -573q1 -210 -89 -384.5t-248 -275.5q-181 -116 -447 -116q-167 0 -309 57l-137 -219l-177 104l138 215q-131 104 -200 260t-69 346zM414 762q0 -104 31 -202 t90 -167l509 797q-77 35 -186 35q-149 0 -258 -76q-88 -56 -137 -156.5t-49 -230.5zM690 264q78 -37 170 -37h10q166 0 277 82q87 64 134.5 176.5t47.5 247.5q0 97 -30.5 188t-90.5 156z" />
<glyph unicode="&#xd9;" horiz-adv-x="1617" d="M176 705v749h301v-764q0 -126 16.5 -206.5t65.5 -139.5q86 -106 272 -106q150 0 230 86q52 55 72 135.5t20 208.5v786h289v-741q0 -207 -37 -339t-131 -227q-79 -78 -199.5 -124t-271.5 -46q-161 0 -295 50.5t-217 158.5q-66 86 -90.5 207.5t-24.5 311.5zM510 1753 l37 221l530 -211l-43 -190z" />
<glyph unicode="&#xda;" horiz-adv-x="1617" d="M176 705v749h301v-764q0 -126 16.5 -206.5t65.5 -139.5q86 -106 272 -106q150 0 230 86q52 55 72 135.5t20 208.5v786h289v-741q0 -207 -37 -339t-131 -227q-79 -78 -199.5 -124t-271.5 -46q-161 0 -295 50.5t-217 158.5q-66 86 -90.5 207.5t-24.5 311.5zM555 1763 l532 211l35 -221l-524 -180z" />
<glyph unicode="&#xdb;" horiz-adv-x="1617" d="M176 705v749h301v-764q0 -126 16.5 -206.5t65.5 -139.5q86 -106 272 -106q150 0 230 86q52 55 72 135.5t20 208.5v786h289v-741q0 -207 -37 -339t-131 -227q-79 -78 -199.5 -124t-271.5 -46q-161 0 -295 50.5t-217 158.5q-66 86 -90.5 207.5t-24.5 311.5zM426 1704 l389 303l389 -287l-143 -157l-258 196l-248 -196z" />
<glyph unicode="&#xdc;" horiz-adv-x="1617" d="M176 705v749h301v-764q0 -126 16.5 -206.5t65.5 -139.5q86 -106 272 -106q150 0 230 86q52 55 72 135.5t20 208.5v786h289v-741q0 -207 -37 -339t-131 -227q-79 -78 -199.5 -124t-271.5 -46q-161 0 -295 50.5t-217 158.5q-66 86 -90.5 207.5t-24.5 311.5zM455 1767 q0 66 39 107t108 41q68 0 104.5 -41t36.5 -107q0 -72 -40.5 -111.5t-106.5 -39.5q-65 0 -103 42.5t-38 108.5zM879 1767q0 66 39 107t108 41q68 0 104.5 -41t36.5 -107q0 -72 -40.5 -111.5t-106.5 -39.5q-65 0 -103 42.5t-38 108.5z" />
<glyph unicode="&#xdd;" horiz-adv-x="1462" d="M27 1454h354l367 -590l366 590h322l-559 -862v-592h-304v590zM485 1763l533 211l35 -221l-525 -180z" />
<glyph unicode="&#xde;" horiz-adv-x="1300" d="M180 0v1454h303v-213h49q165 0 281.5 -28t208.5 -101q178 -139 178 -371q0 -148 -73.5 -268.5t-206.5 -177.5q-133 -59 -316 -43v235q110 -3 172 31q54 29 84.5 82t30.5 117q0 128 -90 198q-87 70 -269 70h-49v-985h-303z" />
<glyph unicode="&#xdf;" horiz-adv-x="1499" d="M23 797v198l163 19v8q0 157 31 254q103 332 559 332q239 0 370.5 -100.5t131.5 -243.5q0 -81 -30 -147.5t-73 -110t-85.5 -81t-72.5 -77t-30 -80.5q0 -83 123 -131l49 -21q242 -98 242 -297q0 -58 -24 -114.5t-73 -107.5t-135.5 -82t-199.5 -31q-64 0 -150 15t-153 44 l-4 215q158 -59 288 -59q80 0 119 28.5t39 71.5q0 32 -27.5 59.5t-105.5 57.5l-49 20q-224 92 -224 281q0 68 30 126.5t72 101t84.5 83t72.5 90t30 103.5q0 68 -60 119t-179 51q-122 0 -189 -58.5t-82 -152.5q-10 -41 -10 -146v-1034h-285v797h-163z" />
<glyph unicode="&#xe0;" horiz-adv-x="1122" d="M74 266q0 53 15 99.5t56 94t105 81.5t171 56t245 24v18q0 79 -17 117q-36 82 -164 82q-155 0 -325 -78l-21 198q75 46 182 72.5t199 26.5q142 0 227 -36.5t136 -111.5q35 -53 47 -123t12 -174v-293v-7q0 -25 0.5 -36.5t3 -31t7.5 -28.5t15.5 -21.5t25.5 -18t38 -10 t53 -4.5l-10 -168q-80 -14 -151 -14q-36 0 -65 4.5t-60 16t-55.5 36t-41.5 61.5q-132 -121 -313 -121q-139 0 -227 77.5t-88 211.5zM160 1419l65 215l502 -288l-68 -181zM330 295q0 -49 38 -81t111 -32q95 0 187 64v194q-79 2 -140 -5.5t-97 -21.5t-59 -34.5t-31.5 -40.5 t-8.5 -43z" />
<glyph unicode="&#xe1;" horiz-adv-x="1122" d="M74 266q0 53 15 99.5t56 94t105 81.5t171 56t245 24v18q0 79 -17 117q-36 82 -164 82q-155 0 -325 -78l-21 198q75 46 182 72.5t199 26.5q142 0 227 -36.5t136 -111.5q35 -53 47 -123t12 -174v-293v-7q0 -25 0.5 -36.5t3 -31t7.5 -28.5t15.5 -21.5t25.5 -18t38 -10 t53 -4.5l-10 -168q-80 -14 -151 -14q-36 0 -65 4.5t-60 16t-55.5 36t-41.5 61.5q-132 -121 -313 -121q-139 0 -227 77.5t-88 211.5zM287 1346l501 288l66 -215l-500 -254zM330 295q0 -49 38 -81t111 -32q95 0 187 64v194q-79 2 -140 -5.5t-97 -21.5t-59 -34.5t-31.5 -40.5 t-8.5 -43z" />
<glyph unicode="&#xe2;" horiz-adv-x="1122" d="M74 266q0 53 15 99.5t56 94t105 81.5t171 56t245 24v18q0 79 -17 117q-36 82 -164 82q-155 0 -325 -78l-21 198q75 46 182 72.5t199 26.5q142 0 227 -36.5t136 -111.5q35 -53 47 -123t12 -174v-293v-7q0 -25 0.5 -36.5t3 -31t7.5 -28.5t15.5 -21.5t25.5 -18t38 -10 t53 -4.5l-10 -168q-80 -14 -151 -14q-36 0 -65 4.5t-60 16t-55.5 36t-41.5 61.5q-132 -121 -313 -121q-139 0 -227 77.5t-88 211.5zM141 1309l383 331l367 -323l-158 -143l-231 206l-230 -204zM330 295q0 -49 38 -81t111 -32q95 0 187 64v194q-79 2 -140 -5.5t-97 -21.5 t-59 -34.5t-31.5 -40.5t-8.5 -43z" />
<glyph unicode="&#xe3;" horiz-adv-x="1122" d="M74 266q0 53 15 99.5t56 94t105 81.5t171 56t245 24v18q0 79 -17 117q-36 82 -164 82q-155 0 -325 -78l-21 198q75 46 182 72.5t199 26.5q142 0 227 -36.5t136 -111.5q35 -53 47 -123t12 -174v-293v-7q0 -25 0.5 -36.5t3 -31t7.5 -28.5t15.5 -21.5t25.5 -18t38 -10 t53 -4.5l-10 -168q-80 -14 -151 -14q-36 0 -65 4.5t-60 16t-55.5 36t-41.5 61.5q-132 -121 -313 -121q-139 0 -227 77.5t-88 211.5zM100 1245q21 75 48 129.5t53 84.5t58 47.5t57.5 22.5t56.5 5q54 0 143 -33l23 -8q54 -20 86 -20q15 0 26 3t28 13.5t33.5 37.5t32.5 68 l158 -43q-26 -92 -59 -152.5t-71 -88t-69.5 -36.5t-72.5 -9q-58 0 -144 32l-20 9q-54 20 -88 20q-15 0 -26.5 -3t-28 -14t-33.5 -38t-33 -68zM330 295q0 -49 38 -81t111 -32q95 0 187 64v194q-79 2 -140 -5.5t-97 -21.5t-59 -34.5t-31.5 -40.5t-8.5 -43z" />
<glyph unicode="&#xe4;" horiz-adv-x="1122" d="M74 266q0 53 15 99.5t56 94t105 81.5t171 56t245 24v18q0 79 -17 117q-36 82 -164 82q-155 0 -325 -78l-21 198q75 46 182 72.5t199 26.5q142 0 227 -36.5t136 -111.5q35 -53 47 -123t12 -174v-293v-7q0 -25 0.5 -36.5t3 -31t7.5 -28.5t15.5 -21.5t25.5 -18t38 -10 t53 -4.5l-10 -168q-80 -14 -151 -14q-36 0 -65 4.5t-60 16t-55.5 36t-41.5 61.5q-132 -121 -313 -121q-139 0 -227 77.5t-88 211.5zM154 1397q0 67 39 107t108 40q68 0 104.5 -40t36.5 -107q0 -72 -40.5 -112t-106.5 -40q-65 0 -103 43t-38 109zM330 295q0 -49 38 -81 t111 -32q95 0 187 64v194q-79 2 -140 -5.5t-97 -21.5t-59 -34.5t-31.5 -40.5t-8.5 -43zM573 1397q0 67 38.5 107t107.5 40q68 0 104.5 -40t36.5 -107q0 -72 -40 -112t-107 -40q-63 0 -101.5 43t-38.5 109z" />
<glyph unicode="&#xe5;" horiz-adv-x="1122" d="M74 266q0 53 15 99.5t56 94t105 81.5t171 56t245 24v18q0 79 -17 117q-36 82 -164 82q-155 0 -325 -78l-21 198q75 46 182 72.5t199 26.5q142 0 227 -36.5t136 -111.5q35 -53 47 -123t12 -174v-293v-7q0 -25 0.5 -36.5t3 -31t7.5 -28.5t15.5 -21.5t25.5 -18t38 -10 t53 -4.5l-10 -168q-80 -14 -151 -14q-36 0 -65 4.5t-60 16t-55.5 36t-41.5 61.5q-132 -121 -313 -121q-139 0 -227 77.5t-88 211.5zM207 1409q0 122 87.5 200.5t219.5 78.5q133 0 213 -73.5t80 -193.5q0 -123 -87 -201.5t-218 -78.5q-135 0 -215 73t-80 195zM330 295 q0 -49 38 -81t111 -32q95 0 187 64v194q-79 2 -140 -5.5t-97 -21.5t-59 -34.5t-31.5 -40.5t-8.5 -43zM399 1419q0 -70 31 -105.5t80 -35.5q43 0 73.5 34t30.5 99q0 69 -30 104t-80 35q-43 0 -74 -33.5t-31 -97.5z" />
<glyph unicode="&#xe6;" horiz-adv-x="1703" d="M74 266q0 53 15 99.5t56 94t105 81.5t171 56t245 24v18q0 79 -17 117q-36 82 -164 82q-155 0 -325 -78l-21 198q75 46 182 72.5t199 26.5q125 0 202 -28t122 -93q123 123 330 123q108 0 193 -40t138 -115.5t72.5 -185t-2.5 -247.5h-633q4 -131 90.5 -200.5t239.5 -69.5 q149 0 321 59l-8 -207q-165 -73 -354 -73q-291 0 -430 153q-190 -156 -408 -156q-143 0 -231 77.5t-88 211.5zM330 295q0 -49 38.5 -81t112.5 -32q122 0 224 99q-30 73 -39 159q-79 2 -140 -5.5t-97 -21.5t-59 -34.5t-31.5 -40.5t-8.5 -43zM944 645l373 4q4 100 -44 156.5 t-134 56.5q-80 0 -136 -55t-59 -162z" />
<glyph unicode="&#xe7;" horiz-adv-x="1005" d="M90 510q0 116 29.5 210.5t79 156.5t117 104t141 60t153.5 18q164 0 271 -47l-23 -226q-121 39 -213 39q-53 0 -97 -13.5t-82 -44.5t-59.5 -88.5t-21.5 -137.5q0 -90 23 -155.5t63.5 -101t86.5 -51.5t99 -16q109 0 242 55l-4 -229q-129 -63 -293 -63q-105 0 -196.5 33 t-162.5 97t-112 167t-41 233zM385 -356q80 -25 133 -25q43 0 65.5 19t22.5 49q0 92 -200 106l30 125q83 -1 148 -17t105.5 -40t67 -56.5t36.5 -63.5t10 -63q0 -87 -69.5 -150t-182.5 -63q-100 0 -166 35v144z" />
<glyph unicode="&#xe8;" horiz-adv-x="1130" d="M88 526q0 238 140 385.5t372 147.5q108 0 193 -40t138 -115.5t72.5 -185t-2.5 -247.5h-632q4 -131 90 -200.5t239 -69.5q148 0 322 59l-8 -207q-165 -73 -355 -73q-120 -1 -216.5 27t-161.5 77t-108.5 118.5t-63 150t-19.5 173.5zM246 1419l65 215l502 -288l-68 -181z M371 645l372 4q4 100 -44.5 156.5t-135.5 56.5q-79 0 -134 -55t-58 -162z" />
<glyph unicode="&#xe9;" horiz-adv-x="1130" d="M88 526q0 238 140 385.5t372 147.5q108 0 193 -40t138 -115.5t72.5 -185t-2.5 -247.5h-632q4 -131 90 -200.5t239 -69.5q148 0 322 59l-8 -207q-165 -73 -355 -73q-120 -1 -216.5 27t-161.5 77t-108.5 118.5t-63 150t-19.5 173.5zM342 1346l502 288l65 -215l-499 -254z M371 645l372 4q4 100 -44.5 156.5t-135.5 56.5q-79 0 -134 -55t-58 -162z" />
<glyph unicode="&#xea;" horiz-adv-x="1130" d="M88 526q0 238 140 385.5t372 147.5q108 0 193 -40t138 -115.5t72.5 -185t-2.5 -247.5h-632q4 -131 90 -200.5t239 -69.5q148 0 322 59l-8 -207q-165 -73 -355 -73q-120 -1 -216.5 27t-161.5 77t-108.5 118.5t-63 150t-19.5 173.5zM211 1309l383 331l367 -323l-158 -143 l-232 206l-229 -204zM371 645l372 4q4 100 -44.5 156.5t-135.5 56.5q-79 0 -134 -55t-58 -162z" />
<glyph unicode="&#xeb;" horiz-adv-x="1130" d="M88 526q0 238 140 385.5t372 147.5q108 0 193 -40t138 -115.5t72.5 -185t-2.5 -247.5h-632q4 -131 90 -200.5t239 -69.5q148 0 322 59l-8 -207q-165 -73 -355 -73q-120 -1 -216.5 27t-161.5 77t-108.5 118.5t-63 150t-19.5 173.5zM223 1397q0 67 39 107t109 40 q68 0 104.5 -40t36.5 -107q0 -72 -40.5 -112t-106.5 -40q-65 0 -103.5 43t-38.5 109zM371 645l372 4q4 100 -44.5 156.5t-135.5 56.5q-79 0 -134 -55t-58 -162zM643 1397q0 67 38 107t107 40t105.5 -40t36.5 -107q0 -72 -40.5 -112t-107.5 -40q-63 0 -101 43t-38 109z" />
<glyph unicode="&#xec;" horiz-adv-x="550" d="M-4 1479l108 196l431 -389l-103 -160zM133 0v999l285 27v-1026h-285z" />
<glyph unicode="&#xed;" horiz-adv-x="550" d="M18 1286l431 389l110 -196l-438 -353zM133 0v999l285 27v-1026h-285z" />
<glyph unicode="&#xee;" horiz-adv-x="550" d="M-90 1309l383 331l366 -323l-157 -143l-232 206l-229 -204zM133 0v999l285 27v-1026h-285z" />
<glyph unicode="&#xef;" horiz-adv-x="550" d="M-78 1397q0 67 39 107t109 40q68 0 104.5 -40t36.5 -107q0 -72 -41 -112t-107 -40q-65 0 -103 43t-38 109zM133 0v999l285 27v-1026h-285zM342 1397q0 67 38 107t107 40t105.5 -40t36.5 -107q0 -72 -40.5 -112t-107.5 -40q-63 0 -101 43t-38 109z" />
<glyph unicode="&#xf0;" horiz-adv-x="1222" d="M84 442q0 148 62 265t171 184q63 40 148 61t166 21q69 0 164 -21q-42 186 -158 293l-227 -158l-109 132l176 120q-130 60 -299 66l33 203q281 3 487 -113l174 121l109 -131l-135 -92q132 -118 205 -290t73 -382q0 -188 -43 -332.5t-121 -234.5t-181.5 -135.5 t-229.5 -45.5q-217 0 -341 131.5t-124 337.5zM369 471q0 -140 64.5 -211.5t148.5 -71.5q92 0 149 66q46 53 71 148t25 268q0 61 -2 92q-83 22 -155 22q-119 0 -193 -57q-108 -84 -108 -256z" />
<glyph unicode="&#xf1;" horiz-adv-x="1210" d="M133 0v1026l256 23l8 -142q124 152 328 152q118 0 200.5 -54.5t121.5 -154.5q15 -39 23 -93t9.5 -96t1.5 -116v-545h-284v530q0 76 -9 132q-6 71 -46.5 113t-116.5 42q-106 0 -207 -86v-731h-285zM201 1245q21 75 48 129.5t52.5 84.5t58 47.5t57.5 22.5t56 5 q54 0 143 -33l23 -8q54 -20 86 -20q15 0 26.5 3t28 13.5t33.5 37.5t33 68l158 -43q-26 -92 -59 -152.5t-71 -88t-70 -36.5t-73 -9q-57 0 -143 32l-21 9q-54 20 -88 20q-15 0 -26.5 -3t-28 -14t-33.5 -38t-33 -68z" />
<glyph unicode="&#xf2;" horiz-adv-x="1241" d="M90 514q0 134 44 240t120.5 171.5t174 99.5t208.5 34q229 0 371.5 -133.5t142.5 -382.5q0 -114 -30 -208.5t-81 -159t-120 -109.5t-146.5 -65.5t-161.5 -20.5q-74 0 -146 18.5t-140.5 60.5t-120.5 102.5t-83.5 151.5t-31.5 201zM289 1419l65 215l502 -288l-68 -181z M381 530q0 -155 69 -242t171 -87h10q99 0 164 80t65 231q0 155 -67.5 240.5t-178.5 85.5q-43 0 -81.5 -15t-74 -47.5t-56.5 -96t-21 -149.5z" />
<glyph unicode="&#xf3;" horiz-adv-x="1241" d="M90 514q0 134 44 240t120.5 171.5t174 99.5t208.5 34q229 0 371.5 -133.5t142.5 -382.5q0 -114 -30 -208.5t-81 -159t-120 -109.5t-146.5 -65.5t-161.5 -20.5q-74 0 -146 18.5t-140.5 60.5t-120.5 102.5t-83.5 151.5t-31.5 201zM381 530q0 -155 69 -242t171 -87h10 q99 0 164 80t65 231q0 155 -67.5 240.5t-178.5 85.5q-43 0 -81.5 -15t-74 -47.5t-56.5 -96t-21 -149.5zM387 1346l502 288l65 -215l-499 -254z" />
<glyph unicode="&#xf4;" horiz-adv-x="1241" d="M90 514q0 134 44 240t120.5 171.5t174 99.5t208.5 34q229 0 371.5 -133.5t142.5 -382.5q0 -114 -30 -208.5t-81 -159t-120 -109.5t-146.5 -65.5t-161.5 -20.5q-74 0 -146 18.5t-140.5 60.5t-120.5 102.5t-83.5 151.5t-31.5 201zM254 1309l383 331l367 -323l-158 -143 l-232 206l-229 -204zM381 530q0 -155 69 -242t171 -87h10q99 0 164 80t65 231q0 155 -67.5 240.5t-178.5 85.5q-43 0 -81.5 -15t-74 -47.5t-56.5 -96t-21 -149.5z" />
<glyph unicode="&#xf5;" horiz-adv-x="1241" d="M90 514q0 134 44 240t120.5 171.5t174 99.5t208.5 34q229 0 371.5 -133.5t142.5 -382.5q0 -114 -30 -208.5t-81 -159t-120 -109.5t-146.5 -65.5t-161.5 -20.5q-74 0 -146 18.5t-140.5 60.5t-120.5 102.5t-83.5 151.5t-31.5 201zM215 1245q21 75 48 129.5t52.5 84.5 t58 47.5t57.5 22.5t56 5q55 0 144 -33l22 -8q54 -20 86 -20q15 0 26.5 3t28 13.5t33.5 37.5t33 68l158 -43q-26 -92 -59 -152.5t-71 -88t-70 -36.5t-73 -9q-57 0 -143 32l-20 9q-54 20 -88 20q-15 0 -26.5 -3t-28 -14t-33.5 -38t-33 -68zM381 530q0 -155 69 -242t171 -87h10 q99 0 164 80t65 231q0 155 -67.5 240.5t-178.5 85.5q-43 0 -81.5 -15t-74 -47.5t-56.5 -96t-21 -149.5z" />
<glyph unicode="&#xf6;" horiz-adv-x="1241" d="M90 514q0 134 44 240t120.5 171.5t174 99.5t208.5 34q229 0 371.5 -133.5t142.5 -382.5q0 -114 -30 -208.5t-81 -159t-120 -109.5t-146.5 -65.5t-161.5 -20.5q-74 0 -146 18.5t-140.5 60.5t-120.5 102.5t-83.5 151.5t-31.5 201zM266 1397q0 67 39 107t109 40 q68 0 104.5 -40t36.5 -107q0 -72 -40.5 -112t-106.5 -40q-65 0 -103.5 43t-38.5 109zM381 530q0 -155 69 -242t171 -87h10q99 0 164 80t65 231q0 155 -67.5 240.5t-178.5 85.5q-43 0 -81.5 -15t-74 -47.5t-56.5 -96t-21 -149.5zM686 1397q0 67 38 107t107 40t105.5 -40 t36.5 -107q0 -72 -40.5 -112t-107.5 -40q-63 0 -101 43t-38 109z" />
<glyph unicode="&#xf7;" horiz-adv-x="1173" d="M90 498v202h979v-202h-979zM451 209q0 57 37.5 95t97.5 38q56 0 92.5 -40t36.5 -99q0 -56 -37 -93.5t-96 -37.5q-58 0 -94.5 39t-36.5 98zM451 991q0 57 37.5 95t97.5 38q57 0 93 -39t36 -98q0 -57 -37 -95t-96 -38q-58 0 -94.5 39t-36.5 98z" />
<glyph unicode="&#xf8;" horiz-adv-x="1241" d="M90 514q0 134 44 240t120.5 171.5t174 99.5t208.5 34q135 0 229 -43l156 223l133 -90l-151 -217q147 -144 147 -389q0 -114 -30 -208.5t-81 -159t-120 -109.5t-146.5 -65.5t-161.5 -20.5q-120 0 -241 53l-135 -197l-136 90l138 197q-148 141 -148 391zM377 530 q0 -96 37 -168l309 455q-45 23 -109 23q-43 0 -82 -15t-75.5 -48.5t-58 -97t-21.5 -149.5zM510 229q50 -30 111 -30h10q100 0 165.5 81t65.5 232q0 106 -39 176z" />
<glyph unicode="&#xf9;" horiz-adv-x="1210" d="M129 494v530l285 25v-539q0 -78 6 -131q17 -156 166 -156q105 0 207 84v717l284 25v-1037l-256 -22l-8 143q-123 -151 -328 -151q-119 0 -201.5 54t-119.5 154q-22 54 -28.5 125t-6.5 179zM244 1419l65 215l502 -288l-68 -181z" />
<glyph unicode="&#xfa;" horiz-adv-x="1210" d="M129 494v530l285 25v-539q0 -78 6 -131q17 -156 166 -156q105 0 207 84v717l284 25v-1037l-256 -22l-8 143q-123 -151 -328 -151q-119 0 -201.5 54t-119.5 154q-22 54 -28.5 125t-6.5 179zM401 1346l502 288l66 -215l-500 -254z" />
<glyph unicode="&#xfb;" horiz-adv-x="1210" d="M129 494v530l285 25v-539q0 -78 6 -131q17 -156 166 -156q105 0 207 84v717l284 25v-1037l-256 -22l-8 143q-123 -151 -328 -151q-119 0 -201.5 54t-119.5 154q-22 54 -28.5 125t-6.5 179zM240 1309l383 331l366 -323l-158 -143l-231 206l-229 -204z" />
<glyph unicode="&#xfc;" horiz-adv-x="1210" d="M129 494v530l285 25v-539q0 -78 6 -131q17 -156 166 -156q105 0 207 84v717l284 25v-1037l-256 -22l-8 143q-123 -151 -328 -151q-119 0 -201.5 54t-119.5 154q-22 54 -28.5 125t-6.5 179zM252 1397q0 67 39 107t108 40t105.5 -40t36.5 -107q0 -72 -41 -112t-107 -40 q-65 0 -103 43t-38 109zM672 1397q0 67 38 107t107 40q68 0 104.5 -40t36.5 -107q0 -72 -40 -112t-107 -40q-63 0 -101 43t-38 109z" />
<glyph unicode="&#xfd;" horiz-adv-x="1179" d="M16 1038h320q149 -521 280 -864q62 127 111 295q69 243 100 569h281q-35 -341 -141 -678q-131 -403 -346 -612q-183 -181 -486 -280l-102 229q271 96 395 233q-98 223 -201 500t-157 442zM354 1346l502 288l66 -215l-500 -254z" />
<glyph unicode="&#xfe;" horiz-adv-x="1232" d="M133 -512v2083l285 24v-501q0 -49 -5 -96.5t-11 -69.5l-5 -23q120 154 318 154q186 0 307 -135.5t121 -374.5q0 -128 -38 -233t-112 -180.5t-188.5 -117t-261.5 -41.5q-62 0 -125 13v-502h-285zM418 223q79 -26 166 -26q124 0 196 82t72 231q0 153 -64.5 235t-160.5 82 q-111 0 -209 -88v-516z" />
<glyph unicode="&#xff;" horiz-adv-x="1179" d="M16 1038h320q149 -521 280 -864q62 127 111 295q69 243 100 569h281q-35 -341 -141 -678q-131 -403 -346 -612q-183 -181 -486 -280l-102 229q271 96 395 233q-98 223 -201 500t-157 442zM221 1397q0 67 39 107t109 40q68 0 104.5 -40t36.5 -107q0 -72 -41 -112t-107 -40 q-65 0 -103 43t-38 109zM641 1397q0 67 38 107t107 40t105.5 -40t36.5 -107q0 -72 -40.5 -112t-107.5 -40q-63 0 -101 43t-38 109z" />
<glyph unicode="&#x152;" horiz-adv-x="2134" d="M102 743q0 212 84 370t238 249q182 113 420 113q148 0 260 -21h821v-250h-520v-348h489v-244h-489v-360h575l-18 -252h-858q-152 -20 -248 -20q-290 0 -487 151q-130 99 -198.5 257t-68.5 355zM414 762q0 -280 151 -422q54 -51 133 -80t166 -29h10q120 0 230 33v932 q-117 27 -254 27q-158 0 -262 -70q-86 -56 -130 -158.5t-44 -232.5z" />
<glyph unicode="&#x153;" horiz-adv-x="1894" d="M78 514q0 134 44.5 240t121 171.5t173.5 99.5t208 34q235 0 376 -150q134 150 363 150q220 0 331.5 -158t67.5 -430h-633q4 -131 91 -200.5t239 -69.5q150 0 322 59l-8 -207q-165 -73 -355 -73q-291 0 -430 161q-72 -80 -173 -120.5t-216 -40.5q-74 0 -146 18.5 t-140.5 60.5t-120.5 102.5t-83.5 151.5t-31.5 201zM369 530q0 -154 69 -241.5t170 -87.5h13q99 0 163 80t64 231q0 155 -67 240.5t-177 85.5q-35 0 -66.5 -8.5t-63 -30.5t-54.5 -56t-37 -88.5t-14 -124.5zM1133 645l372 4q4 100 -43.5 156.5t-134.5 56.5q-79 0 -135 -55 t-59 -162z" />
<glyph unicode="&#x178;" horiz-adv-x="1462" d="M27 1454h354l367 -590l366 590h322l-559 -862v-592h-304v590zM360 1767q0 66 39.5 107t108.5 41q68 0 104.5 -41t36.5 -107q0 -72 -40.5 -111.5t-106.5 -39.5q-65 0 -103.5 42.5t-38.5 108.5zM784 1767q0 66 39.5 107t108.5 41q68 0 104.5 -41t36.5 -107 q0 -72 -40.5 -111.5t-106.5 -39.5q-65 0 -103.5 42.5t-38.5 108.5z" />
<glyph unicode="&#x2c6;" horiz-adv-x="954" d="M102 1309l383 331l367 -323l-158 -143l-231 206l-230 -204z" />
<glyph unicode="&#x2dc;" horiz-adv-x="1007" d="M102 1245q21 75 48 129.5t53 84.5t58 47.5t57.5 22.5t56.5 5q54 0 143 -33l23 -8q54 -20 86 -20q15 0 26.5 3t28 13.5t33.5 37.5t33 68l157 -43q-26 -92 -59 -152.5t-71 -88t-69.5 -36.5t-72.5 -9q-58 0 -144 32l-20 9q-54 20 -88 20q-15 0 -26.5 -3t-28 -14t-33.5 -38 t-33 -68z" />
<glyph unicode="&#x2000;" horiz-adv-x="1009" />
<glyph unicode="&#x2001;" horiz-adv-x="2019" />
<glyph unicode="&#x2002;" horiz-adv-x="1009" />
<glyph unicode="&#x2003;" horiz-adv-x="2019" />
<glyph unicode="&#x2004;" horiz-adv-x="673" />
<glyph unicode="&#x2005;" horiz-adv-x="504" />
<glyph unicode="&#x2006;" horiz-adv-x="336" />
<glyph unicode="&#x2007;" horiz-adv-x="336" />
<glyph unicode="&#x2008;" horiz-adv-x="252" />
<glyph unicode="&#x2009;" horiz-adv-x="403" />
<glyph unicode="&#x200a;" horiz-adv-x="112" />
<glyph unicode="&#x2010;" horiz-adv-x="686" d="M55 451v225h576v-225h-576z" />
<glyph unicode="&#x2011;" horiz-adv-x="686" d="M55 451v225h576v-225h-576z" />
<glyph unicode="&#x2012;" horiz-adv-x="686" d="M55 451v225h576v-225h-576z" />
<glyph unicode="&#x2013;" horiz-adv-x="1024" d="M41 436v236h942v-236h-942z" />
<glyph unicode="&#x2014;" horiz-adv-x="2048" d="M41 436v236h1966v-236h-1966z" />
<glyph unicode="&#x2018;" horiz-adv-x="548" d="M76 1186q0 214 297 477l147 -96q-250 -256 -143 -404q13 -18 29 -36t26 -27l10 -8q-28 -63 -76 -94t-104 -31q-71 0 -119 45q-67 60 -67 174z" />
<glyph unicode="&#x2019;" horiz-adv-x="548" d="M29 963q250 255 143 403q-13 18 -29.5 36t-26.5 27l-10 9q28 63 76.5 94t104.5 31q71 0 119 -45q67 -60 67 -175q0 -214 -297 -477z" />
<glyph unicode="&#x201a;" horiz-adv-x="548" d="M29 -250q250 256 143 404q-13 18 -29.5 36t-26.5 26l-10 9q28 63 76.5 94t104.5 31q71 0 119 -45q67 -60 67 -174q0 -214 -297 -477z" />
<glyph unicode="&#x201c;" horiz-adv-x="987" d="M76 1204q0 197 270 465l146 -94q-60 -68 -96.5 -129t-49 -101.5t-10.5 -79.5t9.5 -59t21.5 -43q12 -20 27 -40.5t24 -30.5l10 -11q-69 -96 -166 -96q-76 0 -125 49q-61 61 -61 170zM561 1202q0 41 9 81t33.5 95.5t79 124.5t136.5 146l139 -93q-57 -63 -91 -119.5t-45 -95 t-7.5 -76t12 -58t23.5 -44.5q11 -20 25.5 -40t22.5 -30l9 -10q-66 -98 -164 -98q-71 0 -118 47q-64 64 -64 170z" />
<glyph unicode="&#x201d;" horiz-adv-x="987" d="M29 993q57 63 91 119.5t45 95t7.5 76t-12 58t-23.5 44.5q-11 20 -25.5 40t-23.5 30l-8 10q66 99 164 99q71 0 118 -47q64 -64 64 -170q0 -41 -9 -81t-33.5 -95.5t-79 -124.5t-136.5 -146zM496 975q60 68 96.5 129t49 101.5t10.5 79t-9.5 58.5t-21.5 43q-12 20 -27.5 40.5 t-25.5 31.5l-9 10q70 97 166 97q76 0 125 -49q61 -61 61 -170q0 -197 -270 -465z" />
<glyph unicode="&#x201e;" horiz-adv-x="987" d="M29 -221q57 63 91 119.5t45 95t7.5 76t-12 58t-23.5 44.5q-11 20 -25.5 40t-23.5 30l-8 10q66 98 164 98q71 0 118 -47q64 -64 64 -170q0 -41 -9 -80.5t-33.5 -95.5t-79 -124.5t-136.5 -145.5zM496 -240q60 68 96.5 129t49 101.5t10.5 79.5t-9.5 59t-21.5 43 q-12 20 -27.5 40.5t-25.5 31.5l-9 10q69 96 166 96q76 0 125 -49q61 -61 61 -170q0 -197 -270 -465z" />
<glyph unicode="&#x2022;" horiz-adv-x="573" d="M68 735q0 91 61.5 155t157.5 64q97 0 158 -64t61 -161q0 -93 -64.5 -155t-160.5 -62q-92 0 -152.5 64.5t-60.5 158.5z" />
<glyph unicode="&#x2026;" horiz-adv-x="1425" d="M96 156q0 74 46 121t124 47q74 0 119 -49t45 -128q0 -73 -46 -120t-124 -47q-74 0 -119 49.5t-45 126.5zM547 156q0 74 45 121t123 47q76 0 121 -49t45 -128q0 -73 -46 -120t-124 -47q-74 0 -119 49.5t-45 126.5zM997 156q0 74 45 121t123 47q74 0 119 -49t45 -128 q0 -73 -45.5 -120t-122.5 -47q-74 0 -119 49.5t-45 126.5z" />
<glyph unicode="&#x202f;" horiz-adv-x="403" />
<glyph unicode="&#x2039;" horiz-adv-x="702" d="M35 535l416 503l182 -149l-291 -344l305 -379l-198 -150z" />
<glyph unicode="&#x203a;" horiz-adv-x="702" d="M55 889l199 149l414 -518l-416 -504l-182 150l290 344z" />
<glyph unicode="&#x205f;" horiz-adv-x="504" />
<glyph unicode="&#x20ac;" d="M39 514v123h137q-4 33 -4 92l4 94h-137v123h149q19 137 78 241.5t145 166t186.5 91.5t213.5 30q167 0 297 -50l-23 -229q-156 47 -266 47q-129 0 -220 -73.5t-110 -223.5h467v-123h-483q-2 -35 -2 -90l4 -96h481v-123h-464q22 -149 115 -225t222 -76q125 0 301 70 l-14 -232q-151 -71 -332 -71q-245 0 -407.5 137t-192.5 397h-145z" />
<glyph unicode="&#x2122;" horiz-adv-x="2164" d="M68 1260v194h735l-10 -194h-252v-707h-217v707h-256zM932 553l33 901h278l250 -631l268 631h264l31 -901h-207l-22 577l-248 -577h-197l-233 575l-19 -575h-198z" />
<glyph unicode="&#x25fc;" horiz-adv-x="1034" d="M0 0v1034h1034v-1034h-1034z" />
<glyph unicode="&#xfb01;" horiz-adv-x="1306" d="M27 797v198l161 19v41q0 251 93 372q67 91 175.5 136t274.5 45q162 0 297 -41l-24 -217q-136 30 -269 30q-148 0 -213 -77q-31 -38 -40 -93.5t-9 -148.5v-47h254l-10 -217h-244v-797h-285v797h-161zM889 0v999l285 27v-1026h-285z" />
<glyph unicode="&#xfb02;" horiz-adv-x="1306" d="M27 797v198l161 19v41q0 251 93 372q67 91 175.5 136t274.5 45q108 0 240 -29l203 16v-1595h-285v1366q-69 14 -154 14q-148 0 -213 -77q-31 -38 -40 -93.5t-9 -148.5v-47h254l-10 -217h-244v-797h-285v797h-161z" />
<glyph unicode="&#xfb03;" horiz-adv-x="2009" d="M27 797v198l161 19v51q0 170 31 260q42 141 157.5 212t291.5 71q76 0 147 -21l-20 -217q-61 10 -115 10q-177 0 -199 -153q-8 -55 -8 -150v-63h418v41q0 253 92 372q69 91 178 136t275 45q163 0 295 -41l-23 -217q-138 30 -268 30q-150 0 -215 -77q-31 -37 -39 -92 t-8 -150v-47h252l-11 -217h-241v-797h-287v797h-418v-797h-285v797h-161zM1591 0v999l287 27v-1026h-287z" />
<glyph unicode="&#xfb04;" horiz-adv-x="2015" d="M27 797v198l161 19v51q0 163 31 260q45 140 160 211.5t289 71.5q76 0 147 -21l-20 -217q-61 10 -115 10q-177 0 -199 -153q-8 -55 -8 -150v-63h418v41q0 253 92 372q69 91 178 136t275 45q105 0 237 -29l205 16v-1595h-287v1366q-69 14 -151 14q-150 0 -215 -77 q-31 -37 -39 -92t-8 -150v-47h252l-11 -217h-241v-797h-287v797h-418v-797h-285v797h-161z" />
</font>
</defs>
</svg>
