<?xml version="1.0" standalone="no"?>
<!DOCTYPE svg PUBLIC "-//W3C//DTD SVG 1.1//EN" "http://www.w3.org/Graphics/SVG/1.1/DTD/svg11.dtd" >
<svg xmlns="http://www.w3.org/2000/svg">
<metadata></metadata>
<defs>
<font id="novel_sans_prolight_italic" horiz-adv-x="1110" >
<font-face units-per-em="2048" ascent="1638" descent="-410" />
<missing-glyph horiz-adv-x="346" />
<glyph horiz-adv-x="0" />
<glyph horiz-adv-x="682" />
<glyph unicode=" "  horiz-adv-x="346" />
<glyph unicode="&#x09;" horiz-adv-x="346" />
<glyph unicode="&#xa0;" horiz-adv-x="346" />
<glyph unicode="!" horiz-adv-x="505" d="M125 102q0 44 30 74.5t76 30.5q45 0 73 -31.5t28 -79.5q0 -44 -30.5 -74t-76.5 -30q-42 0 -71 32t-29 78zM186 422q0 332 9 715l8 317h157l-14 -317q-9 -191 -39 -701z" />
<glyph unicode="&#x22;" horiz-adv-x="729" d="M119 961q0 141 6 311l6 182h143l-12 -182q-5 -76 -12.5 -154t-11.5 -118l-5 -39h-114zM461 961q0 141 6 311l6 182h143l-12 -182q-5 -76 -12.5 -154t-11.5 -118l-5 -39h-114z" />
<glyph unicode="#" d="M57 303l11 105h172l71 503h-170l11 105h174l39 284h124l-40 -284h311l41 284h125l-41 -284h168l-11 -105h-172l-71 -503h170l-11 -105h-174l-41 -303h-125l44 303h-312l-43 -303h-125l43 303h-168zM365 408h309l71 503h-311z" />
<glyph unicode="$" d="M123 76v131q187 -85 326 -88l43 588q-159 75 -233.5 174t-74.5 211q0 141 104.5 241.5t274.5 120.5l12 201l99 -4l-12 -195q128 -4 264 -55l-15 -115q-134 45 -260 53l-37 -534q322 -150 322 -412q0 -65 -26 -128.5t-74.5 -118t-125.5 -93t-171 -49.5l-13 -201l-98 4 l10 193q-153 3 -315 76zM336 1112q0 -81 40 -140t144 -122l35 487q-102 -14 -160.5 -78.5t-58.5 -146.5zM547 123q111 21 170 95t59 167q0 51 -13.5 92.5t-58 90t-120.5 91.5z" />
<glyph unicode="%" horiz-adv-x="1507" d="M96 1075q0 80 17.5 151t52.5 127t92 89t131 33q117 0 187.5 -85t70.5 -241q0 -81 -17.5 -151.5t-52.5 -126.5t-92 -88.5t-131 -32.5q-117 0 -187.5 84.5t-70.5 240.5zM215 1092q0 -122 39 -186t111 -64q58 0 95.5 40t52.5 102.5t15 148.5q0 122 -38 184.5t-111 62.5 q-58 0 -96 -39.5t-53 -102t-15 -146.5zM360 -4l734 1575l82 -49l-732 -1575zM860 305q0 110 30 198t98 145t165 57q117 0 187.5 -85t70.5 -241q0 -80 -17.5 -150.5t-52.5 -127t-92 -89t-131 -32.5q-117 0 -187.5 84.5t-70.5 240.5zM979 322q0 -122 38.5 -185t110.5 -63 q58 0 96 39.5t53 102t15 146.5q0 122 -38.5 186t-110.5 64q-58 0 -96 -40t-53 -102.5t-15 -147.5z" />
<glyph unicode="&#x26;" horiz-adv-x="1513" d="M119 371q0 242 299 415q-91 116 -126.5 189.5t-35.5 148.5q0 153 109.5 252t275.5 99q153 0 237.5 -86t84.5 -207q0 -123 -79 -228t-255 -194q240 -262 391 -404q70 89 104.5 215t34.5 265q0 88 -12 186h139q17 -87 17 -182q0 -334 -181 -566q198 -165 353 -168l-29 -110 q-110 -11 -203 28.5t-219 137.5q-89 -86 -211.5 -134t-255.5 -48q-111 0 -198 35t-137.5 92.5t-76.5 125t-26 138.5zM264 387q0 -56 20 -107.5t57.5 -93t97.5 -66t134 -24.5q91 0 189.5 42.5t165.5 111.5q-203 191 -436 452q-228 -133 -228 -315zM401 1143 q0 -67 31.5 -128.5t122.5 -170.5q139 64 203.5 146t64.5 171q0 84 -52 142.5t-153 58.5q-90 0 -153.5 -61.5t-63.5 -157.5z" />
<glyph unicode="'" horiz-adv-x="385" d="M119 961q0 141 6 311l6 182h143l-12 -182q-5 -76 -12.5 -154t-11.5 -118l-5 -39h-114z" />
<glyph unicode="(" horiz-adv-x="878" d="M162 481q0 399 141.5 715t452.5 547l84 -60q-189 -138 -314.5 -332t-181 -409.5t-55.5 -460.5q0 -335 119 -602t354 -448l-86 -60q-259 200 -386.5 474t-127.5 636z" />
<glyph unicode=")" horiz-adv-x="878" d="M39 -569q189 138 314.5 332t181 409.5t55.5 460.5q0 335 -119 602t-354 448l86 60q259 -200 386.5 -474t127.5 -636q0 -399 -141.5 -715t-452.5 -547z" />
<glyph unicode="*" horiz-adv-x="864" d="M115 926l102 61q93 57 162 86q-94 42 -156 86l-96 62l49 100l98 -74q44 -32 77.5 -58.5t46.5 -38.5t14 -15q-11 138 -9 204l5 131h110l-8 -131q-10 -165 -23 -204q70 63 138 110l108 76l45 -98l-102 -64q-89 -53 -162 -86q73 -29 156 -84l96 -61l-51 -101l-99 72 q-81 59 -137 115q11 -97 8 -205l-2 -131h-110l8 131q10 167 23 205q-59 -52 -138 -113l-108 -76z" />
<glyph unicode="+" horiz-adv-x="1103" d="M66 571v119h426v387h120v-387h426v-119h-426v-389h-120v389h-426z" />
<glyph unicode="," horiz-adv-x="432" d="M2 -258q235 216 141 369q-10 16 -22 29.5t-19 19.5l-6 6q14 32 39.5 47.5t52.5 15.5q60 0 97 -49.5t37 -118.5q0 -188 -232 -378z" />
<glyph unicode="-" horiz-adv-x="585" d="M43 504l4 110h496l-2 -110h-498z" />
<glyph unicode="&#xad;" horiz-adv-x="585" d="M43 504l4 110h496l-2 -110h-498z" />
<glyph unicode="." horiz-adv-x="462" d="M129 90q0 44 29 75.5t75 31.5q45 0 73 -32.5t28 -80.5q0 -44 -30 -74t-75 -30q-44 0 -72 32t-28 78z" />
<glyph unicode="/" horiz-adv-x="940" d="M0 -463l836 2232l104 -53l-836 -2232z" />
<glyph unicode="0" d="M90 645q0 187 30 336.5t90.5 261t158.5 172t227 60.5q94 0 170 -37t134 -114t90 -208t32 -307q0 -187 -30 -336.5t-90.5 -261t-158.5 -171.5t-227 -60q-95 0 -171 36.5t-134 114t-89.5 207.5t-31.5 307zM246 662q0 -288 74.5 -427t207.5 -139q75 0 134 36.5t97 99 t62.5 152.5t34.5 190.5t10 218.5q0 288 -74.5 426.5t-207.5 138.5q-75 0 -134 -36.5t-97 -99t-62.5 -152.5t-34.5 -190t-10 -218z" />
<glyph unicode="1" d="M156 0l4 104l309 11l43 1212l-330 -43l-6 113l361 57h125l-48 -1339l320 -11l-4 -104h-774z" />
<glyph unicode="2" d="M152 0l2 111l274 338q64 79 111 143t101 150.5t83 171t29 159.5q0 133 -70.5 208t-183.5 75q-137 0 -297 -121l-8 125q145 115 327 115q175 0 281 -104t106 -281q0 -86 -29.5 -178.5t-86 -186.5t-115 -173.5t-139.5 -176.5l-211 -252h616l-18 -123h-772z" />
<glyph unicode="3" d="M143 100l2 140q173 -142 334 -142q122 0 197.5 80.5t75.5 204.5q0 51 -18.5 98.5t-59 93t-116 79.5t-177.5 48l4 105q80 11 143.5 35t105 54.5t68.5 69t38.5 78.5t11.5 84q0 99 -62.5 164.5t-177.5 65.5q-143 0 -297 -125l-8 129q64 51 149 82t174 31q91 0 165 -28.5 t119.5 -76.5t70 -107.5t24.5 -123.5q0 -59 -18 -113.5t-55 -106t-101.5 -92.5t-150.5 -65q87 -18 152.5 -59.5t101.5 -95t53.5 -109t17.5 -111.5q0 -79 -28.5 -151t-82 -129.5t-138 -92t-187.5 -34.5q-172 0 -330 120z" />
<glyph unicode="4" d="M90 377l4 104l608 973h170l-36 -956h184l-16 -121h-173l-12 -377h-145l14 377h-598zM244 498h448l23 614q2 51 5 90t5 52l2 14z" />
<glyph unicode="5" d="M182 80l2 141q148 -121 295 -121q124 0 198.5 91t74.5 221q0 53 -17 103t-58 100t-101.5 89t-155.5 65.5t-213 33.5l127 639l641 47l-21 -129l-508 -39l-79 -414q119 -16 213.5 -52.5t155.5 -84t101 -107.5t57 -119.5t17 -123.5q0 -114 -51 -213.5t-152 -163t-231 -63.5 q-173 0 -295 100z" />
<glyph unicode="6" d="M127 586q0 178 36.5 324.5t102 248.5t157 172t200 102.5t233.5 32.5q48 0 94 -6l-4 -114q-61 6 -90 6q-234 0 -384 -147.5t-179 -420.5q120 76 276 76q173 0 286.5 -111.5t113.5 -299.5q0 -200 -123.5 -334.5t-302.5 -134.5q-185 0 -300.5 157.5t-115.5 448.5zM283 659 q-17 -252 57.5 -407.5t212.5 -155.5q115 0 188.5 90t73.5 246q0 133 -74 222t-198 89q-135 0 -260 -84z" />
<glyph unicode="7" d="M152 1327l16 127h772l-2 -113l-612 -1364l-121 50l583 1300h-636z" />
<glyph unicode="8" d="M117 340q0 256 295 397q-67 33 -116 77.5t-75 92t-37.5 91t-11.5 85.5q0 172 119.5 282t300.5 110q173 0 272 -94.5t99 -237.5q0 -252 -281 -387q84 -35 143.5 -82.5t91 -99.5t45 -101t13.5 -100q0 -71 -30.5 -140t-86 -126t-143.5 -92t-193 -35q-185 0 -295 102 t-110 258zM268 352q0 -105 73 -183.5t200 -78.5q122 0 198 84t76 193q0 217 -285 317q-142 -65 -202 -143.5t-60 -188.5zM324 1106q0 -199 233 -299q140 56 202 140t62 181q0 100 -65 168t-178 68q-111 0 -182.5 -71.5t-71.5 -186.5z" />
<glyph unicode="9" d="M129 1006q0 200 122.5 334.5t301.5 134.5q186 0 301 -157.5t115 -449.5q0 -222 -55.5 -393t-155 -276t-230.5 -158t-288 -53q-46 0 -95 6l5 115q54 -5 92 -5q233 0 383.5 147.5t177.5 418.5q-118 -76 -275 -76q-173 0 -286 112t-113 300zM281 1022q0 -133 74.5 -222 t199.5 -89q132 0 260 84q15 253 -59 408t-211 155q-117 0 -190.5 -90t-73.5 -246z" />
<glyph unicode=":" horiz-adv-x="491" d="M129 90q0 44 29 75.5t75 31.5q45 0 73 -32.5t28 -80.5q0 -44 -30 -74t-75 -30q-44 0 -72 32t-28 78zM158 831q0 44 29 75.5t75 31.5q45 0 72.5 -32.5t27.5 -80.5q0 -45 -29.5 -74.5t-74.5 -29.5q-44 0 -72 32t-28 78z" />
<glyph unicode=";" horiz-adv-x="466" d="M2 -258q235 216 141 369q-10 16 -22 29.5t-19 19.5l-6 6q14 32 39.5 47.5t52.5 15.5q60 0 97 -49.5t37 -118.5q0 -188 -232 -378zM133 831q0 44 29.5 75.5t75.5 31.5q45 0 72.5 -32.5t27.5 -80.5q0 -45 -30 -74.5t-75 -29.5q-44 0 -72 32t-28 78z" />
<glyph unicode="&#x3c;" horiz-adv-x="1150" d="M63 575v119l1024 510v-129l-874 -436l874 -436v-137z" />
<glyph unicode="=" horiz-adv-x="1103" d="M66 346v119h972v-119h-972zM66 770v119h972v-119h-972z" />
<glyph unicode="&#x3e;" horiz-adv-x="1150" d="M63 68v131l873 436l-873 436v135l1024 -510v-118z" />
<glyph unicode="?" horiz-adv-x="811" d="M143 1417q109 58 234 58q76 0 138.5 -25t101 -66t59 -91t20.5 -103q0 -174 -172 -322l-43 -37q-125 -106 -125 -206q0 -83 41 -170l-102 -37q-76 112 -76 227q0 132 164 273l43 36q129 111 129 232q0 74 -54 126t-149 52q-85 0 -200 -51zM211 90q0 43 29 74t75 31 q45 0 72 -32t27 -79q0 -44 -30 -74t-75 -30q-42 0 -70 32t-28 78z" />
<glyph unicode="@" horiz-adv-x="1875" d="M152 432q0 223 69.5 407.5t188.5 305.5t276.5 187.5t335.5 66.5q333 0 517.5 -187t184.5 -548q0 -142 -44 -275t-111.5 -224t-148.5 -145.5t-156 -54.5q-32 0 -57.5 9.5t-49.5 33.5t-37.5 73.5t-13.5 121.5q0 180 6 231q-6 -16 -17 -39.5t-14 -29.5q-82 -199 -167.5 -291 t-159.5 -92q-84 0 -137.5 108t-53.5 318q0 620 479 620q113 0 226 -20l-23 -277q-14 -179 -18 -260.5t-4 -222.5q0 -96 17 -138t56 -42q40 0 91.5 43t99.5 116t81.5 186.5t33.5 237.5q0 306 -147.5 473.5t-442.5 167.5q-155 0 -291.5 -62t-235.5 -171.5t-156 -267.5 t-57 -342q0 -121 24 -230t77 -207t132 -169.5t196.5 -113.5t261.5 -42q115 0 282 37l-6 -109q-130 -35 -283 -35q-162 0 -296 44.5t-227 123t-157 186.5t-94 233t-30 265zM690 436q0 -152 29 -239.5t67 -87.5q46 0 118 102t134 252q82 205 90 366l7 84q-87 11 -142 11 q-150 0 -226.5 -126.5t-76.5 -361.5z" />
<glyph unicode="A" horiz-adv-x="1255" d="M68 0l507 1452l160 4l432 -1456h-151l-129 446h-527l-147 -446h-145zM397 557h457l-166 576q-16 55 -26.5 99t-13.5 60l-3 17q-12 -56 -53 -179z" />
<glyph unicode="B" horiz-adv-x="1187" d="M213 0l51 1454h199q194 0 297 -47q93 -41 147 -123.5t54 -193.5q0 -122 -64 -212t-186 -120q107 -15 181.5 -68.5t107 -123t32.5 -148.5q0 -225 -188 -344q-118 -74 -363 -74h-268zM360 106h138q145 0 227 39q154 69 154 261q0 125 -96 207.5t-281 82.5h-119zM385 799 h102q139 0 205 43q121 74 121 245q0 55 -20 104t-52 79q-85 80 -260 80h-78z" />
<glyph unicode="C" horiz-adv-x="1259" d="M141 670q0 435 215 647q77 76 186.5 117t229.5 41q164 0 326 -70l-23 -121q-162 70 -313 70q-87 0 -169 -31t-138 -90q-162 -170 -162 -537q0 -176 44 -307t139.5 -209t234.5 -78q143 0 366 97v-127q-191 -92 -381 -92q-265 0 -411 196q-70 94 -107 224.5t-37 269.5z" />
<glyph unicode="D" horiz-adv-x="1415" d="M213 0l51 1454h266q227 0 377 -49.5t244 -161.5q143 -174 143 -481q0 -129 -27.5 -247t-98 -231.5t-177.5 -179.5q-165 -104 -442 -104h-336zM362 115h201q224 0 361 96q115 82 167 226.5t52 316.5q0 269 -111 409q-74 93 -194 134.5t-324 41.5h-108z" />
<glyph unicode="E" horiz-adv-x="1114" d="M213 0l51 1454h676l-6 -113h-528l-19 -546h490l-5 -109h-489l-21 -573h568l-12 -113h-705z" />
<glyph unicode="F" horiz-adv-x="1101" d="M213 0l51 1454h676l-6 -115h-528l-21 -594h514l-6 -112h-512l-23 -633h-145z" />
<glyph unicode="G" horiz-adv-x="1370" d="M141 651q0 229 51.5 392t165.5 274q76 77 187 117.5t243 40.5q180 0 363 -78l-25 -121q-180 78 -348 78q-96 0 -182 -31.5t-143 -91.5q-87 -87 -123.5 -220.5t-36.5 -328.5q0 -280 115.5 -431t318.5 -151q151 0 293 56l22 522h146l-19 -428l-2 -180q-225 -90 -446 -90 q-149 0 -251.5 45t-174.5 137q-75 90 -114.5 220t-39.5 269z" />
<glyph unicode="H" horiz-adv-x="1447" d="M213 0l51 1454h146l-23 -659h700l23 659h145l-51 -1454h-145l24 672h-700l-25 -672h-145z" />
<glyph unicode="I" horiz-adv-x="600" d="M213 0l51 1454h146l-52 -1454h-145z" />
<glyph unicode="J" horiz-adv-x="600" d="M-31 -430q143 104 191.5 206.5t54.5 289.5l49 1388h146l-48 -1333q-9 -262 -78 -402t-251 -256z" />
<glyph unicode="K" horiz-adv-x="1296" d="M213 0l51 1454h146l-52 -1454h-145zM408 737l618 717h164l-612 -700l577 -754h-184l-459 612q-69 92 -104 125z" />
<glyph unicode="L" horiz-adv-x="1058" d="M213 0l51 1454h146l-48 -1341h566l-13 -113h-702z" />
<glyph unicode="M" horiz-adv-x="1849" d="M186 0l103 1454h186l432 -1280l545 1280h180l-4 -1454h-143l4 1004q0 48 2 108.5t4 96.5l2 36l-530 -1245h-144l-422 1243q-4 -112 -12 -239l-70 -1004h-133z" />
<glyph unicode="N" horiz-adv-x="1490" d="M213 0l51 1454h154l712 -1243q-1 23 -1 57q0 69 4 187l34 999h133l-51 -1454h-155l-719 1255q1 -8 2.5 -25.5t3.5 -83.5q1 -22 1 -47q0 -49 -3 -106l-35 -993h-131z" />
<glyph unicode="O" horiz-adv-x="1425" d="M141 680q0 257 77 439t220 272q134 84 320 84q139 0 244.5 -49.5t172 -141.5t99.5 -218.5t33 -285.5q0 -181 -45 -348t-152 -278q-168 -174 -422 -174q-237 0 -371 143q-176 184 -176 557zM293 698q0 -338 141 -491q99 -105 256 -105h15q87 0 167.5 35t135.5 99 q81 93 113 223t32 299q0 129 -21.5 233t-67 187.5t-126 129.5t-190.5 46q-136 0 -234 -64q-221 -140 -221 -592z" />
<glyph unicode="P" horiz-adv-x="1179" d="M213 0l51 1454h223q128 0 216.5 -20t158.5 -72q160 -118 160 -336q0 -131 -53.5 -241.5t-163.5 -176.5q-69 -42 -157 -55q-48 -7 -94 -7q-39 0 -77 5l6 111q33 -4 63 -4q118 0 195 57q64 47 98.5 125.5t34.5 173.5q0 175 -116 260q-89 65 -271 65h-81l-48 -1339h-145z " />
<glyph unicode="Q" horiz-adv-x="1425" d="M141 680q0 257 77 439t220 272q134 84 320 84q139 0 244.5 -49.5t172 -141.5t99.5 -218.5t33 -285.5q0 -181 -45 -348t-152 -278q-119 -119 -270 -156q83 -73 143 -119q119 -91 242.5 -138.5t267.5 -47.5q91 0 164 16l-12 -100q-89 -31 -203 -31q-149 0 -283 50.5 t-276 160.5q-88 67 -215 191q-226 7 -351 143q-176 184 -176 557zM293 698q0 -338 141 -491q99 -105 256 -105h15q87 0 167.5 35t135.5 99q81 93 113 223t32 299q0 129 -21.5 233t-67 187.5t-126 129.5t-190.5 46q-136 0 -234 -64q-221 -140 -221 -592z" />
<glyph unicode="R" horiz-adv-x="1290" d="M213 0l47 1454h254q270 0 399 -135q105 -111 105 -275q0 -281 -244 -415l156 -252q93 -151 158 -211t151 -88l-49 -98q-63 9 -106 25t-89.5 52.5t-92 96.5t-103.5 157l-166 275h-258l-21 -586h-141zM379 696h11q12 -1 32 -1.5t45 -1t56.5 -1t60.5 -0.5q122 0 209 105 q73 88 73 233q0 130 -71 207q-89 102 -285 102h-109z" />
<glyph unicode="S" horiz-adv-x="1052" d="M113 51v131q110 -46 184.5 -63t151.5 -17q129 0 211.5 77t82.5 206q0 82 -42.5 149.5t-155.5 131.5l-105 61q-137 82 -196.5 170.5t-59.5 192.5q0 171 119 278t313 107q149 0 281 -54l-14 -123q-152 60 -269 60q-124 0 -202 -66t-78 -186q0 -154 201 -266l106 -58 q142 -78 202 -172t60 -211q0 -179 -129 -299t-330 -120q-174 0 -331 71z" />
<glyph unicode="T" horiz-adv-x="1118" d="M72 1339l6 115h989l-14 -115h-416l-49 -1339h-146l50 1339h-420z" />
<glyph unicode="U" horiz-adv-x="1437" d="M207 702l26 752h146l-27 -745q-2 -60 -1 -111q-1 -98 5 -166q10 -104 52 -174q90 -152 301 -152q167 0 268 107q36 39 59.5 91.5t34.5 126t14.5 125.5t6.5 144l26 754h139l-28 -795q-3 -97 -7.5 -155.5t-19.5 -133t-45.5 -134t-79.5 -111.5q-136 -145 -399 -145 q-280 0 -395 192q-55 88 -69 206q-9 78 -9 194q0 60 2 130z" />
<glyph unicode="V" horiz-adv-x="1253" d="M92 1454h152l362 -1302l447 1302h141l-508 -1452l-176 -4z" />
<glyph unicode="W" horiz-adv-x="1904" d="M92 1454h150l348 -1294l295 921l-103 373h150l346 -1294l426 1294h141l-491 -1452l-172 -4l-236 876l-289 -872l-170 -4z" />
<glyph unicode="X" horiz-adv-x="1263" d="M104 0l447 729l-410 725h162l340 -608l369 608h147l-442 -723l426 -731h-164l-352 616l-371 -616h-152z" />
<glyph unicode="Y" horiz-adv-x="1214" d="M76 1454h162l366 -670l404 670h145l-491 -805l-23 -649h-145l24 651z" />
<glyph unicode="Z" horiz-adv-x="1157" d="M113 0l4 109l757 1232h-708l4 113h883l-6 -100l-764 -1239h782l-12 -115h-940z" />
<glyph unicode="[" horiz-adv-x="704" d="M180 -621l80 2341h406l-9 -84h-278l-76 -2173h285l-8 -84h-400z" />
<glyph unicode="\" horiz-adv-x="940" d="M0 1716l104 53l836 -2232l-104 -53z" />
<glyph unicode="]" horiz-adv-x="686" d="M39 -621l8 84h279l75 2173h-284l8 84h399l-80 -2341h-405z" />
<glyph unicode="^" horiz-adv-x="1026" d="M90 510l367 790h114l365 -790h-139l-285 637l-283 -637h-139z" />
<glyph unicode="_" horiz-adv-x="1024" d="M0 -76h1024v-127h-1024v127z" />
<glyph unicode="`" horiz-adv-x="612" d="M102 1499l23 129l385 -330l-23 -106z" />
<glyph unicode="a" horiz-adv-x="946" d="M109 414q0 622 483 622q110 0 227 -20l-22 -279q-19 -187 -23 -333q-2 -77 -2 -185q0 -96 2 -217l-125 -6v96q0 272 10 342q-12 -27 -28 -67q-82 -199 -168.5 -292t-161.5 -93q-84 0 -138 108.5t-54 323.5zM236 442q0 -155 29 -243t69 -88q46 0 118 102.5t134 253.5 q81 208 92 367l6 86q-82 10 -143 10q-150 0 -227.5 -126.5t-77.5 -361.5z" />
<glyph unicode="b" horiz-adv-x="964" d="M129 14q17 77 27 373l49 1178l123 14l-33 -766q-2 -45 -4.5 -101.5t-4 -90t-3.5 -52.5q10 37 34 95q77 183 175 283t167 100q86 0 141.5 -108t55.5 -310q-1 -115 -15.5 -208t-50.5 -176t-92 -139.5t-144 -89t-202 -32.5q-108 0 -223 30zM262 109q73 -17 141 -17 q155 0 239.5 128t84.5 349q0 90 -9 159t-24.5 107.5t-32.5 57t-36 18.5q-49 0 -124 -103t-132 -237q-94 -214 -97 -335q-5 -79 -10 -127z" />
<glyph unicode="c" horiz-adv-x="827" d="M109 467q0 91 13 173t43.5 157.5t76 130t115 87t155.5 32.5q98 0 205 -39l-19 -107q-107 39 -190 39q-93 0 -155 -61.5t-88.5 -159t-26.5 -225.5q0 -206 59.5 -306t155.5 -100q99 0 252 92l12 -106q-151 -94 -287 -94q-150 0 -235.5 117.5t-85.5 369.5z" />
<glyph unicode="d" horiz-adv-x="954" d="M109 414q0 312 122 467t359 155q40 0 102 -4l29 533l125 14l-47 -850q-20 -349 -20 -529q0 -92 3 -198l-125 -6q-1 99 -1 178q0 188 8 258q-1 -3 -4.5 -11.5t-10 -24t-12.5 -29.5q-78 -191 -169 -289t-165 -98q-87 0 -140.5 109t-53.5 325zM236 442q0 -156 29 -244.5 t69 -88.5q45 0 122.5 107.5t133.5 250.5q86 213 94 367l4 86q-66 10 -147 10q-149 0 -227 -130t-78 -358z" />
<glyph unicode="e" horiz-adv-x="880" d="M109 453q0 125 26.5 231t78.5 187t136.5 127t192.5 46q120 0 179.5 -63.5t59.5 -149.5q0 -57 -23 -107t-72.5 -94.5t-139 -75.5t-211.5 -44l-98 -10v-26q0 -38 2 -71q3 -44 11 -93.5t24.5 -87t40.5 -69t62 -48.5t87 -17q104 0 264 98l12 -104q-159 -100 -301 -100 q-331 0 -331 471zM240 594l102 12q315 35 315 213q0 58 -38.5 91.5t-104.5 33.5q-109 0 -185.5 -93t-88.5 -257z" />
<glyph unicode="f" horiz-adv-x="591" d="M-240 -414q41 -6 101 -6q141 0 229 140.5t98 418.5l29 764h-188l8 92l184 4l4 99q9 166 54 272q28 65 70.5 111.5t90 68.5t89 31.5t81.5 9.5q85 0 150 -22l-12 -103q-73 21 -140 21q-30 0 -58.5 -7t-60.5 -23t-60 -50t-46 -82q-27 -73 -33 -195l-6 -131h244v-96h-248 l-23 -694q-12 -372 -131.5 -553.5t-345.5 -181.5q-40 0 -78 6z" />
<glyph unicode="g" horiz-adv-x="923" d="M-20 -254q0 91 68.5 162.5t199.5 101.5q-47 50 -47 113q0 81 71 149q-72 50 -110.5 141t-38.5 203q0 104 29.5 188t79.5 136.5t113.5 80.5t133.5 28q91 0 174 -50h252v-94h-186q67 -104 67 -246q0 -188 -95 -312t-251 -124q-39 0 -80 13q-18 -17 -29.5 -41.5t-11.5 -44.5 q0 -18 7.5 -34.5t26.5 -34.5t61 -30t102 -16l96 -6q69 -4 121 -21.5t80.5 -39.5t46 -51.5t22.5 -52.5t5 -46q0 -58 -33 -118t-95 -113.5t-167 -87.5t-234 -34q-172 0 -275 82t-103 199zM100 -240q0 -87 82 -141.5t215 -54.5q86 0 157.5 23t114.5 58t66 74t23 74 q0 110 -178 121l-99 6q-88 6 -147 33q-112 -20 -173 -73t-61 -120zM248 614q0 -138 53.5 -213t142.5 -75q103 0 161.5 93.5t58.5 239.5q0 132 -53 211.5t-140 79.5q-98 0 -160.5 -86t-62.5 -250z" />
<glyph unicode="h" horiz-adv-x="970" d="M129 -2l21 262q23 264 34 490l29 815l125 14l-31 -764q-7 -154 -16 -250q23 60 80 164q90 163 166.5 239t152.5 76q149 0 148 -247q0 -44 -4 -95l-25 -292q-16 -180 -16 -406l-129 -6q0 160 16 381l25 295q3 45 3 81q0 154 -61 154q-38 0 -100.5 -71.5t-147.5 -227.5 q-69 -128 -96 -219.5t-37 -208.5l-12 -184h-125z" />
<glyph unicode="i" horiz-adv-x="436" d="M131 -2q0 185 14 387l17 225q7 104 10.5 206t3.5 152v50l127 12q0 -189 -14 -389l-17 -225q-7 -105 -10.5 -208t-3.5 -154v-50zM158 1380q0 45 28.5 74t67.5 29q46 0 72 -29.5t26 -73.5q0 -46 -28 -74t-68 -28q-46 0 -72 29.5t-26 72.5z" />
<glyph unicode="j" horiz-adv-x="436" d="M-168 -444q171 151 227.5 262t69.5 323l31 469q7 104 10.5 206t3.5 152v50l127 12q0 -189 -14 -389l-31 -469q-6 -100 -13.5 -161.5t-29 -137t-58.5 -134t-100 -126t-155 -137.5zM156 1380q0 45 28.5 74t67.5 29q46 0 72 -29.5t26 -73.5q0 -46 -28 -74t-66 -28 q-47 0 -73.5 29t-26.5 73z" />
<glyph unicode="k" horiz-adv-x="923" d="M127 -2l23 262q24 279 32 490l33 815l123 14l-31 -776q-11 -260 -39 -621l-14 -178zM324 543l26 61q112 244 213 340t221 96q59 0 107 -10l-21 -121q-49 11 -86 11q-86 0 -156.5 -71.5t-181.5 -277.5l351 -551l-123 -38z" />
<glyph unicode="l" horiz-adv-x="450" d="M147 -2q0 225 7 387l51 1180l123 14l-47 -1163q-5 -105 -7 -208q-1 -69 -1 -114v-40l1 -50z" />
<glyph unicode="m" horiz-adv-x="1495" d="M129 -2l23 268q27 304 36 756l125 12q-10 -346 -22 -469q20 54 80 164q90 163 166.5 239t152.5 76q143 0 143 -243q0 -40 -4 -86l-18 -180q20 48 49 102q28 53 50.5 94t65 104.5t80.5 104.5t88 72.5t97 31.5q123 0 123 -241q0 -46 -4 -101l-27 -292q-16 -180 -16 -406 l-129 -6q0 5 1 55t5 139.5t12 186.5l23 295q4 55 4 97q0 138 -45 138q-32 0 -76 -44.5t-88 -114.5t-75 -125t-56 -107q-92 -182 -102 -336q-11 -143 -11 -178l-125 -6q0 63 23 381l24 295q4 51 4 92q0 48 -6 82q-11 60 -53 61q-38 0 -100.5 -71.5t-147.5 -227.5 q-69 -128 -96 -219.5t-37 -208.5l-12 -178z" />
<glyph unicode="n" horiz-adv-x="970" d="M129 -2l23 268q27 304 36 756l125 12q-10 -346 -22 -469q20 54 80 164q90 163 166.5 239t152.5 76q149 0 148 -247q0 -44 -4 -95l-25 -292q-16 -180 -16 -406l-129 -6q0 160 16 381l25 295q3 45 3 81q0 154 -61 154q-38 0 -100.5 -71.5t-147.5 -227.5 q-69 -128 -96 -219.5t-37 -208.5l-12 -178z" />
<glyph unicode="o" horiz-adv-x="931" d="M98 434q0 131 22.5 236.5t61.5 174.5t93 115.5t114.5 66.5t128.5 20q64 0 119.5 -27t100.5 -81t70.5 -143t25.5 -204q0 -160 -34 -281t-93.5 -191.5t-133 -105t-159.5 -34.5q-135 0 -225.5 115t-90.5 339zM229 477q0 -206 60 -298.5t160 -92.5q35 0 69 14t68 48t60 85.5 t42.5 133t16.5 182.5q0 206 -61 298.5t-159 92.5q-35 0 -69.5 -14t-68.5 -48t-60 -85.5t-42 -133t-16 -182.5z" />
<glyph unicode="p" horiz-adv-x="960" d="M104 -516l48 805q18 313 18 489q0 52 -4 244l125 12q2 -90 2 -217q0 -149 -8 -223q12 30 28 65q79 189 174.5 288.5t167.5 99.5q86 0 141.5 -108t55.5 -310q0 -322 -121.5 -481.5t-376.5 -159.5q-50 0 -96 6l-29 -504zM262 109q71 -15 148 -15q148 0 230.5 126t82.5 349 q0 90 -9 159t-24.5 107.5t-32.5 57t-36 18.5q-40 0 -105.5 -77t-130.5 -216q-61 -126 -87.5 -223.5t-31.5 -201.5z" />
<glyph unicode="q" horiz-adv-x="960" d="M109 395q0 112 15.5 206t52 176.5t92.5 139t141 89t194 32.5q91 0 223 -22q-14 -83 -26 -375l-45 -1151l-125 -6l31 733q6 176 12 236l-39 -99q-72 -169 -165.5 -271.5t-168.5 -102.5q-80 0 -136 107t-56 308zM236 449q0 -168 29.5 -254t72.5 -86q42 0 119 108.5 t135 249.5q48 114 67 183t25 177l6 93q-66 10 -131 10q-154 0 -238.5 -126t-84.5 -355z" />
<glyph unicode="r" horiz-adv-x="792" d="M129 -2l23 268q5 58 9 110t7 109.5t4.5 94t3 105t2 98t1.5 117.5t1 122l128 12q-16 -442 -23 -487q24 97 94 225q82 153 153.5 210.5t155.5 57.5q32 0 66 -6l-23 -127q-32 4 -51 4q-51 0 -106 -41.5t-123 -156.5q-165 -279 -185 -533l-12 -176z" />
<glyph unicode="s" horiz-adv-x="735" d="M51 18l4 111q134 -43 234 -43q99 0 149.5 49.5t50.5 104.5q0 41 -25 84t-95 104l-99 86q-87 73 -123 134t-36 132q0 48 19 93.5t56 84.5t99 62.5t139 23.5q114 0 211 -38l-12 -109q-107 43 -201 43q-90 0 -134 -43.5t-44 -101.5q0 -80 123 -187l100 -86 q93 -80 126.5 -141t33.5 -129q0 -48 -21.5 -95t-62.5 -86.5t-108.5 -64t-151.5 -24.5q-135 0 -232 36z" />
<glyph unicode="t" horiz-adv-x="673" d="M31 903l8 92l182 4l31 267l108 10l-16 -277h266v-96h-274l-35 -586q-1 -24 -1 -45q0 -86 22 -128q28 -52 90 -52q71 0 186 60l10 -101q-120 -69 -229 -69q-206 0 -206 262q0 19 1 39l39 620h-182z" />
<glyph unicode="u" horiz-adv-x="970" d="M135 328l27 293q16 200 16 401l127 12q0 -187 -16 -383l-23 -293q-4 -50 -4 -91q0 -52 6 -87q12 -63 56 -63q36 0 99 73.5t148 229.5q68 128 94.5 219.5t36.5 208.5l15 174l125 12l-23 -270q-31 -345 -39 -760l-125 -6q9 330 23 467q-18 -55 -78 -162 q-90 -164 -167.5 -242.5t-151.5 -78.5q-150 0 -150 259q0 40 4 87z" />
<glyph unicode="v" horiz-adv-x="942" d="M125 993l117 41q38 -62 54 -156q10 -58 11 -144q0 -53 -4 -116l-8 -145q-5 -57 -5 -104q0 -35 3 -65q6 -68 13 -108.5t23.5 -61.5t30.5 -27.5t33 -6.5q48 0 103 45.5t102 119t78 178.5t31 212q0 194 -89 334l103 64q55 -67 85 -165t30 -206q0 -176 -69.5 -339.5 t-180.5 -262t-228 -98.5q-46 0 -80.5 17.5t-63.5 62.5q-28 46 -40 134q-8 59 -8 136q0 39 2 82l8 145q5 80 5 141t-3 101.5t-12 77t-17.5 59t-23.5 55.5z" />
<glyph unicode="w" horiz-adv-x="1462" d="M125 993l117 41q38 -62 54 -156q10 -58 11 -144q0 -53 -4 -116l-8 -145q-5 -58 -5 -105q0 -35 3 -65q6 -69 13 -109t23.5 -61t29.5 -27t30 -6q33 0 81.5 43t95 111t83.5 162.5t47 185.5q6 57 6 110q0 157 -53 281l115 41q35 -63 50 -156q9 -56 9 -138q0 -55 -4 -122 l-8 -145q-2 -49 -3 -91q0 -282 110 -282q61 0 132.5 75t124 207t52.5 273q0 194 -86 334l102 64q54 -67 83.5 -165t29.5 -206q0 -174 -69.5 -337.5t-180.5 -263t-227 -99.5q-37 0 -66 13.5t-57 48.5q-26 34 -40 106q-11 58 -12 139q0 18 1 37q-158 -344 -359 -344 q-180 0 -180 353q0 37 2 79l8 145q5 80 5 141t-3 101.5t-12 77t-17.5 59t-23.5 55.5z" />
<glyph unicode="x" horiz-adv-x="880" d="M27 20q4 8 47.5 84.5t121 205.5t140.5 225l-227 471l116 45l197 -410q123 184 207.5 275.5t179.5 148.5l74 -96q-90 -53 -177 -144t-225 -288l258 -517l-121 -38l-219 448q-52 -81 -116.5 -192.5t-102.5 -182.5l-39 -71z" />
<glyph unicode="y" horiz-adv-x="929" d="M-195 -510l15 113q46 -9 98 -9q75 0 155.5 31t143.5 96q63 64 84 164t21 244q0 69 -14.5 162t-46.5 212.5t-98 246.5t-155 225l111 76q88 -100 153.5 -224.5t101 -244t52 -224t16.5 -192.5q0 -187 -39 -303q132 156 212.5 352.5t80.5 353.5q0 252 -100 422l109 68 q116 -183 116 -457q0 -147 -51 -307.5t-142 -303.5t-205.5 -258t-253 -183t-273.5 -68q-55 0 -91 8z" />
<glyph unicode="z" horiz-adv-x="804" d="M61 0l5 98l522 822h-477l4 106h622l-4 -98l-516 -826q47 -2 100 -2q175 0 416 25l-2 -107q-225 -23 -454 -23q-108 0 -216 5z" />
<glyph unicode="{" horiz-adv-x="886" d="M72 518l8 88q168 12 235.5 97.5t67.5 295.5v334q0 223 100.5 311.5t335.5 73.5l-6 -82q-83 0 -137.5 -12.5t-93 -44.5t-55.5 -87.5t-17 -141.5v-299q0 -91 -6.5 -156.5t-24.5 -126t-50 -100t-83.5 -67t-124.5 -38.5q152 -20 209 -130.5t45 -334.5l-18 -313 q-11 -187 45 -252t235 -68l-2 -81q-224 -17 -320 68.5t-83 301.5l18 314q7 108 1 188.5t-33.5 135.5t-87 86t-158.5 40z" />
<glyph unicode="|" horiz-adv-x="442" d="M164 -512v2089h115v-2089h-115z" />
<glyph unicode="}" horiz-adv-x="890" d="M70 -618l6 81q83 0 138 12.5t94 45t56 88t17 141.5v299q0 92 6.5 159t24.5 131.5t49.5 107t83 73t123.5 41.5q-152 19 -209 119.5t-43 320.5l18 314q11 187 -45.5 251.5t-238.5 67.5l2 82q227 17 323.5 -68.5t83.5 -301.5l-18 -314q-6 -108 -1 -185t33.5 -127t87 -77.5 t158.5 -36.5l-10 -88q-165 -12 -233 -108t-68 -310v-336q0 -221 -101 -309t-337 -73z" />
<glyph unicode="~" horiz-adv-x="1112" d="M106 459q29 91 65.5 152.5t75.5 90t73 39.5t73 11q68 0 182 -45l39 -15q69 -26 111 -26q108 0 188 202l103 -43q-24 -73 -52.5 -126.5t-56.5 -84.5t-60.5 -49.5t-59 -24t-58.5 -5.5q-67 0 -180 43l-41 14q-69 26 -111 26q-108 0 -186 -200z" />
<glyph unicode="&#xa1;" horiz-adv-x="505" d="M145 -395l15 317q9 191 39 701l120 14q0 -375 -8 -715l-8 -317h-158zM174 963q0 44 30.5 74t76.5 30q42 0 71 -32.5t29 -78.5q0 -44 -30.5 -74t-76.5 -30q-45 0 -72.5 31.5t-27.5 79.5z" />
<glyph unicode="&#xa2;" d="M193 571q0 241 108.5 386.5t296.5 170.5l12 172h97l-13 -170q115 -8 211 -53l-14 -114q-110 48 -205 55l-59 -840q129 0 262 76l-4 -115q-127 -73 -267 -73l-12 -172h-94l14 184q-170 31 -251.5 163.5t-81.5 329.5zM340 588q0 -315 195 -393l57 819 q-117 -23 -184.5 -128.5t-67.5 -297.5z" />
<glyph unicode="&#xa3;" d="M84 88q120 64 175.5 146.5t55.5 193.5q0 106 -20 223h-168l4 92h152q-19 141 -19 201q0 109 25 198t68.5 150t103 103t127.5 61t143 19q116 0 232 -39l-19 -119q-124 39 -221 39q-64 0 -117 -20.5t-97 -65t-68.5 -125.5t-24.5 -193q0 -92 18 -209h393l-4 -92h-377 q3 -26 9 -73t9 -80t3 -58q0 -112 -40.5 -187.5t-127.5 -139.5q60 8 139 8h529l-19 -121h-715q-63 0 -147 -8z" />
<glyph unicode="&#xa4;" horiz-adv-x="1040" d="M45 334l164 162q-82 102 -82 239q0 136 82 238l-164 164l70 69l164 -164q105 84 239 84q135 0 240 -84l164 164l69 -69l-162 -164q80 -108 80 -238q0 -131 -80 -239l162 -162l-69 -70l-164 160q-108 -80 -240 -80q-131 0 -239 80l-164 -160zM227 735q0 -121 84.5 -206 t206.5 -85t206.5 85t84.5 206t-84.5 206t-206.5 85t-206.5 -85t-84.5 -206z" />
<glyph unicode="&#xa5;" d="M31 1454h159l361 -663l397 663h144l-453 -745h334l-4 -86h-361l-8 -242h363l-5 -86h-360l-10 -295h-148l11 295h-359l4 86h357l8 242h-357l5 86h325z" />
<glyph unicode="&#xa6;" horiz-adv-x="442" d="M164 387h115v-899h-115v899zM164 678v899h115v-899h-115z" />
<glyph unicode="&#xa7;" horiz-adv-x="1146" d="M135 952q0 135 76.5 250.5t204.5 188.5q145 84 307 84q133 0 242 -45l-19 -127q-116 47 -223 47q-70 0 -121 -29q-46 -27 -72 -76t-28 -102q-2 -64 32.5 -140t141.5 -225l78 -106q157 -219 208.5 -337.5t51.5 -221.5q0 -136 -77.5 -250.5t-205.5 -188.5 q-145 -84 -307 -84q-134 0 -240 45l17 127q116 -47 225 -47q67 0 121 29q45 27 70.5 75.5t27.5 102.5q2 64 -32.5 140t-141.5 225l-76 106q-157 219 -208.5 337.5t-51.5 221.5zM268 987q0 -92 44 -197.5t167 -275.5l78 -106q134 -186 177 -279.5t40 -163.5q-4 -106 -78 -186 q87 47 136 127.5t49 171.5t-44.5 197t-168.5 276l-76 106q-136 186 -179 279t-40 164q4 106 78 186q-85 -47 -134 -128t-49 -171z" />
<glyph unicode="&#xa8;" horiz-adv-x="735" d="M102 1370q0 44 26.5 72t66.5 28q42 0 63 -26.5t21 -65.5q0 -44 -26.5 -73t-66.5 -29q-42 0 -63 27t-21 67zM457 1370q0 44 26 72t66 28q42 0 63 -26.5t21 -65.5q0 -44 -26 -73t-66 -29q-41 0 -62.5 27t-21.5 67z" />
<glyph unicode="&#xa9;" horiz-adv-x="1609" d="M133 684q0 161 37 293t101.5 223.5t154 154t193 91.5t219.5 29q201 0 347.5 -90t221 -248.5t74.5 -366.5q0 -161 -37 -292.5t-102 -223t-154.5 -154t-193.5 -91.5t-220 -29q-200 0 -346 90t-220.5 248t-74.5 366zM258 696q0 -131 33.5 -241.5t98 -194t167 -131 t231.5 -47.5q119 0 220 40.5t180 121t123.5 212t44.5 302.5q0 130 -34 241t-99 194.5t-167 131t-231 47.5q-120 0 -221 -40.5t-179.5 -121t-122.5 -212t-44 -302.5zM479 696q0 203 92 320t256 117q86 0 191 -46l-21 -100q-95 43 -178 43q-110 0 -165.5 -83t-55.5 -236 q0 -135 52 -213t151 -78q67 0 205 59v-102q-122 -58 -218 -58q-146 0 -227.5 102.5t-81.5 274.5z" />
<glyph unicode="&#xaa;" horiz-adv-x="712" d="M82 987q0 31 9 58.5t34.5 56.5t65.5 50t106.5 34.5t153.5 13.5v31q0 74 -30.5 110.5t-111.5 36.5q-93 0 -203 -55l-10 90q107 62 221 62q117 0 176.5 -56.5t59.5 -163.5v-237q0 -27 1 -40.5t6 -29.5t15 -23.5t28.5 -13t47.5 -6.5l-6 -76q-30 -6 -59 -6q-91 0 -119 78 q-77 -80 -193 -80q-86 0 -139 46t-53 120zM186 999q0 -38 29 -62t84 -24q81 0 152 68v135q-143 3 -204 -32t-61 -85z" />
<glyph unicode="&#xab;" horiz-adv-x="993" d="M61 535l373 475l84 -78l-309 -389l289 -410l-97 -80zM483 535l336 428l78 -74l-276 -350l256 -365l-89 -74z" />
<glyph unicode="&#xac;" horiz-adv-x="1103" d="M66 653v119h972v-381h-112v262h-860z" />
<glyph unicode="&#xae;" horiz-adv-x="1398" d="M131 805q0 173 49 307t133 213.5t189 119.5t225 40q259 0 409 -167.5t150 -436.5q0 -173 -49 -307t-133 -213.5t-189 -119.5t-225 -40q-259 0 -409 167.5t-150 436.5zM240 817q0 -112 29.5 -207.5t85.5 -167t143.5 -112.5t197.5 -41q103 0 187 31t151.5 96.5t105.5 180.5 t38 271q0 150 -51 268t-156 189.5t-250 71.5q-81 0 -151 -18.5t-131.5 -62t-105 -109t-68.5 -165t-25 -225.5zM492 512l22 702h139q114 0 181 -52t67 -152q0 -131 -108 -197l65 -102q47 -75 71.5 -100t69.5 -40l-24 -71q-48 4 -75 14.5t-59.5 44.5t-74.5 105l-70 118h-94 l-10 -270h-100zM602 856h80q51 0 82 43.5t31 101.5q0 65 -41.5 100.5t-108.5 35.5h-33z" />
<glyph unicode="&#xaf;" horiz-adv-x="684" d="M102 1319l4 100h476l-4 -100h-476z" />
<glyph unicode="&#xb0;" horiz-adv-x="884" d="M129 1092q0 175 98 279t236 104q135 0 215 -90t80 -255q0 -176 -98.5 -280.5t-237.5 -104.5q-135 0 -214 90.5t-79 256.5zM258 1096q0 -112 50.5 -174t125.5 -62q80 0 136.5 69t56.5 195q0 112 -50.5 174t-125.5 62q-78 0 -135.5 -69t-57.5 -195z" />
<glyph unicode="&#xb1;" horiz-adv-x="1103" d="M66 2v119h972v-119h-972zM66 752v118h426v387h120v-387h426v-118h-426v-390h-120v390h-426z" />
<glyph unicode="&#xb4;" horiz-adv-x="612" d="M102 1282l387 332l21 -131l-385 -305z" />
<glyph unicode="&#xb6;" horiz-adv-x="1193" d="M135 967q0 167 74 285.5t203 164.5q102 37 276 37h76l-43 -1268q-7 -204 -45.5 -307.5t-118.5 -165.5q63 13 110 44.5t87 93t63.5 167.5t28.5 256l41 1180h133l-39 -1161q-9 -255 -79.5 -415t-197.5 -231t-319 -71q-64 0 -128 14t-101 33l-9 129q111 -51 197 -51 q119 0 176.5 120.5t65.5 352.5l14 387q-55 -2 -127.5 9.5t-126.5 35.5q-99 45 -155 142.5t-56 218.5z" />
<glyph unicode="&#xb7;" horiz-adv-x="464" d="M129 651q0 44 29 75.5t75 31.5q45 0 73 -32.5t28 -80.5q0 -45 -30 -74.5t-75 -29.5q-44 0 -72 32t-28 78z" />
<glyph unicode="&#xb8;" horiz-adv-x="536" d="M102 -483l7 92q66 -35 114 -35q40 0 66 30t26 70q0 121 -188 156l23 78q79 -9 137 -33t88.5 -57t44.5 -67.5t14 -72.5q0 -79 -58.5 -136.5t-150.5 -57.5q-67 0 -123 33z" />
<glyph unicode="&#xba;" horiz-adv-x="796" d="M90 1155q0 146 87.5 233t230.5 87q136 0 217.5 -85.5t81.5 -228.5q0 -156 -88 -247t-224 -91q-138 0 -221.5 91.5t-83.5 240.5zM197 1159q0 -102 52.5 -171.5t143.5 -69.5h13q87 0 139.5 66t52.5 173q0 98 -52 160.5t-149 62.5q-95 0 -147.5 -59t-52.5 -162z" />
<glyph unicode="&#xbb;" horiz-adv-x="993" d="M96 178l277 350l-256 365l88 74l305 -435l-336 -428zM475 135l309 389l-288 410l96 80l340 -482l-373 -475z" />
<glyph unicode="&#xbc;" horiz-adv-x="1720" d="M106 1458l228 37h90l-35 -881h-106l30 783l-202 -25zM377 -4l733 1575l82 -49l-731 -1575zM926 221l4 80l387 580h115l-23 -566h117l-13 -94h-108l-8 -221h-105l6 221h-372zM1049 315h256l12 351l6 65z" />
<glyph unicode="&#xbd;" horiz-adv-x="1720" d="M106 1458l228 37h90l-35 -881h-106l30 783l-202 -25zM350 -4l733 1575l82 -49l-731 -1575zM1022 0l2 80q210 226 293.5 353t83.5 218q0 75 -41.5 116.5t-110.5 41.5q-85 0 -194 -76l-6 94q104 74 215 74q114 0 183 -65.5t69 -176.5q0 -108 -77 -229.5t-278 -335.5h377 l-14 -94h-502z" />
<glyph unicode="&#xbe;" horiz-adv-x="1720" d="M104 670v106q118 -90 222 -90q73 0 118 45.5t45 116.5q0 29 -11.5 56t-36.5 53t-72.5 46t-112.5 29l4 80q122 16 177 66.5t55 117.5q0 57 -38.5 93t-109.5 36q-86 0 -197 -79l-4 96q90 74 213 74q116 0 183 -63.5t67 -149.5q0 -71 -44.5 -132.5t-137.5 -93.5 q92 -28 137 -92.5t45 -134.5q0 -104 -76.5 -180t-207.5 -76q-112 0 -218 76zM459 -4l733 1575l82 -49l-731 -1575zM963 221l4 80l387 580h114l-22 -566h117l-13 -94h-108l-8 -221h-105l6 221h-372zM1085 315h256l13 351l6 65z" />
<glyph unicode="&#xbf;" horiz-adv-x="811" d="M113 -141q0 173 172 321l43 37q125 106 125 207q0 83 -41 170l102 37q38 -55 57 -116.5t19 -111.5q0 -131 -164 -272l-43 -37q-129 -111 -129 -231q0 -74 54 -126t149 -52q85 0 200 51l9 -105q-107 -57 -234 -57q-76 0 -138.5 25t-101 66t-59 91t-20.5 103zM395 965 q0 45 29.5 74.5t75.5 29.5q42 0 70 -32.5t28 -78.5q0 -43 -29 -73.5t-75 -30.5q-45 0 -72 32t-27 79z" />
<glyph unicode="&#xc0;" horiz-adv-x="1257" d="M68 0l507 1452l160 4l432 -1456h-151l-129 446h-527l-147 -446h-145zM358 1796l13 129l458 -258l-16 -104zM397 557h457l-166 576q-16 55 -26.5 99t-13.5 60l-3 17q-12 -56 -53 -179z" />
<glyph unicode="&#xc1;" horiz-adv-x="1257" d="M68 0l507 1452l160 4l432 -1456h-151l-129 446h-527l-147 -446h-145zM397 557h457l-166 576q-16 55 -26.5 99t-13.5 60l-3 17q-12 -56 -53 -179zM481 1667l459 258l12 -129l-454 -233z" />
<glyph unicode="&#xc2;" horiz-adv-x="1257" d="M68 0l507 1452l160 4l432 -1456h-151l-129 446h-527l-147 -446h-145zM328 1632l350 273l338 -275l-92 -76l-258 215l-269 -213zM397 557h457l-166 576q-16 55 -26.5 99t-13.5 60l-3 17q-12 -56 -53 -179z" />
<glyph unicode="&#xc3;" horiz-adv-x="1257" d="M68 0l507 1452l160 4l432 -1456h-151l-129 446h-527l-147 -446h-145zM350 1645q31 118 86 165.5t119 47.5q39 0 127 -35l27 -11q53 -22 84 -22q72 0 112 129l82 -29q-55 -213 -205 -213q-39 0 -127 35l-26 10q-55 23 -84 23q-71 0 -113 -129zM397 557h457l-166 576 q-16 55 -26.5 99t-13.5 60l-3 17q-12 -56 -53 -179z" />
<glyph unicode="&#xc4;" horiz-adv-x="1257" d="M68 0l507 1452l160 4l432 -1456h-151l-129 446h-527l-147 -446h-145zM383 1737q0 43 27 72.5t67 29.5q42 0 64 -27.5t22 -66.5q0 -44 -27 -74.5t-67 -30.5q-42 0 -64 28.5t-22 68.5zM397 557h457l-166 576q-16 55 -26.5 99t-13.5 60l-3 17q-12 -56 -53 -179zM770 1737 q0 43 27 72.5t67 29.5q42 0 64 -27.5t22 -66.5q0 -44 -27 -74.5t-67 -30.5t-63 28.5t-23 68.5z" />
<glyph unicode="&#xc5;" horiz-adv-x="1257" d="M68 0l507 1452l160 4l432 -1456h-151l-129 446h-527l-147 -446h-145zM397 557h457l-166 576q-16 55 -26.5 99t-13.5 60l-3 17q-12 -56 -53 -179zM442 1724q0 106 66 171t170 65q91 0 149 -53.5t58 -145.5q0 -106 -66 -170.5t-170 -64.5q-91 0 -149 53.5t-58 144.5z M549 1735q0 -61 29.5 -94t76.5 -33q57 0 90 36.5t33 108.5q0 60 -29.5 93.5t-76.5 33.5q-57 0 -90 -37.5t-33 -107.5z" />
<glyph unicode="&#xc6;" horiz-adv-x="1769" d="M-6 0l866 1454h735l-6 -113h-528l-17 -546h488l-4 -109h-490l-18 -573h565l-12 -113h-705l17 446h-473l-260 -446h-158zM477 557h412l26 760q-49 -98 -96 -176z" />
<glyph unicode="&#xc7;" horiz-adv-x="1259" d="M141 670q0 435 215 647q77 76 186.5 117t229.5 41q164 0 326 -70l-23 -121q-162 70 -313 70q-87 0 -169 -31t-138 -90q-162 -165 -162 -537q0 -176 44 -307t139.5 -209t234.5 -78q143 0 366 97v-127q-191 -92 -381 -92q-265 0 -411 196q-70 94 -107 224.5t-37 269.5z M516 -479l6 98q59 -37 115 -37q43 0 68.5 26.5t25.5 65.5q0 117 -196 148l26 88q82 -7 142.5 -31.5t92.5 -59.5t47 -70t15 -71q0 -80 -57.5 -137t-151.5 -57q-72 0 -133 37z" />
<glyph unicode="&#xc8;" horiz-adv-x="1114" d="M213 0l51 1454h676l-6 -113h-528l-19 -546h490l-5 -109h-489l-21 -573h568l-12 -113h-705zM315 1796l13 129l458 -258l-16 -104z" />
<glyph unicode="&#xc9;" horiz-adv-x="1114" d="M213 0l51 1454h676l-6 -113h-528l-19 -546h490l-5 -109h-489l-21 -573h568l-12 -113h-705zM438 1667l459 258l12 -129l-454 -233z" />
<glyph unicode="&#xca;" horiz-adv-x="1114" d="M213 0l51 1454h676l-6 -113h-528l-19 -546h490l-5 -109h-489l-21 -573h568l-12 -113h-705zM285 1632l350 273l338 -275l-92 -76l-258 215l-269 -213z" />
<glyph unicode="&#xcb;" horiz-adv-x="1114" d="M213 0l51 1454h676l-6 -113h-528l-19 -546h490l-5 -109h-489l-21 -573h568l-12 -113h-705zM340 1737q0 43 27 72.5t67 29.5q42 0 64 -27.5t22 -66.5q0 -44 -27 -74.5t-67 -30.5q-42 0 -64 28.5t-22 68.5zM727 1737q0 43 27 72.5t67 29.5q42 0 64 -27.5t22 -66.5 q0 -44 -27 -74.5t-67 -30.5t-63 28.5t-23 68.5z" />
<glyph unicode="&#xcc;" horiz-adv-x="600" d="M37 1796l12 129l459 -258l-16 -104zM213 0l51 1454h146l-52 -1454h-145z" />
<glyph unicode="&#xcd;" horiz-adv-x="600" d="M160 1667l458 258l13 -129l-455 -233zM213 0l51 1454h146l-52 -1454h-145z" />
<glyph unicode="&#xce;" horiz-adv-x="600" d="M6 1632l350 273l338 -275l-92 -76l-258 215l-268 -213zM213 0l51 1454h146l-52 -1454h-145z" />
<glyph unicode="&#xcf;" horiz-adv-x="600" d="M63 1737q0 43 27.5 72.5t67.5 29.5q42 0 64 -27.5t22 -66.5q0 -44 -27 -74.5t-67 -30.5q-42 0 -64.5 28.5t-22.5 68.5zM213 0l51 1454h146l-52 -1454h-145zM451 1737q0 43 27 72.5t67 29.5q42 0 64 -27.5t22 -66.5q0 -44 -27 -74.5t-67 -30.5t-63 28.5t-23 68.5z" />
<glyph unicode="&#xd0;" horiz-adv-x="1415" d="M61 686l7 98h170l24 670h268q226 0 376 -49.5t243 -161.5q145 -176 145 -481q0 -95 -16.5 -186t-50.5 -180t-95 -165.5t-143 -126.5q-165 -104 -440 -104h-338l25 686h-175zM362 115h201q222 0 359 96q116 82 168.5 226.5t52.5 316.5q0 270 -113 409q-73 93 -193 134.5 t-325 41.5h-109l-18 -555h381l-4 -98h-381z" />
<glyph unicode="&#xd1;" horiz-adv-x="1490" d="M213 0l51 1454h154l712 -1243q-3 68 3 244l34 999h133l-51 -1454h-155l-719 1255q1 -8 2.5 -25.5t3.5 -84t-2 -152.5l-35 -993h-131zM473 1645q31 118 86 165.5t119 47.5q39 0 127 -35l26 -11q53 -22 84 -22q73 0 113 129l82 -29q-55 -213 -205 -213q-39 0 -127 35 l-26 10q-55 23 -84 23q-71 0 -113 -129z" />
<glyph unicode="&#xd2;" horiz-adv-x="1425" d="M141 680q0 257 77 439t220 272q134 84 320 84q139 0 244.5 -49.5t172 -141.5t99.5 -218.5t33 -285.5q0 -181 -45 -348t-152 -278q-168 -174 -422 -174q-237 0 -371 143q-176 184 -176 557zM293 698q0 -338 141 -491q99 -105 256 -105h15q87 0 167.5 35t135.5 99 q81 93 113 223t32 299q0 129 -21.5 233t-67 187.5t-126 129.5t-190.5 46q-136 0 -234 -64q-221 -140 -221 -592zM449 1796l12 129l459 -258l-17 -104z" />
<glyph unicode="&#xd3;" horiz-adv-x="1425" d="M141 680q0 257 77 439t220 272q134 84 320 84q139 0 244.5 -49.5t172 -141.5t99.5 -218.5t33 -285.5q0 -181 -45 -348t-152 -278q-168 -174 -422 -174q-237 0 -371 143q-176 184 -176 557zM293 698q0 -338 141 -491q99 -105 256 -105h15q87 0 167.5 35t135.5 99 q81 93 113 223t32 299q0 129 -21.5 233t-67 187.5t-126 129.5t-190.5 46q-136 0 -234 -64q-221 -140 -221 -592zM571 1667l459 258l12 -129l-454 -233z" />
<glyph unicode="&#xd4;" horiz-adv-x="1425" d="M141 680q0 257 77 439t220 272q134 84 320 84q139 0 244.5 -49.5t172 -141.5t99.5 -218.5t33 -285.5q0 -181 -45 -348t-152 -278q-168 -174 -422 -174q-237 0 -371 143q-176 184 -176 557zM293 698q0 -338 141 -491q99 -105 256 -105h15q87 0 167.5 35t135.5 99 q81 93 113 223t32 299q0 129 -21.5 233t-67 187.5t-126 129.5t-190.5 46q-136 0 -234 -64q-221 -140 -221 -592zM418 1632l350 273l338 -275l-92 -76l-258 215l-269 -213z" />
<glyph unicode="&#xd5;" horiz-adv-x="1425" d="M141 680q0 257 77 439t220 272q134 84 320 84q139 0 244.5 -49.5t172 -141.5t99.5 -218.5t33 -285.5q0 -181 -45 -348t-152 -278q-168 -174 -422 -174q-237 0 -371 143q-176 184 -176 557zM293 698q0 -338 141 -491q99 -105 256 -105h15q87 0 167.5 35t135.5 99 q81 93 113 223t32 299q0 129 -21.5 233t-67 187.5t-126 129.5t-190.5 46q-136 0 -234 -64q-221 -140 -221 -592zM440 1645q31 118 86 165.5t119 47.5q39 0 127 -35l27 -11q53 -22 84 -22q72 0 112 129l82 -29q-55 -213 -205 -213q-39 0 -127 35l-26 10q-55 23 -84 23 q-71 0 -113 -129z" />
<glyph unicode="&#xd6;" horiz-adv-x="1425" d="M141 680q0 257 77 439t220 272q134 84 320 84q139 0 244.5 -49.5t172 -141.5t99.5 -218.5t33 -285.5q0 -181 -45 -348t-152 -278q-168 -174 -422 -174q-237 0 -371 143q-176 184 -176 557zM293 698q0 -338 141 -491q99 -105 256 -105h15q87 0 167.5 35t135.5 99 q81 93 113 223t32 299q0 129 -21.5 233t-67 187.5t-126 129.5t-190.5 46q-136 0 -234 -64q-221 -140 -221 -592zM473 1737q0 43 27 72.5t67 29.5q42 0 64 -27.5t22 -66.5q0 -44 -27 -74.5t-67 -30.5q-42 0 -64 28.5t-22 68.5zM860 1737q0 43 27 72.5t67 29.5q42 0 64 -27.5 t22 -66.5q0 -44 -27 -74.5t-67 -30.5t-63 28.5t-23 68.5z" />
<glyph unicode="&#xd7;" horiz-adv-x="1103" d="M104 262l365 365l-365 364l84 84l363 -366l364 366l84 -84l-366 -364l366 -365l-84 -82l-364 365l-363 -365z" />
<glyph unicode="&#xd8;" horiz-adv-x="1425" d="M137 -70l150 228q-146 189 -146 522q0 257 77 439t220 272q134 84 320 84q196 0 325 -101l162 246l84 -70l-166 -250q144 -181 144 -520q0 -424 -197 -626q-168 -174 -422 -174q-192 0 -321 102l-146 -221zM293 698q0 -255 82 -405l631 962q-104 99 -258 99 q-136 0 -234 -64q-221 -140 -221 -592zM442 199q97 -97 250 -97h13q87 0 167.5 35t135.5 99q81 93 113 223t32 299q0 260 -78 405z" />
<glyph unicode="&#xd9;" horiz-adv-x="1437" d="M207 702l26 752h146l-27 -745q-5 -173 4.5 -276.5t51.5 -174.5q90 -152 301 -152q167 0 268 107q36 39 59.5 91.5t34.5 126t14.5 125.5t6.5 144l26 754h139l-28 -795q-3 -97 -8 -155.5t-19.5 -133t-45 -134t-79.5 -111.5q-136 -145 -399 -145q-280 0 -395 192 q-56 88 -69.5 206t-6.5 324zM444 1796l13 129l458 -258l-16 -104z" />
<glyph unicode="&#xda;" horiz-adv-x="1437" d="M207 702l26 752h146l-27 -745q-5 -173 4.5 -276.5t51.5 -174.5q90 -152 301 -152q167 0 268 107q36 39 59.5 91.5t34.5 126t14.5 125.5t6.5 144l26 754h139l-28 -795q-3 -97 -8 -155.5t-19.5 -133t-45 -134t-79.5 -111.5q-136 -145 -399 -145q-277 0 -395 192 q-54 89 -68.5 208t-7.5 322zM565 1667l459 258l12 -129l-454 -233z" />
<glyph unicode="&#xdb;" horiz-adv-x="1437" d="M207 702l26 752h146l-27 -745q-5 -173 4.5 -276.5t51.5 -174.5q90 -152 301 -152q167 0 268 107q36 39 59.5 91.5t34.5 126t14.5 125.5t6.5 144l26 754h139l-28 -795q-3 -97 -8 -155.5t-19.5 -133t-45 -134t-79.5 -111.5q-136 -145 -399 -145q-280 0 -395 192 q-56 88 -69.5 206t-6.5 324zM412 1632l350 273l338 -275l-92 -76l-258 215l-269 -213z" />
<glyph unicode="&#xdc;" horiz-adv-x="1437" d="M207 702l26 752h146l-27 -745q-5 -173 4.5 -276.5t51.5 -174.5q90 -152 301 -152q167 0 268 107q36 39 59.5 91.5t34.5 126t14.5 125.5t6.5 144l26 754h139l-28 -795q-3 -97 -8 -155.5t-19.5 -133t-45 -134t-79.5 -111.5q-136 -145 -399 -145q-280 0 -395 192 q-56 88 -69.5 206t-6.5 324zM469 1737q0 43 27 72.5t67 29.5q42 0 64 -27.5t22 -66.5q0 -44 -27 -74.5t-67 -30.5q-42 0 -64 28.5t-22 68.5zM856 1737q0 43 27 72.5t67 29.5q42 0 64 -27.5t22 -66.5q0 -44 -27 -74.5t-67 -30.5t-63 28.5t-23 68.5z" />
<glyph unicode="&#xdd;" horiz-adv-x="1216" d="M78 1454h162l366 -670l404 670h145l-491 -805l-23 -649h-145l24 651zM434 1667l459 258l12 -129l-454 -233z" />
<glyph unicode="&#xde;" horiz-adv-x="1150" d="M211 0l51 1454h146l-9 -235h62q129 0 216 -20t159 -73q159 -119 159 -335q0 -128 -55 -239t-166 -177q-69 -42 -156.5 -56.5t-166.5 -1.5l4 109q165 -15 260 53q62 47 96.5 126.5t34.5 174.5q0 175 -115 258q-90 66 -270 66h-66l-39 -1104h-145z" />
<glyph unicode="&#xdf;" horiz-adv-x="1118" d="M-260 -414q40 -6 86 -6q156 0 244 143t98 416l27 785q7 172 48.5 301.5t112 208.5t161.5 118t202 39q138 0 222.5 -76.5t84.5 -177.5q0 -62 -26 -121t-65.5 -102t-85.5 -88.5t-85.5 -81.5t-65.5 -78.5t-26 -81.5q0 -88 125 -198l75 -68q90 -80 122 -139t32 -127 q0 -48 -21.5 -95t-62 -86.5t-108 -64t-150.5 -24.5q-127 0 -231 34l4 113q134 -43 231 -43q99 0 150 49.5t51 104.5q0 41 -23.5 83.5t-93.5 102.5l-76 68q-36 31 -56 51.5t-47 55t-39.5 74.5t-12.5 87q0 64 36 125t87.5 110.5t103 98.5t87.5 107.5t36 119.5q0 70 -56 115 t-139 45q-157 0 -262.5 -132.5t-114.5 -398.5l-22 -743q-10 -374 -129 -554.5t-348 -180.5q-40 0 -78 6z" />
<glyph unicode="&#xe0;" horiz-adv-x="946" d="M109 414q0 622 483 622q110 0 227 -20l-22 -279q-18 -187 -22.5 -332.5t-0.5 -402.5l-125 -6q-2 356 10 438q-12 -27 -28 -67q-82 -199 -168.5 -292t-161.5 -93q-84 0 -138 108.5t-54 323.5zM236 442q0 -155 29 -243t69 -88q46 0 118 102.5t134 253.5q81 208 92 367l6 86 q-82 10 -143 10q-150 0 -227.5 -126.5t-77.5 -361.5zM256 1499l23 129l385 -330l-23 -106z" />
<glyph unicode="&#xe1;" horiz-adv-x="946" d="M109 414q0 622 483 622q110 0 227 -20l-22 -279q-18 -187 -22.5 -332.5t-0.5 -402.5l-125 -6q-2 356 10 438q-12 -27 -28 -67q-82 -199 -168.5 -292t-161.5 -93q-84 0 -138 108.5t-54 323.5zM236 442q0 -155 29 -243t69 -88q46 0 118 102.5t134 253.5q81 208 92 367l6 86 q-82 10 -143 10q-150 0 -227.5 -126.5t-77.5 -361.5zM401 1282l387 332l21 -131l-385 -305z" />
<glyph unicode="&#xe2;" horiz-adv-x="946" d="M109 414q0 622 483 622q110 0 227 -20l-22 -279q-18 -187 -22.5 -332.5t-0.5 -402.5l-125 -6q-2 356 10 438q-4 -10 -13 -31t-15 -36q-82 -199 -168.5 -292t-161.5 -93q-84 0 -138 108.5t-54 323.5zM236 442q0 -155 29 -243t69 -88q46 0 118 102.5t134 253.5 q81 208 92 367l6 86q-82 10 -143 10q-150 0 -227.5 -126.5t-77.5 -361.5zM236 1253l323 344l272 -344l-81 -73l-207 266l-246 -266z" />
<glyph unicode="&#xe3;" horiz-adv-x="946" d="M109 414q0 622 483 622q110 0 227 -20l-22 -279q-18 -187 -22.5 -332.5t-0.5 -402.5l-125 -6q-2 356 10 438q-3 -8 -11.5 -28t-16.5 -39q-82 -199 -168.5 -292t-161.5 -93q-84 0 -138 108.5t-54 323.5zM236 442q0 -155 29 -243t69 -88q46 0 118 102.5t134 253.5 q81 208 92 367l6 86q-82 10 -143 10q-150 0 -227.5 -126.5t-77.5 -361.5zM244 1251q53 211 194 211q38 0 121 -35l25 -10q49 -22 78 -22q71 0 110 129l76 -27q-28 -116 -80 -162.5t-113 -46.5q-37 0 -120 35l-25 10q-56 21 -80 21q-13 0 -24.5 -4t-26.5 -15.5t-30 -39.5 t-27 -70z" />
<glyph unicode="&#xe4;" horiz-adv-x="946" d="M109 414q0 622 483 622q110 0 227 -20l-22 -279q-18 -187 -22.5 -332.5t-0.5 -402.5l-125 -6q-2 356 10 438q-12 -27 -28 -67q-82 -199 -168.5 -292t-161.5 -93q-84 0 -138 108.5t-54 323.5zM236 442q0 -155 29 -243t69 -88q46 0 118 102.5t134 253.5q81 208 92 367l6 86 q-82 10 -143 10q-150 0 -227.5 -126.5t-77.5 -361.5zM279 1370q0 44 26 72t66 28q42 0 63 -26.5t21 -65.5q0 -44 -26.5 -73t-66.5 -29q-42 0 -62.5 27t-20.5 67zM633 1370q0 44 26 72t66 28q42 0 63 -26.5t21 -65.5q0 -44 -26 -73t-66 -29q-41 0 -62.5 27t-21.5 67z" />
<glyph unicode="&#xe5;" horiz-adv-x="946" d="M109 414q0 622 483 622q110 0 227 -20l-22 -279q-18 -187 -22.5 -332.5t-0.5 -402.5l-125 -6q-2 356 10 438q-12 -27 -28 -67q-82 -199 -168.5 -292t-161.5 -93q-84 0 -138 108.5t-54 323.5zM236 442q0 -155 29 -243t69 -88q46 0 118 102.5t134 253.5q81 208 92 367l6 86 q-82 10 -143 10q-150 0 -227.5 -126.5t-77.5 -361.5zM332 1374q0 115 64.5 185.5t162.5 70.5q91 0 145 -58t54 -155q0 -114 -65 -185t-163 -71q-91 0 -144.5 58t-53.5 155zM438 1382q0 -66 26 -103.5t73 -37.5q48 0 81 41.5t33 126.5q0 66 -25.5 103.5t-72.5 37.5 q-49 0 -82 -41.5t-33 -126.5z" />
<glyph unicode="&#xe6;" horiz-adv-x="1421" d="M109 414q0 137 24 244.5t65.5 177.5t99.5 116t122.5 65t138.5 19q133 0 289 -69q104 77 235 77q120 0 180 -63.5t60 -149.5q0 -57 -23 -107t-72.5 -94.5t-139 -75.5t-211.5 -44l-99 -10q0 -65 4 -116.5t18.5 -108.5t38.5 -95t66.5 -63t100.5 -25q111 0 264 96l12 -106 q-159 -100 -301 -100q-314 0 -328 428q-35 -87 -47 -113q-77 -156 -159 -235.5t-146 -79.5q-84 0 -138 108.5t-54 323.5zM236 442q0 -155 29 -243t69 -88q50 0 117.5 100.5t132.5 253.5q84 199 108 344l13 86q-76 37 -170 37q-142 0 -220.5 -126.5t-78.5 -363.5zM780 594 l103 12q317 35 317 213q0 58 -39.5 91.5t-105.5 33.5q-109 0 -186 -93t-89 -257z" />
<glyph unicode="&#xe7;" horiz-adv-x="827" d="M109 467q0 91 13 173t43.5 157.5t76 130t115 87t155.5 32.5q98 0 205 -39l-19 -107q-107 39 -190 39q-93 0 -155 -61.5t-88.5 -159t-26.5 -225.5q0 -206 59.5 -306t155.5 -100q99 0 252 92l12 -106q-151 -94 -287 -94q-150 0 -235.5 117.5t-85.5 369.5zM287 -483l6 92 q66 -35 115 -35q40 0 66 30t26 70q0 120 -189 156l23 78q79 -9 137 -33t88.5 -57t44.5 -67.5t14 -72.5q0 -79 -58 -136.5t-150 -57.5q-67 0 -123 33z" />
<glyph unicode="&#xe8;" horiz-adv-x="880" d="M109 453q0 125 26.5 231t78.5 187t136.5 127t192.5 46q120 0 179.5 -63.5t59.5 -149.5q0 -57 -23 -107t-72.5 -94.5t-139 -75.5t-211.5 -44l-98 -10q-1 -53 2 -97t11 -93.5t24.5 -87t40.5 -69t62 -48.5t87 -17q104 0 264 98l12 -104q-159 -100 -301 -100q-331 0 -331 471 zM217 1499l23 129l385 -330l-23 -106zM240 594l102 12q315 35 315 213q0 58 -38.5 91.5t-104.5 33.5q-109 0 -185.5 -93t-88.5 -257z" />
<glyph unicode="&#xe9;" horiz-adv-x="880" d="M109 453q0 125 26.5 231t78.5 187t136.5 127t192.5 46q120 0 179.5 -63.5t59.5 -149.5q0 -57 -23 -107t-72.5 -94.5t-139 -75.5t-211.5 -44l-98 -10q-1 -53 2 -97t11 -93.5t24.5 -87t40.5 -69t62 -48.5t87 -17q104 0 264 98l12 -104q-159 -100 -301 -100q-331 0 -331 471 zM240 594l102 12q315 35 315 213q0 58 -38.5 91.5t-104.5 33.5q-109 0 -185.5 -93t-88.5 -257zM365 1282l387 332l20 -131l-385 -305z" />
<glyph unicode="&#xea;" horiz-adv-x="880" d="M109 453q0 125 26.5 231t78.5 187t136.5 127t192.5 46q120 0 179.5 -63.5t59.5 -149.5q0 -57 -23 -107t-72.5 -94.5t-139 -75.5t-211.5 -44l-98 -10q-1 -53 2 -97t11 -93.5t24.5 -87t40.5 -69t62 -48.5t87 -17q104 0 264 98l12 -104q-159 -100 -301 -100q-331 0 -331 471 zM197 1253l323 344l273 -344l-82 -73l-207 266l-246 -266zM240 594l102 12q315 35 315 213q0 58 -38.5 91.5t-104.5 33.5q-109 0 -185.5 -93t-88.5 -257z" />
<glyph unicode="&#xeb;" horiz-adv-x="880" d="M109 453q0 125 26.5 231t78.5 187t136.5 127t192.5 46q120 0 179.5 -63.5t59.5 -149.5q0 -57 -23 -107t-72.5 -94.5t-139 -75.5t-211.5 -44l-98 -10q-1 -53 2 -97t11 -93.5t24.5 -87t40.5 -69t62 -48.5t87 -17q104 0 264 98l12 -104q-159 -100 -301 -100q-331 0 -331 471 zM240 594l102 12q315 35 315 213q0 58 -38.5 91.5t-104.5 33.5q-109 0 -185.5 -93t-88.5 -257zM240 1370q0 44 26 72t66 28q42 0 63 -26.5t21 -65.5q0 -44 -26 -73t-66 -29q-42 0 -63 27t-21 67zM594 1370q0 44 26 72t66 28q42 0 63 -26.5t21 -65.5q0 -44 -26 -73t-66 -29 q-41 0 -62.5 27t-21.5 67z" />
<glyph unicode="&#xec;" horiz-adv-x="442" d="M6 1538l49 125l310 -406l-43 -98zM127 -2q0 185 14 387l17 225q7 104 10.5 206t3.5 152v50l127 12q0 -189 -14 -389l-15 -225q-7 -105 -11 -208t-5 -154v-50z" />
<glyph unicode="&#xed;" horiz-adv-x="442" d="M127 -2q0 185 14 387l17 225q7 104 10.5 206t3.5 152v50l127 12q0 -189 -14 -389l-15 -225q-7 -105 -11 -208t-5 -154v-50zM133 1243l309 404l50 -123l-314 -381z" />
<glyph unicode="&#xee;" horiz-adv-x="442" d="M-57 1253l323 344l273 -344l-82 -73l-207 266l-246 -266zM127 -2q0 185 14 387l17 225q7 104 10.5 206t3.5 152v50l127 12q0 -189 -14 -389l-17 -225q-6 -105 -9.5 -208t-4.5 -154v-50z" />
<glyph unicode="&#xef;" horiz-adv-x="442" d="M-14 1370q0 44 26 72t66 28q42 0 63 -26.5t21 -65.5q0 -44 -26 -73t-66 -29q-42 0 -63 27t-21 67zM127 -2q0 185 14 387l17 225q7 104 10.5 206t3.5 152v50l127 12q0 -189 -14 -389l-17 -225q-6 -105 -9.5 -208t-4.5 -154v-50zM340 1370q0 44 26 72t66 28q42 0 63 -26.5 t21 -65.5q0 -44 -26 -73t-66 -29q-41 0 -62.5 27t-21.5 67z" />
<glyph unicode="&#xf0;" horiz-adv-x="958" d="M109 422q0 245 103.5 378.5t301.5 133.5q102 0 203 -37q-31 249 -152 391l-248 -188l-57 80l234 176q-141 116 -355 131l21 102q118 -3 230.5 -44t203.5 -113l162 122l57 -77l-149 -113q196 -232 196 -647q0 -140 -23.5 -259.5t-64.5 -206.5t-96.5 -148.5t-120.5 -92 t-135 -30.5q-134 0 -222.5 116.5t-88.5 325.5zM238 449q0 -171 56.5 -264t137.5 -93q73 0 137 58q158 148 158 512q0 79 -2 122q-118 45 -215 45q-129 0 -200.5 -99.5t-71.5 -280.5z" />
<glyph unicode="&#xf1;" horiz-adv-x="970" d="M129 -2l23 268q27 304 36 756l125 12q-10 -346 -22 -469q20 54 80 164q90 163 166.5 239t152.5 76q175 0 144 -342l-25 -292q-16 -180 -16 -406l-129 -6q0 160 16 381l25 295q18 235 -58 235q-38 0 -100.5 -71.5t-147.5 -227.5q-69 -128 -96 -219.5t-37 -208.5l-12 -178z M229 1251q53 211 195 211q38 0 121 -35l24 -10q49 -22 78 -22q72 0 111 129l76 -27q-28 -116 -80 -162.5t-113 -46.5q-38 0 -121 35l-24 10q-56 21 -80 21q-14 0 -25 -4t-26.5 -15.5t-30.5 -39.5t-27 -70z" />
<glyph unicode="&#xf2;" horiz-adv-x="931" d="M98 434q0 131 22.5 236.5t61.5 174.5t93 115.5t114.5 66.5t128.5 20q64 0 119.5 -27t100.5 -81t70.5 -143t25.5 -204q0 -160 -34 -281t-93.5 -191.5t-133 -105t-159.5 -34.5q-135 0 -225.5 115t-90.5 339zM221 1509l23 129l385 -329l-23 -107zM229 477q0 -206 60 -298.5 t160 -92.5q35 0 69 14t68 48t60 85.5t42.5 133t16.5 182.5q0 206 -61 298.5t-159 92.5q-35 0 -69.5 -14t-68.5 -48t-60 -85.5t-42 -133t-16 -182.5z" />
<glyph unicode="&#xf3;" horiz-adv-x="931" d="M98 434q0 131 22.5 236.5t61.5 174.5t93 115.5t114.5 66.5t128.5 20q64 0 119.5 -27t100.5 -81t70.5 -143t25.5 -204q0 -160 -34 -281t-93.5 -191.5t-133 -105t-159.5 -34.5q-135 0 -225.5 115t-90.5 339zM229 477q0 -206 60 -298.5t160 -92.5q35 0 69 14t68 48t60 85.5 t42.5 133t16.5 182.5q0 206 -61 298.5t-159 92.5q-35 0 -69.5 -14t-68.5 -48t-60 -85.5t-42 -133t-16 -182.5zM367 1292l387 332l20 -131l-385 -305z" />
<glyph unicode="&#xf4;" horiz-adv-x="931" d="M98 434q0 131 22.5 236.5t61.5 174.5t93 115.5t114.5 66.5t128.5 20q64 0 119.5 -27t100.5 -81t70.5 -143t25.5 -204q0 -160 -34 -281t-93.5 -191.5t-133 -105t-159.5 -34.5q-135 0 -225.5 115t-90.5 339zM201 1264l323 344l273 -344l-82 -74l-207 266l-246 -266z M229 477q0 -206 60 -298.5t160 -92.5q35 0 69 14t68 48t60 85.5t42.5 133t16.5 182.5q0 206 -61 298.5t-159 92.5q-35 0 -69.5 -14t-68.5 -48t-60 -85.5t-42 -133t-16 -182.5z" />
<glyph unicode="&#xf5;" horiz-adv-x="931" d="M98 434q0 131 22.5 236.5t61.5 174.5t93 115.5t114.5 66.5t128.5 20q64 0 119.5 -27t100.5 -81t70.5 -143t25.5 -204q0 -160 -34 -281t-93.5 -191.5t-133 -105t-159.5 -34.5q-135 0 -225.5 115t-90.5 339zM209 1262q53 211 194 211q38 0 121 -35l25 -11q49 -22 78 -22 q71 0 110 129l76 -27q-50 -209 -192 -209q-38 0 -121 35l-25 10q-56 21 -80 21q-13 0 -24.5 -4t-26.5 -15.5t-30 -39.5t-27 -70zM229 477q0 -206 60 -298.5t160 -92.5q35 0 69 14t68 48t60 85.5t42.5 133t16.5 182.5q0 206 -61 298.5t-159 92.5q-35 0 -69.5 -14t-68.5 -48 t-60 -85.5t-42 -133t-16 -182.5z" />
<glyph unicode="&#xf6;" horiz-adv-x="931" d="M98 434q0 131 22.5 236.5t61.5 174.5t93 115.5t114.5 66.5t128.5 20q64 0 119.5 -27t100.5 -81t70.5 -143t25.5 -204q0 -160 -34 -281t-93.5 -191.5t-133 -105t-159.5 -34.5q-135 0 -225.5 115t-90.5 339zM229 477q0 -206 60 -298.5t160 -92.5q35 0 69 14t68 48t60 85.5 t42.5 133t16.5 182.5q0 206 -61 298.5t-159 92.5q-35 0 -69.5 -14t-68.5 -48t-60 -85.5t-42 -133t-16 -182.5zM244 1380q0 44 26 72.5t66 28.5q42 0 63 -26.5t21 -65.5q0 -44 -26 -73.5t-66 -29.5q-42 0 -63 27t-21 67zM598 1380q0 44 26 72.5t66 28.5q42 0 63 -26.5 t21 -65.5q0 -44 -26 -73.5t-66 -29.5q-41 0 -62.5 27t-21.5 67z" />
<glyph unicode="&#xf7;" horiz-adv-x="1140" d="M66 571v119h972v-119h-972zM477 256q0 36 25 60t63 24q37 0 59.5 -27t22.5 -63q0 -37 -24.5 -61.5t-63.5 -24.5q-37 0 -59.5 27t-22.5 65zM477 1001q0 36 25.5 62.5t62.5 26.5t59.5 -29t22.5 -66q0 -36 -24.5 -60t-63.5 -24q-37 0 -59.5 26t-22.5 64z" />
<glyph unicode="&#xf8;" horiz-adv-x="923" d="M45 -104l129 221q-76 120 -76 317q0 131 22.5 236.5t61.5 174.5t93 115.5t114.5 66.5t128.5 20q92 0 168 -58l113 195l86 -49l-129 -220q78 -118 78 -323q0 -160 -34 -281t-93.5 -191.5t-133 -105t-159.5 -34.5q-99 0 -172 61l-111 -191zM229 477q0 -125 27 -221l367 623 q-52 61 -138 61q-44 0 -86.5 -24t-82 -75t-63.5 -145t-24 -219zM305 152q55 -66 141 -66q35 0 69.5 14t69.5 48t61 85.5t42.5 133t16.5 182.5q0 135 -33 229z" />
<glyph unicode="&#xf9;" horiz-adv-x="970" d="M135 328l27 293q16 200 16 401l127 12q0 -187 -16 -383l-23 -293q-9 -115 2.5 -178t55.5 -63q36 0 99 73.5t148 229.5q68 128 94.5 219.5t36.5 208.5l15 174l125 12l-23 -270q-31 -345 -39 -760l-125 -6q9 330 23 467q-18 -55 -78 -162q-90 -164 -167.5 -242.5 t-151.5 -78.5q-173 0 -146 346zM252 1499l22 129l385 -330l-22 -106z" />
<glyph unicode="&#xfa;" horiz-adv-x="970" d="M135 328l27 293q16 200 16 401l127 12q0 -187 -16 -383l-23 -293q-9 -115 2.5 -178t55.5 -63q36 0 99 73.5t148 229.5q68 128 94.5 219.5t36.5 208.5l15 174l125 12l-23 -270q-31 -345 -39 -760l-125 -6q9 330 23 467q-18 -55 -78 -162q-90 -164 -167.5 -242.5 t-151.5 -78.5q-173 0 -146 346zM397 1282l387 332l21 -131l-385 -305z" />
<glyph unicode="&#xfb;" horiz-adv-x="970" d="M135 328l27 293q16 200 16 401l127 12q0 -187 -16 -383l-23 -293q-9 -115 2.5 -178t55.5 -63q36 0 99 73.5t148 229.5q68 128 94.5 219.5t36.5 208.5l15 174l125 12l-23 -270q-31 -345 -39 -760l-125 -6q9 330 23 467q-18 -55 -78 -162q-90 -164 -167.5 -242.5 t-151.5 -78.5q-173 0 -146 346zM231 1253l324 344l272 -344l-82 -73l-206 266l-246 -266z" />
<glyph unicode="&#xfc;" horiz-adv-x="970" d="M135 328l27 293q16 200 16 401l127 12q0 -187 -16 -383l-23 -293q-9 -115 2.5 -178t55.5 -63q36 0 99 73.5t148 229.5q68 128 94.5 219.5t36.5 208.5l15 174l125 12l-23 -270q-31 -345 -39 -760l-125 -6q9 330 23 467q-18 -55 -78 -162q-90 -164 -167.5 -242.5 t-151.5 -78.5q-173 0 -146 346zM274 1370q0 44 26.5 72t66.5 28q42 0 63 -26.5t21 -65.5q0 -44 -26.5 -73t-66.5 -29q-42 0 -63 27t-21 67zM629 1370q0 44 26 72t66 28q42 0 63 -26.5t21 -65.5q0 -44 -26 -73t-66 -29q-41 0 -62.5 27t-21.5 67z" />
<glyph unicode="&#xfd;" horiz-adv-x="931" d="M-193 -510l15 113q47 -9 98 -9q75 0 155.5 31t143.5 96q63 64 84 164t21 244q0 69 -14.5 162t-46.5 212.5t-98 246.5t-155 225l111 76q88 -100 153.5 -224.5t101 -244t52 -224t16.5 -192.5q0 -190 -38 -303q132 156 212 352.5t80 353.5q0 252 -100 422l109 68 q116 -183 116 -457q0 -147 -51 -307.5t-142 -303.5t-205.5 -258t-253 -183t-273.5 -68q-55 0 -91 8zM262 1282l387 332l21 -131l-385 -305z" />
<glyph unicode="&#xfe;" horiz-adv-x="956" d="M100 -516l43 805l52 1276l122 14l-32 -766q-11 -225 -13 -244q3 9 37 90q79 189 174.5 288.5t167.5 99.5q86 0 141.5 -108t55.5 -310q0 -322 -120 -480.5t-378 -158.5q-34 0 -96 4l-29 -504zM256 109q84 -13 150 -13q150 0 231.5 124.5t81.5 348.5q0 90 -9.5 159 t-24.5 107.5t-32.5 57t-36.5 18.5q-40 0 -106 -77t-129 -216q-60 -125 -87.5 -222.5t-33.5 -202.5q-1 -14 -1.5 -37t-1 -35t-1.5 -12z" />
<glyph unicode="&#xff;" horiz-adv-x="931" d="M-193 -510l15 113q47 -9 98 -9q75 0 155.5 31t143.5 96q63 64 84 164t21 244q0 69 -14.5 162t-46.5 212.5t-98 246.5t-155 225l111 76q88 -100 153.5 -224.5t101 -244t52 -224t16.5 -192.5q0 -190 -38 -303q132 156 212 352.5t80 353.5q0 252 -100 422l109 68 q116 -183 116 -457q0 -147 -51 -307.5t-142 -303.5t-205.5 -258t-253 -183t-273.5 -68q-55 0 -91 8zM139 1370q0 44 26 72t66 28q42 0 63 -26.5t21 -65.5q0 -44 -26 -73t-66 -29q-42 0 -63 27t-21 67zM494 1370q0 44 26 72t66 28q42 0 63 -26.5t21 -65.5q0 -44 -26 -73 t-66 -29q-41 0 -62.5 27t-21.5 67z" />
<glyph unicode="&#x152;" horiz-adv-x="1857" d="M141 680q0 255 78.5 436t222.5 270q141 89 318 89q110 0 223 -21h703l-7 -113h-528l-18 -546h489l-6 -109h-488l-20 -573h567l-14 -113h-727q-130 -20 -246 -20q-234 0 -371 143q-176 187 -176 557zM293 698q0 -338 143 -491q47 -50 114.5 -77.5t141.5 -27.5h15 q121 0 256 31l43 1186q-122 35 -254 35q-133 0 -234 -66q-112 -71 -168.5 -223.5t-56.5 -366.5z" />
<glyph unicode="&#x153;" horiz-adv-x="1470" d="M98 434q0 131 22.5 236.5t61.5 174.5t93 115.5t114.5 66.5t128.5 20q87 0 158.5 -51t111.5 -152q116 200 345 200q120 0 179.5 -63.5t59.5 -149.5q0 -57 -23 -107t-73 -94.5t-139.5 -75.5t-212.5 -44l-97 -10q-9 -408 228 -408q109 0 264 96l12 -104q-158 -102 -301 -102 q-213 0 -287 198q-112 -200 -329 -200q-135 0 -225.5 115t-90.5 339zM229 477q0 -206 60 -298.5t160 -92.5q35 0 69 14t68 48t60 85.5t42.5 133t16.5 182.5q0 206 -61 298.5t-159 92.5q-35 0 -69.5 -14t-68.5 -48t-60 -85.5t-42 -133t-16 -182.5zM829 594l103 12 q315 35 315 213q0 58 -39.5 91.5t-105.5 33.5q-108 0 -185.5 -93.5t-87.5 -256.5z" />
<glyph unicode="&#x178;" horiz-adv-x="1216" d="M78 1454h162l366 -670l404 670h145l-491 -805l-23 -649h-145l24 651zM336 1737q0 43 27 72.5t67 29.5q42 0 64 -27.5t22 -66.5q0 -44 -27 -74.5t-67 -30.5q-42 0 -64 28.5t-22 68.5zM723 1737q0 43 27 72.5t67 29.5q42 0 64 -27.5t22 -66.5q0 -44 -27 -74.5t-67 -30.5 t-63 28.5t-23 68.5z" />
<glyph unicode="&#x2c6;" horiz-adv-x="800" d="M102 1253l324 344l272 -344l-82 -73l-206 266l-246 -266z" />
<glyph unicode="&#x2dc;" horiz-adv-x="808" d="M102 1251q53 211 195 211q38 0 121 -35l24 -10q49 -22 78 -22q72 0 111 129l76 -27q-28 -116 -80 -162.5t-113 -46.5q-38 0 -121 35l-24 10q-56 21 -80 21q-14 0 -25 -4t-26.5 -15.5t-30.5 -39.5t-27 -70z" />
<glyph unicode="&#x2000;" horiz-adv-x="980" />
<glyph unicode="&#x2001;" horiz-adv-x="1960" />
<glyph unicode="&#x2002;" horiz-adv-x="980" />
<glyph unicode="&#x2003;" horiz-adv-x="1960" />
<glyph unicode="&#x2004;" horiz-adv-x="653" />
<glyph unicode="&#x2005;" horiz-adv-x="490" />
<glyph unicode="&#x2006;" horiz-adv-x="326" />
<glyph unicode="&#x2007;" horiz-adv-x="326" />
<glyph unicode="&#x2008;" horiz-adv-x="245" />
<glyph unicode="&#x2009;" horiz-adv-x="392" />
<glyph unicode="&#x200a;" horiz-adv-x="108" />
<glyph unicode="&#x2010;" horiz-adv-x="585" d="M43 504l4 110h496l-2 -110h-498z" />
<glyph unicode="&#x2011;" horiz-adv-x="585" d="M43 504l4 110h496l-2 -110h-498z" />
<glyph unicode="&#x2012;" horiz-adv-x="585" d="M43 504l4 110h496l-2 -110h-498z" />
<glyph unicode="&#x2013;" horiz-adv-x="1024" d="M41 494v135h942v-135h-942z" />
<glyph unicode="&#x2014;" horiz-adv-x="2048" d="M41 494v135h1966v-135h-1966z" />
<glyph unicode="&#x2018;" horiz-adv-x="436" d="M102 1343q0 30 6 58.5t26 76t68 110.5t122 136l92 -59q-229 -238 -137 -379q8 -13 19.5 -26.5t19.5 -21.5l8 -7q-34 -60 -93 -60q-61 0 -96 52t-35 120z" />
<glyph unicode="&#x2019;" horiz-adv-x="436" d="M20 1094q229 239 138 379q-8 13 -19.5 26.5t-19.5 20.5l-8 8q33 59 92 59q61 0 96 -52t35 -120q0 -31 -6 -59t-25.5 -75.5t-67.5 -110.5t-122 -136z" />
<glyph unicode="&#x201a;" horiz-adv-x="436" d="M20 -262q229 239 138 379q-8 13 -19.5 26.5t-19.5 20.5l-8 8q33 59 92 59q61 0 96 -52t35 -120q0 -31 -6 -59t-25.5 -75.5t-67.5 -110.5t-122 -136z" />
<glyph unicode="&#x201c;" horiz-adv-x="798" d="M100 1337q0 30 6 58.5t26 75.5t68 110t122 137l92 -59q-227 -240 -138 -381q8 -14 20 -27.5t20 -20.5l8 -7q-34 -58 -93 -58q-61 0 -96 52t-35 120zM479 1333q0 33 5.5 61.5t24.5 74t65.5 103t117.5 122.5l86 -58q-66 -66 -104 -121.5t-47 -98.5t-2.5 -75t26.5 -63 q9 -14 20.5 -27.5t18.5 -20.5t8 -7q-38 -58 -92 -58q-58 0 -92.5 51.5t-34.5 116.5z" />
<glyph unicode="&#x201d;" horiz-adv-x="798" d="M20 1124q66 66 104 121.5t47 98.5t2.5 75.5t-26.5 63.5q-9 14 -20.5 27.5t-18.5 20.5t-8 7q38 57 93 57q58 0 92 -51.5t34 -116.5q0 -33 -5.5 -61t-24.5 -73.5t-65.5 -103t-117.5 -122.5zM385 1102q226 240 137 381q-8 14 -20 27.5t-20 20.5l-7 7q34 57 92 57 q61 0 96 -52t35 -120q0 -31 -6 -59t-25.5 -75t-67.5 -110t-122 -137z" />
<glyph unicode="&#x201e;" horiz-adv-x="798" d="M20 -240q66 66 104 121.5t47 98.5t2.5 75.5t-26.5 63.5q-9 14 -20.5 27.5t-18.5 20.5t-8 7q38 57 93 57q58 0 92 -51.5t34 -116.5q0 -33 -5.5 -61t-24.5 -73.5t-65.5 -103t-117.5 -122.5zM385 -262q226 240 137 381q-8 14 -20 27.5t-20 20.5l-7 7q34 57 92 57 q61 0 96 -52t35 -120q0 -31 -6 -59t-25.5 -75t-67.5 -110t-122 -137z" />
<glyph unicode="&#x2022;" horiz-adv-x="477" d="M82 670q0 67 45 112t115 45q67 0 109 -49.5t42 -118.5q0 -64 -47.5 -107.5t-116.5 -43.5q-66 0 -106.5 48t-40.5 114z" />
<glyph unicode="&#x2026;" horiz-adv-x="1140" d="M129 92q0 43 29.5 74t77.5 31q43 0 70.5 -32t27.5 -79q0 -45 -30 -74.5t-75 -29.5q-44 0 -72 32t-28 78zM467 92q0 43 29 74t77 31q43 0 71 -32t28 -79q0 -45 -30 -74.5t-75 -29.5q-44 0 -72 32t-28 78zM807 92q0 43 29 74t75 31q45 0 73 -32t28 -79q0 -45 -30.5 -74.5 t-76.5 -29.5q-42 0 -70 32t-28 78z" />
<glyph unicode="&#x202f;" horiz-adv-x="392" />
<glyph unicode="&#x2039;" horiz-adv-x="614" d="M59 535l373 475l86 -78l-309 -389l289 -410l-97 -80z" />
<glyph unicode="&#x203a;" horiz-adv-x="614" d="M96 135l310 389l-289 410l96 80l342 -482l-373 -475z" />
<glyph unicode="&#x205f;" horiz-adv-x="490" />
<glyph unicode="&#x20ac;" d="M80 526l4 88h119q-6 121 6 240h-117l4 86h127q19 139 67.5 243.5t118.5 167.5t153.5 93.5t180.5 30.5q148 0 261 -54l-15 -116q-131 53 -248 53q-311 0 -366 -418h477l-4 -86h-488q-12 -118 -6 -240h484l-4 -88h-476q17 -218 107.5 -323t232.5 -105q129 0 287 88 l-12 -127q-128 -79 -293 -79q-216 0 -339 140.5t-136 405.5h-125z" />
<glyph unicode="&#x2122;" horiz-adv-x="1783" d="M61 1360l5 94h600l-11 -94h-241l-29 -774h-109l29 774h-244zM760 586l63 868h140l243 -731l318 731h139l-2 -868h-113v682l-297 -682h-106l-232 684l-49 -684h-104z" />
<glyph unicode="&#x25fc;" horiz-adv-x="1064" d="M0 0v1065h1065v-1065h-1065z" />
<glyph unicode="&#xfb01;" horiz-adv-x="1019" d="M-240 -414q41 -6 101 -6q141 0 229 140.5t98 418.5l29 764h-188l8 92l184 4l4 93q11 169 51 262q50 123 147.5 180t225.5 57q96 0 182 -28l-14 -103q-96 27 -176 27q-204 0 -264 -187q-24 -82 -29 -190l-4 -111h244v-96h-248l-23 -694q-12 -372 -131.5 -553.5 t-345.5 -181.5q-40 0 -78 6zM711 -2q0 185 14 387l16 225q7 104 11 206t4 152v50l129 12q0 -144 -15 -389l-16 -225q-7 -105 -10.5 -208t-3.5 -154v-50z" />
<glyph unicode="&#xfb02;" horiz-adv-x="1024" d="M-240 -414q41 -6 101 -6q141 0 229 140.5t98 418.5l29 764h-188l8 92l184 4l4 93q12 175 49 262q50 124 142 180.5t211 56.5q82 0 161 -26l113 14l-47 -1163q-5 -105 -6.5 -208t-0.5 -154l1 -50l-127 -6q0 248 6 387l45 1075q-85 27 -151 27q-185 0 -246 -189 q-22 -75 -27 -188l-4 -111h244v-96h-248l-23 -694q-12 -372 -131.5 -553.5t-345.5 -181.5q-40 0 -78 6z" />
<glyph unicode="&#xfb03;" horiz-adv-x="1519" d="M-240 -414q41 -6 101 -6q141 0 229 140.5t98 418.5l29 764h-188l8 92l182 4l4 80q13 213 68 305q103 168 325 168q137 0 283 -63q108 102 283 102q100 0 182 -28l-12 -103q-96 27 -178 27q-205 0 -263 -187q-25 -74 -28 -190l-4 -111h241v-96h-246l-20 -782 q-3 -96 -17 -178t-46 -159.5t-80 -131.5t-123 -86.5t-170 -32.5q-135 0 -275 68q-118 -127 -303 -127q-40 0 -78 6zM207 -307q107 -51 217 -51q286 0 299 417l29 844h-412l-23 -694q-12 -336 -110 -516zM344 999h410l6 93q12 204 71 309q-111 47 -217 47q-152 0 -219 -111 q-40 -66 -47 -227zM1245 -2q0 170 15 387l16 225q6 104 9.5 206t4.5 152v50l127 12q0 -189 -14 -389l-17 -225q-7 -105 -10.5 -208t-3.5 -154v-50z" />
<glyph unicode="&#xfb04;" horiz-adv-x="1556" d="M-240 -414q41 -6 101 -6q141 0 229 140.5t98 418.5l29 764h-188l8 92l182 4l4 80q13 213 68 305q103 168 325 168q134 0 279 -61q100 100 266 100q81 0 160 -26l115 14l-50 -1163q-4 -105 -5.5 -208t-0.5 -154v-50l-125 -6q0 252 7 387l45 1075q-85 27 -152 27 q-188 0 -246 -189q-23 -68 -26 -188l-4 -111h241v-96h-246l-20 -782q-3 -96 -17 -178t-46 -159.5t-80 -131.5t-123 -86.5t-170 -32.5q-135 0 -275 68q-118 -127 -303 -127q-40 0 -78 6zM207 -307q107 -51 217 -51q286 0 299 417l29 844h-412l-23 -694q-12 -336 -110 -516z M344 999h410l6 93q12 210 67 309q-108 47 -213 47q-152 0 -219 -111q-40 -66 -47 -227z" />
</font>
</defs>
</svg>
