<?xml version="1.0" standalone="no"?>
<!DOCTYPE svg PUBLIC "-//W3C//DTD SVG 1.1//EN" "http://www.w3.org/Graphics/SVG/1.1/DTD/svg11.dtd" >
<svg xmlns="http://www.w3.org/2000/svg">
<metadata></metadata>
<defs>
<font id="novel_sans_prosemibold_italic" horiz-adv-x="1126" >
<font-face units-per-em="2048" ascent="1638" descent="-410" />
<missing-glyph horiz-adv-x="331" />
<glyph horiz-adv-x="0" />
<glyph horiz-adv-x="682" />
<glyph unicode=" "  horiz-adv-x="331" />
<glyph unicode="&#x09;" horiz-adv-x="331" />
<glyph unicode="&#xa0;" horiz-adv-x="331" />
<glyph unicode="!" horiz-adv-x="608" d="M139 135q0 62 40 103t106 41q62 0 101.5 -42.5t39.5 -107.5q0 -62 -40.5 -102.5t-104.5 -40.5q-63 0 -102.5 42t-39.5 107zM207 463q-8 381 2 719l6 272h244l-13 -272q-12 -286 -53 -701z" />
<glyph unicode="&#x22;" horiz-adv-x="735" d="M100 961q-6 143 0 311l6 182h189l-12 -182q-4 -75 -13 -152.5t-16 -117.5l-6 -41h-148zM449 961q-6 143 0 311l6 182h188l-12 -182q-4 -75 -13 -152.5t-16 -117.5l-6 -41h-147z" />
<glyph unicode="#" d="M45 276l18 160h164l58 422h-164l18 160h166l35 266h174l-37 -266h268l37 266h174l-36 -266h161l-18 -160h-162l-57 -422h162l-19 -160h-164l-35 -276h-176l37 276h-268l-37 -276h-174l37 276h-162zM401 436h269l57 422h-268z" />
<glyph unicode="$" d="M117 74l2 200q190 -77 327 -81l33 460q-175 85 -247 185t-72 217q0 154 113 264t307 131l14 195l108 -7l-12 -186q138 -4 279 -55l-27 -185q-142 46 -266 54l-31 -432q338 -163 338 -410q0 -69 -26 -136.5t-76.5 -128t-138 -103t-199.5 -52.5l-11 -190l-110 6l12 182 q-170 7 -317 72zM408 1083q0 -58 27.5 -102t105.5 -92l26 368q-75 -14 -117 -62.5t-42 -111.5zM557 201q82 19 124 73t42 117q0 60 -28.5 107.5t-110.5 97.5z" />
<glyph unicode="%" horiz-adv-x="1613" d="M113 1075q0 181 87 290.5t228 109.5q126 0 203.5 -88.5t77.5 -241.5q0 -181 -87 -290.5t-229 -109.5q-125 0 -202.5 88.5t-77.5 241.5zM281 1100q0 -105 33.5 -161t91.5 -56q65 0 100 63t35 174q0 105 -33.5 160t-91.5 55q-64 0 -99.5 -62.5t-35.5 -172.5zM406 -8 l731 1583l102 -62l-731 -1583zM907 309q0 181 86.5 290.5t229.5 109.5q125 0 201.5 -88.5t76.5 -241.5q0 -181 -86.5 -290t-228.5 -109q-125 0 -202 88t-77 241zM1073 334q0 -105 33.5 -160t93.5 -55q64 0 98.5 62.5t34.5 172.5q0 106 -33 161.5t-92 55.5q-64 0 -99.5 -63.5 t-35.5 -173.5z" />
<glyph unicode="&#x26;" horiz-adv-x="1499" d="M102 375q0 246 273 403q-82 105 -113 178.5t-31 139.5q0 158 115.5 269.5t298.5 111.5q156 0 244 -92.5t88 -217.5q0 -237 -291 -411q216 -234 309 -320q61 85 91 199.5t30 236.5q0 52 -8 150h219q12 -68 12 -152q0 -151 -45.5 -300t-138.5 -267q150 -113 295 -127 l-39 -182q-118 -6 -209.5 26.5t-204.5 116.5q-88 -75 -203 -116t-239 -41q-92 0 -168.5 23.5t-128 62.5t-87.5 90.5t-52.5 106.5t-16.5 112zM319 412q0 -98 73 -170t196 -72q68 0 137.5 27t120.5 77q-160 149 -369 381q-158 -102 -158 -243zM451 1124q0 -58 26 -111.5 t101 -142.5q200 109 200 265q0 70 -41 119t-116 49q-70 0 -120 -51t-50 -128z" />
<glyph unicode="'" horiz-adv-x="387" d="M100 961q-6 143 0 311l6 182h189l-12 -182q-4 -75 -13 -152.5t-16 -117.5l-6 -41h-148z" />
<glyph unicode="(" horiz-adv-x="921" d="M154 473q0 846 604 1270l129 -88q-185 -133 -307 -324t-175 -403t-53 -453q0 -673 459 -1020l-137 -88q-520 378 -520 1106z" />
<glyph unicode=")" horiz-adv-x="921" d="M35 -545q185 133 307 324.5t174.5 403t52.5 452.5q0 674 -458 1020l137 88q520 -378 520 -1106q0 -846 -604 -1270z" />
<glyph unicode="*" horiz-adv-x="892" d="M113 952l82 47q101 59 172 78q-82 22 -166 76l-76 49l72 144l84 -66q98 -79 133 -129q-17 125 -17 225v99h156l-6 -99q-10 -135 -35 -223q62 66 141 125l88 63l64 -139l-82 -49q-107 -58 -172 -76q83 -25 166 -78l76 -47l-72 -143l-84 65q-83 64 -133 127 q16 -114 16 -223v-98h-155l6 98q11 148 37 223q-51 -54 -144 -124l-88 -66z" />
<glyph unicode="+" horiz-adv-x="1142" d="M82 520v178h399v365h178v-365h400v-178h-400v-364h-178v364h-399z" />
<glyph unicode="," horiz-adv-x="516" d="M16 -238q70 73 110.5 133t50.5 105t4 76.5t-27 62.5q-13 18 -28 33t-24 21l-8 6q19 56 59.5 84t86.5 28q77 0 125.5 -59.5t48.5 -145.5q0 -204 -269 -430z" />
<glyph unicode="-" horiz-adv-x="628" d="M51 469l2 184h525l-3 -184h-524z" />
<glyph unicode="&#xad;" horiz-adv-x="628" d="M51 469l2 184h525l-3 -184h-524z" />
<glyph unicode="." horiz-adv-x="512" d="M106 135q0 64 41.5 106t110.5 42q66 0 107 -43.5t41 -112.5q0 -64 -42.5 -105.5t-109.5 -41.5q-66 0 -107 43.5t-41 111.5z" />
<glyph unicode="/" horiz-adv-x="968" d="M0 -465l834 2239l135 -66l-834 -2236z" />
<glyph unicode="0" d="M76 647q0 188 30.5 337.5t93 260.5t165 170.5t239.5 59.5q210 0 329.5 -164.5t119.5 -503.5q0 -188 -30.5 -337.5t-93.5 -260t-165.5 -170t-239.5 -59.5q-210 0 -329 164t-119 503zM319 676q0 -260 61.5 -385t168.5 -125q260 0 260 612q0 261 -61 385.5t-168 124.5 q-261 0 -261 -612z" />
<glyph unicode="1" d="M117 0l6 176l301 12l37 1063l-322 -39l-12 183l367 59h211l-43 -1266l303 -12l-7 -176h-841z" />
<glyph unicode="2" d="M139 0l6 180l263 305q292 334 292 549q0 114 -62.5 181t-166.5 67q-133 0 -293 -102l-18 184q161 111 352 111q199 0 316.5 -117.5t117.5 -294.5q0 -289 -356 -670l-174 -196h561l-27 -197h-811z" />
<glyph unicode="3" d="M143 86v205q178 -125 330 -125q115 0 179.5 63t64.5 158q0 42 -16 81.5t-53 79.5t-110.5 70.5t-175.5 43.5l7 151q96 17 166 48t108.5 70.5t56 80.5t17.5 86q0 79 -55 133.5t-154 54.5q-143 0 -299 -106l-16 188q77 51 172.5 79t185.5 28q99 0 179 -30.5t129.5 -80.5 t75.5 -110.5t26 -125.5q0 -53 -16 -104.5t-50.5 -101t-96.5 -91t-145 -65.5q85 -20 148 -61t97 -93t49.5 -104.5t15.5 -106.5q0 -81 -31 -155.5t-90 -134.5t-154 -95.5t-213 -35.5q-78 0 -166.5 26t-165.5 80z" />
<glyph unicode="4" d="M76 334l6 170l555 950h291l-33 -932h160l-19 -188h-149l-10 -334h-228l13 334h-586zM303 522h365l18 518l10 154z" />
<glyph unicode="5" d="M168 78l4 203q159 -111 301 -111q110 0 173 74t63 178q0 44 -14 85.5t-51 85.5t-93.5 78.5t-149.5 61t-211 37.5l127 662l693 51l-23 -207l-500 -35l-59 -315q122 -18 216.5 -57t152 -87t94.5 -108.5t51 -116.5t14 -117q0 -87 -32.5 -169t-91 -146.5t-148 -103.5 t-195.5 -39q-183 0 -321 96z" />
<glyph unicode="6" d="M111 600q0 412 197 641t542 229q88 0 139 -10l-8 -180q-55 8 -117 8q-205 0 -335.5 -119.5t-163.5 -347.5q109 64 239 64q175 0 293.5 -117.5t118.5 -310.5q0 -200 -131.5 -338.5t-319.5 -138.5q-201 0 -327.5 160.5t-126.5 459.5zM346 641q-9 -224 54 -349.5t169 -125.5 q90 0 149.5 74t59.5 196q0 113 -63.5 188.5t-165.5 75.5q-107 0 -203 -59z" />
<glyph unicode="7" d="M137 1245l19 209h827l-6 -186l-604 -1297l-195 78l559 1196h-600z" />
<glyph unicode="8" d="M90 350q0 238 268 375q-65 39 -111.5 86.5t-69.5 94.5t-32.5 86.5t-9.5 76.5q0 175 129 290.5t340 115.5q188 0 297 -100.5t109 -244.5q0 -109 -66.5 -202.5t-191.5 -157.5q272 -139 272 -373q0 -59 -19.5 -117.5t-61 -112.5t-99 -95.5t-140 -66.5t-178.5 -25 q-198 0 -317 106.5t-119 263.5zM313 377q0 -90 63.5 -156.5t168.5 -66.5q103 0 163 66t60 155q0 162 -260 270q-100 -51 -147.5 -116.5t-47.5 -151.5zM381 1102q0 -157 209 -254q100 43 150.5 111t50.5 147q0 80 -57 137t-152 57q-88 0 -144.5 -54.5t-56.5 -143.5z" />
<glyph unicode="9" d="M104 999q0 131 60 241t164 173.5t227 63.5q97 0 179.5 -39.5t144 -115.5t96.5 -195.5t35 -270.5q0 -412 -197.5 -642t-542.5 -230q-78 0 -139 12l8 180q55 -8 117 -8q205 0 336 119.5t164 347.5q-104 -64 -240 -64q-176 0 -294 117t-118 311zM342 1020 q0 -113 63.5 -189.5t165.5 -76.5q108 0 203 61q9 224 -54 348.5t-169 124.5q-90 0 -149.5 -73.5t-59.5 -194.5z" />
<glyph unicode=":" horiz-adv-x="546" d="M113 135q0 64 41 106t110 42q66 0 107 -43.5t41 -112.5q0 -64 -42.5 -105.5t-109.5 -41.5q-66 0 -106.5 43.5t-40.5 111.5zM137 819q0 64 41.5 106t110.5 42q66 0 106.5 -43.5t40.5 -112.5q0 -64 -42 -105.5t-109 -41.5q-66 0 -107 43.5t-41 111.5z" />
<glyph unicode=";" horiz-adv-x="534" d="M16 -238q70 73 110.5 133t50.5 105t4 76.5t-27 62.5q-13 18 -28 33t-24 21l-8 6q19 56 59.5 84t86.5 28q77 0 125.5 -59.5t48.5 -145.5q0 -204 -269 -430zM125 819q0 64 41 106t110 42q66 0 107 -43.5t41 -112.5q0 -64 -42.5 -105.5t-109.5 -41.5q-66 0 -106.5 43.5 t-40.5 111.5z" />
<glyph unicode="&#x3c;" horiz-adv-x="1167" d="M74 512v150l1024 509v-192l-776 -389l776 -385v-203z" />
<glyph unicode="=" horiz-adv-x="1142" d="M84 274v181h975v-181h-975zM84 731v176h975v-176h-975z" />
<glyph unicode="&#x3e;" horiz-adv-x="1167" d="M72 12v197l774 387l-774 387v199l1024 -510v-150z" />
<glyph unicode="?" horiz-adv-x="843" d="M129 1415q128 60 266 60q88 0 157.5 -28t110 -73.5t61.5 -98t21 -106.5q0 -182 -165 -319l-41 -35q-109 -93 -109 -182q0 -63 27 -133l-174 -47q-78 125 -78 237q0 127 153 256l43 35q103 86 103 174q0 56 -40 93.5t-118 37.5q-84 0 -201 -43zM193 129q0 61 39 102 t104 41q64 0 102.5 -42t38.5 -107q0 -62 -39.5 -102.5t-103.5 -40.5t-102.5 42t-38.5 107z" />
<glyph unicode="@" horiz-adv-x="2002" d="M143 446q0 191 51 353t139.5 277.5t207.5 197t256.5 121t285.5 39.5q140 0 260 -30t216.5 -91t164.5 -150t105 -211t37 -270q0 -127 -34 -243t-90 -201t-126 -148t-143 -95t-140 -32q-194 0 -194 227q0 138 16 201q-37 -78 -72 -133q-75 -147 -145 -212.5t-131 -65.5 q-87 0 -148 105t-61 302q0 614 514 614q129 0 266 -20l-24 -276q-21 -258 -21 -392q0 -98 14.5 -137t51.5 -39q32 0 75 36t84.5 99.5t70 167t28.5 222.5q0 294 -153.5 450t-436.5 156q-150 0 -280.5 -54t-227.5 -153.5t-153 -252t-56 -339.5q0 -228 74.5 -398.5t224.5 -267 t361 -96.5q121 0 284 31l-8 -168q-138 -33 -293 -33q-201 0 -362 66.5t-268 186.5t-163.5 287.5t-56.5 368.5zM803 430q0 -107 22.5 -169t51.5 -62q34 0 88.5 67.5t107.5 184.5q71 159 80 305l6 75q-80 9 -106 9q-250 0 -250 -410z" />
<glyph unicode="A" horiz-adv-x="1314" d="M51 0l492 1450l288 8l414 -1458h-254l-100 365h-488l-116 -365h-236zM459 551h385l-133 500q-32 119 -41 172q-21 -83 -49 -172z" />
<glyph unicode="B" horiz-adv-x="1249" d="M199 0l51 1454h260q248 0 379 -90q153 -103 153 -289q0 -113 -60 -199t-175 -122q146 -24 223.5 -114t77.5 -216q0 -229 -201 -352q-122 -72 -370 -72h-338zM440 184h129q119 0 185 35q110 56 110 197q0 103 -77 170t-236 67h-94zM463 819h88q106 0 160 33 q102 62 102 203q0 53 -21.5 98t-58.5 72q-76 55 -205 55h-51z" />
<glyph unicode="C" horiz-adv-x="1267" d="M127 684q0 190 50.5 349t152.5 265q83 86 199.5 131.5t246.5 45.5q181 0 342 -72l-37 -184q-157 61 -301 61q-159 0 -258 -92q-151 -136 -151 -477q0 -249 100 -392t289 -143q136 0 336 82v-197q-188 -81 -369 -81q-223 0 -381 141q-106 96 -162.5 242t-56.5 321z" />
<glyph unicode="D" horiz-adv-x="1454" d="M199 0l51 1454h321q207 0 355 -46.5t250 -150.5q172 -172 172 -501q0 -196 -73.5 -364.5t-219.5 -268.5q-176 -123 -473 -123h-383zM442 190h154q209 0 332 99q89 72 132.5 191t43.5 261q0 255 -115 381q-68 76 -171 110t-255 34h-84z" />
<glyph unicode="E" horiz-adv-x="1140" d="M199 0l51 1454h723l-6 -186h-488l-14 -441h453l-7 -180h-454l-15 -461h529l-21 -186h-751z" />
<glyph unicode="F" d="M199 0l51 1454h723l-6 -188h-486l-16 -486h467l-4 -184h-469l-23 -596h-237z" />
<glyph unicode="G" horiz-adv-x="1394" d="M127 676q0 408 207 624q169 175 461 175q187 0 376 -80l-41 -187q-183 72 -337 72q-169 0 -269 -94q-81 -75 -117 -193.5t-36 -290.5q0 -259 102 -394.5t279 -135.5q111 0 211 37l16 467h235l-16 -430l-4 -180q-237 -86 -451 -86q-231 0 -389 135q-109 94 -168 240 t-59 321z" />
<glyph unicode="H" horiz-adv-x="1503" d="M199 0l51 1454h235l-20 -620h604l21 620h235l-51 -1454h-236l23 633h-604l-23 -633h-235z" />
<glyph unicode="I" horiz-adv-x="663" d="M199 0l51 1454h235l-51 -1454h-235z" />
<glyph unicode="J" horiz-adv-x="663" d="M-47 -375q147 103 196.5 203t55.5 266l45 1360h235l-45 -1317q-7 -181 -48 -302t-118.5 -204.5t-214.5 -162.5z" />
<glyph unicode="K" horiz-adv-x="1398" d="M199 0l51 1454h235l-51 -1454h-235zM489 731l570 723h266l-565 -696l518 -758h-293l-395 596q-53 85 -101 135z" />
<glyph unicode="L" horiz-adv-x="1079" d="M199 0l51 1454h235l-43 -1268h521l-21 -186h-743z" />
<glyph unicode="M" horiz-adv-x="1906" d="M176 0l98 1454h322l352 -1151l449 1151h309l-6 -1454h-230l3 885q0 51 3.5 115t7.5 102l3 39l-451 -1141h-227l-350 1151q0 -129 -8 -262l-60 -889h-215z" />
<glyph unicode="N" horiz-adv-x="1564" d="M199 0l51 1454h270l617 -1130q-3 40 -3 103.5t3 150.5l30 876h219l-51 -1454h-278l-613 1128q1 -10 2 -30t2 -94v-38q0 -58 -2 -124l-28 -842h-219z" />
<glyph unicode="O" horiz-adv-x="1468" d="M127 690q0 227 71 402t208 274q145 109 368 109q276 0 432 -180t156 -517q0 -179 -47 -338t-148 -270q-175 -190 -450 -190q-271 0 -420 170q-170 185 -170 540zM371 711q0 -299 127 -443q84 -96 227 -96h12q73 0 140.5 30t115.5 87q125 154 125 471q0 242 -92 381 t-270 139q-125 0 -207 -57q-178 -122 -178 -512z" />
<glyph unicode="P" horiz-adv-x="1241" d="M199 0l51 1454h272q127 0 216.5 -18.5t164.5 -65.5q98 -58 154.5 -155.5t56.5 -229.5q0 -137 -62 -252.5t-180 -181.5q-103 -60 -237 -60q-37 0 -76 5l6 182q20 -2 39 -2q97 0 162 47q106 79 106 256q0 155 -102 225q-83 62 -244 62h-47l-45 -1266h-235z" />
<glyph unicode="Q" horiz-adv-x="1468" d="M127 690q0 227 71 402t208 274q145 109 368 109q276 0 432 -180t156 -517q0 -179 -47 -338t-148 -270q-96 -102 -229 -147q108 -90 192 -146q105 -69 209 -104t228 -35q75 0 123 10l-21 -168q-91 -26 -184 -26q-149 0 -270 41.5t-248 130.5q-65 44 -124.5 97t-166.5 159 q-245 14 -379 168q-170 185 -170 540zM371 711q0 -299 127 -443q84 -96 227 -96h12q73 0 140.5 30t115.5 87q125 154 125 471q0 242 -92 381t-270 139q-125 0 -207 -57q-178 -122 -178 -512z" />
<glyph unicode="R" horiz-adv-x="1343" d="M199 0l49 1454h295q275 0 415 -111q71 -55 110.5 -137.5t39.5 -183.5q0 -129 -58 -234t-171 -170l135 -221q85 -135 142 -188t147 -90l-78 -150q-110 14 -175.5 43.5t-127 97.5t-138.5 203l-135 232h-198l-19 -545h-233zM457 721q20 -4 159 -4q94 0 162 65q86 86 86 215 q0 119 -67 189q-79 82 -242 82h-78z" />
<glyph unicode="S" horiz-adv-x="1077" d="M109 55l2 201q199 -80 344 -80q110 0 172.5 59.5t62.5 155.5q0 60 -34 112.5t-126 106.5l-92 54q-152 86 -215 180t-63 207q0 182 126 303t343 121q168 0 305 -58l-25 -186q-151 53 -268 53q-107 0 -170 -55t-63 -144q0 -58 37.5 -111.5t140.5 -109.5l90 -51 q154 -84 214 -179t60 -218q0 -186 -135.5 -311t-355.5 -125q-196 0 -350 75z" />
<glyph unicode="T" horiz-adv-x="1159" d="M78 1266l6 188h1014l-21 -188h-385l-45 -1266h-233l45 1266h-381z" />
<glyph unicode="U" horiz-adv-x="1476" d="M193 694l26 760h234l-27 -766q-1 -33 -1 -64q0 -102 8 -170q10 -88 48 -149q36 -57 99 -90t145 -33q144 0 229 88q59 60 80.5 157t26.5 249l29 778h225l-29 -760q-7 -204 -42.5 -335.5t-129.5 -229.5q-70 -73 -178 -111t-240 -38q-145 0 -251.5 49t-165.5 139 q-61 90 -77 208q-12 83 -11 207q0 52 2 111z" />
<glyph unicode="V" horiz-adv-x="1337" d="M86 1454h254l317 -1212l400 1212h229l-495 -1450l-302 -8z" />
<glyph unicode="W" horiz-adv-x="2002" d="M86 1454h240l303 -1212l268 848l-96 364h241l308 -1200l374 1200h228l-471 -1450l-293 -8l-197 760l-241 -752l-293 -8z" />
<glyph unicode="X" horiz-adv-x="1314" d="M70 0l446 725l-407 729h272l297 -541l323 541h248l-448 -731l420 -723h-283l-297 535l-322 -535h-249z" />
<glyph unicode="Y" horiz-adv-x="1245" d="M49 1454h268l316 -614l364 614h236l-510 -840l-21 -614h-235l22 614z" />
<glyph unicode="Z" horiz-adv-x="1171" d="M106 0l7 170l673 1100h-622l6 184h907l-6 -164l-676 -1102h682l-20 -188h-951z" />
<glyph unicode="[" horiz-adv-x="727" d="M164 -621l80 2341h448l-10 -141h-256l-72 -2056h260l-10 -144h-440z" />
<glyph unicode="\" horiz-adv-x="968" d="M0 1708l135 66l834 -2239l-135 -63z" />
<glyph unicode="]" horiz-adv-x="716" d="M35 -618l10 141h256l72 2056h-260l10 143h440l-80 -2340h-448z" />
<glyph unicode="^" horiz-adv-x="1058" d="M82 496l375 804h149l371 -804h-205l-246 544l-241 -544h-203z" />
<glyph unicode="_" horiz-adv-x="1024" d="M0 -41h1024v-201h-1024v201z" />
<glyph unicode="`" horiz-adv-x="675" d="M102 1466l39 187l432 -310l-41 -153z" />
<glyph unicode="a" horiz-adv-x="1003" d="M86 420q0 631 541 631q114 0 278 -23l-26 -289q-17 -188 -21 -336q-3 -89 -3 -215q0 -84 1 -184l-215 -8v62q0 210 12 325q-15 -54 -53 -117q-71 -148 -147 -216t-142 -68q-39 0 -77 24t-72 72.5t-55 137t-21 204.5zM305 467q0 -125 23.5 -191.5t56.5 -66.5q34 0 88.5 71 t108.5 191q75 171 84 317l6 76q-66 13 -113 13q-120 0 -187 -102t-67 -308z" />
<glyph unicode="b" horiz-adv-x="1013" d="M104 12q17 137 27 379l49 1178l217 22l-32 -717q-10 -189 -19 -233q16 52 53 125q68 142 151.5 216.5t145.5 74.5q97 0 164.5 -112t67.5 -320q0 -311 -134.5 -477t-410.5 -166q-148 0 -279 30zM330 172q58 -12 114 -12q122 0 193.5 102.5t71.5 298.5q0 90 -13 152.5 t-31 88t-40 25.5q-35 0 -90.5 -71t-110.5 -183q-85 -179 -88 -299z" />
<glyph unicode="c" horiz-adv-x="831" d="M86 459q0 281 121.5 439.5t320.5 158.5q108 0 215 -37l-28 -172q-91 33 -168 33q-108 0 -173 -98.5t-65 -284.5q0 -179 54.5 -257.5t134.5 -78.5q82 0 225 80l18 -170q-161 -92 -297 -92q-168 0 -263 123.5t-95 355.5z" />
<glyph unicode="d" horiz-adv-x="1013" d="M86 420q0 629 537 629q41 0 57 -2l27 522l219 22l-45 -899q-16 -322 -16 -558q0 -67 1 -128l-213 -12q-2 124 -2 212q0 124 4 177q-11 -48 -49 -113q-68 -144 -146.5 -216t-146.5 -72q-43 0 -82 25.5t-72 76t-53 137.5t-20 199zM305 467q0 -125 23.5 -192.5t56.5 -67.5 q32 0 90 73.5t111 190.5q75 171 84 317l4 76q-73 13 -115 13q-119 0 -186.5 -104t-67.5 -306z" />
<glyph unicode="e" horiz-adv-x="919" d="M88 451q0 283 128 443.5t347 160.5q74 0 130.5 -21t88 -57t47 -77.5t15.5 -86.5t-12 -86.5t-44 -84.5t-81.5 -76.5t-130.5 -59t-185 -35.5l-84 -8q-1 -15 -1 -29q0 -116 44 -194q49 -88 154 -88q103 0 278 94l15 -160q-172 -106 -338 -106q-82 0 -147.5 26t-116.5 80 t-79 147t-28 218zM311 606l84 8q130 14 189 63t59 116q0 46 -31.5 74t-83.5 28q-85 0 -146.5 -75t-70.5 -214z" />
<glyph unicode="f" horiz-adv-x="626" d="M-223 -346q27 -4 80 -4q65 0 118 26.5t95 83t67 153.5t29 228l24 713h-159l10 150l156 6l4 63q8 165 53 279q31 75 79.5 127.5t103 77.5t102 35t96.5 10q77 0 153 -21l-22 -172q-61 16 -117 16q-146 0 -200 -137q-25 -66 -29 -190l-4 -90h207v-154h-213l-21 -649 q-23 -735 -534 -735q-30 0 -76 4z" />
<glyph unicode="g" horiz-adv-x="962" d="M-41 -268q0 89 69 159.5t191 94.5q-39 51 -39 112q0 100 84 174q-78 52 -120 144t-42 205q0 106 32 191.5t87 138t125 80.5t148 28q115 0 192 -45h266v-150h-164q48 -91 48 -200q0 -194 -104.5 -319.5t-276.5 -125.5q-28 0 -58 6q-24 -24 -24 -55q0 -93 174 -102l90 -7 q70 -3 123.5 -21t84 -42.5t49.5 -56.5t25.5 -59t6.5 -54q0 -48 -20.5 -98.5t-65.5 -100.5t-109.5 -89.5t-160.5 -64t-210 -24.5q-189 0 -295 81t-106 200zM152 -240q0 -71 73 -116t187 -45q138 0 224.5 57.5t86.5 118.5q0 83 -156 94l-90 6q-91 5 -155 35q-86 -21 -128 -61 t-42 -89zM311 616q0 -117 40 -180t108 -63q82 0 126 80.5t44 210.5q0 110 -39.5 176.5t-104.5 66.5q-78 0 -126 -73t-48 -218z" />
<glyph unicode="h" horiz-adv-x="1026" d="M104 -4l21 266q25 296 35 494l35 813l217 22l-33 -706q-8 -144 -19 -252q24 80 101 190q145 232 276 232q98 -1 141 -105q32 -79 33 -209q0 -42 -4 -90l-22 -260q-12 -152 -17 -385l-221 -10q6 193 19 364l18 240q4 48 4 85q0 45 -6 75q-10 52 -43 53q-29 0 -78 -53 t-112 -170q-58 -104 -84 -196t-35 -214l-13 -176z" />
<glyph unicode="i" horiz-adv-x="481" d="M109 -4q0 160 16 393l12 211q7 106 12 207.5t6 150.5l1 48l217 20q0 -145 -15 -395l-14 -211q-7 -105 -11 -209t-5 -155v-52zM135 1384q0 61 41.5 100.5t102.5 39.5q71 0 108 -40.5t37 -99.5q0 -67 -40.5 -104t-102.5 -37q-70 0 -108 41t-38 100z" />
<glyph unicode="j" horiz-adv-x="481" d="M-174 -414q107 98 161 168.5t84.5 163t39.5 232.5l26 450q6 106 10.5 207.5t5.5 150.5l1 48l219 20q0 -112 -17 -395l-26 -449q-5 -101 -15.5 -171.5t-35 -146t-66 -138.5t-107.5 -131t-161 -140zM135 1384q0 61 41 100.5t103 39.5q69 0 106 -40.5t37 -99.5 q0 -67 -39.5 -104t-101.5 -37q-70 0 -108 41t-38 100z" />
<glyph unicode="k" horiz-adv-x="1019" d="M102 -4l21 266q25 296 35 494l37 813l215 22l-35 -778q-26 -457 -39 -627l-14 -182zM387 532l27 62q49 115 98.5 199.5t92 133.5t88.5 78t83 38.5t80 9.5q56 0 133 -17l-35 -190q-41 6 -73 6q-34 0 -61 -10t-59.5 -39t-70 -86t-82.5 -146l312 -530l-213 -72z" />
<glyph unicode="l" horiz-adv-x="485" d="M120 74v36v43q0 46 2 108.5t5 127.5l55 1180l217 22l-55 -1171q-5 -104 -6 -208q0 -52 -0.5 -91t0.5 -64l2 -51l-219 -10l-1 22v56z" />
<glyph unicode="m" horiz-adv-x="1562" d="M104 -4l23 297q19 220 25.5 360.5t9.5 374.5l214 21q0 -255 -14 -412q23 78 99 186q145 232 276 232q165 0 165 -297q0 -17 -1 -35l-10 -102q42 99 84 157q71 112 155 194.5t158 82.5q91 1 130 -105q28 -76 28 -199q0 -47 -4 -100l-21 -260q-6 -81 -9.5 -154.5t-5.5 -141 t-3 -91.5l-221 -8q6 214 18 364l19 240q3 49 3 87q0 126 -38 126q-39 0 -100 -83t-117 -187q-90 -171 -101 -355q-2 -28 -10 -184l-215 -8q3 107 23 364l18 240q4 50 4 88q0 45 -6 73q-10 52 -41 52q-29 0 -78 -53t-112 -170q-58 -104 -84 -196t-35 -214l-13 -176z" />
<glyph unicode="n" horiz-adv-x="1026" d="M104 -4l23 297q19 220 25.5 360.5t9.5 374.5l214 21q0 -255 -14 -412q23 78 99 186q145 232 276 232q98 -1 141 -105q32 -79 33 -209q0 -42 -4 -90l-22 -260q-12 -151 -17 -387l-221 -8q6 193 19 364l18 240q4 48 4 85q0 45 -6 75q-10 52 -43 53q-29 0 -78 -53t-112 -170 q-58 -104 -84 -196t-35 -214l-13 -176z" />
<glyph unicode="o" horiz-adv-x="985" d="M82 442q0 163 37 284.5t102 191.5t145 103.5t175 33.5q72 0 135 -26.5t115.5 -80t83 -145t30.5 -209.5q0 -162 -37 -283.5t-102 -192t-145 -104.5t-175 -34q-72 0 -135.5 26.5t-115.5 80t-82.5 145t-30.5 210.5zM305 481q0 -327 176 -327q28 0 54.5 11t53.5 39.5t46.5 72 t32 115.5t12.5 163q0 174 -48 250t-128 76q-36 0 -68.5 -19t-63.5 -61.5t-49 -125t-18 -194.5z" />
<glyph unicode="p" horiz-adv-x="1017" d="M84 -518l45 817q17 372 18 496q0 137 -4 233l217 21q3 -72 3 -135q0 -38 -1 -72q0 -115 -10 -187q15 43 54 109q68 146 149 219.5t145 73.5q97 0 164.5 -111t67.5 -319q0 -641 -549 -641q-39 0 -55 4l-27 -498zM336 174q64 -12 119 -12q118 0 188 101.5t70 299.5 q0 90 -13 152t-31 87t-40 25q-31 0 -81.5 -57t-107.5 -172q-93 -186 -100 -346q-1 -18 -2 -36.5t-1.5 -28.5t-0.5 -13z" />
<glyph unicode="q" horiz-adv-x="1015" d="M86 410q0 316 137.5 479.5t409.5 163.5q112 0 276 -29q-18 -133 -26 -350l-47 -1182l-215 -10l30 729q2 103 11 182q-15 -55 -60 -133q-66 -134 -145 -206t-146 -72q-38 0 -75.5 24t-72 72t-56 134.5t-21.5 197.5zM305 471q0 -131 23.5 -197.5t58.5 -66.5q31 0 88.5 74 t110.5 190q40 87 59 156.5t25 158.5l6 78q-73 13 -107 13q-122 0 -193 -101.5t-71 -304.5z" />
<glyph unicode="r" horiz-adv-x="823" d="M104 -4l23 297q4 42 7 82t5.5 70.5t4.5 73t3 63.5t2.5 69t2 63.5t1.5 72.5t1 70.5t1 83.5t1 87l216 21q-3 -300 -18 -420q25 86 84 198q70 128 139 177t148 49q31 0 68 -9l-29 -223q-36 4 -49 4q-36 0 -67 -10t-77 -51.5t-90 -114.5q-71 -119 -106.5 -230t-44.5 -243 l-13 -172z" />
<glyph unicode="s" horiz-adv-x="782" d="M49 25l4 172q134 -47 240 -47q83 0 123.5 36.5t40.5 81.5q0 34 -24 69.5t-93 86.5l-84 65q-87 65 -122.5 128t-35.5 137q0 127 94.5 214t264.5 87q126 0 231 -43l-18 -164q-112 37 -199 37q-72 0 -106.5 -32t-34.5 -75q0 -68 116 -155l84 -66q91 -67 125.5 -131.5 t34.5 -134.5q0 -129 -99 -220t-278 -91q-152 0 -264 45z" />
<glyph unicode="t" horiz-adv-x="706" d="M33 854l10 150l168 6l39 268l184 8l-16 -278h241v-154h-249l-29 -475q-2 -29 -2 -54q-1 -73 15 -110q20 -49 77 -49q62 0 166 47l12 -158q-134 -73 -260 -73q-129 0 -185 88q-47 74 -48 209q0 26 2 55l35 520h-160z" />
<glyph unicode="u" horiz-adv-x="1026" d="M119 391l22 260q6 81 9.5 151.5t5 134.5t2.5 89l222 23q-6 -201 -20 -367l-18 -240q-4 -50 -3 -89q1 -47 5 -75q10 -54 43 -53q28 0 77 54.5t114 173.5q58 102 83 194.5t33 214.5l13 164l215 23l-25 -299q-27 -352 -35 -744l-217 -10q5 259 19 410q-21 -71 -99 -187 q-149 -233 -276 -233q-100 0 -142 104q-31 78 -31 209q0 43 3 92z" />
<glyph unicode="v" horiz-adv-x="985" d="M98 985l199 74q47 -78 65 -175q12 -64 12 -160q0 -50 -3 -108l-6 -145q-2 -58 -2 -101q0 -30 1 -52q2 -56 15.5 -85.5t26 -38t32.5 -8.5q37 0 80.5 37t81 97t63 147.5t25.5 179.5q0 194 -84 342l180 92q57 -73 87 -176.5t30 -212.5q0 -104 -28 -209t-79 -193.5 t-117 -157.5t-148 -108.5t-167 -39.5q-39 0 -71 10.5t-63 39.5t-51 76q-21 47 -31 125q-7 53 -7 117q0 31 2 64l9 145q4 68 4 123q0 77 -8 129q-12 89 -48 172z" />
<glyph unicode="w" horiz-adv-x="1507" d="M98 985l199 74q47 -78 65 -175q12 -64 12 -160q0 -50 -3 -108l-6 -145q-4 -46 -4 -83q0 -25 2 -46q4 -52 9 -83t16.5 -47t21 -21t22.5 -5q37 0 91 60.5t100 161t57 198.5q4 47 4 91q0 160 -53 292l186 70q47 -78 65 -175q12 -64 12 -160q0 -50 -3 -108l-6 -145 q-2 -41 -2 -76q0 -39 3 -71q4 -60 17 -88t27 -39t33 -11q35 0 78 37t80.5 97.5t63 148t25.5 178.5q0 194 -84 342l181 92q57 -73 86.5 -176t29.5 -213q0 -130 -44 -259t-115.5 -227.5t-169.5 -160t-201 -61.5q-30 0 -54.5 6.5t-50.5 27t-43.5 54.5t-28.5 92t-11 135 q-146 -315 -355 -315q-35 0 -64.5 10t-59 39t-49.5 75q-21 47 -31 126q-7 54 -7 118q0 31 2 64l9 145q4 68 4 123q0 77 -8 129q-12 89 -48 172z" />
<glyph unicode="x" horiz-adv-x="950" d="M18 45q3 4 35.5 58t71 118t94.5 152t103 157l-234 463l201 82l178 -370q109 166 190.5 247t180.5 133l118 -159q-93 -50 -176.5 -133t-204.5 -261l254 -487l-204 -80l-193 387q-47 -74 -104.5 -169.5t-91.5 -154.5l-33 -59z" />
<glyph unicode="y" horiz-adv-x="1021" d="M-160 -504l29 180q71 -18 125 -18q130 0 225 92q51 51 69.5 130.5t18.5 199.5q0 82 -17 183t-52 218t-98.5 244t-145.5 236l205 106q153 -190 230 -428.5t77 -448.5q0 -190 -47 -315q126 146 189 318.5t63 336.5q0 258 -113 465l201 78q131 -206 131 -504 q0 -127 -36.5 -260.5t-99.5 -253.5t-152.5 -226.5t-191 -184.5t-220 -123t-234.5 -45q-92 0 -156 20z" />
<glyph unicode="z" horiz-adv-x="845" d="M61 2l9 158l432 706h-398l7 168h651l-8 -157l-430 -709h37q176 0 405 25l-4 -179q-212 -19 -431 -19q-134 0 -270 7z" />
<glyph unicode="{" horiz-adv-x="892" d="M72 475l12 156q104 9 161 41.5t83 101t26 189.5v327q0 248 113.5 346.5t368.5 81.5l-7 -135q-150 2 -214 -60t-64 -218v-293q0 -212 -56.5 -315t-211.5 -134q140 -25 197 -127.5t44 -312.5l-18 -289q-6 -96 1 -153t35.5 -96t80.5 -53t139 -13l-6 -135q-243 -23 -354 71 t-93 342l21 291q13 199 -40.5 286t-217.5 101z" />
<glyph unicode="|" horiz-adv-x="491" d="M164 -512v2089h164v-2089h-164z" />
<glyph unicode="}" horiz-adv-x="907" d="M55 -618l8 135q158 -2 225.5 60t67.5 218v293q0 214 57 321t210 138q-139 24 -196 122.5t-44 307.5l18 289q6 96 -2 153.5t-38.5 96t-84.5 52.5t-145 13l4 135q252 23 366.5 -71t96.5 -342l-20 -291q-6 -100 1.5 -164t36.5 -111.5t82 -70.5t138 -31l-13 -156 q-152 -14 -211 -88t-59 -254v-327q0 -248 -118 -346.5t-380 -81.5z" />
<glyph unicode="~" horiz-adv-x="1110" d="M88 444q32 105 71 176t80.5 104.5t77.5 45.5t78 12q62 0 168 -41l37 -14q66 -27 113 -27q96 0 168 185l149 -56q-33 -106 -72 -176.5t-80.5 -103.5t-77 -45t-77.5 -12q-69 0 -168 38l-39 15q-66 28 -113 28q-96 0 -165 -186z" />
<glyph unicode="&#xa1;" horiz-adv-x="608" d="M150 -401l12 272q12 284 53 700l186 19q8 -381 -2 -719l-6 -272h-243zM182 924q0 62 41 102.5t105 40.5q63 0 102 -42t39 -107q0 -62 -39.5 -103t-105.5 -41q-63 0 -102.5 42.5t-39.5 107.5z" />
<glyph unicode="&#xa2;" d="M178 561q0 116 23.5 212.5t65.5 164.5t100.5 117t126 75t145.5 33l14 197l113 -4l-14 -193q104 -7 186 -41l-23 -180q-96 34 -176 41l-53 -735q102 6 234 71l10 -176q-132 -68 -256 -80l-15 -198l-112 4l14 194q-192 18 -287.5 153.5t-95.5 344.5zM416 596 q0 -272 159 -336l52 715q-97 -24 -154 -115.5t-57 -263.5z" />
<glyph unicode="&#xa3;" d="M98 -10v157q107 63 155 137.5t48 168.5q0 82 -16 188h-164l4 121h143q-16 101 -16 178q0 135 41.5 240t113 168t162 95t195.5 32q125 0 237 -43l-28 -181q-123 35 -215 35q-55 0 -101.5 -18.5t-85 -57.5t-60.5 -108t-22 -162q0 -71 17 -178h350l-4 -121h-332 q17 -121 17 -162q0 -185 -144 -297q69 13 160 13h446l-26 -195h-707q-96 0 -168 -10z" />
<glyph unicode="&#xa4;" horiz-adv-x="1040" d="M63 315l142 142q-60 85 -60 198q0 114 60 199l-142 143l105 105l141 -144q89 64 201 64q113 0 199 -64l143 144l106 -105l-143 -143q59 -88 59 -199q0 -115 -59 -198l143 -142l-106 -104l-143 139q-88 -59 -199 -59q-110 0 -201 59l-141 -139zM293 655q0 -89 64 -153 t153 -64t153 64t64 153t-64 153t-153 64t-153 -64t-64 -153z" />
<glyph unicode="&#xa5;" d="M25 1454h260l276 -588l326 588h225l-418 -723h312l-5 -106h-348l-8 -209h352l-4 -107h-350l-10 -309h-238l11 309h-334l4 107h334l6 209h-336l4 106h297z" />
<glyph unicode="&#xa6;" horiz-adv-x="491" d="M164 387h164v-899h-164v899zM164 678v899h164v-899h-164z" />
<glyph unicode="&#xa7;" horiz-adv-x="1241" d="M143 897q0 156 89 283.5t233 205.5q165 89 358 89q120 0 236 -39l-21 -201q-104 37 -200 37q-61 0 -103 -23q-38 -20 -60 -59.5t-24 -85.5q0 -57 28 -128t116 -192l63 -86q143 -197 190.5 -314t47.5 -218q0 -157 -88.5 -285t-233.5 -205q-166 -88 -358 -88 q-118 0 -236 39l23 203q109 -39 198 -39q60 0 105 25q36 20 58 59t24 84q2 56 -26.5 128t-117.5 194l-61 86q-143 197 -191.5 314t-48.5 216zM344 938q0 -80 38.5 -178.5t156.5 -259.5l63 -86q106 -146 142 -236.5t34 -159.5q-3 -98 -67 -170q87 42 135.5 117t48.5 162 q0 79 -38.5 178t-156.5 260l-61 86q-107 144 -142.5 234.5t-33.5 158.5q3 97 67 173q-87 -44 -136.5 -119t-49.5 -160z" />
<glyph unicode="&#xa8;" horiz-adv-x="815" d="M102 1376q0 63 33.5 99t89.5 36q55 0 84 -34.5t29 -92.5q0 -60 -34 -97.5t-91 -37.5q-52 0 -81.5 35.5t-29.5 91.5zM477 1376q0 63 33.5 99t89.5 36q55 0 84 -34.5t29 -92.5q0 -60 -34 -97.5t-91 -37.5q-52 0 -81.5 35.5t-29.5 91.5z" />
<glyph unicode="&#xa9;" horiz-adv-x="1644" d="M127 680q0 162 39.5 296t107.5 225t161 154t198.5 91.5t222.5 28.5q300 0 486 -190.5t186 -510.5q0 -162 -39.5 -295.5t-107.5 -225t-161 -154t-198.5 -91t-222.5 -28.5q-148 0 -272.5 49.5t-212.5 139t-137.5 221t-49.5 290.5zM293 700q0 -267 140.5 -427t381.5 -160 q112 0 208.5 37.5t173.5 113t121 201t44 289.5q0 267 -140.5 427t-381.5 160q-112 0 -208.5 -37.5t-173.5 -113t-121 -201t-44 -289.5zM483 700q0 204 99 322.5t272 118.5q106 0 205 -47l-27 -136q-98 41 -180 41q-195 0 -195 -284q0 -127 49.5 -196.5t141.5 -69.5 q71 0 196 55v-142q-114 -57 -217 -57q-162 0 -253 106t-91 289z" />
<glyph unicode="&#xaa;" horiz-adv-x="776" d="M88 981q0 41 16.5 76.5t56 69t117 52.5t187.5 19v23q0 60 -26.5 89t-100.5 29q-104 0 -215 -53l-12 123q124 66 256 66q256 0 256 -234v-227q0 -49 15.5 -70t72.5 -24l-11 -103q-50 -8 -77 -8q-102 0 -136 78q-81 -78 -200 -78q-89 0 -144 46.5t-55 125.5zM238 1001 q0 -32 25 -51.5t73 -19.5q67 0 129 47v119q-67 2 -114.5 -6t-70.5 -23.5t-32.5 -31.5t-9.5 -34z" />
<glyph unicode="&#xab;" horiz-adv-x="1114" d="M51 535l393 495l148 -125l-289 -360l287 -391l-164 -125zM557 535l354 446l136 -115l-261 -325l256 -348l-147 -115z" />
<glyph unicode="&#xac;" horiz-adv-x="1142" d="M82 598v178h977v-434h-178v256h-799z" />
<glyph unicode="&#xae;" horiz-adv-x="1386" d="M117 807q0 140 33 254.5t90 192.5t135.5 130.5t167 76.5t186.5 24q260 0 409.5 -166t149.5 -440q0 -140 -33 -254t-90 -191.5t-135.5 -130t-167 -76.5t-186.5 -24q-260 0 -409.5 165.5t-149.5 438.5zM258 825q0 -232 108 -372t322 -140q100 0 180.5 29t144.5 91.5 t99 171.5t35 257q0 232 -108 371t-322 139q-99 0 -179.5 -29t-144.5 -91t-99.5 -170.5t-35.5 -256.5zM459 518l24 692h166q115 0 189.5 -51.5t74.5 -159.5q0 -126 -108 -184l63 -98q43 -67 66.5 -89t64.5 -34l-32 -90q-59 3 -89.5 12.5t-66 45t-78.5 110.5l-59 98h-68 l-8 -252h-139zM608 860h64q43 0 70.5 35t27.5 92q0 63 -36 94t-95 31h-21z" />
<glyph unicode="&#xaf;" horiz-adv-x="702" d="M102 1292l7 162h491l-6 -162h-492z" />
<glyph unicode="&#xb0;" horiz-adv-x="860" d="M106 1079q0 93 30 170t79.5 125.5t112 74.5t129.5 26q136 0 221.5 -93t85.5 -258q0 -93 -30 -169t-79.5 -124t-111.5 -74t-129 -26q-136 0 -222 92t-86 256zM283 1090q0 -94 41.5 -145.5t103.5 -51.5q66 0 113 58t47 165q0 94 -42 145.5t-104 51.5q-65 0 -112 -58.5 t-47 -164.5z" />
<glyph unicode="&#xb1;" horiz-adv-x="1142" d="M82 12v178h977v-178h-977zM82 764v178h399v365h178v-365h400v-178h-400v-365h-178v365h-399z" />
<glyph unicode="&#xb4;" horiz-adv-x="675" d="M102 1335l433 310l38 -187l-430 -276z" />
<glyph unicode="&#xb6;" horiz-adv-x="1320" d="M145 -164q123 -51 213 -51q216 0 228 395l12 357q-141 -4 -246 47q-96 47 -150.5 145t-54.5 223q0 171 73.5 293t199.5 170q98 39 270 39h135l-43 -1272q-6 -154 -37 -239.5t-98 -143.5q62 12 108 41t82 82.5t56.5 140t24.5 207.5l40 1184h195l-39 -1155 q-6 -159 -42 -282t-95.5 -205.5t-145.5 -136t-186.5 -76.5t-224.5 -23q-164 0 -264 47z" />
<glyph unicode="&#xb7;" horiz-adv-x="522" d="M113 664q0 64 41 105.5t110 41.5q66 0 107 -43.5t41 -112.5q0 -64 -42.5 -105.5t-109.5 -41.5q-65 0 -106 44t-41 112z" />
<glyph unicode="&#xb8;" horiz-adv-x="569" d="M102 -494l9 123q67 -30 112 -30q37 0 59.5 24.5t22.5 57.5q0 104 -174 126l27 103q72 -3 128 -19.5t89 -40t54.5 -53.5t29.5 -57.5t8 -56.5q0 -88 -62.5 -150.5t-160.5 -62.5q-80 0 -142 36z" />
<glyph unicode="&#xba;" horiz-adv-x="829" d="M82 1143q0 158 97 245t245 87q146 0 235 -84t89 -236q0 -84 -27.5 -151t-75 -108.5t-107.5 -63t-128 -21.5q-63 0 -120.5 21t-104.5 61t-75 104.5t-28 145.5zM248 1149q0 -94 46.5 -150.5t119.5 -56.5h8q70 0 115 52.5t45 148.5q0 94 -45 147t-125 53q-71 0 -117.5 -47 t-46.5 -147z" />
<glyph unicode="&#xbb;" horiz-adv-x="1114" d="M68 195l260 325l-256 348l147 115l338 -457l-354 -446zM522 156l289 360l-287 391l164 125l375 -506l-393 -495z" />
<glyph unicode="&#xbc;" horiz-adv-x="1720" d="M94 1454l225 41h150l-35 -881h-164l27 738l-199 -23zM369 -8l731 1583l102 -62l-729 -1583zM909 197l6 118l359 566h182l-20 -549h104l-14 -135h-96l-7 -197h-157l6 197h-363zM1081 332h197l10 266l6 68z" />
<glyph unicode="&#xbd;" horiz-adv-x="1720" d="M94 1454l225 41h150l-35 -881h-164l27 738l-199 -23zM354 -8l731 1583l103 -62l-729 -1583zM1028 -2l4 123q205 209 277.5 321t72.5 185q0 61 -36.5 98t-96.5 37q-83 0 -190 -64l-15 131q109 70 228 70q132 0 207 -72.5t75 -185.5q0 -96 -66.5 -206.5t-254.5 -297.5h344 l-23 -139h-526z" />
<glyph unicode="&#xbe;" horiz-adv-x="1720" d="M94 662v141q118 -78 221 -78q68 0 107 36t39 91q0 52 -49.5 95.5t-169.5 60.5l4 108q116 19 165.5 63t49.5 99q0 45 -34 75.5t-97 30.5q-87 0 -195 -67l-12 129q115 70 237 70q126 0 196.5 -67t70.5 -157q0 -40 -15 -78t-56 -76.5t-103 -58.5q92 -25 135 -88.5t43 -132.5 q0 -108 -84 -186t-234 -78q-116 0 -219 68zM453 -8l731 1583l102 -62l-729 -1583zM973 197l6 118l358 566h183l-21 -549h105l-15 -135h-96l-6 -197h-158l6 197h-362zM1145 332h196l11 266l6 68z" />
<glyph unicode="&#xbf;" horiz-adv-x="843" d="M88 -127q0 182 166 320l41 34q108 92 108 183q0 65 -26 133l174 47q78 -125 78 -238q0 -126 -154 -256l-43 -35q-102 -85 -102 -174q0 -57 40 -94t117 -37q84 0 201 43l17 -172q-126 -59 -267 -59q-88 0 -157.5 27.5t-110 73t-61.5 98t-21 106.5zM356 920q0 62 40 102.5 t104 40.5t102.5 -42.5t38.5 -107.5q0 -61 -39 -102t-104 -41q-64 0 -103 42.5t-39 107.5z" />
<glyph unicode="&#xc0;" horiz-adv-x="1325" d="M51 0l492 1450l288 8l414 -1458h-254l-100 365h-488l-116 -365h-236zM375 1765l20 189l484 -234l-25 -155zM459 551h385l-133 500q-22 79 -41 174q0 -1 -5.5 -22t-17 -63t-26.5 -89z" />
<glyph unicode="&#xc1;" horiz-adv-x="1325" d="M51 0l492 1450l288 8l414 -1458h-254l-100 365h-488l-116 -365h-236zM459 551h385l-133 500q-22 79 -41 174q0 -1 -5.5 -22t-17 -63t-26.5 -89zM496 1720l483 234l20 -189l-479 -200z" />
<glyph unicode="&#xc2;" horiz-adv-x="1325" d="M51 0l492 1450l288 8l414 -1458h-254l-100 365h-488l-116 -365h-236zM352 1667l353 293l339 -283l-120 -129l-236 203l-239 -201zM459 551h385l-133 500q-32 119 -41 172q-21 -83 -49 -172z" />
<glyph unicode="&#xc3;" horiz-adv-x="1325" d="M51 0l492 1450l288 8l414 -1458h-254l-100 365h-488l-116 -365h-236zM344 1612q21 79 50 132.5t62.5 79t63 35t62.5 9.5q44 0 125 -33l26 -10q47 -21 78 -21q17 0 30.5 5.5t34 35t37.5 82.5l127 -39q-20 -80 -48.5 -133.5t-62 -78.5t-62.5 -34.5t-64 -9.5q-48 0 -125 33 l-25 10q-55 21 -78 21q-17 0 -31 -6t-34.5 -35.5t-38.5 -81.5zM459 551h385l-133 500q-22 79 -41 174q0 -1 -5.5 -22t-17 -63t-26.5 -89z" />
<glyph unicode="&#xc4;" horiz-adv-x="1325" d="M51 0l492 1450l288 8l414 -1458h-254l-100 365h-488l-116 -365h-236zM381 1745q0 57 34 95t91 38q54 0 83 -34.5t29 -90.5q0 -59 -33.5 -98t-90.5 -39q-54 0 -83.5 36.5t-29.5 92.5zM459 551h385l-133 500q-22 79 -41 174q0 -1 -5.5 -22t-17 -63t-26.5 -89zM762 1745 q0 57 34 95t91 38q54 0 83 -34.5t29 -90.5q0 -58 -35 -97.5t-92 -39.5q-52 0 -81 36.5t-29 92.5z" />
<glyph unicode="&#xc5;" horiz-adv-x="1325" d="M51 0l492 1450l288 8l414 -1458h-254l-100 365h-488l-116 -365h-236zM430 1765q0 119 78 189.5t194 70.5q110 0 178 -61t68 -164q0 -120 -78 -190t-196 -70q-110 0 -177 61t-67 164zM459 551h385l-133 500q-22 79 -41 174q0 -1 -5.5 -22t-17 -63t-26.5 -89zM588 1780 q0 -60 26 -93.5t70 -33.5q49 0 78 35.5t29 99.5q0 60 -27 92.5t-72 32.5q-47 0 -75.5 -35t-28.5 -98z" />
<glyph unicode="&#xc6;" horiz-adv-x="1863" d="M16 0l869 1454h811l-8 -186h-478l-14 -441h442l-6 -182h-442l-14 -457h518l-19 -188h-743l12 365h-463l-209 -365h-256zM584 551h366l25 696q-53 -110 -107 -203z" />
<glyph unicode="&#xc7;" horiz-adv-x="1267" d="M127 684q0 190 50.5 349t152.5 265q83 86 199.5 131.5t246.5 45.5q181 0 342 -72l-37 -184q-157 61 -301 61q-159 0 -258 -92q-151 -136 -151 -477q0 -249 100 -392t289 -143q136 0 336 82v-197q-188 -81 -369 -81q-223 0 -381 141q-106 96 -162.5 242t-56.5 321z M526 -494l9 129q61 -30 114 -30q37 0 59.5 22t22.5 54q0 99 -178 120l29 113q89 -4 155 -27.5t99 -59.5t48 -71.5t15 -72.5q0 -89 -63 -151t-162 -62q-86 0 -148 36z" />
<glyph unicode="&#xc8;" horiz-adv-x="1140" d="M193 0l51 1454h723l-6 -186h-488l-14 -441h452l-6 -180h-454l-15 -461h529l-21 -186h-751zM315 1765l21 189l483 -234l-24 -155z" />
<glyph unicode="&#xc9;" horiz-adv-x="1140" d="M193 0l51 1454h723l-6 -186h-488l-14 -441h452l-6 -180h-454l-15 -461h529l-21 -186h-751zM436 1720l484 234l20 -189l-479 -200z" />
<glyph unicode="&#xca;" horiz-adv-x="1140" d="M193 0l51 1454h723l-6 -186h-488l-14 -441h452l-6 -180h-454l-15 -461h529l-21 -186h-751zM293 1667l352 293l340 -283l-121 -129l-235 203l-240 -201z" />
<glyph unicode="&#xcb;" horiz-adv-x="1140" d="M193 0l51 1454h723l-6 -186h-488l-14 -441h452l-6 -180h-454l-15 -461h529l-21 -186h-751zM322 1745q0 57 33.5 95t90.5 38q54 0 83.5 -34.5t29.5 -90.5q0 -59 -34 -98t-91 -39q-54 0 -83 36.5t-29 92.5zM702 1745q0 57 34 95t91 38q54 0 83.5 -34.5t29.5 -90.5 q0 -58 -35 -97.5t-92 -39.5q-52 0 -81.5 36.5t-29.5 92.5z" />
<glyph unicode="&#xcc;" horiz-adv-x="663" d="M61 1765l21 189l483 -234l-24 -155zM193 0l51 1454h235l-51 -1454h-235z" />
<glyph unicode="&#xcd;" horiz-adv-x="663" d="M182 1720l484 234l20 -189l-479 -200zM193 0l51 1454h235l-51 -1454h-235z" />
<glyph unicode="&#xce;" horiz-adv-x="663" d="M39 1667l352 293l340 -283l-121 -129l-235 203l-240 -201zM193 0l51 1454h235l-51 -1454h-235z" />
<glyph unicode="&#xcf;" horiz-adv-x="663" d="M68 1745q0 57 34 95t91 38q54 0 83 -34.5t29 -90.5q0 -59 -34 -98t-91 -39q-54 0 -83 36.5t-29 92.5zM193 0l51 1454h235l-51 -1454h-235zM449 1745q0 57 33.5 95t90.5 38q54 0 83.5 -34.5t29.5 -90.5q0 -58 -35 -97.5t-92 -39.5q-52 0 -81 36.5t-29 92.5z" />
<glyph unicode="&#xd0;" horiz-adv-x="1456" d="M47 651l6 160h170l23 643h321q208 0 355.5 -47t246.5 -150q172 -172 172 -501q0 -197 -72 -365t-218 -268q-176 -123 -473 -123h-383l22 651h-170zM436 190h156q206 0 332 99q89 70 132.5 190t43.5 262q0 256 -117 381q-68 76 -170 110t-256 34h-84l-16 -455h346l-6 -160 h-346z" />
<glyph unicode="&#xd1;" horiz-adv-x="1564" d="M199 0l51 1454h270l617 -1130q-6 80 0 254l30 876h219l-51 -1454h-278l-613 1128q1 -10 2 -30.5t2 -94t-2 -161.5l-28 -842h-219zM483 1612q21 79 50 132.5t62.5 79t63 35t62.5 9.5q44 0 125 -33l26 -10q47 -21 78 -21q13 0 23 3.5t24 14.5t28.5 37.5t27.5 67.5l127 -39 q-20 -80 -49 -133.5t-62.5 -78.5t-62.5 -34.5t-64 -9.5q-48 0 -125 33l-24 10q-55 21 -78 21q-17 0 -31 -6t-35 -35.5t-39 -81.5z" />
<glyph unicode="&#xd2;" horiz-adv-x="1468" d="M121 690q0 227 71 402t207 274q145 109 369 109q276 0 432 -180t156 -517q0 -179 -47 -338t-148 -270q-175 -190 -450 -190q-271 0 -420 170q-170 185 -170 540zM365 711q0 -299 127 -443q84 -96 227 -96h12q72 0 140 30t116 87q125 154 125 471q0 242 -92 381t-270 139 q-125 0 -207 -57q-178 -122 -178 -512zM455 1765l20 189l483 -234l-24 -155z" />
<glyph unicode="&#xd3;" horiz-adv-x="1468" d="M121 690q0 227 71 402t207 274q145 109 369 109q276 0 432 -180t156 -517q0 -179 -47 -338t-148 -270q-175 -190 -450 -190q-271 0 -420 170q-170 185 -170 540zM365 711q0 -299 127 -443q84 -96 227 -96h12q72 0 140 30t116 87q125 154 125 471q0 242 -92 381t-270 139 q-125 0 -207 -57q-178 -122 -178 -512zM575 1720l484 234l20 -189l-479 -200z" />
<glyph unicode="&#xd4;" horiz-adv-x="1468" d="M121 690q0 227 71 402t207 274q145 109 369 109q276 0 432 -180t156 -517q0 -179 -47 -338t-148 -270q-175 -190 -450 -190q-271 0 -420 170q-170 185 -170 540zM365 711q0 -299 127 -443q84 -96 227 -96h12q72 0 140 30t116 87q125 154 125 471q0 242 -92 381t-270 139 q-125 0 -207 -57q-178 -122 -178 -512zM432 1667l352 293l340 -283l-120 -129l-236 203l-240 -201z" />
<glyph unicode="&#xd5;" horiz-adv-x="1468" d="M121 690q0 227 71 402t207 274q145 109 369 109q276 0 432 -180t156 -517q0 -179 -47 -338t-148 -270q-175 -190 -450 -190q-271 0 -420 170q-170 185 -170 540zM365 711q0 -299 127 -443q84 -96 227 -96h12q72 0 140 30t116 87q125 154 125 471q0 242 -92 381t-270 139 q-125 0 -207 -57q-178 -122 -178 -512zM424 1612q21 79 50 132.5t62.5 79t63 35t62.5 9.5q43 0 124 -33l27 -10q47 -21 78 -21q17 0 30.5 5.5t34 35t37.5 82.5l127 -39q-20 -80 -48.5 -133.5t-62 -78.5t-62.5 -34.5t-64 -9.5q-48 0 -125 33l-25 10q-55 21 -78 21 q-17 0 -31 -6t-34.5 -35.5t-38.5 -81.5z" />
<glyph unicode="&#xd6;" horiz-adv-x="1468" d="M121 690q0 227 71 402t207 274q145 109 369 109q276 0 432 -180t156 -517q0 -179 -47 -338t-148 -270q-175 -190 -450 -190q-271 0 -420 170q-170 185 -170 540zM365 711q0 -299 127 -443q84 -96 227 -96h12q72 0 140 30t116 87q125 154 125 471q0 242 -92 381t-270 139 q-125 0 -207 -57q-178 -122 -178 -512zM461 1745q0 57 34 95t91 38q54 0 83 -34.5t29 -90.5q0 -59 -34 -98t-91 -39q-54 0 -83 36.5t-29 92.5zM842 1745q0 57 34 95t91 38q54 0 83 -34.5t29 -90.5q0 -58 -35 -97.5t-92 -39.5q-52 0 -81 36.5t-29 92.5z" />
<glyph unicode="&#xd7;" horiz-adv-x="1142" d="M102 254l347 344l-347 344l125 125l344 -346l347 346l122 -125l-346 -344l346 -344l-122 -125l-347 344l-344 -344z" />
<glyph unicode="&#xd8;" horiz-adv-x="1468" d="M127 690q0 228 70.5 403t208.5 273q145 109 368 109q171 0 301 -76l156 241l133 -102l-158 -242q156 -179 156 -518q0 -397 -193 -608q-178 -190 -452 -190q-176 0 -303 81l-140 -219l-133 101l142 223q-156 190 -156 524zM371 711q0 -200 57 -322l528 823 q-81 68 -198 68q-124 0 -209 -57q-178 -120 -178 -512zM528 242q77 -68 197 -68h12q75 0 142.5 29.5t113.5 87.5q125 152 125 469q0 195 -55 311z" />
<glyph unicode="&#xd9;" horiz-adv-x="1482" d="M193 694l26 760h234l-27 -766q-3 -145 7 -233.5t48 -149.5q36 -57 99 -90t145 -33q144 0 229 88q59 60 80.5 157t26.5 249l29 778h225l-29 -760q-7 -204 -42.5 -335.5t-129.5 -229.5q-70 -73 -178 -111t-240 -38q-145 0 -251.5 49t-165.5 139q-60 90 -76.5 208.5 t-9.5 317.5zM459 1765l20 189l484 -234l-25 -155z" />
<glyph unicode="&#xda;" horiz-adv-x="1482" d="M193 694l26 760h234l-27 -766q-3 -145 7 -233.5t48 -149.5q36 -57 99 -90t145 -33q144 0 229 88q59 60 80.5 157t26.5 249l29 778h225l-29 -760q-7 -204 -42.5 -335.5t-129.5 -229.5q-70 -73 -178 -111t-240 -38q-145 0 -251.5 49t-165.5 139q-60 90 -76.5 208.5 t-9.5 317.5zM580 1720l483 234l20 -189l-479 -200z" />
<glyph unicode="&#xdb;" horiz-adv-x="1482" d="M193 694l26 760h234l-27 -766q-3 -145 7 -233.5t48 -149.5q36 -57 99 -90t145 -33q144 0 229 88q59 60 80.5 157t26.5 249l29 778h225l-29 -760q-7 -204 -42.5 -335.5t-129.5 -229.5q-70 -73 -178 -111t-240 -38q-145 0 -251.5 49t-165.5 139q-60 90 -76.5 208.5 t-9.5 317.5zM436 1667l352 293l340 -283l-120 -129l-236 203l-240 -201z" />
<glyph unicode="&#xdc;" horiz-adv-x="1482" d="M193 694l26 760h234l-27 -766q-3 -145 7 -233.5t48 -149.5q36 -57 99 -90t145 -33q144 0 229 88q59 60 80.5 157t26.5 249l29 778h225l-29 -760q-7 -204 -42.5 -335.5t-129.5 -229.5q-70 -73 -178 -111t-240 -38q-145 0 -251.5 49t-165.5 139q-60 90 -76.5 208.5 t-9.5 317.5zM465 1745q0 57 34 95t91 38q54 0 83 -34.5t29 -90.5q0 -59 -33.5 -98t-90.5 -39q-54 0 -83.5 36.5t-29.5 92.5zM846 1745q0 57 34 95t91 38q54 0 83 -34.5t29 -90.5q0 -58 -35 -97.5t-92 -39.5q-52 0 -81 36.5t-29 92.5z" />
<glyph unicode="&#xdd;" horiz-adv-x="1251" d="M59 1454h269l315 -614l365 614h235l-510 -840l-20 -614h-236l23 614zM455 1720l483 234l20 -189l-479 -200z" />
<glyph unicode="&#xde;" horiz-adv-x="1212" d="M195 0l51 1454h235l-8 -221h33q123 0 211.5 -18.5t165.5 -63.5q97 -60 153 -157.5t56 -229.5q0 -135 -63 -251t-181 -183q-140 -77 -311 -54l8 183q124 -11 198 45q51 37 80 104t29 152q0 151 -104 225q-79 59 -242 59h-41l-35 -1044h-235z" />
<glyph unicode="&#xdf;" horiz-adv-x="1200" d="M-246 -344q37 -6 76 -6q141 0 223.5 119t89.5 372l27 752q5 158 41.5 282.5t93 203t133.5 130t158 72.5t172 21q84 0 153.5 -25.5t113.5 -67t67.5 -92.5t23.5 -104q0 -74 -34 -142.5t-82 -119t-96.5 -95.5t-82.5 -91t-34 -87q0 -42 31 -83t98 -95l67 -55q78 -66 109 -127 t31 -131q0 -127 -100.5 -217t-268.5 -90q-154 0 -262 43l2 172q134 -45 237 -45q78 0 117 36.5t39 79.5q0 34 -23.5 71t-93.5 93l-65 53q-72 60 -109 116.5t-37 135.5q0 54 25 107t62 94.5t81 86.5t81 83t62 84t25 90q0 64 -50 102.5t-128 38.5q-50 0 -95 -14t-88.5 -48.5 t-75.5 -88t-53 -137.5t-24 -191l-22 -737q-12 -379 -147.5 -557t-387.5 -178q-32 0 -78 4z" />
<glyph unicode="&#xe0;" horiz-adv-x="1003" d="M86 420q0 631 541 631q114 0 278 -23l-26 -289q-17 -188 -21.5 -336t-1.5 -399l-215 -8q-2 255 12 387q-15 -54 -53 -117q-71 -148 -147 -216t-142 -68q-39 0 -77 24t-72 72.5t-55 137t-21 204.5zM266 1466l39 187l432 -310l-41 -153zM305 467q0 -125 23.5 -191.5 t56.5 -66.5q34 0 88.5 71t108.5 191q75 171 84 317l6 76q-66 13 -113 13q-120 0 -187 -102t-67 -308z" />
<glyph unicode="&#xe1;" horiz-adv-x="1003" d="M86 420q0 631 541 631q114 0 278 -23l-26 -289q-17 -188 -21.5 -336t-1.5 -399l-215 -8q-2 255 12 387q-15 -54 -53 -117q-71 -148 -147 -216t-142 -68q-39 0 -77 24t-72 72.5t-55 137t-21 204.5zM305 467q0 -125 23.5 -191.5t56.5 -66.5q34 0 88.5 71t108.5 191 q75 171 84 317l6 76q-66 13 -113 13q-120 0 -187 -102t-67 -308zM408 1335l432 310l39 -187l-430 -276z" />
<glyph unicode="&#xe2;" horiz-adv-x="1003" d="M86 420q0 631 541 631q114 0 278 -23l-26 -289q-17 -188 -21.5 -336t-1.5 -399l-215 -8q-2 255 12 387q-15 -54 -53 -117q-71 -148 -147 -216t-142 -68q-39 0 -77 24t-72 72.5t-55 137t-21 204.5zM248 1298l338 340l295 -333l-121 -119l-197 229l-221 -231zM305 467 q0 -125 23.5 -191.5t56.5 -66.5q34 0 88.5 71t108.5 191q75 171 84 317l6 76q-66 13 -113 13q-120 0 -187 -102t-67 -308z" />
<glyph unicode="&#xe3;" horiz-adv-x="1003" d="M86 420q0 631 541 631q114 0 278 -23l-26 -289q-17 -188 -21.5 -336t-1.5 -399l-215 -8q-2 255 12 387q-15 -54 -53 -117q-71 -148 -147 -216t-142 -68q-39 0 -77 24t-72 72.5t-55 137t-21 204.5zM231 1253q20 79 48.5 132.5t60.5 79t60 35t61 9.5q45 0 123 -32l24 -11 q45 -20 74 -20q18 0 32 6t34.5 35t37.5 82l121 -37q-20 -79 -48 -132.5t-60 -79t-60 -35t-61 -9.5q-42 0 -123 33l-25 10q-45 20 -73 20q-18 0 -32 -6t-34 -34.5t-37 -81.5zM305 467q0 -125 23.5 -191.5t56.5 -66.5q34 0 88.5 71t108.5 191q75 171 84 317l6 76 q-66 13 -113 13q-120 0 -187 -102t-67 -308z" />
<glyph unicode="&#xe4;" horiz-adv-x="1003" d="M86 420q0 631 541 631q114 0 278 -23l-26 -289q-17 -188 -21.5 -336t-1.5 -399l-215 -8q-2 255 12 387q-15 -54 -53 -117q-71 -148 -147 -216t-142 -68q-39 0 -77 24t-72 72.5t-55 137t-21 204.5zM262 1376q0 63 33.5 99t89.5 36q55 0 84 -34.5t29 -92.5q0 -60 -34 -97.5 t-91 -37.5q-52 0 -81.5 35.5t-29.5 91.5zM305 467q0 -125 23.5 -191.5t56.5 -66.5q34 0 88.5 71t108.5 191q75 171 84 317l6 76q-66 13 -113 13q-120 0 -187 -102t-67 -308zM637 1376q0 63 33.5 99t89.5 36q55 0 83.5 -34.5t28.5 -92.5q0 -60 -33.5 -97.5t-90.5 -37.5 q-52 0 -81.5 35.5t-29.5 91.5z" />
<glyph unicode="&#xe5;" horiz-adv-x="1003" d="M86 420q0 631 541 631q114 0 278 -23l-26 -289q-17 -188 -21.5 -336t-1.5 -399l-215 -8q-2 255 12 387q-15 -54 -53 -117q-71 -148 -147 -216t-142 -68q-39 0 -77 24t-72 72.5t-55 137t-21 204.5zM305 467q0 -125 23.5 -191.5t56.5 -66.5q34 0 88.5 71t108.5 191 q75 171 84 317l6 76q-66 13 -113 13q-120 0 -187 -102t-67 -308zM317 1391q0 122 76 201t191 79q109 0 173 -65t64 -174q0 -122 -75.5 -201.5t-190.5 -79.5q-108 0 -173 66t-65 174zM475 1401q0 -67 23.5 -101t64.5 -34q42 0 71.5 39t29.5 116q0 67 -24.5 102.5t-66.5 35.5 q-41 0 -69.5 -40t-28.5 -118z" />
<glyph unicode="&#xe6;" horiz-adv-x="1482" d="M86 420q0 138 26.5 246.5t72.5 180t112 118t141 66.5t164 20q134 0 285 -66q109 70 239 70q74 0 130 -21.5t88 -57t47.5 -77t15.5 -86.5q0 -57 -21 -108.5t-69.5 -100.5t-141 -83.5t-221.5 -47.5l-84 -8q-6 -137 42 -223t155 -86q109 0 276 96l17 -166 q-172 -106 -336 -106q-154 0 -251 88.5t-118 281.5q-20 -58 -53 -108q-76 -133 -153.5 -196.5t-137.5 -63.5q-39 0 -77 24t-72 72.5t-55 137t-21 204.5zM305 467q0 -125 23.5 -191.5t56.5 -66.5q35 0 88 71t109 191q75 159 96 307l12 72q-55 27 -133 27q-116 0 -184 -101 t-68 -309zM872 606l84 10q131 14 189.5 62t58.5 115q0 46 -30.5 74t-81.5 28q-87 0 -149 -74.5t-71 -214.5z" />
<glyph unicode="&#xe7;" horiz-adv-x="831" d="M86 459q0 281 121.5 439.5t320.5 158.5q108 0 215 -37l-28 -172q-91 33 -168 33q-108 0 -173 -98.5t-65 -284.5q0 -179 54.5 -257.5t134.5 -78.5q82 0 225 80l18 -170q-161 -92 -297 -92q-168 0 -263 123.5t-95 355.5zM293 -494l8 123q67 -30 113 -30q37 0 59.5 24.5 t22.5 57.5q0 104 -174 126l26 103q72 -3 128 -19.5t89 -40t54.5 -53.5t29.5 -57.5t8 -56.5q0 -88 -62.5 -150.5t-160.5 -62.5q-79 0 -141 36z" />
<glyph unicode="&#xe8;" horiz-adv-x="919" d="M88 451q0 283 128 443.5t347 160.5q74 0 130.5 -21t88 -57t47 -77.5t15.5 -86.5t-12 -86.5t-44 -84.5t-81.5 -76.5t-130.5 -59t-185 -35.5l-84 -8q-6 -136 43 -223.5t154 -87.5q103 0 278 94l15 -160q-172 -106 -338 -106q-82 0 -147.5 26t-116.5 80t-79 147t-28 218z M221 1466l39 187l432 -310l-41 -153zM311 606l84 8q130 14 189 63t59 116q0 46 -31.5 74t-83.5 28q-85 0 -146.5 -75t-70.5 -214z" />
<glyph unicode="&#xe9;" horiz-adv-x="919" d="M88 451q0 283 128 443.5t347 160.5q74 0 130.5 -21t88 -57t47 -77.5t15.5 -86.5t-12 -86.5t-44 -84.5t-81.5 -76.5t-130.5 -59t-185 -35.5l-84 -8q-6 -136 43 -223.5t154 -87.5q103 0 278 94l15 -160q-172 -106 -338 -106q-82 0 -147.5 26t-116.5 80t-79 147t-28 218z M311 606l84 8q130 14 189 63t59 116q0 46 -31.5 74t-83.5 28q-85 0 -146.5 -75t-70.5 -214zM360 1335l433 310l38 -187l-430 -276z" />
<glyph unicode="&#xea;" horiz-adv-x="919" d="M88 451q0 283 128 443.5t347 160.5q74 0 130.5 -21t88 -57t47 -77.5t15.5 -86.5t-12 -86.5t-44 -84.5t-81.5 -76.5t-130.5 -59t-185 -35.5l-84 -8q-6 -136 43 -223.5t154 -87.5q103 0 278 94l15 -160q-172 -106 -338 -106q-82 0 -147.5 26t-116.5 80t-79 147t-28 218z M203 1298l338 340l295 -333l-121 -119l-197 229l-221 -231zM311 606l84 8q130 14 189 63t59 116q0 46 -31.5 74t-83.5 28q-85 0 -146.5 -75t-70.5 -214z" />
<glyph unicode="&#xeb;" horiz-adv-x="919" d="M88 451q0 283 128 443.5t347 160.5q74 0 130.5 -21t88 -57t47 -77.5t15.5 -86.5t-12 -86.5t-44 -84.5t-81.5 -76.5t-130.5 -59t-185 -35.5l-84 -8q-6 -136 43 -223.5t154 -87.5q103 0 278 94l15 -160q-172 -106 -338 -106q-82 0 -147.5 26t-116.5 80t-79 147t-28 218z M215 1376q0 63 33.5 99t89.5 36q55 0 84 -34.5t29 -92.5q0 -60 -34 -97.5t-91 -37.5q-52 0 -81.5 35.5t-29.5 91.5zM311 606l84 8q130 14 189 63t59 116q0 46 -31.5 74t-83.5 28q-85 0 -146.5 -75t-70.5 -214zM590 1376q0 63 33.5 99t89.5 36q55 0 83.5 -34.5t28.5 -92.5 q0 -60 -34 -97.5t-91 -37.5q-52 0 -81 35.5t-29 91.5z" />
<glyph unicode="&#xec;" horiz-adv-x="475" d="M-8 1513l78 177l358 -396l-74 -139zM90 -4q0 160 14 393l15 211q7 106 11 207.5t4 150.5l1 48l219 20q0 -162 -16 -395l-14 -211q-6 -105 -10 -209t-4 -155l-1 -52z" />
<glyph unicode="&#xed;" horiz-adv-x="475" d="M90 -4q0 160 14 393l15 211q7 106 11 207.5t4 150.5l1 48l219 20q0 -162 -16 -395l-14 -211q-6 -105 -10 -209t-4 -155l-1 -52zM106 1288l359 393l78 -174l-363 -360z" />
<glyph unicode="&#xee;" horiz-adv-x="475" d="M-53 1298l338 340l295 -333l-121 -119l-197 229l-221 -231zM90 -4q0 160 14 393l15 211q7 106 11 207.5t4 150.5l1 48l219 20q0 -162 -16 -395l-14 -211q-6 -105 -10 -209t-4 -155l-1 -52z" />
<glyph unicode="&#xef;" horiz-adv-x="475" d="M-39 1376q0 63 33.5 99t89.5 36q55 0 84 -34.5t29 -92.5q0 -60 -34 -97.5t-91 -37.5q-52 0 -81.5 35.5t-29.5 91.5zM90 -4q0 160 14 393l15 211q7 106 11 207.5t4 150.5l1 48l219 20q0 -162 -16 -395l-14 -211q-6 -105 -10 -209t-4 -155l-1 -52zM336 1376q0 63 33.5 99 t89.5 36q55 0 83.5 -34.5t28.5 -92.5q0 -60 -34 -97.5t-91 -37.5q-52 0 -81 35.5t-29 91.5z" />
<glyph unicode="&#xf0;" horiz-adv-x="1013" d="M86 420q0 249 116 393.5t326 144.5q81 0 162 -24q-32 210 -129 321l-223 -174l-84 113l195 147q-120 80 -295 89l30 167q237 3 430 -127l164 127l84 -112l-139 -107q103 -116 157 -278.5t54 -347.5q0 -191 -39.5 -341.5t-108 -244.5t-157 -142.5t-189.5 -48.5 q-166 0 -260 120.5t-94 324.5zM303 459q0 -149 48 -227t116 -78q66 0 119 59q123 132 123 453q0 69 -2 106q-94 31 -162 31q-119 0 -180.5 -92t-61.5 -252z" />
<glyph unicode="&#xf1;" horiz-adv-x="1026" d="M106 -4l23 297q19 220 25.5 360.5t9.5 374.5l215 21q0 -265 -14 -412q24 80 98 186q145 232 276 232q98 0 141 -104.5t29 -299.5l-22 -260q-12 -151 -17 -387l-221 -8q6 193 19 364l18 240q8 108 -2 160.5t-43 52.5q-29 0 -78 -53t-112 -170q-58 -104 -84 -196t-35 -214 l-13 -176zM215 1253q20 79 48 132.5t60 79t60 35t61 9.5q45 0 123 -32l25 -11q45 -20 74 -20q18 0 32 6t34.5 35t37.5 82l121 -37q-20 -79 -48 -132.5t-60 -79t-60 -35t-61 -9.5q-42 0 -123 33l-25 10q-45 20 -74 20q-18 0 -31.5 -6t-33.5 -34.5t-37 -81.5z" />
<glyph unicode="&#xf2;" horiz-adv-x="985" d="M82 442q0 163 37 284.5t102 191.5t145 103.5t175 33.5q72 0 135 -26.5t115.5 -80t83 -145t30.5 -209.5q0 -162 -37 -283.5t-102 -192t-145 -104.5t-175 -34q-72 0 -135.5 26.5t-115.5 80t-82.5 145t-30.5 210.5zM219 1470l39 187l432 -309l-41 -154zM305 481 q0 -327 176 -327q28 0 54.5 11t53.5 39.5t46.5 72t32 115.5t12.5 163q0 174 -48 250t-128 76q-36 0 -68.5 -19t-63.5 -61.5t-49 -125t-18 -194.5z" />
<glyph unicode="&#xf3;" horiz-adv-x="985" d="M82 442q0 163 37 284.5t102 191.5t145 103.5t175 33.5q72 0 135 -26.5t115.5 -80t83 -145t30.5 -209.5q0 -162 -37 -283.5t-102 -192t-145 -104.5t-175 -34q-72 0 -135.5 26.5t-115.5 80t-82.5 145t-30.5 210.5zM305 481q0 -327 176 -327q28 0 54.5 11t53.5 39.5t46.5 72 t32 115.5t12.5 163q0 174 -48 250t-128 76q-36 0 -68.5 -19t-63.5 -61.5t-49 -125t-18 -194.5zM360 1339l433 310l38 -187l-430 -276z" />
<glyph unicode="&#xf4;" horiz-adv-x="985" d="M82 442q0 163 37 284.5t102 191.5t145 103.5t175 33.5q72 0 135 -26.5t115.5 -80t83 -145t30.5 -209.5q0 -162 -37 -283.5t-102 -192t-145 -104.5t-175 -34q-72 0 -135.5 26.5t-115.5 80t-82.5 145t-30.5 210.5zM201 1303l338 339l295 -333l-121 -119l-197 229l-221 -231 zM305 481q0 -327 176 -327q28 0 54.5 11t53.5 39.5t46.5 72t32 115.5t12.5 163q0 174 -48 250t-128 76q-36 0 -68.5 -19t-63.5 -61.5t-49 -125t-18 -194.5z" />
<glyph unicode="&#xf5;" horiz-adv-x="985" d="M82 442q0 163 37 284.5t102 191.5t145 103.5t175 33.5q72 0 135 -26.5t115.5 -80t83 -145t30.5 -209.5q0 -162 -37 -283.5t-102 -192t-145 -104.5t-175 -34q-72 0 -135.5 26.5t-115.5 80t-82.5 145t-30.5 210.5zM184 1257q20 79 48.5 132.5t60.5 79t60 35t61 9.5 q45 0 123 -32l24 -11q45 -20 74 -20q18 0 32 6t34.5 35t37.5 82l121 -37q-20 -79 -48 -132.5t-60 -79t-60 -35t-61 -9.5q-42 0 -123 33l-25 10q-45 20 -73 20q-18 0 -32 -6t-34 -34.5t-37 -81.5zM305 481q0 -327 176 -327q28 0 54.5 11t53.5 39.5t46.5 72t32 115.5t12.5 163 q0 174 -48 250t-128 76q-36 0 -68.5 -19t-63.5 -61.5t-49 -125t-18 -194.5z" />
<glyph unicode="&#xf6;" horiz-adv-x="985" d="M82 442q0 163 37 284.5t102 191.5t145 103.5t175 33.5q72 0 135 -26.5t115.5 -80t83 -145t30.5 -209.5q0 -162 -37 -283.5t-102 -192t-145 -104.5t-175 -34q-72 0 -135.5 26.5t-115.5 80t-82.5 145t-30.5 210.5zM215 1380q0 63 33.5 99.5t89.5 36.5q55 0 84 -34.5 t29 -92.5q0 -60 -34 -98t-91 -38q-52 0 -81.5 35.5t-29.5 91.5zM305 481q0 -327 176 -327q28 0 54.5 11t53.5 39.5t46.5 72t32 115.5t12.5 163q0 174 -48 250t-128 76q-36 0 -68.5 -19t-63.5 -61.5t-49 -125t-18 -194.5zM590 1380q0 63 33.5 99.5t89.5 36.5q55 0 83.5 -34.5 t28.5 -92.5q0 -60 -34 -98t-91 -38q-52 0 -81 35.5t-29 91.5z" />
<glyph unicode="&#xf7;" horiz-adv-x="1163" d="M82 520v178h977v-178h-977zM459 223q0 50 34 84.5t87 34.5q50 0 82 -36.5t32 -88.5q0 -50 -34 -83.5t-87 -33.5q-52 0 -83 35t-31 88zM459 995q0 50 34 84.5t87 34.5q50 0 82 -36.5t32 -88.5q0 -50 -34 -83.5t-87 -33.5q-52 0 -83 35t-31 88z" />
<glyph unicode="&#xf8;" horiz-adv-x="980" d="M41 -92l127 211q-86 120 -86 323q0 163 37 284.5t102 191.5t145.5 103.5t176.5 33.5q94 0 168 -45l118 194l115 -65l-131 -217q92 -124 92 -328q0 -130 -24.5 -234.5t-67 -174.5t-102 -117t-126.5 -67.5t-143 -20.5q-100 0 -174 49l-110 -185zM303 481q0 -71 14 -125 l291 484q-42 45 -104 45q-34 0 -66.5 -20t-64 -63.5t-51 -126.5t-19.5 -194zM373 199q41 -49 108 -49q35 0 68 20t64.5 63.5t51 126.5t19.5 195q0 83 -18 133z" />
<glyph unicode="&#xf9;" horiz-adv-x="1026" d="M117 391l22 260q6 81 9.5 151.5t5 134.5t2.5 89l221 23q-6 -201 -19 -367l-18 -240q-8 -110 1.5 -163.5t43.5 -53.5q28 0 76.5 54.5t113.5 173.5q58 102 83.5 194.5t33.5 214.5l13 164l215 23l-25 -299q-27 -352 -35 -744l-217 -10q5 259 19 410q-21 -71 -99 -187 q-149 -233 -276 -233q-100 0 -142 104.5t-28 300.5zM258 1466l39 187l432 -310l-41 -153z" />
<glyph unicode="&#xfa;" horiz-adv-x="1026" d="M117 391l22 260q6 81 9.5 151.5t5 134.5t2.5 89l221 23q-6 -201 -19 -367l-18 -240q-8 -110 1.5 -163.5t43.5 -53.5q28 0 76.5 54.5t113.5 173.5q58 102 83.5 194.5t33.5 214.5l13 164l215 23l-25 -299q-27 -352 -35 -744l-217 -10q5 259 19 410q-21 -71 -99 -187 q-149 -233 -276 -233q-100 0 -142 104.5t-28 300.5zM397 1335l432 310l39 -187l-430 -276z" />
<glyph unicode="&#xfb;" horiz-adv-x="1026" d="M117 391l22 260q6 81 9.5 151.5t5 134.5t2.5 89l221 23q-6 -201 -19 -367l-18 -240q-8 -110 1.5 -163.5t43.5 -53.5q28 0 76.5 54.5t113.5 173.5q58 102 83.5 194.5t33.5 214.5l13 164l215 23l-25 -299q-27 -352 -35 -744l-217 -10q5 259 19 410q-21 -71 -99 -187 q-149 -233 -276 -233q-100 0 -142 104.5t-28 300.5zM238 1298l337 340l295 -333l-120 -119l-197 229l-221 -231z" />
<glyph unicode="&#xfc;" horiz-adv-x="1026" d="M117 391l22 260q6 81 9.5 151.5t5 134.5t2.5 89l221 23q-6 -201 -19 -367l-18 -240q-8 -110 1.5 -163.5t43.5 -53.5q28 0 76.5 54.5t113.5 173.5q58 102 83.5 194.5t33.5 214.5l13 164l215 23l-25 -299q-27 -352 -35 -744l-217 -10q5 259 19 410q-21 -71 -99 -187 q-149 -233 -276 -233q-100 0 -142 104.5t-28 300.5zM252 1376q0 63 33.5 99t89.5 36q55 0 83.5 -34.5t28.5 -92.5q0 -60 -34 -97.5t-91 -37.5q-52 0 -81 35.5t-29 91.5zM627 1376q0 63 33.5 99t89.5 36q55 0 83.5 -34.5t28.5 -92.5q0 -60 -34 -97.5t-91 -37.5 q-52 0 -81 35.5t-29 91.5z" />
<glyph unicode="&#xfd;" horiz-adv-x="1030" d="M-152 -504l29 180q70 -18 125 -18q130 0 225 92q51 51 69.5 130.5t18.5 199.5q0 82 -17 183t-52 218t-98.5 244t-145.5 236l205 106q153 -190 230 -428.5t77 -448.5q0 -190 -47 -315q126 146 189 318.5t63 336.5q0 258 -113 465l201 78q131 -206 131 -504 q0 -127 -36.5 -260.5t-99.5 -253.5t-152.5 -226.5t-191 -184.5t-220 -123t-234.5 -45q-92 0 -156 20zM281 1335l432 310l39 -187l-430 -276z" />
<glyph unicode="&#xfe;" horiz-adv-x="1013" d="M78 -518l45 817q10 202 23 519.5t20 533.5l8 217l217 24l-33 -719q-11 -206 -14 -231q13 46 55 121q68 145 150.5 219t146.5 74q96 0 164 -111.5t68 -318.5q0 -641 -549 -641q-23 0 -55 4l-27 -498zM330 174q58 -12 121 -12q118 0 187 101.5t69 299.5q0 90 -12.5 152 t-30 87t-39.5 25q-32 0 -82.5 -57t-108.5 -172q-90 -178 -100 -346q-4 -76 -4 -78z" />
<glyph unicode="&#xff;" horiz-adv-x="1030" d="M-152 -504l29 180q70 -18 125 -18q130 0 225 92q51 51 69.5 130.5t18.5 199.5q0 82 -17 183t-52 218t-98.5 244t-145.5 236l205 106q153 -190 230 -428.5t77 -448.5q0 -190 -47 -315q126 146 189 318.5t63 336.5q0 258 -113 465l201 78q131 -206 131 -504 q0 -127 -36.5 -260.5t-99.5 -253.5t-152.5 -226.5t-191 -184.5t-220 -123t-234.5 -45q-92 0 -156 20zM135 1376q0 63 33.5 99t89.5 36q55 0 84 -34.5t29 -92.5q0 -60 -34 -97.5t-91 -37.5q-52 0 -81.5 35.5t-29.5 91.5zM510 1376q0 63 33.5 99t89.5 36q55 0 83.5 -34.5 t28.5 -92.5q0 -60 -33.5 -97.5t-90.5 -37.5q-52 0 -81.5 35.5t-29.5 91.5z" />
<glyph unicode="&#x152;" horiz-adv-x="1890" d="M127 684q0 227 73 403t212 275q151 113 364 113q98 0 213 -21h733l-8 -186h-477l-12 -441h442l-8 -182h-442l-15 -457h520l-20 -188h-770q-100 -20 -223 -20q-265 0 -416 167q-166 183 -166 537zM371 702q0 -299 125 -434q87 -96 229 -96h12q120 0 230 41l34 1030 q-112 37 -235 37q-119 0 -205 -55q-190 -128 -190 -523z" />
<glyph unicode="&#x153;" horiz-adv-x="1505" d="M82 442q0 163 37 284.5t102 191.5t145 103.5t175 33.5q80 0 154.5 -39t121.5 -115q125 154 332 154q74 0 130.5 -21t88 -57t47 -77.5t15.5 -86.5q0 -57 -21 -108.5t-69.5 -100.5t-141 -83.5t-221.5 -47.5l-84 -8q-6 -137 42.5 -223t156.5 -86q106 0 276 96l18 -162 q-175 -110 -337 -110q-198 0 -287 157q-116 -157 -316 -157q-72 0 -135.5 26.5t-115.5 80t-82.5 145t-30.5 210.5zM305 481q0 -327 176 -327q28 0 54.5 11t53.5 39.5t46.5 72t32 115.5t12.5 163q0 174 -48 250t-128 76q-36 0 -68.5 -19t-63.5 -61.5t-49 -125t-18 -194.5z M897 606l84 10q130 14 189 62t59 115q0 46 -31.5 74t-83.5 28q-85 0 -147.5 -75t-69.5 -214z" />
<glyph unicode="&#x178;" horiz-adv-x="1251" d="M59 1454h269l315 -614l365 614h235l-510 -840l-20 -614h-236l23 614zM340 1745q0 57 34 95t91 38q54 0 83.5 -34.5t29.5 -90.5q0 -59 -34 -98t-91 -39q-54 0 -83.5 36.5t-29.5 92.5zM721 1745q0 57 34 95t91 38q54 0 83 -34.5t29 -90.5q0 -58 -35 -97.5t-92 -39.5 q-52 0 -81 36.5t-29 92.5z" />
<glyph unicode="&#x2c6;" horiz-adv-x="837" d="M102 1298l338 340l295 -333l-121 -119l-196 229l-221 -231z" />
<glyph unicode="&#x2dc;" horiz-adv-x="880" d="M102 1253q20 79 48.5 132.5t60.5 79t60 35t61 9.5q45 0 123 -32l24 -11q45 -20 74 -20q18 0 32 6t34.5 35t37.5 82l121 -37q-20 -79 -48 -132.5t-60 -79t-60 -35t-61 -9.5q-42 0 -123 33l-25 10q-45 20 -73 20q-18 0 -32 -6t-34 -34.5t-37 -81.5z" />
<glyph unicode="&#x2000;" horiz-adv-x="1012" />
<glyph unicode="&#x2001;" horiz-adv-x="2025" />
<glyph unicode="&#x2002;" horiz-adv-x="1012" />
<glyph unicode="&#x2003;" horiz-adv-x="2025" />
<glyph unicode="&#x2004;" horiz-adv-x="675" />
<glyph unicode="&#x2005;" horiz-adv-x="506" />
<glyph unicode="&#x2006;" horiz-adv-x="337" />
<glyph unicode="&#x2007;" horiz-adv-x="337" />
<glyph unicode="&#x2008;" horiz-adv-x="253" />
<glyph unicode="&#x2009;" horiz-adv-x="405" />
<glyph unicode="&#x200a;" horiz-adv-x="112" />
<glyph unicode="&#x2010;" horiz-adv-x="628" d="M51 469l2 184h525l-3 -184h-524z" />
<glyph unicode="&#x2011;" horiz-adv-x="628" d="M51 469l2 184h525l-3 -184h-524z" />
<glyph unicode="&#x2012;" horiz-adv-x="628" d="M51 469l2 184h525l-3 -184h-524z" />
<glyph unicode="&#x2013;" horiz-adv-x="1024" d="M41 455v204h942v-204h-942z" />
<glyph unicode="&#x2014;" horiz-adv-x="2048" d="M41 455v204h1966v-204h-1966z" />
<glyph unicode="&#x2018;" horiz-adv-x="512" d="M98 1253q0 190 260 441l127 -82q-60 -66 -97.5 -123.5t-51.5 -97t-13.5 -75.5t8 -56t21.5 -41q12 -16 27.5 -32.5t24.5 -24.5l10 -9q-49 -104 -148 -104q-76 0 -122 60.5t-46 143.5z" />
<glyph unicode="&#x2019;" horiz-adv-x="512" d="M27 1020q60 66 97.5 123.5t51.5 97t13.5 75.5t-8 56t-21.5 41q-12 16 -27.5 32.5t-24.5 24.5l-10 9q49 104 148 104q76 0 122 -61t46 -144q0 -37 -9 -74.5t-33.5 -92t-80 -124.5t-137.5 -149z" />
<glyph unicode="&#x201a;" horiz-adv-x="512" d="M27 -250q60 66 97.5 123.5t51.5 97t13.5 75.5t-8 56t-21.5 41q-12 16 -27.5 32.5t-24.5 24.5l-10 9q49 104 148 104q76 0 122 -60.5t46 -143.5q0 -190 -260 -441z" />
<glyph unicode="&#x201c;" horiz-adv-x="942" d="M98 1262q0 37 9 74t33.5 91.5t79 125t136.5 151.5l129 -84q-60 -65 -97.5 -123.5t-51.5 -99t-14 -78.5t7.5 -60t20.5 -45q11 -18 26 -35.5t24 -25.5l10 -8q-27 -44 -65 -66t-79 -22q-76 0 -122 60.5t-46 144.5zM549 1260q0 39 8 74.5t31 88t75.5 118.5t131.5 140l120 -82 q-70 -75 -107 -138t-40.5 -110t4.5 -76t27 -61q11 -18 25 -36t22 -27t8 -10q-61 -84 -141 -84q-73 0 -118.5 61t-45.5 142z" />
<glyph unicode="&#x201d;" horiz-adv-x="942" d="M27 1044q70 75 107 138t40.5 110.5t-4.5 76.5t-27 61q-11 18 -25 36t-22 27t-8 10q61 84 141 84q73 0 118.5 -61t45.5 -142q0 -39 -8 -74.5t-31 -88t-75.5 -118.5t-131.5 -140zM457 1024q60 65 97.5 123.5t51.5 99t14 78.5t-7.5 60t-20.5 45q-11 18 -26 35.5t-24 25.5 l-10 8q27 44 65 66t79 22q76 0 122 -60.5t46 -144.5q0 -37 -9 -74t-33.5 -91.5t-79 -125t-136.5 -151.5z" />
<glyph unicode="&#x201e;" horiz-adv-x="942" d="M27 -229q70 75 107 138t40.5 110t-4.5 76t-27 61q-11 18 -25 36t-22 27t-8 10q61 84 141 84q73 0 118.5 -60.5t45.5 -141.5q0 -39 -8 -75t-31 -88.5t-75.5 -118.5t-131.5 -140zM457 -250q60 65 97.5 123.5t51.5 99t14 78.5t-7.5 60t-20.5 45q-11 18 -26 35.5t-24 25.5 l-10 8q27 44 65 66t79 22q76 0 122 -60t46 -144q0 -37 -9 -74.5t-33.5 -92t-79.5 -125t-136 -151.5z" />
<glyph unicode="&#x2022;" horiz-adv-x="573" d="M88 662q0 85 56 141.5t145 56.5q87 0 141.5 -59.5t54.5 -147.5q0 -83 -59 -139.5t-145 -56.5q-84 0 -138.5 60t-54.5 145z" />
<glyph unicode="&#x2026;" horiz-adv-x="1312" d="M113 139q0 60 41.5 103t105.5 43q62 0 101.5 -43.5t39.5 -108.5q0 -63 -42 -104t-105 -41q-61 0 -101 43.5t-40 107.5zM512 139q0 60 41.5 103t105.5 43t103 -43t39 -109q0 -63 -42.5 -104t-105.5 -41q-61 0 -101 43.5t-40 107.5zM911 139q0 60 42 103t106 43 t103.5 -43.5t39.5 -108.5q0 -62 -42.5 -103.5t-104.5 -41.5q-61 0 -102.5 44t-41.5 107z" />
<glyph unicode="&#x202f;" horiz-adv-x="405" />
<glyph unicode="&#x2039;" horiz-adv-x="663" d="M51 535l395 495l148 -125l-289 -360l287 -391l-166 -125z" />
<glyph unicode="&#x203a;" horiz-adv-x="663" d="M70 156l288 360l-286 391l166 125l374 -506l-395 -495z" />
<glyph unicode="&#x205f;" horiz-adv-x="506" />
<glyph unicode="&#x20ac;" d="M68 522l4 107h116q-6 113 7 209h-117l4 106h127q41 255 187 393t372 138q151 0 279 -64l-29 -178q-143 53 -252 53q-129 0 -211 -84.5t-106 -257.5h460l-4 -106h-471q-11 -91 -4 -209h467l-4 -107h-453q19 -180 98.5 -266t196.5 -86q127 0 287 78l-6 -193 q-143 -75 -307 -75q-235 0 -364 141.5t-150 400.5h-127z" />
<glyph unicode="&#x2122;" horiz-adv-x="1851" d="M61 1305l7 149h632l-12 -149h-225l-29 -742h-172l29 742h-230zM772 563l64 891h221l200 -657l271 657h211l-6 -891h-168l2 590l-244 -590h-164l-186 588l-41 -588h-160z" />
<glyph unicode="&#x25fc;" horiz-adv-x="1085" d="M0 0v1085h1085v-1085h-1085z" />
<glyph unicode="&#xfb01;" horiz-adv-x="1107" d="M-223 -346q27 -4 80 -4q65 0 118 26.5t95 83t67 153.5t29 228l24 713h-159l10 150l156 6l4 61q11 176 61 285q32 69 79 118.5t103.5 76.5t114 39t121.5 12q100 0 225 -33l-24 -172q-102 26 -195 26q-187 0 -240 -157q-22 -65 -28 -181l-2 -77h207v-154h-213l-21 -649 q-23 -735 -534 -735q-30 0 -76 4zM733 -4q0 145 17 393l12 211q7 106 11.5 207.5t5.5 150.5l1 48l217 20q0 -162 -14 -395l-14 -211q-7 -105 -11.5 -209t-5.5 -155v-52z" />
<glyph unicode="&#xfb02;" horiz-adv-x="1107" d="M-223 -346q27 -4 80 -4q65 0 118 26.5t95 83t67 153.5t29 228l24 713h-159l10 150l156 6l4 61q12 182 59 285q112 246 408 246q90 0 186 -29l166 18l-53 -1171q-5 -105 -6 -208.5t1 -154.5l1 -51l-222 -10q0 230 7 393l49 1018q-61 16 -121 16q-179 0 -230 -157 q-22 -69 -28 -181l-2 -77h207v-154h-213l-21 -649q-23 -735 -534 -735q-30 0 -76 4z" />
<glyph unicode="&#xfb03;" horiz-adv-x="1667" d="M-223 -346q27 -4 80 -4q65 0 118 26.5t95 83t67 153.5t29 228l24 713h-159l10 150l154 6l4 59q13 215 84 320q35 52 84 88.5t100.5 54t95 24.5t86.5 7q149 0 301 -60q118 99 305 99q104 0 226 -33l-23 -176q-102 30 -196 30q-187 0 -238 -157q-23 -68 -29 -181l-4 -77 h209v-154h-213l-14 -659q-5 -318 -133 -491t-363 -173q-119 0 -282 66q-127 -127 -340 -127q-30 0 -76 4zM301 -248q91 -39 182 -39q256 0 265 418l20 723h-358l-21 -649q-9 -277 -88 -453zM416 1008h356l4 63q14 176 60 283q-92 32 -183 32q-131 0 -190 -90 q-41 -59 -45 -211zM1309 -4q0 127 16 393l14 211q6 106 10.5 207.5t5.5 150.5l1 48l219 20q0 -162 -16 -395l-15 -211q-6 -105 -9.5 -209t-4.5 -155v-52z" />
<glyph unicode="&#xfb04;" horiz-adv-x="1683" d="M-223 -346q27 -4 80 -4q65 0 118 26.5t95 83t67 153.5t29 228l24 713h-159l10 150l154 6l4 59q13 215 84 320q35 52 84 88.5t100.5 54t95 24.5t86.5 7q152 0 299 -58q116 97 295 97q91 0 187 -29l167 18l-55 -1171q-4 -105 -5 -208.5t0 -154.5l1 -51l-219 -10l-1 22 q0 23 -0.5 56t0 79t2.5 108.5t5 127.5l47 1018q-61 16 -121 16q-176 0 -229 -157q-21 -65 -27 -181l-4 -77h209v-154h-213l-14 -659q-5 -318 -133 -491t-363 -173q-119 0 -282 66q-127 -127 -340 -127q-30 0 -76 4zM301 -248q91 -39 182 -39q256 0 265 418l20 723h-358 l-21 -649q-9 -277 -88 -453zM416 1008h356l4 63q14 177 60 283q-92 32 -183 32q-131 0 -190 -90q-41 -59 -45 -211z" />
</font>
</defs>
</svg>
