<?xml version="1.0" standalone="no"?>
<!DOCTYPE svg PUBLIC "-//W3C//DTD SVG 1.1//EN" "http://www.w3.org/Graphics/SVG/1.1/DTD/svg11.dtd" >
<svg xmlns="http://www.w3.org/2000/svg">
<metadata></metadata>
<defs>
<font id="novel_proregular" horiz-adv-x="1146" >
<font-face units-per-em="2048" ascent="1638" descent="-410" />
<missing-glyph horiz-adv-x="354" />
<glyph horiz-adv-x="0" />
<glyph horiz-adv-x="682" />
<glyph unicode=" "  horiz-adv-x="354" />
<glyph unicode="&#x09;" horiz-adv-x="354" />
<glyph unicode="&#xa0;" horiz-adv-x="354" />
<glyph unicode="!" horiz-adv-x="612" d="M180 1329q0 69 34 105t93 36q60 0 93.5 -36t33.5 -105q0 -73 -86 -891h-82q-86 845 -86 891zM186 113q0 50 34 84t87 34q52 0 83.5 -37.5t31.5 -89.5q0 -50 -34.5 -83t-88.5 -33q-52 0 -82.5 36.5t-30.5 88.5z" />
<glyph unicode="&#x22;" horiz-adv-x="679" d="M70 1368q0 50 28 78.5t76 28.5q50 0 78.5 -28t28.5 -79q0 -22 -7 -62.5t-25.5 -142t-35.5 -200.5h-76q-16 96 -35 199.5t-25.5 143.5t-6.5 62zM403 1368q0 50 28.5 78.5t76.5 28.5q50 0 78 -28t28 -79q0 -22 -6.5 -62t-25.5 -143.5t-35 -199.5h-76q-17 99 -35.5 200.5 t-25.5 142t-7 62.5z" />
<glyph unicode="#" d="M25 305l12 115h196q11 99 32.5 260.5t29.5 224.5h-199l13 113h198l37 285h121l-35 -285h371l35 285h122l-34 -285h198l-12 -113h-201q-29 -251 -61 -485h201l-13 -115h-200q-6 -54 -19.5 -162.5t-17.5 -142.5h-123l37 305h-369l-39 -305h-123l39 305h-196zM356 420h371 q12 102 34 273.5t27 211.5h-370z" />
<glyph unicode="$" d="M76 203q0 68 47 121q99 -96 181 -148.5t167 -62.5l27 534l-99 60q-116 66 -175.5 153.5t-59.5 210.5q0 143 109.5 253.5t281.5 133.5l10 195l92 -4l-10 -185q220 -3 326 -90q59 -49 59 -117q0 -70 -57 -127q-177 192 -332 218l-22 -492l133 -78q139 -82 194.5 -168.5 t55.5 -183.5q0 -153 -121 -278t-322 -152l-10 -201l-94 4l8 191q-117 0 -208.5 28t-135.5 74q-45 48 -45 111zM369 1145q0 -137 159 -236l23 439q-73 -11 -127.5 -65.5t-54.5 -137.5zM567 115q92 14 148.5 75.5t56.5 161.5q0 133 -168 234l-14 8z" />
<glyph unicode="%" horiz-adv-x="1562" d="M55 1094q0 161 93.5 265.5t228.5 104.5q140 0 223.5 -97t83.5 -257t-94 -265.5t-230 -105.5q-139 0 -222 98t-83 257zM209 1112q0 -116 46.5 -204.5t121.5 -88.5t114 64.5t39 208.5q0 119 -47 206.5t-123 87.5q-75 0 -113 -64t-38 -210zM373 -33l731 1573l96 -45 l-733 -1573zM879 332q0 161 93.5 267t229.5 106q139 0 222 -98t83 -257q0 -160 -93.5 -265t-229.5 -105q-139 0 -222 97t-83 255zM1032 350q0 -117 47 -205t123 -88q152 0 152 275q0 119 -47 207t-123 88q-75 0 -113.5 -65.5t-38.5 -211.5z" />
<glyph unicode="&#x26;" horiz-adv-x="1734" d="M158 391q0 110 72.5 209.5t222.5 163.5q-108 120 -149.5 198.5t-41.5 161.5q0 156 123 253.5t289 97.5q155 0 259.5 -84t104.5 -215q0 -255 -331 -379q72 -72 225 -215q137 -131 244 -224q104 133 143 324q7 36 -3.5 48t-47.5 22l-105 28v62h473v-62l-100 -26 q-32 -7 -45 -21.5t-27 -54.5q-83 -225 -211 -387q110 -91 190.5 -137.5t133 -59.5t139.5 -20l-24 -76q-92 -12 -168 -12q-117 0 -209.5 31.5t-212.5 121.5q-203 -159 -453 -159q-137 0 -249 51.5t-177 146t-65 213.5zM356 442q0 -136 116 -234.5t273 -98.5q142 0 277 96 q-109 90 -283 264t-237 242q-146 -117 -146 -269zM461 1184q0 -78 41 -149t151 -185q197 115 197 297q0 101 -59 170t-144 69q-82 0 -134 -54t-52 -148z" />
<glyph unicode="'" horiz-adv-x="346" d="M70 1368q0 50 28 78.5t76 28.5q50 0 78.5 -28t28.5 -79q0 -22 -7 -62.5t-25.5 -142t-35.5 -200.5h-76q-16 96 -35 199.5t-25.5 143.5t-6.5 62z" />
<glyph unicode="(" horiz-adv-x="786" d="M211 535q0 210 30 379t83 287t130 200t167 124.5t198 53.5l25 -74q-110 -14 -193 -71.5t-145.5 -168t-94.5 -289t-32 -423.5q0 -252 32 -437t95 -300.5t145.5 -178t192.5 -83.5l-25 -74q-110 11 -201.5 54.5t-168 127t-128.5 203.5t-81 289.5t-29 380.5z" />
<glyph unicode=")" horiz-adv-x="786" d="M-57 -446q110 14 193 71.5t145.5 168t94.5 289t32 423.5q0 252 -32 437t-95 300.5t-145.5 178t-192.5 83.5l24 74q110 -11 201.5 -54.5t168 -127t128.5 -203.5t81 -289.5t29 -380.5q0 -210 -30 -379t-83 -287t-130 -200t-167 -124.5t-198 -53.5z" />
<glyph unicode="*" horiz-adv-x="919" d="M86 914q10 28 43 47q15 8 47 19.5t102 36.5t136 50q-41 15 -89.5 32t-74.5 26.5t-53 19.5t-42.5 16.5t-25.5 12.5q-33 19 -43 46t8 58q17 30 46 35.5t63 -15.5q15 -9 41 -30.5t83 -69.5t111 -92q-9 54 -20.5 113.5t-17 89t-9.5 56.5t-4 42q0 37 19.5 59.5t54.5 22.5 q33 0 52 -22.5t19 -59.5q0 -19 -5.5 -52t-19 -108t-24.5 -141q42 34 88 73.5t69 58.5t44.5 36t34.5 24q32 21 60.5 15.5t47.5 -35.5q17 -31 7 -58t-43 -46q-13 -7 -39 -17.5t-53.5 -20t-85.5 -30.5t-107 -39q67 -26 135 -50t101 -36t49 -20q33 -19 42.5 -47.5t-8.5 -59.5 q-17 -29 -45.5 -34t-60.5 14q-13 7 -35 24t-44 36t-69 59.5t-88 74.5q11 -68 24.5 -142.5t19 -107.5t5.5 -51q0 -37 -19 -59.5t-52 -22.5q-35 0 -54.5 22.5t-19.5 59.5q0 18 5 50t20 109.5t26 141.5q-53 -43 -110.5 -93t-83 -71t-41.5 -30q-33 -19 -62.5 -13.5t-46.5 35.5 q-18 30 -8 58z" />
<glyph unicode="+" horiz-adv-x="1095" d="M61 537v110h431v389h112v-389h430v-110h-430v-390h-112v390h-431z" />
<glyph unicode="," horiz-adv-x="471" d="M29 -272q68 63 108 116t52 93.5t9 70t-18 58.5q-12 22 -28 40.5t-26 26.5l-11 8q18 42 51.5 68.5t73.5 26.5q46 0 85.5 -40.5t39.5 -111.5q0 -73 -57 -164.5t-187 -183.5z" />
<glyph unicode="-" horiz-adv-x="634" d="M41 600l539 55l14 -135l-537 -55z" />
<glyph unicode="&#xad;" horiz-adv-x="634" d="M41 600l539 55l14 -135l-537 -55z" />
<glyph unicode="." horiz-adv-x="466" d="M115 113q0 52 35 87.5t86 35.5t83.5 -36.5t32.5 -88.5q0 -53 -35 -88t-86 -35q-52 0 -84 36t-32 89z" />
<glyph unicode="/" horiz-adv-x="845" d="M8 -33l733 1573l97 -45l-734 -1573z" />
<glyph unicode="0" d="M55 709q0 234 74 416t207 276q116 78 268 78q180 0 299 -119q94 -96 141.5 -253.5t47.5 -352.5q0 -244 -75 -429t-214 -280q-115 -74 -250 -74q-193 0 -315 125q-86 89 -134.5 252t-48.5 361zM279 754q0 -196 42 -364t128 -249q55 -53 126 -53h11q110 0 178 92 q52 73 76 200t24 329q0 134 -18 249t-54.5 206.5t-96.5 143.5t-138 52q-112 0 -176 -92q-53 -70 -77.5 -188t-24.5 -326z" />
<glyph unicode="1" d="M238 1337q142 57 265 87t197 30h23v-1087q0 -160 2 -205q1 -31 32.5 -46.5t123.5 -33.5l77 -14v-68h-696v68l78 14q95 19 130 34t36 46q2 45 2 205v567q0 215 -2 268q-2 45 -14.5 63t-47.5 17h-200z" />
<glyph unicode="2" d="M109 1214q0 67 43 119q60 69 159 107.5t215 38.5q190 0 308 -110.5t118 -291.5q0 -103 -34.5 -197t-117.5 -202.5t-198.5 -221t-300.5 -272.5h758l-43 -184h-893v121q151 147 262.5 275.5t174.5 220.5t100.5 175t49 137t11.5 109q0 134 -72.5 205.5t-189.5 71.5 q-184 0 -338 -164q-12 26 -12 63z" />
<glyph unicode="3" d="M111 199q0 25 7.5 50t15.5 37l7 13q104 -104 193.5 -158.5t179.5 -54.5q118 0 179 64.5t61 168.5q0 127 -90 225.5t-283 151.5v29q180 117 253 215t73 195q0 81 -57.5 137.5t-164.5 56.5q-185 0 -327 -160q-13 29 -13 66q0 66 58 129q55 56 141 87.5t182 31.5 q187 0 294.5 -90.5t107.5 -218.5q0 -59 -21 -111t-65.5 -99t-92 -84t-120.5 -85q178 -69 265 -179t87 -239q0 -72 -35.5 -143t-97.5 -128.5t-157 -93t-204 -35.5q-115 0 -196 31t-123 72q-57 54 -57 119z" />
<glyph unicode="4" d="M33 381q0 77 86 207l481 739q52 75 106 104.5t166 47.5q-6 -106 -6 -219v-709h187l-41 -170h-146v-365l-204 -30v395h-629zM207 551h455v709z" />
<glyph unicode="5" d="M137 209q0 20 6.5 41t12.5 32l6 11q108 -106 198.5 -156.5t176.5 -50.5q99 0 159 68.5t60 175.5q0 163 -147 280.5t-443 163.5l162 680l663 33l-39 -199l-569 -24l-74 -314q328 -59 497 -205.5t169 -338.5q0 -60 -18.5 -119t-57.5 -114t-95 -97t-137.5 -67t-177.5 -25 q-88 0 -165 29.5t-123 68.5q-64 58 -64 127z" />
<glyph unicode="6" d="M94 616q0 155 37 285.5t104 225t149 161.5t183 113q78 35 164.5 52t151.5 17q123 0 123 -86l-2 -22q-211 -3 -345 -70q-147 -71 -227.5 -203t-103.5 -333q55 54 129.5 83t154.5 29q83 0 160 -31t136.5 -86.5t95.5 -138.5t36 -180q0 -115 -54 -219t-160 -172t-240 -68 q-97 0 -183 38.5t-156.5 114t-111.5 202t-41 288.5zM319 580q0 -253 78 -376.5t207 -123.5q93 0 156 84t63 194q0 170 -96.5 276.5t-251.5 106.5q-71 0 -151 -34q-5 -103 -5 -127z" />
<glyph unicode="7" d="M125 1260l31 194h653q61 0 233 4q-9 -53 -38.5 -126.5t-100.5 -225.5l-528 -1124l-109 36q174 342 416 859l180 387q-40 -4 -162 -4h-575z" />
<glyph unicode="8" d="M90 346q0 129 86.5 222.5t235.5 129.5q-149 83 -221 188.5t-72 215.5q0 107 65.5 194t171.5 134t228 47q188 0 306 -96t118 -246q0 -99 -76 -190.5t-232 -143.5q197 -104 273 -202t76 -210q0 -78 -38.5 -152t-104.5 -131t-160 -91.5t-199 -34.5q-127 0 -230 43.5 t-165 128t-62 194.5zM264 377q0 -130 87 -213.5t208 -83.5q131 0 203 68.5t72 168.5q0 88 -64 159t-229 157l-72 37q-205 -90 -205 -293zM322 1167q0 -83 60 -157t206 -150l55 -29q193 106 193 279q0 119 -76.5 193.5t-194.5 74.5q-105 0 -174 -62t-69 -149z" />
<glyph unicode="9" d="M92 1024q0 85 32.5 166.5t90 146.5t144.5 104.5t188 39.5q97 0 183 -38.5t156 -114t111 -202t41 -288.5q0 -155 -37.5 -285t-104.5 -224.5t-149 -161t-182 -112.5q-78 -35 -165 -53t-150 -18q-123 0 -123 86l2 22q112 3 191.5 18.5t150.5 51.5q147 72 228 202.5 t104 331.5q-113 -110 -285 -110q-83 0 -160 31t-136 87t-94.5 139t-35.5 181zM309 1096q0 -170 96.5 -276.5t251.5 -106.5q78 0 150 32q6 61 6 129q0 253 -78.5 377.5t-206.5 124.5q-93 0 -156 -84t-63 -196z" />
<glyph unicode=":" horiz-adv-x="466" d="M115 113q0 52 35 87.5t86 35.5t83.5 -36.5t32.5 -88.5q0 -53 -35 -88t-86 -35q-52 0 -84 36t-32 89zM115 854q0 52 35 87.5t86 35.5t83.5 -36.5t32.5 -88.5q0 -54 -35 -88.5t-86 -34.5q-52 0 -84 36t-32 89z" />
<glyph unicode=";" horiz-adv-x="479" d="M29 -272q68 63 108 116t52 93.5t9 70t-18 58.5q-12 22 -28 40.5t-26 26.5l-11 8q18 42 51.5 68.5t73.5 26.5q46 0 85.5 -40.5t39.5 -111.5q0 -73 -57 -164.5t-187 -183.5zM121 854q0 52 35 87.5t86 35.5t83.5 -36.5t32.5 -88.5q0 -54 -34.5 -88.5t-85.5 -34.5 q-52 0 -84.5 36t-32.5 89z" />
<glyph unicode="&#x3c;" horiz-adv-x="1095" d="M61 537v108l951 504l26 -111l-843 -446l843 -447l-26 -114z" />
<glyph unicode="=" horiz-adv-x="1095" d="M61 303v113h973v-113h-973zM61 727v111h973v-111h-973z" />
<glyph unicode="&#x3e;" horiz-adv-x="1095" d="M57 141l844 449l-844 446l27 113l950 -504v-108l-950 -506z" />
<glyph unicode="?" horiz-adv-x="886" d="M115 1313q0 67 85 110t201 43q102 0 180.5 -28.5t123 -76t66.5 -102.5t22 -114q0 -173 -201 -307l-86 -58q-123 -82 -123 -184q0 -83 51 -162l-76 15q-66 44 -103.5 104.5t-37.5 126.5q0 68 39.5 127t138.5 129l84 59q133 93 133 205q0 67 -39.5 104t-115.5 37 q-131 0 -301 -124q-41 53 -41 96zM254 113q0 50 34 83t87 33q52 0 82 -36.5t30 -88.5q0 -51 -33.5 -83.5t-86.5 -32.5q-52 0 -82.5 36.5t-30.5 88.5z" />
<glyph unicode="@" horiz-adv-x="2236" d="M147 494q0 182 53 339.5t148.5 274t225.5 199.5t286.5 124.5t329.5 41.5q207 0 375 -55t288.5 -161t186 -268t65.5 -368q0 -154 -46.5 -287t-123 -221.5t-176 -138.5t-205.5 -50q-117 0 -180 61.5t-78 164.5q-50 -75 -133 -124t-178 -49q-116 0 -189 62.5t-73 163.5 q0 132 138 231t421 141v68q0 147 -41 209.5t-139 62.5q-159 0 -322 -178q-39 48 -39 101q0 62 64 112q122 99 332 99q107 0 177 -25.5t105.5 -77.5t48.5 -113.5t13 -152.5v-309q0 -170 33 -248t122 -78q45 0 92.5 33t90 96.5t69.5 172.5t27 245q0 170 -47.5 308.5 t-141.5 239.5t-243.5 156.5t-343.5 55.5q-244 0 -425 -101t-276.5 -286.5t-95.5 -434.5q0 -411 217 -647.5t598 -236.5q142 0 248.5 32t212.5 109q33 -23 33 -68q0 -65 -107 -120q-171 -82 -426 -82q-164 0 -310 39.5t-267 120t-209 196t-136.5 274.5t-48.5 347zM915 254 q0 -55 47 -91t123 -36q50 0 103 21.5t94 56.5v272q-181 -23 -274 -85t-93 -138z" />
<glyph unicode="A" horiz-adv-x="1509" d="M14 0v68l123 30q31 8 45 18.5t23 35.5l407 1179q25 81 61 111.5t126 56.5q15 -56 51 -151l463 -1196q9 -24 18 -32.5t33 -15.5l119 -36v-68h-586v68l135 30q35 7 35 33q0 9 -4 19l-111 296h-514l-90 -299q-7 -20 5 -32.5t55 -22.5l120 -24v-68h-514zM475 571h432 l-239 652q-23 -86 -56 -195z" />
<glyph unicode="B" horiz-adv-x="1497" d="M154 0v70l59 12q85 19 103.5 30t19.5 44q2 47 2 229v684q0 182 -2 229q-1 33 -19.5 44t-103.5 30l-59 12v70q245 -4 333 -4q33 0 108 2t120 2q187 0 297 -49q89 -38 137.5 -115t48.5 -176q0 -126 -72 -215.5t-176 -124.5q170 -24 265.5 -124.5t95.5 -237.5 q0 -82 -33 -156t-95 -131.5t-160.5 -91t-219.5 -33.5q-57 0 -134 2t-141 2zM563 127q105 -25 230 -25q190 0 254 113q32 51 32 137q0 101 -45 172q-87 160 -391 160h-80v-557zM563 791h127q166 0 219 61q62 75 62 197q0 93 -35 168q-65 137 -287 137l-86 -4v-559z" />
<glyph unicode="C" horiz-adv-x="1640" d="M127 748q0 382 268 579q195 148 518 148q81 0 157.5 -6t188.5 -20l136 -17v-39q0 -152 -13 -379h-77q-17 112 -33 172q-25 95 -119.5 136.5t-257.5 41.5q-252 0 -377 -125q-81 -78 -113 -189t-32 -270q0 -197 68 -350t202.5 -242.5t317.5 -89.5q149 0 243 31 q46 14 75.5 42.5t51.5 82.5q25 64 70 209h80q-9 -169 -41 -379q-256 -104 -527 -104q-307 0 -505 145q-281 209 -281 623z" />
<glyph unicode="D" horiz-adv-x="1785" d="M127 1384v70q251 -4 403 -4q45 0 130.5 2t125.5 2q241 0 390 -41q230 -63 354.5 -234.5t124.5 -420.5q0 -242 -103 -410q-106 -172 -276 -260t-438 -88q-44 0 -142 2t-151 2l-389 -4v70l55 12q83 17 102.5 28.5t20.5 45.5q2 47 2 229v684q0 182 -2 229q-1 33 -23.5 44 t-124.5 30zM561 150q129 -31 309 -31q348 0 473 264q68 130 68 317q0 156 -57 287q-84 189 -227.5 270.5t-378.5 81.5q-40 0 -87 -3.5t-73 -7.5l-27 -3v-1175z" />
<glyph unicode="E" horiz-adv-x="1474" d="M127 1384v70h1059q1 -37 1 -81q0 -115 -9 -279h-74q-22 142 -29 170q-5 25 -15 37.5t-36 24.5t-83 16.5t-143.5 7t-230.5 2.5v-553q276 0 342 10q31 3 41.5 8.5t16.5 24.5q16 58 32 127h68v-457h-68q-12 61 -32 133q-8 28 -18 37t-40 12q-63 8 -342 8v-573 q85 -23 260 -23q131 0 192.5 6t90 20.5t43.5 47.5q40 86 78 205h76q-5 -84 -18 -180t-23 -151l-11 -54h-1097v70l59 12q84 19 103 30t20 44q2 47 2 229v684q0 182 -2 229q-1 33 -25 44t-129 30z" />
<glyph unicode="F" horiz-adv-x="1339" d="M127 1384v70h1059q1 -37 1 -81q0 -115 -9 -279h-74q-22 142 -29 170q-5 25 -15 37.5t-36 24.5t-83 16.5t-143.5 7t-230.5 2.5v-604q289 0 355 10q31 3 42 8.5t17 24.5q5 19 31 131h67v-461h-67q-12 59 -31 129q-8 28 -18.5 37t-40.5 12q-60 8 -355 8v-262q0 -184 2 -231 q1 -33 20 -44t103 -28l60 -12v-70h-594v70l59 12q84 19 103 30t20 44q2 47 2 229v684q0 182 -2 229q-1 33 -25 44t-129 30z" />
<glyph unicode="G" horiz-adv-x="1738" d="M127 745q0 380 274 584q192 146 541 146q91 0 172.5 -6t194.5 -20t141 -17v-60q0 -155 -12 -358h-80q-16 108 -33 170q-26 96 -124 138t-277 42q-274 0 -400 -123q-82 -80 -116.5 -192t-34.5 -271q0 -197 69 -349t207 -240.5t328 -88.5q138 0 270 33v139q0 181 -2 228 q-1 25 -8.5 36.5t-32 21.5t-82.5 24l-55 12v74h584v-74l-56 -12q-58 -14 -82.5 -24t-31.5 -21.5t-8 -36.5q-3 -70 -3 -228v-34q0 -117 9 -154q-115 -47 -263.5 -75.5t-289.5 -28.5q-318 0 -516 145q-135 101 -209 257.5t-74 362.5z" />
<glyph unicode="H" horiz-adv-x="1886" d="M154 0v70l59 12q85 19 103.5 30t19.5 44q2 47 2 229v684q0 182 -2 229q-1 33 -19.5 44t-103.5 30l-59 12v70h594v-70l-60 -12q-84 -19 -103 -30t-20 -44q-2 -47 -2 -229v-264h760v264q0 182 -2 229q-1 33 -20 44t-103 30l-59 12v70h594v-70l-60 -12q-85 -19 -103.5 -30 t-19.5 -44q-2 -47 -2 -229v-684q0 -182 2 -229q1 -33 19.5 -44t103.5 -30l60 -12v-70h-594v70l59 12q84 19 103 30t20 44q2 47 2 229v293h-760v-293q0 -182 2 -229q1 -33 20 -44t103 -30l60 -12v-70h-594z" />
<glyph unicode="I" horiz-adv-x="901" d="M154 0v70l59 12q85 19 103.5 30t19.5 44q2 47 2 229v684q0 182 -2 229q-1 33 -19.5 44t-103.5 30l-59 12v70h594v-70l-60 -12q-84 -19 -103 -30t-20 -44q-2 -47 -2 -229v-684q0 -182 2 -229q1 -33 20 -44t103 -30l60 -12v-70h-594z" />
<glyph unicode="J" horiz-adv-x="897" d="M131 -475q121 107 168 216.5t47 283.5v1044q0 182 -2 229q-1 33 -19.5 44t-103.5 30l-59 12v70h594v-70l-60 -12q-85 -19 -103.5 -30t-19.5 -44q-2 -47 -2 -229v-913q0 -275 -100.5 -440t-306.5 -255z" />
<glyph unicode="K" horiz-adv-x="1673" d="M154 0v70l59 12q85 19 103.5 30t19.5 44q2 47 2 229v684q0 182 -2 229q-1 33 -19.5 44t-103.5 30l-59 12v70h594v-70l-60 -12q-84 -19 -103 -30t-20 -44q-2 -47 -2 -229v-684q0 -182 2 -229q1 -33 20 -44t103 -30l60 -12v-70h-594zM596 715l545 542l30.5 30.5t17 21.5 t3 18.5t-17 13t-37.5 11.5l-136 32v70h553v-70l-47 -8q-43 -9 -73.5 -27.5t-94.5 -74.5l-524 -467q34 -22 88 -84l377 -406q134 -150 197 -198.5t147 -65.5l-25 -71h-46q-87 0 -143 6q-70 8 -139.5 40.5t-126 85t-140.5 150.5l-324 365q-44 51 -84 86z" />
<glyph unicode="L" horiz-adv-x="1357" d="M154 0v70l59 12q85 19 103.5 30t19.5 44q2 47 2 229v684q0 182 -2 229q-1 33 -19.5 44t-103.5 30l-59 12v70h594v-70l-60 -12q-84 -19 -103 -30t-20 -44q-2 -47 -2 -229v-940q85 -23 262 -23q124 0 183.5 5.5t88.5 20.5t44 48q27 58 78 205h75q-5 -84 -18 -180t-23 -151 l-10 -54h-1089z" />
<glyph unicode="M" horiz-adv-x="2252" d="M145 0v70l60 12q82 18 101 31.5t22 48.5q4 94 4 223l8 684q2 76 2 131.5t-2 91.5q-1 25 -8.5 36t-32 21t-82.5 23l-59 12v70h450l512 -1161l525 1161h454v-70l-59 -12q-58 -13 -82.5 -23t-32 -21t-8.5 -36q-2 -47 -2 -223l6 -684q0 -129 4 -223q1 -25 8.5 -36t32 -21 t82.5 -23l59 -12v-70h-591v70l55 12q60 14 83.5 24t31 21.5t8.5 38.5q3 75 3 148q0 36 -1 71l-8 891l-582 -1276h-102l-549 1219l-9 -834q0 -35 -0.5 -86.5t-0.5 -83.5t1 -53q1 -25 8.5 -36t32 -21t82.5 -23l60 -12v-70h-484z" />
<glyph unicode="N" horiz-adv-x="1851" d="M154 0v70l59 12q85 19 103.5 30t19.5 44q2 47 2 229v684q0 176 -2 223q-1 25 -8.5 36t-32 21t-82.5 23l-59 12v70h391l872 -1098v713q0 182 -2 229q-1 33 -19.5 44t-103.5 30l-59 12v70h483v-70l-59 -12q-85 -19 -103.5 -30t-19.5 -44q-2 -47 -2 -229v-1069h-129 l-950 1202v-817q0 -182 2 -229q1 -33 20 -44t103 -30l59 -12v-70h-483z" />
<glyph unicode="O" horiz-adv-x="1798" d="M121 717q0 219 91.5 385t254.5 264q191 113 461 113q222 0 391 -84q169 -87 260.5 -249.5t91.5 -387.5q0 -176 -68.5 -335.5t-195.5 -270.5q-208 -181 -530 -181q-387 0 -584 242q-83 97 -127.5 229.5t-44.5 274.5zM371 768q0 -131 32 -252t89 -209q70 -110 172 -167.5 t223 -57.5h20q147 0 261 70.5t175 201.5q70 156 70 371q0 106 -19 200.5t-60 176t-100.5 140.5t-144.5 92.5t-188 33.5q-156 0 -268 -59q-262 -139 -262 -541z" />
<glyph unicode="P" horiz-adv-x="1370" d="M154 0v70l59 12q85 19 103.5 30t19.5 44q2 47 2 229v684q0 182 -2 229q-1 33 -19.5 44t-103.5 30l-59 12v70h430q136 0 214 -7.5t148 -27.5q139 -38 216 -141t77 -240q0 -108 -42 -200t-117.5 -156t-191.5 -90q-62 -14 -129 -15q-59 0 -122 11v76q24 -2 45 -2 q120 0 190 47q68 42 100 118.5t32 165.5q0 83 -25 146q-39 98 -124 152.5t-212 54.5q-20 0 -49.5 -2.5t-30.5 -2.5v-956q0 -182 2 -229q1 -33 20 -44t103 -30l60 -12v-70h-594z" />
<glyph unicode="Q" horiz-adv-x="1798" d="M121 717q0 219 91.5 385t254.5 264q191 113 461 113q222 0 391 -84q169 -87 260.5 -249.5t91.5 -387.5q0 -176 -68.5 -335.5t-195.5 -270.5q-117 -102 -272 -146q244 -168 348 -231q323 -193 581 -193q53 0 88 2l-30 -84q-127 -26 -236 -26q-156 0 -293.5 41.5 t-281.5 124.5q-74 43 -150 94t-190 131t-154 108q-342 16 -524 240q-83 97 -127.5 229.5t-44.5 274.5zM371 768q0 -131 32 -252t89 -209q70 -110 172 -167.5t223 -57.5h20q147 0 261 70.5t175 201.5q70 156 70 371q0 106 -19 200.5t-60 176t-100.5 140.5t-144.5 92.5 t-188 33.5q-156 0 -268 -59q-262 -139 -262 -541z" />
<glyph unicode="R" horiz-adv-x="1632" d="M154 0v70l59 12q85 19 103.5 30t19.5 44q2 47 2 229v684q0 182 -2 229q-1 33 -19.5 44t-103.5 30l-59 12v70q231 -4 325 -4q39 0 107 2t116 2q171 0 273 -31q137 -36 214 -140t77 -241q0 -140 -82.5 -249t-200.5 -144q55 -37 119 -108l209 -228q139 -151 191 -192.5 t134 -61.5l-26 -71q-47 -2 -86 -2q-51 0 -88 4q-66 6 -131.5 37t-121.5 83.5t-139 149.5l-202 242q-56 64 -86 88h-193v-205q0 -182 2 -229q1 -33 20 -44t103 -30l60 -12v-70h-594zM563 702h246q151 0 203 179q16 47 16 116q0 77 -27 148q-37 97 -122.5 149t-212.5 52 q-68 0 -103 -7v-637z" />
<glyph unicode="S" horiz-adv-x="1218" d="M109 401l77 5q40 -131 70 -191q32 -62 101 -93.5t208 -31.5q127 0 196.5 64t69.5 182q0 148 -182 250l-209 114q-254 137 -254 390q0 77 32 146t91.5 122.5t152.5 85t206 31.5q64 0 169.5 -10.5t153.5 -10.5q7 -76 9 -166q1 -39 0 -70q0 -42 -1 -72l-2 -52h-69 q-33 116 -49 161q-21 49 -39 70q-42 45 -187 45q-122 0 -193 -56t-71 -157q0 -151 193 -258l211 -117q102 -56 163.5 -122t84 -128t22.5 -135q0 -81 -34 -155.5t-97 -134t-163 -95t-222 -35.5q-155 0 -389 56q-41 175 -49 368z" />
<glyph unicode="T" horiz-adv-x="1308" d="M35 1069q-6 102 -5.5 201.5t5.5 195.5q99 -12 198 -12h842q100 0 199 12q6 -96 6 -195.5t-6 -201.5h-76q-8 33 -17 70t-13 54.5t-9 36.5t-8.5 30t-7.5 20q-19 41 -69.5 58.5t-162.5 17.5h-143v-971q0 -182 2 -229q1 -33 19.5 -44t103.5 -30l59 -12v-70h-596v70l60 12 q85 19 103.5 30t19.5 44q2 47 2 229v971h-144q-112 0 -162 -17.5t-69 -58.5q-9 -20 -55 -211h-76z" />
<glyph unicode="U" horiz-adv-x="1808" d="M135 1384v70h596v-70l-59 -12q-85 -19 -103.5 -30t-19.5 -44q-2 -47 -2 -229v-403q0 -110 8 -181q19 -183 116 -276.5t285 -93.5q230 0 323 119t93 401v434q0 178 -2 225q-1 24 -9 35.5t-32 20.5t-82 22l-59 12v70h485v-70l-59 -12q-82 -19 -101.5 -31.5t-21.5 -46.5 q-2 -47 -2 -225v-424q0 -356 -144 -515t-442 -159q-525 0 -575 463q-9 66 -9 184v451q0 182 -2 229q-1 33 -19.5 44t-102.5 30z" />
<glyph unicode="V" horiz-adv-x="1531" d="M29 1386v68h571v-68l-59 -10q-81 -17 -100.5 -34t-8.5 -54q13 -47 74 -207l317 -823q204 543 359 1030q11 37 -8 53t-101 33l-59 12v68h469v-70l-37 -6q-65 -14 -85 -31.5t-34 -58.5q-79 -213 -149.5 -397t-107 -276.5t-106.5 -265.5t-100 -247q-25 -63 -61 -95.5 t-115 -51.5q-15 78 -70 219l-346 895q-57 149 -90 219q-2 3 -8 15t-7.5 14.5t-7 11.5t-9.5 11.5t-12.5 9t-18 9.5t-23 8t-30.5 9z" />
<glyph unicode="W" horiz-adv-x="2361" d="M29 1384v70h571v-68l-59 -10q-82 -16 -101 -33.5t-8 -54.5q13 -47 74 -207l319 -831q172 453 285 815l-47 129l-39 98q-15 34 -38 52t-81 32l-39 10v68h564v-68l-60 -10q-82 -20 -100.5 -36t-7.5 -52q14 -49 73 -205l318 -829q190 509 356 1034q11 38 -7.5 55t-100.5 33 l-60 10v68h471v-70l-37 -6q-34 -7 -55 -14.5t-33 -21t-16 -22.5t-12 -32q-78 -211 -152 -403.5t-111 -286.5t-102.5 -256t-81.5 -201q-38 -99 -71 -133.5t-115 -52.5q-11 67 -58 190l-290 752q-77 -203 -299 -760q-37 -93 -70 -126.5t-121 -55.5q-16 81 -59 192l-357 922 q-57 149 -90 219q-2 4 -8.5 17.5t-8.5 16.5t-9 13t-13 13t-17.5 9.5t-26 10.5t-33.5 8z" />
<glyph unicode="X" horiz-adv-x="1519" d="M70 1386v68h602v-68l-60 -10q-81 -14 -102.5 -33.5t-5.5 -54.5q7 -16 22 -40.5t26.5 -43t40.5 -61t42 -62.5l168 -235q218 339 278 442q19 33 -3.5 53t-104.5 35l-60 10v68h490v-68l-43 -8q-37 -9 -59.5 -25.5t-51.5 -54.5q-54 -74 -171 -230.5t-220 -297.5l422 -586 q37 -53 62.5 -76.5t66.5 -31.5l41 -8v-68h-602v68l59 10q82 15 103.5 34t3.5 54q-33 68 -123 194l-191 265q-182 -275 -288 -459q-19 -33 3.5 -53t104.5 -35l60 -10v-68h-488v68l43 8q36 9 59 26.5t52 55.5q31 43 109.5 147.5t140 189t147.5 205.5l-418 588q-16 22 -24.5 33 t-22.5 24.5t-30.5 21t-38.5 11.5z" />
<glyph unicode="Y" horiz-adv-x="1443" d="M43 1386v68h596v-68l-59 -10q-81 -15 -103 -34t-6 -54q9 -20 25.5 -47.5t48.5 -78t51 -81.5l201 -309q176 290 297 516q18 34 -4.5 54t-104.5 34l-59 10v68h481v-68l-47 -8q-35 -7 -54 -23t-49 -59q-275 -404 -417 -628v-283q0 -178 2 -225q1 -24 9 -35.5t32 -20.5 t82 -22l59 -12v-70h-590v70l60 12q58 13 81.5 22t31.5 20.5t9 35.5q2 47 2 225v260l-274 424q-117 183 -154 227q-30 41 -50 57.5t-58 24.5z" />
<glyph unicode="Z" horiz-adv-x="1413" d="M111 0q11 57 108 219l711 1133q-338 -3 -455.5 -9t-146.5 -20q-47 -21 -68 -119l-35 -174h-65q-22 191 -22 372q0 29 1 58q117 -6 133 -6h949q-6 -35 -24.5 -72.5t-72.5 -126.5l-716 -1144q40 0 113 1q303 3 410 7t144 20q39 15 72 74t84 213h76q-19 -214 -78 -426h-1118 z" />
<glyph unicode="[" horiz-adv-x="628" d="M225 -530v2109h361v-84h-205v-1941h205v-84h-361z" />
<glyph unicode="\" horiz-adv-x="845" d="M8 1495l96 45l734 -1573l-97 -45z" />
<glyph unicode="]" horiz-adv-x="628" d="M45 -446h203v1941h-203v84h358v-2109h-358v84z" />
<glyph unicode="^" horiz-adv-x="983" d="M70 512l366 788h113l362 -788h-135l-289 641l-284 -641h-133z" />
<glyph unicode="_" horiz-adv-x="1024" d="M0 -70h1024v-131h-1024v131z" />
<glyph unicode="`" horiz-adv-x="667" d="M106 1565q4 16 11 33.5t13 26.5l5 9l430 -377l-6 -71q-197 93 -319 162q-159 88 -134 217z" />
<glyph unicode="a" horiz-adv-x="1040" d="M74 205q0 133 137.5 232t421.5 138v80q0 145 -41 206t-139 61q-150 0 -320 -189q-41 50 -41 105q0 62 62 112q122 99 333 99q106 0 175.5 -25.5t105 -77.5t48.5 -113.5t13 -152.5v-283q0 -57 1 -86t6 -68t16.5 -60t31.5 -44.5t51 -38t75 -26.5l-11 -31q-74 -59 -163 -59 q-76 0 -126 42.5t-63 125.5q-50 -77 -133.5 -127t-179.5 -50q-115 0 -187.5 64t-72.5 166zM266 254q0 -55 46.5 -92t121.5 -37q103 0 199 82v272q-182 -22 -274.5 -85t-92.5 -140z" />
<glyph unicode="b" horiz-adv-x="1230" d="M47 1479v45q175 61 334 61h20v-694q46 73 129.5 115.5t182.5 42.5q186 0 299.5 -134t113.5 -335q0 -167 -55 -293t-160 -201q-155 -111 -366 -111q-189 0 -367 56q21 65 21 202v906q0 198 -2 245q-1 34 -14 48.5t-48 23.5zM389 139q107 -43 223 -43q109 0 179 54 q58 45 90 135.5t32 206.5q0 195 -80 303t-225 108q-60 0 -118 -22t-89 -56v-538q0 -101 -12 -148z" />
<glyph unicode="c" horiz-adv-x="989" d="M100 477q0 163 60.5 288t169.5 198q126 86 284 86q117 0 201 -37q74 -32 74 -99q0 -54 -43 -108q-202 102 -332 102q-81 0 -131 -47q-82 -75 -82 -278q0 -192 91.5 -316.5t236.5 -124.5q144 0 272 78l-6 -63q-47 -66 -147.5 -120t-221.5 -54q-182 0 -304 136t-122 359z " />
<glyph unicode="d" horiz-adv-x="1241" d="M104 477q0 153 52 273t155 194q78 57 163.5 82t201.5 25q55 0 151 -15v103q0 198 -2 245q-2 34 -14 48.5t-47 23.5l-88 23v45q175 61 334 61h20v-1149q0 -199 2 -248q1 -34 14 -48t48 -23l88 -21v-47q-175 -61 -334 -61h-14v155q-46 -74 -133.5 -120t-186.5 -46 q-181 0 -295.5 140t-114.5 360zM317 549q0 -201 83.5 -313.5t220.5 -112.5q60 0 117.5 22t88.5 56v694q-117 37 -225 37q-106 0 -170 -53q-57 -44 -86 -132t-29 -198z" />
<glyph unicode="e" horiz-adv-x="1073" d="M94 510q0 288 178 436q123 105 301 105q185 0 291 -122q100 -114 99 -321v-28h-666q0 -298 199 -402q74 -43 186 -43q73 0 155 24.5t150 65.5l-10 -69q-61 -76 -169 -126t-228 -50q-153 0 -264.5 71t-166.5 189.5t-55 269.5zM297 666l448 24q-6 123 -63.5 190.5 t-157.5 67.5q-85 0 -141 -53q-75 -69 -86 -229z" />
<glyph unicode="f" horiz-adv-x="765" d="M82 877v59q79 44 149 63v23q0 297 164 438q148 125 328 125q103 0 156 -35q51 -34 51 -94q0 -57 -43 -115q-89 43 -171 67t-130 24q-86 0 -120 -60t-34 -229v-152h326l-8 -114h-318v-459q0 -209 2 -264q2 -36 9.5 -46.5t39.5 -19.5l101 -25v-63h-486v61l82 27 q32 9 39.5 19.5t9.5 46.5q2 55 2 264v459h-149z" />
<glyph unicode="g" horiz-adv-x="1134" d="M25 -270q0 84 70 152t198 93q-86 52 -86 152q0 50 32 97t91 77q-98 41 -151.5 130.5t-53.5 213.5q0 179 117.5 291.5t289.5 112.5q130 0 236 -66h315l-8 -115l-219 6q30 -41 49 -100.5t19 -116.5q0 -168 -115.5 -277.5t-308.5 -109.5q-62 0 -117 15q-23 -26 -23 -62 q0 -112 213 -117l183 -6q83 -2 142.5 -22t91 -52t45.5 -68t14 -77q0 -69 -44 -143t-121 -138t-197 -105.5t-257 -41.5q-73 0 -143 16.5t-129.5 48.5t-96 87t-36.5 125zM190 -238q0 -90 93 -141t229 -51q88 0 161 22.5t116.5 57t66.5 73t23 74.5q0 112 -185 117l-176 6 q-93 4 -158 25q-86 -26 -128 -75.5t-42 -107.5zM326 674q0 -158 46.5 -233.5t141.5 -75.5t151 78t56 198q0 159 -52 236t-143 77q-92 0 -146 -74t-54 -206z" />
<glyph unicode="h" horiz-adv-x="1277" d="M57 1479v45q175 61 332 61h23v-567q0 -71 -6 -152q46 87 133 137t200 50q171 0 251.5 -98t80.5 -308v-227q0 -211 2 -266q1 -37 9 -47t40 -21l80 -25v-61h-473v61l88 27q31 11 38.5 21t8.5 49q2 55 2 262v121q0 79 -4.5 131.5t-17.5 99t-37 72.5t-62.5 40.5t-93.5 14.5 q-75 0 -139 -26.5t-100 -65.5v-387q0 -209 2 -264q1 -38 8.5 -47.5t38.5 -20.5l86 -27v-61h-471v61l82 25q32 11 40 21t9 47q2 55 2 264v721q0 198 -2 245q-1 34 -14 48.5t-48 23.5z" />
<glyph unicode="i" horiz-adv-x="649" d="M86 932v45q170 61 334 61h20v-618q0 -211 2 -266q1 -36 9 -46.5t41 -21.5l79 -25v-61h-465v61l80 25q34 10 41 20.5t9 47.5q2 55 2 266v172q0 199 -2 246q-1 34 -14 48t-48 23zM193 1409q0 62 36.5 97.5t92.5 35.5q62 0 96.5 -37.5t34.5 -95.5q0 -62 -38 -97.5t-93 -35.5 q-64 0 -96.5 36.5t-32.5 96.5z" />
<glyph unicode="j" horiz-adv-x="608" d="M-25 -463q145 131 194.5 270.5t49.5 382.5v402q0 199 -2 246q-2 34 -14 48t-47 23l-88 23v45q170 61 333 61h21v-880q0 -167 -48.5 -294t-134 -214t-221.5 -166zM166 1409q0 62 37.5 97.5t93.5 35.5q62 0 95.5 -37.5t33.5 -95.5q0 -62 -37 -97.5t-92 -35.5 q-64 0 -97.5 36.5t-33.5 96.5z" />
<glyph unicode="k" horiz-adv-x="1179" d="M57 1479v45q175 61 332 61h23v-1165q0 -209 2 -264q1 -38 8.5 -47.5t38.5 -20.5l86 -27v-61h-471v61l82 25q32 11 40 21t9 47q2 55 2 264v721q0 198 -2 245q-1 34 -14 48.5t-48 23.5zM414 520q130 96 352 350q18 18 22.5 32t-13 28t-62.5 24l-56 13v63h476v-61l-82 -21 q-38 -10 -60.5 -23t-79.5 -63l-241 -215q-37 -34 -64 -51q41 -31 113 -123l270 -321q36 -43 70.5 -64.5t105.5 -40.5l-20 -63h-40q-47 0 -83 2q-50 2 -94 11.5t-71 21.5t-58 38.5t-54 54t-59 76.5l-205 261q-35 46 -67 71z" />
<glyph unicode="l" horiz-adv-x="618" d="M57 1479v45q175 61 332 61h23v-1165q0 -211 2 -266q2 -37 9 -47.5t40 -20.5l80 -25v-61h-467v61l82 25q32 11 40 21t9 47q2 55 2 266v719q0 198 -2 245q-1 34 -14 48.5t-48 23.5z" />
<glyph unicode="m" horiz-adv-x="1966" d="M94 932v45q167 61 332 61h16v-168q47 85 135 134t201 49q232 0 299 -197q55 98 147 147.5t206 49.5q169 0 249 -98t80 -308v-227q0 -211 2 -266q1 -37 9 -47t40 -21l80 -25v-61h-471v61l86 27q32 11 40 21.5t9 48.5q2 55 2 262v121q0 79 -4.5 131.5t-17.5 99t-37 72.5 t-62.5 40.5t-93.5 14.5q-76 0 -142 -27.5t-107 -76.5q12 -64 12 -148v-229q0 -209 2 -264q1 -37 9.5 -48t39.5 -20l76 -25v-61h-463v61l86 27q31 11 38.5 21t8.5 49q2 55 2 262v121q0 79 -4.5 132t-18 99t-37.5 72t-62 40.5t-93 14.5q-75 0 -138 -26t-101 -66v-387 q0 -209 2 -264q1 -38 8.5 -47.5t38.5 -20.5l86 -27v-61h-469v61l80 25q32 11 40 21t9 47q2 55 2 264v174q0 199 -2 246q-1 34 -14 48t-48 23z" />
<glyph unicode="n" horiz-adv-x="1314" d="M94 932v45q167 61 334 61h14v-168q47 85 135 134t201 49q171 0 250.5 -98t79.5 -308v-227q0 -211 2 -266q1 -37 9 -47t40 -21l80 -25v-61h-471v61l86 27q31 11 38.5 21t8.5 49q2 55 2 262v121q0 80 -4.5 132t-17 98.5t-36.5 72.5t-62.5 40.5t-94.5 14.5q-75 0 -138 -26 t-101 -66v-387q0 -209 2 -264q1 -38 8.5 -47.5t38.5 -20.5l88 -27v-61h-471v61l80 25q32 11 40 21t9 47q2 55 2 264v174q0 199 -2 246q-1 34 -14 48t-48 23z" />
<glyph unicode="o" horiz-adv-x="1208" d="M96 500q0 309 217 454q142 95 318 95q282 0 413 -218q68 -113 68 -288q0 -131 -41 -238.5t-112 -177.5t-164.5 -107.5t-200.5 -37.5q-239 0 -368.5 139t-129.5 379zM313 539q0 -197 80.5 -323t229.5 -126q128 0 198 106t70 285q0 215 -70 328q-43 67 -100 98t-139 31 q-63 0 -111 -23t-77.5 -60.5t-48 -90.5t-25.5 -107.5t-7 -117.5z" />
<glyph unicode="p" horiz-adv-x="1267" d="M84 932v45q167 61 332 61h16v-153q50 77 134 120.5t184 43.5q186 0 299.5 -134t113.5 -335q0 -167 -55 -293t-160 -201q-155 -111 -358 -111q-78 0 -152 15v-86q0 -209 2 -264q1 -37 9 -47t40 -21l86 -25v-61h-471v61l80 25q32 11 40 21t9 47q3 82 3 264v688 q0 176 -3 246q-2 34 -14 48t-47 23zM438 129q119 -35 215 -35q104 0 172 56q60 47 92.5 136.5t32.5 205.5q0 195 -80 303t-225 108q-60 0 -118 -22t-89 -56v-696z" />
<glyph unicode="q" horiz-adv-x="1230" d="M104 479q0 151 52.5 271t154.5 194q83 58 167.5 83.5t195.5 25.5q179 0 362 -62q-4 -184 -4 -348v-743q0 -210 2 -265q1 -36 8.5 -46t40.5 -21l82 -25v-57h-471v57l84 25q33 10 40 20t9 47q4 55 4 265v243q-46 -74 -132 -120t-185 -46q-181 0 -295.5 140.5t-114.5 361.5z M317 549q0 -201 83.5 -313.5t220.5 -112.5q60 0 119 22t91 56v690q-109 41 -221 41q-111 0 -176 -53q-58 -44 -87.5 -132.5t-29.5 -197.5z" />
<glyph unicode="r" horiz-adv-x="829" d="M94 932v45q167 61 332 61h16v-180q39 101 99.5 147t130.5 46q64 0 99.5 -30t35.5 -81q0 -63 -45 -133q-109 53 -184 53q-87 0 -129 -53v-389q0 -209 2 -266q2 -35 10 -46t41 -20l90 -25v-61h-477v59l80 27q32 11 40 21t9 45q2 57 2 266v174q0 199 -2 246q-1 34 -14 48 t-48 23z" />
<glyph unicode="s" horiz-adv-x="935" d="M117 12q-10 76 -10.5 149t10.5 142h69l15 -67q9 -60 23.5 -86.5t49.5 -40.5q67 -31 168 -31q93 0 144 43t51 108q0 55 -45 99.5t-162 93.5l-63 27q-232 94 -232 292q0 126 100 214.5t275 88.5q53 0 136.5 -8t129.5 -10q9 -87 9 -167q0 -59 -5 -116h-63l-15 50 q-21 73 -35.5 101t-45.5 40q-59 20 -123 20q-89 0 -137 -39t-48 -98q0 -54 41 -100t150 -90l65 -27q262 -104 262 -295q0 -61 -25 -118t-73 -103.5t-126.5 -75t-176.5 -28.5q-30 0 -60.5 1.5t-67.5 6t-58 7t-67.5 9t-59.5 8.5z" />
<glyph unicode="t" horiz-adv-x="796" d="M55 877v59q75 43 150 63l121 170h77v-178h345l-9 -114h-336v-558q0 -103 41 -148.5t134 -45.5q103 0 192 45l-10 -64q-128 -131 -289 -131q-124 0 -196 68t-72 213v621h-148z" />
<glyph unicode="u" horiz-adv-x="1314" d="M66 932v45q170 61 333 61h23v-553q0 -79 4.5 -131t17 -98t36 -72t62 -40.5t93.5 -14.5q76 0 139.5 25.5t99.5 64.5v373q0 199 -2 246q-2 34 -14 48t-47 23l-88 23v45q170 61 334 61h20v-598q0 -198 2 -245q1 -34 14 -48.5t48 -23.5l88 -23v-45q-167 -61 -332 -61h-16v166 q-48 -88 -134.5 -137.5t-199.5 -49.5q-169 0 -249.5 98.5t-80.5 307.5v213q0 199 -2 246q-2 34 -14 48t-47 23z" />
<glyph unicode="v" horiz-adv-x="1163" d="M0 969v61h506v-63l-100 -23q-42 -9 -50.5 -22.5t4.5 -42.5l265 -668l235 645q13 37 3.5 53.5t-50.5 28.5l-100 29v63h444v-61l-74 -21q-25 -6 -38.5 -21t-36.5 -65q-15 -34 -97 -220t-144 -320.5t-101 -208.5q-38 -71 -65 -95.5t-97 -52.5q-10 44 -43 121l-340 805 q-16 37 -26 46q-10 8 -29 13z" />
<glyph unicode="w" horiz-adv-x="1742" d="M0 969v61h496v-63l-99 -23q-35 -8 -44 -21t1 -44l252 -643l248 788h86l315 -793l183 621q11 36 0 54t-52 30l-106 33v61h457v-61l-72 -21q-27 -7 -42.5 -22t-35.5 -64q-27 -70 -134 -357t-148 -386q-34 -79 -63 -107.5t-103 -46.5q-10 56 -49 154l-224 573l-217 -586 q-27 -69 -53.5 -94.5t-101.5 -46.5q-26 86 -56 160l-317 766q-16 37 -26 46q-10 8 -29 13z" />
<glyph unicode="x" horiz-adv-x="1118" d="M29 967v63h477v-61l-80 -17q-39 -9 -39 -31q0 -13 14 -32l201 -268q71 102 162 266q12 19 15.5 30.5t-4.5 21.5t-32 15l-69 15v61h391v-61l-55 -13q-32 -8 -52.5 -21.5t-48.5 -47.5q-109 -137 -258 -332l322 -420q26 -35 38.5 -45t35.5 -16l49 -13v-61h-482v61l78 17 q41 8 41 30q0 14 -14 33l-213 283q-78 -118 -174 -281q-9 -16 -12 -23.5t-3.5 -18t8.5 -16t27 -9.5l70 -15v-61h-389v61l53 13q34 8 53.5 21t48.5 48q205 260 267 344l-303 408q-25 34 -38.5 44.5t-37.5 16.5z" />
<glyph unicode="y" horiz-adv-x="1126" d="M-27 969v61h496v-63l-90 -23q-41 -9 -48.5 -27t9.5 -47l295 -639q89 256 180 613q12 37 2.5 58.5t-57.5 37.5l-88 27v63h446v-61l-65 -19q-38 -12 -52 -28.5t-34 -73.5q-138 -393 -240 -633t-209 -430q-75 -134 -160.5 -222.5t-154.5 -88.5q-47 0 -85.5 39.5t-60.5 109.5 q188 61 281 127.5t149 171.5l37 70l-426 891q-12 24 -16.5 32t-15 17t-27.5 14z" />
<glyph unicode="z" horiz-adv-x="1056" d="M100 0v6q0 38 14.5 74t63.5 115l481 741l-337 -8q-58 -1 -86.5 -31t-40.5 -102l-17 -97h-61q-17 122 -17 234q0 53 4 104q109 -6 215 -6h586v-4q0 -35 -15 -74.5t-56 -105.5l-480 -750l379 10q60 1 89.5 37t43.5 117l15 84h63q17 -114 17 -239q0 -52 -3 -105h-858z" />
<glyph unicode="{" horiz-adv-x="753" d="M94 500l12 49q115 6 164 70.5t49 187.5v375q0 220 87 314.5t284 84.5l19 -53q-62 -7 -103.5 -22t-67 -36.5t-38.5 -57.5t-17 -74.5t-4 -98.5v-377q0 -58 -7 -97.5t-27 -80.5t-61 -73t-105 -60q54 -18 91.5 -44t58.5 -53.5t32.5 -68t14.5 -75.5t3 -87v-323q0 -98 10 -161 t37.5 -112.5t78 -73.5t130.5 -28l-24 -53q-112 -13 -188.5 4t-121 66t-63.5 122t-19 180v338q0 52 -3.5 86.5t-16.5 72t-37 64t-66 51.5t-102 44z" />
<glyph unicode="|" horiz-adv-x="350" d="M119 -512v2089h112v-2089h-112z" />
<glyph unicode="}" horiz-adv-x="753" d="M18 1516l23 53q112 13 189 -4t121.5 -66.5t63.5 -122.5t19 -180v-332q0 -51 3.5 -85.5t16.5 -72t37 -63.5t66 -50.5t102 -43.5l-12 -49q-115 -7 -164 -72t-49 -186v-383q0 -220 -87 -315t-284 -85l-18 56q62 7 103.5 22t66.5 35.5t38 57t17 74.5t4 99v381q0 58 7 98.5 t27 81.5t60.5 73.5t104.5 60.5q-53 18 -90.5 43.5t-58.5 53.5t-32.5 67.5t-14.5 75t-3 87.5v316q0 99 -10 162t-37.5 112t-78 73t-130.5 28z" />
<glyph unicode="~" horiz-adv-x="952" d="M55 522q1 137 70 215t174 78q75 0 176 -59l70 -41q31 -19 48 -28t42 -17t47 -8q105 0 160 116l55 17q-1 -137 -70 -214t-174 -77q-75 0 -176 59l-69 41q-31 18 -48.5 27.5t-42.5 17.5t-47 8q-104 0 -159 -116z" />
<glyph unicode="&#xa1;" horiz-adv-x="612" d="M178 -295q0 73 86 891h82q86 -845 86 -891q0 -69 -34 -105t-93 -36t-93 36t-34 105zM193 930q0 50 34 83.5t86 33.5t82.5 -36.5t30.5 -88.5q0 -50 -34 -84.5t-87 -34.5q-52 0 -82 37.5t-30 89.5z" />
<glyph unicode="&#xa2;" d="M158 541q0 166 63 289.5t176 197.5q102 68 217 80l11 172l90 -4l-10 -164q109 -7 184 -41q80 -35 80 -102q0 -58 -47 -111q-127 72 -226 98l-41 -749q12 -2 39 -2q153 0 285 78l-6 -54q-42 -62 -130 -116t-196 -66l-8 -168l-90 4l8 162q-172 14 -285.5 148.5 t-113.5 347.5zM358 645q0 -147 57 -257t152 -155l41 740q-10 2 -30 2q-83 0 -138 -49q-82 -72 -82 -281z" />
<glyph unicode="&#xa3;" d="M63 -12l7 123q80 33 124.5 69.5t64.5 85t22.5 114.5t-2.5 157l-7 110h-182v94h178q-6 128 14 238.5t59.5 188.5t91.5 138t113 96t121.5 53.5t118.5 17.5q153 0 220 -74q30 -35 30 -84q0 -59 -39 -107q-95 68 -166.5 97.5t-138.5 29.5q-56 0 -93.5 -22.5t-66.5 -80.5 t-40 -166t-5 -271l2 -54h377v-94h-372l2 -57q3 -86 -2.5 -145t-25 -114t-59.5 -95t-104 -70q57 0 156 -3t155 -3q190 0 241 9q78 14 105 68q20 38 27 113h47q41 -80 41 -170q0 -99 -51 -144.5t-156 -45.5q-86 0 -278.5 7t-261.5 7q-155 0 -267 -16z" />
<glyph unicode="&#xa4;" horiz-adv-x="1040" d="M20 342l166 164q-80 104 -80 239t80 242l-166 164l78 78l166 -166q108 84 242 84t242 -84l165 166l78 -78l-166 -164q80 -107 80 -242t-80 -239l166 -164l-78 -78l-165 164q-109 -82 -242 -82t-242 82l-166 -164zM215 745q0 -120 85 -204t206 -84t206 84t85 204 q0 121 -84.5 206t-206.5 85t-206.5 -85t-84.5 -206z" />
<glyph unicode="&#xa5;" d="M10 1395v59h506v-55l-61 -19q-63 -20 -79 -37.5t1 -60.5q19 -48 102 -201l162 -297q192 398 240 504q29 61 -78 90l-64 21v55h396v-57l-17 -4q-25 -6 -37 -21t-45 -76q-181 -312 -319 -563h338v-94h-365v-195h365v-94h-365q0 -143 2 -184q1 -25 8.5 -36.5t32.5 -22.5 t82 -25l59 -14v-68h-585v68l59 14q57 14 82 25t32.5 22.5t8.5 36.5q2 41 2 184h-330v94h330v195h-330v94h287l-186 344q-27 49 -69.5 125t-59.5 107q-24 44 -40 60t-42 22z" />
<glyph unicode="&#xa6;" horiz-adv-x="350" d="M119 387h112v-899h-112v899zM119 678v899h112v-899h-112z" />
<glyph unicode="&#xa7;" horiz-adv-x="1230" d="M119 905q0 94 38 182.5t102 156t145 119t170 78.5t174 27q147 0 225 -44t78 -109q0 -55 -43 -98q-102 59 -165.5 81.5t-129.5 22.5q-86 0 -129 -50t-43 -136q0 -63 29.5 -124.5t99.5 -142.5l174 -198q158 -184 212 -301.5t54 -223.5q0 -95 -38 -183.5t-102 -156.5 t-145 -119.5t-170 -78.5t-174 -27q-145 0 -224 45.5t-79 108.5q0 57 43 100q102 -59 166 -81.5t131 -22.5q86 0 129 49.5t43 134.5q0 64 -29 124t-100 144l-174 199q-158 183 -213 300.5t-55 223.5zM274 981q0 -105 50 -214.5t184 -266.5l199 -232q69 -80 98 -146.5 t29 -137.5q0 -66 -36 -132t-106 -108q67 12 119 43.5t83 76t46.5 96t15.5 108.5q0 106 -49.5 215t-183.5 266l-201 231q-68 82 -96.5 148.5t-28.5 138.5q0 65 35.5 131.5t104.5 106.5q-132 -22 -197.5 -112t-65.5 -212z" />
<glyph unicode="&#xa8;" horiz-adv-x="833" d="M102 1386q0 50 31 83.5t80 33.5q51 0 80 -32.5t29 -81.5q0 -50 -31 -83.5t-80 -33.5q-51 0 -80 31.5t-29 82.5zM512 1386q0 50 31 83.5t80 33.5q51 0 79.5 -32.5t28.5 -81.5q0 -51 -30 -84t-80 -33q-51 0 -80 31.5t-29 82.5z" />
<glyph unicode="&#xa9;" horiz-adv-x="1779" d="M104 715q0 180 65 327t176.5 241t257 145t310.5 51q160 0 298 -48.5t242 -140.5t163 -235t59 -322q0 -178 -63 -324.5t-172.5 -242t-255.5 -147.5t-314 -52q-160 0 -299 50t-243 143.5t-164 236.5t-60 318zM238 733q0 -312 176 -493t495 -181q137 0 254 47t201 131 t132 207t48 269q0 316 -175 497t-488 181q-187 0 -332.5 -78.5t-228 -229t-82.5 -350.5zM440 731q0 128 56 225t151 150q108 63 264 63q39 0 83 -3.5t69.5 -6.5t75.5 -10.5t65 -9.5q9 -92 -6 -267h-72q-14 96 -20 115q-20 94 -213 94q-146 0 -211 -71q-70 -76 -70 -260 q0 -171 88 -282.5t240 -111.5q167 0 203 88q11 27 43 134h67q0 -122 -18 -244q-160 -70 -322 -70q-178 0 -301 92q-80 61 -126 157t-46 218z" />
<glyph unicode="&#xaa;" horiz-adv-x="686" d="M55 735q0 79 85.5 138.5t262.5 84.5v19q0 81 -24 113t-94 32q-95 0 -191 -75q-26 26 -26 55q0 34 34 65q38 29 96.5 46.5t118.5 17.5q71 0 117.5 -15.5t70 -46.5t32 -66.5t8.5 -86.5v-187q0 -39 2.5 -59.5t13.5 -43t34.5 -35.5t63.5 -23l-12 -35q-53 -41 -108 -41 q-96 0 -123 90q-33 -41 -83.5 -66.5t-107.5 -25.5q-76 0 -123 39.5t-47 105.5zM193 762q0 -25 26.5 -42.5t69.5 -17.5q61 0 114 39v138q-105 -14 -157.5 -46t-52.5 -71z" />
<glyph unicode="&#xab;" horiz-adv-x="886" d="M37 446v109l356 471l27 -131l-262 -342l75 -78q109 -112 150 -180t41 -150q0 -64 -31 -131q-103 136 -171 219t-185 213zM469 453v100l319 424l27 -121l-237 -305l67 -72q99 -102 135.5 -162.5t36.5 -134.5q0 -53 -29 -116q-89 118 -150 192.5t-169 194.5z" />
<glyph unicode="&#xac;" horiz-adv-x="1095" d="M61 598v113h973v-414h-112v301h-861z" />
<glyph unicode="&#xae;" horiz-adv-x="1554" d="M104 829q0 150 51.5 274t142.5 207.5t218 129t277 45.5q195 0 343 -76t232 -224t84 -349q0 -199 -89.5 -349t-245.5 -228.5t-355 -78.5q-195 0 -343 76t-231.5 224t-83.5 349zM219 842q0 -264 150 -423t417 -159q252 0 400.5 153.5t148.5 409.5q0 264 -150 423t-417 159 q-251 0 -400 -153.5t-149 -409.5zM455 1167v45q123 -4 170 -4q8 0 44 2t70 2q72 0 131 -16q68 -18 107 -70.5t39 -119.5q0 -66 -37.5 -117.5t-97.5 -77.5q24 -16 51 -47l104 -115q63 -71 90.5 -92t73.5 -33l-22 -41q-104 -5 -154 18.5t-127 114.5l-92 109q-32 40 -49 51h-86 v-92q0 -83 2 -106q0 -15 8.5 -21t46.5 -16l35 -11v-41h-305v41l32 11q40 11 49 16.5t9 20.5q2 23 2 106v330q0 83 -2 106q-1 11 -4 16t-15.5 11t-38.5 12zM670 848h114q34 0 59 24.5t36 61.5q8 21 8 53q0 38 -15 68q-40 88 -157 88l-45 -2v-293z" />
<glyph unicode="&#xaf;" horiz-adv-x="677" d="M102 1292v135h473v-135h-473z" />
<glyph unicode="&#xb0;" horiz-adv-x="839" d="M53 1110q0 162 109 263.5t264 101.5q153 0 251.5 -100.5t98.5 -264.5q0 -162 -107.5 -262t-262.5 -100q-153 0 -253 99.5t-100 262.5zM195 1112q0 -110 64.5 -176t156.5 -66t156.5 64t64.5 174t-64.5 176t-156.5 66t-156.5 -64t-64.5 -174z" />
<glyph unicode="&#xb1;" horiz-adv-x="1095" d="M61 4h973v-113h-973v113zM61 662v110h431v389h112v-389h430v-110h-430v-390h-112v390h-431z" />
<glyph unicode="&#xb4;" horiz-adv-x="667" d="M102 1257l430 377q21 -32 29 -69q25 -130 -133 -217q-114 -65 -317 -162z" />
<glyph unicode="&#xb5;" horiz-adv-x="1288" d="M70 932v45q167 61 331 61h23v-553q0 -78 4.5 -130.5t17.5 -98.5t37 -72t62.5 -40.5t93.5 -14.5q76 0 139 25.5t101 64.5v373q0 199 -2 246q-1 33 -14 47.5t-48 23.5l-90 23v45q170 61 334 61h22v-598q0 -198 2 -245q1 -34 13.5 -48.5t46.5 -23.5l90 -23v-45 q-170 -61 -334 -61h-16v166q-47 -88 -133.5 -137.5t-200.5 -49.5q-153 0 -227 80v-96q0 -108 26 -208.5t86 -223.5q-46 -39 -100 -39q-70 0 -103.5 45t-33.5 139q0 45 12 256t12 453v213q0 199 -2 246q-1 33 -14 47.5t-47 23.5z" />
<glyph unicode="&#xb6;" horiz-adv-x="1437" d="M190 977q0 159 79 276t225 162q116 39 323 39q35 0 119 -2t115 -2l338 4v-65l-60 -15q-57 -14 -82 -25t-32.5 -22.5t-8.5 -36.5q-2 -47 -2 -219v-614q0 -272 -39 -422t-139 -258q-95 -104 -229.5 -152.5t-261.5 -48.5q-168 0 -250 82q-39 42 -39 102q0 54 30 88 q90 -64 152 -95.5t117 -31.5q39 0 78.5 22.5t68.5 70.5q36 63 52 176t16 307v242q-179 -4 -309 45q-120 45 -190.5 150t-70.5 243zM651 -299q86 -11 160.5 18t126.5 93q67 79 89 218t22 410v920h-134v-1000q0 -243 -22 -363.5t-78 -191.5q-76 -90 -164 -104z" />
<glyph unicode="&#xb7;" horiz-adv-x="466" d="M115 629q0 52 35 87.5t86 35.5t83.5 -36.5t32.5 -88.5q0 -53 -35 -88t-86 -35q-52 0 -84 36t-32 89z" />
<glyph unicode="&#xb8;" horiz-adv-x="606" d="M104 -430q0 14 7 27.5t13 20.5l7 7q77 -65 170 -65q43 0 68.5 16t25.5 41q0 22 -26 35t-86 30q-7 2 -11 3q-37 10 -61.5 19.5t-51 24t-40 35t-13.5 46.5q0 41 34 73t55 37l18 4q-25 -65 38 -93q21 -10 87 -26q29 -8 47.5 -13.5t43.5 -17t39.5 -24.5t25 -33t10.5 -45 q0 -69 -73.5 -130.5t-166.5 -61.5q-58 0 -109 23.5t-51 66.5z" />
<glyph unicode="&#xba;" horiz-adv-x="780" d="M68 903q0 190 139 275q86 55 201 55q178 0 262 -131q45 -68 45 -172q0 -156 -95 -246t-237 -90q-151 0 -233 83.5t-82 225.5zM219 928q0 -106 47.5 -175t134.5 -69q75 0 117.5 58t42.5 153q0 116 -45 180q-43 68 -139 68q-158 0 -158 -215z" />
<glyph unicode="&#xbb;" horiz-adv-x="886" d="M70 858q0 54 26 119q143 -187 322 -387v-101l-320 -423l-26 118l237 308l-67 71q-98 100 -135 160.5t-37 134.5zM463 897q0 62 31 129q102 -135 170 -218t184 -214v-107l-354 -473l-29 133l264 340l-76 80q-109 113 -149.5 180t-40.5 150z" />
<glyph unicode="&#xbc;" horiz-adv-x="1720" d="M135 1425q198 74 301 74h23v-657q0 -94 2 -121q2 -12 20.5 -20t69.5 -15l55 -10v-62h-450v62l55 10q93 13 96 35q2 27 2 121v336q0 126 -2 159q0 21 -6.5 29t-26.5 8l-131 -2zM434 -23l733 1573l84 -39l-731 -1572zM889 227q0 57 55 140l309 446q33 49 70.5 68t116.5 30 q-4 -75 -4 -145v-416h120l-30 -123h-90v-221l-144 -20v241h-403zM1026 350h266v395z" />
<glyph unicode="&#xbd;" horiz-adv-x="1720" d="M135 1425q198 74 301 74h23v-657q0 -94 2 -121q2 -12 20.5 -20t69.5 -15l55 -10v-62h-450v62l55 10q93 13 96 35q2 27 2 121v336q0 126 -2 159q0 21 -6.5 29t-26.5 8l-131 -2zM410 -23l733 1573l84 -39l-731 -1572zM981 731q0 44 37 86q40 45 101.5 68.5t127.5 23.5 q135 0 209 -73.5t74 -176.5q0 -120 -86.5 -233t-308.5 -295h458l-24 -131h-580v88q119 110 198.5 200t116.5 155t50.5 108.5t13.5 85.5q0 65 -43.5 110.5t-112.5 45.5q-113 0 -219 -111q-12 18 -12 49z" />
<glyph unicode="&#xbe;" horiz-adv-x="1720" d="M137 737q0 16 6.5 33t12.5 26l6 9q71 -63 127.5 -95t113.5 -32q73 0 111.5 37t38.5 96q0 72 -58 129.5t-182 89.5v31q116 73 161.5 131t45.5 117q0 46 -37.5 77t-91.5 31q-111 0 -215 -114q-14 24 -14 53q0 42 31 80q37 44 98 68t125 24q116 0 189 -56t73 -143 q0 -123 -186 -227q109 -41 164 -110t55 -148q0 -95 -91 -172.5t-233 -77.5q-139 0 -211 63q-39 36 -39 80zM475 -23l733 1573l84 -39l-731 -1572zM930 227q0 57 55 140l309 446q33 49 70.5 68t116.5 30q-4 -75 -4 -145v-416h120l-30 -123h-90v-221l-144 -20v241h-403z M1067 350h266v395z" />
<glyph unicode="&#xbf;" horiz-adv-x="886" d="M94 -109q0 173 203 308l84 57q125 86 125 184q0 79 -51 162l75 -14q65 -43 102.5 -104t37.5 -128q0 -69 -39 -127.5t-137 -128.5l-84 -59q-134 -94 -134 -205q0 -66 40 -103.5t114 -37.5q133 0 301 125q41 -53 41 -96q0 -67 -84.5 -110.5t-200.5 -43.5 q-102 0 -180.5 28.5t-123.5 76t-67 102.5t-22 114zM399 932q0 51 34.5 84t88.5 33q52 0 82.5 -36.5t30.5 -88.5q0 -50 -34 -83.5t-87 -33.5q-52 0 -83.5 36.5t-31.5 88.5z" />
<glyph unicode="&#xc0;" horiz-adv-x="1509" d="M14 0v68l123 30q31 8 45 18.5t23 35.5l407 1179q25 81 61 111.5t126 56.5q15 -56 51 -151l463 -1196q9 -24 18 -32.5t33 -15.5l119 -36v-68h-586v68l135 30q47 10 31 52l-111 296h-514l-90 -299q-7 -20 5 -32.5t55 -22.5l120 -24v-68h-514zM438 1868q1 16 5.5 32.5 t8.5 25.5l5 9l469 -323v-68q-204 69 -326 123q-96 38 -130.5 87.5t-31.5 113.5zM475 571h432l-239 652q-23 -86 -56 -195z" />
<glyph unicode="&#xc1;" horiz-adv-x="1509" d="M14 0v68l123 30q31 8 45 18.5t23 35.5l407 1179q25 81 61 111.5t126 56.5q15 -56 51 -151l463 -1196q9 -24 18 -32.5t33 -15.5l119 -36v-68h-586v68l135 30q47 10 31 52l-111 296h-514l-90 -299q-7 -20 5 -32.5t55 -22.5l120 -24v-68h-514zM475 571h432l-239 652 q-23 -86 -56 -195zM549 1559l2 67l469 324q14 -33 16 -68q5 -63 -29.5 -112.5t-129.5 -88.5q-105 -47 -328 -122z" />
<glyph unicode="&#xc2;" horiz-adv-x="1509" d="M14 0v68l123 30q31 8 45 18.5t23 35.5l407 1179q25 81 61 111.5t126 56.5q15 -56 51 -151l463 -1196q9 -24 18 -32.5t33 -15.5l119 -36v-68h-586v68l135 30q47 10 31 52l-111 296h-514l-90 -299q-7 -20 5 -32.5t55 -22.5l120 -24v-68h-514zM373 1640l344 277h94 q25 -27 46 -49.5t46 -46.5t37.5 -37t42 -40.5t37.5 -34.5t46 -41.5t46 -41.5q-52 -20 -96 -20q-79 0 -134 36t-132 130l-35 40l-246 -210zM475 571h432l-239 652q-23 -86 -56 -195z" />
<glyph unicode="&#xc3;" horiz-adv-x="1509" d="M14 0v68l123 30q31 8 45 18.5t23 35.5l407 1179q25 81 61 111.5t126 56.5q15 -56 51 -151l463 -1196q9 -24 18 -32.5t33 -15.5l119 -36v-68h-586v68l135 30q47 10 31 52l-111 296h-514l-90 -299q-7 -20 5 -32.5t55 -22.5l120 -24v-68h-514zM397 1556q9 126 68.5 196.5 t144.5 70.5q51 0 142 -37l47 -21q71 -30 112 -30q95 0 144 133l41 -8q-10 -126 -70 -196.5t-145 -70.5q-51 0 -142 37l-47 21q-71 30 -112 30t-79.5 -31.5t-62.5 -101.5zM475 571h432l-239 652q-23 -86 -56 -195z" />
<glyph unicode="&#xc4;" horiz-adv-x="1509" d="M14 0v68l123 30q31 8 45 18.5t23 35.5l407 1179q25 81 61 111.5t126 56.5q15 -56 51 -151l463 -1196q9 -24 18 -32.5t33 -15.5l119 -36v-68h-586v68l135 30q47 10 31 52l-111 296h-514l-90 -299q-7 -20 5 -32.5t55 -22.5l120 -24v-68h-514zM422 1714q0 48 30.5 79.5 t77.5 31.5q51 0 80 -32.5t29 -80.5t-30 -80.5t-79 -32.5q-51 0 -79.5 33t-28.5 82zM475 571h432l-239 652q-23 -86 -56 -195zM831 1714q0 48 31 79.5t80 31.5t78 -32.5t29 -80.5t-30 -80.5t-79 -32.5q-51 0 -80 33t-29 82z" />
<glyph unicode="&#xc5;" horiz-adv-x="1509" d="M14 0v68l123 30q31 8 45 18.5t23 35.5l407 1179q25 81 61 111.5t126 56.5q15 -56 51 -151l463 -1196q9 -24 18 -32.5t33 -15.5l119 -36v-68h-586v68l135 30q47 10 31 52l-111 296h-514l-90 -299q-7 -20 5 -32.5t55 -22.5l120 -24v-68h-514zM475 571h432l-239 652 q-23 -86 -56 -195zM494 1724q0 98 72 156.5t179 58.5q98 0 162 -53.5t64 -146.5q0 -98 -73.5 -156.5t-178.5 -58.5q-98 0 -161.5 54t-63.5 146zM616 1737q0 -67 31.5 -105.5t83.5 -38.5q55 0 86 33.5t31 99.5q0 67 -31.5 105.5t-83.5 38.5q-117 0 -117 -133z" />
<glyph unicode="&#xc6;" horiz-adv-x="2064" d="M-6 0v68l123 30q30 8 47 20.5t39 47.5l612 997q64 102 64 142q0 20 -13 33t-55 24l-129 33v59h1143q12 -152 -6 -360h-72q-18 116 -31 170q-7 31 -20 45t-65.5 25.5t-147 14.5t-273.5 3v-553q274 0 340 10q31 3 41.5 8.5t16.5 24.5q16 58 32 127h68v-457h-68 q-12 61 -32 133q-8 28 -18 37t-40 12q-63 8 -340 8v-573q80 -23 260 -23q188 0 245.5 13t80.5 61q37 84 78 205h74q-5 -84 -17.5 -180t-22.5 -151l-10 -54h-1101v61l116 31q42 10 54 26.5t14 59.5q2 45 2 240v28h-455l-172 -299q-12 -18 -1 -31.5t53 -23.5l122 -24v-68h-536 zM600 571h383v693q-62 -127 -117 -228z" />
<glyph unicode="&#xc7;" horiz-adv-x="1640" d="M127 748q0 382 268 579q195 148 518 148q81 0 157.5 -6t188.5 -20l136 -17q2 -161 -13 -418h-77q-17 112 -33 172q-25 95 -119.5 136.5t-257.5 41.5q-252 0 -377 -125q-81 -78 -113 -189t-32 -270q0 -197 68 -350t202.5 -242.5t317.5 -89.5q149 0 243 31q46 14 75.5 42.5 t51.5 82.5q25 64 70 209h80q-9 -169 -41 -379q-256 -104 -527 -104q-307 0 -505 145q-281 209 -281 623zM682 -432q0 14 7 28.5t13 22.5l7 8q81 -69 174 -69q41 0 65.5 16t24.5 41q0 33 -108 64q-9 3 -13 4q-37 10 -61.5 19.5t-51 24t-40 34.5t-13.5 46q0 41 33 73t53 38 l21 4q-25 -65 38 -93q21 -10 87 -26q36 -10 59 -18t50.5 -23t41.5 -38t14 -54q0 -70 -73.5 -131t-167.5 -61q-58 0 -109 23.5t-51 66.5z" />
<glyph unicode="&#xc8;" horiz-adv-x="1474" d="M127 1384v70h1059q5 -132 -8 -360h-74q-22 142 -29 170q-5 25 -15 37.5t-36 24.5t-83 16.5t-143.5 7t-230.5 2.5v-553q276 0 342 10q31 3 41.5 8.5t16.5 24.5q16 58 32 127h68v-457h-68q-12 61 -32 133q-8 28 -18 37t-40 12q-63 8 -342 8v-573q85 -23 260 -23 q131 0 192.5 6t90 20.5t43.5 47.5q40 86 78 205h76q-5 -84 -18 -180t-23 -151l-11 -54h-1097v70l59 12q84 19 103 30t20 44q2 47 2 229v684q0 182 -2 229q-1 33 -25 44t-129 30zM408 1868q1 16 5.5 32.5t8.5 25.5l4 9l469 -323v-68q-204 69 -326 123q-96 38 -130 87.5 t-31 113.5z" />
<glyph unicode="&#xc9;" horiz-adv-x="1474" d="M127 1384v70h1059q5 -132 -8 -360h-74q-22 142 -29 170q-5 25 -15 37.5t-36 24.5t-83 16.5t-143.5 7t-230.5 2.5v-553q276 0 342 10q31 3 41.5 8.5t16.5 24.5q16 58 32 127h68v-457h-68q-12 61 -32 133q-8 28 -18 37t-40 12q-63 8 -342 8v-573q85 -23 260 -23 q131 0 192.5 6t90 20.5t43.5 47.5q40 86 78 205h76q-5 -84 -18 -180t-23 -151l-11 -54h-1097v70l59 12q84 19 103 30t20 44q2 47 2 229v684q0 182 -2 229q-1 33 -25 44t-129 30zM559 1559l2 67l469 324q15 -33 17 -68q5 -63 -30 -112.5t-130 -88.5q-105 -47 -328 -122z" />
<glyph unicode="&#xca;" horiz-adv-x="1474" d="M127 1384v70h1059q5 -132 -8 -360h-74q-22 142 -29 170q-5 25 -15 37.5t-36 24.5t-83 16.5t-143.5 7t-230.5 2.5v-553q276 0 342 10q31 3 41.5 8.5t16.5 24.5q16 58 32 127h68v-457h-68q-12 61 -32 133q-8 28 -18 37t-40 12q-63 8 -342 8v-573q85 -23 260 -23 q131 0 192.5 6t90 20.5t43.5 47.5q40 86 78 205h76q-5 -84 -18 -180t-23 -151l-11 -54h-1097v70l59 12q84 19 103 30t20 44q2 47 2 229v684q0 182 -2 229q-1 33 -25 44t-129 30zM362 1640l345 277h94q25 -27 46 -49.5t46 -46.5t37.5 -37t42 -40.5t37.5 -34.5t46 -41.5 t46 -41.5q-52 -20 -96 -20q-79 0 -134.5 36t-132.5 130l-34 40l-246 -210z" />
<glyph unicode="&#xcb;" horiz-adv-x="1474" d="M127 1384v70h1059q5 -132 -8 -360h-74q-22 142 -29 170q-5 25 -15 37.5t-36 24.5t-83 16.5t-143.5 7t-230.5 2.5v-553q276 0 342 10q31 3 41.5 8.5t16.5 24.5q16 58 32 127h68v-457h-68q-12 61 -32 133q-8 28 -18 37t-40 12q-63 8 -342 8v-573q85 -23 260 -23 q131 0 192.5 6t90 20.5t43.5 47.5q40 86 78 205h76q-5 -84 -18 -180t-23 -151l-11 -54h-1097v70l59 12q84 19 103 30t20 44q2 47 2 229v684q0 182 -2 229q-1 33 -25 44t-129 30zM412 1714q0 48 30.5 79.5t77.5 31.5q51 0 80 -32.5t29 -80.5t-30 -80.5t-79 -32.5 q-51 0 -79.5 33t-28.5 82zM821 1714q0 48 31 79.5t80 31.5t77.5 -32.5t28.5 -80.5t-30 -80.5t-78 -32.5q-51 0 -80 33t-29 82z" />
<glyph unicode="&#xcc;" horiz-adv-x="901" d="M154 0v70l59 12q85 19 103.5 30t19.5 44q2 47 2 229v684q0 182 -2 229q-1 33 -19.5 44t-103.5 30l-59 12v70h594v-70l-60 -12q-84 -19 -103 -30t-20 -44q-2 -47 -2 -229v-684q0 -182 2 -229q1 -33 20 -44t103 -30l60 -12v-70h-594zM156 1868q1 16 5.5 32.5t8.5 25.5l4 9 l469 -323v-68q-204 69 -326 123q-96 38 -130 87.5t-31 113.5z" />
<glyph unicode="&#xcd;" horiz-adv-x="901" d="M154 0v70l59 12q85 19 103.5 30t19.5 44q2 47 2 229v684q0 182 -2 229q-1 33 -19.5 44t-103.5 30l-59 12v70h594v-70l-60 -12q-84 -19 -103 -30t-20 -44q-2 -47 -2 -229v-684q0 -182 2 -229q1 -33 20 -44t103 -30l60 -12v-70h-594zM264 1559l2 67l469 324q15 -33 17 -68 q5 -63 -30 -112.5t-130 -88.5q-105 -47 -328 -122z" />
<glyph unicode="&#xce;" horiz-adv-x="901" d="M90 1640l344 277h94q25 -27 46 -49.5t46 -46.5t37.5 -37t42 -40.5t37.5 -34.5t46 -41.5t46 -41.5q-52 -20 -96 -20q-79 0 -134 36t-132 130l-35 40l-246 -210zM154 0v70l59 12q85 19 103.5 30t19.5 44q2 47 2 229v684q0 182 -2 229q-1 33 -19.5 44t-103.5 30l-59 12v70 h594v-70l-60 -12q-84 -19 -103 -30t-20 -44q-2 -47 -2 -229v-684q0 -182 2 -229q1 -33 20 -44t103 -30l60 -12v-70h-594z" />
<glyph unicode="&#xcf;" horiz-adv-x="901" d="M137 1714q0 47 31 79t78 32q50 0 79 -32.5t29 -80.5t-30 -80.5t-78 -32.5q-51 0 -80 33t-29 82zM154 0v70l59 12q85 19 103.5 30t19.5 44q2 47 2 229v684q0 182 -2 229q-1 33 -19.5 44t-103.5 30l-59 12v70h594v-70l-60 -12q-84 -19 -103 -30t-20 -44q-2 -47 -2 -229 v-684q0 -182 2 -229q1 -33 20 -44t103 -30l60 -12v-70h-594zM547 1714q0 48 30.5 79.5t79.5 31.5t78 -32.5t29 -80.5t-30 -80.5t-79 -32.5q-51 0 -79.5 33t-28.5 82z" />
<glyph unicode="&#xd0;" horiz-adv-x="1785" d="M127 1384v70q251 -4 403 -4q45 0 130.5 2t125.5 2q241 0 390 -41q230 -63 354.5 -234.5t124.5 -420.5q0 -242 -103 -410q-106 -172 -276 -260t-438 -88q-44 0 -142 2t-151 2l-389 -4v70l55 12q83 17 102.5 28.5t20.5 45.5q2 47 2 229v324h-166v110h166v250q0 182 -2 229 q-1 33 -23.5 44t-124.5 30zM561 150q129 -31 309 -31q348 0 473 264q68 130 68 317q0 156 -57 287q-84 189 -227.5 270.5t-378.5 81.5q-40 0 -87 -3.5t-73 -7.5l-27 -3v-506h328v-110h-328v-559z" />
<glyph unicode="&#xd1;" horiz-adv-x="1851" d="M154 0v70l59 12q85 19 103.5 30t19.5 44q2 47 2 229v684q0 176 -2 223q-1 25 -8.5 36t-32 21t-82.5 23l-59 12v70h391l872 -1098v713q0 182 -2 229q-1 33 -19.5 44t-103.5 30l-59 12v70h483v-70l-59 -12q-85 -19 -103.5 -30t-19.5 -44q-2 -47 -2 -229v-1069h-129 l-950 1202v-817q0 -182 2 -229q1 -33 20 -44t103 -30l59 -12v-70h-483zM590 1556q9 126 68.5 196.5t144.5 70.5q50 0 141 -37l47 -21q71 -30 113 -30q94 0 143 133l41 -8q-10 -126 -70 -196.5t-145 -70.5q-50 0 -141 37l-47 21q-71 30 -113 30q-41 0 -79 -31.5t-62 -101.5z " />
<glyph unicode="&#xd2;" horiz-adv-x="1798" d="M121 717q0 219 91.5 385t254.5 264q191 113 461 113q222 0 391 -84q169 -87 260.5 -249.5t91.5 -387.5q0 -176 -68.5 -335.5t-195.5 -270.5q-208 -181 -530 -181q-387 0 -584 242q-83 97 -127.5 229.5t-44.5 274.5zM371 768q0 -131 32 -252t89 -209q70 -110 172 -167.5 t223 -57.5h20q147 0 261 70.5t175 201.5q70 156 70 371q0 106 -19 200.5t-60 176t-100.5 140.5t-144.5 92.5t-188 33.5q-156 0 -268 -59q-262 -139 -262 -541zM580 1868q1 16 5.5 32.5t8.5 25.5l4 9l469 -323v-68q-204 69 -326 123q-96 38 -130 87.5t-31 113.5z" />
<glyph unicode="&#xd3;" horiz-adv-x="1798" d="M121 717q0 219 91.5 385t254.5 264q191 113 461 113q222 0 391 -84q169 -87 260.5 -249.5t91.5 -387.5q0 -176 -68.5 -335.5t-195.5 -270.5q-208 -181 -530 -181q-387 0 -584 242q-83 97 -127.5 229.5t-44.5 274.5zM371 768q0 -131 32 -252t89 -209q70 -110 172 -167.5 t223 -57.5h20q147 0 261 70.5t175 201.5q70 156 70 371q0 106 -19 200.5t-60 176t-100.5 140.5t-144.5 92.5t-188 33.5q-156 0 -268 -59q-262 -139 -262 -541zM729 1559l2 67l469 324q15 -33 17 -68q5 -63 -30 -112.5t-130 -88.5q-105 -47 -328 -122z" />
<glyph unicode="&#xd4;" horiz-adv-x="1798" d="M121 717q0 219 91.5 385t254.5 264q191 113 461 113q222 0 391 -84q169 -87 260.5 -249.5t91.5 -387.5q0 -176 -68.5 -335.5t-195.5 -270.5q-208 -181 -530 -181q-387 0 -584 242q-83 97 -127.5 229.5t-44.5 274.5zM371 768q0 -131 32 -252t89 -209q70 -110 172 -167.5 t223 -57.5h20q147 0 261 70.5t175 201.5q70 156 70 371q0 106 -19 200.5t-60 176t-100.5 140.5t-144.5 92.5t-188 33.5q-156 0 -268 -59q-262 -139 -262 -541zM532 1640l345 277h94q25 -27 46 -49.5t46 -46.5t37.5 -37t42 -40.5t37.5 -34.5t46 -41.5t46 -41.5 q-52 -20 -96 -20q-79 0 -134.5 36t-132.5 130l-35 40l-245 -210z" />
<glyph unicode="&#xd5;" horiz-adv-x="1798" d="M121 717q0 219 91.5 385t254.5 264q191 113 461 113q222 0 391 -84q169 -87 260.5 -249.5t91.5 -387.5q0 -176 -68.5 -335.5t-195.5 -270.5q-208 -181 -530 -181q-387 0 -584 242q-83 97 -127.5 229.5t-44.5 274.5zM371 768q0 -131 32 -252t89 -209q70 -110 172 -167.5 t223 -57.5h20q147 0 261 70.5t175 201.5q70 156 70 371q0 106 -19 200.5t-60 176t-100.5 140.5t-144.5 92.5t-188 33.5q-156 0 -268 -59q-262 -139 -262 -541zM549 1569q9 126 68.5 196t144.5 70q50 0 141 -37l47 -20q73 -31 113 -31q94 0 143 133l41 -8q-10 -126 -70 -196 t-145 -70q-53 0 -141 36l-47 21q-73 31 -113 31q-41 0 -79 -31.5t-62 -101.5z" />
<glyph unicode="&#xd6;" horiz-adv-x="1798" d="M121 717q0 219 91.5 385t254.5 264q191 113 461 113q222 0 391 -84q169 -87 260.5 -249.5t91.5 -387.5q0 -176 -68.5 -335.5t-195.5 -270.5q-208 -181 -530 -181q-387 0 -584 242q-83 97 -127.5 229.5t-44.5 274.5zM371 768q0 -131 32 -252t89 -209q70 -110 172 -167.5 t223 -57.5h20q147 0 261 70.5t175 201.5q70 156 70 371q0 106 -19 200.5t-60 176t-100.5 140.5t-144.5 92.5t-188 33.5q-156 0 -268 -59q-262 -139 -262 -541zM582 1714q0 48 30.5 79.5t77.5 31.5q51 0 80 -32.5t29 -80.5t-30 -80.5t-79 -32.5q-51 0 -79.5 33t-28.5 82z M991 1714q0 48 31 79.5t80 31.5t77.5 -32.5t28.5 -80.5t-30 -80.5t-78 -32.5q-51 0 -80 33t-29 82z" />
<glyph unicode="&#xd7;" horiz-adv-x="1095" d="M102 215l365 365l-365 366l80 78l365 -367l366 367l80 -78l-366 -366l366 -365l-80 -80l-366 365l-365 -365z" />
<glyph unicode="&#xd8;" horiz-adv-x="1785" d="M123 717q0 219 91.5 385t254.5 264q191 113 455 113q206 0 368 -78l99 141l84 -55l-95 -135q138 -95 209.5 -246.5t71.5 -347.5q0 -176 -67.5 -335.5t-194.5 -270.5q-208 -181 -525 -181q-233 0 -401 95l-98 -144l-82 58l98 141q-56 41 -96 92q-82 98 -127 230.5 t-45 273.5zM367 768q0 -129 33 -262.5t100 -222.5l704 987q-121 98 -305 98q-158 0 -270 -59q-262 -139 -262 -541zM569 203q134 -121 316 -121h18q149 0 263 70.5t175 201.5q70 156 70 371q0 302 -135 473z" />
<glyph unicode="&#xd9;" horiz-adv-x="1808" d="M135 1384v70h596v-70l-59 -12q-85 -19 -103.5 -30t-19.5 -44q-2 -47 -2 -229v-403q0 -110 8 -181q19 -183 116 -276.5t285 -93.5q230 0 323 119t93 401v434q0 178 -2 225q-1 24 -9 35.5t-32 20.5t-82 22l-59 12v70h485v-70l-59 -12q-82 -19 -101.5 -31.5t-21.5 -46.5 q-2 -47 -2 -225v-424q0 -356 -144 -515t-442 -159q-525 0 -575 463q-9 66 -9 184v451q0 182 -2 229q-1 33 -19.5 44t-102.5 30zM575 1868q1 16 5.5 32.5t9.5 25.5l4 9l469 -323v-68q-204 69 -326 123q-96 38 -130.5 87.5t-31.5 113.5z" />
<glyph unicode="&#xda;" horiz-adv-x="1808" d="M135 1384v70h596v-70l-59 -12q-85 -19 -103.5 -30t-19.5 -44q-2 -47 -2 -229v-403q0 -110 8 -181q19 -183 116 -276.5t285 -93.5q230 0 323 119t93 401v434q0 178 -2 225q-1 24 -9 35.5t-32 20.5t-82 22l-59 12v70h485v-70l-59 -12q-82 -19 -101.5 -31.5t-21.5 -46.5 q-2 -47 -2 -225v-424q0 -356 -144 -515t-442 -159q-525 0 -575 463q-9 66 -9 184v451q0 182 -2 229q-1 33 -19.5 44t-102.5 30zM788 1559l3 67l469 324q14 -33 16 -68q5 -63 -30 -112.5t-130 -88.5q-105 -47 -328 -122z" />
<glyph unicode="&#xdb;" horiz-adv-x="1808" d="M135 1384v70h596v-70l-59 -12q-85 -19 -103.5 -30t-19.5 -44q-2 -47 -2 -229v-403q0 -110 8 -181q19 -183 116 -276.5t285 -93.5q230 0 323 119t93 401v434q0 178 -2 225q-1 24 -9 35.5t-32 20.5t-82 22l-59 12v70h485v-70l-59 -12q-82 -19 -101.5 -31.5t-21.5 -46.5 q-2 -47 -2 -225v-424q0 -356 -144 -515t-442 -159q-525 0 -575 463q-9 66 -9 184v451q0 182 -2 229q-1 33 -19.5 44t-102.5 30zM551 1640l344 277h94q25 -27 46 -49.5t45.5 -46.5t37.5 -37t42.5 -40.5t37.5 -34.5t46 -41.5t46 -41.5q-52 -20 -96 -20q-79 0 -134 36t-132 130 l-35 40l-246 -210z" />
<glyph unicode="&#xdc;" horiz-adv-x="1808" d="M135 1384v70h596v-70l-59 -12q-85 -19 -103.5 -30t-19.5 -44q-2 -47 -2 -229v-403q0 -110 8 -181q19 -183 116 -276.5t285 -93.5q230 0 323 119t93 401v434q0 178 -2 225q-1 24 -9 35.5t-32 20.5t-82 22l-59 12v70h485v-70l-59 -12q-82 -19 -101.5 -31.5t-21.5 -46.5 q-2 -47 -2 -225v-424q0 -356 -144 -515t-442 -159q-525 0 -575 463q-9 66 -9 184v451q0 182 -2 229q-1 33 -19.5 44t-102.5 30zM600 1714q0 47 31 79t78 32q50 0 79 -32.5t29 -80.5t-30 -80.5t-78 -32.5q-51 0 -80 33t-29 82zM1010 1714q0 48 30.5 79.5t79.5 31.5t78 -32.5 t29 -80.5t-30 -80.5t-79 -32.5q-51 0 -79.5 33t-28.5 82z" />
<glyph unicode="&#xdd;" horiz-adv-x="1443" d="M43 1386v68h596v-68l-59 -10q-81 -15 -103 -34t-6 -54q9 -20 25.5 -47.5t48.5 -78t51 -81.5l201 -309q176 290 297 516q18 34 -4.5 54t-104.5 34l-59 10v68h481v-68l-47 -8q-35 -7 -54 -23t-49 -59q-275 -404 -417 -628v-283q0 -178 2 -225q1 -24 9 -35.5t32 -20.5 t82 -22l59 -12v-70h-590v70l60 12q58 13 81.5 22t31.5 20.5t9 35.5q2 47 2 225v260l-274 424q-117 183 -154 227q-30 41 -50 57.5t-58 24.5zM592 1559l2 67l469 324q14 -33 16 -68q5 -63 -29.5 -112.5t-129.5 -88.5q-105 -47 -328 -122z" />
<glyph unicode="&#xde;" horiz-adv-x="1368" d="M158 0v68l59 14q58 13 82.5 23t32 21t8.5 36q2 47 2 223v684q0 176 -2 223q-1 25 -8.5 36t-32 21t-82.5 23l-59 14v68h594v-68l-60 -14q-87 -19 -105 -34t-18 -74q0 -5 -1 -21t-1 -26h21q136 0 214 -7.5t146 -27.5q139 -38 216 -140.5t77 -238.5q0 -109 -41.5 -201.5 t-117 -157t-190.5 -91t-251 -3.5v78q152 -13 236 43q68 43 99.5 119.5t31.5 165.5q0 75 -25 145q-38 98 -123.5 152.5t-212.5 54.5l-80 -4v-719q0 -176 2 -223q1 -25 8.5 -36t32 -21t82.5 -23l60 -14v-68h-594z" />
<glyph unicode="&#xdf;" horiz-adv-x="1419" d="M66 877v59q73 43 147 63v17q3 291 178 440q155 131 393 131q174 0 280.5 -86.5t106.5 -208.5q0 -85 -49 -163.5t-151 -163.5q-80 -67 -110 -107.5t-30 -77.5q0 -41 37 -78t127 -73l68 -27q252 -99 252 -299q0 -55 -25.5 -110.5t-73.5 -103.5t-128 -78.5t-179 -30.5 q-118 0 -200 40q-84 40 -84 117q0 55 43 90q61 -64 134 -102.5t144 -38.5q82 0 127 40t45 105q0 114 -186 187l-68 28q-111 43 -162 111t-51 143q0 94 74 177q40 45 127 116q85 70 116 130t31 120q0 41 -17 80.5t-49.5 73.5t-88 55t-125.5 21q-149 0 -226 -84.5t-77 -272.5 v-1116h-334v61l80 27q32 9 39.5 19.5t9.5 46.5q2 55 2 264v459h-147z" />
<glyph unicode="&#xe0;" horiz-adv-x="1040" d="M74 205q0 133 137.5 232t421.5 138v80q0 145 -41 206t-139 61q-150 0 -320 -189q-41 50 -41 105q0 62 62 112q122 99 333 99q106 0 175.5 -25.5t105 -77.5t48.5 -113.5t13 -152.5v-283q0 -57 1 -86t6 -68t16.5 -60t31.5 -44.5t51 -38t75 -26.5l-11 -31q-74 -59 -163 -59 q-76 0 -126 42.5t-63 125.5q-50 -77 -133.5 -127t-179.5 -50q-115 0 -187.5 64t-72.5 166zM180 1548q4 16 11 33.5t13 26.5l5 10l430 -377l-6 -72q-203 95 -320 162q-158 87 -133 217zM266 254q0 -55 46.5 -92t121.5 -37q103 0 199 82v272q-182 -22 -274.5 -85t-92.5 -140z " />
<glyph unicode="&#xe1;" horiz-adv-x="1040" d="M74 205q0 133 137.5 232t421.5 138v80q0 145 -41 206t-139 61q-150 0 -320 -189q-41 50 -41 105q0 62 62 112q122 99 333 99q106 0 175.5 -25.5t105 -77.5t48.5 -113.5t13 -152.5v-283q0 -57 1 -86t6 -68t16.5 -60t31.5 -44.5t51 -38t75 -26.5l-11 -31q-74 -59 -163 -59 q-76 0 -126 42.5t-63 125.5q-50 -77 -133.5 -127t-179.5 -50q-115 0 -187.5 64t-72.5 166zM264 1241l430 377q21 -33 29 -70q25 -130 -133 -217q-109 -62 -318 -162zM266 254q0 -55 46.5 -92t121.5 -37q103 0 199 82v272q-182 -22 -274.5 -85t-92.5 -140z" />
<glyph unicode="&#xe2;" horiz-adv-x="1040" d="M74 205q0 133 137.5 232t421.5 138v80q0 145 -41 206t-139 61q-150 0 -320 -189q-41 50 -41 105q0 62 62 112q122 99 333 99q106 0 175.5 -25.5t105 -77.5t48.5 -113.5t13 -152.5v-283q0 -57 1 -86t6 -68t16.5 -60t31.5 -44.5t51 -38t75 -26.5l-11 -31q-74 -59 -163 -59 q-76 0 -126 42.5t-63 125.5q-50 -77 -133.5 -127t-179.5 -50q-115 0 -187.5 64t-72.5 166zM90 1202l359 381h88q91 -123 156.5 -200t172.5 -187q-56 -18 -96 -18q-84 0 -144.5 48t-144.5 175l-39 55l-245 -280zM266 254q0 -55 46.5 -92t121.5 -37q103 0 199 82v272 q-182 -22 -274.5 -85t-92.5 -140z" />
<glyph unicode="&#xe3;" horiz-adv-x="1040" d="M74 205q0 133 137.5 232t421.5 138v80q0 145 -41 206t-139 61q-150 0 -320 -189q-41 50 -41 105q0 62 62 112q122 99 333 99q106 0 175.5 -25.5t105 -77.5t48.5 -113.5t13 -152.5v-283q0 -57 1 -86t6 -68t16.5 -60t31.5 -44.5t51 -38t75 -26.5l-11 -31q-74 -59 -163 -59 q-76 0 -126 42.5t-63 125.5q-50 -77 -133.5 -127t-179.5 -50q-115 0 -187.5 64t-72.5 166zM123 1249q9 127 68.5 199t144.5 72q50 0 141 -37l47 -21q71 -30 113 -30q94 0 143 133l41 -9q-10 -127 -70 -198.5t-145 -71.5q-50 0 -141 37l-47 20q-73 31 -113 31 q-41 0 -79 -31.5t-62 -101.5zM266 254q0 -55 46.5 -92t121.5 -37q103 0 199 82v272q-182 -22 -274.5 -85t-92.5 -140z" />
<glyph unicode="&#xe4;" horiz-adv-x="1040" d="M74 205q0 133 137.5 232t421.5 138v80q0 145 -41 206t-139 61q-150 0 -320 -189q-41 50 -41 105q0 62 62 112q122 99 333 99q106 0 175.5 -25.5t105 -77.5t48.5 -113.5t13 -152.5v-283q0 -57 1 -86t6 -68t16.5 -60t31.5 -44.5t51 -38t75 -26.5l-11 -31q-74 -59 -163 -59 q-76 0 -126 42.5t-63 125.5q-50 -77 -133.5 -127t-179.5 -50q-115 0 -187.5 64t-72.5 166zM150 1380q0 50 30.5 83.5t79.5 33.5q51 0 80 -33t29 -82q0 -50 -31 -83t-80 -33q-51 0 -79.5 31.5t-28.5 82.5zM266 254q0 -55 46.5 -92t121.5 -37q103 0 199 82v272 q-182 -22 -274.5 -85t-92.5 -140zM559 1380q0 50 31 83.5t80 33.5q51 0 79.5 -33t28.5 -82q0 -51 -30 -83.5t-80 -32.5q-51 0 -80 31.5t-29 82.5z" />
<glyph unicode="&#xe5;" horiz-adv-x="1040" d="M74 205q0 133 137.5 232t421.5 138v80q0 145 -41 206t-139 61q-150 0 -320 -189q-41 50 -41 105q0 62 62 112q122 99 333 99q106 0 175.5 -25.5t105 -77.5t48.5 -113.5t13 -152.5v-283q0 -57 1 -86t6 -68t16.5 -60t31.5 -44.5t51 -38t75 -26.5l-11 -31q-74 -59 -163 -59 q-76 0 -126 42.5t-63 125.5q-50 -77 -133.5 -127t-179.5 -50q-115 0 -187.5 64t-72.5 166zM229 1374q0 107 73 172.5t177 65.5q99 0 162.5 -59.5t63.5 -159.5q0 -107 -73.5 -173.5t-176.5 -66.5q-97 0 -161.5 61t-64.5 160zM266 254q0 -55 46.5 -92t121.5 -37q103 0 199 82 v272q-182 -22 -274.5 -85t-92.5 -140zM356 1386q0 -70 31 -114.5t82 -44.5q50 0 79.5 40t29.5 111t-31 116.5t-82 45.5q-50 0 -79.5 -40.5t-29.5 -113.5z" />
<glyph unicode="&#xe6;" horiz-adv-x="1605" d="M74 201q0 131 138.5 229.5t420.5 142.5v70q0 147 -41 209.5t-139 62.5q-159 0 -322 -178q-39 48 -39 101q0 62 62 112q122 99 333 99q223 0 293 -127q4 4 16.5 15.5t22.5 20t21 15.5q112 78 268 78q183 0 289 -122.5t100 -350.5h-668q1 -162 51 -257.5t142 -142.5 q74 -43 190 -43q73 0 157.5 27t152.5 69l-11 -69q-61 -79 -168.5 -130.5t-228.5 -51.5q-259 0 -389 184q-69 -89 -165 -138t-202 -49q-133 0 -208.5 63t-75.5 161zM266 264q0 -60 48 -98.5t130 -38.5q117 0 246 92q-51 105 -55 258q-185 -23 -277 -83t-92 -130zM829 668 l451 24q-8 122 -65.5 189t-155.5 67q-88 0 -141 -53q-78 -72 -89 -227z" />
<glyph unicode="&#xe7;" horiz-adv-x="989" d="M100 477q0 163 60.5 288t169.5 198q126 86 284 86q117 0 201 -37q74 -32 74 -99q0 -54 -43 -108q-202 102 -332 102q-81 0 -131 -47q-82 -75 -82 -278q0 -192 91.5 -316.5t236.5 -124.5q144 0 272 78l-6 -63q-47 -66 -147.5 -120t-221.5 -54q-182 0 -304 136t-122 359z M362 -432q0 14 7 27.5t13 20.5l7 7q77 -65 170 -65q43 0 68.5 16t25.5 41q0 22 -26 35t-86 30q-7 2 -11 3q-37 10 -61.5 19.5t-51 24t-39.5 34.5t-13 46q0 41 33.5 73.5t54.5 37.5l18 4q-25 -65 38 -93q21 -10 87 -26q29 -8 47.5 -13.5t43.5 -17t39.5 -24.5t25 -33t10.5 -45 q0 -69 -73.5 -130.5t-166.5 -61.5q-58 0 -109 23.5t-51 66.5z" />
<glyph unicode="&#xe8;" horiz-adv-x="1073" d="M94 510q0 288 178 436q123 105 301 105q184 0 290.5 -122t99.5 -349h-666q0 -298 199 -402q74 -43 186 -43q73 0 155 24.5t150 65.5l-10 -69q-61 -76 -169 -126t-228 -50q-153 0 -264.5 71t-166.5 189.5t-55 269.5zM287 1548q4 16 11 33.5t12 26.5l5 10l430 -377l-6 -72 q-197 93 -319 162q-158 87 -133 217zM297 666l448 24q-6 123 -63.5 190.5t-157.5 67.5q-85 0 -141 -53q-75 -69 -86 -229z" />
<glyph unicode="&#xe9;" horiz-adv-x="1073" d="M94 510q0 288 178 436q123 105 301 105q184 0 290.5 -122t99.5 -349h-666q0 -298 199 -402q74 -43 186 -43q73 0 155 24.5t150 65.5l-10 -69q-61 -76 -169 -126t-228 -50q-153 0 -264.5 71t-166.5 189.5t-55 269.5zM297 666l448 24q-6 123 -63.5 190.5t-157.5 67.5 q-85 0 -141 -53q-75 -69 -86 -229zM344 1241l430 377q21 -33 29 -70q25 -130 -133 -217q-109 -62 -318 -162z" />
<glyph unicode="&#xea;" horiz-adv-x="1073" d="M94 510q0 288 178 436q123 105 301 105q184 0 290.5 -122t99.5 -349h-666q0 -298 199 -402q74 -43 186 -43q73 0 155 24.5t150 65.5l-10 -69q-61 -76 -169 -126t-228 -50q-153 0 -264.5 71t-166.5 189.5t-55 269.5zM158 1202l358 381h88q90 -122 155.5 -198.5 t174.5 -188.5q-56 -18 -96 -18q-84 0 -144.5 48t-144.5 175l-39 55l-246 -280zM297 666l448 24q-6 123 -63.5 190.5t-157.5 67.5q-85 0 -141 -53q-75 -69 -86 -229z" />
<glyph unicode="&#xeb;" horiz-adv-x="1073" d="M94 510q0 288 178 436q123 105 301 105q184 0 290.5 -122t99.5 -349h-666q0 -298 199 -402q74 -43 186 -43q73 0 155 24.5t150 65.5l-10 -69q-61 -76 -169 -126t-228 -50q-153 0 -264.5 71t-166.5 189.5t-55 269.5zM227 1380q0 50 31 83.5t80 33.5q51 0 79.5 -33 t28.5 -82q0 -50 -30.5 -83t-79.5 -33q-51 0 -80 31.5t-29 82.5zM297 666l448 24q-6 123 -63.5 190.5t-157.5 67.5q-85 0 -141 -53q-75 -69 -86 -229zM637 1380q0 50 31 83.5t80 33.5q51 0 79.5 -33t28.5 -82q0 -50 -30.5 -83t-80.5 -33q-51 0 -79.5 31.5t-28.5 82.5z" />
<glyph unicode="&#xec;" horiz-adv-x="649" d="M59 1522q0 67 52 123l364 -441l-18 -67q-13 9 -69.5 48t-77 53.5t-62 45.5t-80.5 62q-109 81 -109 176zM86 932v45q170 61 334 61h20v-618q0 -211 2 -266q1 -36 9 -46.5t41 -21.5l79 -25v-61h-465v61l80 25q34 10 41 20.5t9 47.5q2 55 2 266v172q0 199 -2 246 q-1 34 -14 48t-48 23z" />
<glyph unicode="&#xed;" horiz-adv-x="649" d="M86 932v45q170 61 334 61h20v-618q0 -211 2 -266q1 -36 9 -46.5t41 -21.5l79 -25v-61h-465v61l80 25q34 10 41 20.5t9 47.5q2 55 2 266v172q0 199 -2 246q-1 34 -14 48t-48 23zM102 1204l363 441q51 -55 51 -123q0 -98 -108 -176q-39 -31 -80.5 -62t-62 -45.5t-77 -53.5 t-69.5 -48z" />
<glyph unicode="&#xee;" horiz-adv-x="649" d="M-23 1198l318 381h88q96 -139 151.5 -213t139.5 -174q-69 -21 -99 -21q-74 0 -120 45t-123 181l-35 63l-213 -289zM86 932v45q170 61 334 61h20v-618q0 -211 2 -266q1 -36 9 -46.5t41 -21.5l79 -25v-61h-465v61l80 25q34 10 41 20.5t9 47.5q2 55 2 266v172q0 199 -2 246 q-1 34 -14 48t-48 23z" />
<glyph unicode="&#xef;" horiz-adv-x="649" d="M23 1384q0 50 29.5 83.5t78.5 33.5q51 0 79 -32.5t28 -82.5t-30 -83t-79 -33q-51 0 -78.5 31.5t-27.5 82.5zM86 932v45q170 61 334 61h20v-618q0 -211 2 -266q1 -36 9 -46.5t41 -21.5l79 -25v-61h-465v61l80 25q34 10 41 20.5t9 47.5q2 55 2 266v172q0 199 -2 246 q-1 34 -14 48t-48 23zM408 1384q0 50 29.5 83.5t78.5 33.5q51 0 79 -32.5t28 -82.5q0 -51 -29.5 -83.5t-79.5 -32.5q-51 0 -78.5 31.5t-27.5 82.5z" />
<glyph unicode="&#xf0;" horiz-adv-x="1224" d="M104 420q0 143 62 252.5t174 175.5q136 78 322 78q98 0 178 -25q-43 222 -166 354l-228 -151l-55 84l205 137q-47 35 -98 61q-152 76 -371 76q-2 13 -2 25q0 92 131 92q205 0 391 -96q57 -31 96 -60l197 131l55 -81l-172 -115q122 -117 192 -290.5t70 -401.5 q0 -171 -43.5 -305.5t-119.5 -218t-176 -126.5t-218 -43q-188 0 -306 122t-118 325zM322 455q0 -160 73 -261.5t178 -101.5q104 0 181 86q50 57 81 165.5t31 256.5q0 112 -12 203q-78 20 -152 20q-137 0 -233 -59q-147 -96 -147 -309z" />
<glyph unicode="&#xf1;" horiz-adv-x="1314" d="M94 932v45q167 61 334 61h14v-168q47 85 135 134t201 49q171 0 250.5 -98t79.5 -308v-227q0 -211 2 -266q1 -37 9 -47t40 -21l80 -25v-61h-471v61l86 27q31 11 38.5 21t8.5 49q2 55 2 262v121q0 80 -4.5 132t-17 98.5t-36.5 72.5t-62.5 40.5t-94.5 14.5q-75 0 -138 -26 t-101 -66v-387q0 -209 2 -264q1 -38 8.5 -47.5t38.5 -20.5l88 -27v-61h-471v61l80 25q32 11 40 21t9 47q2 55 2 264v174q0 199 -2 246q-1 34 -14 48t-48 23zM307 1249q9 127 68.5 199t144.5 72q51 0 142 -37l47 -21q71 -30 112 -30q95 0 144 133l41 -9q-10 -127 -70 -198.5 t-145 -71.5q-51 0 -142 37l-47 20q-73 31 -113 31q-41 0 -79 -31.5t-62 -101.5z" />
<glyph unicode="&#xf2;" horiz-adv-x="1208" d="M96 500q0 309 217 454q142 95 318 95q282 0 413 -218q68 -113 68 -288q0 -131 -41 -238.5t-112 -177.5t-164.5 -107.5t-200.5 -37.5q-239 0 -368.5 139t-129.5 379zM313 539q0 -197 80.5 -323t229.5 -126q128 0 198 106t70 285q0 215 -70 328q-43 67 -100 98t-139 31 q-63 0 -111 -23t-77.5 -60.5t-48 -90.5t-25.5 -107.5t-7 -117.5zM350 1548q4 16 11 33.5t13 26.5l5 10l430 -377l-6 -72q-203 95 -320 162q-158 87 -133 217z" />
<glyph unicode="&#xf3;" horiz-adv-x="1208" d="M96 500q0 309 217 454q142 95 318 95q282 0 413 -218q68 -113 68 -288q0 -131 -41 -238.5t-112 -177.5t-164.5 -107.5t-200.5 -37.5q-239 0 -368.5 139t-129.5 379zM313 539q0 -197 80.5 -323t229.5 -126q128 0 198 106t70 285q0 215 -70 328q-43 67 -100 98t-139 31 q-63 0 -111 -23t-77.5 -60.5t-48 -90.5t-25.5 -107.5t-7 -117.5zM387 1241l430 377q21 -33 29 -70q25 -130 -133 -217q-109 -62 -318 -162z" />
<glyph unicode="&#xf4;" horiz-adv-x="1208" d="M96 500q0 309 217 454q142 95 318 95q282 0 413 -218q68 -113 68 -288q0 -131 -41 -238.5t-112 -177.5t-164.5 -107.5t-200.5 -37.5q-239 0 -368.5 139t-129.5 379zM223 1202l359 381h88q91 -123 156.5 -200t172.5 -187q-56 -18 -96 -18q-84 0 -144.5 48t-144.5 175 l-39 55l-245 -280zM313 539q0 -197 80.5 -323t229.5 -126q128 0 198 106t70 285q0 215 -70 328q-43 67 -100 98t-139 31q-63 0 -111 -23t-77.5 -60.5t-48 -90.5t-25.5 -107.5t-7 -117.5z" />
<glyph unicode="&#xf5;" horiz-adv-x="1208" d="M96 500q0 309 217 454q142 95 318 95q282 0 413 -218q68 -113 68 -288q0 -131 -41 -238.5t-112 -177.5t-164.5 -107.5t-200.5 -37.5q-239 0 -368.5 139t-129.5 379zM254 1249q9 127 68.5 199t144.5 72q50 0 141 -37l47 -21q70 -30 113 -30q94 0 143 133l41 -9 q-10 -127 -70 -198.5t-145 -71.5q-50 0 -141 37l-47 20q-73 31 -113 31q-41 0 -79 -31.5t-62 -101.5zM313 539q0 -197 80.5 -323t229.5 -126q128 0 198 106t70 285q0 215 -70 328q-43 67 -100 98t-139 31q-63 0 -111 -23t-77.5 -60.5t-48 -90.5t-25.5 -107.5t-7 -117.5z" />
<glyph unicode="&#xf6;" horiz-adv-x="1208" d="M96 500q0 309 217 454q142 95 318 95q282 0 413 -218q68 -113 68 -288q0 -131 -41 -238.5t-112 -177.5t-164.5 -107.5t-200.5 -37.5q-239 0 -368.5 139t-129.5 379zM291 1380q0 50 30.5 83.5t79.5 33.5q51 0 80 -33t29 -82q0 -50 -31 -83t-80 -33q-51 0 -79.5 31.5 t-28.5 82.5zM313 539q0 -197 80.5 -323t229.5 -126q128 0 198 106t70 285q0 215 -70 328q-43 67 -100 98t-139 31q-63 0 -111 -23t-77.5 -60.5t-48 -90.5t-25.5 -107.5t-7 -117.5zM700 1380q0 50 31 83.5t80 33.5q51 0 80 -33t29 -82q0 -50 -30.5 -83t-80.5 -33 q-51 0 -80 31.5t-29 82.5z" />
<glyph unicode="&#xf7;" horiz-adv-x="1095" d="M61 524v113h973v-113h-973zM471 219q0 37 25 62.5t63 25.5q39 0 62.5 -26.5t23.5 -65.5q0 -37 -25 -62.5t-63 -25.5q-40 0 -63 25.5t-23 66.5zM471 967q0 38 25 64t63 26q39 0 62.5 -26.5t23.5 -65.5t-25 -65t-63 -26q-40 0 -63 26.5t-23 66.5z" />
<glyph unicode="&#xf8;" horiz-adv-x="1204" d="M96 500q0 116 37 216.5t105 174.5t169 116t224 42q101 0 186 -29l119 201l82 -45l-115 -197q102 -64 155.5 -178t53.5 -258q0 -131 -41 -238.5t-112 -177.5t-164.5 -107.5t-200.5 -37.5q-135 0 -242 49l-108 -187l-82 47l110 189q-176 138 -176 420zM313 539 q0 -176 60 -287l375 639q-67 47 -166 47q-63 0 -111 -23t-77.5 -60.5t-48 -90.5t-25.5 -107.5t-7 -117.5zM428 168q75 -78 195 -78q128 0 198 106t70 285q0 237 -80 340z" />
<glyph unicode="&#xf9;" horiz-adv-x="1314" d="M66 932v45q170 61 333 61h23v-553q0 -79 4.5 -131t17 -98t36 -72t62 -40.5t93.5 -14.5q76 0 139.5 25.5t99.5 64.5v373q0 199 -2 246q-2 34 -14 48t-47 23l-88 23v45q170 61 334 61h20v-598q0 -198 2 -245q1 -34 14 -48.5t48 -23.5l88 -23v-45q-167 -61 -332 -61h-16v166 q-48 -88 -134.5 -137.5t-199.5 -49.5q-169 0 -249.5 98.5t-80.5 307.5v213q0 199 -2 246q-2 34 -14 48t-47 23zM358 1548q4 16 11 33.5t13 26.5l5 10l430 -377l-6 -72q-197 93 -319 162q-159 88 -134 217z" />
<glyph unicode="&#xfa;" horiz-adv-x="1314" d="M66 932v45q170 61 333 61h23v-553q0 -79 4.5 -131t17 -98t36 -72t62 -40.5t93.5 -14.5q76 0 139.5 25.5t99.5 64.5v373q0 199 -2 246q-2 34 -14 48t-47 23l-88 23v45q170 61 334 61h20v-598q0 -198 2 -245q1 -34 14 -48.5t48 -23.5l88 -23v-45q-167 -61 -332 -61h-16v166 q-48 -88 -134.5 -137.5t-199.5 -49.5q-169 0 -249.5 98.5t-80.5 307.5v213q0 199 -2 246q-2 34 -14 48t-47 23zM453 1241l430 377q20 -33 28 -70q25 -130 -133 -217q-114 -65 -317 -162z" />
<glyph unicode="&#xfb;" horiz-adv-x="1314" d="M66 932v45q170 61 333 61h23v-553q0 -79 4.5 -131t17 -98t36 -72t62 -40.5t93.5 -14.5q76 0 139.5 25.5t99.5 64.5v373q0 199 -2 246q-2 34 -14 48t-47 23l-88 23v45q170 61 334 61h20v-598q0 -198 2 -245q1 -34 14 -48.5t48 -23.5l88 -23v-45q-167 -61 -332 -61h-16v166 q-48 -88 -134.5 -137.5t-199.5 -49.5q-169 0 -249.5 98.5t-80.5 307.5v213q0 199 -2 246q-2 34 -14 48t-47 23zM264 1202l359 381h88q91 -123 156.5 -200t172.5 -187q-56 -18 -96 -18q-84 0 -144.5 48t-144.5 175l-39 55l-245 -280z" />
<glyph unicode="&#xfc;" horiz-adv-x="1314" d="M66 932v45q170 61 333 61h23v-553q0 -79 4.5 -131t17 -98t36 -72t62 -40.5t93.5 -14.5q76 0 139.5 25.5t99.5 64.5v373q0 199 -2 246q-2 34 -14 48t-47 23l-88 23v45q170 61 334 61h20v-598q0 -198 2 -245q1 -34 14 -48.5t48 -23.5l88 -23v-45q-167 -61 -332 -61h-16v166 q-48 -88 -134.5 -137.5t-199.5 -49.5q-169 0 -249.5 98.5t-80.5 307.5v213q0 199 -2 246q-2 34 -14 48t-47 23zM326 1380q0 50 30.5 83.5t79.5 33.5q51 0 80 -33t29 -82q0 -50 -31 -83t-80 -33q-51 0 -79.5 31.5t-28.5 82.5zM735 1380q0 50 31 83.5t80 33.5q51 0 79.5 -33 t28.5 -82q0 -51 -30 -83.5t-80 -32.5q-51 0 -80 31.5t-29 82.5z" />
<glyph unicode="&#xfd;" horiz-adv-x="1126" d="M-27 969v61h496v-63l-90 -23q-41 -9 -48.5 -27t9.5 -47l295 -639q89 256 180 613q12 37 2.5 58.5t-57.5 37.5l-88 27v63h446v-61l-65 -19q-38 -12 -52 -28.5t-34 -73.5q-138 -393 -240 -633t-209 -430q-75 -134 -160.5 -222.5t-154.5 -88.5q-47 0 -85.5 39.5t-60.5 109.5 q188 61 281 127.5t149 171.5l37 70l-426 891q-12 24 -16.5 32t-15 17t-27.5 14zM381 1241l430 377q21 -33 29 -70q25 -130 -133 -217q-109 -62 -318 -162z" />
<glyph unicode="&#xfe;" horiz-adv-x="1230" d="M47 1479v45q175 61 334 61h20v-563q0 -38 -1.5 -74t-3.5 -52l-1 -17q50 77 134 120t184 43q186 0 299.5 -134t113.5 -335q0 -338 -215 -493q-155 -111 -358 -111q-60 0 -152 15v-86q0 -210 2 -265q1 -36 9 -46t41 -19l86 -27v-61h-471v61l79 25q33 11 41 21t9 46 q2 55 2 265v1241q0 198 -2 245q-1 34 -14 48.5t-48 23.5zM401 125q120 -37 217 -37q99 0 173 57q58 45 90 135t32 205q0 195 -80 303.5t-225 108.5q-59 0 -117.5 -21.5t-89.5 -54.5v-696z" />
<glyph unicode="&#xff;" horiz-adv-x="1126" d="M-27 969v61h496v-63l-90 -23q-41 -9 -48.5 -27t9.5 -47l295 -639q89 256 180 613q12 37 2.5 58.5t-57.5 37.5l-88 27v63h446v-61l-65 -19q-38 -12 -52 -28.5t-34 -73.5q-138 -393 -240 -633t-209 -430q-75 -134 -160.5 -222.5t-154.5 -88.5q-47 0 -85.5 39.5t-60.5 109.5 q188 61 281 127.5t149 171.5l37 70l-426 891q-12 24 -16.5 32t-15 17t-27.5 14zM244 1380q0 50 30.5 83.5t79.5 33.5q51 0 80 -33t29 -82q0 -50 -31 -83t-80 -33q-51 0 -79.5 31.5t-28.5 82.5zM653 1380q0 50 31 83.5t80 33.5q51 0 79.5 -33t28.5 -82q0 -51 -30 -83.5 t-80 -32.5q-51 0 -80 31.5t-29 82.5z" />
<glyph unicode="&#x152;" horiz-adv-x="2428" d="M121 717q0 219 91.5 385t254.5 264q191 113 459 113q71 0 207.5 -12.5t250.5 -12.5h754q11 -133 -6 -360h-74q-15 116 -28 170q-7 31 -20 45t-65.5 25.5t-147.5 14.5t-275 3v-553q276 0 342 10q30 3 40.5 8.5t16.5 24.5q22 78 33 127h67v-457h-67q-9 46 -33 133 q-8 29 -17.5 37.5t-39.5 11.5q-63 8 -342 8v-573q85 -23 262 -23q99 0 153 2.5t91 11t52 22t27 38.5q40 86 78 205h76q-5 -84 -18 -180t-23 -151l-10 -54h-897q-96 0 -237 -14.5t-199 -14.5q-387 0 -584 242q-83 97 -127.5 229.5t-44.5 274.5zM371 768q0 -131 32 -252 t89 -209q70 -110 172 -167.5t223 -57.5h18q175 0 295 70q55 31 73 55t21 63q2 35 2 148v635q0 113 -6 159q-5 35 -19 55.5t-52 39.5q-125 61 -308 61q-166 0 -278 -59q-262 -139 -262 -541z" />
<glyph unicode="&#x153;" horiz-adv-x="1875" d="M96 500q0 309 217 454q142 95 328 95q236 0 369 -175q41 54 86 91q121 86 280 86q184 0 290.5 -122.5t100.5 -350.5h-667q0 -297 198 -400q76 -43 187 -43q74 0 157 26t150 68l-10 -67q-63 -79 -170 -130.5t-228 -51.5q-260 0 -391 194q-65 -94 -168.5 -143t-228.5 -49 q-241 0 -370.5 139t-129.5 379zM313 539q0 -128 33.5 -227.5t105.5 -160.5t173 -61q127 0 198.5 108t71.5 283v29q-6 191 -72 299q-78 129 -235 129q-275 0 -275 -399zM1100 668l450 24q-8 122 -65.5 189t-155.5 67q-87 0 -143 -53q-78 -75 -86 -227z" />
<glyph unicode="&#x178;" horiz-adv-x="1443" d="M43 1386v68h596v-68l-59 -10q-81 -15 -103 -34t-6 -54q9 -20 25.5 -47.5t48.5 -78t51 -81.5l201 -309q176 290 297 516q18 34 -4.5 54t-104.5 34l-59 10v68h481v-68l-47 -8q-35 -7 -54 -23t-49 -59q-275 -404 -417 -628v-283q0 -178 2 -225q1 -24 9 -35.5t32 -20.5 t82 -22l59 -12v-70h-590v70l60 12q58 13 81.5 22t31.5 20.5t9 35.5q2 47 2 225v260l-274 424q-117 183 -154 227q-30 41 -50 57.5t-58 24.5zM424 1714q0 48 30.5 79.5t77.5 31.5q51 0 80 -32.5t29 -80.5t-30 -80.5t-79 -32.5q-51 0 -79.5 33t-28.5 82zM834 1714 q0 48 30.5 79.5t79.5 31.5t78 -32.5t29 -80.5t-30 -80.5t-79 -32.5q-51 0 -79.5 33t-28.5 82z" />
<glyph unicode="&#x2c6;" horiz-adv-x="980" d="M102 1225l359 381h88q90 -122 155.5 -198.5t174.5 -188.5q-59 -19 -97 -19q-84 0 -144 48t-144 175l-39 56l-246 -281z" />
<glyph unicode="&#x2dc;" horiz-adv-x="890" d="M98 1249q9 127 68.5 199t144.5 72q51 0 142 -37l47 -21q71 -30 112 -30q95 0 144 133l41 -9q-10 -127 -70 -198.5t-145 -71.5q-51 0 -142 37l-47 20q-73 31 -112 31q-41 0 -79.5 -31.5t-62.5 -101.5z" />
<glyph unicode="&#x2000;" horiz-adv-x="975" />
<glyph unicode="&#x2001;" horiz-adv-x="1950" />
<glyph unicode="&#x2002;" horiz-adv-x="975" />
<glyph unicode="&#x2003;" horiz-adv-x="1950" />
<glyph unicode="&#x2004;" horiz-adv-x="650" />
<glyph unicode="&#x2005;" horiz-adv-x="487" />
<glyph unicode="&#x2006;" horiz-adv-x="325" />
<glyph unicode="&#x2007;" horiz-adv-x="325" />
<glyph unicode="&#x2008;" horiz-adv-x="243" />
<glyph unicode="&#x2009;" horiz-adv-x="390" />
<glyph unicode="&#x200a;" horiz-adv-x="108" />
<glyph unicode="&#x2010;" horiz-adv-x="634" d="M41 600l539 55l14 -135l-537 -55z" />
<glyph unicode="&#x2011;" horiz-adv-x="634" d="M41 600l539 55l14 -135l-537 -55z" />
<glyph unicode="&#x2012;" horiz-adv-x="634" d="M41 600l539 55l14 -135l-537 -55z" />
<glyph unicode="&#x2013;" horiz-adv-x="1024" d="M61 500v127h902v-127h-902z" />
<glyph unicode="&#x2014;" horiz-adv-x="2048" d="M61 500v127h1926v-127h-1926z" />
<glyph unicode="&#x2018;" horiz-adv-x="471" d="M106 1356q0 73 57 164.5t187 183.5l92 8q-68 -63 -108 -116t-52 -93.5t-9 -70t18 -58.5q12 -22 28.5 -41t26.5 -27l10 -8q-18 -42 -51.5 -68t-73.5 -26q-46 0 -85.5 40.5t-39.5 111.5z" />
<glyph unicode="&#x2019;" horiz-adv-x="471" d="M29 1141q68 63 108 116t52 93.5t9 70t-18 58.5q-12 22 -28.5 40.5t-26.5 26.5l-10 8q18 42 51.5 68.5t73.5 26.5q46 0 85.5 -40.5t39.5 -111.5q0 -73 -57 -164.5t-187 -183.5z" />
<glyph unicode="&#x201a;" horiz-adv-x="471" d="M29 -272q68 63 108 116t52 93.5t9 70t-18 58.5q-12 22 -28 40.5t-26 26.5l-11 8q18 42 51.5 68.5t73.5 26.5q46 0 85.5 -40.5t39.5 -111.5q0 -73 -57 -164.5t-187 -183.5z" />
<glyph unicode="&#x201c;" horiz-adv-x="854" d="M106 1356q0 73 57 164.5t187 183.5l90 8q-67 -63 -106.5 -116t-51.5 -93.5t-9 -70t18 -58.5q12 -22 28.5 -41t26.5 -27l10 -8q-19 -43 -52 -68.5t-73 -25.5q-46 0 -85.5 40.5t-39.5 111.5zM492 1356q0 33 12 70.5t38 82.5t75.5 96t117.5 99l90 8q-67 -63 -106.5 -116 t-51.5 -93.5t-9 -70t18 -58.5q12 -22 28 -41t26 -27l11 -8q-19 -43 -52 -68.5t-73 -25.5q-45 0 -84.5 40.5t-39.5 111.5z" />
<glyph unicode="&#x201d;" horiz-adv-x="854" d="M29 1141q67 63 106.5 116t51.5 93.5t9 70t-18 58.5q-12 22 -28.5 40.5t-26.5 26.5l-10 8q20 43 52.5 69t72.5 26q45 0 84.5 -40.5t39.5 -111.5q0 -33 -12 -70.5t-38 -82.5t-75.5 -96t-117.5 -99zM414 1141q67 63 106.5 116t51.5 93.5t9 70t-18 58.5q-12 22 -28.5 40.5 t-26.5 26.5l-10 8q20 43 52.5 69t72.5 26q46 0 85.5 -40.5t39.5 -111.5q0 -73 -57 -164.5t-187 -183.5z" />
<glyph unicode="&#x201e;" horiz-adv-x="854" d="M29 -270q67 63 106.5 116t51.5 93.5t9 70t-18 58.5q-12 22 -28 40.5t-26 26.5l-11 8q20 43 52.5 69t72.5 26q45 0 84.5 -40.5t39.5 -111.5q0 -33 -12 -70.5t-38 -82.5t-75.5 -96t-117.5 -99zM414 -270q67 63 106.5 116t51.5 93.5t9 70t-18 58.5q-12 22 -28.5 40.5 t-26.5 26.5l-10 8q20 43 52.5 69t72.5 26q46 0 85.5 -40.5t39.5 -111.5q0 -73 -57 -164.5t-187 -183.5z" />
<glyph unicode="&#x2022;" horiz-adv-x="548" d="M109 700q0 71 47 118.5t120 47.5t118.5 -52.5t45.5 -125.5q0 -69 -50 -115.5t-124 -46.5q-73 0 -115 51t-42 123z" />
<glyph unicode="&#x2026;" horiz-adv-x="1159" d="M115 113q0 50 34.5 84t86.5 34t83 -37.5t31 -89.5q0 -50 -34.5 -83t-88.5 -33q-52 0 -82 36.5t-30 88.5zM463 113q0 50 34 84t87 34q52 0 83 -37.5t31 -89.5q0 -50 -34.5 -83t-88.5 -33q-52 0 -82 36.5t-30 88.5zM811 113q0 50 34 84t87 34q52 0 82 -37.5t30 -89.5 q0 -50 -34 -83t-86 -33t-82.5 36.5t-30.5 88.5z" />
<glyph unicode="&#x202f;" horiz-adv-x="390" />
<glyph unicode="&#x2039;" horiz-adv-x="493" d="M37 446v109l356 471l27 -131l-262 -342l75 -78q109 -112 150 -180t41 -150q0 -64 -31 -131q-103 136 -171 219t-185 213z" />
<glyph unicode="&#x203a;" horiz-adv-x="493" d="M72 897q0 64 30 129q100 -132 168.5 -215.5t186.5 -216.5v-107l-355 -473l-28 133l264 340l-76 80q-109 113 -149.5 180t-40.5 150z" />
<glyph unicode="&#x205f;" horiz-adv-x="487" />
<glyph unicode="&#x20ac;" d="M-2 522v94h147q-4 41 -4 129q0 47 2 72h-145v92h156q24 160 96.5 279.5t183.5 191.5q162 99 340 99q88 0 170 -21.5t129 -58.5q57 -40 57 -105q0 -59 -45 -104q-225 147 -405 147q-142 0 -217 -84q-80 -91 -94 -344h563v-92h-565v-41q0 -95 8 -160h557v-94h-547 q72 -399 403 -399q120 0 332 74l-18 -74q-201 -143 -406 -143q-247 0 -376.5 140t-163.5 402h-158z" />
<glyph unicode="&#x2122;" horiz-adv-x="2250" d="M49 1208q-10 120 0 256q68 -10 127 -10h533q59 0 127 10q8 -110 0 -256h-56q-30 121 -37 131q-12 27 -41.5 37t-99.5 10h-82v-602q0 -108 2 -139q0 -17 13.5 -26t58.5 -19l41 -10v-51h-387v51l41 10q45 10 58 18.5t15 26.5v741h-81q-68 0 -98 -10t-42 -37 q-9 -12 -37 -131h-55zM920 539v51l41 10q44 10 56 18.5t15 26.5q2 16 2 139l4 424q0 111 -2 138q-2 20 -14 28.5t-59 18.5l-39 10v51h297l319 -696l320 696h303v-51l-39 -10q-48 -11 -61.5 -19t-14.5 -28q-2 -27 -2 -138l4 -424q0 -123 2 -139q3 -18 15.5 -26.5t56.5 -18.5 l43 -10v-51h-389v51l43 10q44 10 56.5 18.5t14.5 26.5q2 16 2 139l-4 539l-366 -784h-54l-346 735l-4 -490q0 -123 2 -139q2 -18 14 -26.5t56 -18.5l43 -10v-51h-315z" />
<glyph unicode="&#x25fc;" horiz-adv-x="1034" d="M0 0v1034h1034v-1034h-1034z" />
<glyph unicode="&#xfb01;" horiz-adv-x="1357" d="M82 877v59q79 44 149 63v9q0 278 209 450q155 127 373 127q127 0 191 -43q61 -36 61 -98q0 -58 -49 -123q-198 111 -332 111q-130 0 -191 -68t-61 -236v-137h264l-10 -114h-254v-459q0 -209 2 -264q2 -36 9.5 -46.5t39.5 -19.5l101 -25v-63h-486v61l82 27q32 9 39.5 19.5 t9.5 46.5q2 55 2 264v459h-149zM797 932v45q170 61 333 61h21v-618q0 -211 2 -266q1 -37 9 -47t40 -21l80 -25v-61h-465v61l80 25q33 10 40 20.5t9 47.5q2 55 2 266v172q0 199 -2 246q-2 34 -14 48t-47 23z" />
<glyph unicode="&#xfb02;" horiz-adv-x="1361" d="M82 877v59q79 44 149 63v9q0 283 197 450q152 127 350 127q88 0 146 -22q116 22 198 22h21v-1165q0 -211 2 -266q1 -37 9 -47t40 -21l80 -25v-61h-465v61l80 25q32 11 40 21t9 47q2 55 2 266v719q0 198 -2 231q-145 64 -268 64q-125 0 -181.5 -68.5t-56.5 -237.5v-137 h279l-9 -114h-270v-459q0 -209 2 -264q2 -36 9.5 -46.5t39.5 -19.5l101 -25v-63h-486v61l82 27q32 9 39.5 19.5t9.5 46.5q2 55 2 264v459h-149z" />
<glyph unicode="&#xfb03;" horiz-adv-x="2066" d="M82 877v59q79 44 149 63v23q0 297 164 438q148 125 316 125q104 0 157 -35q50 -35 50 -92t-44 -117q-81 43 -160.5 67t-127.5 24q-86 0 -120 -60t-34 -229v-152h506v17q0 278 209 450q155 127 373 127q126 0 190 -43q31 -19 46.5 -41t15.5 -57q0 -25 -13.5 -59.5 t-36.5 -63.5q-198 111 -331 111q-129 0 -189.5 -68t-60.5 -236v-137h313l-10 -114h-303v-459q0 -209 2 -264q2 -36 9 -46.5t38 -19.5l100 -25v-63h-485v61l82 27q32 9 39.5 19.5t9.5 46.5q2 55 2 264v459h-506v-459q0 -209 2 -264q2 -36 9.5 -46.5t39.5 -19.5l101 -25v-63 h-486v61l82 27q32 9 39.5 19.5t9.5 46.5q2 55 2 264v459h-149zM1507 932v45q167 61 332 61h21v-618q0 -211 2 -266q1 -37 9 -47t40 -21l82 -25v-61h-467v61l82 25q32 11 40 21t9 47q2 55 2 266v172q0 199 -2 246q-1 33 -14 47.5t-48 23.5z" />
<glyph unicode="&#xfb04;" horiz-adv-x="2068" d="M82 877v59q79 44 149 63v23q0 297 164 438q148 125 316 125q104 0 157 -35q50 -35 50 -92t-44 -117q-81 43 -160.5 67t-127.5 24q-86 0 -120 -60t-34 -229v-152h506v17q0 283 197 450q152 127 350 127q87 0 145 -22q116 22 199 22h20v-1165q0 -211 2 -266q1 -36 9 -46.5 t41 -21.5l79 -25v-61h-464v61l79 25q33 11 41 21.5t9 46.5q2 55 2 266v719q0 198 -2 231q-145 64 -269 64q-125 0 -180 -68.5t-55 -237.5v-137h276l-8 -114h-268v-459q0 -209 2 -264q2 -36 9 -46.5t38 -19.5l100 -25v-63h-485v61l82 27q32 9 39.5 19.5t9.5 46.5q2 55 2 264 v459h-506v-459q0 -209 2 -264q2 -36 9.5 -46.5t39.5 -19.5l101 -25v-63h-486v61l82 27q32 9 39.5 19.5t9.5 46.5q2 55 2 264v459h-149z" />
</font>
</defs>
</svg>
