<?xml version="1.0" standalone="no"?>
<!DOCTYPE svg PUBLIC "-//W3C//DTD SVG 1.1//EN" "http://www.w3.org/Graphics/SVG/1.1/DTD/svg11.dtd" >
<svg xmlns="http://www.w3.org/2000/svg">
<metadata></metadata>
<defs>
<font id="novel_prolight_italic" horiz-adv-x="1052" >
<font-face units-per-em="2048" ascent="1638" descent="-410" />
<missing-glyph horiz-adv-x="350" />
<glyph horiz-adv-x="0" />
<glyph horiz-adv-x="682" />
<glyph unicode=" "  horiz-adv-x="350" />
<glyph unicode="&#x09;" horiz-adv-x="350" />
<glyph unicode="&#xa0;" horiz-adv-x="350" />
<glyph unicode="!" horiz-adv-x="495" d="M121 100q0 46 30.5 77.5t77.5 31.5t75 -34t28 -81q0 -46 -32 -76t-79 -30q-45 0 -72.5 33t-27.5 79zM180 1333q0 142 107 142q108 0 108 -152q0 -68 -49 -405q-21 -145 -78 -488l-69 -6q-3 222 -7.5 434.5t-8 331.5t-3.5 143z" />
<glyph unicode="&#x22;" horiz-adv-x="632" d="M68 1376q0 45 25 72t69 27t69 -27t25 -72q0 -20 -7.5 -63t-25 -140.5t-33.5 -201.5h-57q-16 103 -33.5 201t-24.5 141t-7 63zM381 1376q0 45 25 72t69 27t69 -27t25 -72q0 -20 -7 -63t-24 -140.5t-32 -201.5h-60q-16 103 -33.5 201t-24.5 141t-7 63z" />
<glyph unicode="#" d="M4 311l10 99h201q57 447 64 510h-203l12 98h203l37 291h104l-35 -291h346l37 291h107l-37 -291h203l-11 -98h-204q-16 -143 -64 -510h203l-10 -99h-203l-39 -311h-107l39 311h-348q-34 -279 -37 -311h-106l39 311h-201zM322 410h346l65 510h-348q-30 -237 -63 -510z" />
<glyph unicode="$" d="M78 178q0 60 49 115q79 -99 152 -151.5t153 -59.5l35 586l-78 57q-194 137 -194 344q0 151 96.5 263.5t247.5 135.5l12 185l80 -4l-13 -174q194 -3 277 -89q47 -47 47 -108t-55 -125q-76 104 -141.5 156.5t-133.5 64.5l-32 -545l96 -69q211 -149 211 -336 q0 -159 -103.5 -283.5t-277.5 -154.5l-10 -191l-80 4l10 178h-18q-99 0 -177.5 27.5t-115.5 73.5q-37 48 -37 100zM360 1133q0 -150 144 -250l31 495q-68 -12 -121.5 -76t-53.5 -169zM512 88q82 20 133 91t51 188q0 138 -135 235l-18 12z" />
<glyph unicode="%" horiz-adv-x="1544" d="M59 1104q0 159 92 264t226 105q136 0 217.5 -97t79.5 -254q0 -159 -92 -263.5t-226 -104.5q-136 0 -217.5 96.5t-79.5 253.5zM197 1122q0 -121 48.5 -210t129.5 -89q162 0 162 281q2 120 -48 210.5t-131 90.5q-79 0 -120 -67t-41 -216zM369 -35l729 1573l84 -39 l-729 -1573zM868 330q1 159 93.5 263.5t224.5 104.5q137 0 218 -96t81 -254q0 -159 -92.5 -263.5t-227.5 -104.5q-134 0 -215.5 97t-81.5 253zM1006 348q0 -76 21 -143.5t62.5 -111.5t94.5 -44q164 0 164 281q0 121 -49.5 211t-131.5 90q-79 0 -119.5 -66.5t-41.5 -216.5z " />
<glyph unicode="&#x26;" horiz-adv-x="1497" d="M150 379q0 122 71.5 226.5t208.5 168.5q-83 111 -121.5 193t-38.5 161q0 103 52 183.5t134 122t175 41.5q132 0 218.5 -79t86.5 -204q0 -261 -309 -391q44 -53 231 -266q118 -135 170 -189q97 148 141 344q10 58 -39 72l-98 29v53h424v-53l-92 -27q-26 -6 -38 -21 t-26 -55q-88 -242 -208 -405q107 -105 205 -165.5t194 -64.5l-25 -61q-159 -20 -269 16t-226 142q-179 -170 -404 -170q-177 0 -297 112t-120 287zM317 418q0 -132 96.5 -227t231.5 -95q140 0 264 115q-58 58 -225 256q-156 182 -215 256q-84 -70 -118 -143.5t-34 -161.5z M434 1182q0 -78 32.5 -149t121.5 -183q186 124 186 313q0 99 -47 167.5t-117 68.5q-75 0 -125.5 -57.5t-50.5 -159.5z" />
<glyph unicode="'" horiz-adv-x="319" d="M68 1376q0 45 25 72t69 27t69 -27t25 -72q0 -20 -7.5 -63t-25 -140.5t-33.5 -201.5h-57q-16 103 -33.5 201t-24.5 141t-7 63z" />
<glyph unicode="(" horiz-adv-x="579" d="M115 434q0 100 6 194.5t22 207.5t41.5 209.5t69 192t100 165t138 118t180.5 60.5l20 -63q-79 -12 -144.5 -57t-110 -109.5t-78 -154t-53 -178.5t-31.5 -194.5t-16.5 -191.5t-4.5 -180q-1 -223 24 -389.5t74 -274.5t116.5 -167.5t156.5 -78.5l-23 -63 q-233 29 -360.5 263.5t-126.5 690.5z" />
<glyph unicode=")" horiz-adv-x="579" d="M-113 -457q83 12 150 60t112 115t78.5 160t51.5 182.5t29.5 196.5t14.5 188.5t3 170.5q0 432 -95 648t-276 254l22 63q233 -29 361.5 -262t128.5 -684q0 -97 -4.5 -186.5t-19 -204t-38.5 -211.5t-67 -196t-100 -170.5t-141.5 -122.5t-188.5 -64z" />
<glyph unicode="*" horiz-adv-x="806" d="M61 887q0 25 21 43.5t74 42.5l198 90l-139 63q-86 42 -114.5 63t-28.5 54q0 23 16 39t41 16q8 0 15 -1.5t16 -6t15 -8.5t17.5 -13.5t18 -15t22.5 -19.5t25 -22l111 -108q-21 295 -21 307q0 31 16.5 48.5t43.5 17.5t43 -18.5t16 -49.5q0 -19 -5 -51.5t-20 -110.5t-26 -143 q22 22 63 59t43 39q11 10 28 25.5t25 23t21 18.5t20.5 16t17 10.5t17 7.5t15.5 2q22 0 39.5 -17.5t17.5 -42.5q0 -27 -20.5 -45.5t-73.5 -42.5q-24 -12 -90.5 -41t-108.5 -49l139 -61q47 -23 66 -33t41.5 -25.5t29.5 -28.5t7 -30q0 -21 -16.5 -38t-41.5 -17q-8 0 -15 1.5 t-16 6t-15 8.5t-17.5 13.5t-18 15t-22.5 19.5t-25 22l-114 108q24 -311 24 -315q0 -31 -16.5 -48.5t-44.5 -17.5q-27 0 -42.5 18.5t-15.5 49.5q0 15 4 43t9 57.5t16.5 92t20.5 116.5q-17 -15 -53 -48.5t-52 -47.5l-27.5 -25t-25 -23t-21 -18.5t-20 -16t-17 -11t-17 -7.5 t-15.5 -2q-23 0 -40.5 17.5t-17.5 44.5z" />
<glyph unicode="+" horiz-adv-x="1095" d="M61 551v98h437v395h100v-395h436v-98h-436v-395h-100v395h-437z" />
<glyph unicode="," horiz-adv-x="393" d="M2 -274q210 198 145 329q-10 22 -24.5 40.5t-23.5 26.5l-9 7q17 39 48 61.5t67 22.5q42 0 78 -37.5t36 -101.5q0 -71 -56.5 -160t-180.5 -180z" />
<glyph unicode="-" horiz-adv-x="624" d="M41 594l530 49l13 -117l-531 -47z" />
<glyph unicode="&#xad;" horiz-adv-x="624" d="M41 594l530 49l13 -117l-531 -47z" />
<glyph unicode="." horiz-adv-x="401" d="M92 100q0 50 33 82.5t78 32.5t75.5 -32.5t30.5 -80.5q0 -50 -32.5 -82t-77.5 -32q-46 0 -76.5 32.5t-30.5 79.5z" />
<glyph unicode="/" horiz-adv-x="854" d="M23 -37l729 1573l82 -37l-730 -1573z" />
<glyph unicode="0" d="M61 653q0 101 12.5 198t41.5 201t85.5 196t135.5 153q103 78 248 78q154 0 258 -119q149 -176 149 -557q0 -103 -12 -199.5t-40.5 -202.5t-85.5 -198.5t-138 -155.5q-102 -76 -228 -76q-176 0 -276 121q-70 80 -110 228t-40 333zM246 680q0 -183 35 -332t108 -223 q56 -53 115 -53h12q102 0 174 96q115 155 115 608q0 127 -16 233.5t-47.5 189.5t-84 130t-120.5 47q-52 0 -96.5 -25t-73.5 -67q-121 -160 -121 -604z" />
<glyph unicode="1" d="M207 1337q290 117 418 117h22l-37 -1081q-4 -156 -4 -211q0 -36 21 -56t75 -30l84 -19v-57h-550v57l79 17q103 18 109 88q2 26 10 211l19 563q8 234 8 276q0 52 -9.5 69.5t-45.5 16.5l-195 -6z" />
<glyph unicode="2" d="M106 0l5 102q70 74 125 135.5t129 150t128.5 169.5t104 169.5t76 175t26.5 163.5q0 126 -68.5 198t-180.5 72q-172 0 -312 -155q-10 20 -10 53q0 54 39 102q53 68 144 106t190 38q172 0 279.5 -109t107.5 -278q0 -76 -21 -152.5t-65 -152.5t-93 -144t-123 -149t-135 -143 t-149 -149q-30 -29 -45 -44h694l-41 -158h-805z" />
<glyph unicode="3" d="M125 184q0 24 8.5 46.5t16.5 33.5l8 10q90 -103 166 -155.5t157 -52.5q114 0 176 73.5t62 188.5q0 126 -79 225t-249 152v20q164 122 234.5 221.5t70.5 194.5q0 89 -53 150t-154 61q-80 0 -150.5 -34t-141.5 -120q-13 26 -13 57q0 60 58 121q49 51 122.5 80t149.5 29 q88 0 158.5 -26t112.5 -68t64.5 -92.5t22.5 -102.5q0 -54 -18 -105.5t-43.5 -90t-67 -79.5t-74.5 -67.5t-81 -60.5q159 -73 234 -182.5t75 -233.5q0 -72 -31 -142.5t-86.5 -127.5t-140.5 -92t-184 -35q-107 0 -177.5 30t-107.5 70q-45 45 -45 104z" />
<glyph unicode="4" d="M55 387q4 68 66 168l481 766q46 75 92.5 105.5t143.5 52.5q-9 -118 -13 -224l-24 -720h162l-35 -148h-131l-13 -371l-166 -28l15 399h-578zM213 535h424l27 735z" />
<glyph unicode="5" d="M121 201q0 22 7.5 43.5t15.5 31.5l8 11q185 -215 329 -215q95 0 156 78t61 204q0 159 -133 278t-393 159l164 665l598 33l-35 -172l-512 -25l-86 -356q282 -54 430 -194t148 -328q0 -62 -17 -122t-53 -115.5t-87 -98t-125 -67.5t-161 -25q-83 0 -156 32.5t-110 73.5 q-49 52 -49 109z" />
<glyph unicode="6" d="M109 569q0 135 23.5 252.5t62 203.5t93.5 157.5t111 119t121 84.5q149 84 316 84q59 0 81.5 -17.5t22.5 -51.5l-2 -23q-174 12 -315 -67q-270 -148 -322 -547q111 96 258 96q74 0 143 -30.5t122.5 -84t85.5 -133.5t32 -172q0 -117 -50 -223t-145 -175t-212 -69 q-85 0 -161 37.5t-135.5 109t-94.5 187.5t-35 262zM289 549q0 -246 68.5 -366t189.5 -120q89 0 153 91.5t64 214.5q0 171 -89 279t-235 108q-69 0 -145 -39q-6 -83 -6 -168z" />
<glyph unicode="7" d="M121 1290l31 164h561q159 0 241 4q-3 -11 -6 -23t-9 -28t-10.5 -28.5t-14 -35t-15 -37t-19 -45.5t-21 -48.5t-25 -57.5t-27.5 -63l-488 -1106l-94 37q152 315 383 849l183 422q-35 -2 -168 -2h-150t-136.5 -0.5t-107.5 -1t-77 -0.5h-31z" />
<glyph unicode="8" d="M98 340q0 134 83.5 232.5t226.5 138.5q-91 56 -150.5 125.5t-83.5 134t-24 129.5q0 110 60 198t153.5 133.5t199.5 45.5q168 0 268.5 -95t100.5 -239q0 -108 -74.5 -206.5t-224.5 -150.5q94 -57 157.5 -109.5t96.5 -102t46 -92.5t13 -93q0 -81 -36.5 -156.5t-97 -131 t-143.5 -88.5t-173 -33q-170 0 -284 98.5t-114 261.5zM250 367q0 -133 76 -218.5t182 -85.5q123 0 191.5 77.5t68.5 187.5q0 89 -56 161.5t-200 157.5l-59 37q-101 -46 -152 -127.5t-51 -189.5zM315 1157q0 -87 50.5 -163t181.5 -154l41 -27q194 115 194 311q0 115 -65 192 t-170 77q-98 0 -165 -69.5t-67 -166.5z" />
<glyph unicode="9" d="M113 53l2 23q176 -12 317 67q266 149 318 545q-108 -94 -254 -94q-75 0 -144 30.5t-122 84t-85 134t-32 173.5q0 86 29.5 169.5t81 149t129 106t165.5 40.5q85 0 161 -37.5t135.5 -109t94.5 -187.5t35 -262q0 -135 -23.5 -252.5t-62 -203.5t-93.5 -157.5t-111.5 -119 t-121.5 -84.5q-149 -84 -313 -84q-59 0 -82.5 17.5t-23.5 51.5zM289 1085q0 -171 88.5 -278t236.5 -107q67 0 142 35q8 76 8 170q0 246 -68 366t-188 120q-90 0 -154.5 -91t-64.5 -215z" />
<glyph unicode=":" horiz-adv-x="436" d="M113 100q0 46 30.5 77.5t77.5 31.5q46 0 74.5 -34.5t28.5 -80.5t-32 -76t-79 -30q-45 0 -72.5 33t-27.5 79zM113 854q0 45 31 77t77 32q47 0 75 -34.5t28 -82.5q0 -45 -32 -76t-79 -31q-46 0 -73 33.5t-27 81.5z" />
<glyph unicode=";" horiz-adv-x="438" d="M2 -274q65 60 104 111.5t50.5 91.5t9.5 68.5t-16 57.5q-11 22 -26 40t-24 25l-10 7q15 39 46 62.5t67 23.5q43 0 79.5 -38t36.5 -103q0 -71 -56.5 -160t-180.5 -178zM109 850q0 50 32.5 82.5t77.5 32.5q46 0 76.5 -33t30.5 -80q0 -50 -33 -82.5t-78 -32.5t-75.5 32.5 t-30.5 80.5z" />
<glyph unicode="&#x3c;" horiz-adv-x="1095" d="M61 547v104l947 502l34 -90l-870 -463l870 -461l-34 -94z" />
<glyph unicode="=" horiz-adv-x="1095" d="M61 319v97h973v-97h-973zM61 733v96h973v-96h-973z" />
<glyph unicode="&#x3e;" horiz-adv-x="1095" d="M53 135l871 463l-871 461l35 94l946 -502v-104l-946 -502z" />
<glyph unicode="?" horiz-adv-x="796" d="M92 1337q0 57 79.5 93t182.5 36t180 -28t119.5 -76t63 -103t20.5 -116q0 -86 -51 -163t-141 -134l-99 -62q-129 -80 -129 -184q0 -83 54 -162l-68 17q-56 40 -90.5 98t-34.5 123q0 64 41 121.5t137 122.5l97 63q68 44 102.5 102t34.5 119q0 154 -184 154q-65 0 -129 -26 t-152 -83q-33 53 -33 88zM221 100q0 46 31 77.5t78 31.5q45 0 73.5 -34.5t28.5 -80.5t-31.5 -76t-78.5 -30t-74 32.5t-27 79.5z" />
<glyph unicode="@" horiz-adv-x="1994" d="M193 379q0 214 53.5 389.5t144 294t213.5 200t258.5 118t282.5 36.5q152 0 271.5 -39t194.5 -102.5t124 -152t68.5 -180.5t19.5 -195q0 -155 -53 -300.5t-132 -243.5t-170.5 -157t-169.5 -59q-29 0 -49.5 6.5t-40.5 27t-30.5 57t-15.5 99.5t-1 152l6 153l-18 -57 q-70 -215 -170 -332t-182 -117q-76 0 -127.5 100t-51.5 300q0 321 136.5 489t402.5 168q88 0 195 -22l-23 -277q-19 -228 -12 -420q4 -131 22.5 -173t55.5 -42q27 0 63 26t74 78.5t70 121t52.5 163.5t20.5 197q0 101 -19.5 191t-64.5 171t-112.5 139.5t-169.5 93t-230 34.5 q-124 0 -230 -28t-200.5 -93.5t-161 -165.5t-105 -250.5t-38.5 -341.5q0 -173 43.5 -315t129 -248.5t224 -165.5t318.5 -59q157 0 290.5 46.5t288.5 143.5q15 -15 15 -37q0 -34 -55 -81t-140 -88.5t-202 -71t-228 -29.5q-170 0 -308.5 42.5t-235.5 119t-163 183t-97 232.5 t-31 271zM778 453q0 -111 14.5 -190t33.5 -111.5t40 -32.5q45 0 114.5 102t113.5 219q62 167 80 355l8 116q-63 17 -142 17q-71 0 -123 -37.5t-81.5 -104.5t-43.5 -150t-14 -183z" />
<glyph unicode="A" horiz-adv-x="1320" d="M10 0v55l111 33q24 6 36 17.5t21 37.5l406 1200q25 77 53 105.5t106 54.5q8 -36 41 -153l363 -1207q8 -24 15 -33.5t24 -15.5l106 -39v-55h-487v55l123 33q18 4 23.5 20t0.5 35l-90 316h-461l-96 -318q-6 -24 4 -37t43 -22l107 -27v-55h-449zM436 575h393l-192 682 q-18 -86 -51 -192z" />
<glyph unicode="B" horiz-adv-x="1300" d="M131 0v55l74 17q52 11 68 30.5t20 57.5q6 75 12 219l27 696q4 98 4 219q0 37 -14.5 56t-63.5 30l-78 19v55q211 -4 277 -4q29 0 83.5 2t88.5 2q165 0 252 -43q77 -35 120 -110t43 -173q0 -136 -67 -227.5t-166 -130.5q144 -22 226.5 -114t82.5 -228q0 -87 -31 -164 t-89 -136t-147.5 -93.5t-199.5 -34.5q-48 0 -104.5 2t-112.5 2zM471 109l60 -13q70 -12 137 -12q165 0 235 125q35 61 35 156q0 82 -27 151q-32 79 -121 125.5t-233 46.5h-65zM494 782h108q145 0 197 66q59 76 59 223q0 82 -22 146q-26 73 -86.5 112t-169.5 39q-44 0 -64 -4 z" />
<glyph unicode="C" horiz-adv-x="1458" d="M139 709q0 223 58.5 366t173.5 250q160 150 440 150q67 0 133.5 -7t142.5 -19t119 -17q-2 -179 -20 -410h-78q-7 83 -23 168q-22 102 -90 143t-215 41q-198 0 -307 -121q-141 -156 -141 -489v-10q0 -304 117 -484q119 -182 339 -182q120 0 205 29q71 23 109 127 q19 49 69 213h78q-18 -210 -47 -383q-99 -45 -217 -69.5t-225 -24.5q-112 0 -220 35t-190 108q-105 94 -158 244.5t-53 341.5z" />
<glyph unicode="D" horiz-adv-x="1554" d="M133 0v55l74 17q52 11 68 30.5t20 57.5q6 75 12 219l27 696q4 98 4 217q0 39 -14.5 58.5t-63.5 29.5l-98 19v55q219 -4 319 -4q37 0 105.5 2t105.5 2q200 0 324 -39q192 -61 294.5 -223.5t102.5 -396.5q0 -256 -104 -445q-64 -114 -141.5 -188.5t-197.5 -118t-278 -43.5 q-39 0 -110 2t-111 2zM475 135q127 -26 254 -26q160 0 263.5 72.5t166.5 219.5q62 146 62 347q0 108 -25 210q-54 213 -184.5 303.5t-358.5 90.5q-83 0 -137 -13z" />
<glyph unicode="E" horiz-adv-x="1286" d="M131 0v55l74 17q52 11 68 30.5t20 57.5q6 75 12 219l27 696q2 49 2 217q0 38 -14.5 56.5t-63.5 29.5l-98 21v55h913q0 -193 -16 -354h-72q-10 119 -18 172q-5 31 -16.5 45.5t-58.5 26.5t-130.5 15t-241.5 3l-20 -567q246 0 305 10q24 3 32.5 9t14.5 26q17 62 31 127h67 l-14 -451h-68q-19 109 -24 131q-6 28 -14 39t-27 12q-101 9 -307 9l-19 -590q60 -21 223 -21q116 0 172.5 6.5t83 21.5t41.5 48q41 94 76 209h74q-9 -83 -23.5 -178t-24.5 -149l-10 -54h-956z" />
<glyph unicode="F" horiz-adv-x="1200" d="M131 0v55l74 17q52 11 68 30.5t20 57.5q6 75 12 219l27 696q2 49 2 217q0 38 -14.5 56.5t-63.5 29.5l-98 21v55h909q0 -193 -16 -354h-72q-10 119 -18 172q-4 25 -12 38t-30.5 25t-72.5 17t-126.5 7.5t-203.5 2.5l-20 -619q257 3 317 11q23 3 31.5 8.5t15.5 25.5l31 130 h67l-16 -453h-68q-20 115 -22 127q-6 30 -13 39t-30 12q-55 8 -317 8l-11 -272q-1 -30 -2.5 -78t-2.5 -83t-1 -56q0 -38 14.5 -58t59.5 -28l94 -21v-55h-512z" />
<glyph unicode="G" horiz-adv-x="1599" d="M139 692q0 227 59.5 373.5t168.5 249.5q171 160 483 160q75 0 149.5 -6t160.5 -16.5t134 -14.5q-8 -278 -20 -416h-78q-13 120 -22 168q-18 99 -103.5 141.5t-245.5 42.5q-232 0 -350 -129q-74 -80 -108.5 -203t-34.5 -315q0 -183 56.5 -325t173 -227t276.5 -85 q136 0 249 37l5 143q1 47 3.5 126t2.5 104q0 34 -17.5 49t-83.5 35l-57 16v64h504v-64l-60 -16q-66 -18 -84 -34t-20 -50q-2 -21 -6 -230l-2 -84q0 -73 2 -116q-224 -90 -479 -90q-269 0 -435 147q-104 95 -162.5 242t-58.5 323z" />
<glyph unicode="H" horiz-adv-x="1650" d="M131 0v55l74 17q52 11 68 30.5t20 57.5q6 75 12 219l27 696q2 49 2 219q0 37 -14.5 56t-63.5 30l-78 19v55h502v-55l-76 -17q-51 -11 -66.5 -30.5t-19.5 -57.5q-2 -26 -10 -219l-10 -276h655l10 276q2 49 2 219q0 37 -14.5 56t-63.5 30l-77 19v55h501v-55l-73 -17 q-52 -11 -68 -30.5t-20 -57.5q-4 -50 -11 -219l-26 -696q-4 -160 -4 -219q0 -38 14 -56.5t63 -29.5l78 -19v-55h-501v55l75 17q51 11 66.5 30.5t19.5 57.5q8 100 13 219l12 307h-657l-11 -307q-1 -30 -2.5 -78.5t-2.5 -84t-1 -56.5q0 -37 15.5 -56t64.5 -30l78 -19v-55h-502 z" />
<glyph unicode="I" horiz-adv-x="819" d="M131 0v55l74 17q52 11 68 30.5t20 57.5q6 75 12 219l27 696q4 82 4 144q0 42 -2 75q-2 38 -15.5 56.5t-62.5 29.5l-78 19v55h502v-55l-76 -17q-51 -11 -66.5 -30.5t-19.5 -57.5q-2 -26 -10 -219l-27 -696q-1 -30 -2.5 -78.5t-2.5 -84t-1 -56.5q0 -37 15.5 -56t64.5 -30 l78 -19v-55h-502z" />
<glyph unicode="J" horiz-adv-x="823" d="M104 -473q109 106 154 216t51 286l37 1046q4 98 4 219q0 39 -14.5 58t-63.5 30l-77 19v53h501v-53l-75 -17q-51 -12 -67 -32t-19 -58q-8 -92 -13 -219l-33 -915q-9 -274 -95 -437t-263 -262z" />
<glyph unicode="K" horiz-adv-x="1458" d="M131 0v53l74 17q52 12 68 32t20 58q6 69 12 219l27 696q4 98 4 219q0 39 -14.5 58t-63.5 30l-78 19v53h502v-53l-76 -17q-51 -12 -67.5 -32.5t-18.5 -57.5q-6 -69 -12 -219l-27 -696q-6 -147 -6 -219q0 -38 15.5 -57.5t64.5 -30.5l78 -19v-53h-502zM526 711l498 569 q27 30 27 52q0 32 -60 46l-94 23v53h489v-53l-47 -10q-30 -6 -58 -26t-83 -75l-500 -508q28 -23 72 -77l320 -408q108 -137 164 -189.5t120 -66.5l-28 -59h-24q-46 0 -82 3q-44 4 -85 17.5t-70 30.5t-64.5 52t-65 71t-76.5 98l-283 375q-47 61 -70 82z" />
<glyph unicode="L" horiz-adv-x="1204" d="M131 0v53l74 17q52 12 68 32t20 58q6 69 12 219l27 696q4 98 4 219q0 39 -14.5 58t-63.5 30l-78 19v53h502v-53l-76 -17q-51 -12 -67.5 -32.5t-18.5 -57.5q-6 -69 -12 -219l-37 -958q76 -21 229 -21q108 0 162 6t81 21.5t42 48.5q22 51 74 209h74q-10 -83 -24.5 -178 t-24.5 -149l-9 -54h-944z" />
<glyph unicode="M" horiz-adv-x="1964" d="M121 0v55l74 17q52 11 68 30.5t20 57.5q6 75 12 219l24 696q3 74 3 219q0 37 -14.5 56t-63.5 30l-78 19v55h375l420 -1147l497 1147h375v-55l-74 -17q-52 -11 -68 -30.5t-20 -57.5q-2 -26 -10 -219l-25 -696q-4 -160 -4 -219q0 -37 14.5 -56t63.5 -30l78 -19v-55h-502v55 l74 17q52 11 68 30.5t20 57.5q6 75 12 219l33 874l-557 -1253h-55l-447 1196l-28 -817q-5 -200 -5 -219q0 -37 14.5 -56t63.5 -30l78 -19v-55h-436z" />
<glyph unicode="N" horiz-adv-x="1683" d="M131 0l2 55l57 17q67 18 84 33.5t19 52.5q7 52 10 221l27 698q1 47 3.5 121t2.5 98q-1 28 -6.5 40t-26 22.5t-67.5 23.5l-56 17l2 55h316l737 -1083l25 706q6 147 6 199v20q0 38 -16 53t-83 33l-57 17l2 55h430v-55l-59 -17q-67 -18 -84 -33t-19 -53q-6 -69 -12 -219 l-39 -1077h-78l-809 1204l-28 -825q-2 -56 -3.5 -129.5t-2.5 -91.5q0 -37 16 -52.5t82 -33.5l57 -17l-2 -55h-430z" />
<glyph unicode="O" horiz-adv-x="1546" d="M139 682q0 248 81.5 430t242.5 279q145 88 342 88q165 0 291 -66q149 -80 225 -236t76 -358q0 -499 -281 -721q-161 -127 -385 -127q-134 0 -245.5 43.5t-182.5 126.5q-164 189 -164 541zM340 713q0 -337 133 -504q110 -137 279 -137h14q213 0 324 180q104 164 104 518 q0 291 -105 448.5t-319 157.5q-90 0 -168 -37q-144 -64 -203 -216t-59 -410z" />
<glyph unicode="P" horiz-adv-x="1206" d="M131 0v55l74 17q52 11 68 30.5t20 57.5q6 75 12 219l27 696q2 49 2 219q0 37 -14.5 56t-63.5 30l-78 19v55h346q188 0 295 -29q122 -35 190 -139q66 -102 66 -236v-8q-1 -105 -43 -199t-112 -158t-170 -91q-52 -14 -105 -14q-50 0 -102 12v67q20 -2 40 -2q37 0 76 7 q59 11 99 38q64 43 96.5 126t32.5 176q0 87 -19 143q-72 209 -290 209q-17 0 -40 -2t-24 -2l-33 -973q-1 -30 -2.5 -78.5t-2.5 -84t-1 -56.5q0 -37 15.5 -56t64.5 -30l78 -19v-55h-502z" />
<glyph unicode="Q" horiz-adv-x="1562" d="M139 682q0 248 82 431t242 278q145 88 342 88q165 0 291 -66q149 -80 225 -236t76 -358q0 -499 -281 -721q-100 -80 -215 -106q188 -152 359 -252q132 -77 237.5 -108t228.5 -31q88 0 205 10l-24 -72q-183 -49 -340 -49q-248 0 -477 148q-157 101 -447 339 q-222 26 -340 164q-164 189 -164 541zM340 713q0 -344 133 -504q110 -137 279 -137h14q213 0 324 180q104 164 104 518q0 291 -105 448.5t-319 157.5q-90 0 -168 -37q-145 -62 -203.5 -214.5t-58.5 -411.5z" />
<glyph unicode="R" horiz-adv-x="1437" d="M131 0v55l74 17q52 11 68 30.5t20 57.5q6 75 12 219l27 696q2 49 2 219q0 37 -14.5 56t-63.5 30l-78 19v55q186 -4 268 -4q34 0 92 2t91 2q130 0 211 -22q126 -34 194 -141q64 -100 64 -228v-19q-6 -137 -81.5 -247t-178.5 -152q38 -28 96 -106l178 -230 q117 -151 163.5 -196t115.5 -64l-33 -59h-20q-49 0 -86 4q-45 5 -85 19t-68.5 31.5t-62.5 52.5t-61 70t-70 95l-174 246q-4 6 -67 86h-175l-8 -215q-1 -30 -2.5 -78.5t-2.5 -84t-1 -56.5q0 -37 15.5 -56t64.5 -30l78 -19v-55h-502zM492 694h219q65 0 110.5 54.5t69.5 140.5 q16 59 16 119q0 78 -18 141q-30 99 -103 153t-188 54q-61 0 -82 -6z" />
<glyph unicode="S" horiz-adv-x="1069" d="M100 391l76 6q25 -123 53 -192q25 -61 86 -93t177 -32q114 0 178.5 70.5t64.5 199.5q0 153 -143 250l-180 121q-100 67 -154.5 155t-54.5 214q0 166 117 275.5t301 109.5q68 0 164 -9t130 -10q1 -68 1 -130q0 -124 -5 -222h-65q-29 119 -41 164q-12 42 -35 75 q-33 39 -164 39q-104 0 -167.5 -61t-63.5 -176q0 -80 35.5 -142t117.5 -118l181 -121q121 -83 170 -171t49 -190q0 -111 -52.5 -206.5t-159.5 -157.5t-249 -62q-108 0 -336 58q-23 172 -31 356z" />
<glyph unicode="T" horiz-adv-x="1159" d="M33 1079q4 232 14 389q88 -14 178 -14h721q95 0 180 14q0 -222 -14 -389h-65q-19 131 -39 211q-11 41 -53.5 58.5t-145.5 17.5h-137l-37 -987q-4 -160 -4 -219q0 -37 14.5 -56t63.5 -30l77 -19v-55h-501v55l73 17q52 11 68 30.5t20 57.5q8 99 13 219l37 987h-138 q-99 0 -140.5 -17.5t-61.5 -58.5q-11 -25 -58 -211h-65z" />
<glyph unicode="U" horiz-adv-x="1576" d="M129 1399v55h502v-55l-74 -17q-52 -11 -68 -30.5t-20 -57.5q-2 -26 -10 -219l-17 -442q-2 -41 -1 -77q0 -125 18 -200q65 -258 354 -258q206 0 287 156q57 111 67 324l19 497q2 49 2 219q0 37 -14.5 56t-63.5 30l-78 19v55h436v-55l-75 -17q-51 -11 -66.5 -30.5 t-19.5 -57.5q-4 -50 -11 -219l-20 -520q-10 -203 -76 -336q-123 -248 -459 -248q-158 0 -265.5 65.5t-160.5 182.5q-35 77 -44 165q-6 61 -6 139q0 34 1 71l17 481q2 49 2 219q0 37 -14.5 56t-63.5 30z" />
<glyph unicode="V" horiz-adv-x="1366" d="M47 1399v55h481v-55l-57 -15q-66 -17 -85.5 -30.5t-14.5 -38.5q18 -87 61 -223l252 -838q247 678 354 1046q12 36 0.5 52t-63.5 28l-78 19v55h422v-55l-72 -17q-29 -6 -45.5 -24.5t-30.5 -57.5q-208 -583 -448 -1200q-24 -58 -55.5 -90.5t-96.5 -54.5q-10 84 -51 223 l-268 903q-56 181 -78 234q-11 32 -26.5 46.5t-55.5 24.5z" />
<glyph unicode="W" horiz-adv-x="2078" d="M47 1399v55h483v-55l-57 -15q-67 -17 -86 -30.5t-14 -38.5q18 -87 61 -223l252 -861q145 393 285 832l-41 135q-26 83 -39 117q-11 32 -27.5 46.5t-56.5 24.5l-45 13v55h475v-55l-59 -15q-66 -17 -85.5 -30.5t-13.5 -38.5q24 -115 60 -223l252 -856q199 554 360 1064 q11 38 -0.5 53t-62.5 27l-78 19v55h420v-55l-72 -17q-28 -6 -45 -25t-31 -57q-204 -566 -428 -1159q-19 -50 -29 -71.5t-28.5 -48.5t-42 -40.5t-60.5 -23.5q-10 66 -49 193l-221 737q-135 -373 -283 -748q-36 -93 -53 -116q-29 -40 -103 -64l-12 -4q-10 86 -43 195l-278 931 q-56 181 -78 234q-11 32 -26.5 46.5t-55.5 24.5z" />
<glyph unicode="X" horiz-adv-x="1306" d="M76 0v55l41 11q28 8 48 25t48 56q10 15 151 228.5t220 335.5l-353 598q-26 43 -43 58t-49 24l-37 8v55h502v-55l-57 -13q-11 -3 -17.5 -4.5t-17 -4.5t-16.5 -5.5t-14.5 -7t-13.5 -9t-10 -11t-6.5 -13.5t-1.5 -16t3 -19q20 -61 106 -206l148 -246q141 242 254 452 q10 20 10 35q1 17 -11 27q-22 20 -88 31l-55 10v55h426v-55l-39 -10q-28 -7 -49.5 -26.5t-44.5 -55.5q-48 -75 -358 -541l364 -621q26 -43 43 -58t49 -24l37 -8v-55h-500v55l58 13q13 3 22.5 5.5t22.5 7t21.5 9.5t17 12t12 14.5t3.5 18.5t-5 23q-36 82 -109 207l-157 266 q-162 -275 -266 -473q-10 -22 -10 -37q-1 -15 9 -25q20 -19 85 -30l55 -11v-55h-428z" />
<glyph unicode="Y" horiz-adv-x="1259" d="M39 1399v55h493v-55l-57 -13q-14 -3 -22 -5.5t-21 -6.5t-19 -8.5t-15.5 -11.5t-10.5 -14.5t-4 -19t4 -24.5q3 -10 7 -21.5t11 -26t12.5 -26t15.5 -30.5t16 -30.5t19 -35.5t19 -36l164 -308q151 256 283 514q10 20 10 35q0 16 -10 25q-22 20 -88 33l-55 10v55h419v-55 l-41 -10q-44 -10 -90 -82q-211 -329 -395 -627l-10 -301q-4 -160 -4 -219q0 -37 14.5 -56t63.5 -30l77 -19v-55h-499v55l73 17q52 11 68 30.5t20 57.5q8 99 13 219l8 287l-209 399q-103 192 -133 244q-27 44 -42.5 58.5t-47.5 23.5z" />
<glyph unicode="Z" horiz-adv-x="1255" d="M94 0q8 49 86 176l705 1184q-302 -1 -410 -7.5t-135 -21.5q-38 -20 -59 -119l-35 -174h-70q-7 106 -7 222q0 97 5 200q74 -6 123 -6h823q-7 -42 -76 -158l-714 -1194q448 2 535 11q53 6 75 16q27 12 61 76q26 49 80 217h78q-36 -248 -82 -422h-983z" />
<glyph unicode="[" horiz-adv-x="583" d="M162 -530l71 2119h277l-4 -86h-172l-64 -1949h170l-2 -84h-276z" />
<glyph unicode="\" horiz-adv-x="847" d="M10 1499l82 37l729 -1573l-82 -37z" />
<glyph unicode="]" horiz-adv-x="583" d="M74 -530l4 84h172l65 1949h-172l4 86h275l-72 -2119h-276z" />
<glyph unicode="^" horiz-adv-x="985" d="M78 516l364 784h103l360 -784h-119l-297 666l-296 -666h-115z" />
<glyph unicode="_" horiz-adv-x="1024" d="M0 -78h1024v-110h-1024v110z" />
<glyph unicode="`" horiz-adv-x="659" d="M106 1546q3 15 9.5 31t12.5 25l5 8l424 -377l-6 -66q-201 102 -320 174q-84 49 -109.5 98t-15.5 107z" />
<glyph unicode="a" horiz-adv-x="1026" d="M109 385q0 321 138 486t406 165q86 0 199 -20l-29 -279q-22 -236 -22 -422q0 -131 12 -168q18 -55 80 -65q19 -3 44.5 -3t57.5 3l-4 -37q-139 -57 -227 -57q-21 0 -36.5 4.5t-33 17t-27 36t-19.5 61.5q-9 36 -9 88q1 3 1 5q0 56 3 132l10 121l-10 -27q-73 -216 -175 -328 t-183 -112q-28 0 -57 22t-56.5 66.5t-45 125.5t-17.5 185zM268 461q0 -85 8 -151.5t21.5 -105t29 -58t31.5 -19.5q45 0 117 100t113 213q57 157 80 357l14 118q-66 17 -147 17q-94 0 -155.5 -65.5t-86.5 -167.5t-25 -238z" />
<glyph unicode="b" horiz-adv-x="1009" d="M74 1489v37q160 51 303 51h10l-45 -875q-4 -124 -12 -170l20 62q40 118 90.5 208.5t99.5 140.5t92 74.5t79 24.5q77 0 139.5 -107t62.5 -319q0 -105 -18 -196t-59 -171.5t-102.5 -138t-154 -91t-208.5 -33.5q-111 0 -228 20q19 84 25 223l49 1012q4 114 4 150t-13 51 t-50 24zM311 102q77 -18 158 -18q101 0 166 62t91 160t26 233q0 75 -7.5 137.5t-19 102.5t-26.5 68t-29 40t-27 12q-46 0 -116 -91.5t-126 -238.5q-38 -100 -53 -167t-24 -171l-5 -49q-3 -52 -8 -80z" />
<glyph unicode="c" horiz-adv-x="802" d="M98 416q0 156 46 301.5t147 224.5q124 100 291 100q70 0 106.5 -25t36.5 -71q0 -36 -27 -78q-130 47 -213 47q-56 0 -93 -16.5t-62 -58.5q-32 -58 -49 -159.5t-17 -188.5q0 -201 55.5 -293.5t149.5 -92.5q45 0 93.5 14t131.5 48l-4 -51q-84 -68 -154 -101.5t-143 -33.5 q-135 0 -215 115.5t-80 318.5z" />
<glyph unicode="d" horiz-adv-x="1013" d="M96 385q0 321 137.5 486t405.5 165h31l16 246q4 82 4 109q0 36 -13.5 51t-51.5 24l-84 23v37q158 51 303 51h12l-47 -840q-17 -269 -17 -384q0 -23 1 -40q6 -126 12 -153q13 -58 63 -73q25 -8 65 -8q23 0 52 3l-6 -35q-133 -59 -223 -59q-25 0 -42.5 6.5t-36.5 27t-27 58 t-13 99.5q-2 22 -2 48q0 47 6 105l8 143l-16 -51q-71 -213 -173 -325.5t-184 -112.5q-29 0 -59 22t-58 66.5t-45.5 125.5t-17.5 185zM256 465q0 -86 8.5 -153.5t22.5 -106.5t29.5 -58.5t31.5 -19.5q46 0 117.5 99t112.5 212q60 160 75 353l11 124q-73 15 -140 15 q-92 0 -153.5 -62t-88 -163.5t-26.5 -239.5z" />
<glyph unicode="e" horiz-adv-x="856" d="M109 436q0 168 41 295t149 215q119 98 270 98q112 0 167 -53t55 -129q0 -122 -101.5 -210t-318.5 -117l-103 -15q1 -118 17 -200t46.5 -127.5t68.5 -64.5t89 -19q87 0 252 73l-4 -51q-72 -65 -161.5 -107t-161.5 -42q-305 0 -305 454zM270 590l88 14q132 25 201.5 80.5 t69.5 134.5q0 60 -30 95.5t-93 35.5q-218 0 -236 -360z" />
<glyph unicode="f" horiz-adv-x="587" d="M-256 -412q0 26 10 56q3 0 35 -6.5t68.5 -10.5t79.5 -4q123 0 178.5 114t64.5 369l25 799h-164l6 74l162 20q7 132 39 236.5t77.5 169.5t103.5 108.5t114.5 60.5t113.5 17q134 0 134 -90q0 -25 -21 -76q-125 35 -197 35q-92 0 -142 -50.5t-54 -174.5l-10 -236h227v-96 h-232l-24 -655q-5 -145 -39.5 -282t-92.5 -247.5t-146 -177.5t-191 -67q-59 0 -92 31t-33 83z" />
<glyph unicode="g" horiz-adv-x="946" d="M-29 -309q0 87 79.5 164t234.5 106q-88 53 -88 145q0 47 33 90t87 66q-93 39 -146.5 135.5t-53.5 239.5q0 179 105.5 293t258.5 114q107 0 185 -47h262v-94h-189q74 -114 74 -256q0 -108 -47 -201.5t-132.5 -150.5t-189.5 -57q-36 0 -71 6q-33 -33 -33 -74q0 -22 8 -39 t30.5 -36t71 -34.5t121.5 -25.5l60 -8q84 -12 141 -35t83.5 -52.5t36 -56t9.5 -57.5q0 -48 -25 -99.5t-74.5 -100.5t-116.5 -88.5t-159 -63t-194 -23.5q-171 0 -266 71t-95 169zM125 -279q0 -81 75.5 -129.5t192.5 -48.5q93 0 166 22t113.5 56t61 70t20.5 69q0 48 -45 81 t-172 50l-58 11q-88 13 -139 32q-104 -33 -159.5 -90t-55.5 -123zM272 625q0 -134 50 -220.5t129 -87.5h3q81 0 140 97q59 98 59 245q0 137 -50.5 222.5t-135.5 85.5q-77 0 -136 -92t-59 -250z" />
<glyph unicode="h" d="M74 1481v39q166 57 303 57h10l-43 -813q-13 -248 -22 -285q43 117 102 236q83 169 169.5 247t158.5 78q62 0 97 -84q24 -58 24 -161q0 -47 -5 -103l-39 -432q-8 -56 -8 -94q0 -14 1 -24q4 -42 40 -54q20 -6 61 -6q32 0 76 4l-4 -35q-148 -67 -233 -67q-68 0 -89 50 q-13 32 -13 100q0 39 4 89l41 422q6 60 6 105q-1 26 -3 48q-6 56 -15.5 78.5t-24.5 22.5q-32 0 -86 -58t-115 -173q-129 -248 -148 -394l-4 -28q-8 -61 -12.5 -119t-4.5 -85l-1 -28l-160 -28l31 346q11 126 22 428l27 493q4 74 4 131q0 36 -12.5 51.5t-50.5 24.5z" />
<glyph unicode="i" horiz-adv-x="546" d="M61 942l5 37q133 57 208 57q21 0 36.5 -4.5t32 -18t23.5 -39.5q6 -26 12 -68q2 -19 3 -40q0 -28 -4 -63l-49 -543q-6 -53 -6 -90q0 -16 1 -28q4 -42 40 -54q20 -6 61 -6q32 0 76 4l-6 -35q-144 -67 -232 -67q-68 0 -88 50q-13 32 -12 99q0 39 4 90l45 518q8 75 8 124 q-1 3 -1 5q0 50 -35 68q-20 10 -57 10q-28 0 -65 -6zM195 1405q0 49 31.5 81t74.5 32q50 0 78.5 -33.5t28.5 -79.5q0 -54 -32 -84.5t-75 -30.5q-50 0 -78 34t-28 81z" />
<glyph unicode="j" horiz-adv-x="520" d="M-88 -469q85 97 138 177t79 155.5t35.5 134t13.5 147.5l33 596q3 53 3 93v36q-3 50 -38 68q-21 10 -58 10q-28 0 -65 -6l6 37q131 57 207 57q30 0 49.5 -7.5t36 -31t22.5 -71.5q3 -28 3 -65q0 -26 -2 -58l-33 -608q-24 -476 -410 -709zM180 1405q0 49 32 81t75 32 q50 0 78 -33.5t28 -79.5q0 -54 -31 -84.5t-75 -30.5q-49 0 -78 34t-29 81z" />
<glyph unicode="k" horiz-adv-x="954" d="M74 1489v37q160 51 303 51h10l-74 -1294l-12 -269l-164 -28q25 280 39 542l41 713q6 111 6 148q0 35 -14 51.5t-51 25.5zM340 526q24 76 78 189q74 151 170.5 239t189.5 88q80 0 112 -51q15 -24 14 -53q0 -33 -19 -72q-89 27 -160 27q-139 0 -256 -215q-18 -32 -23 -43 l193 -320q67 -110 108.5 -160t81.5 -69t107 -23l-6 -34q-124 -47 -189 -47q-57 0 -105.5 47t-131.5 198z" />
<glyph unicode="l" horiz-adv-x="544" d="M66 1489v37q160 51 303 51h10l-66 -1278q-1 -34 -2 -62.5t2.5 -51t8.5 -39.5t16.5 -29t26.5 -20t38.5 -11.5t52.5 -3.5t68 4l-6 -37q-152 -65 -231 -65q-73 0 -107 60q-28 50 -27 161q0 23 1 49l55 987q4 114 4 150q0 37 -12.5 51.5t-50.5 23.5z" />
<glyph unicode="m" horiz-adv-x="1593" d="M61 942l5 37q133 57 208 57q29 0 47.5 -9t34.5 -36t20 -82q2 -26 2 -59q0 -37 -3 -82l-8 -154q-2 -55 -15 -135q32 98 101 236q84 169 170 247t157 78q28 0 50.5 -18t40.5 -58q18 -42 23 -108q2 -30 3 -66q0 -44 -4 -98l-6 -88l-8 -72q15 41 86 183q84 169 170 247 t157 78q62 0 98 -84q24 -58 24 -161q0 -47 -5 -103l-39 -432q-8 -56 -8 -94q0 -14 1 -24q5 -42 41 -54q20 -6 60 -6q32 0 76 4l-4 -35q-148 -67 -233 -67q-68 0 -89 50q-13 31 -13 96q0 40 5 93l39 422q6 68 6 117q0 137 -43 137q-31 0 -85 -58t-115 -173 q-131 -253 -150 -394l-4 -28q-8 -61 -12.5 -119t-5.5 -85v-28l-160 -28l57 659q7 65 7 111q0 22 -2 42q-5 56 -15.5 78.5t-26.5 22.5q-31 0 -84 -57.5t-114 -173.5q-130 -243 -150 -394l-4 -28q-8 -61 -12.5 -119t-5.5 -85v-28l-160 -28l31 346q22 261 22 409v48 q1 28 0.5 50.5t-2.5 40.5t-8.5 31t-17 21.5t-28 12.5t-42.5 3t-60 -6z" />
<glyph unicode="n" horiz-adv-x="1083" d="M61 942l5 37q133 57 208 57q29 0 47.5 -9t34.5 -36t20 -82q2 -26 2 -59q0 -37 -3 -82l-8 -154q-2 -55 -15 -135q32 98 101 236q85 169 171 247t158 78q60 0 96 -84q24 -58 24 -161q0 -47 -5 -103l-39 -432q-8 -56 -8 -94q0 -14 1 -24q5 -42 41 -54q20 -6 60 -6q32 0 76 4 l-4 -35q-144 -67 -233 -67q-69 0 -89 50q-13 32 -12 98q0 39 4 91l39 422q7 65 7 111q0 22 -2 42q-5 56 -15.5 78.5t-26.5 22.5q-31 0 -84 -57.5t-114 -173.5q-130 -243 -150 -394l-4 -28q-8 -61 -12.5 -119t-5.5 -85v-28l-160 -28l31 346q22 261 22 409v48q1 28 0.5 50.5 t-2.5 40.5t-8.5 31t-17 21.5t-28 12.5t-42.5 3t-60 -6z" />
<glyph unicode="o" horiz-adv-x="978" d="M109 414q0 292 126 462.5t330 170.5q144 0 224.5 -122.5t80.5 -312.5q0 -295 -126 -463.5t-332 -168.5q-144 0 -223.5 121.5t-79.5 312.5zM272 481q0 -395 224 -395q104 0 155 111t51 348q0 395 -221 395q-104 0 -156.5 -111.5t-52.5 -347.5z" />
<glyph unicode="p" horiz-adv-x="1034" d="M8 -512l4 47l86 27q36 11 45 20t13 43q8 74 18 271l25 436q12 264 12 409v48q1 28 0.5 50.5t-2.5 40.5t-8.5 31t-17 21.5t-28 12.5t-42.5 3t-60 -6l6 37q133 57 207 57q40 0 62 -16.5t34 -77.5q9 -41 9 -106q0 -31 -2 -68l-7 -123q-1 -21 -2.5 -48.5t-2.5 -45.5t-1 -19 l21 62q40 118 90 208.5t98.5 140.5t91.5 74.5t80 24.5q34 0 68 -24t65 -72t50.5 -134t19.5 -196q0 -104 -18 -195.5t-59.5 -172t-103 -138t-153.5 -91t-207 -33.5q-47 0 -65 2l-6 -94q-9 -151 -13 -269q0 -33 7 -42.5t40 -18.5l103 -29l-4 -47h-453zM340 100q69 -16 156 -16 q75 0 131 34.5t88 97.5t47.5 143.5t15.5 179.5q0 75 -7.5 137.5t-19 102.5t-26.5 68t-29 40t-26 12q-47 0 -117.5 -91.5t-124.5 -238.5q-40 -107 -56 -173.5t-22 -164.5z" />
<glyph unicode="q" horiz-adv-x="970" d="M96 385q0 319 137.5 485t395.5 166q94 0 192 -26l-41 -1116q-6 -159 -6 -269q0 -33 7 -42.5t40 -20.5l82 -27l-4 -47h-436l4 47l86 27q36 11 44.5 19.5t12.5 43.5q10 89 17 269l16 399l12 199l-22 -68q-37 -110 -85.5 -197t-96.5 -138t-92.5 -77t-82.5 -26q-29 0 -59 22 t-58 66.5t-45.5 125.5t-17.5 185zM256 465q0 -86 8.5 -153.5t22.5 -106.5t29.5 -58.5t31.5 -19.5q46 0 117.5 99t112.5 212q60 160 75 353l11 124q-73 15 -140 15q-92 0 -153.5 -62t-88 -163.5t-26.5 -239.5z" />
<glyph unicode="r" horiz-adv-x="790" d="M57 942l4 37q133 57 209 57q29 0 47.5 -9t34.5 -36t20 -82q2 -26 2 -59q0 -37 -3 -82l-6 -123q-3 -52 -15 -108q65 161 74 182q80 183 138.5 251t129.5 68q45 0 68.5 -25.5t23.5 -64.5q0 -51 -41 -102q-50 16 -81 16q-51 0 -89 -35.5t-102 -150.5q-98 -175 -127 -402 l-4 -28q-8 -61 -12.5 -119t-5.5 -85v-28l-160 -28l31 346q22 261 22 409v48q1 28 0.5 50.5t-2.5 40.5t-8.5 31t-17 21.5t-28 12.5t-42.5 3t-60 -6z" />
<glyph unicode="s" horiz-adv-x="716" d="M33 154q152 -50 266 -50q48 0 81 12.5t48 33t21 39.5t6 40q0 42 -26.5 83.5t-98.5 109.5l-103 94q-112 98 -112 223q0 87 59.5 159t144 109t168.5 37q60 0 97.5 -14.5t51.5 -40.5q13 -25 13 -53q0 -30 -14 -66q-102 26 -148.5 35.5t-95.5 9.5q-71 0 -107 -29.5t-36 -76.5 q0 -25 6.5 -45t26 -44.5t39 -43.5t61.5 -58l102 -94q71 -66 105.5 -119t34.5 -112q0 -121 -115 -216t-291 -95q-129 0 -171 40q-25 24 -24 66q0 29 11 66z" />
<glyph unicode="t" horiz-adv-x="653" d="M57 907l6 72l144 20l80 224l96 12l-14 -236h258v-96h-262l-29 -577q-1 -30 -1 -56q1 -46 5 -76q8 -46 38 -68q26 -18 64 -18q8 0 16 1q50 4 138 28l-8 -47q-155 -104 -258 -104q-38 0 -66.5 12.5t-52 43.5t-33.5 90q-7 42 -7 98q0 22 1 46l31 631h-146z" />
<glyph unicode="u" horiz-adv-x="1083" d="M53 934l6 35q144 67 232 67q68 0 89 -50q13 -32 13 -100q0 -39 -4 -89l-39 -422q-7 -65 -7 -112q0 -23 2 -43q5 -56 15 -77.5t25 -21.5q33 0 86.5 57.5t114.5 173.5q130 243 147 393l4 29q8 61 13 119t6 85v28l162 28l-31 -346q-23 -273 -23 -409v-48q-1 -32 -0.5 -58 t4.5 -45t13.5 -31.5t27.5 -19t45.5 -6t67.5 6.5l-6 -37q-133 -57 -207 -57q-30 0 -48.5 9t-33.5 36t-19 82q-2 29 -3 67q0 34 2 74l10 154q3 64 14 135q-41 -114 -100 -236q-84 -169 -171 -247t-159 -78q-61 0 -97 84q-24 58 -25 161q0 47 5 103l39 432q8 56 8 94 q0 14 -1 24q-4 42 -40 54q-20 6 -61 6q-32 0 -76 -4z" />
<glyph unicode="v" horiz-adv-x="954" d="M10 948l2 37q130 59 195 59q32 0 56 -13.5t44.5 -48t30.5 -102.5q8 -56 8 -135v-32l-2 -217q-1 -35 -1 -66q-1 -78 5 -136q8 -80 24.5 -117.5t34 -50.5t42.5 -13q51 0 112.5 78t104.5 198t43 229q0 106 -29 218.5t-74 187.5q41 20 80 20q78 0 127 -81.5t49 -233.5 q0 -140 -78.5 -316t-200 -303.5t-229.5 -127.5q-36 0 -64.5 17t-55.5 61q-26 46 -40 138q-12 81 -12 194v34v133q1 59 1 100t-1 83t-5 69t-9.5 53.5t-15.5 41t-22.5 27t-30 16.5t-39.5 4t-50 -5z" />
<glyph unicode="w" horiz-adv-x="1464" d="M10 948l2 37q130 59 195 59q32 0 56 -13.5t44.5 -48t30.5 -102.5q8 -56 8 -135v-32l-2 -217q-1 -35 -1 -66q-1 -78 5 -136q8 -80 24.5 -117.5t34 -50.5t42.5 -13q36 0 80.5 49t82 124t63 174.5t25.5 190.5q0 38 -0.5 65.5t-2.5 56.5t-5 49.5t-8 41t-12 34t-17 25.5 t-23 18t-29.5 10t-36.5 3.5t-44 -4.5l2 35q130 59 193 59q33 0 57 -13.5t45 -48t31 -102.5q8 -56 9 -135q0 -16 -1 -32l-4 -217v-32q0 -78 4 -138q5 -72 14 -112t24 -63.5t29 -30.5t33 -7q52 0 113.5 78t104.5 198t43 229q0 107 -28.5 219.5t-74.5 186.5q41 20 80 20 q79 0 127.5 -81.5t48.5 -233.5q0 -83 -30.5 -186t-83 -200t-116.5 -179t-138 -132t-140 -50q-30 0 -56.5 15.5t-51 52t-39 108.5t-15.5 172q-72 -176 -163 -262t-185 -86q-36 0 -64.5 17t-55.5 61q-26 46 -40 138q-12 81 -12 194v34l2 133q1 36 1 68q-1 15 -1 31q0 46 -1 84 t-5.5 68.5t-10 54t-15.5 40.5t-22.5 28t-30 16t-39.5 4.5t-50 -5.5z" />
<glyph unicode="x" horiz-adv-x="903" d="M18 27q-9 23 -8 49q0 29 10 63q31 -4 58 -4q39 0 69 8q34 8 69 47t58.5 79.5t77.5 143.5q21 40 33 62l-98 318q-36 111 -79 141q-27 19 -77 19q-30 0 -68 -7l7 37q111 64 188 64q55 0 95.5 -38t72.5 -137l70 -221q102 215 130 262q61 104 123 128q26 10 56 10 q54 0 74 -48q9 -21 9 -46q0 -31 -14 -68q-30 3 -55 3q-43 0 -74 -9q-13 -3 -24.5 -9t-23.5 -17t-21.5 -21t-23 -29.5t-22.5 -33.5t-24.5 -41.5t-25.5 -46t-29 -53.5t-31 -57l109 -337q35 -112 77 -144q27 -20 78 -20q29 0 66 6l-6 -37q-110 -63 -191 -63q-52 0 -94 39.5 t-74 138.5l-77 243q-14 -29 -39 -83q-29 -63 -43 -92t-37 -74t-37 -64t-35 -45.5t-39 -36.5t-41 -18t-49 -8q-52 0 -70 47z" />
<glyph unicode="y" horiz-adv-x="960" d="M-113 -369q55 -6 103 -6q100 0 172 26q106 39 172 128q30 41 38 107q4 26 4 60q0 53 -8 126q-14 118 -53 299q-52 238 -100 353q-91 221 -217 224q-22 0 -76 -4l6 37q114 63 187 63q45 0 81 -14t76 -54.5t73.5 -109.5t67.5 -183.5t64 -270.5q26 -136 31 -264q2 -35 2 -65 q0 -74 -10 -106q87 123 152 313.5t65 330.5q0 109 -28 222t-73 187q41 19 79 19q57 0 105 -44q79 -73 79 -231q0 -104 -39 -243.5t-103.5 -282.5t-153 -283t-183 -248.5t-199 -175.5t-195.5 -67q-75 0 -102 44q-20 31 -20 75q0 18 3 38z" />
<glyph unicode="z" horiz-adv-x="784" d="M31 -2q0 38 14.5 75.5t52.5 100.5l441 776q-137 -1 -227.5 -23.5t-217.5 -84.5q-27 48 -27 91q-1 41 33 69q34 30 95 30q86 0 207.5 -6t175.5 -6q44 0 80.5 2t50.5 4l14 2q2 -10 2 -21q0 -21 -7 -43q-10 -32 -42 -85l-461 -807l129 2q107 2 194 17.5t187 58.5 q11 -27 11 -56v-7q-2 -33 -13 -60.5t-42.5 -45.5t-78.5 -18q-84 0 -180 14q-98 14 -164 22q-31 4 -83 4q-59 0 -144 -5z" />
<glyph unicode="{" horiz-adv-x="542" d="M-14 500l10 35q102 7 147 73.5t50 192.5l12 385q8 218 82.5 311t240.5 80l15 -39q-53 -7 -89 -22.5t-57.5 -37t-33.5 -60t-16.5 -77.5t-6.5 -104l-14 -385q-3 -59 -9 -95.5t-24.5 -77.5t-55.5 -73t-96 -63q47 -18 79.5 -44t49.5 -55.5t26 -65t9 -73.5v-80l-10 -331 q-3 -76 0 -136t14 -105t33.5 -75.5t60 -47.5t93.5 -22l-19 -38q-84 -10 -143 2.5t-94 41t-54 80.5t-24 108t-2 136l12 346q1 54 -1 88t-12 71.5t-30 63t-55.5 49.5t-87.5 44z" />
<glyph unicode="|" horiz-adv-x="342" d="M121 -512v2089h98v-2089h-98z" />
<glyph unicode="}" horiz-adv-x="542" d="M0 -506q66 9 106 29.5t61 60.5t27.5 86t8.5 125l14 387q3 60 9 96.5t24 77.5t55 74t96 64q-47 18 -79.5 43.5t-49 54.5t-25.5 64.5t-9 73.5v81l10 328q3 77 0 137t-14 104.5t-33.5 75t-60 47t-93.5 21.5l19 39q84 10 143.5 -2.5t94.5 -41t53.5 -81t23.5 -108.5t2 -136 l-10 -344q-2 -47 -0.5 -86.5t12 -73t30 -61t55 -51.5t87.5 -43l-8 -35q-103 -7 -148.5 -73t-48.5 -191l-14 -388q-8 -220 -82.5 -313t-241.5 -80z" />
<glyph unicode="~" horiz-adv-x="952" d="M59 502q4 132 72.5 203t167.5 71q75 0 176 -59l70 -41q31 -19 48 -28t42 -17t47 -8q105 0 160 116l51 15q-4 -132 -72.5 -203.5t-167.5 -71.5q-73 0 -176 60l-69 41q-31 18 -48.5 27.5t-42.5 17.5t-47 8q-104 0 -159 -117z" />
<glyph unicode="&#xa1;" horiz-adv-x="495" d="M100 -279q0 24 2.5 55t8.5 77.5l10 77.5t14.5 99t14.5 97q26 182 77 487l70 7q3 -222 7.5 -435t7.5 -332t3 -143q0 -141 -106 -141q-109 0 -109 151zM164 950q0 46 31.5 76.5t78.5 30.5q46 0 73.5 -33.5t27.5 -79.5t-31 -77t-78 -31t-74.5 33.5t-27.5 80.5z" />
<glyph unicode="&#xa2;" d="M178 537q0 103 18 197.5t70 191t133 151.5q96 65 195 88l10 168l84 -4l-8 -151h27q96 0 144 -30t48 -79q0 -38 -22 -78q-127 50 -205 58l-45 -822q85 5 241 64l-6 -55q-144 -102 -241 -127l-9 -179l-82 4l9 160h-23q-156 0 -247 117.5t-91 325.5zM350 616 q0 -341 195 -383l43 818q-109 -6 -156 -78q-38 -60 -60 -165t-22 -192z" />
<glyph unicode="&#xa3;" d="M53 -10l10 102q77 37 122 79.5t63 93.5t22.5 115t-0.5 144l-6 125h-180v84h178q-5 142 18.5 263.5t67.5 208t104.5 148t129.5 91t141 29.5q138 0 199 -72q26 -30 26 -66q0 -51 -47 -104q-78 63 -138 90t-120 27q-55 0 -94 -25t-61.5 -72.5t-34.5 -117t-14 -158t1 -195.5 v-47h355v-84h-351l2 -71q1 -54 0.5 -102.5t-11 -95t-30 -87.5t-57 -80.5t-92.5 -73.5q82 1 222 -9.5t202 -10.5q37 0 57.5 1.5t48 11t43 28t29.5 53.5t21 86h49q27 -73 24 -149q-3 -92 -47.5 -135.5t-132.5 -43.5q-72 0 -244.5 17.5t-267.5 17.5q-102 0 -207 -16z" />
<glyph unicode="&#xa4;" horiz-adv-x="1040" d="M35 340l168 164q-86 106 -86 246q0 137 86 243l-168 168l67 68l168 -168q109 88 246 88t246 -88l166 168l69 -68l-168 -168q84 -108 84 -243q0 -138 -84 -246l168 -164l-69 -70l-166 166q-108 -84 -246 -84t-246 84l-168 -166zM213 750q0 -125 88.5 -213t214.5 -88 q124 0 212.5 88.5t88.5 212.5q0 126 -88 214.5t-213 88.5q-126 0 -214.5 -88.5t-88.5 -214.5z" />
<glyph unicode="&#xa5;" d="M14 1403v51h447v-51l-60 -17q-49 -12 -64 -32t-3 -58q23 -68 86 -204l137 -295q156 320 234 499q31 74 -64 93l-59 12v53h372v-51l-45 -14q-16 -4 -29.5 -22t-37.5 -60q-152 -275 -314 -578h322v-84h-346l-6 -182h352v-84h-354q-4 -160 -4 -219q0 -38 14 -56.5t63 -29.5 l78 -19v-55h-500v55l74 17q52 11 68 30.5t20 57.5q8 99 13 219h-306v84h308l4 182h-312v84h287l-153 338q-23 54 -48 107t-43 91t-22 46q-22 43 -35 58.5t-33 21.5z" />
<glyph unicode="&#xa6;" horiz-adv-x="342" d="M121 387h98v-899h-98v899zM121 678v899h98v-899h-98z" />
<glyph unicode="&#xa7;" horiz-adv-x="1060" d="M113 913q0 108 51.5 212t133 178t183.5 119.5t201 45.5q109 0 170 -29t61 -85q0 -45 -30 -78q-158 70 -240 70q-94 0 -140 -60t-46 -156q0 -115 118 -274l148 -197q134 -181 179.5 -300.5t45.5 -225.5q0 -109 -51.5 -213t-133 -178t-183.5 -119t-201 -45q-110 0 -171 29 t-61 86q0 42 31 76q153 -68 240 -68q95 0 140.5 58.5t45.5 154.5q0 116 -119 274l-145 199q-135 180 -181 299.5t-46 226.5zM242 979q0 -106 43.5 -219t152.5 -264l172 -236q72 -98 93.5 -164t21.5 -133q0 -62 -33 -126.5t-98 -112.5q78 24 130.5 81t73.5 123t21 140 q0 107 -43 219.5t-153 261.5l-172 237q-72 97 -93.5 162.5t-21.5 132.5q0 63 33 127.5t100 114.5q-116 -36 -171.5 -132t-55.5 -212z" />
<glyph unicode="&#xa8;" horiz-adv-x="806" d="M102 1350q0 45 28.5 74.5t72.5 29.5q46 0 73 -29.5t27 -74.5t-28 -75t-72 -30q-46 0 -73.5 30t-27.5 75zM504 1350q0 45 28 74.5t72 29.5q46 0 73.5 -29.5t27.5 -74.5t-28.5 -75t-72.5 -30q-46 0 -73 29.5t-27 75.5z" />
<glyph unicode="&#xa9;" horiz-adv-x="1789" d="M102 721q0 143 42.5 266t118.5 212.5t178.5 153t223.5 95t253 31.5q163 0 302.5 -48.5t244 -141t164 -236.5t59.5 -324q0 -179 -64 -325t-175 -241t-258 -146.5t-314 -51.5q-163 0 -303.5 50t-246 144t-165.5 238.5t-60 323.5zM240 735q0 -314 177 -497t498 -183 q185 0 330 78.5t228 228.5t83 349q0 314 -177 498t-496 184q-186 0 -331.5 -79t-228.5 -229.5t-83 -349.5zM449 731q0 128 55 226t149 151q106 59 260 59q50 0 98 -4.5t109.5 -13t83.5 -10.5q8 -112 -8 -262h-68q-12 90 -18 112q-23 96 -219 96q-150 0 -219 -75 q-74 -80 -74 -260q0 -172 93 -286t249 -114q169 0 205 88q21 53 43 135h63q0 -132 -16 -241q-153 -68 -320 -68q-177 0 -297 92q-79 61 -124 156t-45 219z" />
<glyph unicode="&#xaa;" horiz-adv-x="733" d="M98 846q0 189 90 287t267 98q65 0 135 -12l-19 -172q-14 -129 -14 -242q0 -83 21 -105t106 -16l-6 -45q-108 -37 -152 -37q-40 0 -63 31t-23 121q0 12 6 92q-49 -118 -113.5 -181t-115.5 -63q-43 0 -81 61.5t-38 182.5zM213 889q0 -60 8 -102.5t19.5 -60t23.5 -17.5 q28 0 73 55t71 117q34 81 51 200l8 58q-38 6 -88 6q-87 0 -126.5 -70.5t-39.5 -185.5z" />
<glyph unicode="&#xab;" horiz-adv-x="866" d="M27 453v96l354 477l29 -123l-271 -354l80 -84q109 -115 149 -181.5t40 -144.5q0 -57 -25 -123q-150 202 -356 437zM455 457v92l321 428l25 -113l-244 -317l72 -76q98 -104 134 -163.5t36 -131.5q0 -43 -21 -108q-160 207 -323 389z" />
<glyph unicode="&#xac;" horiz-adv-x="1095" d="M61 631v98h973v-393h-98v295h-875z" />
<glyph unicode="&#xae;" horiz-adv-x="1554" d="M111 840q0 151 52.5 273.5t145 203t217 123.5t269.5 43q189 0 334 -72.5t230 -219t85 -349.5q0 -151 -53 -274t-146 -203.5t-217.5 -124t-267.5 -43.5q-189 0 -334.5 73t-230 220t-84.5 350zM219 852q0 -265 150.5 -421.5t421.5 -156.5q243 0 391.5 150t148.5 405 q0 265 -148.5 421.5t-418.5 156.5q-245 0 -395 -151t-150 -404zM469 1180v43q111 -2 158 -2q5 0 36.5 1t67.5 1q65 0 119 -13q72 -17 113 -71t41 -125q0 -68 -36.5 -119.5t-97.5 -77.5q15 -10 52 -47l104 -113q68 -74 95 -94.5t73 -32.5l-23 -41q-93 -3 -139 20t-125 116 l-94 108q-30 35 -53 51h-92v-94q0 -85 2 -108q0 -14 8.5 -19.5t46.5 -15.5l35 -10v-41h-289v41l33 10q39 10 47 15.5t10 19.5v553q-1 10 -4 15t-15 10t-38 11zM668 852h123q33 0 58 26t36 64q6 24 6 53q0 42 -14 70q-41 94 -166 94l-43 -2v-305z" />
<glyph unicode="&#xaf;" horiz-adv-x="665" d="M102 1243v121h461v-121h-461z" />
<glyph unicode="&#xb0;" horiz-adv-x="831" d="M59 1112q0 161 107 262t260 101q150 0 247 -100t97 -263q-1 -160 -108 -260t-259 -100q-150 0 -247.5 99t-96.5 261zM184 1114q0 -114 67.5 -183t162.5 -69t162 67t67 181q1 116 -65.5 185t-161.5 69q-96 0 -164 -67.5t-68 -182.5z" />
<glyph unicode="&#xb1;" horiz-adv-x="1095" d="M61 -20h973v-99h-973v99zM61 662v98h437v395h100v-395h436v-98h-436v-396h-100v396h-437z" />
<glyph unicode="&#xb4;" horiz-adv-x="659" d="M102 1233l424 377q21 -31 27 -64q10 -58 -15.5 -107t-109.5 -98q-124 -75 -319 -174z" />
<glyph unicode="&#xb5;" horiz-adv-x="1081" d="M49 934l6 35q144 67 234 67q66 0 86 -50t10 -189l-35 -422q-20 -254 35 -254q33 0 86.5 57.5t114.5 173.5q128 246 147 393l4 29q8 61 13 119t6 85v28l159 28l-30 -346q-23 -318 -23 -409v-45q-1 -28 -0.5 -51t2.5 -41.5t8.5 -32t17 -22.5t28.5 -12.5t42.5 -3t59.5 6.5 l-4 -37q-133 -57 -207 -57q-30 0 -48.5 9t-33.5 36t-19.5 82t-0.5 141l8 154q8 96 16 135q-43 -117 -102 -236q-83 -169 -169.5 -247t-158.5 -78q-24 0 -47 14v-49q-5 -134 11 -221t67 -205q-31 -31 -82 -31q-113 0 -113 164q0 79 43 604q27 325 39 504q10 77 5.5 118.5 t-40.5 53t-135 2.5z" />
<glyph unicode="&#xb6;" horiz-adv-x="1390" d="M219 985q0 158 76 271.5t219 160.5q110 37 311 37q35 0 100.5 -2t100.5 -2l313 4v-61l-59 -15q-56 -14 -81 -25t-32 -22.5t-8 -36.5q-2 -47 -2 -219v-602q0 -199 -33.5 -354.5t-91.5 -256.5t-141.5 -166t-177 -92.5t-203.5 -27.5q-127 0 -187.5 45t-60.5 100q0 41 33 74 q141 -90 248 -90q225 0 225 612v238q-172 -4 -297 45q-116 45 -184 147.5t-68 237.5zM651 -307q88 0 154 37t116.5 121t76.5 231t26 356v932h-123v-995q0 -151 -14.5 -266t-37 -185.5t-57 -119.5t-67 -72t-74.5 -39z" />
<glyph unicode="&#xb7;" horiz-adv-x="401" d="M92 627q0 50 32.5 82t78.5 32t76 -32t30 -80q0 -50 -32.5 -82.5t-77.5 -32.5q-46 0 -76.5 33t-30.5 80z" />
<glyph unicode="&#xb8;" horiz-adv-x="595" d="M102 -430q0 14 6 27.5t12 20.5l7 7q76 -67 170 -67q48 0 73 16.5t25 42.5q0 13 -8 23t-29.5 18.5t-35 12.5t-46.5 12q-39 11 -61.5 19t-50.5 23t-41.5 34.5t-13.5 45.5q0 30 20 57.5t36.5 38t24.5 13.5l19 2q-6 -14 -8 -26t1 -21.5t5.5 -17t12.5 -14t15.5 -10.5 t21.5 -9.5t22.5 -7.5t26.5 -7.5t26 -7.5q29 -8 47 -13.5t42.5 -16.5t38 -23t24 -31t10.5 -43q0 -67 -71 -126.5t-161 -59.5q-58 0 -109 23t-51 65z" />
<glyph unicode="&#xba;" horiz-adv-x="702" d="M100 856q0 173 82.5 274t216.5 101q97 0 150 -72.5t53 -189.5q0 -174 -83.5 -274.5t-217.5 -100.5q-95 0 -148 73.5t-53 188.5zM217 893q0 -105 35 -159t102 -54q129 0 129 252q0 213 -137 213q-129 0 -129 -252z" />
<glyph unicode="&#xbb;" horiz-adv-x="866" d="M66 178l241 320l-69 75q-99 105 -134.5 163.5t-35.5 129.5q0 56 20 111q149 -196 324 -389v-92l-322 -428zM457 141l270 353l-80 84q-109 117 -148.5 182.5t-39.5 144.5q0 58 24 121q100 -133 171 -219.5t186 -214.5v-98l-357 -478z" />
<glyph unicode="&#xbc;" horiz-adv-x="1581" d="M84 1421q192 76 276 76h23l-21 -653q-6 -86 -2 -127q2 -16 12.5 -24.5t41.5 -12.5l71 -12l-2 -54h-381v54l68 10q24 3 37 10.5t16 14.5t6 20q6 32 9 123l10 358q2 57 2 142q0 20 -7 28.5t-28 7.5l-127 -8zM379 -12l729 1573l82 -39l-729 -1571zM852 227q4 63 47 127 l299 447q35 53 64.5 70t99.5 30q-4 -67 -6 -139l-15 -422h107l-31 -111h-80l-8 -223l-119 -18l9 239h-367zM975 340h248l16 405z" />
<glyph unicode="&#xbd;" horiz-adv-x="1581" d="M84 1421q192 76 276 76h23l-21 -653q-6 -86 -2 -127q2 -16 12.5 -24.5t41.5 -12.5l71 -12l-2 -54h-381v54l68 10q24 3 37 10.5t16 14.5t6 20q6 32 9 123l10 358q2 57 2 142q0 20 -7 28.5t-28 7.5l-127 -8zM344 -12l729 1573l82 -39l-729 -1571zM936 0l2 78q57 56 97 97.5 t97 109t92.5 123t62 121t26.5 120.5q0 62 -38 108t-106 46q-55 0 -103.5 -24.5t-102.5 -86.5q-9 18 -9 43q0 44 31 82q32 42 90.5 66t118.5 24q64 0 114 -21.5t79 -57t44 -77t15 -85.5q0 -31 -6.5 -62.5t-16 -59t-28.5 -59.5t-34 -56t-43 -57t-46 -53t-52 -53.5t-51.5 -50.5 t-54 -51.5t-51.5 -48.5h426l-33 -115h-520z" />
<glyph unicode="&#xbe;" horiz-adv-x="1581" d="M111 725q0 18 6.5 35.5t12.5 25.5l7 9q58 -63 107.5 -96t101.5 -33q71 0 109.5 41.5t38.5 107.5q0 72 -51.5 130.5t-161.5 90.5v27q106 72 151 131t45 117q0 52 -34 85.5t-89 33.5q-102 0 -194 -105q-4 14 -4 37q0 43 28 78q31 40 86 63t119 23q91 0 153 -55.5t62 -133.5 q0 -39 -14.5 -74t-42 -65t-53.5 -51t-64 -47q97 -45 142.5 -111.5t45.5 -142.5q0 -97 -80.5 -174.5t-207.5 -77.5q-126 0 -189 63q-30 30 -30 68zM440 -12l729 1573l82 -39l-729 -1571zM887 227q4 63 47 127l299 447q35 53 64.5 70t99.5 30q-4 -67 -6 -139l-15 -422h107 l-31 -111h-80l-8 -223l-119 -18l8 239h-366zM1010 340h247l17 405z" />
<glyph unicode="&#xbf;" horiz-adv-x="796" d="M59 -98q0 86 51.5 163t141.5 134l98 61q129 80 129 184q0 85 -53 162l68 -16q56 -40 90 -98t34 -123q0 -64 -41 -121.5t-137 -122.5l-96 -64q-68 -44 -102.5 -102t-34.5 -119q0 -153 184 -153q65 0 129.5 25.5t151.5 82.5q33 -53 33 -88q0 -57 -80 -93t-183 -36 q-83 0 -149.5 19t-109.5 50.5t-71.5 74t-40.5 87.5t-12 93zM365 950q0 46 31.5 76.5t78.5 30.5t73.5 -33t26.5 -80q0 -46 -30.5 -77t-77.5 -31q-46 0 -74 34t-28 80z" />
<glyph unicode="&#xc0;" horiz-adv-x="1320" d="M10 0v55l111 33q24 6 36 17.5t21 37.5l406 1200q25 77 53 105.5t106 54.5q8 -36 41 -153l363 -1207q8 -24 15 -33.5t24 -15.5l106 -39v-55h-487v55l123 33q18 4 23.5 20t0.5 35l-90 316h-461l-96 -318q-6 -24 4 -37t43 -22l107 -27v-55h-449zM432 1860q1 15 5 30.5 t8 23.5l4 9l464 -324v-63q-208 78 -325 133q-92 40 -125.5 86.5t-30.5 104.5zM436 575h393l-192 682q-18 -86 -51 -192z" />
<glyph unicode="&#xc1;" horiz-adv-x="1320" d="M10 0v55l111 33q24 6 36 17.5t21 37.5l406 1200q25 77 53 105.5t106 54.5q8 -36 41 -153l363 -1207q8 -24 15 -33.5t24 -15.5l106 -39v-55h-487v55l123 33q18 4 23.5 20t0.5 35l-90 316h-461l-96 -318q-6 -24 4 -37t43 -22l107 -27v-55h-449zM436 575h393l-192 682 q-18 -86 -51 -192zM518 1552l2 64l465 323q12 -30 14 -63q5 -57 -28.5 -103.5t-124.5 -86.5q-139 -64 -328 -134z" />
<glyph unicode="&#xc2;" horiz-adv-x="1320" d="M10 0v55l111 33q24 6 36 17.5t21 37.5l406 1200q25 77 53 105.5t106 54.5q8 -36 41 -153l363 -1207q8 -24 15 -33.5t24 -15.5l106 -39v-55h-487v55l123 33q18 4 23.5 20t0.5 35l-90 316h-461l-96 -318q-6 -24 4 -37t43 -22l107 -27v-55h-449zM360 1626l345 279h77 q28 -30 55.5 -59t46.5 -48t50 -48t44 -41.5t52 -48t53 -48.5q-43 -19 -84 -19q-78 0 -131 37t-135 137l-33 39l-254 -219zM436 575h393l-192 682q-18 -86 -51 -192z" />
<glyph unicode="&#xc3;" horiz-adv-x="1320" d="M10 0v55l111 33q24 6 36 17.5t21 37.5l406 1200q25 77 53 105.5t106 54.5q8 -36 41 -153l363 -1207q8 -24 15 -33.5t24 -15.5l106 -39v-55h-487v55l123 33q18 4 23.5 20t0.5 35l-90 316h-461l-96 -318q-6 -24 4 -37t43 -22l107 -27v-55h-449zM365 1532q10 125 68 190.5 t138 65.5q51 0 142 -37l47 -20q73 -31 112 -31q96 0 142 133l37 -8q-9 -125 -66.5 -190.5t-138.5 -65.5q-50 0 -141 37l-48 20q-73 31 -112 31q-98 0 -144 -133zM436 575h393l-192 682q-18 -86 -51 -192z" />
<glyph unicode="&#xc4;" horiz-adv-x="1320" d="M10 0v55l111 33q24 6 36 17.5t21 37.5l406 1200q25 77 53 105.5t106 54.5q8 -36 41 -153l363 -1207q8 -24 15 -33.5t24 -15.5l106 -39v-55h-487v55l123 33q18 4 23.5 20t0.5 35l-90 316h-461l-96 -318q-6 -24 4 -37t43 -22l107 -27v-55h-449zM412 1683q0 45 28 75t72 30 q46 0 73 -29.5t27 -75.5q0 -45 -28 -74.5t-72 -29.5q-46 0 -73 29.5t-27 74.5zM436 575h393l-192 682q-18 -86 -51 -192zM813 1683q0 45 28 75t72 30q46 0 73.5 -30t27.5 -75t-28.5 -74.5t-72.5 -29.5q-46 0 -73 29.5t-27 74.5z" />
<glyph unicode="&#xc5;" horiz-adv-x="1320" d="M10 0v55l111 33q24 6 36 17.5t21 37.5l406 1200q25 77 53 105.5t106 54.5q8 -36 41 -153l363 -1207q8 -24 15 -33.5t24 -15.5l106 -39v-55h-487v55l123 33q18 4 23.5 20t0.5 35l-90 316h-461l-96 -318q-6 -24 4 -37t43 -22l107 -27v-55h-449zM436 575h393l-192 682 q-18 -86 -51 -192zM477 1712q0 92 70 149.5t176 57.5q94 0 155.5 -53t61.5 -142q0 -92 -69.5 -149t-174.5 -57q-96 0 -157.5 52.5t-61.5 141.5zM590 1722q0 -63 32 -101t85 -38q120 0 120 131q0 63 -31.5 101t-84.5 38q-58 0 -89.5 -34t-31.5 -97z" />
<glyph unicode="&#xc6;" horiz-adv-x="1890" d="M10 0v55l111 33q24 7 40.5 21t39.5 53l606 1020q53 89 53 131q0 21 -10 35t-41 24l-117 35v47h985q0 -193 -16 -354h-74q-10 119 -18 172q-5 32 -16.5 46t-58 26t-130 15t-242.5 3l-20 -567q246 0 305 10q24 3 32.5 9t14.5 26q17 62 31 127h67l-14 -451h-68 q-6 46 -24 131q-6 28 -14 39t-27 12q-101 9 -307 9l-19 -590q66 -21 224 -21q167 0 222 14t77 62q34 83 75 209h72q-9 -83 -22.5 -178t-22.5 -149l-10 -54h-959v55l76 17q51 11 66.5 30.5t19.5 57.5q6 75 12 219l2 80h-401l-176 -318q-21 -45 39 -59l108 -27v-55h-471z M575 575h340l27 672q-30 -71 -90 -176z" />
<glyph unicode="&#xc7;" horiz-adv-x="1458" d="M139 709q0 223 58.5 366t173.5 250q160 150 440 150q67 0 133.5 -7t142.5 -19t119 -17q-2 -179 -20 -410h-78q-7 83 -23 168q-22 102 -90 143t-215 41q-198 0 -307 -121q-141 -156 -141 -489q-2 -311 117 -493.5t339 -182.5q120 0 205 29q71 23 109 127q19 49 69 213h78 q-18 -210 -47 -383q-99 -45 -217 -69.5t-225 -24.5q-112 0 -220 35t-190 108q-105 94 -158 244.5t-53 341.5zM553 -432q0 15 6.5 29.5t13.5 22.5l7 7q78 -69 174 -69q43 0 68.5 16t25.5 41q0 35 -109 63q-7 2 -10 3q-39 11 -61.5 19t-51 23t-42 34.5t-13.5 45.5 q0 30 20.5 57.5t37 38t24.5 13.5l19 2q-6 -14 -8.5 -26t1 -21.5t5.5 -16.5t12.5 -14t15.5 -11t21.5 -9.5l22.5 -7.5t26 -7.5t26 -7.5q29 -8 47 -13.5t42.5 -16.5t38 -23t24 -31t10.5 -43q0 -67 -71.5 -126.5t-163.5 -59.5q-56 0 -107 23t-51 65z" />
<glyph unicode="&#xc8;" horiz-adv-x="1286" d="M131 0v55l74 17q52 11 68 30.5t20 57.5q6 75 12 219l27 696q2 49 2 217q0 38 -14.5 56.5t-63.5 29.5l-98 21v55h913q0 -193 -16 -354h-72q-10 119 -18 172q-5 31 -16.5 45.5t-58.5 26.5t-130.5 15t-241.5 3l-20 -567q246 0 305 10q24 3 32.5 9t14.5 26q17 62 31 127h67 l-14 -451h-68q-19 109 -24 131q-6 28 -14 39t-27 12q-101 9 -307 9l-19 -590q60 -21 223 -21q116 0 172.5 6.5t83 21.5t41.5 48q41 94 76 209h74q-9 -83 -23.5 -178t-24.5 -149l-10 -54h-956zM324 1860q1 15 5 30.5t7 23.5l4 9l465 -324v-63q-213 80 -326 133 q-92 40 -125 86.5t-30 104.5z" />
<glyph unicode="&#xc9;" horiz-adv-x="1286" d="M131 0v55l74 17q52 11 68 30.5t20 57.5q6 75 12 219l27 696q2 49 2 217q0 38 -14.5 56.5t-63.5 29.5l-98 21v55h913q0 -193 -16 -354h-72q-10 119 -18 172q-5 31 -16.5 45.5t-58.5 26.5t-130.5 15t-241.5 3l-20 -567q246 0 305 10q24 3 32.5 9t14.5 26q17 62 31 127h67 l-14 -451h-68q-19 109 -24 131q-6 28 -14 39t-27 12q-101 9 -307 9l-19 -590q60 -21 223 -21q116 0 172.5 6.5t83 21.5t41.5 48q41 94 76 209h74q-9 -83 -23.5 -178t-24.5 -149l-10 -54h-956zM535 1552l2 64l464 323q13 -30 15 -63q5 -57 -29 -103.5t-125 -86.5 q-143 -66 -327 -134z" />
<glyph unicode="&#xca;" horiz-adv-x="1286" d="M131 0v55l74 17q52 11 68 30.5t20 57.5q6 75 12 219l27 696q2 49 2 217q0 38 -14.5 56.5t-63.5 29.5l-98 21v55h913q0 -193 -16 -354h-72q-10 119 -18 172q-5 31 -16.5 45.5t-58.5 26.5t-130.5 15t-241.5 3l-20 -567q246 0 305 10q24 3 32.5 9t14.5 26q17 62 31 127h67 l-14 -451h-68q-19 109 -24 131q-6 28 -14 39t-27 12q-101 9 -307 9l-19 -590q60 -21 223 -21q116 0 172.5 6.5t83 21.5t41.5 48q41 94 76 209h74q-9 -83 -23.5 -178t-24.5 -149l-10 -54h-956zM313 1626l344 279h78q28 -30 55.5 -59t46.5 -48t50 -48t44 -41.5t52 -48 t53 -48.5q-43 -19 -84 -19q-78 0 -131 37t-135 137l-33 39l-254 -219z" />
<glyph unicode="&#xcb;" horiz-adv-x="1286" d="M131 0v55l74 17q52 11 68 30.5t20 57.5q6 75 12 219l27 696q2 49 2 217q0 38 -14.5 56.5t-63.5 29.5l-98 21v55h913q0 -193 -16 -354h-72q-10 119 -18 172q-5 31 -16.5 45.5t-58.5 26.5t-130.5 15t-241.5 3l-20 -567q246 0 305 10q24 3 32.5 9t14.5 26q17 62 31 127h67 l-14 -451h-68q-19 109 -24 131q-6 28 -14 39t-27 12q-101 9 -307 9l-19 -590q60 -21 223 -21q116 0 172.5 6.5t83 21.5t41.5 48q41 94 76 209h74q-9 -83 -23.5 -178t-24.5 -149l-10 -54h-956zM367 1683q0 45 28 75t72 30q46 0 73 -29.5t27 -75.5q0 -45 -28 -74.5t-72 -29.5 q-46 0 -73 29.5t-27 74.5zM768 1683q0 45 28 75t72 30q46 0 73.5 -30t27.5 -75t-28.5 -74.5t-72.5 -29.5q-46 0 -73 29.5t-27 74.5z" />
<glyph unicode="&#xcc;" horiz-adv-x="819" d="M109 1860q1 15 5 30.5t8 23.5l3 9l465 -324v-63q-213 80 -326 133q-92 40 -125 86.5t-30 104.5zM131 0v55l74 17q52 11 68 30.5t20 57.5q6 75 12 219l27 696q6 136 2 219q-2 38 -15.5 56.5t-62.5 29.5l-78 19v55h502v-55l-76 -17q-51 -11 -66.5 -30.5t-19.5 -57.5 q-2 -26 -10 -219l-27 -696q-1 -30 -2.5 -78.5t-2.5 -84t-1 -56.5q0 -37 15.5 -56t64.5 -30l78 -19v-55h-502z" />
<glyph unicode="&#xcd;" horiz-adv-x="819" d="M131 0v55l74 17q52 11 68 30.5t20 57.5q6 75 12 219l27 696q6 136 2 219q-2 38 -15.5 56.5t-62.5 29.5l-78 19v55h502v-55l-76 -17q-51 -11 -66.5 -30.5t-19.5 -57.5q-2 -26 -10 -219l-27 -696q-1 -30 -2.5 -78.5t-2.5 -84t-1 -56.5q0 -37 15.5 -56t64.5 -30l78 -19v-55 h-502zM279 1552l2 64l464 323q13 -30 15 -63q5 -57 -29 -103.5t-125 -86.5q-143 -66 -327 -134z" />
<glyph unicode="&#xce;" horiz-adv-x="819" d="M80 1626l344 279h78q28 -30 55.5 -59t46.5 -48t50 -48t44 -41.5t52 -48t53 -48.5q-43 -19 -84 -19q-78 0 -131 37t-135 137l-33 39l-254 -219zM131 0v55l74 17q52 11 68 30.5t20 57.5q6 75 12 219l27 696q6 136 2 219q-2 38 -15.5 56.5t-62.5 29.5l-78 19v55h502v-55 l-76 -17q-51 -11 -66.5 -30.5t-19.5 -57.5q-2 -26 -10 -219l-27 -696q-1 -30 -2.5 -78.5t-2.5 -84t-1 -56.5q0 -37 15.5 -56t64.5 -30l78 -19v-55h-502z" />
<glyph unicode="&#xcf;" horiz-adv-x="819" d="M131 0v55l74 17q52 11 68 30.5t20 57.5q6 75 12 219l27 696q6 136 2 219q-2 38 -15.5 56.5t-62.5 29.5l-78 19v55h502v-55l-76 -17q-51 -11 -66.5 -30.5t-19.5 -57.5q-2 -26 -10 -219l-27 -696q-1 -30 -2.5 -78.5t-2.5 -84t-1 -56.5q0 -37 15.5 -56t64.5 -30l78 -19v-55 h-502zM131 1683q0 45 28 75t72 30q46 0 73.5 -30t27.5 -75t-28.5 -74.5t-72.5 -29.5q-46 0 -73 29.5t-27 74.5zM532 1683q0 45 28.5 75t72.5 30q46 0 73 -29.5t27 -75.5q0 -45 -28 -74.5t-72 -29.5q-46 0 -73.5 29.5t-27.5 74.5z" />
<glyph unicode="&#xd0;" horiz-adv-x="1554" d="M133 0v55l74 17q52 11 68 30.5t20 57.5q6 75 12 219l12 332h-163v102h168l10 262q4 98 4 217q0 39 -14.5 58.5t-63.5 29.5l-98 19v55q219 -4 319 -4q37 0 105.5 2t105.5 2q200 0 324 -39q192 -63 294.5 -224.5t102.5 -395.5q0 -256 -104 -445q-64 -114 -141.5 -188.5 t-197.5 -118t-278 -43.5q-39 0 -110 2t-111 2zM475 135q127 -26 254 -26q160 0 263.5 72.5t166.5 219.5q62 146 62 347q0 108 -25 210q-56 213 -186 303.5t-357 90.5q-83 0 -137 -13l-18 -526h374v-102h-378z" />
<glyph unicode="&#xd1;" horiz-adv-x="1683" d="M131 0l2 55l57 17q67 18 84 33.5t19 52.5q7 52 10 221l27 698q1 47 3.5 121t2.5 98q-1 28 -6.5 40t-26 22.5t-67.5 23.5l-56 17l2 55h316l737 -1083l25 706q8 184 6 219q0 38 -16 53t-83 33l-57 17l2 55h430v-55l-59 -17q-67 -18 -84 -33t-19 -53q-6 -69 -12 -219 l-39 -1077h-78l-809 1204l-28 -825q-2 -56 -3.5 -129.5t-2.5 -91.5q0 -37 16 -52.5t82 -33.5l57 -17l-2 -55h-430zM535 1534q10 125 68 190.5t138 65.5q51 0 142 -37l47 -20q73 -31 112 -31q96 0 142 133l37 -8q-9 -125 -66.5 -190.5t-138.5 -65.5q-51 0 -142 37l-47 20 q-73 31 -112 31q-98 0 -144 -133z" />
<glyph unicode="&#xd2;" horiz-adv-x="1546" d="M139 682q0 248 82 431t242 278q145 88 342 88q165 0 291 -66q149 -80 225 -236t76 -358q0 -499 -281 -721q-161 -127 -385 -127q-134 0 -245.5 43.5t-182.5 126.5q-164 189 -164 541zM340 713q0 -344 133 -504q110 -137 279 -137h14q213 0 324 180q104 164 104 518 q0 291 -105 448.5t-319 157.5q-90 0 -168 -37q-145 -62 -203.5 -214.5t-58.5 -411.5zM467 1860q1 15 5 30.5t8 23.5l3 9l465 -324v-63q-208 78 -325 133q-92 40 -125.5 86.5t-30.5 104.5z" />
<glyph unicode="&#xd3;" horiz-adv-x="1546" d="M139 682q0 248 82 431t242 278q145 88 342 88q165 0 291 -66q149 -80 225 -236t76 -358q0 -499 -281 -721q-161 -127 -385 -127q-134 0 -245.5 43.5t-182.5 126.5q-164 189 -164 541zM340 713q0 -344 133 -504q110 -137 279 -137h14q213 0 324 180q104 164 104 518 q0 291 -105 448.5t-319 157.5q-90 0 -168 -37q-145 -62 -203.5 -214.5t-58.5 -411.5zM637 1552l2 64l465 323q12 -30 14 -63q5 -57 -28.5 -103.5t-124.5 -86.5q-139 -64 -328 -134z" />
<glyph unicode="&#xd4;" horiz-adv-x="1546" d="M139 682q0 248 82 431t242 278q145 88 342 88q165 0 291 -66q149 -80 225 -236t76 -358q0 -499 -281 -721q-161 -127 -385 -127q-134 0 -245.5 43.5t-182.5 126.5q-164 189 -164 541zM340 713q0 -344 133 -504q110 -137 279 -137h14q213 0 324 180q104 164 104 518 q0 291 -105 448.5t-319 157.5q-90 0 -168 -37q-145 -62 -203.5 -214.5t-58.5 -411.5zM436 1626l344 279h78q28 -30 55.5 -59t46.5 -48t50 -48t44 -41.5t52 -48t53 -48.5q-43 -19 -84 -19q-78 0 -131 37t-135 137l-33 39l-254 -219z" />
<glyph unicode="&#xd5;" horiz-adv-x="1546" d="M139 682q0 248 82 431t242 278q145 88 342 88q165 0 291 -66q149 -80 225 -236t76 -358q0 -499 -281 -721q-161 -127 -385 -127q-134 0 -245.5 43.5t-182.5 126.5q-164 189 -164 541zM340 713q0 -344 133 -504q110 -137 279 -137h14q213 0 324 180q104 164 104 518 q0 291 -105 448.5t-319 157.5q-90 0 -168 -37q-145 -62 -203.5 -214.5t-58.5 -411.5zM444 1540q10 125 68.5 190.5t138.5 65.5q51 0 142 -37l47 -20q73 -31 112 -31q96 0 142 133l36 -8q-9 -125 -66.5 -190.5t-137.5 -65.5q-51 0 -142 37l-47 20q-73 31 -112 31 q-98 0 -144 -133z" />
<glyph unicode="&#xd6;" horiz-adv-x="1546" d="M139 682q0 248 82 431t242 278q145 88 342 88q165 0 291 -66q149 -80 225 -236t76 -358q0 -499 -281 -721q-161 -127 -385 -127q-134 0 -245.5 43.5t-182.5 126.5q-164 189 -164 541zM340 713q0 -344 133 -504q110 -137 279 -137h14q213 0 324 180q104 164 104 518 q0 291 -105 448.5t-319 157.5q-90 0 -168 -37q-145 -62 -203.5 -214.5t-58.5 -411.5zM489 1683q0 45 28.5 75t72.5 30q46 0 73 -29.5t27 -75.5q0 -45 -28 -74.5t-72 -29.5q-46 0 -73.5 29.5t-27.5 74.5zM891 1683q0 45 28 75t72 30q46 0 73.5 -30t27.5 -75t-28.5 -74.5 t-72.5 -29.5q-46 0 -73 29.5t-27 74.5z" />
<glyph unicode="&#xd7;" horiz-adv-x="1095" d="M109 215l370 371l-370 370l67 70l371 -373l373 373l67 -70l-373 -370l373 -371l-67 -70l-373 371l-371 -371z" />
<glyph unicode="&#xd8;" horiz-adv-x="1550" d="M147 682q0 249 82 431.5t244 277.5q142 88 342 88q133 0 244 -43l65 135l82 -39l-67 -139q132 -83 200 -234t68 -340q0 -497 -281 -721q-84 -65 -176 -96t-209 -31q-140 0 -258 47l-61 -124l-80 38l61 129q-40 23 -90 80q-166 191 -166 541zM348 713q0 -337 131 -502 l525 1106q-92 59 -224 59q-92 0 -170 -37q-145 -62 -203.5 -214.5t-58.5 -411.5zM543 143q88 -71 217 -71h14q213 0 324 180q106 162 106 518q0 335 -133 483z" />
<glyph unicode="&#xd9;" horiz-adv-x="1576" d="M129 1399v55h502v-55l-74 -17q-52 -11 -68 -30.5t-20 -57.5q-2 -26 -10 -219l-17 -442q-7 -180 17 -277q65 -258 354 -258q209 0 287 156q57 105 67 324l19 497q2 49 2 219q0 37 -14.5 56t-63.5 30l-78 19v55h436v-55l-75 -17q-51 -11 -66.5 -30.5t-19.5 -57.5 q-4 -50 -11 -219l-20 -520q-10 -212 -76 -336q-117 -248 -459 -248q-158 0 -266.5 66t-159.5 182q-36 76 -44.5 163.5t-4.5 211.5l17 481q2 49 2 219q0 37 -14.5 56t-63.5 30zM502 1860q1 15 5 30.5t7 23.5l4 9l465 -324v-63q-213 80 -326 133q-92 40 -125 86.5t-30 104.5z " />
<glyph unicode="&#xda;" horiz-adv-x="1576" d="M129 1399v55h502v-55l-74 -17q-52 -11 -68 -30.5t-20 -57.5q-2 -26 -10 -219l-17 -442q-7 -180 17 -277q65 -258 354 -258q209 0 287 156q57 105 67 324l19 497q2 49 2 219q0 37 -14.5 56t-63.5 30l-78 19v55h436v-55l-75 -17q-51 -11 -66.5 -30.5t-19.5 -57.5 q-4 -50 -11 -219l-20 -520q-10 -212 -76 -336q-117 -248 -459 -248q-158 0 -266.5 66t-159.5 182q-36 76 -44.5 163.5t-4.5 211.5l17 481q2 49 2 219q0 37 -14.5 56t-63.5 30zM672 1552l2 64l465 323q12 -30 14 -63q5 -57 -29 -103.5t-125 -86.5q-143 -66 -327 -134z" />
<glyph unicode="&#xdb;" horiz-adv-x="1576" d="M129 1399v55h502v-55l-74 -17q-52 -11 -68 -30.5t-20 -57.5q-2 -26 -10 -219l-17 -442q-7 -180 17 -277q65 -258 354 -258q209 0 287 156q57 105 67 324l19 497q2 49 2 219q0 37 -14.5 56t-63.5 30l-78 19v55h436v-55l-75 -17q-51 -11 -66.5 -30.5t-19.5 -57.5 q-4 -50 -11 -219l-20 -520q-10 -212 -76 -336q-117 -248 -459 -248q-158 0 -266.5 66t-159.5 182q-36 76 -44.5 163.5t-4.5 211.5l17 481q2 49 2 219q0 37 -14.5 56t-63.5 30zM473 1626l344 279h78q28 -30 55.5 -59t46.5 -48t50 -48t44 -41.5t52 -48t53 -48.5 q-43 -19 -84 -19q-78 0 -131 37t-135 137l-33 39l-254 -219z" />
<glyph unicode="&#xdc;" horiz-adv-x="1576" d="M129 1399v55h502v-55l-74 -17q-52 -11 -68 -30.5t-20 -57.5q-2 -26 -10 -219l-17 -442q-7 -180 17 -277q65 -258 354 -258q206 0 287 156q57 111 67 324l19 497q2 49 2 219q0 37 -14.5 56t-63.5 30l-78 19v55h436v-55l-75 -17q-51 -11 -66.5 -30.5t-19.5 -57.5 q-4 -50 -11 -219l-20 -520q-10 -203 -76 -336q-123 -248 -459 -248q-158 0 -265.5 65.5t-160.5 182.5q-35 77 -44 165.5t-5 209.5l17 481q2 49 2 219q0 37 -14.5 56t-63.5 30zM524 1683q0 45 28.5 75t72.5 30q46 0 73 -29.5t27 -75.5q0 -45 -28 -74.5t-72 -29.5 q-46 0 -73.5 29.5t-27.5 74.5zM926 1683q0 45 28 75t72 30q46 0 73 -29.5t27 -75.5q0 -45 -28 -74.5t-72 -29.5q-46 0 -73 29.5t-27 74.5z" />
<glyph unicode="&#xdd;" horiz-adv-x="1259" d="M39 1399v55h493v-55l-57 -13q-14 -3 -22 -5.5t-21 -6.5t-19 -8.5t-15.5 -11.5t-10.5 -14.5t-4 -19t4 -24.5q3 -10 7 -21.5t11 -26t12.5 -26t15.5 -30.5t16 -30.5t19 -35.5t19 -36l164 -308q151 256 283 514q21 41 -0.5 60.5t-87.5 32.5l-55 10v55h419v-55l-41 -10 q-44 -10 -90 -82q-211 -329 -395 -627l-10 -301q-4 -160 -4 -219q0 -37 14.5 -56t63.5 -30l77 -19v-55h-499v55l73 17q52 11 68 30.5t20 57.5q8 99 13 219l8 287l-209 399q-103 192 -133 244q-27 44 -42.5 58.5t-47.5 23.5zM514 1552l2 64l465 323q12 -30 14 -63 q5 -57 -28.5 -103.5t-124.5 -86.5q-139 -64 -328 -134z" />
<glyph unicode="&#xde;" horiz-adv-x="1193" d="M131 0v55l74 17q52 11 68 30.5t20 57.5q6 75 12 219l27 696q6 136 2 219q-2 38 -15.5 56.5t-62.5 29.5l-78 19v55h502v-55l-76 -17q-51 -11 -68 -31t-20 -57q-4 -45 -4 -71h6q186 0 293 -29q124 -35 191.5 -139.5t64.5 -243.5q-1 -105 -43 -198.5t-112 -158t-170.5 -91 t-209.5 -1.5l3 68q58 -8 117.5 3t99.5 38q63 42 93.5 124t33.5 177q5 71 -17 146q-65 206 -291 206q-49 0 -61 -4l-29 -741q-1 -30 -2.5 -78.5t-2.5 -84t-1 -56.5q0 -37 15.5 -56t64.5 -30l78 -19v-55h-502z" />
<glyph unicode="&#xdf;" horiz-adv-x="1161" d="M-258 -412q0 26 10 56q3 0 34.5 -6.5t68 -10.5t79.5 -4q123 0 179 114.5t65 368.5l21 682q6 186 50 332.5t105 232.5t138.5 142t143 76t124.5 20q119 0 192.5 -66.5t73.5 -168.5q0 -76 -31 -145.5t-75 -120t-87.5 -96t-74.5 -95t-31 -96.5q0 -48 25.5 -82.5t107.5 -112.5 l68 -67q145 -138 145 -248q0 -122 -114 -216.5t-291 -94.5q-115 0 -155 41t-9 131q55 -18 86 -27t75 -17t85 -8q48 0 80.5 12.5t47 34t20 40.5t5.5 40q0 42 -29.5 90t-101.5 117l-70 68q-55 54 -82.5 105.5t-27.5 113.5q0 58 29.5 112.5t71 101.5t83.5 97.5t71.5 120 t29.5 148.5q0 72 -51 124t-130 52q-43 0 -82.5 -11t-85.5 -46t-80 -91t-58.5 -155.5t-29.5 -229.5l-28 -698q-4 -115 -26.5 -226.5t-63 -210.5t-94.5 -174t-126.5 -119t-154.5 -44q-59 0 -92 31t-33 83z" />
<glyph unicode="&#xe0;" horiz-adv-x="1026" d="M109 385q0 321 138 486t406 165q86 0 199 -20l-29 -279q-22 -236 -22 -422q0 -131 12 -168q18 -55 80 -65q38 -6 102 0l-4 -37q-139 -57 -227 -57q-21 0 -36.5 4.5t-33 17t-27 36t-19 61.5t-9 93.5t3.5 131.5l10 121l-10 -27q-73 -216 -175 -328t-183 -112q-28 0 -57 22 t-56.5 66.5t-45 125.5t-17.5 185zM268 461q0 -85 8 -151.5t21.5 -105t29 -58t31.5 -19.5q45 0 117 100t113 213q57 157 80 357l14 118q-66 17 -147 17q-94 0 -155.5 -65.5t-86.5 -167.5t-25 -238zM287 1546q3 15 9.5 31t11.5 25l5 8l424 -377l-6 -66q-195 99 -319 174 q-84 49 -109.5 98t-15.5 107z" />
<glyph unicode="&#xe1;" horiz-adv-x="1026" d="M109 385q0 321 138 486t406 165q86 0 199 -20l-29 -279q-22 -236 -22 -422q0 -131 12 -168q18 -55 80 -65q38 -6 102 0l-4 -37q-139 -57 -227 -57q-21 0 -36.5 4.5t-33 17t-27 36t-19 61.5t-9 93.5t3.5 131.5l10 121l-10 -27q-73 -216 -175 -328t-183 -112q-28 0 -57 22 t-56.5 66.5t-45 125.5t-17.5 185zM268 461q0 -85 8 -151.5t21.5 -105t29 -58t31.5 -19.5q45 0 117 100t113 213q57 157 80 357l14 118q-66 17 -147 17q-94 0 -155.5 -65.5t-86.5 -167.5t-25 -238zM365 1233l423 377q21 -31 27 -64q10 -58 -15.5 -107t-109.5 -98 q-124 -75 -319 -174z" />
<glyph unicode="&#xe2;" horiz-adv-x="1026" d="M109 385q0 321 138 486t406 165q86 0 199 -20l-29 -279q-22 -236 -22 -422q0 -131 12 -168q18 -55 80 -65q38 -6 102 0l-4 -37q-139 -57 -227 -57q-21 0 -36.5 4.5t-33 17t-27 36t-19 61.5t-9 93.5t3.5 131.5l10 121l-10 -27q-73 -216 -175 -328t-183 -112q-28 0 -57 22 t-56.5 66.5t-45 125.5t-17.5 185zM215 1200l315 379h76q95 -135 152 -211t139 -174q-52 -18 -88 -18q-41 0 -69.5 10.5t-55.5 39.5t-50 66t-62 104q-4 9 -7 13l-33 59l-219 -292zM268 461q0 -85 8 -151.5t21.5 -105t29 -58t31.5 -19.5q45 0 117 100t113 213q57 157 80 357 l14 118q-66 17 -147 17q-94 0 -155.5 -65.5t-86.5 -167.5t-25 -238z" />
<glyph unicode="&#xe3;" horiz-adv-x="1026" d="M109 385q0 321 138 486t406 165q86 0 199 -20l-29 -279q-22 -236 -22 -422q0 -131 12 -168q18 -55 80 -65q38 -6 102 0l-4 -37q-139 -57 -227 -57q-21 0 -36.5 4.5t-33 17t-27 36t-19 61.5t-9 93.5t3.5 131.5l10 121l-10 -27q-73 -216 -175 -328t-183 -112q-28 0 -57 22 t-56.5 66.5t-45 125.5t-17.5 185zM211 1251q10 126 68.5 193t138.5 67q53 0 141 -36l47 -21q73 -31 113 -31q95 0 141 133l37 -8q-9 -126 -67 -193t-138 -67q-50 0 -141 37l-47 21q-70 30 -113 30q-97 0 -143 -133zM268 461q0 -85 8 -151.5t21.5 -105t29 -58t31.5 -19.5 q45 0 117 100t113 213q57 157 80 357l14 118q-66 17 -147 17q-94 0 -155.5 -65.5t-86.5 -167.5t-25 -238z" />
<glyph unicode="&#xe4;" horiz-adv-x="1026" d="M109 385q0 321 138 486t406 165q86 0 199 -20l-29 -279q-22 -236 -22 -422q0 -131 12 -168q18 -55 80 -65q38 -6 102 0l-4 -37q-139 -57 -227 -57q-21 0 -36.5 4.5t-33 17t-27 36t-19 61.5t-9 93.5t3.5 131.5l10 121l-10 -27q-73 -216 -175 -328t-183 -112q-28 0 -57 22 t-56.5 66.5t-45 125.5t-17.5 185zM264 1350q0 45 28.5 74.5t72.5 29.5q46 0 73 -29.5t27 -74.5t-28 -75t-72 -30q-46 0 -73.5 30t-27.5 75zM268 461q0 -85 8 -151.5t21.5 -105t29 -58t31.5 -19.5q45 0 117 100t113 213q57 157 80 357l14 118q-66 17 -147 17 q-94 0 -155.5 -65.5t-86.5 -167.5t-25 -238zM666 1350q0 45 28 74.5t72 29.5q46 0 73 -29.5t27 -74.5t-28 -75t-72 -30q-46 0 -73 29.5t-27 75.5z" />
<glyph unicode="&#xe5;" horiz-adv-x="1026" d="M109 385q0 321 138 486t406 165q86 0 199 -20l-29 -279q-22 -236 -22 -422q0 -131 12 -168q18 -55 80 -65q38 -6 102 0l-4 -37q-139 -57 -227 -57q-21 0 -36.5 4.5t-33 17t-27 36t-19 61.5t-9 93.5t3.5 131.5l10 121l-10 -27q-73 -216 -175 -328t-183 -112q-28 0 -57 22 t-56.5 66.5t-45 125.5t-17.5 185zM268 461q0 -85 8 -151.5t21.5 -105t29 -58t31.5 -19.5q45 0 117 100t113 213q57 157 80 357l14 118q-66 17 -147 17q-94 0 -155.5 -65.5t-86.5 -167.5t-25 -238zM328 1368q0 99 69 165t172 66q96 0 155.5 -58.5t59.5 -156.5q0 -99 -69 -165 t-172 -66q-94 0 -154.5 59.5t-60.5 155.5zM442 1380q0 -69 31 -113t84 -44q54 0 83.5 39t29.5 110q0 69 -31 114.5t-84 45.5q-54 0 -83.5 -40t-29.5 -112z" />
<glyph unicode="&#xe6;" horiz-adv-x="1388" d="M106 385q0 321 138 486t407 165q75 0 197 -18l-8 -70q114 96 264 96q112 0 166.5 -53t54.5 -129q0 -122 -102 -210t-318 -117l-104 -15q1 -118 17.5 -200t47.5 -127.5t69 -64.5t89 -19q87 0 252 73l-4 -51q-74 -65 -163.5 -107t-162.5 -42q-306 0 -303 452 q-72 -220 -175 -334t-185 -114q-28 0 -57.5 22t-57 66.5t-45 125.5t-17.5 185zM268 461q0 -85 8 -151.5t21 -105t28 -58t31 -19.5q45 0 117 100t113 213q56 148 80 357l14 118q-66 17 -145 17q-72 0 -124.5 -36.5t-83 -102.5t-45 -148.5t-14.5 -183.5zM803 590l88 14 q133 24 202.5 80t69.5 135q0 60 -30 95.5t-93 35.5q-219 0 -237 -360z" />
<glyph unicode="&#xe7;" horiz-adv-x="802" d="M98 416q0 156 46 301.5t147 224.5q124 100 291 100q70 0 106.5 -25t36.5 -71q0 -36 -27 -78q-130 47 -213 47q-56 0 -93 -16.5t-62 -58.5q-32 -58 -49 -159.5t-17 -188.5q0 -201 55.5 -293.5t149.5 -92.5q45 0 93.5 14t131.5 48l-4 -51q-84 -68 -154 -101.5t-143 -33.5 q-135 0 -215 115.5t-80 318.5zM248 -432q0 14 6 27.5t12 20.5l6 7q76 -67 170 -67q48 0 73.5 16.5t25.5 42.5q0 13 -8 23t-29.5 18.5t-35 12.5t-46.5 12q-39 11 -61.5 19t-51 23t-42 34.5t-13.5 45.5q0 30 20.5 57.5t37 38t24.5 13.5l18 2q-6 -14 -8 -26t1 -21.5t5.5 -17 t12.5 -14t15.5 -10.5t21.5 -9.5t22.5 -7.5t26.5 -7.5t26 -7.5q29 -8 47 -13.5t42.5 -16.5t38 -23t24 -31t10.5 -43q0 -67 -70.5 -126.5t-160.5 -59.5q-58 0 -109 23t-51 65z" />
<glyph unicode="&#xe8;" horiz-adv-x="856" d="M109 436q0 168 41 295t149 215q119 98 270 98q112 0 167 -53t55 -129q0 -122 -101.5 -210t-318.5 -117l-103 -15q1 -118 17 -200t46.5 -127.5t68.5 -64.5t89 -19q87 0 252 73l-4 -51q-72 -65 -161.5 -107t-161.5 -42q-305 0 -305 454zM236 1546q3 15 9.5 31t11.5 25l5 8 l424 -377l-6 -66q-201 102 -320 174q-84 49 -109 98t-15 107zM270 590l88 14q132 25 201.5 80.5t69.5 134.5q0 60 -30 95.5t-93 35.5q-218 0 -236 -360z" />
<glyph unicode="&#xe9;" horiz-adv-x="856" d="M109 436q0 168 41 295t149 215q119 98 270 98q112 0 167 -53t55 -129q0 -122 -101.5 -210t-318.5 -117l-103 -15q1 -118 17 -200t46.5 -127.5t68.5 -64.5t89 -19q87 0 252 73l-4 -51q-72 -65 -161.5 -107t-161.5 -42q-305 0 -305 454zM270 590l88 14q132 25 201.5 80.5 t69.5 134.5q0 60 -30 95.5t-93 35.5q-218 0 -236 -360zM293 1233l424 377q20 -31 26 -64q10 -58 -15.5 -107t-109.5 -98q-124 -75 -319 -174z" />
<glyph unicode="&#xea;" horiz-adv-x="856" d="M109 436q0 168 41 295t149 215q119 98 270 98q112 0 167 -53t55 -129q0 -122 -101.5 -210t-318.5 -117l-103 -15q1 -118 17 -200t46.5 -127.5t68.5 -64.5t89 -19q87 0 252 73l-4 -51q-72 -65 -161.5 -107t-161.5 -42q-305 0 -305 454zM152 1200l315 379h76 q95 -135 152 -211t139 -174q-52 -18 -89 -18q-76 0 -116 40.5t-117 175.5q-7 11 -10 17l-33 59l-219 -292zM270 590l88 14q132 25 201.5 80.5t69.5 134.5q0 60 -30 95.5t-93 35.5q-218 0 -236 -360z" />
<glyph unicode="&#xeb;" horiz-adv-x="856" d="M109 436q0 168 41 295t149 215q119 98 270 98q112 0 167 -53t55 -129q0 -122 -101.5 -210t-318.5 -117l-103 -15q1 -118 17 -200t46.5 -127.5t68.5 -64.5t89 -19q87 0 252 73l-4 -51q-72 -65 -161.5 -107t-161.5 -42q-305 0 -305 454zM197 1350q0 45 28 74.5t72 29.5 q46 0 73 -29.5t27 -74.5t-28 -75t-72 -30q-46 0 -73 29.5t-27 75.5zM270 590l88 14q132 25 201.5 80.5t69.5 134.5q0 60 -30 95.5t-93 35.5q-218 0 -236 -360zM598 1350q0 45 28 74.5t72 29.5q46 0 73.5 -29.5t27.5 -74.5t-28.5 -75t-72.5 -30q-46 0 -73 29.5t-27 75.5z" />
<glyph unicode="&#xec;" horiz-adv-x="546" d="M25 1526q0 64 49 116l354 -442l-16 -63q-190 142 -287 223q-100 83 -100 166zM61 942l5 37q133 57 208 57q21 0 36.5 -4.5t32 -18t23.5 -39t12.5 -68t-1.5 -103.5l-49 -543q-9 -77 -5 -118.5t40 -53t137 -2.5l-6 -35q-144 -67 -232 -67q-67 0 -87.5 50.5t-8.5 188.5 l45 518q8 80 7.5 129.5t-35.5 67t-122 4.5z" />
<glyph unicode="&#xed;" horiz-adv-x="546" d="M61 942l5 37q133 57 208 57q21 0 36.5 -4.5t32 -18t23.5 -39t12.5 -68t-1.5 -103.5l-49 -543q-9 -77 -5 -118.5t40 -53t137 -2.5l-6 -35q-144 -67 -232 -67q-67 0 -87.5 50.5t-8.5 188.5l45 518q8 80 7.5 129.5t-35.5 67t-122 4.5zM115 1200l354 442q49 -52 49 -116 q0 -85 -100 -166q-77 -65 -285 -223z" />
<glyph unicode="&#xee;" horiz-adv-x="546" d="M-35 1200l316 379h75q95 -135 152 -211t139 -174q-52 -18 -88 -18q-41 0 -69.5 10.5t-55.5 39.5t-50 66t-62 104q-5 9 -7 13l-32 59l-220 -292zM61 942l5 37q133 57 208 57q21 0 36.5 -4.5t32 -18t23.5 -39t12.5 -68t-1.5 -103.5l-49 -543q-9 -77 -5 -118.5t40 -53 t137 -2.5l-6 -35q-144 -67 -232 -67q-67 0 -87.5 50.5t-8.5 188.5l45 518q8 80 7.5 129.5t-35.5 67t-122 4.5z" />
<glyph unicode="&#xef;" horiz-adv-x="546" d="M6 1350q0 45 28 74.5t72 29.5q46 0 73.5 -29.5t27.5 -74.5t-28.5 -75t-72.5 -30q-46 0 -73 29.5t-27 75.5zM61 942l5 37q133 57 208 57q21 0 36.5 -4.5t32 -18t23.5 -39t12.5 -68t-1.5 -103.5l-49 -543q-9 -77 -5 -118.5t40 -53t137 -2.5l-6 -35q-144 -67 -232 -67 q-67 0 -87.5 50.5t-8.5 188.5l45 518q8 80 7.5 129.5t-35.5 67t-122 4.5zM379 1350q0 45 27.5 74.5t72.5 29.5q46 0 72.5 -29t26.5 -75q0 -45 -28 -75t-73 -30q-46 0 -72 29.5t-26 75.5z" />
<glyph unicode="&#xf0;" horiz-adv-x="1034" d="M100 391q0 150 60.5 261t161.5 179q113 78 260 78q71 0 139 -22q-28 203 -115 348l-166 -127l-57 72l170 129q-52 58 -107 92q-67 43 -142.5 60.5t-184.5 19.5q-2 8 -2 18q0 72 112 72q185 0 338 -98q60 -39 99 -76l174 133l57 -74l-170 -129q184 -239 184 -641 q0 -138 -27.5 -263t-82 -227t-145 -162.5t-205.5 -60.5q-158 0 -254.5 115.5t-96.5 302.5zM276 420q0 -153 53.5 -252.5t145.5 -99.5q81 0 141 67q40 44 67 115.5t37.5 151t13.5 129.5t3 98q0 101 -8 180q-40 12 -106 18q-117 0 -205 -63q-142 -106 -142 -344z" />
<glyph unicode="&#xf1;" horiz-adv-x="1083" d="M61 942l5 37q133 57 208 57q29 0 47.5 -9t34 -36t20 -82t-0.5 -141l-8 -154q-2 -55 -15 -135q32 98 101 236q85 169 171 247t158 78q60 0 95.5 -84t19.5 -264l-39 -432q-11 -77 -7 -118.5t40.5 -53t136.5 -2.5l-4 -35q-144 -67 -233 -67q-68 0 -88.5 50t-8.5 189l39 422 q10 97 5 153.5t-15.5 78.5t-26.5 22q-31 0 -84 -57.5t-114 -173.5q-130 -243 -150 -394l-4 -28q-8 -61 -12.5 -119t-5.5 -85v-28l-160 -28l31 346q22 261 22 409v48q1 28 0.5 50.5t-2.5 40.5t-8.5 31t-17 21.5t-28 12.5t-42.5 3t-60 -6zM215 1251q10 126 68.5 193t138.5 67 q53 0 141 -36l47 -21q73 -31 113 -31q95 0 141 133l37 -8q-9 -126 -67 -193t-138 -67q-50 0 -141 37l-47 21q-71 30 -113 30q-97 0 -143 -133z" />
<glyph unicode="&#xf2;" horiz-adv-x="978" d="M109 414q0 292 126 462.5t330 170.5q144 0 224.5 -122.5t80.5 -312.5q0 -295 -126 -463.5t-332 -168.5q-144 0 -223.5 121.5t-79.5 312.5zM244 1546q3 15 9.5 31t11.5 25l5 8l424 -377l-6 -66q-195 99 -319 174q-84 49 -109.5 98t-15.5 107zM272 481q0 -395 224 -395 q104 0 155 111t51 348q0 395 -221 395q-104 0 -156.5 -111.5t-52.5 -347.5z" />
<glyph unicode="&#xf3;" horiz-adv-x="978" d="M109 414q0 292 126 462.5t330 170.5q144 0 224.5 -122.5t80.5 -312.5q0 -295 -126 -463.5t-332 -168.5q-144 0 -223.5 121.5t-79.5 312.5zM272 481q0 -395 224 -395q104 0 155 111t51 348q0 395 -221 395q-104 0 -156.5 -111.5t-52.5 -347.5zM301 1233l424 377 q21 -31 27 -64q10 -58 -15.5 -107t-109.5 -98q-119 -72 -320 -174z" />
<glyph unicode="&#xf4;" horiz-adv-x="978" d="M109 414q0 292 126 462.5t330 170.5q144 0 224.5 -122.5t80.5 -312.5q0 -295 -126 -463.5t-332 -168.5q-144 0 -223.5 121.5t-79.5 312.5zM176 1200l316 379h75q95 -135 152 -211t139 -174q-52 -18 -88 -18q-41 0 -69.5 10.5t-55.5 39.5t-50 66t-62 104q-4 9 -7 13 l-32 59l-220 -292zM272 481q0 -395 224 -395q104 0 155 111t51 348q0 395 -221 395q-104 0 -156.5 -111.5t-52.5 -347.5z" />
<glyph unicode="&#xf5;" horiz-adv-x="978" d="M109 414q0 292 126 462.5t330 170.5q144 0 224.5 -122.5t80.5 -312.5q0 -295 -126 -463.5t-332 -168.5q-144 0 -223.5 121.5t-79.5 312.5zM176 1251q10 126 68.5 193t138.5 67q53 0 141 -36l47 -21q73 -31 113 -31q95 0 141 133l37 -8q-9 -126 -67 -193t-138 -67 q-50 0 -141 37l-47 21q-71 30 -113 30q-97 0 -143 -133zM272 481q0 -395 224 -395q104 0 155 111t51 348q0 395 -221 395q-104 0 -156.5 -111.5t-52.5 -347.5z" />
<glyph unicode="&#xf6;" horiz-adv-x="978" d="M109 414q0 292 126 462.5t330 170.5q144 0 224.5 -122.5t80.5 -312.5q0 -295 -126 -463.5t-332 -168.5q-144 0 -223.5 121.5t-79.5 312.5zM205 1350q0 45 28 74.5t72 29.5q46 0 73.5 -29.5t27.5 -74.5t-28.5 -75t-72.5 -30q-46 0 -73 29.5t-27 75.5zM272 481 q0 -395 224 -395q104 0 155 111t51 348q0 395 -221 395q-104 0 -156.5 -111.5t-52.5 -347.5zM606 1350q0 45 28.5 74.5t72.5 29.5q46 0 73 -29.5t27 -74.5t-28 -75t-72 -30q-46 0 -73.5 30t-27.5 75z" />
<glyph unicode="&#xf7;" horiz-adv-x="1095" d="M61 539v96h973v-96h-973zM481 233q0 34 22.5 58t57.5 24q36 0 58 -24.5t22 -61.5q0 -34 -23.5 -58t-58.5 -24q-36 0 -57 24t-21 62zM481 969q0 36 22.5 60t57.5 24q36 0 58 -24.5t22 -61.5q0 -35 -23.5 -58.5t-58.5 -23.5q-36 0 -57 24t-21 60z" />
<glyph unicode="&#xf8;" horiz-adv-x="974" d="M109 414q0 292 126 462.5t330 170.5q58 0 117 -27l76 160l73 -35l-83 -172q59 -58 90.5 -152t31.5 -209q0 -294 -126.5 -463t-331.5 -169q-63 0 -117 26l-72 -151l-73 34l77 164q-118 112 -118 361zM272 481q0 -161 37 -254l309 656q-54 57 -137 57q-104 0 -156.5 -111.5 t-52.5 -347.5zM358 143q48 -57 138 -57q104 0 155 111t51 348q0 168 -34 254z" />
<glyph unicode="&#xf9;" horiz-adv-x="1083" d="M53 934l6 35q144 67 232 67q68 0 89 -50t9 -189l-39 -422q-10 -98 -5 -154.5t15 -78t25 -21.5q33 0 86.5 57.5t114.5 173.5q130 243 147 393l4 29q8 61 13 119t6 85v28l162 28l-31 -346q-23 -273 -23 -409v-48q-1 -32 -0.5 -58t4.5 -45t13.5 -31.5t27.5 -19t45.5 -6 t67.5 6.5l-6 -37q-133 -57 -207 -57q-30 0 -48.5 9t-33.5 36t-19.5 82t-0.5 141l10 154q3 64 14 135q-41 -114 -100 -236q-84 -169 -171 -247t-159 -78q-62 0 -97.5 84t-19.5 264l39 432q11 77 7 118.5t-40.5 53t-136.5 2.5zM315 1546q3 15 9.5 31t11.5 25l6 8l424 -377 l-6 -66q-201 102 -320 174q-84 49 -109.5 98t-15.5 107z" />
<glyph unicode="&#xfa;" horiz-adv-x="1083" d="M53 934l6 35q144 67 232 67q68 0 89 -50t9 -189l-39 -422q-10 -98 -5 -154.5t15 -78t25 -21.5q33 0 86.5 57.5t114.5 173.5q130 243 147 393l4 29q8 61 13 119t6 85v28l162 28l-31 -346q-23 -273 -23 -409v-48q-1 -32 -0.5 -58t4.5 -45t13.5 -31.5t27.5 -19t45.5 -6 t67.5 6.5l-6 -37q-133 -57 -207 -57q-30 0 -48.5 9t-33.5 36t-19.5 82t-0.5 141l10 154q3 64 14 135q-41 -114 -100 -236q-84 -169 -171 -247t-159 -78q-62 0 -97.5 84t-19.5 264l39 432q11 77 7 118.5t-40.5 53t-136.5 2.5zM373 1233l424 377q20 -31 26 -64 q10 -58 -15.5 -107t-109.5 -98q-124 -75 -319 -174z" />
<glyph unicode="&#xfb;" horiz-adv-x="1083" d="M53 934l6 35q144 67 232 67q68 0 89 -50t9 -189l-39 -422q-10 -98 -5 -154.5t15 -78t25 -21.5q33 0 86.5 57.5t114.5 173.5q130 243 147 393l4 29q8 61 13 119t6 85v28l162 28l-31 -346q-23 -273 -23 -409v-48q-1 -32 -0.5 -58t4.5 -45t13.5 -31.5t27.5 -19t45.5 -6 t67.5 6.5l-6 -37q-133 -57 -207 -57q-30 0 -48.5 9t-33.5 36t-19.5 82t-0.5 141l10 154q3 64 14 135q-41 -114 -100 -236q-84 -169 -171 -247t-159 -78q-62 0 -97.5 84t-19.5 264l39 432q11 77 7 118.5t-40.5 53t-136.5 2.5zM242 1200l315 379h76q95 -135 152 -211t139 -174 q-52 -18 -88 -18q-41 0 -69.5 10.5t-55.5 39.5t-50 66t-62 104q-5 9 -7 13l-33 59l-219 -292z" />
<glyph unicode="&#xfc;" horiz-adv-x="1083" d="M53 934l6 35q144 67 232 67q68 0 89 -50t9 -189l-39 -422q-10 -98 -5 -154.5t15 -78t25 -21.5q33 0 86.5 57.5t114.5 173.5q130 243 147 393l4 29q8 61 13 119t6 85v28l162 28l-31 -346q-23 -273 -23 -409v-48q-1 -32 -0.5 -58t4.5 -45t13.5 -31.5t27.5 -19t45.5 -6 t67.5 6.5l-6 -37q-133 -57 -207 -57q-30 0 -48.5 9t-33.5 36t-19.5 82t-0.5 141l10 154q3 64 14 135q-41 -114 -100 -236q-84 -169 -171 -247t-159 -78q-62 0 -97.5 84t-19.5 264l39 432q11 77 7 118.5t-40.5 53t-136.5 2.5zM297 1350q0 45 28 74.5t72 29.5q46 0 73.5 -29.5 t27.5 -74.5t-28.5 -75t-72.5 -30q-46 0 -73 29.5t-27 75.5zM698 1350q0 45 28.5 74.5t72.5 29.5q46 0 73 -29.5t27 -74.5t-28 -75t-72 -30q-46 0 -73.5 30t-27.5 75z" />
<glyph unicode="&#xfd;" horiz-adv-x="960" d="M-113 -369q168 -19 274.5 20t172.5 128q30 41 38.5 107.5t-5 185t-52.5 299.5q-52 238 -100 353q-91 221 -217 224q-22 0 -76 -4l6 37q114 63 187 63q45 0 81 -14t76 -54.5t73.5 -109.5t67.5 -183.5t64 -270.5q26 -136 31.5 -263.5t-8.5 -171.5q87 123 152 313.5 t65 330.5q0 109 -28 222t-73 187q104 48 183.5 -25t79.5 -231q0 -104 -39 -243.5t-103.5 -282.5t-153 -283t-183 -248.5t-199 -175.5t-195.5 -67q-75 0 -102.5 43.5t-16.5 113.5zM262 1233l424 377q21 -31 27 -64q10 -58 -15.5 -107t-109.5 -98q-119 -72 -320 -174z" />
<glyph unicode="&#xfe;" horiz-adv-x="997" d="M-29 -512l4 47l86 27q36 11 45 20t13 43q8 74 18 271l68 1345q4 114 4 141q0 36 -13.5 51.5t-50.5 24.5l-84 23v39q166 57 299 57h15l-45 -883q-3 -99 -11 -162l21 62q40 118 90 208.5t98 140.5t91 74.5t79 24.5q35 0 69 -24t65 -72t50 -134t19 -196q0 -104 -18 -195.5 t-59 -172t-102.5 -138t-153 -91t-206.5 -33.5q-47 0 -65 2l-6 -94q-6 -98 -12 -269q-1 -33 6.5 -42.5t40.5 -18.5l102 -29l-4 -47h-453zM303 100q69 -16 156 -16q75 0 131 34.5t88 97.5t47.5 143.5t15.5 179.5q0 75 -7.5 137.5t-19 102.5t-26.5 68t-29 40t-26 12 q-47 0 -117.5 -91.5t-126.5 -238.5q-39 -108 -54.5 -174t-21.5 -164z" />
<glyph unicode="&#xff;" horiz-adv-x="960" d="M-113 -369q168 -19 274.5 20t172.5 128q30 41 38.5 107.5t-5 185t-52.5 299.5q-52 238 -100 353q-91 221 -217 224q-22 0 -76 -4l6 37q114 63 187 63q45 0 81 -14t76 -54.5t73.5 -109.5t67.5 -183.5t64 -270.5q26 -136 31.5 -263.5t-8.5 -171.5q87 123 152 313.5 t65 330.5q0 109 -28 222t-73 187q104 48 183.5 -25t79.5 -231q0 -104 -39 -243.5t-103.5 -282.5t-153 -283t-183 -248.5t-199 -175.5t-195.5 -67q-75 0 -102.5 43.5t-16.5 113.5zM166 1350q0 45 28 74.5t72 29.5q46 0 73.5 -29.5t27.5 -74.5t-28.5 -75t-72.5 -30 q-46 0 -73 29.5t-27 75.5zM567 1350q0 45 28.5 74.5t72.5 29.5q46 0 73 -29.5t27 -74.5t-28 -75t-72 -30q-46 0 -73.5 30t-27.5 75z" />
<glyph unicode="&#x152;" horiz-adv-x="1982" d="M82 682q0 247 82.5 429.5t243.5 279.5q147 88 340 88q43 0 166.5 -12.5t267.5 -12.5h590q0 -190 -19 -354h-72q-10 119 -18 172q-3 21 -8 32.5t-21.5 23.5t-43 17t-77.5 9.5t-120.5 6t-175.5 1.5l-21 -567q246 0 305 10q24 3 32.5 9t14.5 26q17 62 31 127h68l-15 -451 h-67q-4 33 -25 131q-6 28 -14 39t-27 12q-101 9 -307 9l-18 -590q66 -21 223 -21q167 0 222 14t77 62q39 97 76 209h71q-9 -83 -22.5 -178t-22.5 -149l-10 -54h-684q-145 0 -259 -14.5t-171 -14.5q-133 0 -244 43.5t-182 126.5q-166 191 -166 541zM281 713q0 -340 133 -504 q110 -137 280 -137h15q66 0 137.5 17.5t101.5 43.5q29 23 39.5 59.5t13.5 131.5l29 751q4 127 -5 171.5t-40 68.5q-36 26 -109 43.5t-163 17.5t-168 -37q-145 -65 -204.5 -216.5t-59.5 -409.5z" />
<glyph unicode="&#x153;" horiz-adv-x="1447" d="M106 414q0 292 126.5 462.5t330.5 170.5q169 0 254 -177q43 53 80 80q119 94 266 94q112 0 166.5 -53t54.5 -129q0 -122 -102 -210t-319 -117l-103 -15q1 -118 17.5 -200t47 -127.5t68.5 -64.5t88 -19q85 0 254 73l-4 -51q-75 -65 -163.5 -107t-161.5 -42 q-192 0 -263 182q-50 -88 -138.5 -136t-194.5 -48q-144 0 -224 122t-80 312zM272 481q0 -395 222 -395q104 0 155 111t51 348q0 395 -219 395q-105 0 -157 -111t-52 -348zM862 590l88 14q134 24 203.5 80t69.5 135q0 60 -30 95.5t-93 35.5q-220 0 -238 -360z" />
<glyph unicode="&#x178;" horiz-adv-x="1259" d="M39 1399v55h493v-55l-57 -13q-14 -3 -22 -5.5t-21 -6.5t-19 -8.5t-15.5 -11.5t-10.5 -14.5t-4 -19t4 -24.5q3 -10 7 -21.5t11 -26t12.5 -26t15.5 -30.5t16 -30.5t19 -35.5t19 -36l164 -308q151 256 283 514q21 41 -0.5 60.5t-87.5 32.5l-55 10v55h419v-55l-41 -10 q-44 -10 -90 -82q-211 -329 -395 -627l-10 -301q-4 -160 -4 -219q0 -37 14.5 -56t63.5 -30l77 -19v-55h-499v55l73 17q52 11 68 30.5t20 57.5q8 99 13 219l8 287l-209 399q-103 192 -133 244q-27 44 -42.5 58.5t-47.5 23.5zM346 1683q0 45 28 75t72 30q46 0 73.5 -30 t27.5 -75t-28.5 -74.5t-72.5 -29.5q-46 0 -73 29.5t-27 74.5zM748 1683q0 45 28 75t72 30q46 0 73 -29.5t27 -75.5q0 -45 -28 -74.5t-72 -29.5q-46 0 -73 29.5t-27 74.5z" />
<glyph unicode="&#x2c6;" horiz-adv-x="966" d="M102 1198l357 379h76q87 -118 155 -197t174 -188q-49 -18 -86 -18q-83 0 -141.5 49.5t-147.5 181.5l-36 53l-252 -284z" />
<glyph unicode="&#x2dc;" horiz-adv-x="876" d="M94 1253q10 126 68.5 193t138.5 67q53 0 141 -36l47 -21q73 -31 113 -31q41 0 79 31.5t62 102.5l37 -9q-9 -126 -67 -193t-138 -67q-50 0 -141 37l-47 21q-70 30 -113 30q-97 0 -143 -133z" />
<glyph unicode="&#x2000;" horiz-adv-x="969" />
<glyph unicode="&#x2001;" horiz-adv-x="1939" />
<glyph unicode="&#x2002;" horiz-adv-x="969" />
<glyph unicode="&#x2003;" horiz-adv-x="1939" />
<glyph unicode="&#x2004;" horiz-adv-x="646" />
<glyph unicode="&#x2005;" horiz-adv-x="484" />
<glyph unicode="&#x2006;" horiz-adv-x="323" />
<glyph unicode="&#x2007;" horiz-adv-x="323" />
<glyph unicode="&#x2008;" horiz-adv-x="242" />
<glyph unicode="&#x2009;" horiz-adv-x="387" />
<glyph unicode="&#x200a;" horiz-adv-x="107" />
<glyph unicode="&#x2010;" horiz-adv-x="624" d="M41 594l530 49l13 -117l-531 -47z" />
<glyph unicode="&#x2011;" horiz-adv-x="624" d="M41 594l530 49l13 -117l-531 -47z" />
<glyph unicode="&#x2012;" horiz-adv-x="624" d="M41 594l530 49l13 -117l-531 -47z" />
<glyph unicode="&#x2013;" horiz-adv-x="1024" d="M61 508v110h902v-110h-902z" />
<glyph unicode="&#x2014;" horiz-adv-x="2048" d="M61 508v110h1926v-110h-1926z" />
<glyph unicode="&#x2018;" horiz-adv-x="393" d="M74 1348q0 71 56.5 160t180.5 178l80 8q-65 -60 -104 -111.5t-50.5 -91.5t-9 -69t16.5 -58q11 -22 26 -40t24 -25l9 -7q-15 -39 -46 -62.5t-67 -23.5q-43 0 -79.5 38.5t-36.5 103.5z" />
<glyph unicode="&#x2019;" horiz-adv-x="393" d="M2 1135q65 60 104 111.5t50.5 91.5t9.5 68.5t-16 57.5q-11 22 -26 40t-24 25l-10 7q15 39 46 62.5t67 23.5q43 0 79.5 -38t36.5 -103q0 -71 -56.5 -160t-180.5 -178z" />
<glyph unicode="&#x201a;" horiz-adv-x="393" d="M2 -274q65 60 104 111.5t50.5 91.5t9.5 68.5t-16 57.5q-11 22 -26 40t-24 25l-10 7q15 39 46 62.5t67 23.5q43 0 79.5 -38t36.5 -103q0 -71 -56.5 -160t-180.5 -178z" />
<glyph unicode="&#x201c;" horiz-adv-x="759" d="M74 1348q0 71 56.5 160t180.5 178l80 8q-65 -60 -104 -111.5t-50.5 -91.5t-9 -69t16.5 -58q11 -22 26 -40t24 -25l9 -7q-15 -39 -46 -62.5t-67 -23.5q-43 0 -79.5 38.5t-36.5 103.5zM440 1348q0 70 57 159.5t181 178.5l80 8q-65 -60 -104 -112t-50.5 -91.5t-9.5 -68.5 t16 -58q11 -22 26 -40t24 -25l10 -7q-15 -39 -46 -62.5t-67 -23.5q-43 0 -80 38.5t-37 103.5z" />
<glyph unicode="&#x201d;" horiz-adv-x="759" d="M2 1135q65 60 104 111.5t50.5 91.5t9.5 68.5t-16 57.5q-11 22 -26 40t-24 25l-10 7q15 39 46 62.5t67 23.5q43 0 79.5 -38t36.5 -103q0 -71 -56.5 -160t-180.5 -178zM369 1135q65 60 104 111.5t50.5 91.5t9 68.5t-16.5 57.5q-11 22 -26 40t-24 25l-9 7q15 39 45.5 62.5 t66.5 23.5q43 0 80 -38t37 -103q0 -71 -56.5 -160t-180.5 -178z" />
<glyph unicode="&#x201e;" horiz-adv-x="759" d="M2 -272q65 60 104 111.5t50.5 91.5t9.5 68.5t-16 57.5q-11 22 -26 40t-24 25l-10 7q15 39 46 62.5t67 23.5q43 0 79.5 -38t36.5 -103q0 -71 -56.5 -160t-180.5 -178zM369 -272q65 60 104 111.5t50.5 91.5t9 68.5t-16.5 57.5q-11 22 -26 40t-24 25l-9 7q15 39 45.5 62.5 t66.5 23.5q43 0 80 -38t37 -103q0 -71 -56.5 -160t-180.5 -178z" />
<glyph unicode="&#x2022;" horiz-adv-x="524" d="M113 690q0 66 43 110t110 44q66 0 107 -49t41 -117q-2 -63 -48.5 -105.5t-113.5 -42.5q-65 0 -103 47.5t-36 112.5z" />
<glyph unicode="&#x2026;" horiz-adv-x="1019" d="M74 100q0 46 30.5 77.5t77.5 31.5q46 0 74.5 -34.5t28.5 -80.5t-32 -76t-79 -30q-45 0 -72.5 33t-27.5 79zM406 100q0 46 30.5 77.5t77.5 31.5q45 0 73.5 -34.5t28.5 -80.5t-31.5 -76t-78.5 -30t-73.5 32.5t-26.5 79.5zM737 100q0 46 31 77.5t78 31.5q45 0 72.5 -34 t27.5 -81q0 -46 -30.5 -76t-79.5 -30q-45 0 -72 33t-27 79z" />
<glyph unicode="&#x202f;" horiz-adv-x="387" />
<glyph unicode="&#x2039;" horiz-adv-x="473" d="M27 453v96l354 477l29 -123l-271 -354l80 -84q109 -115 149 -181.5t40 -144.5q0 -57 -25 -123q-150 202 -356 437z" />
<glyph unicode="&#x203a;" horiz-adv-x="473" d="M66 141l268 353l-78 84q-109 117 -148.5 182.5t-39.5 144.5q0 63 22 121q174 -228 359 -434v-98l-357 -478z" />
<glyph unicode="&#x205f;" horiz-adv-x="484" />
<glyph unicode="&#x20ac;" d="M-10 555v82h153v49q0 62 7 137h-160v84h170q57 327 270 477q66 45 145 69t146 24q83 0 159 -22t117 -62q43 -41 43 -86q0 -48 -39 -101q-200 144 -366 144q-131 0 -201 -90q-79 -100 -100 -353h524v-84h-528q-2 -39 -2 -123v-63h530v-82h-524q42 -455 362 -455 q100 0 297 74l-16 -65q-184 -129 -356 -129q-121 0 -210 42t-143.5 122t-83 180.5t-37.5 230.5h-157z" />
<glyph unicode="&#x2122;" horiz-adv-x="2197" d="M66 1210q-10 122 0 254q68 -10 127 -10h524q59 0 127 10q8 -106 0 -254h-51q-32 122 -37 131q-12 26 -44 37t-100 11h-92v-609q0 -106 2 -137q0 -17 14 -25.5t58 -19.5l41 -10v-49h-361v49l41 10q44 10 57 18.5t15 26.5q2 31 2 137v609h-92q-68 0 -98.5 -10.5 t-42.5 -37.5q-10 -17 -37 -131h-53zM930 539v49l43 10q41 10 53.5 18.5t15.5 26.5q2 12 2 137l5 432q0 109 -2 136q-1 20 -14.5 28t-59.5 19l-39 10v49h268l330 -715l328 715h272v-49l-39 -10q-47 -11 -61 -19t-15 -28q-2 -27 -2 -136l4 -432q0 -125 2 -137q3 -18 16 -26.5 t56 -18.5l43 -10v-49h-360v49l43 10q42 10 54 18.5t15 26.5q2 12 2 137l-4 545l-366 -786h-37l-350 741l-5 -500q0 -125 2 -137q2 -18 14.5 -26.5t55.5 -18.5l43 -10v-49h-313z" />
<glyph unicode="&#x25fc;" horiz-adv-x="1054" d="M0 0v1055h1055v-1055h-1055z" />
<glyph unicode="&#xfb01;" horiz-adv-x="1130" d="M-256 -412q0 26 10 56q3 0 35 -6.5t68.5 -10.5t79.5 -4q123 0 178.5 114t64.5 369l25 799h-164l6 74l162 20q5 94 28.5 176.5t58 141t79 107t90.5 79t93.5 51t86 29t70.5 8.5q91 0 133.5 -30.5t42.5 -79.5q0 -30 -23 -78q-83 31 -136.5 44t-110.5 13q-235 0 -248 -321 l-6 -140h204v-96h-209l-24 -655q-5 -145 -40 -282t-93.5 -247.5t-146 -177.5t-189.5 -67q-59 0 -92 31t-33 83zM647 942l4 37q131 57 207 57q21 0 36 -4.5t31.5 -18t23.5 -39t12 -68t-3 -103.5l-47 -543q-10 -77 -6 -118.5t40 -53t136 -2.5l-4 -35q-144 -67 -231 -67 q-68 0 -88 50t-8 189l45 518q8 80 7 129.5t-35.5 67t-119.5 4.5z" />
<glyph unicode="&#xfb02;" horiz-adv-x="1132" d="M-256 -412q0 26 10 56q3 0 35 -6.5t68.5 -10.5t79.5 -4q123 0 178.5 114t64.5 369l25 799h-164l6 74l162 20q5 96 27 178.5t53.5 142t73.5 107t85.5 77t90.5 49.5t88 28t78 8q69 0 126 -24q54 12 121 12h15l-68 -1278q-1 -34 -1.5 -62.5t3 -51t8.5 -39.5t16.5 -29 t26.5 -20t38.5 -11.5t52 -3t67.5 3.5l-4 -37q-156 -65 -232 -65q-73 0 -107.5 61t-27.5 209l54 932q6 132 6 198q0 80 -168 80q-43 0 -77 -8t-68.5 -30t-58 -59t-39 -98.5t-17.5 -144.5l-4 -125h223v-96h-228l-24 -655q-5 -145 -40 -282t-93.5 -247.5t-146 -177.5 t-189.5 -67q-59 0 -92 31t-33 83z" />
<glyph unicode="&#xfb03;" horiz-adv-x="1691" d="M-256 -412q0 26 10 56q3 0 34.5 -6.5t68 -10.5t80.5 -4q121 0 176.5 114.5t64.5 368.5l27 799h-164l4 74l162 20q6 108 34.5 197t73 148.5t97 103.5t111 67.5t109 34.5t97.5 11q86 0 153 -31t85 -72q70 67 156.5 100t152.5 33q92 0 135 -30.5t43 -79.5q0 -35 -24 -78 q-84 31 -136.5 44t-109.5 13q-28 0 -51.5 -3.5t-61 -21.5t-64 -50t-47.5 -95.5t-24 -150.5l-6 -140h203v-96h-207l-23 -592q-15 -359 -154 -571.5t-364 -212.5q-99 0 -162.5 27t-83.5 69q-125 -147 -272 -147q-58 0 -90.5 30t-32.5 82zM201 -279q47 -21 119.5 -37t134.5 -16 q52 0 91.5 12.5t75.5 45t60.5 87t40.5 142t20 205.5l25 745h-406l-26 -657q-13 -302 -135 -527zM367 999h403q11 210 123 373q-112 64 -248 64q-42 0 -77 -6.5t-72.5 -26.5t-63 -53t-43.5 -91t-20 -135zM1208 942l4 37q131 57 205 57q22 0 37.5 -4.5t32 -18t23.5 -39t12 -68 t-2 -103.5l-47 -543q-10 -77 -6 -118.5t39.5 -53t135.5 -2.5l-4 -35q-148 -67 -231 -67q-68 0 -88 50t-8 189l45 518q8 80 7 129.5t-35.5 67t-119.5 4.5z" />
<glyph unicode="&#xfb04;" horiz-adv-x="1693" d="M-256 -412q0 26 10 56q3 0 34.5 -6.5t68 -10.5t80.5 -4q121 0 176.5 114.5t64.5 368.5l27 799h-164l4 74l162 20q7 129 46 230.5t93.5 162t124.5 100.5t132 54.5t122 14.5q83 0 149.5 -27.5t86.5 -69.5q69 64 152.5 94.5t154.5 30.5q72 0 125 -24q54 12 123 12h12 l-66 -1278q-1 -34 -2 -62.5t2.5 -51t8.5 -39.5t16.5 -29t26.5 -20t38.5 -11.5t52.5 -3t68 3.5l-6 -37q-152 -65 -231 -65q-73 0 -106.5 60.5t-26.5 209.5l51 932q8 176 8 198q0 80 -168 80q-43 0 -77 -8t-68.5 -30t-58 -59t-39 -98.5t-17.5 -144.5l-4 -125h223v-96h-227 l-23 -592q-15 -359 -154 -571.5t-364 -212.5q-99 0 -162.5 27t-83.5 69q-125 -147 -272 -147q-58 0 -90.5 30t-32.5 82zM201 -279q47 -21 119.5 -37t134.5 -16q52 0 91.5 12.5t75.5 45t60.5 87t40.5 142t20 205.5l25 745h-406l-26 -657q-13 -302 -135 -527zM367 999h403 q11 219 113 375q-107 62 -242 62q-44 0 -79 -6.5t-71.5 -26.5t-61 -53t-41.5 -90.5t-19 -135.5z" />
</font>
</defs>
</svg>
