<?xml version="1.0" standalone="no"?>
<!DOCTYPE svg PUBLIC "-//W3C//DTD SVG 1.1//EN" "http://www.w3.org/Graphics/SVG/1.1/DTD/svg11.dtd" >
<svg xmlns="http://www.w3.org/2000/svg">
<metadata></metadata>
<defs>
<font id="novel_sans_prosemibold" horiz-adv-x="1198" >
<font-face units-per-em="2048" ascent="1638" descent="-410" />
<missing-glyph horiz-adv-x="337" />
<glyph horiz-adv-x="0" />
<glyph horiz-adv-x="682" />
<glyph unicode=" "  horiz-adv-x="337" />
<glyph unicode="&#x09;" horiz-adv-x="337" />
<glyph unicode="&#xa0;" horiz-adv-x="337" />
<glyph unicode="!" horiz-adv-x="587" d="M147 133q0 61 42 103.5t108 42.5q64 0 103.5 -43.5t39.5 -108.5q0 -63 -41 -104t-106 -41q-64 0 -105 42.5t-41 108.5zM162 1454h264l-4 -274q-4 -392 -29 -711h-198q-27 348 -31 711z" />
<glyph unicode="&#x22;" horiz-adv-x="796" d="M106 1454h203l-4 -184q-2 -73 -7 -150t-9 -118l-4 -41h-154q-16 145 -20 309zM485 1454h203l-4 -184q-2 -73 -7 -150t-9 -118l-4 -41h-154q-17 145 -21 309z" />
<glyph unicode="#" d="M43 274l20 175h175l47 397h-174l22 172h174l33 266h188l-32 -266h288l35 266h187l-33 -266h176l-23 -172h-174l-47 -397h174l-22 -175h-174l-33 -274h-188l32 274h-288l-35 -274h-189l33 274h-172zM426 449h291l47 397h-289z" />
<glyph unicode="$" d="M129 283q214 -72 365 -78l18 446q-201 85 -283 184.5t-82 225.5q2 150 112 260.5t321 132.5l10 205l121 -4l-9 -197q142 -3 302 -45l-19 -203q-164 47 -293 50l-18 -422q112 -44 189 -94t119 -103.5t59.5 -106.5t17.5 -114q0 -53 -15 -105.5t-50 -105.5t-86 -95t-129 -72 t-173 -40l-8 -205l-121 6l6 197q-177 7 -348 74zM399 1079q0 -115 158 -192l14 366q-85 -13 -128.5 -62.5t-43.5 -111.5zM614 209q95 12 139 65t44 121q0 125 -166 207z" />
<glyph unicode="%" horiz-adv-x="1726" d="M76 1096q0 95 27.5 169t75 119t108 68t129.5 23q143 0 235 -97.5t92 -265.5q0 -95 -27.5 -169.5t-74.5 -120t-107 -68.5t-128 -23q-144 0 -237 98t-93 267zM254 1110q0 -107 43.5 -167t116.5 -60q153 0 153 213q0 109 -43 168t-118 59q-68 0 -110 -50t-42 -163zM446 20 l711 1526l152 -61l-711 -1530zM987 344q0 95 28 169t75.5 119t108 68t128.5 23q143 0 235.5 -97.5t92.5 -265.5q0 -95 -27.5 -169.5t-75 -119.5t-107.5 -68t-128 -23q-144 0 -237 97.5t-93 266.5zM1165 358q0 -107 43.5 -167t116.5 -60q154 0 154 213q0 107 -43.5 167 t-118.5 60q-68 0 -110 -50t-42 -163z" />
<glyph unicode="&#x26;" horiz-adv-x="1693" d="M121 416q0 240 272 385q-170 170 -170 321q0 153 115.5 253t298.5 100t287 -96t104 -238q0 -239 -293 -377q186 -178 385 -328q109 141 109 385q0 103 -21 213h217q33 -101 33 -207q0 -306 -160 -516q114 -85 312 -200l-187 -150q-127 67 -288 184q-97 -79 -218 -122 t-249 -43q-131 0 -237.5 37t-172.5 99t-101.5 139t-35.5 161zM358 444q0 -108 85.5 -187t234.5 -79q161 0 285 103q-162 129 -447 391q-83 -43 -120.5 -103.5t-37.5 -124.5zM449 1130q0 -56 31.5 -109.5t121.5 -137.5q64 30 108.5 64.5t66 68t30 60.5t8.5 54q0 72 -51.5 119 t-132.5 47q-83 0 -132.5 -44.5t-49.5 -121.5z" />
<glyph unicode="'" horiz-adv-x="417" d="M106 1454h203l-4 -184q-2 -73 -7 -150t-9 -118l-4 -41h-154q-16 145 -20 309z" />
<glyph unicode="(" horiz-adv-x="1001" d="M174 553q0 404 163.5 701.5t471.5 484.5l160 -92q-578 -364 -578 -1094q0 -729 580 -1094l-160 -92q-310 186 -473.5 483.5t-163.5 702.5z" />
<glyph unicode=")" horiz-adv-x="1001" d="M31 -541q579 365 579 1094t-579 1094l159 92q309 -187 473 -484.5t164 -701.5q0 -405 -163 -702t-471 -484z" />
<glyph unicode="*" horiz-adv-x="980" d="M106 936l95 49q94 47 211 84q-113 32 -211 82l-95 49l84 143l89 -57q71 -45 176 -141q-29 137 -33 225l-4 105h166l-4 -105q-5 -100 -35 -223q97 88 178 139l88 57l84 -143l-94 -49q-96 -49 -213 -82q128 -40 213 -84l94 -49l-84 -143l-88 57q-92 59 -178 141 q27 -114 35 -225l4 -104h-166l4 104q5 108 33 225q-78 -78 -176 -141l-89 -57z" />
<glyph unicode="+" horiz-adv-x="1142" d="M82 520v178h399v365h178v-365h400v-178h-400v-364h-178v364h-399z" />
<glyph unicode="," horiz-adv-x="487" d="M10 -236q70 73 110.5 132t51 103t4.5 75.5t-26 62.5q-14 18 -29 33t-23 21t-10 6q19 57 60 85.5t85 28.5q61 0 105 -41q72 -56 72 -164q0 -204 -267 -430z" />
<glyph unicode="-" horiz-adv-x="665" d="M51 467v192h563v-192h-563z" />
<glyph unicode="&#xad;" horiz-adv-x="665" d="M51 467v192h563v-192h-563z" />
<glyph unicode="." horiz-adv-x="514" d="M106 135q0 64 42.5 106t111.5 42q66 0 107 -43.5t41 -112.5q0 -64 -43 -105.5t-111 -41.5q-66 0 -107 43.5t-41 111.5z" />
<glyph unicode="/" horiz-adv-x="966" d="M-20 -459l833 2231l176 -68l-835 -2230z" />
<glyph unicode="0" d="M61 715q0 190 40.5 336.5t114.5 238.5t174 138.5t222 46.5q118 0 212 -43t165 -130t109.5 -230t38.5 -333t-40.5 -336.5t-114.5 -238t-174.5 -138t-223.5 -46.5q-117 0 -211 42.5t-164.5 130t-109 230t-38.5 332.5zM311 731q0 -268 73 -405.5t210 -137.5q67 0 118 27 t91.5 87.5t62 166.5t21.5 254q0 268 -73 405.5t-210 137.5q-67 0 -118 -27t-91.5 -87.5t-62 -166.5t-21.5 -254z" />
<glyph unicode="1" d="M125 1401l389 53h223v-1255l287 -11v-188h-848v188l318 11v1044l-353 -35z" />
<glyph unicode="2" d="M150 0v193l276 288q104 108 172 194.5t100 149.5t43 105.5t11 87.5q0 115 -77 181.5t-196 66.5q-149 0 -313 -92l-16 200q173 101 376 101q110 0 202.5 -35t154.5 -94.5t96.5 -139t34.5 -168.5q0 -64 -15.5 -126.5t-54.5 -141t-114.5 -174t-186.5 -205.5l-176 -178h618 l-20 -213h-915z" />
<glyph unicode="3" d="M145 303q203 -119 381 -119q127 0 196 57.5t69 149.5q0 43 -19.5 83t-62 76.5t-120.5 63.5t-183 37v176q102 13 175 39.5t112 62.5t56 73.5t17 78.5q0 82 -65.5 137.5t-180.5 55.5q-162 0 -327 -98l-17 200q172 99 381 99q110 0 199.5 -31t145 -83t85 -117t29.5 -136 q0 -46 -14 -92.5t-44.5 -94.5t-87 -90.5t-133.5 -70.5q83 -23 145.5 -64t97.5 -91.5t52 -101.5t17 -102q0 -80 -32.5 -153.5t-94 -134t-163 -97t-227.5 -36.5q-213 0 -385 106z" />
<glyph unicode="4" d="M55 330v182l635 942h260v-919h189l-19 -205h-170v-330h-243v330h-652zM305 535h402v454q0 44 1.5 83.5t3.5 57.5l1 17z" />
<glyph unicode="5" d="M164 752l125 692l770 43l-27 -223l-549 -31l-55 -301q137 -14 245 -50.5t177 -84.5t114.5 -110t64 -124.5t18.5 -130.5q0 -84 -33 -164t-93.5 -144.5t-158.5 -104t-217 -39.5q-194 0 -369 96v219q195 -105 342 -105q124 0 192 69t68 163q0 43 -16 84t-59 85t-109.5 77.5 t-177 56.5t-252.5 27z" />
<glyph unicode="6" d="M98 657q0 195 56.5 349t158.5 255t244 154t315 53q90 0 172 -12v-201q-93 7 -151 7q-103 0 -192.5 -26t-161 -78t-117.5 -136t-57 -193q123 66 260 66q201 0 338 -123t137 -323q0 -126 -57.5 -232.5t-166.5 -171.5t-247 -65q-85 0 -162.5 24.5t-145 78t-117 131.5 t-78 191.5t-28.5 251.5zM350 631q-3 -123 22.5 -214.5t68.5 -139t89 -69.5t93 -22q101 0 162 65.5t61 178.5t-76.5 184.5t-196.5 71.5q-124 0 -223 -55z" />
<glyph unicode="7" d="M127 1223l14 231h922v-213l-633 -1270l-217 88l582 1164h-668z" />
<glyph unicode="8" d="M88 367q0 227 268 362q-70 38 -120 84.5t-75 94.5t-35.5 89t-10.5 82q0 81 34 152.5t95.5 126t155.5 86t208 31.5q213 0 336 -101.5t123 -257.5q0 -105 -64 -195t-194 -153q301 -138 301 -377q0 -73 -32 -144t-93.5 -131.5t-165 -98t-233.5 -37.5q-221 0 -359.5 110 t-138.5 277zM332 389q0 -93 71.5 -157t194.5 -64q114 0 180 60t66 139q0 173 -299 280q-117 -53 -165 -117.5t-48 -140.5zM371 1100q0 -71 53.5 -133t189.5 -119q114 48 164.5 113.5t50.5 138.5q0 82 -62.5 136t-168.5 54q-105 0 -166 -53t-61 -137z" />
<glyph unicode="9" d="M98 1006q0 126 57.5 232.5t166.5 171.5t247 65q85 0 162.5 -24.5t145 -78t117 -132t78 -192t28.5 -251.5q0 -195 -56.5 -349t-158.5 -255t-244 -154t-315 -53q-92 0 -172 12v201q79 -6 149 -6q216 0 361.5 109t166.5 323q-120 -66 -260 -66q-130 0 -237.5 54t-171.5 157 t-64 236zM352 1024q0 -113 76 -184.5t197 -71.5q124 0 223 55q3 123 -22.5 214.5t-68.5 139t-89 69.5t-93 22q-101 0 -162 -65.5t-61 -178.5z" />
<glyph unicode=":" horiz-adv-x="514" d="M106 135q0 64 42.5 106t111.5 42q66 0 107 -43.5t41 -112.5q0 -64 -43 -105.5t-111 -41.5q-66 0 -107 43.5t-41 111.5zM106 807q0 64 42.5 105.5t111.5 41.5q66 0 107 -43t41 -112q0 -64 -43 -106t-111 -42q-66 0 -107 44t-41 112z" />
<glyph unicode=";" horiz-adv-x="538" d="M31 -236q70 73 110.5 132t50.5 103t4 75.5t-26 62.5q-14 18 -29 33t-23 21t-9 6q19 57 60 85.5t85 28.5q60 0 104 -41q72 -56 72 -164q0 -204 -266 -430zM123 807q0 64 42 105.5t111 41.5q66 0 107 -43t41 -112q0 -64 -43 -106t-111 -42q-65 0 -106 44t-41 112z" />
<glyph unicode="&#x3c;" horiz-adv-x="1167" d="M72 512v150l1024 509v-192l-777 -389l777 -385v-203z" />
<glyph unicode="=" horiz-adv-x="1142" d="M84 274v181h975v-181h-975zM84 731v176h975v-176h-975z" />
<glyph unicode="&#x3e;" horiz-adv-x="1167" d="M72 12v197l774 387l-774 387v199l1024 -510v-150z" />
<glyph unicode="?" horiz-adv-x="866" d="M100 1427q141 48 285 48q96 0 173.5 -28.5t125 -75.5t73 -103.5t25.5 -116.5q0 -175 -168 -307l-47 -37q-108 -86 -108 -178q0 -54 35 -129l-193 -56q-90 128 -90 232q0 62 33.5 123.5t128.5 136.5l47 37q58 45 81 82.5t23 77.5q0 60 -52.5 99.5t-139.5 39.5 q-91 0 -207 -39zM227 133q0 61 42 103.5t108 42.5q64 0 103.5 -43.5t39.5 -108.5q0 -63 -41 -104t-106 -41q-64 0 -105 42.5t-41 108.5z" />
<glyph unicode="@" horiz-adv-x="2242" d="M168 502q0 185 50.5 343t141 272.5t213 196t269 121.5t307.5 40q217 0 393 -65t292 -180t178.5 -271.5t62.5 -340.5q0 -133 -29.5 -245t-79.5 -188t-116 -129.5t-138 -78t-147 -24.5q-90 0 -150 35.5t-98 113.5q-142 -131 -318 -131q-132 0 -216.5 73.5t-84.5 197.5 q0 50 14.5 94t53.5 88.5t101.5 76.5t166 52.5t238.5 21.5v27q0 93 -19 135q-43 88 -172 88q-152 0 -307 -77l-16 163q69 44 166.5 68.5t181.5 24.5q242 0 334 -142q31 -50 42 -114t11 -160v-295q0 -172 109 -172q31 0 64.5 13.5t70 48.5t64.5 86.5t46.5 136t18.5 188.5 q0 205 -85.5 364.5t-251 250.5t-388.5 91q-156 0 -292.5 -48.5t-242.5 -142t-167.5 -243.5t-61.5 -338q0 -214 59.5 -379.5t170 -270.5t262.5 -158.5t341 -53.5q139 0 344 47l15 -172q-192 -53 -385 -53q-223 0 -408 64.5t-321 189t-211.5 318.5t-75.5 442zM907 264 q0 -55 41.5 -90t118.5 -35q111 0 205 76v213q-104 2 -179 -12t-113.5 -39t-55.5 -53t-17 -60z" />
<glyph unicode="A" horiz-adv-x="1529" d="M86 0l516 1450l287 8l551 -1458h-281l-133 362h-563l-121 -362h-256zM526 559h430l-163 449l-62 178q-1 -1 -6.5 -22.5t-18.5 -65.5t-28 -90z" />
<glyph unicode="B" horiz-adv-x="1343" d="M193 0v1454h299q146 0 244 -22.5t177 -67.5q185 -105 185 -301q0 -107 -61 -189.5t-167 -117.5q162 -29 244 -128t82 -216q0 -105 -54 -193t-159 -147q-129 -72 -403 -72h-387zM449 197h149q145 0 213 30q56 25 89.5 71t33.5 110q0 106 -95.5 173.5t-281.5 67.5h-108 v-452zM449 825h102q128 0 184 31q115 61 115 188q0 106 -102 173q-85 53 -238 53h-61v-445z" />
<glyph unicode="C" horiz-adv-x="1558" d="M117 723q0 207 76.5 358.5t203.5 245.5q205 148 525 148q224 0 428 -78l-21 -213q-231 73 -414 73q-233 0 -366 -110q-170 -137 -170 -406q0 -154 63.5 -275.5t191 -194t300.5 -72.5q205 0 457 98l-13 -219q-229 -98 -460 -98q-298 0 -486 122q-147 95 -231 258.5 t-84 362.5z" />
<glyph unicode="D" horiz-adv-x="1646" d="M193 0v1454q150 2 405 2q489 0 721 -221q207 -195 207 -487q0 -151 -56 -287t-165 -242q-111 -108 -259 -164.5t-362 -56.5q-290 0 -491 2zM449 213q100 -4 235 -4q162 0 271 43.5t184 128.5q125 140 125 344q0 213 -144 354q-89 88 -214 126t-310 38q-94 0 -147 -2 v-1028z" />
<glyph unicode="E" horiz-adv-x="1216" d="M193 0v1454h802v-213h-546v-401h512v-207h-512v-420h600l-17 -213h-839z" />
<glyph unicode="F" horiz-adv-x="1169" d="M193 0v1454h802v-213h-546v-455h524v-211h-524v-575h-256z" />
<glyph unicode="G" horiz-adv-x="1615" d="M117 731q0 203 74 351t200 241q210 152 541 152q243 0 448 -74l-22 -215q-220 71 -430 71q-250 0 -385 -112q-164 -142 -164 -397q0 -118 36 -218t104.5 -175t177 -117.5t245.5 -42.5q93 0 227 28v455h256v-445l2 -176q-273 -77 -501 -77q-301 0 -492 122 q-148 95 -232.5 260t-84.5 369z" />
<glyph unicode="H" horiz-adv-x="1603" d="M193 0v1454h256v-614h708v614h254v-1454h-254v618h-708v-618h-256z" />
<glyph unicode="I" horiz-adv-x="641" d="M193 0v1454h256v-1454h-256z" />
<glyph unicode="J" horiz-adv-x="647" d="M-49 -358q151 99 200.5 192t49.5 272v1348h254v-1317q0 -182 -43 -307t-129 -209t-232 -156z" />
<glyph unicode="K" horiz-adv-x="1517" d="M193 0v1454h256v-1454h-256zM479 733l627 721h301l-625 -692l639 -762h-336l-487 596q-64 79 -119 137z" />
<glyph unicode="L" horiz-adv-x="1161" d="M193 0v1454h256v-1241h600l-17 -213h-839z" />
<glyph unicode="M" horiz-adv-x="2103" d="M184 0l58 1454h350l450 -1147l463 1147h353l63 -1454h-256l-41 905q-4 100 -4 238q-37 -105 -80 -211l-377 -932h-258l-370 936q-54 135 -74 205q0 -144 -2 -234l-35 -907h-240z" />
<glyph unicode="N" horiz-adv-x="1679" d="M193 0v1454h280l776 -1079q-4 94 -4 188v891h242v-1454h-279l-778 1087q4 -47 4 -227v-860h-241z" />
<glyph unicode="O" horiz-adv-x="1765" d="M117 743q0 199 84 352t229 248q196 132 461 132q361 0 567 -218q191 -201 191 -505q0 -207 -87 -377t-239 -271q-180 -124 -457 -124q-137 0 -261 41.5t-218 115.5q-130 103 -200 259.5t-70 346.5zM381 762q0 -136 45.5 -252t128.5 -193q58 -55 142 -88.5t171 -33.5h13 q185 0 305 88q95 70 146.5 187.5t51.5 260.5q0 111 -36 210t-103 171q-142 148 -377 148q-170 0 -299 -93q-88 -63 -138 -168.5t-50 -236.5z" />
<glyph unicode="P" horiz-adv-x="1275" d="M193 0v1454h296q171 0 285.5 -26.5t206.5 -94.5q178 -133 178 -362q0 -142 -70 -258t-196 -174q-107 -51 -247 -51q-40 0 -83 4v200q19 -1 37 -1q113 0 174 38q58 34 91.5 92t33.5 129q0 143 -104 217q-97 70 -287 70h-59v-1237h-256z" />
<glyph unicode="Q" horiz-adv-x="1765" d="M117 743q0 200 84.5 353.5t228.5 246.5q195 134 461 134q359 0 567 -220q191 -201 191 -503q0 -208 -86.5 -377.5t-239.5 -272.5q-90 -67 -217 -92q70 -51 172 -108q151 -79 274.5 -116.5t266.5 -37.5q94 0 135 8l-12 -180q-102 -24 -207 -24q-182 0 -331 44.5 t-304 141.5q-39 24 -81.5 55.5t-70 53.5t-83 68t-83.5 69q-227 18 -395 153q-130 103 -200 259.5t-70 344.5zM381 764q0 -138 45.5 -254t128.5 -193q58 -55 142 -88.5t171 -33.5h13q185 0 305 88q95 72 146.5 188.5t51.5 261.5q0 111 -36 209t-103 170q-139 148 -377 148 q-174 0 -299 -93q-88 -63 -138 -168t-50 -235z" />
<glyph unicode="R" horiz-adv-x="1507" d="M193 0v1454h331q174 0 292.5 -32t203.5 -101q147 -123 147 -324q0 -123 -56.5 -221.5t-176.5 -157.5l160 -198q111 -137 185.5 -185.5t180.5 -64.5l-33 -182q-25 -1 -47 -1q-39 1 -69 3q-48 4 -98 16t-89.5 34t-85.5 60.5t-93 91.5t-105 130l-160 210h-231v-532h-256z M449 725q108 -4 190 -4q104 0 176 61q88 71 88 195q0 56 -24.5 109t-71.5 90q-53 41 -118 56t-163 15h-77v-522z" />
<glyph unicode="S" horiz-adv-x="1191" d="M119 272q235 -77 393 -77q75 0 130 17.5t83 46.5t40.5 60t12.5 66q0 30 -7 54.5t-26 53t-60 57t-103 56.5l-107 47q-185 83 -259.5 182.5t-74.5 229.5q1 80 33.5 152.5t94.5 130.5t162.5 92.5t227.5 34.5q183 0 342 -54l-18 -207q-177 52 -307 52q-133 0 -197.5 -51.5 t-64.5 -129.5q0 -62 43.5 -112t173.5 -107l104 -47q184 -83 255 -180.5t71 -226.5q0 -61 -17.5 -119.5t-58.5 -116t-102 -100.5t-155 -69.5t-210 -26.5q-215 0 -393 73z" />
<glyph unicode="T" horiz-adv-x="1294" d="M80 1241v213h1145l-15 -213h-440v-1241h-254v1241h-436z" />
<glyph unicode="U" horiz-adv-x="1601" d="M186 705v749h254v-758q0 -139 17.5 -227.5t68.5 -151.5q91 -118 293 -118q172 0 260 102q53 60 74 146.5t21 222.5v784h241v-747q0 -203 -33.5 -331t-119.5 -220q-75 -81 -194 -130t-271 -49q-342 0 -496 205q-66 87 -90.5 207.5t-24.5 315.5z" />
<glyph unicode="V" horiz-adv-x="1462" d="M51 1454h279l415 -1173l412 1173h254l-528 -1450l-291 -8z" />
<glyph unicode="W" horiz-adv-x="2220" d="M55 1454h273l393 -1202l272 833l-129 369h264l404 -1188l366 1188h250l-469 -1450l-303 -8l-270 772l-258 -764l-303 -8z" />
<glyph unicode="X" horiz-adv-x="1492" d="M76 1454h313l373 -543l346 543h276l-479 -731l512 -723h-323l-371 539l-340 -539h-279l478 725z" />
<glyph unicode="Y" horiz-adv-x="1417" d="M31 1454h299l395 -616l389 616h272l-552 -844v-610h-254v608z" />
<glyph unicode="Z" horiz-adv-x="1329" d="M111 0v174l704 1065h-682v215h1012v-166l-715 -1075h782l-16 -213h-1085z" />
<glyph unicode="[" horiz-adv-x="761" d="M184 -621v2341h527l-6 -159h-318v-2022h324l-6 -160h-521z" />
<glyph unicode="\" horiz-adv-x="966" d="M-23 1704l177 68l833 -2231l-174 -67z" />
<glyph unicode="]" horiz-adv-x="761" d="M51 -621l6 160h318v2022h-324l6 159h521v-2341h-527z" />
<glyph unicode="^" horiz-adv-x="991" d="M49 496l375 804h149l371 -804h-205l-245 544l-242 -544h-203z" />
<glyph unicode="_" horiz-adv-x="1024" d="M0 -41h1024v-201h-1024v201z" />
<glyph unicode="`" horiz-adv-x="741" d="M102 1440l56 188l481 -299l-57 -155z" />
<glyph unicode="a" horiz-adv-x="1101" d="M82 258q0 52 15 98t56 93t105.5 80.5t172 55t247.5 23.5v27q0 95 -19 137q-42 92 -180 92q-151 0 -319 -82l-17 174q73 47 173.5 72t191.5 25q253 0 348 -148q33 -51 44 -118.5t11 -168.5v-311q0 -85 11 -111q21 -52 113 -57h28l-10 -145q-71 -14 -138 -14 q-157 0 -204 120q-131 -123 -316 -123q-138 0 -225.5 76.5t-87.5 204.5zM301 283q0 -56 43 -92.5t123 -36.5q111 0 211 77v220h-27q-91 0 -158 -12q-77 -14 -117 -39.5t-57.5 -54t-17.5 -62.5z" />
<glyph unicode="b" horiz-adv-x="1220" d="M129 43q14 82 14 199v1327l242 22v-526q0 -89 -10 -156q115 146 311 146q186 0 308 -135t122 -375q0 -261 -152 -414.5t-432 -153.5q-87 0 -197.5 17.5t-205.5 48.5zM379 195q91 -29 186 -29q141 0 223 90.5t82 255.5q0 167 -73.5 255.5t-178.5 88.5q-132 0 -233 -104 v-445q0 -79 -6 -112z" />
<glyph unicode="c" horiz-adv-x="1017" d="M100 508q0 139 41.5 246.5t113 171.5t162 96.5t195.5 32.5q160 0 271 -49l-19 -195q-124 45 -229 45q-129 0 -209 -76t-80 -243q0 -93 24.5 -163t68 -111t96 -61t114.5 -20q117 0 252 60l-4 -197q-127 -65 -289 -65q-227 0 -367.5 140t-140.5 388z" />
<glyph unicode="d" horiz-adv-x="1216" d="M100 494q0 254 149 406.5t408 152.5q91 0 174 -21v537l240 22v-1581l-217 -20l-10 129q-128 -142 -316 -142q-186 0 -307 136t-121 381zM346 524q0 -171 72.5 -259.5t177.5 -88.5q128 0 235 107v553q-89 30 -176 30q-144 0 -226.5 -89.5t-82.5 -252.5z" />
<glyph unicode="e" horiz-adv-x="1122" d="M94 526q0 237 136.5 383t361.5 146q212 0 323 -150q84 -114 84 -293q0 -57 -8 -120h-659q1 -155 95 -238.5t259 -83.5q152 0 320 63l-7 -178q-160 -75 -346 -75h-4q-274 0 -414 149q-141 150 -141 397zM334 645l434 2v11q0 102 -54 164q-57 64 -153 65q-91 0 -156 -63 t-71 -179z" />
<glyph unicode="f" horiz-adv-x="743" d="M31 825v166l162 19v57q0 162 28 252q39 139 151 209.5t275 70.5q116 0 195 -26l-17 -184q-87 18 -163 18q-98 0 -153 -42.5t-67 -137.5q-10 -44 -10 -137v-80h266l-10 -185h-256v-825h-239v825h-162z" />
<glyph unicode="g" horiz-adv-x="1118" d="M10 -272q0 89 61.5 158.5t192.5 99.5q-65 53 -65 133q0 52 28 97.5t78 76.5q-102 47 -158.5 138.5t-56.5 223.5q0 178 119.5 291t304.5 113q143 0 246 -64h327l-8 -159h-188q47 -77 47 -179q0 -173 -115.5 -288t-318.5 -115q-44 0 -76 8q-20 -26 -20 -59q0 -96 202 -101 l109 -2q200 -6 285 -82q65 -59 65 -168q0 -47 -21.5 -100.5t-70 -109t-117 -100t-174 -73t-229.5 -28.5q-116 0 -206.5 28t-140.5 72.5t-75 92.5t-25 96zM223 -233q0 -64 69.5 -114t209.5 -50q155 0 249.5 62.5t94.5 129.5q0 35 -23 58q-37 34 -170 36l-98 5q-107 3 -184 30 q-79 -26 -113.5 -67.5t-34.5 -89.5zM315 653q0 -119 55.5 -180t135.5 -61q96 0 152.5 68t56.5 177q0 119 -58.5 182.5t-140.5 63.5q-91 0 -146 -66.5t-55 -183.5z" />
<glyph unicode="h" horiz-adv-x="1189" d="M143 0v1569l242 22v-512q0 -106 -8 -161q120 137 313 137q118 0 200.5 -53t121.5 -150q24 -55 30.5 -124t6.5 -175v-553h-240v532q0 74 -6 130q-8 88 -54.5 138t-136.5 50q-124 0 -227 -100v-750h-242z" />
<glyph unicode="i" horiz-adv-x="528" d="M111 1380q0 63 43 103.5t110 40.5q68 0 110 -41t42 -105t-43.5 -104.5t-110.5 -40.5q-71 0 -111 40.5t-40 106.5zM143 0v1004l242 22v-1026h-242z" />
<glyph unicode="j" horiz-adv-x="528" d="M-84 -369q101 100 147 171t63 151.5t17 220.5v830l242 22v-876q0 -124 -16.5 -213.5t-59 -167t-102 -140.5t-156.5 -141zM111 1380q0 63 43 103.5t110 40.5q68 0 110 -41t42 -105t-43.5 -104.5t-110.5 -40.5q-71 0 -111 40.5t-40 106.5z" />
<glyph unicode="k" horiz-adv-x="1165" d="M143 0v1569l242 22v-1591h-242zM416 547l393 487h281l-400 -475l426 -559h-297z" />
<glyph unicode="l" horiz-adv-x="528" d="M143 0v1569l242 22v-1591h-242z" />
<glyph unicode="m" horiz-adv-x="1847" d="M143 0v1024l217 20l7 -137q125 148 323 148q103 0 179.5 -43.5t119.5 -124.5q136 168 354 168q120 0 204 -52.5t124 -150.5q37 -92 37 -299v-553h-242v532q0 74 -6 130q-6 88 -53 138t-137 50q-130 0 -234 -109q11 -70 11 -174v-567h-240v545q0 70 -8 133 q-8 76 -54.5 124t-132.5 48q-124 0 -227 -100v-750h-242z" />
<glyph unicode="n" horiz-adv-x="1189" d="M143 0v1024l217 20l7 -137q125 148 323 148q118 0 200.5 -53t121.5 -150q24 -55 30.5 -124t6.5 -175v-553h-240v532q0 74 -6 130q-8 88 -54.5 138t-136.5 50q-124 0 -227 -100v-750h-242z" />
<glyph unicode="o" horiz-adv-x="1230" d="M100 516q0 129 41.5 233t114 170t168.5 101t207 35q223 0 361 -135t138 -379q0 -138 -42.5 -247t-116 -176.5t-166 -102.5t-197.5 -35q-97 0 -186.5 34t-162 98.5t-116 169t-43.5 234.5zM344 530q0 -162 75.5 -261t192.5 -99h15q114 0 187 92t73 254q0 161 -74.5 255.5 t-200.5 94.5q-116 0 -192 -83t-76 -253z" />
<glyph unicode="p" horiz-adv-x="1214" d="M143 -512v1536l219 20l7 -141q119 152 317 152q186 0 308 -135t122 -375q0 -261 -152 -414.5t-432 -153.5q-79 0 -147 19v-508h-242zM385 197q77 -31 180 -31q141 0 223 90.5t82 255.5q0 167 -73.5 255.5t-178.5 88.5q-132 0 -233 -104v-555z" />
<glyph unicode="q" horiz-adv-x="1216" d="M100 494q0 259 156 410t440 151q166 0 375 -45v-1522h-240v483q0 33 9 146q-124 -140 -312 -140q-89 0 -166.5 33.5t-136 97t-92 163t-33.5 223.5zM346 520q0 -168 73 -256t177 -88q128 0 235 107v561q-81 22 -163 22q-151 0 -236.5 -87.5t-85.5 -258.5z" />
<glyph unicode="r" horiz-adv-x="806" d="M143 0v1024l219 20l5 -159q28 53 61 88t69.5 51.5t68.5 22.5t71 6q59 0 111 -17l-17 -211q-65 15 -115 15q-142 0 -231 -123v-717h-242z" />
<glyph unicode="s" horiz-adv-x="940" d="M111 231q157 -63 290 -63q89 0 135 37t46 86q0 40 -31 73t-119 64l-88 31q-125 44 -179 115t-54 169q0 54 23.5 107t69 100t124 76t178.5 29q161 0 278 -51l-16 -179q-126 45 -250 45q-85 0 -127.5 -33t-42.5 -77q0 -38 32 -68t118 -59l88 -31q241 -84 241 -293 q0 -45 -13.5 -89t-45 -87.5t-77.5 -76.5t-117 -53.5t-158 -20.5q-69 0 -151.5 16t-149.5 47z" />
<glyph unicode="t" horiz-adv-x="796" d="M20 825v164l168 21l29 221l199 2v-223h289l-11 -185h-278v-467q0 -98 42.5 -138t116.5 -40q70 0 162 31l-4 -180q-106 -49 -219 -49q-74 0 -131.5 16t-106.5 54t-75.5 109t-26.5 173v491h-154z" />
<glyph unicode="u" horiz-adv-x="1189" d="M139 483v539l242 22v-542q0 -74 6 -129q6 -88 53.5 -138.5t137.5 -50.5q120 0 227 101v737l239 22v-1034l-217 -20l-6 137q-122 -145 -323 -145q-117 0 -199.5 51.5t-122.5 148.5q-37 92 -37 301z" />
<glyph unicode="v" horiz-adv-x="1140" d="M35 1034h254l229 -651q14 -39 25.5 -76.5t18 -61.5t7.5 -26q0 15 54 164l237 651h240l-393 -1030l-291 -8z" />
<glyph unicode="w" horiz-adv-x="1769" d="M41 1034h252l182 -645q9 -35 18 -72.5l15 -62.5l6 -25q20 80 49 160l207 645h242l194 -639l43 -164q0 10 45 160l195 643h235l-338 -1030l-278 -8l-227 735l-240 -727l-283 -8z" />
<glyph unicode="x" horiz-adv-x="1124" d="M33 1034h286l244 -368l242 368h258l-352 -516l366 -518h-293l-241 358l-238 -358h-264l354 514z" />
<glyph unicode="y" horiz-adv-x="1146" d="M18 1034h271q164 -541 307 -909q71 135 137 358q71 244 103 551h237q-30 -298 -135 -635q-130 -405 -328 -622q-182 -202 -489 -312l-86 195q281 107 403 258q-97 223 -202 502t-162 446z" />
<glyph unicode="z" horiz-adv-x="1026" d="M106 0v164l488 688h-461v182h756v-166l-486 -682h517l-25 -186h-789z" />
<glyph unicode="{" horiz-adv-x="968" d="M92 467l4 164q171 17 231 86.5t60 243.5v323q0 133 31 220.5t99 136.5t164.5 66t238.5 9l-2 -153q-180 0 -248 -56t-68 -207v-290q0 -87 -6.5 -148t-22.5 -113.5t-45.5 -87t-74 -59.5t-109.5 -41q149 -29 203.5 -124.5t54.5 -307.5v-287q0 -89 12.5 -143.5t48 -91.5 t96 -51.5t159.5 -14.5v-153q-198 -13 -314 26.5t-166.5 133t-50.5 257.5v287q0 81 -6 133t-23.5 98.5t-50.5 73t-85 44.5t-130 26z" />
<glyph unicode="|" horiz-adv-x="421" d="M129 -512v2089h164v-2089h-164z" />
<glyph unicode="}" horiz-adv-x="968" d="M51 -465q180 0 248 56.5t68 207.5v307q0 109 10.5 179.5t39 127t78.5 89.5t130 53q-149 29 -203.5 123.5t-54.5 308.5v270q0 89 -12.5 143t-48 91.5t-96 52t-159.5 15.5v153q293 19 412 -78t119 -342v-270q0 -66 4 -111.5t15.5 -88.5t31.5 -70t53.5 -49.5t80.5 -35 t112 -18.5l-7 -164q-171 -17 -230.5 -86t-59.5 -243v-342q0 -132 -31 -219t-98.5 -136.5t-163.5 -66.5t-238 -10v153z" />
<glyph unicode="~" horiz-adv-x="1110" d="M88 444q32 105 71 176t80.5 104.5t77.5 45.5t78 12q62 0 168 -41l37 -14q66 -27 113 -27q96 0 168 185l149 -56q-33 -106 -72 -176.5t-80.5 -103.5t-77 -45t-77.5 -12q-69 0 -168 38l-39 15q-66 28 -113 28q-96 0 -165 -186z" />
<glyph unicode="&#xa1;" horiz-adv-x="587" d="M147 926q0 63 41 104t107 41q64 0 104.5 -42.5t40.5 -108.5q0 -61 -41.5 -103.5t-107.5 -42.5q-64 0 -104 43.5t-40 108.5zM162 -401l4 274q4 392 29 711h198q27 -348 31 -711l2 -274h-264z" />
<glyph unicode="&#xa2;" d="M143 512q0 134 39.5 239t107.5 169.5t152.5 100t182.5 40.5l8 196l119 -4l-9 -194q118 -7 209 -47l-22 -193q-95 36 -195 43l-22 -680q120 0 254 60l-4 -197q-119 -58 -258 -61l-7 -199l-118 4l6 197q-199 23 -321 160t-122 366zM391 541q0 -142 54.5 -228.5 t148.5 -115.5l24 661q-104 -14 -165.5 -92.5t-61.5 -224.5z" />
<glyph unicode="&#xa3;" d="M78 154q120 67 169.5 133.5t49.5 158.5q0 60 -27 191h-188v129h160q-21 110 -21 199q0 132 44 231.5t122.5 159t177 88.5t215.5 29q128 0 264 -41l-24 -191q-137 31 -246 31q-59 0 -109.5 -16t-94.5 -50.5t-69.5 -98.5t-25.5 -151q0 -72 25 -190h418v-129h-392 q23 -113 23 -170q0 -174 -135 -274q73 12 182 12h500l-19 -205h-805q-92 0 -186 -12z" />
<glyph unicode="&#xa4;" horiz-adv-x="1040" d="M63 315l142 142q-60 85 -60 198q0 114 60 199l-142 143l105 105l141 -144q89 64 201 64q113 0 199 -64l143 144l106 -105l-143 -143q59 -88 59 -199q0 -115 -59 -198l143 -142l-106 -104l-143 139q-88 -59 -199 -59q-110 0 -201 59l-141 -139zM293 655q0 -89 64 -153 t153 -64t153 64t64 153t-64 153t-153 64t-153 -64t-64 -153z" />
<glyph unicode="&#xa5;" d="M-4 1454h289l331 -580l326 580h262l-442 -749h360v-115h-397v-197h397v-114h-397v-279h-254v279h-391v114h391v197h-391v115h350z" />
<glyph unicode="&#xa6;" horiz-adv-x="421" d="M129 387h164v-899h-164v899zM129 678v899h164v-899h-164z" />
<glyph unicode="&#xa7;" horiz-adv-x="1337" d="M133 915q0 143 89.5 264t234.5 197q89 48 196.5 71t202.5 23q146 0 270 -40l-22 -203q-121 35 -217 35q-67 0 -111 -21q-45 -23 -70.5 -61.5t-25.5 -83.5q0 -53 34 -120.5t144 -193.5l76 -88q172 -200 233.5 -319.5t61.5 -231.5q0 -144 -89.5 -265t-234.5 -197 q-89 -48 -196 -70.5t-203 -22.5q-151 0 -270 41l22 203q128 -37 217 -37q65 0 113 23q44 22 70 60.5t26 82.5q0 53 -34.5 119.5t-145.5 193.5l-76 88q-173 199 -234 319.5t-61 233.5zM340 944q0 -78 50.5 -179t191.5 -265l75 -88q130 -152 177 -240t47 -154q0 -103 -74 -174 q98 30 157.5 106t59.5 165q0 77 -50.5 178t-191.5 266l-75 88q-130 150 -177 238t-47 153q0 107 72 176q-98 -32 -156.5 -107t-58.5 -163z" />
<glyph unicode="&#xa8;" horiz-adv-x="874" d="M102 1395q0 60 34.5 95.5t96.5 35.5q61 0 94 -36.5t33 -96.5q0 -65 -36.5 -101.5t-94.5 -36.5t-92.5 39.5t-34.5 100.5zM514 1395q0 59 35.5 95t97.5 36q61 0 93 -36t32 -97q0 -65 -35.5 -101.5t-95.5 -36.5q-58 0 -92.5 39.5t-34.5 100.5z" />
<glyph unicode="&#xa9;" horiz-adv-x="1810" d="M106 723q0 177 66 323t178 241.5t259.5 147.5t312.5 52q166 0 309.5 -53t248 -149t164.5 -240t60 -318q0 -143 -42 -266.5t-117.5 -214.5t-177 -156.5t-223 -98t-253.5 -32.5q-166 0 -310 53.5t-249 150.5t-165.5 241.5t-60.5 318.5zM279 739q0 -290 166.5 -462.5 t465.5 -172.5q281 0 453 161t172 444q0 288 -168 461t-467 173q-184 0 -324 -70.5t-219 -208t-79 -325.5zM473 725q0 133 63.5 229.5t165 142.5t226.5 46q133 0 243 -39l-12 -152q-118 37 -221 37q-115 0 -189.5 -63.5t-74.5 -188.5q0 -130 72.5 -205t207.5 -75 q109 0 246 55l-8 -152q-136 -57 -252 -57q-185 0 -293 70q-84 54 -129 145t-45 207z" />
<glyph unicode="&#xaa;" horiz-adv-x="743" d="M61 981q0 41 16.5 76.5t56 69t117 52.5t187.5 19v23q0 60 -26.5 89t-100.5 29q-104 0 -215 -53l-12 123q124 66 256 66q256 0 256 -234v-227q0 -49 15.5 -70t72.5 -24l-10 -103q-50 -8 -78 -8q-101 0 -135 78q-81 -78 -201 -78q-89 0 -144 46.5t-55 125.5zM211 1001 q0 -32 24.5 -51.5t73.5 -19.5q67 0 129 47v119q-67 2 -114.5 -6t-70.5 -23.5t-32.5 -31.5t-9.5 -34z" />
<glyph unicode="&#xab;" horiz-adv-x="1169" d="M45 535l412 493l155 -127l-305 -356l318 -387l-168 -129zM582 535l370 442l140 -113l-273 -321l285 -348l-152 -115z" />
<glyph unicode="&#xac;" horiz-adv-x="1142" d="M82 598v178h977v-434h-178v256h-799z" />
<glyph unicode="&#xae;" horiz-adv-x="1550" d="M106 842q0 151 53.5 274t146 203.5t216 124t264.5 43.5q192 0 341.5 -78.5t233 -224.5t83.5 -338q0 -151 -53 -274.5t-145.5 -204t-215.5 -124.5t-264 -44q-192 0 -342 78.5t-234 225.5t-84 339zM250 858q0 -159 57.5 -278t177 -188.5t289.5 -69.5q240 0 383 132.5 t143 374.5q0 243 -135 389t-387 146q-241 0 -384.5 -132.5t-143.5 -373.5zM512 512v698h186q63 0 116.5 -12t97 -36.5t68 -68t24.5 -102.5q0 -57 -31 -105.5t-88 -74.5l100 -113q48 -55 74 -73t67 -21l-18 -98q-96 -5 -148 22.5t-129 124.5l-90 115h-84v-256h-145zM657 866 h74q54 0 87.5 30t33.5 85q0 125 -172 125h-23v-240z" />
<glyph unicode="&#xaf;" horiz-adv-x="739" d="M102 1290v172h535v-172h-535z" />
<glyph unicode="&#xb0;" horiz-adv-x="860" d="M59 1102q0 165 110.5 269t268.5 104q156 0 258.5 -103.5t102.5 -269.5q0 -165 -110.5 -268t-268.5 -103q-156 0 -258.5 102.5t-102.5 268.5zM246 1104q0 -90 54 -146.5t128 -56.5q76 0 130 54.5t54 144.5q0 91 -54.5 147t-129.5 56q-74 0 -128 -54.5t-54 -144.5z" />
<glyph unicode="&#xb1;" horiz-adv-x="1142" d="M82 12v178h977v-178h-977zM82 764v178h399v365h178v-365h400v-178h-400v-365h-178v365h-399z" />
<glyph unicode="&#xb4;" horiz-adv-x="741" d="M102 1329l480 299l57 -188l-479 -266z" />
<glyph unicode="&#xb6;" horiz-adv-x="1390" d="M143 975q0 160 76.5 276.5t214.5 163.5q108 39 305 39h148v-1270q0 -151 -29 -235t-90 -144q60 14 106 42.5t85.5 81t60 139t20.5 204.5v1182h209v-1137q0 -164 -35.5 -290.5t-99 -211t-157.5 -138.5t-203.5 -77.5t-243.5 -23.5q-190 0 -305 47l-19 215q55 -21 124.5 -35 t121.5 -14q246 0 246 393v353q-167 -4 -291 47q-111 45 -177.5 150t-66.5 243z" />
<glyph unicode="&#xb7;" horiz-adv-x="514" d="M106 635q0 64 42.5 105.5t111.5 41.5q66 0 107 -43t41 -112q0 -64 -43 -106t-111 -42q-66 0 -107 44t-41 112z" />
<glyph unicode="&#xb8;" horiz-adv-x="604" d="M102 -367q74 -24 131 -24q47 0 72 20.5t25 53.5q0 43 -49 75.5t-162 42.5l28 113q98 -4 170.5 -27t110.5 -58.5t56 -73t18 -77.5q0 -86 -66.5 -146t-177.5 -60q-93 0 -156 32v129z" />
<glyph unicode="&#xba;" horiz-adv-x="808" d="M72 1143q0 158 98 245t246 87q145 0 234 -84t89 -236q0 -84 -27.5 -151t-75 -108.5t-107.5 -63t-128 -21.5q-86 0 -159 35.5t-121.5 112.5t-48.5 184zM238 1149q0 -94 46 -150.5t119 -56.5h9q71 0 115 52t44 149q0 94 -45 147t-123 53q-73 0 -119 -46.5t-46 -147.5z" />
<glyph unicode="&#xbb;" horiz-adv-x="1169" d="M66 862l151 115l371 -455l-371 -442l-139 113l272 321zM545 899l168 129l411 -506l-411 -493l-156 127l305 356z" />
<glyph unicode="&#xbc;" horiz-adv-x="1720" d="M68 1479l237 26h148v-891h-168v742l-207 -17zM383 -18l731 1579l109 -50l-731 -1579zM911 197v127l402 563h176v-547h121l-13 -143h-108v-197h-168v197h-410zM1087 340h234v235l4 105z" />
<glyph unicode="&#xbd;" horiz-adv-x="1720" d="M68 1479l237 26h148v-891h-168v742l-207 -17zM360 -18l732 1579l108 -50l-731 -1579zM1067 838q116 65 252 65q141 0 227 -79.5t86 -190.5q0 -87 -53.5 -181t-194.5 -225l-81 -77h380l-14 -150h-596v127l166 168q126 129 169.5 199t43.5 127q0 63 -44.5 100t-117.5 37 q-101 0 -209 -58z" />
<glyph unicode="&#xbe;" horiz-adv-x="1720" d="M76 670v149q136 -80 250 -80q81 0 122 32.5t41 80.5q0 119 -251 147v125q233 30 233 146q0 45 -37 76.5t-110 31.5q-102 0 -213 -63l-15 137q121 66 254 66q140 0 216.5 -67.5t76.5 -164.5q0 -65 -41.5 -122t-132.5 -87q105 -31 152 -91.5t47 -129.5q0 -102 -87 -180 t-251 -78q-136 0 -254 72zM444 -18l732 1579l108 -50l-731 -1579zM926 197v127l401 563h176v-547h121l-12 -143h-109v-197h-168v197h-409zM1102 340h233v235l4 105z" />
<glyph unicode="&#xbf;" horiz-adv-x="872" d="M84 -109q0 176 168 308l47 37q109 87 109 178q0 54 -35 129l192 55q90 -128 90 -231q0 -63 -33 -125t-128 -136l-48 -36q-58 -45 -81 -82.5t-23 -77.5q0 -60 53 -99.5t140 -39.5q90 0 206 39l25 -195q-138 -47 -285 -47q-96 0 -173.5 28.5t-125 75t-73 103t-25.5 116.5z M346 915q0 63 41 104.5t107 41.5q64 0 104.5 -43t40.5 -109q0 -61 -42 -103t-108 -42q-64 0 -103.5 43t-39.5 108z" />
<glyph unicode="&#xc0;" horiz-adv-x="1529" d="M86 0l516 1450l287 8l551 -1458h-281l-133 362h-563l-121 -362h-256zM461 1772l28 194l508 -221l-34 -166zM526 559h430l-163 449l-62 178q-1 -1 -6.5 -22.5t-18.5 -65.5t-28 -90z" />
<glyph unicode="&#xc1;" horiz-adv-x="1529" d="M86 0l516 1450l287 8l551 -1458h-281l-133 362h-563l-121 -362h-256zM516 1745l508 221l29 -194l-502 -193zM526 559h430l-163 449l-62 178q-1 -1 -6.5 -22.5t-18.5 -65.5t-28 -90z" />
<glyph unicode="&#xc2;" horiz-adv-x="1529" d="M86 0l516 1450l287 8l551 -1458h-281l-133 362h-563l-121 -362h-256zM373 1690l387 301l381 -289l-131 -135l-262 205l-261 -205zM526 559h430l-163 449l-62 178q-1 -1 -6.5 -22.5t-18.5 -65.5t-28 -90z" />
<glyph unicode="&#xc3;" horiz-adv-x="1529" d="M86 0l516 1450l287 8l551 -1458h-281l-133 362h-563l-121 -362h-256zM360 1616q20 69 46 119t51 78t56 44.5t55.5 21.5t54.5 5q52 0 141 -33l24 -10q54 -20 86 -20q14 0 26 3.5t29.5 14.5t36 39.5t35.5 71.5l138 -39q-20 -69 -46 -119.5t-51 -78.5t-55 -44.5t-54.5 -21.5 t-53.5 -5q-55 0 -144 33l-24 11q-54 20 -84 20q-15 0 -27 -3.5t-30 -14.5t-36.5 -39.5t-35.5 -71.5zM526 559h430l-163 449l-62 178q-1 -1 -6.5 -22.5t-18.5 -65.5t-28 -90z" />
<glyph unicode="&#xc4;" horiz-adv-x="1529" d="M86 0l516 1450l287 8l551 -1458h-281l-133 362h-563l-121 -362h-256zM414 1763q0 58 34.5 94.5t96.5 36.5q61 0 94 -36.5t33 -94.5q0 -65 -36 -101t-95 -36q-57 0 -92 39.5t-35 97.5zM526 559h430l-163 449l-62 178q-1 -1 -6.5 -22.5t-18.5 -65.5t-28 -90zM836 1763 q0 58 34.5 94.5t96.5 36.5q61 0 94 -36.5t33 -94.5q0 -65 -36.5 -101t-96.5 -36q-57 0 -91 39t-34 98z" />
<glyph unicode="&#xc5;" horiz-adv-x="1529" d="M86 0l516 1450l287 8l551 -1458h-281l-133 362h-563l-121 -362h-256zM469 1747q0 116 82.5 187t208.5 71q124 0 200 -67t76 -183q0 -115 -83 -185.5t-208 -70.5t-200.5 66.5t-75.5 181.5zM526 559h430l-163 449l-62 178q-1 -1 -6.5 -22.5t-18.5 -65.5t-28 -90zM639 1755 q0 -59 31.5 -96t83.5 -37q49 0 79.5 33t30.5 92t-30 96t-82 37q-49 0 -81 -33.5t-32 -91.5z" />
<glyph unicode="&#xc6;" horiz-adv-x="1996" d="M10 0l840 1454h926v-213h-549v-401h512v-207h-512v-420h602l-17 -213h-839v362h-477l-205 -362h-281zM602 559h371v684q-25 -64 -94 -188z" />
<glyph unicode="&#xc7;" horiz-adv-x="1558" d="M117 723q0 207 76.5 358.5t203.5 245.5q205 148 525 148q224 0 428 -78l-21 -213q-231 73 -414 73q-233 0 -366 -110q-170 -137 -170 -406q0 -154 63.5 -275.5t191 -194t300.5 -72.5q205 0 457 98l-13 -219q-229 -98 -460 -98q-298 0 -486 122q-147 93 -231 257t-84 364z M627 -207l39 125q98 -2 170.5 -25.5t110 -60t54.5 -73.5t17 -74q0 -94 -67.5 -159t-180.5 -65q-29 0 -70 8t-67 21l-4 152q74 -29 125 -29q40 0 63 19t23 49q0 38 -51 69.5t-162 42.5z" />
<glyph unicode="&#xc8;" horiz-adv-x="1216" d="M193 0v1454h802v-213h-546v-401h512v-207h-512v-420h600l-17 -213h-839zM283 1772l28 194l508 -221l-35 -166z" />
<glyph unicode="&#xc9;" horiz-adv-x="1216" d="M193 0v1454h802v-213h-546v-401h512v-207h-512v-420h600l-17 -213h-839zM379 1745l508 221l28 -194l-501 -193z" />
<glyph unicode="&#xca;" horiz-adv-x="1216" d="M193 0v1454h802v-213h-546v-401h512v-207h-512v-420h600l-17 -213h-839zM227 1690l387 301l381 -289l-131 -135l-262 205l-260 -205z" />
<glyph unicode="&#xcb;" horiz-adv-x="1216" d="M193 0v1454h802v-213h-546v-401h512v-207h-512v-420h600l-17 -213h-839zM268 1763q0 58 34.5 94.5t96.5 36.5q61 0 94 -36.5t33 -94.5q0 -65 -36 -101t-95 -36q-57 0 -92 39.5t-35 97.5zM690 1763q0 58 34.5 94.5t96.5 36.5q61 0 94 -36.5t33 -94.5q0 -65 -36.5 -101 t-96.5 -36q-57 0 -91 39t-34 98z" />
<glyph unicode="&#xcc;" horiz-adv-x="641" d="M39 1772l29 194l507 -221l-34 -166zM193 0v1454h256v-1454h-256z" />
<glyph unicode="&#xcd;" horiz-adv-x="641" d="M76 1745l508 221l28 -194l-501 -193zM193 0v1454h256v-1454h-256z" />
<glyph unicode="&#xce;" horiz-adv-x="641" d="M-59 1690l387 301l381 -289l-131 -135l-263 205l-260 -205zM193 0v1454h256v-1454h-256z" />
<glyph unicode="&#xcf;" horiz-adv-x="641" d="M-18 1763q0 58 34.5 94.5t96.5 36.5q61 0 94 -36.5t33 -94.5q0 -65 -36 -101t-95 -36q-57 0 -92 39.5t-35 97.5zM193 0v1454h256v-1454h-256zM403 1763q0 58 35 94.5t97 36.5q61 0 94 -36.5t33 -94.5q0 -65 -37 -101t-97 -36q-57 0 -91 39t-34 98z" />
<glyph unicode="&#xd0;" horiz-adv-x="1656" d="M10 651v166h193v637q150 2 405 2q489 0 721 -221q207 -198 207 -487q0 -151 -56 -287t-165 -242q-111 -108 -259.5 -164.5t-363.5 -56.5q-288 0 -489 2v651h-193zM459 213q100 -4 235 -4q162 0 271 43.5t184 128.5q123 137 123 344q0 215 -142 354q-91 88 -215.5 126 t-310.5 38q-92 0 -145 -2v-424h368v-166h-368v-438z" />
<glyph unicode="&#xd1;" horiz-adv-x="1679" d="M193 0v1454h280l776 -1079q-4 94 -4 188v891h242v-1454h-279l-778 1087q4 -47 4 -227v-860h-241zM453 1616q25 85 57 141.5t68.5 82.5t67.5 35t69 9q52 0 141 -33l25 -10q54 -20 86 -20q14 0 26 3.5t29.5 14.5t36 39.5t35.5 71.5l137 -39q-20 -69 -46 -119.5t-51 -78.5 t-55 -44.5t-54.5 -21.5t-53.5 -5q-55 0 -144 33l-24 11q-54 20 -84 20q-15 0 -27 -3.5t-30 -14.5t-36.5 -39.5t-35.5 -71.5z" />
<glyph unicode="&#xd2;" horiz-adv-x="1765" d="M117 743q0 199 84 352t229 248q196 132 461 132q361 0 567 -218q191 -201 191 -505q0 -207 -87 -377t-239 -271q-180 -124 -457 -124q-137 0 -261 41.5t-218 115.5q-130 103 -200 259.5t-70 346.5zM381 762q0 -136 45.5 -252t128.5 -193q58 -55 142 -88.5t171 -33.5h13 q185 0 305 88q95 70 146.5 187.5t51.5 260.5q0 111 -36 210t-103 171q-142 148 -377 148q-170 0 -299 -93q-88 -63 -138 -168.5t-50 -236.5zM580 1772l28 194l508 -221l-35 -166z" />
<glyph unicode="&#xd3;" horiz-adv-x="1765" d="M117 743q0 199 84 352t229 248q196 132 461 132q361 0 567 -218q191 -201 191 -505q0 -207 -87 -377t-239 -271q-180 -124 -457 -124q-137 0 -261 41.5t-218 115.5q-130 103 -200 259.5t-70 346.5zM381 762q0 -136 45.5 -252t128.5 -193q58 -55 142 -88.5t171 -33.5h13 q185 0 305 88q95 70 146.5 187.5t51.5 260.5q0 111 -36 210t-103 171q-142 148 -377 148q-170 0 -299 -93q-88 -63 -138 -168.5t-50 -236.5zM657 1745l508 221l29 -194l-502 -193z" />
<glyph unicode="&#xd4;" horiz-adv-x="1765" d="M117 743q0 199 84 352t229 248q196 132 461 132q361 0 567 -218q191 -201 191 -505q0 -207 -87 -377t-239 -271q-180 -124 -457 -124q-137 0 -261 41.5t-218 115.5q-130 103 -200 259.5t-70 346.5zM381 762q0 -136 45.5 -252t128.5 -193q58 -55 142 -88.5t171 -33.5h13 q185 0 305 88q95 70 146.5 187.5t51.5 260.5q0 111 -36 210t-103 171q-142 148 -377 148q-170 0 -299 -93q-88 -63 -138 -168.5t-50 -236.5zM502 1690l387 301l381 -289l-131 -135l-262 205l-261 -205z" />
<glyph unicode="&#xd5;" horiz-adv-x="1765" d="M117 743q0 199 84 352t229 248q196 132 461 132q361 0 567 -218q191 -201 191 -505q0 -207 -87 -377t-239 -271q-180 -124 -457 -124q-137 0 -261 41.5t-218 115.5q-130 103 -200 259.5t-70 346.5zM381 762q0 -136 45.5 -252t128.5 -193q58 -55 142 -88.5t171 -33.5h13 q185 0 305 88q95 70 146.5 187.5t51.5 260.5q0 111 -36 210t-103 171q-142 148 -377 148q-170 0 -299 -93q-88 -63 -138 -168.5t-50 -236.5zM492 1616q25 85 57 141.5t68.5 82.5t67.5 35t69 9q52 0 141 -33l25 -10q54 -20 86 -20q14 0 26 3.5t29.5 14.5t36 39.5t35.5 71.5 l137 -39q-20 -69 -46 -119.5t-51 -78.5t-55 -44.5t-54.5 -21.5t-53.5 -5q-55 0 -144 33l-24 11q-54 20 -84 20q-15 0 -27 -3.5t-30 -14.5t-36.5 -39.5t-35.5 -71.5z" />
<glyph unicode="&#xd6;" horiz-adv-x="1765" d="M117 743q0 199 84 352t229 248q196 132 461 132q361 0 567 -218q191 -201 191 -505q0 -207 -87 -377t-239 -271q-180 -124 -457 -124q-137 0 -261 41.5t-218 115.5q-130 103 -200 259.5t-70 346.5zM381 762q0 -136 45.5 -252t128.5 -193q58 -55 142 -88.5t171 -33.5h13 q185 0 305 88q95 70 146.5 187.5t51.5 260.5q0 111 -36 210t-103 171q-142 148 -377 148q-170 0 -299 -93q-88 -63 -138 -168.5t-50 -236.5zM543 1763q0 58 34.5 94.5t96.5 36.5q61 0 94 -36.5t33 -94.5q0 -65 -36.5 -101t-94.5 -36q-57 0 -92 39.5t-35 97.5zM965 1763 q0 58 34.5 94.5t96.5 36.5q61 0 94 -36.5t33 -94.5q0 -65 -36.5 -101t-96.5 -36q-57 0 -91 39t-34 98z" />
<glyph unicode="&#xd7;" horiz-adv-x="1142" d="M102 254l347 344l-347 344l125 125l344 -346l347 346l122 -125l-346 -344l346 -344l-122 -125l-347 344l-344 -344z" />
<glyph unicode="&#xd8;" horiz-adv-x="1765" d="M117 743q0 199 84 352t229 248q196 132 461 132q192 0 330 -62l145 232l152 -95l-142 -219q133 -100 202 -249t71 -330q1 -206 -86 -376.5t-240 -271.5q-180 -124 -457 -124q-175 0 -319 63l-137 -217l-154 92l137 213q-137 107 -206.5 265t-69.5 347zM381 762 q0 -121 38 -231.5t113 -184.5l564 871q-96 45 -228 45q-171 0 -299 -95q-89 -62 -138.5 -167.5t-49.5 -237.5zM670 236q90 -43 198 -43h13q185 0 305 88q95 70 146.5 188.5t51.5 261.5q0 113 -36.5 214.5t-108.5 172.5z" />
<glyph unicode="&#xd9;" horiz-adv-x="1601" d="M186 705v749h254v-758q0 -139 17.5 -227.5t68.5 -151.5q91 -118 293 -118q172 0 260 102q53 60 74 146.5t21 222.5v784h241v-747q0 -205 -33 -332.5t-120 -218.5q-75 -81 -194 -130t-271 -49q-342 0 -496 205q-66 87 -90.5 207.5t-24.5 315.5zM520 1772l29 194l508 -221 l-35 -166z" />
<glyph unicode="&#xda;" horiz-adv-x="1601" d="M186 705v749h254v-758q0 -139 17.5 -227.5t68.5 -151.5q91 -118 293 -118q172 0 260 102q53 60 74 146.5t21 222.5v784h241v-747q0 -203 -33.5 -331t-119.5 -220q-75 -81 -194 -130t-271 -49q-342 0 -496 205q-66 87 -90.5 207.5t-24.5 315.5zM557 1745l508 221l29 -194 l-502 -193z" />
<glyph unicode="&#xdb;" horiz-adv-x="1601" d="M186 705v749h254v-758q0 -139 17.5 -227.5t68.5 -151.5q91 -118 293 -118q172 0 260 102q53 60 74 146.5t21 222.5v784h241v-747q0 -205 -33 -332.5t-120 -218.5q-75 -81 -194 -130t-271 -49q-342 0 -496 205q-66 87 -90.5 207.5t-24.5 315.5zM424 1690l387 301l381 -289 l-131 -135l-262 205l-260 -205z" />
<glyph unicode="&#xdc;" horiz-adv-x="1601" d="M186 705v749h254v-758q0 -139 17.5 -227.5t68.5 -151.5q91 -118 293 -118q172 0 260 102q53 60 74 146.5t21 222.5v784h241v-747q0 -205 -33 -332.5t-120 -218.5q-75 -81 -194 -130t-271 -49q-342 0 -496 205q-66 87 -90.5 207.5t-24.5 315.5zM465 1763q0 58 34.5 94.5 t96.5 36.5q61 0 94 -36.5t33 -94.5q0 -65 -36.5 -101t-94.5 -36q-57 0 -92 39.5t-35 97.5zM887 1763q0 58 34.5 94.5t96.5 36.5q61 0 94 -36.5t33 -94.5q0 -65 -36.5 -101t-96.5 -36q-57 0 -91 39t-34 98z" />
<glyph unicode="&#xdd;" horiz-adv-x="1417" d="M31 1454h299l395 -616l389 616h272l-552 -844v-610h-254v608zM492 1745l507 221l29 -194l-502 -193z" />
<glyph unicode="&#xde;" horiz-adv-x="1275" d="M193 0v1454h256v-221h61q157 0 267.5 -26t201.5 -93q180 -131 180 -364q0 -142 -70 -258.5t-196 -174.5q-143 -65 -330 -47v201q136 -6 211 37q58 34 91.5 92t33.5 129q0 143 -106 219q-94 68 -285 68h-59v-1016h-256z" />
<glyph unicode="&#xdf;" horiz-adv-x="1460" d="M25 825v166l163 19v10q0 157 29 248q92 331 531 331q117 0 210 -27.5t150 -74.5t87 -106t30 -125q0 -81 -32 -147t-77.5 -108.5t-91 -79.5t-77.5 -78t-32 -85q0 -47 31.5 -81.5t110.5 -63.5l47 -19q242 -95 242 -295q0 -45 -13.5 -89t-45 -87t-78 -76t-117.5 -53 t-158 -20q-68 0 -151 15.5t-150 45.5l-4 188q156 -65 291 -65q88 0 133 37.5t45 87.5q0 38 -30.5 71.5t-117.5 65.5l-47 19q-229 90 -229 280q0 51 17 95.5t44 78t60 64t65.5 59.5t59.5 58.5t44 67.5t17 81q0 73 -63 127.5t-193 54.5q-133 0 -204 -64.5t-85 -172.5 q-8 -49 -8 -136v-1042h-240v825h-163z" />
<glyph unicode="&#xe0;" horiz-adv-x="1101" d="M82 258q0 52 15 98t56 93t105.5 80.5t172 55t247.5 23.5v27q0 95 -19 137q-42 92 -180 92q-151 0 -319 -82l-17 174q73 47 173.5 72t191.5 25q253 0 348 -148q33 -51 44 -118.5t11 -168.5v-311q0 -85 11 -111q21 -52 113 -57h28l-10 -145q-71 -14 -138 -14 q-157 0 -204 120q-131 -123 -316 -123q-138 0 -225.5 76.5t-87.5 204.5zM162 1440l55 188l481 -299l-57 -155zM301 283q0 -56 43 -92.5t123 -36.5q111 0 211 77v220q-108 2 -185 -12t-117 -39.5t-57.5 -54t-17.5 -62.5z" />
<glyph unicode="&#xe1;" horiz-adv-x="1101" d="M82 258q0 52 15 98t56 93t105.5 80.5t172 55t247.5 23.5v27q0 95 -19 137q-42 92 -180 92q-151 0 -319 -82l-17 174q73 47 173.5 72t191.5 25q253 0 348 -148q33 -51 44 -118.5t11 -168.5v-311q0 -85 11 -111q21 -52 113 -57h28l-10 -145q-71 -14 -138 -14 q-157 0 -204 120q-131 -123 -316 -123q-138 0 -225.5 76.5t-87.5 204.5zM297 1329l479 299l58 -188l-480 -266zM301 283q0 -56 43 -92.5t123 -36.5q111 0 211 77v220q-108 2 -185 -12t-117 -39.5t-57.5 -54t-17.5 -62.5z" />
<glyph unicode="&#xe2;" horiz-adv-x="1101" d="M82 258q0 52 15 98t56 93t105.5 80.5t172 55t247.5 23.5v27q0 95 -19 137q-42 92 -180 92q-151 0 -319 -82l-17 174q73 47 173.5 72t191.5 25q253 0 348 -148q33 -51 44 -118.5t11 -168.5v-311q0 -85 11 -111q21 -52 113 -57h28l-10 -145q-71 -14 -138 -14 q-157 0 -204 120q-131 -123 -316 -123q-138 0 -225.5 76.5t-87.5 204.5zM137 1292l377 334l358 -328l-137 -120l-239 221l-244 -219zM301 283q0 -56 43 -92.5t123 -36.5q111 0 211 77v220q-108 2 -185 -12t-117 -39.5t-57.5 -54t-17.5 -62.5z" />
<glyph unicode="&#xe3;" horiz-adv-x="1101" d="M82 258q0 52 15 98t56 93t105.5 80.5t172 55t247.5 23.5v27q0 95 -19 137q-42 92 -180 92q-151 0 -319 -82l-17 174q73 47 173.5 72t191.5 25q253 0 348 -148q33 -51 44 -118.5t11 -168.5v-311q0 -85 11 -111q21 -52 113 -57h28l-10 -145q-71 -14 -138 -14 q-157 0 -204 120q-131 -123 -316 -123q-138 0 -225.5 76.5t-87.5 204.5zM109 1243q25 85 57 142t68.5 83t67.5 35.5t69 9.5q50 0 141 -34l25 -9q54 -20 86 -20q15 0 26 3t29 14t36.5 39t35.5 71l137 -39q-25 -85 -57 -142t-68 -83t-67 -35.5t-68 -9.5q-50 0 -144 35l-24 8 q-54 20 -84 20q-16 0 -27.5 -3t-29.5 -14t-36.5 -39t-35.5 -71zM301 283q0 -56 43 -92.5t123 -36.5q111 0 211 77v220q-108 2 -185 -12t-117 -39.5t-57.5 -54t-17.5 -62.5z" />
<glyph unicode="&#xe4;" horiz-adv-x="1101" d="M82 258q0 52 15 98t56 93t105.5 80.5t172 55t247.5 23.5v27q0 95 -19 137q-42 92 -180 92q-151 0 -319 -82l-17 174q73 47 173.5 72t191.5 25q253 0 348 -148q33 -51 44 -118.5t11 -168.5v-311q0 -85 11 -111q21 -52 113 -57h28l-10 -145q-71 -14 -138 -14 q-157 0 -204 120q-131 -123 -316 -123q-138 0 -225.5 76.5t-87.5 204.5zM164 1395q0 60 34.5 95.5t96.5 35.5q61 0 94 -36.5t33 -96.5q0 -65 -36.5 -101.5t-94.5 -36.5t-92.5 39.5t-34.5 100.5zM301 283q0 -56 43 -92.5t123 -36.5q111 0 211 77v220q-108 2 -185 -12 t-117 -39.5t-57.5 -54t-17.5 -62.5zM575 1395q0 59 36 95t98 36q61 0 93 -36t32 -97q0 -65 -36 -101.5t-96 -36.5q-58 0 -92.5 39.5t-34.5 100.5z" />
<glyph unicode="&#xe5;" horiz-adv-x="1101" d="M82 258q0 52 15 98t56 93t105.5 80.5t172 55t247.5 23.5v27q0 95 -19 137q-42 92 -180 92q-151 0 -319 -82l-17 174q73 47 173.5 72t191.5 25q253 0 348 -148q33 -51 44 -118.5t11 -168.5v-311q0 -85 11 -111q21 -52 113 -57h28l-10 -145q-71 -14 -138 -14 q-157 0 -204 120q-131 -123 -316 -123q-138 0 -225.5 76.5t-87.5 204.5zM219 1403q0 117 81.5 191.5t205.5 74.5q125 0 199.5 -69.5t74.5 -184.5q0 -118 -81 -193t-205 -75q-125 0 -200 69.5t-75 186.5zM301 283q0 -56 43 -92.5t123 -36.5q111 0 211 77v220q-108 2 -185 -12 t-117 -39.5t-57.5 -54t-17.5 -62.5zM387 1413q0 -70 31 -107.5t84 -37.5q48 0 80 35t32 100q0 70 -31.5 107.5t-84.5 37.5q-47 0 -79 -34.5t-32 -100.5z" />
<glyph unicode="&#xe6;" horiz-adv-x="1703" d="M82 258q0 52 15 98t56 93t105.5 80.5t172 55t247.5 23.5v27q0 95 -19 137q-42 92 -180 92q-151 0 -319 -82l-17 174q73 47 173.5 72t191.5 25q125 0 202.5 -33t120.5 -105q125 140 343 140q210 0 321 -150t76 -413h-660q1 -155 95.5 -238.5t259.5 -83.5q151 0 319 63 l-6 -178q-156 -75 -346 -75q-290 0 -430 163q-178 -166 -402 -166q-143 0 -231 76t-88 205zM301 283q0 -56 44 -92.5t126 -36.5q65 0 131 31t119 89q-33 73 -43 177q-108 2 -185 -12t-117 -39.5t-57.5 -54t-17.5 -62.5zM913 645l435 2q4 111 -52.5 175.5t-154.5 64.5 q-91 0 -156.5 -63t-71.5 -179z" />
<glyph unicode="&#xe7;" horiz-adv-x="1017" d="M100 508q0 139 41.5 246.5t113 171.5t162 96.5t195.5 32.5q160 0 271 -49l-19 -195q-124 45 -229 45q-129 0 -209 -76t-80 -243q0 -93 24.5 -163t68 -111t96 -61t114.5 -20q117 0 252 60l-4 -197q-127 -65 -289 -65q-227 0 -367.5 140t-140.5 388zM393 -367 q73 -24 131 -24q47 0 72 20.5t25 53.5q0 43 -49 75.5t-162 42.5l28 113q98 -4 170.5 -27t110.5 -58.5t56 -73t18 -77.5q0 -86 -66.5 -146t-177.5 -60q-93 0 -156 32v129z" />
<glyph unicode="&#xe8;" horiz-adv-x="1122" d="M94 526q0 237 136.5 383t361.5 146q212 0 323 -150t76 -413h-659q1 -155 95 -238.5t259 -83.5q152 0 320 63l-7 -178q-160 -75 -346 -75q-277 -1 -418 149t-141 397zM246 1440l55 188l481 -299l-57 -155zM334 645l434 2q3 111 -54 175.5t-153 64.5q-91 0 -156 -63 t-71 -179z" />
<glyph unicode="&#xe9;" horiz-adv-x="1122" d="M94 526q0 237 136.5 383t361.5 146q212 0 323 -150t76 -413h-659q1 -155 95 -238.5t259 -83.5q152 0 320 63l-7 -178q-160 -75 -346 -75q-277 -1 -418 149t-141 397zM334 645l434 2q3 111 -54 175.5t-153 64.5q-91 0 -156 -63t-71 -179zM358 1329l480 299l57 -188 l-479 -266z" />
<glyph unicode="&#xea;" horiz-adv-x="1122" d="M94 526q0 237 136.5 383t361.5 146q212 0 323 -150t76 -413h-659q1 -155 95 -238.5t259 -83.5q152 0 320 63l-7 -178q-160 -75 -346 -75q-277 -1 -418 149t-141 397zM211 1292l377 334l358 -328l-137 -120l-240 221l-243 -219zM334 645l434 2q3 111 -54 175.5t-153 64.5 q-91 0 -156 -63t-71 -179z" />
<glyph unicode="&#xeb;" horiz-adv-x="1122" d="M94 526q0 237 136.5 383t361.5 146q212 0 323 -150t76 -413h-659q1 -155 95 -238.5t259 -83.5q152 0 320 63l-7 -178q-160 -75 -346 -75q-277 -1 -418 149t-141 397zM238 1395q0 60 34.5 95.5t96.5 35.5q61 0 94 -36.5t33 -96.5q0 -65 -36.5 -101.5t-94.5 -36.5 t-92.5 39.5t-34.5 100.5zM334 645l434 2q3 111 -54 175.5t-153 64.5q-91 0 -156 -63t-71 -179zM649 1395q0 59 35.5 95t97.5 36q61 0 93 -36t32 -97q0 -65 -35.5 -101.5t-95.5 -36.5q-58 0 -92.5 39.5t-34.5 100.5z" />
<glyph unicode="&#xec;" horiz-adv-x="528" d="M0 1493l94 174l408 -391l-88 -141zM143 0v1004l242 22v-1026h-242z" />
<glyph unicode="&#xed;" horiz-adv-x="528" d="M29 1276l407 391l94 -174l-413 -358zM143 0v1004l242 22v-1026h-242z" />
<glyph unicode="&#xee;" horiz-adv-x="528" d="M-96 1292l377 334l358 -328l-137 -120l-240 221l-244 -219zM145 0v1004l240 22v-1026h-240z" />
<glyph unicode="&#xef;" horiz-adv-x="528" d="M-70 1395q0 60 34.5 95.5t96.5 35.5q61 0 94 -36.5t33 -96.5q0 -65 -36.5 -101.5t-94.5 -36.5t-92.5 39.5t-34.5 100.5zM145 0v1004l240 22v-1026h-240zM342 1395q0 59 35.5 95t97.5 36q61 0 93 -36t32 -97q0 -65 -35.5 -101.5t-95.5 -36.5q-58 0 -92.5 39.5t-34.5 100.5 z" />
<glyph unicode="&#xf0;" horiz-adv-x="1210" d="M94 434q0 151 62 267t170 180q65 40 150 60t165 20q79 0 180 -23q-48 206 -170 319l-241 -163l-97 116l199 136q-134 73 -326 79l27 177q286 0 487 -125l181 120l94 -114l-144 -101q128 -117 199.5 -289.5t71.5 -385.5q0 -183 -41.5 -324.5t-116.5 -230t-176 -134 t-223 -45.5q-207 0 -329 128t-122 333zM336 461q0 -148 69.5 -224.5t165.5 -76.5q49 0 96 19.5t78 56.5q105 121 105 426q0 71 -4 106q-97 27 -176 27q-134 0 -213 -62q-121 -91 -121 -272z" />
<glyph unicode="&#xf1;" horiz-adv-x="1189" d="M143 0v1024l217 20l7 -137q125 148 323 148q118 0 200.5 -53t121.5 -150q24 -55 30.5 -124t6.5 -175v-553h-240v532q0 74 -6 130q-8 88 -54.5 138t-136.5 50q-124 0 -227 -100v-750h-242zM205 1243q25 85 57 142t68.5 83t67.5 35.5t69 9.5q50 0 141 -34l25 -9 q54 -20 86 -20q15 0 26 3t29 14t36.5 39t35.5 71l137 -39q-25 -85 -57 -142t-68 -83t-67 -35.5t-68 -9.5q-49 0 -143 35l-25 8q-54 20 -84 20q-16 0 -27.5 -3t-29.5 -14t-36.5 -39t-35.5 -71z" />
<glyph unicode="&#xf2;" horiz-adv-x="1230" d="M100 516q0 129 41.5 233t114 170t168.5 101t207 35q223 0 361 -135t138 -379q0 -138 -42.5 -247t-116 -176.5t-166 -102.5t-197.5 -35q-97 0 -186.5 34t-162 98.5t-116 169t-43.5 234.5zM289 1440l55 188l481 -299l-57 -155zM344 530q0 -162 75.5 -261t192.5 -99h15 q114 0 187 92t73 254q0 161 -74.5 255.5t-200.5 94.5q-116 0 -192 -83t-76 -253z" />
<glyph unicode="&#xf3;" horiz-adv-x="1230" d="M100 516q0 129 41.5 233t114 170t168.5 101t207 35q223 0 361 -135t138 -379q0 -138 -42.5 -247t-116 -176.5t-166 -102.5t-197.5 -35q-97 0 -186.5 34t-162 98.5t-116 169t-43.5 234.5zM344 530q0 -162 75.5 -261t192.5 -99h15q114 0 187 92t73 254q0 161 -74.5 255.5 t-200.5 94.5q-116 0 -192 -83t-76 -253zM401 1329l480 299l57 -188l-479 -266z" />
<glyph unicode="&#xf4;" horiz-adv-x="1230" d="M100 516q0 129 41.5 233t114 170t168.5 101t207 35q223 0 361 -135t138 -379q0 -138 -42.5 -247t-116 -176.5t-166 -102.5t-197.5 -35q-97 0 -186.5 34t-162 98.5t-116 169t-43.5 234.5zM254 1292l377 334l358 -328l-137 -120l-240 221l-243 -219zM344 530 q0 -162 75.5 -261t192.5 -99h15q114 0 187 92t73 254q0 161 -74.5 255.5t-200.5 94.5q-116 0 -192 -83t-76 -253z" />
<glyph unicode="&#xf5;" horiz-adv-x="1230" d="M100 516q0 129 41.5 233t114 170t168.5 101t207 35q223 0 361 -135t138 -379q0 -138 -42.5 -247t-116 -176.5t-166 -102.5t-197.5 -35q-97 0 -186.5 34t-162 98.5t-116 169t-43.5 234.5zM223 1243q25 85 57 142t68.5 83t67.5 35.5t69 9.5q51 0 142 -34l24 -9 q54 -20 86 -20q15 0 26 3t29 14t36.5 39t35.5 71l137 -39q-25 -85 -57 -142t-68 -83t-67 -35.5t-68 -9.5q-49 0 -143 35l-25 8q-54 20 -84 20q-16 0 -27.5 -3t-29.5 -14t-36.5 -39t-35.5 -71zM344 530q0 -162 75.5 -261t192.5 -99h15q114 0 187 92t73 254q0 161 -74.5 255.5 t-200.5 94.5q-116 0 -192 -83t-76 -253z" />
<glyph unicode="&#xf6;" horiz-adv-x="1230" d="M100 516q0 129 41.5 233t114 170t168.5 101t207 35q223 0 361 -135t138 -379q0 -138 -42.5 -247t-116 -176.5t-166 -102.5t-197.5 -35q-97 0 -186.5 34t-162 98.5t-116 169t-43.5 234.5zM281 1395q0 60 34.5 95.5t96.5 35.5q61 0 94 -36.5t33 -96.5q0 -65 -36.5 -101.5 t-94.5 -36.5t-92.5 39.5t-34.5 100.5zM344 530q0 -162 75.5 -261t192.5 -99h15q114 0 187 92t73 254q0 161 -74.5 255.5t-200.5 94.5q-116 0 -192 -83t-76 -253zM692 1395q0 59 35.5 95t97.5 36q61 0 93 -36t32 -97q0 -65 -35.5 -101.5t-95.5 -36.5q-58 0 -92.5 39.5 t-34.5 100.5z" />
<glyph unicode="&#xf7;" horiz-adv-x="1163" d="M82 520v178h977v-178h-977zM459 223q0 50 34 84.5t87 34.5q50 0 82 -36.5t32 -88.5q0 -50 -34 -83.5t-87 -33.5q-52 0 -83 35t-31 88zM459 995q0 50 34 84.5t87 34.5q50 0 82 -36.5t32 -88.5q0 -50 -34 -83.5t-87 -33.5q-52 0 -83 35t-31 88z" />
<glyph unicode="&#xf8;" horiz-adv-x="1230" d="M100 516q0 129 41.5 233t114 170t168.5 101t207 35q124 0 225 -43l148 219l120 -78l-147 -219q153 -140 153 -393q0 -138 -42.5 -247t-116 -176.5t-166 -102.5t-197.5 -35q-122 0 -237 53l-131 -195l-121 78l133 199q-152 146 -152 401zM342 530q0 -128 55 -213l338 523 q-54 28 -123 28q-116 0 -193 -84t-77 -254zM487 203q56 -35 125 -35h15q114 0 188 93t74 255q0 131 -60 213z" />
<glyph unicode="&#xf9;" horiz-adv-x="1189" d="M139 483v539l242 22v-542q0 -74 6 -129q6 -88 53.5 -138.5t137.5 -50.5q120 0 227 101v737l239 22v-1034l-217 -20l-6 137q-122 -145 -323 -145q-117 0 -199.5 51.5t-122.5 148.5q-37 92 -37 301zM246 1440l55 188l481 -299l-57 -155z" />
<glyph unicode="&#xfa;" horiz-adv-x="1189" d="M139 483v539l242 22v-542q0 -74 6 -129q6 -88 53.5 -138.5t137.5 -50.5q120 0 227 101v737l239 22v-1034l-217 -20l-6 137q-122 -145 -323 -145q-117 0 -199.5 51.5t-122.5 148.5q-37 92 -37 301zM401 1329l480 299l57 -188l-479 -266z" />
<glyph unicode="&#xfb;" horiz-adv-x="1189" d="M139 483v539l242 22v-542q0 -74 6 -129q6 -88 53.5 -138.5t137.5 -50.5q120 0 227 101v737l239 22v-1034l-217 -20l-6 137q-122 -145 -323 -145q-117 0 -199.5 51.5t-122.5 148.5q-37 92 -37 301zM231 1292l377 334l359 -328l-138 -120l-239 221l-244 -219z" />
<glyph unicode="&#xfc;" horiz-adv-x="1189" d="M139 483v539l242 22v-542q0 -74 6 -129q6 -88 53.5 -138.5t137.5 -50.5q120 0 227 101v737l239 22v-1034l-217 -20l-6 137q-122 -145 -323 -145q-117 0 -199.5 51.5t-122.5 148.5q-37 92 -37 301zM260 1395q0 60 34.5 95.5t96.5 35.5q61 0 94 -36.5t33 -96.5 q0 -65 -36.5 -101.5t-94.5 -36.5t-92.5 39.5t-34.5 100.5zM672 1395q0 59 35.5 95t97.5 36q61 0 93 -36t32 -97q0 -65 -35.5 -101.5t-95.5 -36.5q-58 0 -92.5 39.5t-34.5 100.5z" />
<glyph unicode="&#xfd;" horiz-adv-x="1146" d="M18 1034h271q164 -541 307 -909q71 135 137 358q71 244 103 551h237q-30 -298 -135 -635q-130 -405 -328 -622q-182 -202 -489 -312l-86 195q281 107 403 258q-97 223 -202 502t-162 446zM350 1329l479 299l58 -188l-479 -266z" />
<glyph unicode="&#xfe;" horiz-adv-x="1214" d="M143 -512v2081l242 22v-499q0 -48 -4 -95.5t-8 -70.5l-4 -23q119 152 317 152q186 0 308 -135t122 -375q0 -261 -152 -414.5t-432 -153.5q-80 0 -147 15v-504h-242zM385 195q86 -29 180 -29q141 0 223 90.5t82 255.5q0 167 -73.5 255.5t-178.5 88.5q-132 0 -233 -104 v-557z" />
<glyph unicode="&#xff;" horiz-adv-x="1146" d="M18 1034h271q164 -541 307 -909q71 135 137 358q71 244 103 551h237q-30 -298 -135 -635q-130 -405 -328 -622q-182 -202 -489 -312l-86 195q281 107 403 258q-97 223 -202 502t-162 446zM217 1395q0 60 34.5 95.5t96.5 35.5q61 0 94 -36.5t33 -96.5q0 -65 -36.5 -101.5 t-94.5 -36.5t-92.5 39.5t-34.5 100.5zM629 1395q0 59 35.5 95t97.5 36q61 0 93 -36t32 -97q0 -65 -35.5 -101.5t-95.5 -36.5q-58 0 -92.5 39.5t-34.5 100.5z" />
<glyph unicode="&#x152;" horiz-adv-x="2154" d="M117 743q0 204 78.5 359t220.5 246q186 127 450 127q145 0 264 -21h803v-213h-549v-401h512v-207h-512v-420h603l-17 -213h-840q-153 -20 -262 -20q-296 0 -489 153q-129 101 -195.5 259t-66.5 351zM381 762q0 -298 164 -449q128 -118 329 -118h11q127 0 245 30v1006 q-123 29 -262 29q-187 0 -311 -89q-86 -60 -131 -168t-45 -241z" />
<glyph unicode="&#x153;" horiz-adv-x="1906" d="M90 516q0 129 42 233t115 170t169 101t207 35q250 0 383 -172q130 172 370 172q212 0 323 -150t75 -413h-658q1 -155 95 -238.5t259 -83.5q152 0 320 63l-6 -178q-160 -75 -346 -75q-304 0 -441 188q-69 -92 -172.5 -140t-224.5 -48q-77 0 -150.5 21t-139 64.5 t-114.5 106t-77.5 151t-28.5 193.5zM336 530q0 -162 75.5 -261t192.5 -99h14q114 0 187.5 92t73.5 254q0 161 -74.5 255.5t-200.5 94.5q-116 0 -192 -83t-76 -253zM1118 645l434 2q3 111 -53.5 175.5t-152.5 64.5q-91 0 -156.5 -63t-71.5 -179z" />
<glyph unicode="&#x178;" horiz-adv-x="1417" d="M31 1454h299l395 -616l389 616h272l-552 -844v-610h-254v608zM358 1763q0 58 34.5 94.5t96.5 36.5q61 0 94 -36.5t33 -94.5q0 -65 -36 -101t-95 -36q-57 0 -92 39.5t-35 97.5zM780 1763q0 58 34.5 94.5t96.5 36.5q61 0 94 -36.5t33 -94.5q0 -65 -36.5 -101t-96.5 -36 q-57 0 -91 39t-34 98z" />
<glyph unicode="&#x2c6;" horiz-adv-x="940" d="M102 1292l377 334l359 -328l-138 -120l-239 221l-244 -219z" />
<glyph unicode="&#x2dc;" horiz-adv-x="983" d="M102 1243q20 69 46 119.5t51 78.5t55.5 45t55.5 22t55 5q50 0 141 -34l24 -9q54 -20 86 -20q15 0 26 3t29 14t36.5 39t35.5 71l138 -39q-25 -85 -57 -142t-68 -83t-67 -35.5t-68 -9.5q-50 0 -144 35l-24 8q-54 20 -84 20q-16 0 -27.5 -3t-29.5 -14t-36.5 -39t-35.5 -71z " />
<glyph unicode="&#x2000;" horiz-adv-x="1002" />
<glyph unicode="&#x2001;" horiz-adv-x="2005" />
<glyph unicode="&#x2002;" horiz-adv-x="1002" />
<glyph unicode="&#x2003;" horiz-adv-x="2005" />
<glyph unicode="&#x2004;" horiz-adv-x="668" />
<glyph unicode="&#x2005;" horiz-adv-x="501" />
<glyph unicode="&#x2006;" horiz-adv-x="334" />
<glyph unicode="&#x2007;" horiz-adv-x="334" />
<glyph unicode="&#x2008;" horiz-adv-x="250" />
<glyph unicode="&#x2009;" horiz-adv-x="401" />
<glyph unicode="&#x200a;" horiz-adv-x="111" />
<glyph unicode="&#x2010;" horiz-adv-x="665" d="M51 467v192h563v-192h-563z" />
<glyph unicode="&#x2011;" horiz-adv-x="665" d="M51 467v192h563v-192h-563z" />
<glyph unicode="&#x2012;" horiz-adv-x="665" d="M51 467v192h563v-192h-563z" />
<glyph unicode="&#x2013;" horiz-adv-x="1024" d="M41 455v204h942v-204h-942z" />
<glyph unicode="&#x2014;" horiz-adv-x="2048" d="M41 455v204h1966v-204h-1966z" />
<glyph unicode="&#x2018;" horiz-adv-x="520" d="M86 1208q0 200 268 445l131 -86q-237 -242 -137 -391q12 -16 27.5 -32.5t24.5 -25.5l10 -8q-25 -54 -66.5 -80t-89.5 -26q-63 0 -109 43q-59 56 -59 161z" />
<glyph unicode="&#x2019;" horiz-adv-x="520" d="M35 991q237 242 137 391q-12 16 -27.5 32.5t-24.5 25.5l-9 8q49 106 155 106q63 0 109 -43q59 -56 59 -161q0 -200 -268 -445z" />
<glyph unicode="&#x201a;" horiz-adv-x="520" d="M35 -250q237 242 137 391q-12 16 -27 32.5t-25 24.5l-9 9q49 106 155 106q63 0 109 -43q59 -56 59 -161q0 -200 -268 -445z" />
<glyph unicode="&#x201c;" horiz-adv-x="935" d="M86 1221q0 186 250 434l129 -84q-219 -241 -121 -395q10 -18 24 -36.5t22 -27.5l9 -10q-58 -86 -143 -86q-69 0 -113 47q-57 57 -57 158zM539 1219q0 39 7.5 74.5t30 87.5t73.5 116.5t128 136.5l123 -84q-54 -58 -87 -110t-45 -89t-10.5 -72.5t9.5 -57t23 -45.5 q11 -18 25 -36t22 -27l8 -9q-59 -88 -144 -88q-60 0 -108 45q-55 58 -55 158z" />
<glyph unicode="&#x201d;" horiz-adv-x="935" d="M35 1022q54 58 87 110t45 89t10.5 72.5t-9.5 57.5t-23 46q-11 18 -25 36t-22 27l-8 8q59 88 143 88q61 0 109 -45q55 -58 55 -157q0 -39 -7.5 -74.5t-30 -88t-73.5 -117t-128 -136.5zM471 1001q220 242 121 396q-10 18 -24 36.5t-22 27.5l-9 9q58 86 143 86q69 0 113 -47 q57 -57 57 -157q0 -186 -250 -434z" />
<glyph unicode="&#x201e;" horiz-adv-x="935" d="M35 -221q54 58 87 110t45 89t10.5 72.5t-9.5 57.5t-23 46q-11 18 -25 36t-22 26l-8 9q59 88 143 88q61 0 109 -45q55 -58 55 -157q0 -39 -7.5 -74.5t-30 -88t-73.5 -117t-128 -136.5zM471 -242q220 242 121 396q-10 18 -24 36.5t-22 27.5l-9 9q58 86 143 86q69 0 113 -47 q57 -57 57 -157q0 -187 -250 -435z" />
<glyph unicode="&#x2022;" horiz-adv-x="540" d="M72 750q0 84 56 141t144 57t142.5 -59.5t54.5 -147.5q0 -83 -59.5 -139.5t-145.5 -56.5q-84 0 -138 60t-54 145z" />
<glyph unicode="&#x2026;" horiz-adv-x="1339" d="M106 135q0 65 40.5 106.5t109.5 41.5q65 0 104 -43t39 -113q0 -64 -40.5 -105.5t-108.5 -41.5q-64 0 -104 43.5t-40 111.5zM522 135q0 65 40.5 106.5t109.5 41.5q66 0 105.5 -43.5t39.5 -112.5q0 -64 -41 -105.5t-108 -41.5q-65 0 -105.5 43.5t-40.5 111.5zM938 135 q0 64 40.5 106t108.5 42q66 0 106 -43.5t40 -112.5q0 -64 -41.5 -105.5t-108.5 -41.5q-65 0 -105 43.5t-40 111.5z" />
<glyph unicode="&#x202f;" horiz-adv-x="401" />
<glyph unicode="&#x2039;" horiz-adv-x="692" d="M45 532l414 494l155 -127l-305 -356l318 -387l-168 -129z" />
<glyph unicode="&#x203a;" horiz-adv-x="692" d="M66 899l167 129l414 -506l-414 -493l-155 127l305 356z" />
<glyph unicode="&#x205f;" horiz-adv-x="501" />
<glyph unicode="&#x20ac;" d="M45 516v115h139q-4 39 -4 100l6 100h-141v115h152q19 136 75 239.5t138.5 165.5t181 93t209.5 31q163 0 295 -50l-21 -198q-154 47 -268 47q-142 0 -239.5 -82t-116.5 -246h491v-115h-506q-2 -41 -2 -98l4 -102h504v-115h-489q15 -112 68 -188.5t127 -111t165 -34.5 q135 0 307 74l-14 -203q-150 -73 -330 -73q-241 0 -397.5 139t-185.5 397h-148z" />
<glyph unicode="&#x2122;" horiz-adv-x="2134" d="M72 1288v166h716l-8 -166h-260v-725h-186v725h-262zM930 563l33 891h237l273 -659l288 659h228l32 -891h-178l-24 619l-273 -619h-168l-258 617l-20 -617h-170z" />
<glyph unicode="&#x25fc;" horiz-adv-x="1034" d="M0 0v1034h1034v-1034h-1034z" />
<glyph unicode="&#xfb01;" horiz-adv-x="1263" d="M31 825v166l162 19v39q0 129 20 224t78 165q64 81 165.5 121t254.5 40q162 0 280 -38l-18 -185q-140 31 -260 31q-156 0 -224 -80q-36 -42 -46.5 -103t-10.5 -163v-51h266l-10 -185h-256v-825h-239v825h-162zM879 0v1004l239 22v-1026h-239z" />
<glyph unicode="&#xfb02;" horiz-adv-x="1263" d="M31 825v166l162 19v39q0 129 20 224t78 165q64 81 165.5 121t254.5 40q120 0 227 -24l180 16v-1591h-239v1391q-72 16 -166 16q-156 0 -224 -80q-36 -42 -46.5 -103t-10.5 -163v-51h266l-10 -185h-256v-825h-239v825h-162z" />
<glyph unicode="&#xfb03;" horiz-adv-x="1949" d="M31 825v166l162 19v57q0 158 26 252q40 141 149.5 210.5t274.5 69.5q85 0 145 -18l-16 -184q-64 10 -119 10q-92 0 -145 -42.5t-68 -137.5q-8 -47 -8 -137v-80h449v39q0 129 20 224t78 165q64 81 165.5 121t254.5 40q162 0 280 -38l-20 -185q-137 31 -258 31 q-154 0 -225 -80q-36 -41 -46 -102t-10 -164v-51h266l-10 -185h-256v-825h-239v825h-449v-825h-239v825h-162zM1567 0v1004l239 22v-1026h-239z" />
<glyph unicode="&#xfb04;" horiz-adv-x="1959" d="M31 825v166l162 19v57q0 158 26 252q40 141 149.5 210.5t274.5 69.5q85 0 145 -18l-16 -184q-64 10 -119 10q-93 0 -146.5 -42.5t-66.5 -137.5q-8 -47 -8 -137v-80h449v39q0 129 20 224t78 165q64 81 165.5 121t254.5 40q121 0 225 -24l182 16v-1591h-239v1391 q-72 16 -166 16q-154 0 -225 -80q-36 -41 -46 -102t-10 -164v-51h266l-10 -185h-256v-825h-239v825h-449v-825h-239v825h-162z" />
</font>
</defs>
</svg>
